<svg width="267" height="253" viewBox="0 0 267 253" fill="none" xmlns="http://www.w3.org/2000/svg">
<path d="M12.5809 141.415V210.78C12.5809 212.123 13.3569 213.347 14.5735 213.92L73.5635 241.68C73.8786 241.803 74.4059 241.963 75.0735 241.957C75.7078 241.952 76.21 241.8 76.5184 241.68L134.031 214.615L191.543 241.68C191.754 241.818 192.222 242.086 192.875 242.121C193.698 242.166 194.296 241.813 194.499 241.68L253.489 213.92C254.706 213.347 255.482 212.124 255.482 210.78V141.415C255.495 141.132 255.5 140.266 254.918 139.411C254.383 138.623 253.661 138.301 253.389 138.195L196.492 113.577V44.2553C196.492 44.2519 196.492 44.2479 196.492 44.2445C196.477 43.9009 196.402 43.196 195.956 42.4587C195.434 41.5959 194.707 41.1866 194.399 41.0354L135.409 15.5119C134.532 15.1324 133.532 15.1324 132.654 15.5119L73.6645 41.0354C73.3873 41.1486 72.6736 41.4827 72.1423 42.273C71.5784 43.1106 71.5628 43.9504 71.5709 44.2452V44.256V113.577L14.6731 138.195C14.3898 138.313 13.6938 138.649 13.1678 139.421C12.5945 140.265 12.5741 141.115 12.5809 141.415ZM137.501 74.1827L189.551 49.6874V113.576L137.501 136.097V74.1827ZM193.021 165.305L142.463 141.513L193.021 119.636L243.579 141.513L193.021 165.305ZM130.561 136.097L78.5109 113.577V49.6881L130.561 74.1834V136.097ZM75.0409 119.637L125.599 141.514L75.0409 165.305L24.4826 141.514L75.0409 119.637ZM19.5209 146.848L71.5709 171.343V233.073L19.5209 208.578V146.848ZM78.5109 171.343L130.561 146.847V208.577L78.5109 233.073V171.343ZM137.501 146.848L189.551 171.343V233.073L137.501 208.577V146.848ZM248.541 208.577L196.491 233.073V171.343L248.541 146.847V208.577ZM134.031 22.477L184.589 44.3536L134.031 68.1455L83.4726 44.3536L134.031 22.477Z" fill="white"/>
</svg>
