<svg width="90" height="83" viewBox="0 0 90 83" fill="none" xmlns="http://www.w3.org/2000/svg">
<path d="M52.0194 53.855C45.995 53.855 39.9702 51.5626 35.3834 46.9758C26.2108 37.802 26.2108 22.8764 35.3834 13.7034C44.5584 4.52962 59.4854 4.53203 68.6552 13.7034C70.2136 15.2622 71.5432 17.0228 72.6048 18.9368C73.036 19.7134 72.7558 20.6924 71.979 21.1236C71.2024 21.5572 70.2246 21.2756 69.7922 20.4976C68.875 18.8456 67.7276 17.3252 66.3804 15.978C58.462 8.06022 45.576 8.06162 37.6576 15.978C29.7392 23.8968 29.7392 36.7816 37.6576 44.7014C45.5784 52.6196 58.4618 52.621 66.3804 44.7014C70.3956 40.6862 72.5571 35.1274 72.3095 29.4496C72.2705 28.5624 72.9592 27.8116 73.8464 27.7726C74.7334 27.7612 75.485 28.4224 75.524 29.3102C75.8092 35.8858 73.306 42.325 68.655 46.976C64.0698 51.5628 58.0452 53.855 52.0194 53.855Z" fill="white"/>
<path d="M22.7745 51.6134C22.0217 51.6134 21.3493 51.083 21.1973 50.3178C20.4861 46.725 21.2289 43.0064 23.2371 39.9814C19.6077 29.1206 22.4329 16.9962 30.5535 8.87618C42.3901 -2.95803 61.6477 -2.95943 73.4817 8.87618C76.4627 11.8568 78.7497 15.343 80.2777 19.2374C80.6019 20.0642 80.1949 20.998 79.3679 21.3222C78.5423 21.6488 77.6073 21.2398 77.2819 20.4124C75.9171 16.9326 73.8725 13.8168 71.2071 11.1508C60.6269 0.570175 43.4105 0.571375 32.8279 11.1508C25.3883 18.591 22.9201 29.7898 26.5395 39.6824C26.7281 40.1976 26.6413 40.7732 26.3095 41.2092C24.4761 43.6196 23.7635 46.7112 24.3541 49.6918C24.5263 50.564 23.9595 51.4098 23.0887 51.5832C22.9831 51.6032 22.8775 51.6134 22.7745 51.6134Z" fill="white"/>
<path d="M34.7299 61.4231C33.8351 61.4231 32.9341 61.3363 32.0417 61.1605C31.1697 60.9883 30.6029 60.1413 30.7749 59.2705C30.9485 58.3983 31.7853 57.8365 32.6649 58.0037C35.6509 58.5943 38.7397 57.8819 41.1475 56.0483C41.5837 55.7165 42.1593 55.6299 42.6745 55.8183C52.5645 59.4363 63.7667 56.9697 71.2075 49.5287C76.4981 44.2393 79.3897 36.9151 79.1409 29.4343C79.1109 28.5465 79.8069 27.8025 80.6943 27.7729C81.5979 27.7611 82.3267 28.4395 82.3557 29.3273C82.6347 37.6951 79.4001 45.8867 73.4823 51.8033C65.3617 59.9239 53.2371 62.7529 42.3743 59.1211C40.1021 60.6289 37.4381 61.4231 34.7299 61.4231Z" fill="white"/>
<path d="M26.2979 67.2401C25.8855 67.2401 25.4747 67.0831 25.1607 66.7689L15.5885 57.1967C14.9601 56.5683 14.9601 55.5505 15.5885 54.9221L21.6443 48.8661C22.2727 48.2377 23.2907 48.2377 23.9191 48.8661L26.9577 51.9049C27.5861 52.5333 27.5861 53.5511 26.9577 54.1795C26.3293 54.8079 25.3115 54.8079 24.6831 54.1795L22.7817 52.2781L19.0005 56.0595L26.2981 63.3571L30.0793 59.5743L28.5487 58.0437C27.9203 57.4153 27.9203 56.3975 28.5487 55.7691C29.1771 55.1407 30.1949 55.1407 30.8233 55.7691L33.4913 58.4369C34.1197 59.0653 34.1197 60.0831 33.4913 60.7115L27.4353 66.7689C27.1209 67.0829 26.7099 67.2401 26.2979 67.2401Z" fill="white"/>
<path d="M11.9876 82.358C8.7856 82.358 5.7746 81.1114 3.5114 78.847C1.2468 76.5824 0 73.5714 0 70.3694C0 67.1672 1.2468 64.1564 3.5112 61.893L11.7674 53.6354C13.092 52.3084 15.2522 52.3084 16.5768 53.6354L28.7214 65.7814C30.0472 67.107 30.0472 69.2648 28.7214 70.5906L20.465 78.8472C18.2006 81.1114 15.1898 82.358 11.9876 82.358ZM14.173 55.8648C14.1228 55.8648 14.0724 55.88 14.0424 55.91L5.7858 64.1676C4.1296 65.8242 3.2172 68.027 3.2172 70.3696C3.2172 72.7132 4.1294 74.915 5.7858 76.5726C7.4422 78.2288 9.645 79.1412 11.9874 79.1412C14.3312 79.1412 16.5328 78.229 18.1904 76.5726L26.4468 68.316C26.5184 68.2444 26.5184 68.1276 26.4468 68.056L14.3022 55.91C14.271 55.8798 14.222 55.8648 14.173 55.8648Z" fill="white"/>
<path d="M58.5587 42.59C58.4921 42.59 58.4255 42.5862 58.3589 42.5774C57.7545 42.502 57.2441 42.091 57.0419 41.5168L50.4821 22.923L44.8271 34.5292C44.5567 35.0826 43.9963 35.4334 43.3805 35.4334H30.3801C29.4917 35.4334 28.7715 34.7132 28.7715 33.8248C28.7715 32.9362 29.4917 32.2162 30.3801 32.2162H42.3753L49.2733 18.0584C49.5585 17.4758 50.1403 17.1166 50.8113 17.1566C51.4585 17.1936 52.0203 17.616 52.2365 18.2272L59.0063 37.4144L64.9655 28.4868C65.2645 28.0394 65.7661 27.771 66.3039 27.771H88.3913C89.2797 27.771 89.9999 28.4912 89.9999 29.3796C89.9999 30.2682 89.2797 30.9882 88.3913 30.9882H67.1645L59.8971 41.8748C59.5955 42.325 59.0915 42.59 58.5587 42.59Z" fill="white"/>
</svg>
