<svg width="60" height="60" viewBox="0 0 60 60" fill="none" xmlns="http://www.w3.org/2000/svg">
<g clip-path="url(#clip0_2049_212426)">
<path d="M30 5.59961C34.9388 5.59961 39.5246 7.0771 43.3838 9.5918L40.6094 12.3662C37.5051 10.4888 33.8714 9.40039 30 9.40039C18.6436 9.40039 9.40039 18.6436 9.40039 30C9.40039 41.3564 18.6436 50.5996 30 50.5996C32.866 50.5996 35.5916 49.9926 38.0664 48.915L40.9492 51.7979C37.6572 53.4654 33.936 54.4004 30 54.4004C16.5314 54.4004 5.59961 43.4686 5.59961 30C5.59961 16.5314 16.5314 5.59961 30 5.59961ZM51.9004 30.5996V38.0996H59.4004V41.9004H51.9004V49.4004H48.0996V41.9004H40.5996V38.0996H48.0996V30.5996H51.9004ZM54.1494 12.9512L26.4746 40.6514L16.7227 30.8994L19.3994 28.2227L26.0508 34.874L26.4746 35.2988L26.8994 34.874L51.4766 10.2959L54.1494 12.9512Z" fill="white" fill-opacity="0.7" stroke="#05020C" stroke-width="1.2"/>
</g>
<defs>
<clipPath id="clip0_2049_212426">
<rect width="60" height="60" fill="white"/>
</clipPath>
</defs>
</svg>
