<svg width="254" height="76" viewBox="0 0 254 76" fill="none" xmlns="http://www.w3.org/2000/svg">
<foreignObject x="-25.3333" y="-25.3333" width="304" height="126.491"><div xmlns="http://www.w3.org/1999/xhtml" style="backdrop-filter:blur(12.67px);clip-path:url(#bgblur_0_6893_577_clip_path);height:100%;width:100%"></div></foreignObject><g filter="url(#filter0_ii_6893_577)" data-figma-bg-blur-radius="25.3333">
<path d="M0 9.04762C0 4.05076 4.05076 0 9.04762 0H244.286C249.283 0 253.333 4.05076 253.333 9.04762V46.2251C253.333 51.222 249.283 55.2727 244.286 55.2727H154.822C152.706 55.2727 150.657 56.0144 149.031 57.3688L127.078 75.6572C126.834 75.8609 126.485 75.881 126.219 75.7067L97.2572 56.7502C95.7844 55.7862 94.0624 55.2727 92.3022 55.2727H9.04762C4.05076 55.2727 0 51.222 0 46.2251V9.04762Z" fill="url(#paint0_linear_6893_577)" fill-opacity="0.5"/>
<path d="M9.04785 0.904297H244.286C248.783 0.90452 252.429 4.55081 252.429 9.04785V46.2256C252.428 50.7224 248.783 54.3679 244.286 54.3682H154.822C152.495 54.3682 150.24 55.184 148.452 56.6738L126.602 74.876L97.7529 55.9932C96.1329 54.9328 94.238 54.3682 92.3018 54.3682H9.04785C4.55083 54.3682 0.904555 50.7225 0.904297 46.2256V9.04785C0.904297 4.55067 4.55068 0.904297 9.04785 0.904297Z" stroke="url(#paint1_linear_6893_577)" stroke-opacity="0.5" stroke-width="1.80952"/>
</g>
<path d="M57.01 23.5L58.738 15.244H60.818L62.834 23.5H61.522L59.506 15.276H60.018L58.274 23.5H57.01ZM56.226 23.5V22.284H58.002V23.5H56.226ZM55.874 23.5L53.458 14.956H54.93L57.282 23.5H55.874ZM61.842 23.5V22.284H63.618V23.5H61.842ZM62.562 23.5L64.61 14.956H66.002L63.906 23.5H62.562ZM71.5522 23.788C70.8056 23.788 70.1602 23.66 69.6162 23.404C69.0722 23.148 68.6296 22.812 68.2882 22.396C67.9469 21.9693 67.6909 21.4947 67.5202 20.972C67.3602 20.4493 67.2802 19.916 67.2802 19.372V19.084C67.2802 18.5293 67.3602 17.9907 67.5202 17.468C67.6909 16.9453 67.9469 16.476 68.2882 16.06C68.6296 15.6333 69.0616 15.2973 69.5842 15.052C70.1176 14.796 70.7416 14.668 71.4562 14.668C72.3842 14.668 73.1469 14.8707 73.7442 15.276C74.3522 15.6707 74.8002 16.1827 75.0882 16.812C75.3869 17.4413 75.5362 18.1133 75.5362 18.828V19.516H67.9522V18.364H74.4162L74.0642 18.988C74.0642 18.38 73.9682 17.8573 73.7762 17.42C73.5842 16.972 73.2962 16.6253 72.9122 16.38C72.5282 16.1347 72.0429 16.012 71.4562 16.012C70.8482 16.012 70.3416 16.1507 69.9362 16.428C69.5416 16.7053 69.2429 17.084 69.0402 17.564C68.8482 18.044 68.7522 18.5987 68.7522 19.228C68.7522 19.836 68.8482 20.3853 69.0402 20.876C69.2429 21.356 69.5522 21.74 69.9682 22.028C70.3842 22.3053 70.9122 22.444 71.5522 22.444C72.2242 22.444 72.7682 22.2947 73.1842 21.996C73.6109 21.6973 73.8669 21.3507 73.9522 20.956H75.3922C75.2749 21.5427 75.0402 22.0493 74.6882 22.476C74.3362 22.9027 73.8936 23.228 73.3602 23.452C72.8269 23.676 72.2242 23.788 71.5522 23.788ZM76.9194 16.684V15.852H77.0634C77.4047 15.852 77.6767 15.7933 77.8794 15.676C78.082 15.5587 78.226 15.3773 78.3114 15.132C78.4074 14.876 78.4554 14.556 78.4554 14.172V12.972L78.8394 13.692C78.7647 13.7347 78.6634 13.7667 78.5354 13.788C78.418 13.8093 78.3007 13.82 78.1834 13.82C77.8847 13.82 77.634 13.7293 77.4314 13.548C77.2394 13.356 77.1434 13.0947 77.1434 12.764C77.1434 12.4547 77.234 12.1987 77.4154 11.996C77.6074 11.7933 77.8634 11.692 78.1834 11.692C78.386 11.692 78.578 11.74 78.7594 11.836C78.9407 11.932 79.09 12.1027 79.2074 12.348C79.3247 12.5933 79.3834 12.9453 79.3834 13.404V13.74C79.3834 14.5187 79.2874 15.1213 79.0954 15.548C78.9034 15.9747 78.6314 16.2733 78.2794 16.444C77.9274 16.604 77.5114 16.684 77.0314 16.684H76.9194ZM83.4786 23.5L80.5666 14.956H82.1666L85.0146 23.5H83.4786ZM83.8626 23.5V22.284H85.7186V23.5H83.8626ZM84.5986 23.5L87.0786 14.956H88.5826L86.0546 23.5H84.5986ZM94.0679 23.788C93.3212 23.788 92.6759 23.66 92.1319 23.404C91.5879 23.148 91.1452 22.812 90.8039 22.396C90.4625 21.9693 90.2065 21.4947 90.0359 20.972C89.8759 20.4493 89.7959 19.916 89.7959 19.372V19.084C89.7959 18.5293 89.8759 17.9907 90.0359 17.468C90.2065 16.9453 90.4625 16.476 90.8039 16.06C91.1452 15.6333 91.5772 15.2973 92.0999 15.052C92.6332 14.796 93.2572 14.668 93.9719 14.668C94.8999 14.668 95.6625 14.8707 96.2599 15.276C96.8679 15.6707 97.3159 16.1827 97.6039 16.812C97.9025 17.4413 98.0519 18.1133 98.0519 18.828V19.516H90.4679V18.364H96.9319L96.5799 18.988C96.5799 18.38 96.4839 17.8573 96.2919 17.42C96.0999 16.972 95.8119 16.6253 95.4279 16.38C95.0439 16.1347 94.5585 16.012 93.9719 16.012C93.3639 16.012 92.8572 16.1507 92.4519 16.428C92.0572 16.7053 91.7585 17.084 91.5559 17.564C91.3639 18.044 91.2679 18.5987 91.2679 19.228C91.2679 19.836 91.3639 20.3853 91.5559 20.876C91.7585 21.356 92.0679 21.74 92.4839 22.028C92.8999 22.3053 93.4279 22.444 94.0679 22.444C94.7399 22.444 95.2839 22.2947 95.6999 21.996C96.1265 21.6973 96.3825 21.3507 96.4679 20.956H97.9079C97.7905 21.5427 97.5559 22.0493 97.2039 22.476C96.8519 22.9027 96.4092 23.228 95.8759 23.452C95.3425 23.676 94.7399 23.788 94.0679 23.788ZM103.873 26.7V14.956H105.089V18.652L104.801 18.62C104.855 17.7027 105.047 16.956 105.377 16.38C105.719 15.7933 106.161 15.3613 106.705 15.084C107.249 14.8067 107.841 14.668 108.481 14.668C109.1 14.668 109.66 14.7853 110.161 15.02C110.673 15.2547 111.111 15.5747 111.473 15.98C111.836 16.3853 112.113 16.8547 112.305 17.388C112.497 17.9213 112.593 18.4867 112.593 19.084V19.372C112.593 19.9693 112.492 20.5347 112.289 21.068C112.087 21.6013 111.799 22.0707 111.425 22.476C111.063 22.8813 110.625 23.2013 110.113 23.436C109.612 23.6707 109.057 23.788 108.449 23.788C107.841 23.788 107.26 23.6547 106.705 23.388C106.151 23.1213 105.692 22.6893 105.329 22.092C104.967 21.4947 104.759 20.7107 104.705 19.74L105.409 21.02V26.7H103.873ZM108.209 22.444C108.785 22.444 109.287 22.3107 109.713 22.044C110.14 21.7667 110.471 21.388 110.705 20.908C110.94 20.4173 111.057 19.8573 111.057 19.228C111.057 18.588 110.94 18.028 110.705 17.548C110.471 17.068 110.14 16.6947 109.713 16.428C109.287 16.1507 108.785 16.012 108.209 16.012C107.697 16.012 107.223 16.1293 106.785 16.364C106.348 16.588 105.996 16.9187 105.729 17.356C105.473 17.7827 105.345 18.3 105.345 18.908V19.644C105.345 20.2307 105.479 20.732 105.745 21.148C106.012 21.564 106.364 21.884 106.801 22.108C107.239 22.332 107.708 22.444 108.209 22.444ZM117.865 23.756C116.851 23.756 116.073 23.4253 115.529 22.764C114.985 22.1027 114.713 21.148 114.713 19.9V14.94H116.249V20.204C116.249 20.876 116.43 21.404 116.793 21.788C117.155 22.1613 117.646 22.348 118.265 22.348C118.905 22.348 119.427 22.1453 119.833 21.74C120.238 21.324 120.441 20.7587 120.441 20.044V14.94H121.977V23.5H120.761V19.836H120.953C120.953 20.6787 120.841 21.3933 120.617 21.98C120.393 22.556 120.057 22.9987 119.609 23.308C119.171 23.6067 118.611 23.756 117.929 23.756H117.865ZM129.463 23.788C128.759 23.788 128.13 23.6333 127.575 23.324C127.031 23.0147 126.599 22.5667 126.279 21.98C125.959 21.3827 125.783 20.668 125.751 19.836H126.167V23.5H124.951V11.82H126.487V17.5L125.943 18.668C125.986 17.74 126.173 16.9827 126.503 16.396C126.834 15.8093 127.266 15.3773 127.799 15.1C128.343 14.812 128.941 14.668 129.591 14.668C130.199 14.668 130.754 14.7853 131.255 15.02C131.757 15.244 132.189 15.5587 132.551 15.964C132.914 16.3587 133.191 16.8227 133.383 17.356C133.575 17.8787 133.671 18.444 133.671 19.052V19.34C133.671 19.948 133.57 20.5187 133.367 21.052C133.175 21.5853 132.893 22.06 132.519 22.476C132.146 22.8813 131.698 23.2013 131.175 23.436C130.663 23.6707 130.093 23.788 129.463 23.788ZM129.287 22.444C129.863 22.444 130.365 22.3053 130.791 22.028C131.218 21.7507 131.549 21.372 131.783 20.892C132.018 20.4013 132.135 19.836 132.135 19.196C132.135 18.556 132.013 17.996 131.767 17.516C131.533 17.036 131.202 16.668 130.775 16.412C130.349 16.1453 129.853 16.012 129.287 16.012C128.775 16.012 128.301 16.1293 127.863 16.364C127.426 16.588 127.074 16.9187 126.807 17.356C126.551 17.7827 126.423 18.3 126.423 18.908V19.644C126.423 20.2307 126.557 20.732 126.823 21.148C127.09 21.564 127.442 21.884 127.879 22.108C128.317 22.332 128.786 22.444 129.287 22.444ZM136.079 23.5V11.82H137.615V23.5H136.079ZM134.895 13.036V11.82H137.615V13.036H134.895ZM140.977 23.5V14.956H142.513V23.5H140.977ZM139.665 16.172V14.956H142.513V16.172H139.665ZM141.409 13.58C141.068 13.58 140.812 13.4893 140.641 13.308C140.481 13.1267 140.401 12.8973 140.401 12.62C140.401 12.3427 140.481 12.1133 140.641 11.932C140.812 11.7507 141.068 11.66 141.409 11.66C141.75 11.66 142.001 11.7507 142.161 11.932C142.332 12.1133 142.417 12.3427 142.417 12.62C142.417 12.8973 142.332 13.1267 142.161 13.308C142.001 13.4893 141.75 13.58 141.409 13.58ZM148.283 23.756C147.163 23.756 146.293 23.516 145.675 23.036C145.067 22.556 144.752 21.9 144.731 21.068H146.171C146.192 21.3987 146.357 21.7133 146.667 22.012C146.987 22.3 147.525 22.444 148.283 22.444C148.965 22.444 149.488 22.3107 149.851 22.044C150.213 21.7667 150.395 21.4307 150.395 21.036C150.395 20.684 150.261 20.412 149.995 20.22C149.728 20.0173 149.296 19.884 148.699 19.82L147.771 19.724C146.96 19.6387 146.299 19.3987 145.787 19.004C145.275 18.5987 145.019 18.0333 145.019 17.308C145.019 16.764 145.157 16.3 145.435 15.916C145.712 15.5213 146.096 15.2227 146.587 15.02C147.077 14.8067 147.643 14.7 148.283 14.7C149.243 14.7 150.021 14.9133 150.619 15.34C151.216 15.7667 151.525 16.4013 151.547 17.244H150.107C150.096 16.9027 149.936 16.6147 149.627 16.38C149.328 16.1347 148.88 16.012 148.283 16.012C147.685 16.012 147.232 16.1347 146.923 16.38C146.613 16.6253 146.459 16.9347 146.459 17.308C146.459 17.628 146.565 17.884 146.779 18.076C147.003 18.268 147.365 18.3907 147.867 18.444L148.795 18.54C149.712 18.636 150.448 18.892 151.003 19.308C151.557 19.7133 151.835 20.2893 151.835 21.036C151.835 21.5693 151.68 22.044 151.371 22.46C151.072 22.8653 150.656 23.1853 150.123 23.42C149.589 23.644 148.976 23.756 148.283 23.756ZM154.061 23.5V11.82H155.597V18.796H155.213C155.213 17.9533 155.32 17.228 155.533 16.62C155.757 16.0013 156.098 15.5267 156.557 15.196C157.016 14.8653 157.602 14.7 158.317 14.7H158.381C159.405 14.7 160.178 15.0413 160.701 15.724C161.224 16.396 161.485 17.3613 161.485 18.62V23.5H159.949V18.3C159.949 17.6067 159.752 17.068 159.357 16.684C158.973 16.3 158.472 16.108 157.853 16.108C157.17 16.108 156.621 16.3373 156.205 16.796C155.8 17.244 155.597 17.836 155.597 18.572V23.5H154.061ZM167.927 23.788C167.181 23.788 166.535 23.66 165.991 23.404C165.447 23.148 165.005 22.812 164.663 22.396C164.322 21.9693 164.066 21.4947 163.895 20.972C163.735 20.4493 163.655 19.916 163.655 19.372V19.084C163.655 18.5293 163.735 17.9907 163.895 17.468C164.066 16.9453 164.322 16.476 164.663 16.06C165.005 15.6333 165.437 15.2973 165.959 15.052C166.493 14.796 167.117 14.668 167.831 14.668C168.759 14.668 169.522 14.8707 170.119 15.276C170.727 15.6707 171.175 16.1827 171.463 16.812C171.762 17.4413 171.911 18.1133 171.911 18.828V19.516H164.327V18.364H170.791L170.439 18.988C170.439 18.38 170.343 17.8573 170.151 17.42C169.959 16.972 169.671 16.6253 169.287 16.38C168.903 16.1347 168.418 16.012 167.831 16.012C167.223 16.012 166.717 16.1507 166.311 16.428C165.917 16.7053 165.618 17.084 165.415 17.564C165.223 18.044 165.127 18.5987 165.127 19.228C165.127 19.836 165.223 20.3853 165.415 20.876C165.618 21.356 165.927 21.74 166.343 22.028C166.759 22.3053 167.287 22.444 167.927 22.444C168.599 22.444 169.143 22.2947 169.559 21.996C169.986 21.6973 170.242 21.3507 170.327 20.956H171.767C171.65 21.5427 171.415 22.0493 171.063 22.476C170.711 22.9027 170.269 23.228 169.735 23.452C169.202 23.676 168.599 23.788 167.927 23.788ZM177.66 23.788C177.052 23.788 176.492 23.676 175.98 23.452C175.468 23.228 175.02 22.9133 174.636 22.508C174.263 22.1027 173.969 21.6333 173.756 21.1C173.553 20.5667 173.452 19.9907 173.452 19.372V19.084C173.452 18.476 173.553 17.9053 173.756 17.372C173.959 16.8387 174.241 16.3693 174.604 15.964C174.977 15.5587 175.415 15.244 175.916 15.02C176.428 14.7853 176.993 14.668 177.612 14.668C178.263 14.668 178.855 14.8067 179.388 15.084C179.921 15.3507 180.359 15.772 180.7 16.348C181.041 16.924 181.233 17.6707 181.276 18.588L180.636 17.564V11.82H182.172V23.5H180.956V19.708H181.404C181.361 20.6787 181.159 21.468 180.796 22.076C180.433 22.6733 179.975 23.1107 179.42 23.388C178.876 23.6547 178.289 23.788 177.66 23.788ZM177.868 22.444C178.391 22.444 178.865 22.3267 179.292 22.092C179.719 21.8573 180.06 21.5213 180.316 21.084C180.572 20.636 180.7 20.1133 180.7 19.516V18.78C180.7 18.1933 180.567 17.6973 180.3 17.292C180.044 16.876 179.697 16.5613 179.26 16.348C178.833 16.124 178.364 16.012 177.852 16.012C177.287 16.012 176.785 16.1453 176.348 16.412C175.921 16.6787 175.585 17.052 175.34 17.532C175.105 18.012 174.988 18.5773 174.988 19.228C174.988 19.8787 175.111 20.4493 175.356 20.94C175.601 21.42 175.943 21.7933 176.38 22.06C176.817 22.316 177.313 22.444 177.868 22.444ZM80.1273 43.5V40.94H79.8713V37.98C79.8713 37.3933 79.7166 36.9507 79.4073 36.652C79.1086 36.3533 78.666 36.204 78.0793 36.204C77.7486 36.204 77.4073 36.2093 77.0553 36.22C76.7033 36.2307 76.3673 36.2413 76.0473 36.252C75.7273 36.2627 75.45 36.2787 75.2153 36.3V34.956C75.45 34.9347 75.6953 34.9187 75.9513 34.908C76.218 34.8867 76.49 34.876 76.7673 34.876C77.0446 34.8653 77.3113 34.86 77.5673 34.86C78.442 34.86 79.1566 34.9667 79.7113 35.18C80.266 35.3827 80.6766 35.7187 80.9433 36.188C81.21 36.6573 81.3433 37.292 81.3433 38.092V43.5H80.1273ZM77.3273 43.724C76.6873 43.724 76.1326 43.6173 75.6633 43.404C75.2046 43.18 74.8473 42.86 74.5913 42.444C74.346 42.028 74.2233 41.5267 74.2233 40.94C74.2233 40.332 74.3566 39.8253 74.6233 39.42C74.9006 39.0147 75.3006 38.7107 75.8233 38.508C76.346 38.2947 76.9753 38.188 77.7113 38.188H80.0313V39.34H77.6473C77.0286 39.34 76.554 39.4893 76.2233 39.788C75.8926 40.0867 75.7273 40.4707 75.7273 40.94C75.7273 41.4093 75.8926 41.788 76.2233 42.076C76.554 42.364 77.0286 42.508 77.6473 42.508C78.01 42.508 78.3566 42.444 78.6873 42.316C79.018 42.1773 79.29 41.9533 79.5033 41.644C79.7273 41.324 79.85 40.8867 79.8713 40.332L80.2873 40.94C80.234 41.548 80.0846 42.06 79.8393 42.476C79.6046 42.8813 79.274 43.1907 78.8473 43.404C78.4313 43.6173 77.9246 43.724 77.3273 43.724ZM87.8031 43.5V34.956H89.0191V38.476H88.9551C88.9551 37.228 89.2271 36.316 89.7711 35.74C90.3257 35.1533 91.1524 34.86 92.2511 34.86H92.5391V36.236H91.9951C91.1417 36.236 90.4857 36.4653 90.0271 36.924C89.5684 37.372 89.3391 38.0227 89.3391 38.876V43.5H87.8031ZM97.9038 43.788C97.1571 43.788 96.5118 43.66 95.9678 43.404C95.4238 43.148 94.9811 42.812 94.6398 42.396C94.2985 41.9693 94.0425 41.4947 93.8718 40.972C93.7118 40.4493 93.6318 39.916 93.6318 39.372V39.084C93.6318 38.5293 93.7118 37.9907 93.8718 37.468C94.0425 36.9453 94.2985 36.476 94.6398 36.06C94.9811 35.6333 95.4131 35.2973 95.9358 35.052C96.4691 34.796 97.0931 34.668 97.8078 34.668C98.7358 34.668 99.4985 34.8707 100.096 35.276C100.704 35.6707 101.152 36.1827 101.44 36.812C101.738 37.4413 101.888 38.1133 101.888 38.828V39.516H94.3038V38.364H100.768L100.416 38.988C100.416 38.38 100.32 37.8573 100.128 37.42C99.9358 36.972 99.6478 36.6253 99.2638 36.38C98.8798 36.1347 98.3945 36.012 97.8078 36.012C97.1998 36.012 96.6931 36.1507 96.2878 36.428C95.8931 36.7053 95.5945 37.084 95.3918 37.564C95.1998 38.044 95.1038 38.5987 95.1038 39.228C95.1038 39.836 95.1998 40.3853 95.3918 40.876C95.5945 41.356 95.9038 41.74 96.3198 42.028C96.7358 42.3053 97.2638 42.444 97.9038 42.444C98.5758 42.444 99.1198 42.2947 99.5358 41.996C99.9625 41.6973 100.218 41.3507 100.304 40.956H101.744C101.626 41.5427 101.392 42.0493 101.04 42.476C100.688 42.9027 100.245 43.228 99.7118 43.452C99.1785 43.676 98.5758 43.788 97.9038 43.788ZM104.069 46.7V34.956H105.285V38.652L104.997 38.62C105.05 37.7027 105.242 36.956 105.573 36.38C105.914 35.7933 106.357 35.3613 106.901 35.084C107.445 34.8067 108.037 34.668 108.677 34.668C109.295 34.668 109.855 34.7853 110.357 35.02C110.869 35.2547 111.306 35.5747 111.669 35.98C112.031 36.3853 112.309 36.8547 112.501 37.388C112.693 37.9213 112.789 38.4867 112.789 39.084V39.372C112.789 39.9693 112.687 40.5347 112.485 41.068C112.282 41.6013 111.994 42.0707 111.621 42.476C111.258 42.8813 110.821 43.2013 110.309 43.436C109.807 43.6707 109.253 43.788 108.645 43.788C108.037 43.788 107.455 43.6547 106.901 43.388C106.346 43.1213 105.887 42.6893 105.525 42.092C105.162 41.4947 104.954 40.7107 104.901 39.74L105.605 41.02V46.7H104.069ZM108.405 42.444C108.981 42.444 109.482 42.3107 109.909 42.044C110.335 41.7667 110.666 41.388 110.901 40.908C111.135 40.4173 111.253 39.8573 111.253 39.228C111.253 38.588 111.135 38.028 110.901 37.548C110.666 37.068 110.335 36.6947 109.909 36.428C109.482 36.1507 108.981 36.012 108.405 36.012C107.893 36.012 107.418 36.1293 106.981 36.364C106.543 36.588 106.191 36.9187 105.925 37.356C105.669 37.7827 105.541 38.3 105.541 38.908V39.644C105.541 40.2307 105.674 40.732 105.941 41.148C106.207 41.564 106.559 41.884 106.997 42.108C107.434 42.332 107.903 42.444 108.405 42.444ZM119.036 43.788C118.289 43.788 117.633 43.66 117.068 43.404C116.503 43.148 116.023 42.812 115.628 42.396C115.244 41.9693 114.951 41.4947 114.748 40.972C114.556 40.4493 114.46 39.916 114.46 39.372V39.084C114.46 38.54 114.561 38.0067 114.764 37.484C114.967 36.9507 115.265 36.476 115.66 36.06C116.055 35.6333 116.535 35.2973 117.1 35.052C117.665 34.796 118.311 34.668 119.036 34.668C119.761 34.668 120.407 34.796 120.972 35.052C121.537 35.2973 122.017 35.6333 122.412 36.06C122.807 36.476 123.105 36.9507 123.308 37.484C123.511 38.0067 123.612 38.54 123.612 39.084V39.372C123.612 39.916 123.511 40.4493 123.308 40.972C123.116 41.4947 122.823 41.9693 122.428 42.396C122.044 42.812 121.569 43.148 121.004 43.404C120.439 43.66 119.783 43.788 119.036 43.788ZM119.036 42.412C119.676 42.412 120.22 42.2733 120.668 41.996C121.127 41.708 121.473 41.324 121.708 40.844C121.953 40.364 122.076 39.8253 122.076 39.228C122.076 38.62 121.953 38.076 121.708 37.596C121.463 37.116 121.111 36.7373 120.652 36.46C120.204 36.1827 119.665 36.044 119.036 36.044C118.417 36.044 117.879 36.1827 117.42 36.46C116.961 36.7373 116.609 37.116 116.364 37.596C116.119 38.076 115.996 38.62 115.996 39.228C115.996 39.8253 116.113 40.364 116.348 40.844C116.593 41.324 116.94 41.708 117.388 41.996C117.847 42.2733 118.396 42.412 119.036 42.412ZM125.912 43.5V34.956H127.128V38.476H127.064C127.064 37.228 127.336 36.316 127.88 35.74C128.435 35.1533 129.262 34.86 130.36 34.86H130.648V36.236H130.104C129.251 36.236 128.595 36.4653 128.136 36.924C127.678 37.372 127.448 38.0227 127.448 38.876V43.5H125.912ZM135.959 43.596C135.319 43.596 134.765 43.5053 134.295 43.324C133.837 43.1427 133.479 42.8333 133.223 42.396C132.978 41.948 132.855 41.3453 132.855 40.588V32.364H134.327V40.78C134.327 41.2387 134.45 41.596 134.695 41.852C134.951 42.0973 135.309 42.22 135.767 42.22H137.271V43.596H135.959ZM131.383 36.108V34.956H137.271V36.108H131.383ZM147.02 43.788C146.274 43.788 145.618 43.66 145.052 43.404C144.487 43.148 144.007 42.812 143.612 42.396C143.228 41.9693 142.935 41.4947 142.732 40.972C142.54 40.4493 142.444 39.916 142.444 39.372V39.084C142.444 38.54 142.546 38.0067 142.748 37.484C142.951 36.9507 143.25 36.476 143.644 36.06C144.039 35.6333 144.519 35.2973 145.084 35.052C145.65 34.796 146.295 34.668 147.02 34.668C147.746 34.668 148.391 34.796 148.956 35.052C149.522 35.2973 150.002 35.6333 150.396 36.06C150.791 36.476 151.09 36.9507 151.292 37.484C151.495 38.0067 151.596 38.54 151.596 39.084V39.372C151.596 39.916 151.495 40.4493 151.292 40.972C151.1 41.4947 150.807 41.9693 150.412 42.396C150.028 42.812 149.554 43.148 148.988 43.404C148.423 43.66 147.767 43.788 147.02 43.788ZM147.02 42.412C147.66 42.412 148.204 42.2733 148.652 41.996C149.111 41.708 149.458 41.324 149.692 40.844C149.938 40.364 150.06 39.8253 150.06 39.228C150.06 38.62 149.938 38.076 149.692 37.596C149.447 37.116 149.095 36.7373 148.636 36.46C148.188 36.1827 147.65 36.044 147.02 36.044C146.402 36.044 145.863 36.1827 145.404 36.46C144.946 36.7373 144.594 37.116 144.348 37.596C144.103 38.076 143.98 38.62 143.98 39.228C143.98 39.8253 144.098 40.364 144.332 40.844C144.578 41.324 144.924 41.708 145.372 41.996C145.831 42.2733 146.38 42.412 147.02 42.412ZM153.897 43.5V34.956H155.113V38.62H154.921C154.921 37.7773 155.033 37.068 155.257 36.492C155.491 35.9053 155.843 35.4627 156.313 35.164C156.782 34.8547 157.374 34.7 158.089 34.7H158.153C159.23 34.7 160.025 35.036 160.537 35.708C161.059 36.38 161.321 37.3507 161.321 38.62V43.5H159.785V38.3C159.785 37.6387 159.598 37.1107 159.225 36.716C158.851 36.3107 158.339 36.108 157.689 36.108C157.017 36.108 156.473 36.316 156.057 36.732C155.641 37.148 155.433 37.7027 155.433 38.396V43.5H153.897ZM163.827 43.5V41.548H165.683V43.5H163.827ZM163.827 37.58V35.628H165.683V37.58H163.827Z" fill="white"/>
<defs>
<filter id="filter0_ii_6893_577" x="-25.3333" y="-25.3333" width="304" height="126.491" filterUnits="userSpaceOnUse" color-interpolation-filters="sRGB">
<feFlood flood-opacity="0" result="BackgroundImageFix"/>
<feBlend mode="normal" in="SourceGraphic" in2="BackgroundImageFix" result="shape"/>
<feColorMatrix in="SourceAlpha" type="matrix" values="0 0 0 0 0 0 0 0 0 0 0 0 0 0 0 0 0 0 127 0" result="hardAlpha"/>
<feOffset dx="3.61905" dy="3.61905"/>
<feGaussianBlur stdDeviation="3.61905"/>
<feComposite in2="hardAlpha" operator="arithmetic" k2="-1" k3="1"/>
<feColorMatrix type="matrix" values="0 0 0 0 0.819608 0 0 0 0 0.898039 0 0 0 0 1 0 0 0 0.1 0"/>
<feBlend mode="normal" in2="shape" result="effect1_innerShadow_6893_577"/>
<feColorMatrix in="SourceAlpha" type="matrix" values="0 0 0 0 0 0 0 0 0 0 0 0 0 0 0 0 0 0 127 0" result="hardAlpha"/>
<feOffset dx="-7.2381" dy="-7.2381"/>
<feGaussianBlur stdDeviation="9.04762"/>
<feComposite in2="hardAlpha" operator="arithmetic" k2="-1" k3="1"/>
<feColorMatrix type="matrix" values="0 0 0 0 0.819608 0 0 0 0 0.898039 0 0 0 0 1 0 0 0 0.05 0"/>
<feBlend mode="normal" in2="effect1_innerShadow_6893_577" result="effect2_innerShadow_6893_577"/>
</filter>
<clipPath id="bgblur_0_6893_577_clip_path" transform="translate(25.3333 25.3333)"><path d="M0 9.04762C0 4.05076 4.05076 0 9.04762 0H244.286C249.283 0 253.333 4.05076 253.333 9.04762V46.2251C253.333 51.222 249.283 55.2727 244.286 55.2727H154.822C152.706 55.2727 150.657 56.0144 149.031 57.3688L127.078 75.6572C126.834 75.8609 126.485 75.881 126.219 75.7067L97.2572 56.7502C95.7844 55.7862 94.0624 55.2727 92.3022 55.2727H9.04762C4.05076 55.2727 0 51.222 0 46.2251V9.04762Z"/>
</clipPath><linearGradient id="paint0_linear_6893_577" x1="43.2354" y1="6.35642" x2="109.269" y2="109.954" gradientUnits="userSpaceOnUse">
<stop stop-color="white" stop-opacity="0.1"/>
<stop offset="1" stop-color="white" stop-opacity="0.02"/>
</linearGradient>
<linearGradient id="paint1_linear_6893_577" x1="0" y1="0" x2="239.746" y2="106.568" gradientUnits="userSpaceOnUse">
<stop stop-color="#D1E5FF" stop-opacity="0.5"/>
<stop offset="0.5" stop-color="#D1E5FF" stop-opacity="0.02"/>
<stop offset="1" stop-color="#D1E5FF" stop-opacity="0.2"/>
</linearGradient>
</defs>
</svg>
