<svg width="159" height="8" viewBox="0 0 159 8" fill="none" xmlns="http://www.w3.org/2000/svg">
<path d="M158.351 4.35578C158.548 4.16176 158.55 3.84519 158.356 3.64869L155.194 0.446636C155 0.250142 154.683 0.248138 154.487 0.442161C154.29 0.636183 154.288 0.952759 154.482 1.14925L157.293 3.99552L154.447 6.80599C154.25 7.00002 154.248 7.31659 154.442 7.51309C154.636 7.70958 154.953 7.71158 155.149 7.51756L158.351 4.35578ZM158 4L158.003 3.50001L156.484 3.49039L156.481 3.99038L156.478 4.49037L157.997 4.49999L158 4ZM153.442 3.97115L153.445 3.47116L150.407 3.45193L150.404 3.95192L150.401 4.45191L153.439 4.47114L153.442 3.97115ZM147.365 3.93269L147.369 3.4327L144.33 3.41347L144.327 3.91346L144.324 4.41345L147.362 4.43268L147.365 3.93269ZM141.288 3.89423L141.292 3.39424L138.253 3.37501L138.25 3.875L138.247 4.37499L141.285 4.39422L141.288 3.89423ZM135.212 3.85577L135.215 3.35578L132.176 3.33655L132.173 3.83654L132.17 4.33653L135.208 4.35576L135.212 3.85577ZM129.135 3.81731L129.138 3.31732L126.099 3.29809L126.096 3.79808L126.093 4.29807L129.131 4.3173L129.135 3.81731ZM123.058 3.77885L123.061 3.27886L120.022 3.25963L120.019 3.75962L120.016 4.25961L123.055 4.27884L123.058 3.77885ZM116.981 3.74038L116.984 3.24039L113.945 3.22116L113.942 3.72115L113.939 4.22114L116.978 4.24037L116.981 3.74038ZM110.904 3.70192L110.907 3.20193L107.869 3.1827L107.865 3.68269L107.862 4.18268L110.901 4.20191L110.904 3.70192ZM104.827 3.66346L104.83 3.16347L101.792 3.14424L101.788 3.64423L101.785 4.14422L104.824 4.16345L104.827 3.66346ZM98.75 3.625L98.7532 3.12501L95.7147 3.10578L95.7116 3.60577L95.7084 4.10576L98.7468 4.12499L98.75 3.625ZM92.6731 3.58654L92.6763 3.08655L89.6378 3.06732L89.6346 3.56731L89.6315 4.0673L92.6699 4.08653L92.6731 3.58654ZM86.5962 3.54808L86.5993 3.04809L83.5609 3.02886L83.5577 3.52885L83.5545 4.02884L86.593 4.04807L86.5962 3.54808ZM80.5193 3.50962L80.5224 3.00963L77.484 2.99039L77.4808 3.49038L77.4776 3.99037L80.5161 4.00961L80.5193 3.50962ZM74.4423 3.47115L74.4455 2.97116L71.407 2.95193L71.4039 3.45192L71.4007 3.95191L74.4392 3.97114L74.4423 3.47115ZM68.3654 3.43269L68.3686 2.9327L65.3301 2.91347L65.327 3.41346L65.3238 3.91345L68.3623 3.93268L68.3654 3.43269ZM62.2885 3.39423L62.2917 2.89424L59.2532 2.87501L59.25 3.375L59.2469 3.87499L62.2853 3.89422L62.2885 3.39423ZM56.2116 3.35577L56.2147 2.85578L53.1763 2.83655L53.1731 3.33654L53.17 3.83653L56.2084 3.85576L56.2116 3.35577ZM50.1347 3.31731L50.1378 2.81732L47.0994 2.79809L47.0962 3.29808L47.093 3.79807L50.1315 3.8173L50.1347 3.31731ZM44.0577 3.27885L44.0609 2.77886L41.0224 2.75963L41.0193 3.25962L41.0161 3.75961L44.0546 3.77884L44.0577 3.27885ZM37.9808 3.24038L37.984 2.74039L34.9455 2.72116L34.9424 3.22115L34.9392 3.72114L37.9777 3.74037L37.9808 3.24038ZM31.9039 3.20192L31.9071 2.70193L28.8686 2.6827L28.8654 3.18269L28.8623 3.68268L31.9007 3.70191L31.9039 3.20192ZM25.827 3.16346L25.8301 2.66347L22.7917 2.64424L22.7885 3.14423L22.7853 3.64422L25.8238 3.66345L25.827 3.16346ZM19.75 3.125L19.7532 2.62501L16.7147 2.60578L16.7116 3.10577L16.7084 3.60576L19.7469 3.62499L19.75 3.125ZM13.6731 3.08654L13.6763 2.58655L10.6378 2.56732L10.6346 3.06731L10.6315 3.5673L13.6699 3.58653L13.6731 3.08654ZM7.59615 3.04808L7.59932 2.54809L4.56086 2.52886L4.5577 3.02885L4.55454 3.52884L7.59299 3.54807L7.59615 3.04808ZM1.51922 3.00962L1.52238 2.50963L0.00317028 2.50001L5.7853e-06 3L-0.00315871 3.49999L1.51605 3.50961L1.51922 3.00962Z" fill="url(#paint0_linear_738_53223)" fill-opacity="0.7"/>
<defs>
<linearGradient id="paint0_linear_738_53223" x1="144.606" y1="3.49383" x2="-5.40212" y2="3.14363" gradientUnits="userSpaceOnUse">
<stop offset="0.174907" stop-color="white" stop-opacity="0.3"/>
<stop offset="1" stop-color="#0E0F14"/>
</linearGradient>
</defs>
</svg>
