<svg width="24" height="24" viewBox="0 0 24 24" fill="none" xmlns="http://www.w3.org/2000/svg">
<path d="M23.7803 12.5302L15.7027 20.6079C15.5618 20.7471 15.3715 20.8249 15.1733 20.8243C14.9752 20.8237 14.7854 20.7448 14.6453 20.6047C14.5052 20.4646 14.4262 20.2747 14.4256 20.0766C14.425 19.8785 14.5028 19.6882 14.6421 19.5472L21.4394 12.7499H0.75C0.551088 12.7499 0.360322 12.6709 0.21967 12.5303C0.0790176 12.3896 0 12.1988 0 11.9999C0 11.801 0.0790176 11.6103 0.21967 11.4696C0.360322 11.329 0.551088 11.2499 0.75 11.2499H21.4394L14.6421 4.45264C14.5028 4.3117 14.425 4.12138 14.4256 3.92326C14.4262 3.72514 14.5052 3.5353 14.6453 3.39521C14.7854 3.25511 14.9752 3.17614 15.1733 3.17554C15.3715 3.17494 15.5618 3.25276 15.7027 3.392L23.7803 11.4696C23.9209 11.6103 23.9999 11.801 23.9999 11.9999C23.9999 12.1988 23.9209 12.3896 23.7803 12.5302Z" fill="white"/>
</svg>
