<svg width="33" height="34" viewBox="0 0 33 34" fill="none" xmlns="http://www.w3.org/2000/svg">
<path d="M16.4156 8.68113C16.0533 8.68113 16.0533 9.22796 16.4156 9.22796C16.7778 9.22796 16.7771 8.68113 16.4156 8.68113ZM15.5909 8.1365C16.3228 7.41082 17.5818 7.92821 17.5818 8.95418C17.5818 9.98014 16.3235 10.4983 15.5909 9.77186C15.1358 9.31996 15.1358 8.58913 15.5909 8.1365ZM26.246 20.7756C26.4902 20.7756 26.6899 20.9735 26.6899 21.2157C26.6899 21.46 26.4902 21.658 26.246 21.658H24.5461C24.0666 21.658 23.6412 21.7706 23.3406 21.9502C23.1068 22.09 22.962 22.2608 22.962 22.4323C22.962 22.9747 23.7845 23.0917 24.6077 23.2102C25.8132 23.3809 27.021 23.5546 27.021 24.8603C27.021 25.8347 25.9328 26.3808 24.9796 26.492V26.8842C24.9796 27.1286 24.78 27.3244 24.5335 27.3244C24.2893 27.3244 24.0896 27.1286 24.0896 26.8842V26.517H22.671C22.4246 26.517 22.2271 26.319 22.2271 26.0746C22.2271 25.8303 22.4246 25.6345 22.671 25.6345H24.5461C25.0234 25.6345 25.4488 25.5219 25.7494 25.3423C25.9847 25.2025 26.128 25.0296 26.128 24.8603C26.128 24.3179 25.3055 24.1986 24.4823 24.0823C23.2768 23.9116 22.0705 23.7379 22.0705 22.4323C22.0705 21.4519 23.1691 20.9117 24.097 20.8028L24.1119 20.3936C24.12 20.1492 24.3264 19.9594 24.5706 19.9682C24.8171 19.9763 25.0086 20.1809 24.9997 20.423L24.9848 20.7756H26.246ZM28.8471 19.3794C26.4717 17.0242 22.6183 17.0242 20.2429 19.3794C17.8675 21.7368 17.8675 25.555 20.2429 27.9102C22.6183 30.2653 26.4717 30.2653 28.8471 27.9102C31.2225 25.555 31.2225 21.7368 28.8471 19.3794ZM29.4758 18.756C29.5768 18.8539 29.6718 18.9562 29.7638 19.0585C30.3087 15.6141 29.4521 12.0527 27.3944 9.21766C26.5949 8.11368 27.5436 6.60344 28.8901 6.82056C29.2776 6.88312 29.6414 7.09361 29.8893 7.43584C32.5445 11.0929 33.5652 15.6951 32.6982 20.1139C32.4503 21.3739 32.0546 22.6052 31.5157 23.7754C31.4838 25.5006 30.8046 27.2176 29.4743 28.5365C28.4663 29.536 27.2251 30.166 25.9224 30.4243C24.3338 31.5217 22.5597 32.3335 20.6868 32.8214C18.8333 33.3035 16.8825 33.4706 14.9191 33.2821L14.8493 33.6413C14.784 33.9813 14.3735 34.1168 14.1107 33.8834L11.2766 31.4635C11.0197 31.2427 11.0954 30.8232 11.428 30.7128L14.9673 29.4859C15.2932 29.3733 15.6109 29.6567 15.55 29.9827L15.4951 30.2705C17.3383 30.4059 19.1837 30.1623 20.9236 29.5588C19.9623 28.9811 19.1458 28.1693 18.5646 27.214H9.23594C8.98949 27.214 8.78981 27.016 8.78981 26.7716V9.20294C8.78981 8.95859 8.98949 8.76061 9.23594 8.76061H13.9073V5.39937C13.9073 5.15503 14.107 4.95925 14.3534 4.95925H18.4777C18.7219 4.95925 18.9216 5.15503 18.9216 5.39937V8.76061H23.5952C23.8417 8.76061 24.0414 8.95859 24.0414 9.20294V16.749C26.0018 16.6092 27.9949 17.287 29.4758 18.756ZM30.4861 20.0197C30.8587 20.6188 31.1297 21.2591 31.3004 21.9222C32.8971 17.2009 32.1088 11.996 29.1707 7.94882C28.8359 7.4881 28.0951 7.65443 28.0008 8.22187C27.9756 8.38452 28.0112 8.55748 28.1144 8.70173C30.4839 11.9673 31.3464 16.0999 30.4861 20.0197ZM24.0517 30.5428C23.3577 30.495 22.671 30.3448 22.0148 30.0902C21.9183 30.0924 19.082 31.5106 15.0623 31.1147L14.8857 31.1066C14.6392 31.0587 14.4856 30.8335 14.536 30.5686L12.4427 31.2943L14.1218 32.7272L14.1597 32.583C14.2562 32.36 14.5175 32.2554 14.7424 32.3497L14.9362 32.3997C18.1155 32.7125 21.28 32.0619 24.0517 30.5428ZM18.1155 26.3286C17.3665 24.5637 17.3895 22.5522 18.1853 20.8043H12.1926C11.9461 20.8043 11.7487 20.6063 11.7487 20.3619V11.9901C11.7487 11.7458 11.9461 11.55 12.1926 11.55H20.6364C20.8828 11.55 21.0825 11.7458 21.0825 11.9901V17.6417C21.7328 17.2723 22.4313 17.0139 23.1491 16.8697V9.64306H18.84C18.3538 11.4749 16.0266 12.1403 14.6444 10.7699C14.3349 10.4629 14.1055 10.0751 13.9919 9.64306H9.68281V26.3293H18.1155V26.3286ZM18.667 19.9218C18.7494 19.7945 18.8355 19.6716 18.9261 19.5487C18.9239 18.9187 18.9216 19.5133 18.9216 18.8605C18.9216 17.8213 18.3048 17.2163 17.3182 17.1935C17.2655 17.1935 16.9708 17.4813 16.4156 17.4813C15.8559 17.4813 15.5693 17.1935 15.5107 17.1935C14.5197 17.2163 13.9095 17.8213 13.9073 18.8605L13.9051 19.9226H14.2102V18.3078C14.2102 18.0635 14.4099 17.8655 14.6563 17.8655C14.9005 17.8655 15.1002 18.0635 15.1002 18.3078V19.9226H17.728V18.3078C17.728 18.0635 17.9277 17.8655 18.1741 17.8655C18.4206 17.8655 18.6202 18.0635 18.6202 18.3078V19.9226H18.667V19.9218ZM19.8013 18.5764C19.9275 18.4594 20.0581 18.349 20.1925 18.2423V12.4317H12.6387V19.9218H13.0173V18.8598C13.0173 17.5895 13.7158 16.6629 14.8812 16.392C14.6771 15.9497 14.5717 15.3764 14.6266 14.6706C14.7736 12.8115 18.0561 12.8115 18.2038 14.6706C18.2587 15.3756 18.1533 15.9497 17.9492 16.392C19.0144 16.6379 19.7062 17.4416 19.8013 18.5764ZM18.5572 0.150331L21.0907 2.88525C21.3134 3.12739 21.2087 3.5469 20.8316 3.61755L17.1913 4.42272C16.8565 4.49558 16.573 4.18058 16.6739 3.86116H16.6717L16.7266 3.68821C14.519 3.65509 12.3269 4.15997 10.3635 5.15723C9.05927 5.82035 8.07422 6.53205 7.22205 7.37255C6.36542 8.21746 5.6335 9.20662 4.83403 10.4166C4.19193 11.5367 3.7317 12.7092 3.44294 13.8985C2.53583 17.6535 3.33382 21.6448 5.60603 24.7764C5.85397 25.1186 5.93859 25.5271 5.87549 25.9113C5.74114 26.7414 4.94983 27.3067 4.1125 27.1713C3.71908 27.1065 3.31897 26.8747 3.08811 26.5243C2.16839 25.2496 1.44463 23.8601 0.929469 22.3999C-0.111995 19.4478 -0.288665 16.2515 0.452162 13.1912C0.809956 11.7119 1.38228 10.262 2.17729 8.88132C2.79416 7.65075 3.78514 6.42607 4.92979 5.34123C7.37274 3.02141 10.1735 1.5487 13.3847 0.932682C14.7907 0.663312 16.2359 0.57573 17.6835 0.678031L17.7993 0.308567C17.9032 -0.0226259 18.3322 -0.105792 18.5572 0.150331ZM19.9148 2.9191L18.4146 1.29994C18.3471 1.47952 18.1622 1.60022 17.9603 1.58329C14.9955 1.31245 12.0159 1.88137 9.37104 3.22748C8.10466 3.87 6.73435 4.84223 5.54145 5.97491C4.46807 6.99057 3.54241 8.13429 2.97231 9.27507C2.96563 9.28979 2.95746 9.30451 2.9493 9.31923C0.687475 13.2435 0.274749 17.8773 1.76902 22.1099C2.24039 23.4494 2.97454 24.8846 3.83117 26.0423C4.17857 26.5118 4.90826 26.3278 5.00105 25.7692C5.02629 25.6066 4.99066 25.4336 4.88748 25.2894C2.46308 21.9495 1.61314 17.7036 2.58111 13.6961C2.88843 12.4214 3.37836 11.1717 4.06277 9.98235C4.06945 9.96542 4.07984 9.94923 4.09023 9.93451C5.76118 7.39978 7.19607 5.7784 9.96266 4.37488C11.1014 3.79493 12.3091 3.37173 13.5547 3.11267C14.7899 2.85434 16.063 2.75572 17.336 2.82858C17.6434 2.84109 17.8349 3.12518 17.7525 3.39823L19.9148 2.9191ZM11.4495 22.0584C11.2031 22.0584 11.0056 21.8604 11.0056 21.6161C11.0056 21.3717 11.2031 21.1737 11.4495 21.1737H16.8008C17.0451 21.1737 17.2447 21.3717 17.2447 21.6161C17.2447 21.8604 17.0451 22.0584 16.8008 22.0584H11.4495ZM11.4495 25.4984C11.2031 25.4984 11.0056 25.3004 11.0056 25.056C11.0056 24.8117 11.2031 24.6137 11.4495 24.6137H16.8008C17.0451 24.6137 17.2447 24.8117 17.2447 25.056C17.2447 25.3004 17.0451 25.4984 16.8008 25.4984H11.4495ZM11.4495 23.7776C11.2031 23.7776 11.0056 23.5797 11.0056 23.3353C11.0056 23.091 11.2031 22.8952 11.4495 22.8952H16.8008C17.0451 22.8952 17.2447 23.091 17.2447 23.3353C17.2447 23.5797 17.0451 23.7776 16.8008 23.7776H11.4495ZM15.9464 14.2371C15.7126 14.3269 15.5337 14.4954 15.5152 14.7398C15.3192 17.2163 17.512 17.2163 17.316 14.7398C17.27 14.1701 16.4156 14.0597 15.9464 14.2371ZM18.0316 5.8417H14.7996V9.01306C14.7996 10.4195 16.5292 11.1621 17.5558 10.1435C17.8482 9.85355 18.0316 9.45317 18.0316 9.01306V5.8417Z" fill="white"/>
</svg>
