<svg width="25" height="33" viewBox="0 0 25 33" fill="none" xmlns="http://www.w3.org/2000/svg">
<g clip-path="url(#clip0_2024_102609)">
<path d="M12.4993 0L0 5.51513V5.97753C0 18.3904 1.20362 24.7931 12.1995 29.8613L12.4996 30L12.8001 29.8613C23.7964 24.7928 25 18.3901 25 5.97753V5.51513L12.4993 0ZM12.4993 28.432C2.56489 23.7563 1.45542 18.3283 1.42827 6.44028L12.4993 1.55539L23.5707 6.44028C23.5435 18.3283 22.4348 23.7563 12.4993 28.432ZM5.6891 14.6603L4.78311 15.7593L10.2948 20.2618L19.5669 11.0306L18.5573 10.0254L10.2 18.3451L5.6891 14.6603Z" fill="white" fill-opacity="0.7"/>
</g>
<defs>
<clipPath id="clip0_2024_102609">
<rect width="25" height="33" fill="white"/>
</clipPath>
</defs>
</svg>
