<svg width="25" height="31" viewBox="0 0 25 31" fill="none" xmlns="http://www.w3.org/2000/svg">
<path d="M24.75 13.75C24.75 21.3813 19.47 28.5175 12.375 30.25C5.28 28.5175 0 21.3813 0 13.75V5.5L12.375 0L24.75 5.5V13.75ZM12.375 27.5C17.5312 26.125 22 19.9925 22 14.0525V7.2875L12.375 2.9975L2.75 7.2875V14.0525C2.75 19.9925 7.21875 26.125 12.375 27.5ZM16.225 13.75V11.6875C16.225 9.7625 14.3 8.25 12.375 8.25C10.45 8.25 8.525 9.7625 8.525 11.6875V13.75C7.7 13.75 6.875 14.575 6.875 15.4V20.2125C6.875 21.175 7.7 22 8.525 22H16.0875C17.05 22 17.875 21.175 17.875 20.35V15.5375C17.875 14.575 17.05 13.75 16.225 13.75ZM14.4375 13.75H10.3125V11.6875C10.3125 10.5875 11.275 9.9 12.375 9.9C13.475 9.9 14.4375 10.5875 14.4375 11.6875V13.75Z" fill="white"/>
</svg>
