<svg width="65" height="65" viewBox="0 0 65 65" fill="none" xmlns="http://www.w3.org/2000/svg">
<g clip-path="url(#clip0_5371_19471)">
<path d="M16.6338 17.0414C16.6823 17.0413 16.7308 17.0411 16.7808 17.0409C16.9446 17.0404 17.1083 17.0403 17.2721 17.0403C17.3902 17.04 17.5084 17.0397 17.6265 17.0394C17.952 17.0386 18.2776 17.0382 18.6032 17.0379C18.9539 17.0375 19.3047 17.0367 19.6554 17.0359C20.5031 17.0342 21.3507 17.0332 22.1983 17.0324C22.4376 17.0321 22.677 17.0318 22.9163 17.0316C24.4022 17.0298 25.888 17.0283 27.3738 17.0275C27.7181 17.0273 28.0624 17.0271 28.4066 17.0269C28.4922 17.0268 28.5778 17.0268 28.6659 17.0267C30.0522 17.0259 31.4384 17.0236 32.8246 17.0207C34.2474 17.0178 35.6701 17.0162 37.0929 17.0159C37.8919 17.0156 38.6909 17.0148 39.4899 17.0126C40.1703 17.0107 40.8508 17.0099 41.5313 17.0107C41.8784 17.011 42.2256 17.0108 42.5728 17.0091C42.8908 17.0076 43.2087 17.0077 43.5268 17.0089C43.6416 17.0091 43.7565 17.0088 43.8714 17.0077C44.4878 17.0026 45.0401 17.007 45.5566 17.3926C46.0111 17.8484 46.1191 18.3683 46.119 18.9996C46.1183 19.0503 46.1176 19.1009 46.1168 19.1531C46.1166 19.2337 46.1166 19.2337 46.1163 19.316C46.1155 19.4852 46.1138 19.6544 46.112 19.8236C46.1114 19.9394 46.1107 20.0551 46.1102 20.1709C46.1087 20.4525 46.1063 20.7341 46.1035 21.0156C46.2224 21.013 46.2224 21.013 46.3437 21.0102C46.6405 21.004 46.9373 21.0001 47.2342 20.9969C47.3622 20.9952 47.4901 20.9928 47.6181 20.9899C49.0344 20.9578 49.0344 20.9578 49.5215 21.3574C49.85 21.7143 50.0083 21.9937 50.0092 22.4855C50.0095 22.5642 50.0098 22.6429 50.0101 22.7239C50.0101 22.8542 50.0101 22.8542 50.01 22.9871C50.0103 23.08 50.0105 23.1728 50.0108 23.2657C50.0115 23.5215 50.0117 23.7773 50.0119 24.0331C50.0122 24.3088 50.0128 24.5845 50.0134 24.8602C50.0148 25.5264 50.0155 26.1927 50.0161 26.8589C50.0164 27.1727 50.0168 27.4865 50.0171 27.8004C50.0183 28.8438 50.0193 29.8873 50.0198 30.9308C50.0199 31.2016 50.02 31.4725 50.0202 31.7433C50.0202 31.8106 50.0202 31.878 50.0203 31.9473C50.0208 33.037 50.0226 34.1267 50.0248 35.2164C50.027 36.3355 50.0283 37.4546 50.0285 38.5737C50.0286 39.2019 50.0292 39.8301 50.031 40.4582C50.0325 40.9934 50.033 41.5286 50.0324 42.0639C50.032 42.3367 50.0322 42.6095 50.0335 42.8824C50.0347 43.1327 50.0346 43.383 50.0336 43.6334C50.0333 43.7657 50.0344 43.898 50.0356 44.0304C50.0279 45.0926 49.6617 46.0281 48.9319 46.8042C47.928 47.7474 46.861 47.9918 45.5305 47.984C45.413 47.9843 45.2956 47.9847 45.1782 47.9853C44.8579 47.9864 44.5377 47.9858 44.2175 47.985C43.8712 47.9844 43.5248 47.9853 43.1785 47.9861C42.5011 47.9873 41.8236 47.987 41.1462 47.9862C40.5954 47.9856 40.0446 47.9855 39.4938 47.9858C39.4153 47.9859 39.3367 47.9859 39.2558 47.986C39.0963 47.986 38.9368 47.9861 38.7772 47.9862C37.2828 47.987 35.7884 47.9861 34.294 47.9846C33.0129 47.9834 31.7318 47.9836 30.4507 47.9849C28.9614 47.9864 27.4722 47.9869 25.983 47.9861C25.824 47.986 25.6651 47.9859 25.5062 47.9858C25.428 47.9858 25.3498 47.9857 25.2693 47.9857C24.7194 47.9855 24.1695 47.9859 23.6197 47.9865C22.9492 47.9873 22.2787 47.9871 21.6082 47.9856C21.2664 47.9849 20.9246 47.9846 20.5828 47.9855C20.2694 47.9863 19.956 47.9859 19.6427 47.9844C19.5298 47.9841 19.4169 47.9843 19.304 47.9849C18.0418 47.9918 17.055 47.6928 16.1156 46.8109C15.2086 45.8932 14.979 44.9208 14.9812 43.6683C14.9809 43.5589 14.9806 43.4495 14.9802 43.3401C14.9792 43.0402 14.9791 42.7404 14.9791 42.4405C14.979 42.1168 14.9781 41.7932 14.9773 41.4695C14.9757 40.7622 14.9752 40.0549 14.9749 39.3476C14.9746 38.9058 14.9742 38.4641 14.9737 38.0223C14.9724 36.799 14.9712 35.5756 14.971 34.3522C14.971 34.2739 14.971 34.1957 14.971 34.1151C14.971 33.9564 14.971 33.7978 14.9709 33.6392C14.9709 33.5605 14.9709 33.4817 14.9709 33.4006C14.9709 33.3218 14.9709 33.2429 14.9709 33.1617C14.9706 31.8838 14.9688 30.6059 14.9662 29.328C14.9636 28.0156 14.9623 26.7031 14.9623 25.3907C14.9622 24.6539 14.9616 23.9172 14.9597 23.1805C14.958 22.5533 14.9575 21.9262 14.9585 21.299C14.959 20.9791 14.9589 20.6592 14.9574 20.3393C14.956 20.0462 14.9562 19.7532 14.9576 19.4601C14.9578 19.3543 14.9575 19.2485 14.9565 19.1427C14.9513 18.5406 14.9844 18.037 15.3418 17.5293C15.5025 17.3752 15.5025 17.3752 15.6579 17.2858C15.7354 17.2391 15.7354 17.2391 15.8144 17.1915C16.0965 17.0484 16.3209 17.042 16.6338 17.0414ZM16.6406 18.6914C16.6336 22.9268 16.6265 27.1622 16.6192 31.5259C16.6161 32.8639 16.613 34.2019 16.6098 35.5804C16.6087 36.7784 16.6087 36.7784 16.608 37.9764C16.6077 38.5105 16.6064 39.0446 16.6045 39.5788C16.6023 40.1949 16.6014 40.8111 16.6018 41.4272C16.602 41.7424 16.6017 42.0575 16.5999 42.3726C16.5982 42.6579 16.5981 42.9431 16.5993 43.2284C16.5994 43.3312 16.599 43.434 16.5979 43.5368C16.5908 44.263 16.6911 44.9155 17.1362 45.5139C17.888 46.2315 18.6085 46.3392 19.6106 46.3356C19.7261 46.3359 19.8416 46.3363 19.9571 46.3368C20.2738 46.338 20.5905 46.3378 20.9073 46.3374C21.2491 46.3372 21.591 46.3382 21.9328 46.3391C22.6023 46.3405 23.2719 46.3408 23.9414 46.3407C24.4857 46.3406 25.03 46.3409 25.5742 46.3414C25.7311 46.3415 25.8879 46.3417 26.0447 46.3418C26.1227 46.3419 26.2008 46.342 26.2812 46.342C27.7573 46.3433 29.2334 46.3432 30.7095 46.3428C32.0594 46.3424 33.4092 46.3438 34.7591 46.3461C36.1455 46.3484 37.532 46.3494 38.9184 46.3491C39.6967 46.349 40.4749 46.3493 41.2531 46.351C41.9157 46.3525 42.5783 46.3527 43.2409 46.3514C43.5788 46.3508 43.9167 46.3507 44.2546 46.3521C44.5643 46.3534 44.8739 46.3531 45.1836 46.3515C45.2953 46.3512 45.407 46.3515 45.5187 46.3525C46.2689 46.3583 46.9412 46.2753 47.5647 45.813C48.2118 45.135 48.3906 44.4869 48.384 43.5693C48.3842 43.4798 48.3844 43.3902 48.3845 43.298C48.385 43.0506 48.3842 42.8032 48.3832 42.5558C48.3823 42.2887 48.3826 42.0215 48.3827 41.7543C48.3828 41.2917 48.3822 40.8292 48.381 40.3666C48.3794 39.6978 48.3788 39.029 48.3786 38.3602C48.3781 37.2751 48.3768 36.19 48.3748 35.1049C48.3729 34.0509 48.3715 32.997 48.3706 31.943C48.3706 31.878 48.3705 31.813 48.3705 31.7461C48.3702 31.42 48.3699 31.094 48.3697 30.7679C48.3676 28.064 48.3639 25.3602 48.3594 22.6563C47.6149 22.6563 46.8705 22.6563 46.1035 22.6563C46.0989 25.2392 46.0952 27.8222 46.093 30.4051C46.0928 30.7099 46.0925 31.0146 46.0922 31.3193C46.0922 31.3799 46.0921 31.4406 46.0921 31.5031C46.0912 32.4863 46.0896 33.4695 46.0877 34.4527C46.0858 35.461 46.0846 36.4693 46.0842 37.4776C46.0839 38.1001 46.083 38.7227 46.0814 39.3452C46.0803 39.7717 46.08 40.1982 46.0802 40.6247C46.0804 40.871 46.0801 41.1173 46.0791 41.3636C46.0779 41.6303 46.0783 41.8969 46.0788 42.1636C46.0782 42.242 46.0776 42.3204 46.077 42.4011C46.0774 42.4723 46.0778 42.5434 46.0783 42.6167C46.0782 42.6783 46.0781 42.7399 46.078 42.8034C46.1088 42.9916 46.1577 43.0507 46.3086 43.1641C46.4905 43.2178 46.4905 43.2178 46.6888 43.2538C47.0447 43.3455 47.0447 43.3455 47.1802 43.5486C47.2072 43.9141 47.1766 44.2515 47.0605 44.5996C46.6739 44.7833 46.2701 44.7996 45.8605 44.6894C45.3373 44.4985 44.9109 44.2156 44.652 43.707C44.4228 43.1269 44.4429 42.5032 44.4438 41.8897C44.4435 41.7896 44.4431 41.6894 44.4426 41.5892C44.4416 41.315 44.4413 41.0407 44.4412 40.7665C44.441 40.4658 44.4399 40.1652 44.439 39.8645C44.4373 39.2814 44.4362 38.6983 44.4354 38.1151C44.4345 37.4404 44.4327 36.7656 44.4309 36.0908C44.4266 34.31 44.4234 32.5292 44.4201 30.7483C44.4117 26.7695 44.4032 22.7908 44.3945 18.6914C35.2357 18.6914 26.0769 18.6914 16.6406 18.6914Z" fill="#05C7F2"/>
<path d="M21.1438 25.7059C21.2252 25.7055 21.3066 25.7051 21.3905 25.7048C21.613 25.704 21.8354 25.7042 22.0579 25.7048C22.2911 25.7054 22.5244 25.7049 22.7577 25.7046C23.1494 25.7042 23.541 25.7047 23.9327 25.7057C24.3849 25.7068 24.8371 25.7064 25.2894 25.7053C25.6783 25.7044 26.0672 25.7042 26.4561 25.7048C26.6881 25.7051 26.9201 25.7051 27.1521 25.7044C27.4108 25.7039 27.6695 25.7047 27.9282 25.7059C28.0047 25.7054 28.0812 25.705 28.1601 25.7046C28.8501 25.7102 28.8501 25.7102 29.1503 25.9375C29.428 26.3037 29.3847 26.7264 29.383 27.1658C29.3835 27.2479 29.3839 27.33 29.3844 27.4145C29.3854 27.6388 29.3856 27.8631 29.3852 28.0874C29.385 28.2749 29.3854 28.4625 29.3858 28.65C29.3867 29.0925 29.3866 29.5351 29.3859 29.9776C29.3851 30.4336 29.386 30.8895 29.3879 31.3455C29.3894 31.7376 29.3898 32.1297 29.3894 32.5218C29.3892 32.7557 29.3894 32.9896 29.3905 33.2235C29.3916 33.4844 29.3908 33.7452 29.3897 34.006C29.3907 34.1217 29.3907 34.1217 29.3917 34.2398C29.3877 34.6581 29.3731 34.9224 29.0819 35.2343C28.868 35.3679 28.7037 35.3883 28.4535 35.3889C28.3817 35.3894 28.3099 35.3899 28.236 35.3904C28.1576 35.3902 28.0792 35.39 27.9985 35.3898C27.9156 35.3902 27.8328 35.3905 27.7475 35.3909C27.5205 35.3917 27.2935 35.3919 27.0666 35.3917C26.877 35.3916 26.6874 35.3919 26.4978 35.3923C26.0505 35.393 25.6032 35.3931 25.1559 35.3926C24.6946 35.3922 24.2334 35.3931 23.7722 35.3945C23.3759 35.3957 22.9797 35.3961 22.5835 35.3959C22.3469 35.3958 22.1104 35.396 21.8738 35.3969C21.61 35.3979 21.3462 35.3973 21.0824 35.3965C21.0042 35.397 20.9259 35.3976 20.8453 35.3981C20.7734 35.3976 20.7014 35.3971 20.6272 35.3966C20.5337 35.3967 20.5337 35.3967 20.4383 35.3967C20.2245 35.3653 20.0966 35.291 19.9218 35.166C19.6494 34.7936 19.6878 34.3859 19.6902 33.9439C19.6898 33.8625 19.6894 33.7811 19.6891 33.6972C19.6883 33.4748 19.6885 33.2523 19.6891 33.0299C19.6897 32.7966 19.6892 32.5633 19.6889 32.3301C19.6885 31.9384 19.689 31.5467 19.69 31.155C19.6911 30.7028 19.6907 30.2506 19.6896 29.7984C19.6886 29.4095 19.6885 29.0205 19.6891 28.6316C19.6894 28.3996 19.6894 28.1676 19.6887 27.9356C19.6882 27.6769 19.689 27.4182 19.6902 27.1595C19.6897 27.083 19.6893 27.0065 19.6889 26.9277C19.6945 26.2377 19.6945 26.2377 19.9218 25.9375C20.2872 25.6609 20.7057 25.7035 21.1438 25.7059ZM21.3573 27.373C21.3573 29.471 21.3573 31.5689 21.3573 33.7304C23.4553 33.7304 25.5532 33.7304 27.7147 33.7304C27.7147 31.6325 27.7147 29.5345 27.7147 27.373C25.6168 27.373 23.5188 27.373 21.3573 27.373Z" fill="#05C7F2"/>
<path d="M20.7488 21.7585C20.8196 21.7583 20.8903 21.758 20.9632 21.7577C21.0408 21.7578 21.1184 21.7579 21.1984 21.7579C21.2809 21.7577 21.3634 21.7575 21.4484 21.7573C21.6776 21.7568 21.9068 21.7566 22.1359 21.7566C22.383 21.7564 22.6301 21.7559 22.8773 21.7555C23.4176 21.7545 23.958 21.7541 24.4984 21.7538C24.8358 21.7536 25.1732 21.7533 25.5106 21.753C26.4447 21.7522 27.3788 21.7515 28.3129 21.7513C28.3727 21.7513 28.4325 21.7512 28.494 21.7512C28.554 21.7512 28.6139 21.7512 28.6756 21.7512C28.7971 21.7512 28.9185 21.7511 29.0399 21.7511C29.1002 21.7511 29.1604 21.7511 29.2224 21.751C30.1986 21.7508 31.1747 21.7496 32.1509 21.748C33.153 21.7464 34.1551 21.7455 35.1573 21.7454C35.72 21.7454 36.2826 21.745 36.8453 21.7437C37.3244 21.7427 37.8035 21.7423 38.2826 21.7429C38.5271 21.7432 38.7715 21.7431 39.0159 21.7421C39.2809 21.7411 39.546 21.7417 39.811 21.7424C39.8882 21.7418 39.9653 21.7413 40.0448 21.7407C40.4533 21.7433 40.7557 21.7682 41.1134 21.9726C41.296 22.2122 41.3341 22.4009 41.3185 22.6946C41.2726 23.0006 41.1545 23.1476 40.9083 23.3398C40.7385 23.4247 40.6255 23.4169 40.4355 23.4171C40.3282 23.4175 40.3282 23.4175 40.2188 23.4179C40.1001 23.4178 40.1001 23.4178 39.9789 23.4177C39.8953 23.4179 39.8117 23.4181 39.7255 23.4184C39.4927 23.4188 39.2598 23.419 39.027 23.4191C38.7761 23.4192 38.5253 23.4197 38.2744 23.4202C37.7256 23.4211 37.1767 23.4215 36.6279 23.4218C36.2853 23.422 35.9428 23.4223 35.6002 23.4226C34.6523 23.4234 33.7044 23.4241 32.7564 23.4244C32.6654 23.4244 32.6654 23.4244 32.5725 23.4244C32.5116 23.4244 32.4508 23.4245 32.3881 23.4245C32.2648 23.4245 32.1415 23.4245 32.0182 23.4246C31.9264 23.4246 31.9264 23.4246 31.8328 23.4246C30.8416 23.4249 29.8503 23.4261 28.859 23.4277C27.8419 23.4293 26.8248 23.4301 25.8077 23.4302C25.2364 23.4303 24.665 23.4307 24.0937 23.4319C23.6073 23.433 23.1208 23.4333 22.6343 23.4327C22.3861 23.4325 22.1378 23.4325 21.8895 23.4335C21.6205 23.4345 21.3515 23.434 21.0825 23.4333C21.0038 23.4338 20.9251 23.4344 20.844 23.4349C20.772 23.4345 20.7 23.434 20.6258 23.4336C20.5326 23.4336 20.5326 23.4336 20.4376 23.4337C20.224 23.4023 20.0965 23.3283 19.922 23.2031C19.7111 22.9078 19.6878 22.6709 19.7412 22.3227C19.8115 22.0915 19.9367 21.9776 20.1271 21.8359C20.3361 21.7662 20.5294 21.7588 20.7488 21.7585Z" fill="#05C7F2"/>
<path d="M32.5653 37.6173C32.6369 37.6169 32.7085 37.6165 32.7823 37.6161C32.8612 37.616 32.94 37.6159 33.0213 37.6158C33.1041 37.6155 33.1869 37.6152 33.2723 37.6148C33.4998 37.614 33.7273 37.6135 33.9549 37.6132C34.097 37.613 34.2392 37.6127 34.3813 37.6124C34.8261 37.6115 35.2708 37.6108 35.7156 37.6105C36.229 37.6102 36.7424 37.609 37.2558 37.607C37.6526 37.6056 38.0494 37.6049 38.4463 37.6048C38.6833 37.6047 38.9203 37.6043 39.1573 37.6031C39.4218 37.6018 39.6862 37.6021 39.9507 37.6025C40.0292 37.6019 40.1076 37.6012 40.1884 37.6006C40.2606 37.601 40.3328 37.6013 40.4071 37.6017C40.4697 37.6016 40.5322 37.6015 40.5966 37.6014C40.811 37.6326 40.9384 37.7061 41.1135 37.8319C41.3245 38.1273 41.3474 38.364 41.2946 38.7123C41.2246 38.9411 41.0952 39.0569 40.9084 39.1991C40.706 39.2666 40.5735 39.2764 40.3623 39.2771C40.2566 39.2777 40.2566 39.2777 40.1488 39.2783C40.0716 39.2783 39.9943 39.2784 39.9147 39.2785C39.7927 39.279 39.7927 39.279 39.6681 39.2795C39.4448 39.2804 39.2215 39.2809 38.9982 39.2812C38.8586 39.2814 38.7191 39.2817 38.5795 39.282C38.1426 39.2829 37.7057 39.2836 37.2688 39.2838C36.7648 39.2841 36.2608 39.2853 35.7569 39.2873C35.3671 39.2888 34.9773 39.2895 34.5875 39.2896C34.3548 39.2896 34.1221 39.29 33.8894 39.2913C33.6297 39.2924 33.37 39.2923 33.1103 39.2919C32.9951 39.2928 32.9951 39.2928 32.8775 39.2938C32.4978 39.2917 32.2085 39.286 31.885 39.0624C31.6698 38.7708 31.6516 38.529 31.7037 38.182C31.7734 37.9554 31.9069 37.8382 32.0901 37.6952C32.2603 37.6101 32.3748 37.6179 32.5653 37.6173Z" fill="#05C7F2"/>
<path d="M20.602 37.6169C20.6735 37.6164 20.745 37.6159 20.8186 37.6154C20.8974 37.6152 20.9762 37.615 21.0573 37.6148C21.14 37.6144 21.2227 37.6139 21.3079 37.6135C21.5826 37.6121 21.8573 37.6113 22.132 37.6107C22.2266 37.6104 22.3212 37.6101 22.4158 37.6098C22.8602 37.6085 23.3046 37.6075 23.749 37.607C24.2619 37.6063 24.7747 37.6045 25.2876 37.6017C25.684 37.5997 26.0805 37.5987 26.4769 37.5984C26.7137 37.5983 26.9504 37.5977 27.1872 37.5959C27.4515 37.5941 27.7157 37.5943 27.98 37.5948C28.0583 37.5939 28.1365 37.5931 28.2171 37.5922C28.6402 37.5949 28.8986 37.6136 29.219 37.9004C29.3961 38.1338 29.3803 38.3674 29.3557 38.6523C29.27 38.9 29.2043 39.0253 28.9883 39.1751C28.6335 39.3075 28.3044 39.2961 27.9286 39.2941C27.8472 39.2945 27.7658 39.2948 27.6819 39.2952C27.4594 39.2959 27.237 39.2958 27.0145 39.2951C26.7813 39.2946 26.548 39.2951 26.3147 39.2954C25.923 39.2958 25.5314 39.2953 25.1397 39.2943C24.6875 39.2932 24.2353 39.2936 23.783 39.2947C23.3941 39.2956 23.0052 39.2957 22.6163 39.2952C22.3843 39.2949 22.1523 39.2948 21.9203 39.2955C21.6616 39.296 21.4029 39.2952 21.1442 39.2941C21.0294 39.2947 21.0294 39.2947 20.9123 39.2954C20.5335 39.2923 20.2449 39.285 19.9221 39.0625C19.7069 38.7709 19.6887 38.5291 19.7408 38.1821C19.8105 37.9555 19.944 37.8383 20.1272 37.6953C20.2972 37.6103 20.4117 37.6178 20.602 37.6169Z" fill="#05C7F2"/>
<path d="M32.6357 25.7227C32.7414 25.7221 32.7414 25.7221 32.8492 25.7215C32.9264 25.7215 33.0037 25.7214 33.0833 25.7213C33.1646 25.721 33.246 25.7206 33.3299 25.7203C33.5532 25.7195 33.7765 25.7189 33.9998 25.7186C34.1394 25.7184 34.2789 25.7182 34.4185 25.7179C34.8554 25.7169 35.2923 25.7163 35.7292 25.716C36.2332 25.7157 36.7372 25.7145 37.2411 25.7125C37.6309 25.711 38.0207 25.7103 38.4105 25.7103C38.6432 25.7102 38.8759 25.7098 39.1086 25.7086C39.3683 25.7074 39.628 25.7075 39.8877 25.708C40.0029 25.707 40.0029 25.707 40.1205 25.7061C40.5002 25.7081 40.7895 25.7139 41.113 25.9374C41.3282 26.229 41.3464 26.4708 41.2943 26.8178C41.2246 27.0444 41.0911 27.1616 40.9079 27.3046C40.7379 27.3896 40.6234 27.3821 40.4331 27.383C40.3616 27.3835 40.2901 27.384 40.2165 27.3845C40.1377 27.3847 40.0589 27.3849 39.9778 27.3851C39.8951 27.3855 39.8124 27.386 39.7272 27.3864C39.4525 27.3878 39.1778 27.3886 38.9031 27.3892C38.8085 27.3895 38.7139 27.3898 38.6193 27.3901C38.1749 27.3914 37.7305 27.3924 37.2861 27.3929C36.7732 27.3936 36.2604 27.3954 35.7476 27.3982C35.3511 27.4002 34.9546 27.4012 34.5582 27.4015C34.3214 27.4016 34.0847 27.4022 33.8479 27.404C33.5836 27.4058 33.3194 27.4056 33.0551 27.4051C32.9377 27.4064 32.9377 27.4064 32.8181 27.4077C32.3955 27.405 32.1351 27.3877 31.8161 27.0995C31.6458 26.8404 31.6647 26.5873 31.7058 26.2899C31.7718 26.0581 31.9018 25.9438 32.0896 25.8007C32.292 25.7332 32.4245 25.7234 32.6357 25.7227Z" fill="#05C7F2"/>
<path d="M32.5649 41.5817C32.6364 41.5812 32.7079 41.5807 32.7815 41.5802C32.8603 41.5801 32.9391 41.5799 33.0202 41.5797C33.1029 41.5792 33.1856 41.5788 33.2708 41.5783C33.5455 41.577 33.8202 41.5762 34.0949 41.5755C34.1895 41.5752 34.2841 41.5749 34.3787 41.5747C34.8231 41.5734 35.2675 41.5724 35.7119 41.5718C36.2248 41.5711 36.7376 41.5693 37.2504 41.5666C37.6469 41.5645 38.0434 41.5635 38.4398 41.5633C38.6766 41.5631 38.9133 41.5625 39.1501 41.5608C39.4144 41.5589 39.6786 41.5592 39.9429 41.5597C40.0212 41.5588 40.0994 41.5579 40.1799 41.557C40.6025 41.5598 40.8629 41.577 41.1819 41.8652C41.3522 42.1243 41.3335 42.3775 41.2919 42.6749C41.2257 42.909 41.0999 43.0216 40.9084 43.1641C40.7009 43.233 40.5091 43.2413 40.2913 43.242C40.1874 43.2426 40.1874 43.2426 40.0814 43.2432C40.0058 43.2433 39.9302 43.2433 39.8523 43.2434C39.7723 43.2438 39.6924 43.2441 39.61 43.2445C39.3452 43.2455 39.0805 43.2459 38.8157 43.2463C38.7244 43.2465 38.6331 43.2467 38.5418 43.2469C38.1127 43.2478 37.6837 43.2485 37.2546 43.2487C36.7601 43.249 36.2656 43.2502 35.771 43.2522C35.3883 43.2537 35.0055 43.2544 34.6227 43.2545C34.3943 43.2546 34.166 43.2551 33.9376 43.2562C33.6827 43.2574 33.4278 43.2572 33.1728 43.2568C33.06 43.2577 33.06 43.2577 32.9449 43.2587C32.5391 43.2565 32.2407 43.2297 31.885 43.0273C31.7024 42.7877 31.6643 42.5991 31.6799 42.3053C31.7259 41.9993 31.8439 41.8523 32.0901 41.6601C32.2601 41.5751 32.3746 41.5826 32.5649 41.5817Z" fill="#05C7F2"/>
<path d="M20.6179 41.5735C20.6895 41.573 20.7612 41.5724 20.8351 41.5718C20.9134 41.5718 20.9916 41.5719 21.0723 41.572C21.155 41.5715 21.2377 41.571 21.323 41.5706C21.5497 41.5695 21.7763 41.569 22.003 41.5689C22.1448 41.5688 22.2865 41.5686 22.4282 41.5682C22.9229 41.5669 23.4175 41.5664 23.9122 41.5665C24.3729 41.5666 24.8336 41.5651 25.2943 41.563C25.6902 41.5612 26.086 41.5604 26.4819 41.5605C26.7182 41.5606 26.9545 41.5602 27.1908 41.5587C27.4544 41.5572 27.718 41.5578 27.9816 41.5586C28.0596 41.5578 28.1376 41.5571 28.218 41.5563C28.6405 41.5596 28.8983 41.5791 29.2184 41.8653C29.3955 42.0987 29.3797 42.3323 29.3551 42.6172C29.2659 42.8901 29.2036 42.9967 28.953 43.1401C28.6 43.2803 28.2379 43.2605 27.8633 43.2579C27.7832 43.2581 27.703 43.2584 27.6203 43.2586C27.356 43.2592 27.0917 43.2583 26.8274 43.2573C26.6435 43.2571 26.4596 43.2573 26.2756 43.2574C25.8905 43.2574 25.5054 43.2567 25.1203 43.2554C24.6755 43.254 24.2307 43.2537 23.7858 43.2542C23.3571 43.2545 22.9285 43.2542 22.4998 43.2534C22.3177 43.2531 22.1355 43.2531 21.9534 43.2532C21.6991 43.2532 21.4449 43.2523 21.1906 43.2512C21.0775 43.2515 21.0775 43.2515 20.9622 43.2517C20.8928 43.2512 20.8234 43.2508 20.752 43.2503C20.6919 43.2501 20.6318 43.25 20.57 43.2498C20.3114 43.2234 20.1166 43.1363 19.9045 42.9889C19.7268 42.7414 19.6946 42.5088 19.7165 42.207C19.7951 41.9744 19.9028 41.7848 20.1143 41.6482C20.2911 41.5813 20.4289 41.5742 20.6179 41.5735Z" fill="#05C7F2"/>
<path d="M32.6362 33.6524C32.7419 33.6518 32.7419 33.6518 32.8497 33.6512C32.9269 33.6512 33.0041 33.6511 33.0837 33.651C33.1651 33.6507 33.2465 33.6503 33.3303 33.65C33.5536 33.6491 33.7769 33.6486 34.0002 33.6483C34.1398 33.6481 34.2794 33.6479 34.419 33.6475C34.8559 33.6466 35.2928 33.646 35.7297 33.6457C36.2337 33.6454 36.7376 33.6442 37.2416 33.6422C37.6314 33.6407 38.0212 33.64 38.411 33.6399C38.6437 33.6399 38.8763 33.6395 39.109 33.6382C39.3688 33.6371 39.6284 33.6372 39.8881 33.6377C40.0034 33.6367 40.0034 33.6367 40.121 33.6357C40.5007 33.6378 40.79 33.6435 41.1135 33.8671C41.2914 34.1082 41.3346 34.2962 41.3185 34.5891C41.2721 34.8954 41.1576 35.0444 40.9084 35.2343C40.7059 35.3018 40.5734 35.3115 40.3622 35.3122C40.2565 35.3128 40.2565 35.3128 40.1487 35.3134C40.0715 35.3135 39.9943 35.3136 39.9147 35.3137C39.7926 35.3142 39.7926 35.3142 39.6681 35.3147C39.4448 35.3155 39.2215 35.316 38.9982 35.3163C38.8586 35.3165 38.719 35.3168 38.5794 35.3171C38.1425 35.318 37.7056 35.3187 37.2687 35.319C36.7647 35.3193 36.2608 35.3205 35.7568 35.3225C35.367 35.3239 34.9772 35.3246 34.5874 35.3247C34.3547 35.3248 34.1221 35.3252 33.8894 35.3264C33.6296 35.3276 33.37 35.3275 33.1103 35.327C32.995 35.328 32.995 35.328 32.8774 35.3289C32.4977 35.3269 32.2084 35.3211 31.8849 35.0976C31.707 34.8564 31.6638 34.6685 31.6799 34.3755C31.7263 34.0693 31.8408 33.9203 32.09 33.7304C32.2925 33.6629 32.425 33.6531 32.6362 33.6524Z" fill="#05C7F2"/>
<path d="M32.6362 29.6876C32.7419 29.687 32.7419 29.687 32.8497 29.6864C32.9269 29.6863 33.0041 29.6862 33.0837 29.6862C33.1651 29.6858 33.2465 29.6855 33.3303 29.6851C33.5536 29.6843 33.7769 29.6838 34.0002 29.6835C34.1398 29.6833 34.2794 29.683 34.419 29.6827C34.8559 29.6818 35.2928 29.6811 35.7297 29.6808C36.2337 29.6805 36.7376 29.6793 37.2416 29.6774C37.6314 29.6759 38.0212 29.6752 38.411 29.6751C38.6437 29.675 38.8763 29.6746 39.109 29.6734C39.3688 29.6722 39.6284 29.6724 39.8881 29.6728C40.0034 29.6719 40.0034 29.6719 40.121 29.6709C40.5007 29.6729 40.79 29.6787 41.1135 29.9023C41.2914 30.1434 41.3346 30.3313 41.3185 30.6243C41.2721 30.9305 41.1576 31.0795 40.9084 31.2694C40.7059 31.3369 40.5734 31.3467 40.3622 31.3474C40.2565 31.348 40.2565 31.348 40.1487 31.3486C40.0715 31.3487 39.9943 31.3487 39.9147 31.3488C39.7926 31.3493 39.7926 31.3493 39.6681 31.3498C39.4448 31.3507 39.2215 31.3512 38.9982 31.3515C38.8586 31.3517 38.719 31.352 38.5794 31.3523C38.1425 31.3532 37.7056 31.3539 37.2687 31.3541C36.7647 31.3544 36.2608 31.3556 35.7568 31.3576C35.367 31.3591 34.9772 31.3598 34.5874 31.3599C34.3547 31.3599 34.1221 31.3603 33.8894 31.3616C33.6296 31.3627 33.37 31.3626 33.1103 31.3622C32.995 31.3631 32.995 31.3631 32.8774 31.3641C32.4977 31.362 32.2084 31.3563 31.8849 31.1327C31.707 30.8916 31.6638 30.7036 31.6799 30.4107C31.7263 30.1044 31.8408 29.9554 32.09 29.7655C32.2925 29.698 32.425 29.6883 32.6362 29.6876Z" fill="#05C7F2"/>
</g>
<defs>
<clipPath id="clip0_5371_19471">
<rect width="35" height="35" fill="white" transform="translate(15 15)"/>
</clipPath>
</defs>
</svg>
