<svg width="65" height="65" viewBox="0 0 65 65" fill="none" xmlns="http://www.w3.org/2000/svg">
<g clip-path="url(#clip0_5371_19394)">
<path d="M33.2153 21.0134C33.6389 21.0981 34.0629 21.181 34.487 21.2635C34.633 21.2921 34.7788 21.3215 34.9246 21.3509C35.4196 21.4491 35.9048 21.5198 36.4095 21.5433C36.9486 21.5971 37.4464 21.8721 37.832 22.2461C38.4434 22.9934 38.4756 23.6477 38.4473 24.5703C38.4887 24.5829 38.5301 24.5955 38.5728 24.6085C39.2447 24.8411 39.7802 25.2761 40.0951 25.9214C40.3136 26.4671 40.3092 26.9956 40.293 27.5781C40.3482 27.6045 40.4035 27.631 40.4604 27.6582C40.5334 27.6938 40.6065 27.7294 40.6817 27.7661C40.7539 27.801 40.8261 27.8359 40.9004 27.8718C41.4709 28.1839 41.8491 28.6822 42.0391 29.3042C42.1093 29.7266 42.0844 30.1593 42.0703 30.5859C42.1125 30.5993 42.1547 30.6127 42.1982 30.6265C42.8361 30.8518 43.2917 31.2282 43.6444 31.806C43.9182 32.4117 43.956 33.1247 43.783 33.7644C43.6307 34.1479 43.4517 34.46 43.164 34.7558C43.561 35.2425 44.0092 35.6769 44.4543 36.1187C44.5348 36.1989 44.6153 36.279 44.6957 36.3592C44.8914 36.5541 45.0872 36.7488 45.2832 36.9433C45.3327 36.9289 45.3822 36.9144 45.4333 36.8995C46.196 36.683 46.8865 36.6193 47.6074 37.0117C48.065 37.3305 48.4623 37.7069 48.855 38.1012C48.9345 38.1791 48.9345 38.1791 49.0157 38.2586C49.6134 38.8557 49.9634 39.4317 50.0115 40.294C49.9778 41.248 49.4182 41.8926 48.7693 42.5316C48.6934 42.6078 48.6175 42.6842 48.5418 42.7606C48.3376 42.966 48.1322 43.1702 47.9265 43.374C47.7105 43.5885 47.4955 43.8041 47.2803 44.0195C46.9192 44.3807 46.5573 44.7412 46.1948 45.1011C45.7767 45.5163 45.3599 45.9327 44.9437 46.3497C44.5418 46.7524 44.1392 47.1542 43.7361 47.5557C43.5653 47.726 43.3947 47.8965 43.2242 48.0672C43.0234 48.2683 42.8218 48.4687 42.6198 48.6686C42.546 48.7418 42.4725 48.8151 42.3993 48.8888C41.7652 49.5257 41.1749 49.9914 40.2433 50.0021C39.3927 49.9542 38.8793 49.6074 38.2871 49.0185C38.1663 48.8988 38.0437 48.7811 37.9209 48.6635C37.8357 48.5807 37.7505 48.4978 37.6654 48.4149C37.6258 48.3768 37.5862 48.3387 37.5454 48.2994C37.0755 47.8329 36.7693 47.3501 36.7201 46.6744C36.7205 46.5903 36.7208 46.5063 36.7212 46.4196C36.7208 46.3359 36.7205 46.2522 36.7201 46.166C36.7383 45.8984 36.7383 45.8984 36.7874 45.7602C36.8464 45.5927 36.8755 45.4613 36.875 45.2832C36.7512 45.0316 36.5699 44.8438 36.3772 44.6423C36.3234 44.5841 36.2696 44.5258 36.2141 44.4658C36.0386 44.2794 35.8594 44.0973 35.6787 43.916C35.5879 43.8238 35.5879 43.8238 35.4952 43.7297C34.5688 42.7857 34.5688 42.7857 33.3463 42.4065C33.015 42.4192 32.6954 42.4526 32.3694 42.5135C32.0691 42.5637 31.7815 42.5483 31.4789 42.5317C30.9544 42.5207 30.6172 42.6462 30.2362 42.9976C30.1334 43.0977 30.0314 43.1986 29.9301 43.3002C29.8489 43.3805 29.8489 43.3805 29.7661 43.4624C29.6525 43.5753 29.5392 43.6885 29.4263 43.802C29.2528 43.976 29.0775 44.148 28.902 44.32C28.7917 44.43 28.6815 44.5401 28.5715 44.6503C28.4924 44.7274 28.4924 44.7274 28.4118 44.8061C28.3402 44.879 28.3402 44.879 28.2672 44.9534C28.2248 44.9957 28.1823 45.038 28.1386 45.0817C28.0388 45.2138 28.0388 45.2138 28.0732 45.3898C28.111 45.5116 28.1525 45.6322 28.196 45.7521C28.3706 46.3226 28.323 46.9639 28.0881 47.5089C27.7752 48.0318 27.3672 48.4566 26.9372 48.8849C26.8817 48.9415 26.8262 48.9981 26.769 49.0564C26.223 49.6029 25.7097 50.0089 24.9077 50.026C23.5842 50.0223 22.9741 49.3046 22.0709 48.4021C22.0094 48.3414 21.9478 48.2806 21.8844 48.2181C21.826 48.1598 21.7676 48.1016 21.7075 48.0416C21.6549 47.9893 21.6023 47.937 21.5482 47.8831C21.3841 47.6968 21.3595 47.5579 21.3318 47.3126C21.3652 46.9836 21.4516 46.867 21.6992 46.6504C21.8853 46.5832 22.0497 46.5549 22.2461 46.582C22.5228 46.7265 22.7211 46.906 22.9382 47.1289C22.9703 47.1615 23.0024 47.1941 23.0354 47.2277C23.1716 47.366 23.3069 47.5052 23.4422 47.6442C23.5417 47.7462 23.6416 47.8477 23.7414 47.9492C23.8005 48.0098 23.8595 48.0704 23.9203 48.1329C24.1647 48.3582 24.3898 48.5252 24.7284 48.5388C24.9915 48.5249 25.1139 48.4679 25.3062 48.2894C25.3533 48.246 25.4004 48.2027 25.4489 48.158C25.4973 48.1116 25.5458 48.0653 25.5957 48.0175C25.6436 47.9718 25.6916 47.9261 25.741 47.879C25.8862 47.7385 26.0295 47.5964 26.1725 47.4536C26.2462 47.3811 26.2462 47.3811 26.3213 47.3073C26.368 47.2607 26.4147 47.2142 26.4627 47.1663C26.5047 47.1246 26.5467 47.0829 26.59 47.0399C26.7964 46.7989 26.7737 46.543 26.7578 46.2402C26.6868 46.0208 26.5552 45.8978 26.3935 45.7379C26.2536 45.5996 26.1147 45.4603 25.9758 45.321C25.9171 45.2623 25.8585 45.2035 25.7981 45.143C25.7346 45.0794 25.6712 45.0159 25.6058 44.9504C24.9179 44.2614 24.2298 43.5725 23.5416 42.8837C23.1252 42.467 22.7088 42.0502 22.2927 41.6332C21.9288 41.2687 21.5649 40.9043 21.2008 40.54C21.0083 40.3475 20.8159 40.1548 20.6236 39.9621C20.4429 39.7809 20.262 39.5998 20.0809 39.4189C19.9831 39.3211 19.8855 39.223 19.7878 39.125C19.7292 39.0665 19.6706 39.0079 19.6101 38.9476C19.5595 38.8969 19.5088 38.8462 19.4566 38.7939C19.1076 38.4545 19.1076 38.4545 18.6572 38.3148C18.6072 38.3085 18.5571 38.3023 18.5055 38.2958C18.1553 38.3288 17.9152 38.5912 17.6777 38.8299C17.5873 38.9205 17.5873 38.9205 17.4951 39.0129C17.4331 39.0758 17.371 39.1387 17.3071 39.2035C17.244 39.2666 17.1809 39.3297 17.1159 39.3948C16.6914 39.7839 16.6914 39.7839 16.5509 40.31C16.5483 40.3611 16.5458 40.4122 16.5431 40.4649C16.61 40.8551 16.9221 41.1366 17.1966 41.4019C17.2636 41.4675 17.3306 41.5332 17.3976 41.5988C17.5022 41.7004 17.6069 41.8018 17.7118 41.903C17.8139 42.0018 17.9154 42.1013 18.0169 42.2009C18.0774 42.2595 18.138 42.3181 18.2004 42.3785C18.4049 42.612 18.4907 42.7847 18.4778 43.0957C18.4087 43.3323 18.3127 43.4642 18.1445 43.6425C17.935 43.7473 17.7606 43.7266 17.5293 43.7109C17.2416 43.5675 17.0219 43.3641 16.7947 43.1408C16.7582 43.1051 16.7217 43.0694 16.6842 43.0326C16.6073 42.957 16.5306 42.8812 16.4541 42.8053C16.3388 42.6913 16.2221 42.5789 16.1054 42.4664C15.4965 41.8695 15.019 41.2515 14.9888 40.3621C15.0455 39.3206 15.6001 38.6996 16.3116 37.9901C16.3719 37.9278 16.4323 37.8656 16.4944 37.8014C17.0924 37.2017 17.6774 36.7985 18.5376 36.7938C18.6176 36.7928 18.6976 36.7919 18.78 36.7909C18.997 36.8044 19.0973 36.8301 19.2901 36.9041C19.4699 36.9498 19.5451 36.9622 19.7102 36.8732C19.8489 36.7538 19.9727 36.6275 20.097 36.4931C20.1433 36.4459 20.1896 36.3987 20.2372 36.35C20.3844 36.199 20.5291 36.0457 20.6738 35.8923C20.7733 35.7894 20.8729 35.6867 20.9726 35.5842C21.2167 35.3326 21.4585 35.079 21.6992 34.8242C21.573 34.5653 21.4184 34.3409 21.2506 34.1072C20.9278 33.5433 20.9144 32.82 21.0754 32.202C21.3677 31.4445 21.8121 31.03 22.5195 30.6543C22.5006 30.6089 22.4816 30.5635 22.4621 30.5167C22.4373 30.4564 22.4126 30.396 22.3871 30.3338C22.3502 30.2446 22.3502 30.2446 22.3126 30.1536C22.0863 29.5311 22.1521 28.9404 22.3828 28.33C22.6912 27.7257 23.1679 27.2439 23.8183 27.0312C23.9086 27.0312 23.9988 27.0312 24.0918 27.0312C24.0692 26.9861 24.0467 26.941 24.0234 26.8945C23.9554 26.08 24.0353 25.3873 24.5489 24.7155C24.8928 24.353 25.3621 24.0501 25.8691 24.0234C25.8527 23.9676 25.8527 23.9676 25.836 23.9107C25.7025 23.302 25.777 22.6389 26.0916 22.0989C26.4981 21.5218 27.0063 21.0753 27.7148 20.9472C28.0053 20.9373 28.2953 20.9481 28.5856 20.9573C28.9161 20.9629 29.1441 20.9563 29.4324 20.7763C30.4185 20.1739 32.1503 20.8001 33.2153 21.0134ZM30.1758 22.041C30.2672 22.8132 30.841 23.3941 31.4062 23.8867C31.6284 24.0558 31.855 24.2143 32.0898 24.3652C32.3539 24.2569 32.5197 24.0877 32.7189 23.8862C32.7684 23.8364 32.7684 23.8364 32.8189 23.7856C32.9237 23.68 33.028 23.574 33.1323 23.468C33.2035 23.3961 33.2747 23.3243 33.3459 23.2525C33.52 23.0769 33.6937 22.9008 33.8672 22.7246C33.7144 22.5718 33.6607 22.5608 33.4549 22.5221C33.398 22.5112 33.3412 22.5003 33.2826 22.489C33.2209 22.4777 33.1593 22.4665 33.0957 22.4549C33.0321 22.4429 32.9685 22.431 32.903 22.4187C32.7681 22.3935 32.6331 22.3686 32.4981 22.3439C32.293 22.3063 32.0881 22.2676 31.8833 22.2287C31.752 22.2043 31.6206 22.18 31.4893 22.1558C31.3982 22.1385 31.3982 22.1385 31.3054 22.1209C30.9227 22.052 30.5646 22.0304 30.1758 22.041ZM27.4214 22.7593C27.2376 23.0289 27.1913 23.2671 27.2518 23.5881C27.3107 23.7684 27.3795 23.8604 27.5069 23.9998C27.5502 24.0472 27.5934 24.0946 27.6379 24.1434C27.9072 24.4278 28.1803 24.708 28.4561 24.986C28.5195 25.05 28.583 25.114 28.6483 25.1799C28.7817 25.3143 28.9152 25.4486 29.0489 25.5827C29.2193 25.7539 29.3889 25.9259 29.5584 26.098C29.7216 26.2634 29.8857 26.4279 30.0497 26.5925C30.1101 26.654 30.1704 26.7155 30.2325 26.7789C30.5375 27.0828 30.7837 27.3195 31.2012 27.4414C31.5729 27.4349 31.8058 27.3384 32.0898 27.0996C32.2901 26.7992 32.3274 26.5685 32.2949 26.2109C32.2229 25.9513 32.2229 25.9513 32.0193 25.7903C31.9636 25.7726 31.9079 25.7549 31.8506 25.7367C31.2121 25.5055 30.7349 25.159 30.2463 24.6904C30.1208 24.5554 30.1208 24.5554 29.9707 24.5703C29.9519 24.5294 29.9331 24.4885 29.9138 24.4464C29.8373 24.3032 29.7613 24.2086 29.6503 24.0918C29.2992 23.6926 29.0208 23.2119 28.8299 22.716C28.7571 22.5199 28.7571 22.5199 28.6249 22.4212C28.1248 22.2996 27.7674 22.3558 27.4214 22.7593ZM34.3908 24.1505C34.2721 24.2679 34.152 24.3837 34.0318 24.4997C33.9561 24.5745 33.8805 24.6494 33.805 24.7244C33.7689 24.7587 33.7329 24.793 33.6958 24.8284C33.5838 24.9372 33.5838 24.9372 33.457 25.1172C33.4556 25.2986 33.4556 25.2986 33.5254 25.459C33.7332 26.1301 33.7829 26.8473 33.4744 27.4956C33.1228 28.1145 32.6949 28.5136 32.0044 28.7274C31.7839 28.7868 31.5621 28.8336 31.3379 28.8769C31.3278 28.9331 31.3178 28.9894 31.3074 29.0473C31.1687 29.7376 30.9454 30.3312 30.3744 30.7744C29.9296 31.0643 29.4654 31.187 28.9453 31.2695C28.9353 31.3257 28.9252 31.3819 28.9149 31.4399C28.7762 32.1302 28.5529 32.7237 27.9819 33.167C27.537 33.4569 27.0728 33.5796 26.5527 33.6621C26.5377 33.729 26.5228 33.7958 26.5073 33.8648C26.3347 34.5948 26.1193 35.1867 25.471 35.625C24.8316 36.0027 24.1545 36.1242 23.4205 35.9372C23.2587 35.8795 23.2587 35.8795 23.1233 35.8194C22.9616 35.7701 22.8837 35.7951 22.7246 35.8496C22.61 35.9348 22.61 35.9348 22.5053 36.0456C22.4643 36.0866 22.4232 36.1277 22.3809 36.17C22.3375 36.2145 22.294 36.259 22.2493 36.3049C22.2042 36.3503 22.159 36.3957 22.1125 36.4425C21.9686 36.5876 21.8253 36.7334 21.6821 36.8792C21.5846 36.9778 21.4871 37.0763 21.3895 37.1747C21.1504 37.4161 20.9119 37.658 20.6738 37.9004C20.9863 38.2752 21.3182 38.6224 21.6639 38.9666C21.7207 39.0233 21.7774 39.0801 21.8358 39.1385C22.0221 39.3247 22.2086 39.5107 22.3951 39.6967C22.5248 39.8262 22.6545 39.9558 22.7841 40.0854C23.0898 40.3908 23.3956 40.6961 23.7014 41.0013C24.0499 41.349 24.3982 41.6968 24.7464 42.0448C25.4622 42.7599 26.1783 43.4747 26.8945 44.1894C27.1106 44.0864 27.2548 43.9815 27.4225 43.8093C27.4714 43.7596 27.5202 43.7099 27.5705 43.6586C27.6227 43.6048 27.6749 43.5511 27.7287 43.4957C27.8406 43.3821 27.9525 43.2685 28.0644 43.155C28.24 42.976 28.4154 42.7967 28.5904 42.6172C28.7597 42.4437 28.9299 42.2711 29.1002 42.0986C29.1518 42.0451 29.2035 41.9916 29.2567 41.9365C29.8014 41.3867 30.3719 41.1099 31.1549 41.1021C31.2918 41.1039 31.4287 41.1064 31.5657 41.1095C31.7162 41.1112 31.8668 41.1129 32.0173 41.1146C32.2522 41.118 32.4871 41.1218 32.722 41.1264C32.9503 41.1305 33.1787 41.1329 33.4071 41.1351C33.4762 41.137 33.5454 41.1388 33.6167 41.1407C34.1924 41.1447 34.7673 41.0432 35.2018 40.6385C35.2681 40.5672 35.3331 40.4948 35.3967 40.4211C35.8047 39.965 35.8047 39.965 36.123 39.8828C36.3667 39.9038 36.5748 39.9422 36.8066 40.0195C36.9009 40.3023 36.9322 40.545 36.875 40.8398C36.7453 41.0533 36.5762 41.2147 36.3965 41.3867C36.3129 41.4713 36.3129 41.4713 36.2277 41.5576C36.0801 41.707 35.9313 41.855 35.7812 42.0019C36.1782 42.4886 36.6264 42.923 37.0715 43.3648C37.152 43.445 37.2325 43.5251 37.3129 43.6053C37.5086 43.8002 37.7044 43.9949 37.9004 44.1894C38.1197 44.0928 38.2663 43.9772 38.4351 43.8079C38.4861 43.7571 38.5371 43.7063 38.5896 43.6539C38.6725 43.5703 38.6725 43.5703 38.7571 43.485C38.8451 43.3969 38.8451 43.3969 38.935 43.3071C39.0957 43.1464 39.256 42.9853 39.4163 42.8241C39.5839 42.6556 39.7519 42.4875 39.9199 42.3194C40.2378 42.0011 40.5553 41.6824 40.8728 41.3636C41.2342 41.0006 41.596 40.638 41.9579 40.2755C42.7022 39.5298 43.446 38.7836 44.1894 38.0371C44.0975 37.8466 44.0121 37.7061 43.8615 37.5569C43.8232 37.5186 43.7849 37.4803 43.7454 37.4408C43.7042 37.4004 43.6631 37.3599 43.6207 37.3182C43.5784 37.2761 43.5361 37.234 43.4925 37.1907C43.3577 37.0566 43.2224 36.9231 43.0871 36.7895C42.9955 36.6986 42.9039 36.6076 42.8124 36.5166C42.5882 36.2939 42.3635 36.0716 42.1387 35.8496C41.9429 35.9387 41.8428 36.0087 41.6858 36.1657C41.4497 36.3687 41.2303 36.3737 40.9271 36.3564C40.7715 36.3281 40.7715 36.3281 40.5963 36.2213C40.4643 35.9974 40.4342 35.8362 40.4297 35.5761C40.5625 35.2458 40.7552 35.0194 41.0089 34.7767C41.0447 34.7415 41.0805 34.7063 41.1173 34.67C41.2309 34.5586 41.345 34.4478 41.4593 34.3371C41.5738 34.2259 41.6881 34.1146 41.8021 34.0028C41.8727 33.9335 41.9437 33.8645 42.015 33.796C42.2858 33.5308 42.4006 33.3689 42.4377 32.9913C42.4287 32.6696 42.327 32.4861 42.1387 32.2265C41.8858 31.996 41.6186 31.9781 41.2879 31.9889C40.8263 32.075 40.4973 32.4859 40.1867 32.8132C39.9776 33.0183 39.7649 33.0008 39.486 32.9985C39.3359 32.9785 39.3359 32.9785 39.165 32.8503C38.9916 32.6046 38.9646 32.433 39.0027 32.1289C39.1289 31.7576 39.455 31.5148 39.7375 31.2567C39.8631 31.1394 39.9883 31.0217 40.113 30.9034C40.1687 30.8522 40.2245 30.801 40.282 30.7482C40.4785 30.5322 40.6205 30.3097 40.6518 30.0155C40.6063 29.6227 40.5125 29.4249 40.2246 29.1504C39.9338 28.9759 39.6671 28.9694 39.3359 29.0136C38.9554 29.1918 38.691 29.5161 38.404 29.8174C38.1934 30.0169 38.0554 30.0982 37.7679 30.1288C37.5254 30.104 37.4062 30.0549 37.2168 29.9023C37.0434 29.6185 37.0766 29.3992 37.1484 29.082C37.2847 28.9013 37.2847 28.9013 37.4619 28.7333C37.5255 28.6716 37.5892 28.6099 37.6547 28.5463C37.7223 28.4827 37.7899 28.4192 37.8577 28.3557C37.9897 28.23 38.1211 28.1036 38.2523 27.977C38.311 27.9217 38.3696 27.8664 38.43 27.8094C38.677 27.548 38.8184 27.3307 38.819 26.9671C38.8083 26.6432 38.7372 26.4564 38.5156 26.2109C38.2614 25.993 38.0362 25.982 37.7145 25.9786C37.3327 26.0453 37.0927 26.3208 36.8365 26.5912C36.366 27.0876 36.366 27.0876 36.0397 27.11C35.7667 27.0843 35.6167 27.0648 35.401 26.886C35.2756 26.6353 35.2638 26.4884 35.3027 26.2109C35.5338 25.7872 35.8906 25.476 36.2341 25.1428C36.3521 25.0283 36.4698 24.9135 36.5871 24.7983C36.6651 24.7228 36.6651 24.7228 36.7446 24.6457C36.9814 24.3846 37.0433 24.1772 37.0333 23.8199C36.9861 23.5181 36.7894 23.3286 36.593 23.1091C35.6897 22.5985 34.9762 23.5691 34.3908 24.1505ZM25.5701 25.852C25.438 26.1161 25.3866 26.3316 25.459 26.6211C25.6899 27.0198 26.0059 27.3256 26.3303 27.6497C26.3883 27.7079 26.4462 27.7662 26.506 27.8262C26.6282 27.9489 26.7507 28.0714 26.8733 28.1937C27.0609 28.381 27.2475 28.5693 27.434 28.7576C27.5531 28.8768 27.6723 28.996 27.7915 29.1151C27.8472 29.1714 27.9029 29.2278 27.9602 29.2858C28.0127 29.3378 28.0652 29.3899 28.1192 29.4435C28.165 29.4893 28.2108 29.5351 28.2579 29.5823C28.5071 29.7861 28.6883 29.8356 29.0094 29.8254C29.291 29.7792 29.4787 29.6802 29.6973 29.4922C29.8966 29.1931 29.9515 28.9597 29.9023 28.6035C29.6926 28.1641 29.3624 27.8283 29.0206 27.4894C28.9691 27.4378 28.9176 27.3861 28.8646 27.3328C28.7562 27.2244 28.6476 27.1161 28.5388 27.0082C28.373 26.8435 28.2084 26.6777 28.0438 26.5118C27.938 26.4061 27.832 26.3005 27.726 26.1949C27.6773 26.1457 27.6285 26.0965 27.5782 26.0458C27.2732 25.745 26.9663 25.4568 26.5375 25.3543C26.0879 25.3619 25.8573 25.5195 25.5701 25.852ZM23.7543 28.8171C23.6457 29.1108 23.6059 29.3914 23.6816 29.6972C23.9646 30.1976 24.4224 30.5979 24.8266 31.0005C24.9421 31.1158 25.0567 31.232 25.1712 31.3483C25.2456 31.4228 25.3201 31.4973 25.3946 31.5718C25.4282 31.606 25.4619 31.6403 25.4965 31.6756C25.7949 31.9701 26.0961 32.2004 26.5185 32.2607C26.8648 32.2112 27.1157 32.1093 27.3295 31.8324C27.4851 31.5608 27.5627 31.3126 27.4934 31.0022C27.2881 30.4386 26.6026 29.9394 26.1824 29.5194C26.0606 29.3974 25.9393 29.2748 25.818 29.1522C25.7401 29.0741 25.6622 28.9961 25.5842 28.918C25.5482 28.8816 25.5123 28.8451 25.4752 28.8076C25.201 28.535 25.0365 28.4106 24.6515 28.3728C24.2718 28.3834 24.0114 28.5351 23.7543 28.8171ZM22.5879 32.4316C22.436 32.6906 22.4252 32.8826 22.4512 33.1836C22.5969 33.5481 22.8168 33.7855 23.092 34.0551C23.1499 34.1142 23.1499 34.1142 23.209 34.1745C23.4927 34.4562 23.7113 34.5996 24.1174 34.6447C24.4384 34.6115 24.5806 34.5329 24.8437 34.3457C25.031 34.1085 25.1053 33.8955 25.1172 33.5937C24.9883 33.148 24.8066 32.8924 24.472 32.5769C24.4329 32.5381 24.3937 32.4993 24.3533 32.4594C24.0649 32.1792 23.8362 32.003 23.421 31.9873C23.0392 31.994 22.8245 32.1385 22.5879 32.4316ZM45.4962 38.6872C45.4326 38.7503 45.3689 38.8135 45.3034 38.8786C45.234 38.9484 45.1647 39.0182 45.0954 39.0881C45.0215 39.1618 44.9476 39.2355 44.8736 39.3091C44.6735 39.5086 44.474 39.7088 44.2746 39.9091C44.0657 40.1187 43.8562 40.3279 43.6469 40.5371C43.2955 40.8884 42.9446 41.2401 42.5939 41.592C42.1885 41.9989 41.7825 42.4052 41.3761 42.8111C40.985 43.2018 40.5943 43.5929 40.2038 43.9842C40.0377 44.1506 39.8714 44.3169 39.705 44.4832C39.5092 44.6789 39.3138 44.8749 39.1186 45.0711C39.0469 45.1431 38.9751 45.215 38.9031 45.2867C38.805 45.3847 38.7073 45.483 38.6097 45.5814C38.5549 45.6364 38.5001 45.6913 38.4436 45.7479C38.2512 45.9654 38.1809 46.1095 38.1482 46.3983C38.2072 46.9782 38.627 47.3384 39.024 47.727C39.0754 47.7786 39.1267 47.8301 39.1796 47.8832C39.6391 48.3593 39.6391 48.3593 40.2545 48.526C40.3038 48.5273 40.353 48.5286 40.4038 48.53C40.7705 48.4535 41.0475 48.1688 41.3052 47.9113C41.3677 47.8492 41.4302 47.7871 41.4946 47.7231C41.5626 47.6548 41.6306 47.5865 41.6987 47.5182C41.7712 47.4458 41.8438 47.3735 41.9164 47.3012C42.1127 47.1055 42.3086 46.9093 42.5044 46.7131C42.7096 46.5076 42.9151 46.3024 43.1206 46.0971C43.4654 45.7526 43.8099 45.4077 44.1543 45.0627C44.5523 44.6639 44.9509 44.2656 45.3497 43.8675C45.6924 43.5255 46.0348 43.1832 46.377 42.8406C46.5812 42.6362 46.7856 42.4318 46.9902 42.2276C47.1824 42.0358 47.3742 41.8437 47.5659 41.6513C47.6362 41.5807 47.7067 41.5103 47.7773 41.44C47.8737 41.344 47.9695 41.2476 48.0654 41.1511C48.1192 41.0973 48.173 41.0435 48.2284 40.988C48.4687 40.7161 48.5421 40.4794 48.5287 40.1203C48.4899 39.9192 48.4279 39.8421 48.2894 39.6932C48.2243 39.6226 48.2243 39.6226 48.1578 39.5506C48.1115 39.5023 48.0653 39.454 48.0176 39.4043C47.9722 39.3567 47.9268 39.3091 47.8801 39.2601C47.7407 39.1159 47.5996 38.9736 47.4579 38.8318C47.4102 38.7832 47.3624 38.7346 47.3133 38.6846C47.2438 38.615 47.2438 38.615 47.173 38.5439C47.1316 38.5023 47.0903 38.4606 47.0477 38.4178C46.8562 38.252 46.7058 38.1798 46.4538 38.1524C46.0458 38.1932 45.7791 38.4042 45.4962 38.6872Z" fill="#05C7F2"/>
<path d="M21.4735 15.1506C22.1232 15.3754 22.7537 16.2468 23.2347 16.7279C23.3753 16.8683 23.5164 17.0082 23.6576 17.1481C23.7475 17.2378 23.8374 17.3276 23.9273 17.4174C23.9693 17.4589 24.0113 17.5004 24.0546 17.5432C24.0934 17.5822 24.1322 17.6213 24.1723 17.6615C24.2063 17.6955 24.2404 17.7295 24.2755 17.7645C24.4445 17.9653 24.4994 18.1172 24.5233 18.3795C24.5004 18.6406 24.4593 18.7617 24.2968 18.9648C24.0625 19.1405 23.8293 19.1309 23.5449 19.1015C23.1619 18.8864 22.8698 18.5841 22.5611 18.2751C22.5074 18.2216 22.4537 18.1682 22.3984 18.1132C22.2854 18.0006 22.1725 17.8878 22.0599 17.7748C21.8874 17.6021 21.714 17.4304 21.5406 17.2586C21.4307 17.1489 21.3208 17.0391 21.2111 16.9292C21.1592 16.878 21.1074 16.8268 21.054 16.7741C21.006 16.7257 20.9581 16.6774 20.9087 16.6275C20.8454 16.5643 20.8454 16.5643 20.7809 16.4998C20.5939 16.2682 20.536 16.0826 20.5413 15.7861C20.6175 15.5016 20.723 15.391 20.9472 15.205C21.128 15.1146 21.2762 15.1211 21.4735 15.1506Z" fill="#05C7F2"/>
<path d="M43.9845 15.2051C44.1729 15.3211 44.2372 15.4073 44.2988 15.619C44.3554 15.9453 44.3402 16.1036 44.1472 16.3829C43.9516 16.6337 43.7226 16.8535 43.4974 17.0775C43.4438 17.1312 43.3902 17.1849 43.335 17.2403C43.2221 17.3533 43.1091 17.4661 42.9958 17.5788C42.8225 17.7514 42.6499 17.9247 42.4774 18.0981C42.3674 18.208 42.2574 18.3178 42.1473 18.4276C42.0958 18.4794 42.0442 18.5313 41.9911 18.5847C41.9427 18.6326 41.8943 18.6805 41.8445 18.7299C41.8022 18.7721 41.7599 18.8143 41.7164 18.8577C41.5112 19.0343 41.3568 19.0966 41.0878 19.1315C40.7634 19.0923 40.644 19.0046 40.4298 18.7598C40.3165 18.4718 40.3399 18.2682 40.4512 17.9822C40.7443 17.5379 41.1689 17.1784 41.5703 16.8345C41.9881 16.4713 42.3686 16.0695 42.7552 15.6737C42.8138 15.6144 42.8723 15.5551 42.9327 15.494C42.9854 15.4401 43.0381 15.3863 43.0924 15.3308C43.3649 15.0864 43.6478 15.1202 43.9845 15.2051Z" fill="#05C7F2"/>
<path d="M32.6107 14.9661C32.8598 15.0181 32.9693 15.1397 33.1151 15.3418C33.1808 15.5389 33.1928 15.6661 33.1944 15.8711C33.1951 15.9369 33.1958 16.0026 33.1964 16.0703C33.1967 16.1412 33.197 16.2121 33.1973 16.2852C33.1977 16.3583 33.1981 16.4314 33.1985 16.5067C33.1991 16.6614 33.1996 16.8162 33.1999 16.9709C33.2005 17.2072 33.2026 17.4435 33.2048 17.6798C33.2052 17.8301 33.2056 17.9805 33.2059 18.1309C33.2067 18.2014 33.2076 18.2719 33.2084 18.3446C33.2073 18.7143 33.1966 18.9922 32.9784 19.3066C32.7061 19.4742 32.5653 19.5217 32.2478 19.4733C32.0142 19.3719 31.9067 19.2972 31.7479 19.1016C31.7127 18.9282 31.7127 18.9282 31.7114 18.7308C31.7103 18.6567 31.7093 18.5825 31.7081 18.5061C31.7085 18.4264 31.7088 18.3466 31.7092 18.2644C31.7087 18.1822 31.7083 18.0999 31.7079 18.0152C31.7074 17.8412 31.7076 17.6673 31.7085 17.4934C31.7094 17.2272 31.7071 16.9611 31.7045 16.695C31.7044 16.526 31.7046 16.357 31.7049 16.188C31.704 16.1084 31.7031 16.0288 31.7021 15.9467C31.7092 15.3322 31.7092 15.3322 31.9108 15.1208C32.1596 14.9527 32.3184 14.9517 32.6107 14.9661Z" fill="#05C7F2"/>
<path d="M38.7207 37.6953C38.9169 37.8179 39.0277 37.8992 39.1309 38.1055C39.1649 38.4455 39.1681 38.5883 38.9941 38.8873C38.7726 39.0765 38.6575 39.1276 38.3738 39.1426C38.1086 39.1189 37.9611 38.9844 37.7765 38.8061C37.6575 38.5808 37.665 38.4253 37.6953 38.1738C37.9605 37.6965 38.1955 37.6273 38.7207 37.6953Z" fill="#05C7F2"/>
<path d="M20.0586 44.3945C20.3042 44.5189 20.4446 44.6711 20.5414 44.9328C20.5358 45.2109 20.4688 45.3834 20.332 45.625C20.1468 45.7802 20.0277 45.8245 19.7894 45.86C19.5116 45.8203 19.3779 45.7457 19.1699 45.5566C19.051 45.3067 19.0162 45.0928 19.0716 44.8218C19.3141 44.4422 19.6109 44.294 20.0586 44.3945Z" fill="#05C7F2"/>
</g>
<defs>
<clipPath id="clip0_5371_19394">
<rect width="35" height="35" fill="white" transform="translate(15 15)"/>
</clipPath>
</defs>
</svg>
