<svg width="65" height="65" viewBox="0 0 65 65" fill="none" xmlns="http://www.w3.org/2000/svg">
<path d="M35.2175 17.7806C35.7017 18.0661 36.1421 18.4805 36.299 19.0357C36.3331 19.1712 36.3649 19.3072 36.3964 19.4434C36.4381 19.4444 36.4798 19.4454 36.5228 19.4464C36.7128 19.4515 36.9028 19.4581 37.0928 19.4647C37.1584 19.4663 37.224 19.4678 37.2916 19.4694C37.7441 19.4866 38.0034 19.5417 38.3276 19.8749C38.4607 20.0793 38.4826 20.2299 38.5155 20.4688C38.6175 20.4681 38.6175 20.4681 38.7216 20.4674C39.3642 20.4632 40.0069 20.4602 40.6495 20.4581C40.9799 20.4571 41.3102 20.4556 41.6405 20.4533C41.9597 20.4511 42.2788 20.4498 42.5979 20.4493C42.7193 20.4489 42.8407 20.4482 42.9621 20.4471C43.8404 20.4394 44.5875 20.4799 45.2831 21.084C45.6392 21.5085 45.8469 21.9437 45.8474 22.5045C45.8478 22.5822 45.8482 22.6599 45.8486 22.74C45.8483 22.8247 45.8481 22.9094 45.8478 22.9966C45.848 23.088 45.8483 23.1795 45.8486 23.2709C45.8493 23.5217 45.8492 23.7725 45.8489 24.0232C45.8487 24.2939 45.8493 24.5646 45.8498 24.8352C45.8507 25.3654 45.8508 25.8955 45.8507 26.4257C45.8505 26.8568 45.8507 27.2879 45.851 27.719C45.851 27.7804 45.851 27.8418 45.8511 27.905C45.8512 28.0297 45.8512 28.1544 45.8513 28.279C45.8521 29.4484 45.8519 30.6179 45.8515 31.7873C45.8511 32.8563 45.8519 33.9252 45.8532 34.9942C45.8545 36.0923 45.8551 37.1905 45.8548 38.2886C45.8547 38.9049 45.8549 39.5212 45.8559 40.1375C45.8567 40.6624 45.8568 41.1873 45.8559 41.7121C45.8555 41.9797 45.8555 42.2473 45.8563 42.5149C45.857 42.7603 45.8568 43.0057 45.8559 43.2512C45.8556 43.381 45.8563 43.5109 45.8571 43.6407C45.8502 44.7386 45.5278 45.6238 44.7694 46.4256C44.1462 46.9998 43.329 47.4101 42.4719 47.4113C42.4025 47.4116 42.3331 47.4119 42.2616 47.4121C42.1858 47.4121 42.11 47.412 42.0319 47.412C41.9105 47.4123 41.9105 47.4123 41.7867 47.4126C41.5624 47.4131 41.3381 47.4133 41.1138 47.4133C40.8717 47.4134 40.6297 47.4139 40.3876 47.4144C39.8584 47.4153 39.3291 47.4157 38.7999 47.416C38.4692 47.4162 38.1385 47.4165 37.8078 47.4168C36.8916 47.4177 35.9754 47.4184 35.0591 47.4186C35.0005 47.4186 34.9419 47.4186 34.8815 47.4186C34.8227 47.4187 34.764 47.4187 34.7034 47.4187C34.5843 47.4187 34.4653 47.4188 34.3462 47.4188C34.2871 47.4188 34.2281 47.4188 34.1672 47.4188C33.211 47.4191 32.2548 47.4203 31.2986 47.4219C30.3161 47.4235 29.3336 47.4244 28.3511 47.4244C27.7998 47.4245 27.2484 47.4249 26.6971 47.4261C26.2275 47.4272 25.7578 47.4275 25.2882 47.427C25.0488 47.4267 24.8095 47.4268 24.5701 47.4277C24.3099 47.4286 24.0496 47.4282 23.7894 47.4275C23.6775 47.4283 23.6775 47.4283 23.5634 47.4292C22.37 47.4216 21.3282 47.0143 20.4732 46.1804C20.4266 46.1325 20.38 46.0846 20.3319 46.0352C20.2945 45.9999 20.257 45.9647 20.2185 45.9284C19.4876 45.18 19.1614 44.0421 19.1399 43.0274C19.1384 42.9774 19.1368 42.9274 19.1353 42.876C19.1362 42.6642 19.1507 42.5114 19.2631 42.3297C19.5493 42.1349 19.8348 42.1734 20.1728 42.1803C20.2437 42.1807 20.3146 42.1811 20.3877 42.1815C20.6141 42.1831 20.8404 42.1865 21.0668 42.19C21.2203 42.1913 21.3739 42.1926 21.5274 42.1937C21.9037 42.1967 22.2799 42.2013 22.6562 42.2071C22.6561 42.165 22.656 42.123 22.6558 42.0798C22.6497 39.5898 22.645 37.0998 22.6422 34.6098C22.6419 34.3107 22.6415 34.0117 22.6411 33.7126C22.6411 33.6531 22.641 33.5935 22.6409 33.5322C22.6397 32.5685 22.6376 31.6048 22.6351 30.6411C22.6325 29.6521 22.631 28.6631 22.6304 27.6741C22.6301 27.064 22.6289 26.4538 22.6267 25.8437C22.6252 25.4252 22.6248 25.0066 22.6251 24.5881C22.6253 24.3467 22.625 24.1053 22.6236 23.8639C22.622 23.6019 22.6225 23.3399 22.6233 23.0779C22.6225 23.002 22.6217 22.9261 22.6209 22.848C22.6262 22.1525 22.8595 21.591 23.3398 21.084C24.0948 20.4434 24.9284 20.4397 25.8717 20.4487C25.9903 20.4491 26.1089 20.4494 26.2274 20.4496C26.5374 20.4504 26.8473 20.4524 27.1573 20.4547C27.4744 20.4568 27.7915 20.4577 28.1086 20.4588C28.7293 20.4609 29.35 20.4644 29.9706 20.4688C29.9785 20.3938 29.9865 20.3188 29.9946 20.2415C30.0486 19.9355 30.1458 19.8443 30.3808 19.6485C30.6066 19.4979 30.673 19.4954 30.9349 19.4984C31.002 19.4988 31.0692 19.4993 31.1385 19.4997C31.2085 19.5009 31.2785 19.502 31.3506 19.5032C31.4214 19.5038 31.4922 19.5044 31.5652 19.5051C31.7401 19.5067 31.9149 19.5089 32.0898 19.5117C32.0972 19.4666 32.1046 19.4214 32.1123 19.3748C32.227 18.7352 32.4731 18.2837 33.0169 17.9053C33.6745 17.4902 34.5138 17.4513 35.2175 17.7806ZM33.2989 18.9948C33.0696 19.343 33.029 19.627 33.0153 20.0378C32.9784 20.1953 32.9784 20.1953 32.8654 20.3055C32.6632 20.4251 32.5236 20.4297 32.2895 20.4354C32.2102 20.4378 32.1309 20.4402 32.0492 20.4427C31.9254 20.445 31.9254 20.445 31.7992 20.4474C31.6739 20.4509 31.6739 20.4509 31.5461 20.4545C31.3399 20.4601 31.1338 20.4648 30.9276 20.4688C30.9258 20.6724 30.9245 20.8761 30.9234 21.0797C30.9228 21.1378 30.9222 21.196 30.9216 21.2558C30.9214 21.3111 30.9212 21.3664 30.921 21.4234C30.9206 21.4746 30.9203 21.5258 30.9199 21.5785C30.9144 21.7011 30.9144 21.7011 30.996 21.7676C31.1975 21.7745 31.3973 21.7769 31.5988 21.7764C31.6937 21.7766 31.6937 21.7766 31.7905 21.7768C32.0006 21.7771 32.2107 21.7769 32.4209 21.7767C32.5662 21.7767 32.7116 21.7768 32.8569 21.7769C33.1619 21.777 33.467 21.7768 33.772 21.7765C34.164 21.7761 34.5559 21.7763 34.9479 21.7768C35.2481 21.777 35.5484 21.7769 35.8486 21.7767C35.9932 21.7767 36.1378 21.7768 36.2823 21.7769C36.484 21.7771 36.6857 21.7768 36.8873 21.7764C36.9779 21.7767 36.9779 21.7767 37.0703 21.7769C37.3357 21.8022 37.3357 21.8022 37.5585 21.6992C37.5644 21.6075 37.5658 21.5154 37.5652 21.4234C37.565 21.3681 37.5647 21.3128 37.5645 21.2558C37.5639 21.1977 37.5634 21.1396 37.5628 21.0797C37.5625 21.0214 37.5622 20.963 37.5618 20.9028C37.561 20.7581 37.5598 20.6135 37.5585 20.4688C37.4799 20.4667 37.4799 20.4667 37.3997 20.4647C37.1621 20.4581 36.9245 20.4507 36.6869 20.4431C36.6044 20.441 36.522 20.4389 36.437 20.4367C36.3577 20.4341 36.2784 20.4314 36.1967 20.4287C36.1236 20.4266 36.0506 20.4244 35.9754 20.4222C35.7835 20.4007 35.6661 20.3731 35.5077 20.2637C35.4607 20.0728 35.4607 20.0728 35.4394 19.8407C35.3759 19.345 35.297 19.0511 34.8882 18.7342C34.2851 18.4005 33.7643 18.5042 33.2989 18.9948ZM24.0685 21.7609C24.0324 21.8068 23.9964 21.8527 23.9593 21.9C23.922 21.9458 23.8847 21.9915 23.8463 22.0386C23.6679 22.2961 23.5961 22.4776 23.5964 22.7934C23.5961 22.8627 23.5958 22.9321 23.5955 23.0036C23.5959 23.0796 23.5963 23.1557 23.5968 23.2341C23.5966 23.315 23.5965 23.3959 23.5964 23.4793C23.5962 23.7039 23.5966 23.9285 23.5973 24.1531C23.5979 24.3954 23.5977 24.6376 23.5976 24.8798C23.5975 25.2995 23.598 25.7191 23.5987 26.1388C23.5998 26.7456 23.6002 27.3524 23.6004 27.9591C23.6007 28.9436 23.6016 29.928 23.6029 30.9124C23.6041 31.8688 23.6051 32.8251 23.6057 33.7815C23.6057 33.8404 23.6058 33.8993 23.6058 33.9601C23.606 34.2557 23.6061 34.5514 23.6063 34.8471C23.6077 37.3004 23.6101 39.7537 23.6132 42.2071C23.6972 42.2072 23.7812 42.2074 23.8678 42.2075C25.8608 42.2115 27.8538 42.2164 29.8468 42.2227C30.0919 42.2235 30.3371 42.2242 30.5822 42.225C30.631 42.2251 30.6798 42.2253 30.7301 42.2254C31.521 42.2279 32.3119 42.2296 33.1028 42.231C33.914 42.2325 34.7252 42.2347 35.5364 42.2377C35.9921 42.2394 36.4479 42.2406 36.9037 42.2411C37.3323 42.2415 37.7609 42.2428 38.1895 42.2449C38.3472 42.2455 38.5048 42.2458 38.6625 42.2457C38.8771 42.2456 39.0916 42.2467 39.3062 42.2482C39.3691 42.2478 39.4321 42.2475 39.497 42.2471C39.5543 42.2478 39.6116 42.2484 39.6707 42.2491C39.745 42.2493 39.745 42.2493 39.8209 42.2495C39.9894 42.283 40.0503 42.3478 40.1562 42.4805C40.1939 42.6173 40.1939 42.6173 40.2114 42.7732C40.2186 42.8304 40.2258 42.8876 40.2332 42.9465C40.2402 43.007 40.2472 43.0675 40.2544 43.1299C40.3886 44.1297 40.7141 45.1689 41.5455 45.8173C41.7175 45.9407 41.8921 46.0575 42.0702 46.1719C42.1393 46.217 42.2084 46.2621 42.2796 46.3086C42.689 46.448 43.0516 46.3444 43.4374 46.1719C44.148 45.7862 44.5706 45.1997 44.8076 44.4389C44.9049 44.0399 44.8923 43.6392 44.8912 43.2307C44.8917 43.0969 44.8917 43.0969 44.8922 42.9605C44.893 42.714 44.893 42.4675 44.8928 42.2211C44.8928 41.9548 44.8936 41.6886 44.8942 41.4224C44.8953 40.9013 44.8957 40.3802 44.8958 39.8592C44.8959 39.4356 44.8961 39.0121 44.8966 38.5886C44.8978 37.3875 44.8984 36.1865 44.8983 34.9854C44.8983 34.9207 44.8983 34.856 44.8983 34.7893C44.8983 34.6922 44.8983 34.6922 44.8983 34.593C44.8982 33.5424 44.8995 32.4918 44.9015 31.4412C44.9034 30.3621 44.9044 29.283 44.9043 28.204C44.9042 27.5983 44.9046 26.9926 44.9061 26.3869C44.9073 25.8714 44.9076 25.3559 44.9067 24.8404C44.9062 24.5774 44.9062 24.3144 44.9074 24.0515C44.9087 23.7664 44.9078 23.4813 44.9068 23.1962C44.9078 23.0716 44.9078 23.0716 44.9089 22.9444C44.9052 22.4907 44.8736 22.2034 44.5995 21.836C44.2217 21.4681 43.8231 21.4051 43.3115 21.4103C43.2334 21.4102 43.2334 21.4102 43.1538 21.4102C42.9829 21.4103 42.812 21.4114 42.6411 21.4124C42.5222 21.4127 42.4032 21.4129 42.2843 21.413C41.9721 21.4136 41.6599 21.4149 41.3477 21.4164C41.0287 21.4178 40.7098 21.4184 40.3909 21.4191C39.7658 21.4206 39.1407 21.4229 38.5155 21.4258C38.5075 21.4777 38.4995 21.5295 38.4912 21.5829C38.4799 21.6508 38.4687 21.7187 38.4571 21.7887C38.4462 21.8561 38.4354 21.9234 38.4242 21.9928C38.3608 22.2511 38.2505 22.3657 38.037 22.5196C37.7111 22.6942 37.3904 22.676 37.0302 22.675C36.9636 22.6754 36.897 22.6757 36.8283 22.6761C36.6083 22.6771 36.3884 22.677 36.1684 22.6768C36.0152 22.6771 35.862 22.6774 35.7089 22.6777C35.3879 22.6782 35.0669 22.6782 34.7459 22.6778C34.335 22.6775 33.9241 22.6786 33.5131 22.6802C33.1968 22.6812 32.8805 22.6813 32.5642 22.6811C32.4127 22.6811 32.2612 22.6814 32.1097 22.6821C31.8977 22.683 31.6857 22.6825 31.4736 22.6817C31.3802 22.6825 31.3802 22.6825 31.2848 22.6833C30.9087 22.6802 30.6448 22.6315 30.3124 22.4512C30.0981 22.2143 30.0267 22.0299 29.9979 21.719C29.9925 21.664 29.9872 21.609 29.9817 21.5523C29.978 21.5105 29.9744 21.4688 29.9706 21.4258C29.3128 21.421 28.6549 21.4174 27.9971 21.4152C27.6916 21.4141 27.3861 21.4127 27.0805 21.4103C26.7853 21.4081 26.4902 21.4069 26.195 21.4063C26.0827 21.406 25.9705 21.4052 25.8582 21.4041C24.908 21.3716 24.908 21.3716 24.0685 21.7609ZM20.1269 43.1641C20.2385 44.1687 20.5851 45.0413 21.3808 45.7035C22.1384 46.2316 22.8888 46.4672 23.8042 46.4618C23.9134 46.4619 23.9134 46.4619 24.0247 46.4621C24.2677 46.4624 24.5107 46.4616 24.7537 46.4609C24.9282 46.4608 25.1027 46.4608 25.2772 46.4609C25.6525 46.4609 26.0278 46.4606 26.403 46.4598C26.9456 46.4587 27.4882 46.4583 28.0308 46.4581C28.9112 46.4578 29.7916 46.4569 30.672 46.4556C31.527 46.4544 32.382 46.4534 33.237 46.4528C33.2898 46.4528 33.3425 46.4528 33.3968 46.4527C33.6614 46.4526 33.926 46.4524 34.1906 46.4522C36.3842 46.4508 38.5778 46.4484 40.7714 46.4453C40.7058 46.3578 40.6402 46.2702 40.5746 46.1826C40.5198 46.1095 40.5198 46.1095 40.4639 46.0349C40.3862 45.9316 40.3076 45.829 40.2285 45.7268C39.7271 45.0537 39.5195 44.3208 39.3754 43.5072C39.3467 43.3071 39.3467 43.3071 39.2675 43.1641C32.9511 43.1641 26.6347 43.1641 20.1269 43.1641Z" fill="#05C7F2"/>
<path d="M32.1559 24.1415C32.2295 24.1398 32.2295 24.1398 32.3045 24.1382C32.7577 24.1286 33.211 24.1232 33.6643 24.1191C33.9686 24.1163 34.2728 24.1122 34.5771 24.1048C34.8716 24.0977 35.1659 24.094 35.4605 24.0926C35.5724 24.0915 35.6843 24.0892 35.7961 24.0858C36.6691 24.0598 36.6691 24.0598 37.0075 24.3069C37.1635 24.4785 37.293 24.6512 37.4217 24.8437C38.2311 25.8215 39.1595 26.3354 40.3713 26.6841C40.7345 26.7932 40.7345 26.7932 40.8879 26.9305C41.0224 27.1874 41.005 27.4287 41.0029 27.7146C41.0035 27.8079 41.0035 27.8079 41.004 27.903C41.0049 28.109 41.0043 28.315 41.0036 28.521C41.0038 28.6649 41.004 28.8089 41.0042 28.9528C41.0045 29.2553 41.0041 29.5577 41.0031 29.8602C41.002 30.2447 41.0026 30.6293 41.0039 31.0139C41.0046 31.3117 41.0044 31.6096 41.0038 31.9075C41.0037 32.0491 41.0039 32.1906 41.0043 32.3322C41.0094 34.2507 40.6413 35.9525 39.3358 37.4218C39.2943 37.4697 39.2529 37.5175 39.2103 37.5668C38.7365 38.0771 38.1577 38.4643 37.5951 38.869C37.3192 39.0681 37.0459 39.2704 36.7723 39.4726C36.6652 39.5515 36.5581 39.6304 36.4511 39.7092C36.2228 39.8774 35.9948 40.0458 35.7669 40.2144C35.7085 40.2576 35.6501 40.3008 35.5899 40.3453C35.4785 40.4276 35.3671 40.51 35.2558 40.5925C35.1565 40.6659 35.0569 40.7387 34.9569 40.811C34.8397 40.8967 34.7255 40.9863 34.6118 41.0764C34.4139 41.1816 34.4139 41.1816 34.1864 41.1909C33.8478 41.0861 33.6143 40.9069 33.3372 40.6903C33.2215 40.6024 33.1058 40.5145 32.9901 40.4267C32.9314 40.3816 32.8726 40.3366 32.8121 40.2902C32.5398 40.0824 32.2634 39.8802 31.9871 39.6777C31.8797 39.5984 31.7723 39.5191 31.6648 39.4398C31.4411 39.2748 31.2165 39.111 30.9914 38.9479C30.4192 38.5322 29.8643 38.1195 29.3553 37.6269C29.3089 37.5856 29.2626 37.5443 29.2148 37.5017C28.2182 36.5806 27.5658 35.0634 27.5025 33.7153C27.4988 33.54 27.4972 33.3649 27.4964 33.1896C27.4959 33.1233 27.4953 33.057 27.4947 32.9887C27.493 32.7707 27.4919 32.5527 27.4909 32.3347C27.4905 32.26 27.4902 32.1854 27.4898 32.1085C27.488 31.7141 27.4867 31.3198 27.4857 30.9254C27.4847 30.599 27.4828 30.2726 27.4801 29.9462C27.4767 29.5516 27.475 29.157 27.4745 28.7624C27.474 28.6121 27.473 28.4618 27.4714 28.3115C27.4692 28.1017 27.4692 27.892 27.4697 27.6822C27.4686 27.62 27.4675 27.5578 27.4663 27.4937C27.4705 27.0726 27.4705 27.0726 27.6731 26.8581C27.8401 26.7642 27.9891 26.6956 28.1724 26.6408C28.2322 26.6222 28.292 26.6037 28.3537 26.5845C28.4163 26.5656 28.479 26.5466 28.5435 26.5271C29.8154 26.1186 30.6316 25.4733 31.4087 24.4031C31.631 24.1136 31.8023 24.1491 32.1559 24.1415ZM31.6112 25.7324C30.9016 26.696 29.7974 27.1873 28.6851 27.5284C28.5383 27.5645 28.5383 27.5645 28.4666 27.6464C28.459 27.8282 28.4559 28.0083 28.4556 28.1901C28.4553 28.2472 28.4549 28.3042 28.4546 28.363C28.4536 28.553 28.4531 28.743 28.4527 28.933C28.4523 29.0653 28.452 29.1976 28.4516 29.3299C28.4508 29.6084 28.4504 29.8869 28.4502 30.1654C28.4498 30.5198 28.4482 30.8741 28.4462 31.2284C28.445 31.5024 28.4446 31.7764 28.4445 32.0504C28.4443 32.1808 28.4438 32.3113 28.4429 32.4417C28.4318 34.1575 28.8005 35.6842 30.0394 36.9529C30.3368 37.2442 30.6653 37.4932 31.0017 37.737C31.1459 37.8416 31.2891 37.9475 31.4322 38.0536C31.6509 38.2155 31.87 38.3769 32.0894 38.5377C32.3216 38.708 32.5531 38.8792 32.7842 39.051C32.8418 39.0937 32.8994 39.1364 32.9587 39.1804C33.068 39.2616 33.1773 39.3429 33.2864 39.4244C33.6074 39.6621 33.9349 39.8817 34.2772 40.0879C34.3118 40.0618 34.3464 40.0357 34.3821 40.0089C35.0229 39.5268 35.6647 39.0461 36.3109 38.5711C37.1783 37.934 37.1783 37.934 38.0369 37.2851C38.0923 37.2427 38.1476 37.2003 38.2046 37.1567C39.2668 36.289 39.844 34.9435 40.0054 33.6069C40.0286 33.3583 40.0283 33.111 40.0271 32.8615C40.0271 32.7764 40.0271 32.7764 40.0272 32.6895C40.0271 32.5039 40.0266 32.3182 40.026 32.1325C40.0259 32.003 40.0258 31.8735 40.0257 31.7441C40.0255 31.4047 40.0248 31.0653 40.0241 30.7259C40.0234 30.379 40.023 30.0321 40.0227 29.6852C40.022 29.0056 40.0208 28.326 40.0194 27.6464C39.9801 27.631 39.9409 27.6155 39.9005 27.5995C39.7209 27.5284 39.5414 27.4571 39.3619 27.3858C39.3002 27.3615 39.2385 27.3371 39.175 27.312C38.088 26.8794 37.1459 26.2703 36.4819 25.2809C36.342 25.102 36.342 25.102 36.1374 25.0719C36.0641 25.0708 35.9909 25.0697 35.9154 25.0686C35.7905 25.0656 35.7905 25.0656 35.6631 25.0626C35.5284 25.0624 35.5284 25.0624 35.3909 25.0621C35.2975 25.0612 35.204 25.0602 35.1105 25.0592C34.9146 25.0574 34.7187 25.0571 34.5228 25.0576C34.2726 25.058 34.0227 25.054 33.7726 25.0489C33.5795 25.0456 33.3864 25.0451 33.1932 25.0455C33.0565 25.0451 32.9198 25.0419 32.7831 25.0387C32.1531 25.0466 31.921 25.1896 31.6112 25.7324Z" fill="#05C7F2"/>
<path d="M38.6652 30.962C38.9698 31.1344 39.1485 31.3505 39.2676 31.6797C39.3256 32.037 39.323 32.3735 39.1565 32.7008C38.9834 32.924 38.8327 33.0513 38.584 33.1836C38.5163 33.1836 38.4486 33.1836 38.3789 33.1836C38.3717 33.2427 38.3645 33.3017 38.357 33.3625C38.1771 34.2578 37.4538 35.0452 36.7383 35.5719C35.7165 36.2333 34.5258 36.5074 33.323 36.2833C32.1949 36.0135 31.2873 35.4408 30.65 34.4696C30.6239 34.4299 30.5977 34.3901 30.5708 34.3491C30.4161 34.0994 30.3325 33.8873 30.3125 33.5938C30.3851 33.4015 30.3851 33.4015 30.5176 33.252C30.755 33.1694 30.8709 33.1571 31.1 33.264C31.2965 33.4085 31.3593 33.5238 31.4618 33.7433C31.8779 34.5388 32.5253 34.9361 33.3556 35.2261C34.2202 35.4485 35.1165 35.2729 35.8923 34.8539C36.6188 34.4154 37.0969 33.8622 37.3535 33.0469C37.2732 32.9581 37.2732 32.9581 37.1912 32.8675C36.9454 32.568 36.8576 32.3068 36.8835 31.919C36.9419 31.5199 37.104 31.2864 37.4261 31.0431C37.8324 30.8098 38.2356 30.7773 38.6652 30.962ZM38.0371 31.8165C37.9694 31.8503 37.9694 31.8503 37.9004 31.8848C37.9004 31.9976 37.9004 32.1104 37.9004 32.2266C38.0297 32.2732 38.0297 32.2732 38.1738 32.295C38.2189 32.2498 38.2641 32.2047 38.3105 32.1582C38.3047 32.0152 38.3047 32.0152 38.2422 31.8848C38.1745 31.8623 38.1068 31.8397 38.0371 31.8165Z" fill="#05C7F2"/>
<path d="M36.7232 28.3283C36.8748 28.4668 36.8748 28.4668 36.9432 28.7061C36.9432 28.9454 36.9432 28.9454 36.8791 29.112C36.7093 29.2406 36.5791 29.2687 36.3669 29.2597C36.0863 29.1944 35.8433 29.0548 35.5904 28.9212C34.8231 28.5191 34.01 28.5048 33.1797 28.7379C32.3676 29.0233 31.7486 29.5286 31.2624 30.2322C31.1831 30.4242 31.2083 30.5268 31.2694 30.7227C31.3032 30.7763 31.337 30.8299 31.3719 30.8851C31.5461 31.1899 31.5682 31.4809 31.5001 31.8207C31.3934 32.1879 31.1953 32.4086 30.8806 32.6282C30.4925 32.76 30.1321 32.76 29.7441 32.6282C29.3957 32.3852 29.1642 32.0999 29.0819 31.6797C29.0759 31.2653 29.1522 30.9786 29.4237 30.6543C29.665 30.4194 29.8407 30.3437 30.1756 30.3126C30.1824 30.2637 30.1892 30.2149 30.1962 30.1646C30.4107 29.2945 31.2339 28.586 31.953 28.1251C33.4695 27.3383 35.2949 27.3152 36.7232 28.3283ZM30.244 31.2696C30.1228 31.3622 30.1228 31.3622 30.0389 31.4747C30.0615 31.5423 30.084 31.61 30.1073 31.6797C30.2376 31.7422 30.2376 31.7422 30.3807 31.7481C30.4258 31.703 30.4709 31.6579 30.5174 31.6114C30.5174 31.5211 30.5174 31.4309 30.5174 31.3379C30.3918 31.2851 30.3918 31.2851 30.244 31.2696Z" fill="#05C7F2"/>
<path d="M38.2424 28.0225C38.4475 28.0566 38.4475 28.0566 38.6099 28.1677C38.7555 28.3806 38.7503 28.4851 38.7209 28.7402C38.5978 28.9434 38.5978 28.9434 38.4261 29.1547C38.3954 29.193 38.3647 29.2312 38.3331 29.2707C38.0847 29.5782 37.8282 29.8792 37.571 30.1794C37.3431 30.4462 37.1246 30.719 36.9094 30.9961C36.6311 31.3542 36.3439 31.7028 36.0494 32.0476C35.8173 32.3197 35.5923 32.5967 35.37 32.8768C35.2164 33.0698 35.0613 33.2615 34.9056 33.4528C34.8559 33.514 34.8061 33.5752 34.7548 33.6383C34.7101 33.6913 34.6654 33.7443 34.6194 33.7988C34.5909 33.8398 34.5625 33.8808 34.5331 33.923C34.3287 34.0622 34.102 34.0466 33.8674 34.0039C33.6928 33.9018 33.5649 33.7672 33.4276 33.6199C33.3891 33.5808 33.3506 33.5417 33.3109 33.5014C33.1889 33.3767 33.0689 33.2503 32.9489 33.1238C32.8664 33.0392 32.7839 32.9547 32.7012 32.8704C32.0342 32.1857 32.0342 32.1857 31.9961 31.8933C32.0217 31.6797 32.0217 31.6797 32.167 31.5131C32.3635 31.4062 32.3635 31.4062 32.5558 31.3934C33.0685 31.5845 33.4446 32.0703 33.8209 32.4559C33.9972 32.638 33.9972 32.638 34.2092 32.7734C34.2248 32.7366 34.2404 32.6998 34.2565 32.6618C34.373 32.451 34.5258 32.2788 34.6835 32.0984C34.9554 31.7826 35.2185 31.4621 35.4739 31.1328C35.7521 30.7747 36.0394 30.4261 36.3339 30.0813C36.5661 29.8091 36.7911 29.532 37.0136 29.2519C37.1658 29.0605 37.3192 28.8702 37.4734 28.6804C37.5224 28.62 37.5714 28.5595 37.6219 28.4972C37.9895 28.0646 37.9895 28.0646 38.2424 28.0225Z" fill="#05C7F2"/>
</svg>
