<svg width="65" height="65" viewBox="0 0 65 65" fill="none" xmlns="http://www.w3.org/2000/svg">
<path d="M22.8697 16.4264C22.9555 16.4262 23.0413 16.4261 23.1297 16.4259C23.3651 16.4255 23.6005 16.4255 23.8359 16.4256C24.0908 16.4256 24.3458 16.4252 24.6007 16.4249C25.0993 16.4243 25.5978 16.4241 26.0963 16.4241C26.502 16.4241 26.9077 16.4239 27.3134 16.4237C28.4664 16.4231 29.6193 16.4228 30.7723 16.4228C30.8343 16.4229 30.8963 16.4229 30.9602 16.4229C31.0534 16.4229 31.0534 16.4229 31.1484 16.4229C32.154 16.4229 33.1595 16.4222 34.1651 16.4213C35.2003 16.4203 36.2354 16.4198 37.2705 16.4199C37.8506 16.4199 38.4307 16.4197 39.0108 16.419C39.5049 16.4184 39.9989 16.4182 40.4929 16.4187C40.7444 16.4189 40.9959 16.4189 41.2473 16.4183C43.3351 16.4136 45.1711 16.4183 46.8556 17.8027C46.8997 17.8389 46.9439 17.8751 46.9893 17.9125C48.1567 18.976 48.4758 20.4609 48.5646 21.9726C48.5733 22.2717 48.5741 22.5705 48.5737 22.8696C48.5738 22.9554 48.574 23.0412 48.5742 23.1295C48.5746 23.3649 48.5746 23.6004 48.5745 23.8358C48.5745 24.0907 48.5749 24.3457 48.5752 24.6006C48.5757 25.0991 48.5759 25.5977 48.576 26.0962C48.576 26.5019 48.5761 26.9076 48.5764 27.3133C48.577 28.4663 48.5773 29.6192 48.5772 30.7721C48.5772 30.8652 48.5772 30.8652 48.5772 30.9601C48.5772 31.0222 48.5772 31.0843 48.5772 31.1483C48.5772 32.1539 48.5778 33.1594 48.5788 34.165C48.5798 35.2001 48.5803 36.2353 48.5802 37.2704C48.5802 37.8505 48.5804 38.4306 48.5811 39.0107C48.5817 39.5047 48.5819 39.9988 48.5814 40.4928C48.5812 40.7443 48.5812 40.9957 48.5818 41.2472C48.5864 43.335 48.5818 45.171 47.1974 46.8554C47.1611 46.8996 47.1249 46.9437 47.0876 46.9892C46.024 48.1568 44.5372 48.4657 43.0274 48.5644C42.7311 48.5734 42.4351 48.574 42.1387 48.5736C42.0101 48.5738 42.0101 48.5738 41.8789 48.574C41.6434 48.5745 41.4078 48.5745 41.1722 48.5744C40.9172 48.5744 40.6622 48.5747 40.4073 48.5751C39.9085 48.5756 39.4097 48.5758 38.9109 48.5759C38.505 48.5759 38.0991 48.576 37.6932 48.5762C36.5399 48.5768 35.3866 48.5772 34.2332 48.5771C34.1711 48.5771 34.1091 48.5771 34.0451 48.5771C33.9519 48.5771 33.9519 48.5771 33.8568 48.5771C32.8508 48.5771 31.8448 48.5777 30.8388 48.5787C29.8033 48.5797 28.7679 48.5801 27.7324 48.5801C27.1521 48.5801 26.5718 48.5802 25.9915 48.581C25.4972 48.5816 25.0029 48.5817 24.5086 48.5813C24.257 48.5811 24.0054 48.5811 23.7538 48.5816C21.6657 48.5863 19.8294 48.5819 18.1446 47.1972C18.1005 47.161 18.0563 47.1248 18.0108 47.0875C16.8435 46.024 16.5244 44.539 16.4356 43.0273C16.4269 42.7283 16.4261 42.4295 16.4265 42.1303C16.4264 42.0446 16.4262 41.9588 16.426 41.8704C16.4256 41.635 16.4256 41.3996 16.4257 41.1642C16.4257 40.9092 16.4253 40.6543 16.425 40.3993C16.4245 39.9008 16.4243 39.4023 16.4242 38.9037C16.4242 38.498 16.4241 38.0923 16.4238 37.6866C16.4232 36.5337 16.4229 35.3808 16.423 34.2278C16.423 34.1658 16.423 34.1038 16.423 34.0399C16.423 33.9777 16.423 33.9156 16.423 33.8517C16.423 32.8461 16.4224 31.8405 16.4214 30.835C16.4204 29.7998 16.4199 28.7647 16.42 27.7295C16.42 27.1494 16.4198 26.5694 16.4191 25.9893C16.4185 25.4952 16.4183 25.0012 16.4188 24.5071C16.419 24.2557 16.419 24.0042 16.4184 23.7528C16.4138 21.665 16.4184 19.829 17.8028 18.1445C17.8572 18.0783 17.8572 18.0783 17.9126 18.0107C19.197 16.6009 21.0739 16.424 22.8697 16.4264ZM22.2361 17.8324C22.1472 17.8362 22.1472 17.8362 22.0564 17.8401C20.7946 17.9027 19.8086 18.1764 18.8966 19.1015C18.8573 19.1401 18.818 19.1787 18.7775 19.2185C17.9671 20.0793 17.8738 21.2189 17.8325 22.3404C17.8297 22.4147 17.8268 22.4889 17.8239 22.5655C17.794 23.4211 17.7932 24.2765 17.794 25.1327C17.7939 25.312 17.7938 25.4913 17.7936 25.6706C17.7933 26.1025 17.7934 26.5344 17.7936 26.9664C17.7937 27.3181 17.7938 27.6698 17.7937 28.0216C17.7937 28.0721 17.7937 28.1226 17.7937 28.1746C17.7936 28.2773 17.7936 28.3799 17.7936 28.4826C17.7934 29.4401 17.7936 30.3977 17.794 31.3552C17.7943 32.1727 17.7942 32.9902 17.7939 33.8078C17.7936 34.7624 17.7934 35.717 17.7936 36.6717C17.7936 36.7739 17.7937 36.8761 17.7937 36.9784C17.7937 37.0286 17.7937 37.0789 17.7937 37.1307C17.7938 37.4811 17.7937 37.8315 17.7935 38.1819C17.7933 38.6555 17.7935 39.129 17.7939 39.6026C17.7939 39.775 17.7939 39.9473 17.7938 40.1197C17.7931 40.9669 17.8003 41.8128 17.8325 42.6595C17.835 42.7285 17.8376 42.7976 17.8402 42.8687C17.8952 44.1612 18.1517 45.1669 19.1017 46.1035C19.1403 46.1428 19.1789 46.1821 19.2186 46.2226C20.0482 47.0036 21.151 47.1211 22.2361 47.1676C22.3008 47.1704 22.3655 47.1732 22.4321 47.1761C23.2696 47.2093 24.1073 47.2068 24.9453 47.2061C25.129 47.2062 25.3126 47.2063 25.4963 47.2065C25.9396 47.2068 26.3828 47.2067 26.8261 47.2065C27.1869 47.2063 27.5478 47.2063 27.9086 47.2064C27.9603 47.2064 28.012 47.2064 28.0653 47.2064C28.1705 47.2064 28.2756 47.2065 28.3808 47.2065C29.3623 47.2067 30.3439 47.2065 31.3255 47.2061C32.1643 47.2058 33.0031 47.2058 33.8419 47.2062C34.8204 47.2065 35.7989 47.2067 36.7775 47.2065C36.8822 47.2064 36.9869 47.2064 37.0916 47.2064C37.1431 47.2064 37.1946 47.2064 37.2476 47.2064C37.6073 47.2063 37.9669 47.2064 38.3265 47.2066C38.7659 47.2068 39.2053 47.2067 39.6447 47.2063C39.8681 47.2062 40.0914 47.2061 40.3148 47.2063C41.1318 47.207 41.9477 47.2032 42.7641 47.1676C42.8234 47.165 42.8827 47.1625 42.9438 47.1599C44.2056 47.0973 45.1916 46.8235 46.1036 45.8984C46.1429 45.8598 46.1822 45.8212 46.2227 45.7815C47.0526 44.9 47.1292 43.7355 47.1677 42.5899C47.1705 42.5093 47.1734 42.4286 47.1763 42.3455C47.2044 41.4778 47.207 40.6105 47.2062 39.7423C47.2063 39.5659 47.2064 39.3895 47.2066 39.2131C47.2069 38.7887 47.2068 38.3644 47.2066 37.94C47.2065 37.5943 47.2064 37.2486 47.2065 36.903C47.2065 36.8533 47.2065 36.8036 47.2065 36.7524C47.2066 36.6514 47.2066 36.5504 47.2066 36.4494C47.2068 35.5079 47.2066 34.5664 47.2062 33.6249C47.2059 32.8216 47.206 32.0182 47.2063 31.2149C47.2066 30.2762 47.2068 29.3375 47.2066 28.3988C47.2066 28.2982 47.2065 28.1976 47.2065 28.097C47.2065 28.0475 47.2065 27.9981 47.2065 27.9471C47.2064 27.6029 47.2065 27.2587 47.2067 26.9144C47.2069 26.4489 47.2067 25.9834 47.2063 25.5179C47.2063 25.3487 47.2063 25.1795 47.2064 25.0103C47.2071 24.143 47.198 23.2769 47.1677 22.4101C47.1652 22.3346 47.1626 22.259 47.16 22.1813C47.109 20.8678 46.8656 19.8499 45.8985 18.8965C45.8599 18.8572 45.8213 18.8179 45.7816 18.7774C44.952 17.9963 43.8492 17.8789 42.7641 17.8324C42.6994 17.8295 42.6347 17.8267 42.5681 17.8238C41.7306 17.7906 40.8929 17.7931 40.0549 17.7939C39.8712 17.7938 39.6876 17.7937 39.5039 17.7935C39.0606 17.7932 38.6174 17.7933 38.1741 17.7935C37.8133 17.7936 37.4524 17.7936 37.0916 17.7936C37.0399 17.7936 36.9882 17.7935 36.9349 17.7935C36.8297 17.7935 36.7246 17.7935 36.6194 17.7935C35.6379 17.7933 34.6563 17.7935 33.6747 17.7939C32.8359 17.7942 31.9971 17.7941 31.1583 17.7938C30.1798 17.7934 29.2013 17.7933 28.2227 17.7935C28.118 17.7935 28.0133 17.7935 27.9086 17.7936C27.8571 17.7936 27.8056 17.7936 27.7526 17.7936C27.3929 17.7937 27.0333 17.7936 26.6737 17.7934C26.2343 17.7932 25.7949 17.7933 25.3555 17.7936C25.1321 17.7938 24.9088 17.7938 24.6854 17.7936C23.8684 17.793 23.0525 17.7968 22.2361 17.8324Z" fill="#05C7F2"/>
<path d="M24.6401 22.4415C24.7444 22.4412 24.7444 22.4412 24.8508 22.4409C25.0842 22.4403 25.3175 22.4402 25.5509 22.4401C25.7181 22.4398 25.8853 22.4394 26.0525 22.4391C26.507 22.4382 26.9615 22.4377 27.4161 22.4374C27.7001 22.4372 27.9841 22.4369 28.2681 22.4366C29.0551 22.4358 29.8421 22.4351 30.6291 22.4349C30.6794 22.4349 30.7297 22.4348 30.7816 22.4348C30.8573 22.4348 30.8573 22.4348 30.9345 22.4348C31.0368 22.4347 31.139 22.4347 31.2413 22.4347C31.292 22.4347 31.3427 22.4347 31.395 22.4346C32.2162 22.4344 33.0374 22.4332 33.8587 22.4316C34.7026 22.43 35.5466 22.4291 36.3905 22.429C36.864 22.429 37.3375 22.4286 37.811 22.4273C38.2567 22.4262 38.7023 22.4261 39.1479 22.4267C39.3112 22.4267 39.4744 22.4264 39.6377 22.4257C39.8612 22.4249 40.0847 22.4253 40.3082 22.426C40.4043 22.4252 40.4043 22.4252 40.5023 22.4243C41.3893 22.4309 42.2451 22.7299 42.8991 23.339C43.7989 24.3024 43.9412 25.3518 43.9377 26.6167C43.9375 26.7845 43.9391 26.9523 43.9409 27.1201C43.941 27.2277 43.9411 27.3353 43.941 27.4429C43.9416 27.4927 43.9423 27.5424 43.9429 27.5936C43.9401 27.8974 43.8959 28.0875 43.7111 28.33C43.5042 28.5073 43.3572 28.5511 43.0916 28.5308C42.8363 28.487 42.7056 28.4063 42.549 28.1933C42.3687 27.6524 42.4806 27.0544 42.4806 26.4843C35.8935 26.4843 29.3064 26.4843 22.5197 26.4843C22.5253 28.6372 22.531 30.7902 22.5368 33.0084C22.5379 33.688 22.5389 34.3676 22.54 35.0678C22.5423 35.6774 22.5423 35.6774 22.5449 36.287C22.5461 36.5583 22.5465 36.8297 22.5465 37.101C22.5464 37.4475 22.5477 37.7939 22.5498 38.1403C22.5504 38.2673 22.5505 38.3942 22.5502 38.5212C22.548 39.3209 22.5821 39.9788 23.1459 40.5957C23.6871 41.0576 24.2757 41.1235 24.9564 41.1228C25.0232 41.123 25.09 41.1232 25.1588 41.1234C25.3829 41.124 25.607 41.1241 25.831 41.1242C25.9916 41.1245 26.1522 41.1249 26.3128 41.1253C26.7492 41.1262 27.1856 41.1266 27.6221 41.1269C27.8948 41.1271 28.1675 41.1274 28.4402 41.1277C29.1958 41.1285 29.9514 41.1292 30.707 41.1295C30.7553 41.1295 30.8037 41.1295 30.8535 41.1295C30.9261 41.1295 30.9261 41.1295 31.0003 41.1295C31.0984 41.1296 31.1966 41.1296 31.2948 41.1296C31.3678 41.1297 31.3678 41.1297 31.4423 41.1297C32.2309 41.13 33.0195 41.1311 33.808 41.1327C34.6184 41.1344 35.4287 41.1352 36.239 41.1353C36.6937 41.1354 37.1484 41.1358 37.6031 41.137C38.0309 41.1381 38.4587 41.1383 38.8866 41.1377C39.0434 41.1376 39.2002 41.1379 39.3569 41.1386C39.5715 41.1395 39.786 41.139 40.0005 41.1383C40.0621 41.1389 40.1238 41.1394 40.1872 41.14C40.8611 41.1348 41.4391 40.9695 41.9337 40.498C42.2944 40.0905 42.4288 39.6883 42.4308 39.1415C42.4312 39.0966 42.4315 39.0518 42.4319 39.0056C42.4326 38.9089 42.433 38.8122 42.4331 38.7155C42.4334 38.5623 42.4345 38.4092 42.4359 38.256C42.4397 37.8207 42.4418 37.3854 42.4435 36.9502C42.4445 36.6833 42.4466 36.4164 42.4492 36.1496C42.45 36.0482 42.4505 35.9468 42.4505 35.8453C42.4505 35.7035 42.4517 35.5617 42.4532 35.4199C42.4536 35.3393 42.4539 35.2587 42.4543 35.1757C42.4833 34.9388 42.5456 34.8102 42.6857 34.6191C42.9194 34.4438 43.154 34.4621 43.4377 34.4824C43.6585 34.5437 43.7013 34.6025 43.8195 34.8024C43.9234 35.0462 43.9418 35.2082 43.9416 35.4717C43.942 35.5583 43.9425 35.6448 43.9429 35.7339C43.9423 35.8275 43.9417 35.9212 43.941 36.0148C43.941 36.1121 43.941 36.2093 43.9411 36.3065C43.9411 36.5101 43.9404 36.7137 43.9391 36.9173C43.9376 37.1762 43.9376 37.4351 43.938 37.6941C43.9383 37.8949 43.9378 38.0958 43.9371 38.2967C43.9369 38.392 43.9368 38.4874 43.9369 38.5827C43.9371 39.6651 43.7949 40.7319 43.0123 41.5519C42.2083 42.2676 41.4235 42.559 40.3612 42.5588C40.2917 42.5591 40.2223 42.5593 40.1507 42.5596C39.9177 42.5603 39.6846 42.5606 39.4516 42.5609C39.2846 42.5613 39.1176 42.5617 38.9506 42.5622C38.4493 42.5635 37.948 42.5643 37.4467 42.5649C37.2103 42.5652 36.9739 42.5655 36.7375 42.5659C35.9511 42.5671 35.1647 42.568 34.3783 42.5685C34.1744 42.5687 33.9705 42.5688 33.7665 42.5689C33.6905 42.569 33.6905 42.569 33.613 42.569C32.7927 42.5696 31.9724 42.5713 31.1522 42.5736C30.309 42.5758 29.4658 42.5771 28.6227 42.5773C28.1497 42.5774 27.6767 42.578 27.2037 42.5798C26.7584 42.5814 26.3132 42.5816 25.8679 42.5809C25.7049 42.5809 25.5419 42.5813 25.3789 42.5823C24.0782 42.5894 22.9543 42.4831 21.9728 41.5234C21.3443 40.7736 21.0735 39.931 21.0745 38.9625C21.0743 38.9053 21.0741 38.848 21.0739 38.789C21.0733 38.5976 21.0732 38.4061 21.0731 38.2147C21.0728 38.0773 21.0725 37.9398 21.0721 37.8023C21.0712 37.4291 21.0708 37.056 21.0705 36.6828C21.0703 36.4495 21.07 36.2161 21.0697 35.9827C21.0687 35.252 21.0681 34.5213 21.0678 33.7906C21.0675 32.9482 21.0663 32.1059 21.0643 31.2635C21.0628 30.6117 21.0622 29.9598 21.0621 29.308C21.062 28.919 21.0616 28.53 21.0604 28.141C21.0592 27.7749 21.0591 27.4087 21.0597 27.0425C21.0597 26.9086 21.0595 26.7747 21.0588 26.6408C21.0531 25.4466 21.1789 24.3068 22.0433 23.3951C22.804 22.6963 23.6272 22.4406 24.6401 22.4415ZM22.9416 24.5769C22.7314 24.8208 22.7314 24.8208 22.6564 25.1171C29.1533 25.1171 35.6502 25.1171 42.3439 25.1171C42.1104 24.5335 41.7767 24.2154 41.2112 23.9489C40.8245 23.804 40.4516 23.8083 40.0439 23.8087C39.9771 23.8085 39.9103 23.8083 39.8415 23.8081C39.6174 23.8075 39.3934 23.8074 39.1693 23.8073C39.0087 23.807 38.8481 23.8066 38.6875 23.8063C38.2511 23.8054 37.8147 23.8049 37.3782 23.8046C37.1055 23.8044 36.8328 23.8041 36.5601 23.8038C35.8045 23.803 35.0489 23.8023 34.2933 23.8021C34.245 23.802 34.1966 23.802 34.1468 23.802C34.0984 23.802 34.0499 23.802 34 23.802C33.9019 23.8019 33.8037 23.8019 33.7055 23.8019C33.6325 23.8018 33.6325 23.8018 33.558 23.8018C32.7694 23.8016 31.9808 23.8004 31.1923 23.7988C30.3819 23.7971 29.5716 23.7963 28.7613 23.7962C28.3066 23.7962 27.8519 23.7957 27.3972 23.7945C26.9694 23.7934 26.5416 23.7932 26.1137 23.7938C25.9569 23.7939 25.8002 23.7936 25.6434 23.7929C25.4288 23.7921 25.2143 23.7925 24.9998 23.7932C24.9382 23.7926 24.8766 23.7921 24.8131 23.7915C24.0667 23.7973 23.44 24.005 22.9416 24.5769Z" fill="#05C7F2"/>
<path d="M41.7298 28.697C41.8738 28.8189 42.0054 28.9486 42.1386 29.0821C42.2124 29.1512 42.2863 29.2202 42.3603 29.289C42.9591 29.8548 43.3247 30.3015 43.371 31.1537C43.3614 32.0956 42.7478 32.6734 42.1127 33.3023C42.0414 33.3737 41.9702 33.445 41.899 33.5165C41.7071 33.7087 41.5146 33.9003 41.322 34.0917C41.12 34.2926 40.9187 34.4941 40.7173 34.6954C40.3795 35.0329 40.0414 35.3701 39.7029 35.7069C39.2683 36.1396 38.8343 36.5729 38.4004 37.0065C38.0272 37.3794 37.6537 37.7521 37.2801 38.1247C37.16 38.2445 37.04 38.3643 36.92 38.4841C36.7319 38.6719 36.5436 38.8596 36.3551 39.047C36.2859 39.116 36.2167 39.1849 36.1476 39.254C36.0535 39.3479 35.9592 39.4416 35.8649 39.5353C35.7857 39.6142 35.7857 39.6142 35.705 39.6947C35.5118 39.8743 35.3976 39.8917 35.1407 39.8939C35.0788 39.8945 35.017 39.8952 34.9533 39.8959C34.8863 39.8962 34.8193 39.8965 34.7502 39.8968C34.6814 39.8971 34.6126 39.8975 34.5418 39.8979C34.396 39.8986 34.2502 39.899 34.1044 39.8993C33.8816 39.9 33.6588 39.9021 33.436 39.9042C33.2945 39.9047 33.1529 39.905 33.0113 39.9053C32.9447 39.9061 32.8781 39.907 32.8095 39.9079C32.2227 39.9059 32.2227 39.9059 31.9531 39.6778C31.8101 39.4634 31.7979 39.4049 31.7911 39.1591C31.7891 39.0956 31.7871 39.0321 31.7851 38.9667C31.7799 38.6755 31.7749 38.3842 31.7723 38.0929C31.7704 37.9398 31.7671 37.7867 31.7625 37.6337C31.7557 37.412 31.7532 37.1906 31.7515 36.9688C31.7474 36.8674 31.7474 36.8674 31.7432 36.7639C31.7456 36.3692 31.8128 36.1575 32.0867 35.8687C32.1425 35.8093 32.1984 35.75 32.2559 35.6888C32.3139 35.6291 32.3719 35.5694 32.4316 35.5079C32.4846 35.453 32.5376 35.3981 32.5923 35.3415C32.7605 35.1692 32.9302 34.9985 33.1004 34.8281C33.1648 34.7633 33.2292 34.6986 33.2936 34.6338C33.4665 34.4601 33.6396 34.2865 33.8127 34.1131C33.9212 34.0044 34.0297 33.8956 34.1382 33.7868C34.4788 33.4453 34.8195 33.1039 35.1604 32.7628C35.5519 32.3709 35.943 31.9786 36.3337 31.586C36.6373 31.2809 36.9414 30.9761 37.2457 30.6717C37.4268 30.4906 37.6077 30.3092 37.7882 30.1275C37.9895 29.9249 38.1915 29.7231 38.3937 29.5214C38.4525 29.462 38.5113 29.4025 38.572 29.3413C39.465 28.4543 40.556 27.9024 41.7298 28.697ZM39.7461 30.2442C39.6784 30.3344 39.6107 30.4247 39.541 30.5176C40.0824 31.059 40.6238 31.6005 41.1816 32.1583C41.6337 31.7929 41.6337 31.7929 41.9336 31.338C41.952 31.0059 41.8608 30.8306 41.6516 30.586C41.5644 30.4938 41.4761 30.4026 41.3867 30.3126C41.3427 30.2668 41.2987 30.2211 41.2534 30.174C40.9581 29.8618 40.9581 29.8618 40.5578 29.7315C40.1839 29.7798 39.9978 29.9749 39.7461 30.2442ZM38.231 31.7314C38.1865 31.7732 38.142 31.815 38.0962 31.8581C38.0475 31.9046 37.9987 31.9512 37.9485 31.9991C37.8972 32.0477 37.8458 32.0963 37.7929 32.1464C37.3171 32.598 36.8464 33.0549 36.3771 33.5134C36.062 33.8211 35.7456 34.127 35.4249 34.4289C35.1146 34.7212 34.8089 35.0175 34.5056 35.3172C34.39 35.43 34.2728 35.5414 34.1542 35.6512C33.4117 36.3351 33.4117 36.3351 33.1132 37.2692C33.1009 37.6882 33.128 38.1004 33.1836 38.5157C34.2595 38.6638 34.2595 38.6638 35.2496 38.3114C35.6006 38.0257 35.9047 37.6963 36.2109 37.3643C36.3261 37.2459 36.4416 37.1279 36.5576 37.0102C36.859 36.7023 37.1549 36.3897 37.4499 36.0756C37.7529 35.755 38.061 35.4393 38.3686 35.1231C38.9694 34.504 39.5647 33.88 40.1562 33.252C40.038 32.9998 39.8945 32.836 39.6969 32.6378C39.6332 32.574 39.5695 32.5101 39.5039 32.4443C39.4707 32.4114 39.4375 32.3785 39.4034 32.3446C39.3016 32.2436 39.2006 32.1418 39.0996 32.04C39.0359 31.9764 38.9722 31.9129 38.9065 31.8474C38.8187 31.7598 38.8187 31.7598 38.7291 31.6705C38.5 31.4693 38.4311 31.542 38.231 31.7314Z" fill="#05C7F2"/>
<path d="M24.6131 29.1317C24.6825 29.1311 24.6825 29.1311 24.7533 29.1306C24.9087 29.1295 25.0641 29.1295 25.2195 29.1295C25.3307 29.1289 25.442 29.1284 25.5533 29.1277C25.8558 29.1262 26.1584 29.1256 26.4609 29.1253C26.6498 29.125 26.8388 29.1246 27.0278 29.1241C27.6868 29.1224 28.3458 29.1216 29.0049 29.1213C29.6194 29.1211 30.234 29.119 30.8486 29.1162C31.376 29.1138 31.9034 29.1127 32.4309 29.1127C32.746 29.1126 33.0611 29.112 33.3762 29.1101C33.6726 29.1083 33.9689 29.1081 34.2653 29.1092C34.374 29.1094 34.4828 29.1089 34.5916 29.1078C34.7401 29.1064 34.8885 29.1071 35.0371 29.1084C35.1617 29.1082 35.1617 29.1082 35.2889 29.108C35.5699 29.1625 35.6717 29.2728 35.8494 29.4922C35.9075 29.7031 35.8924 29.8936 35.8494 30.1074C35.7268 30.3036 35.6455 30.4145 35.4392 30.5176C35.2929 30.5248 35.1464 30.5274 34.9999 30.5281C34.9315 30.5286 34.9315 30.5286 34.8617 30.529C34.7082 30.5299 34.5546 30.5304 34.4011 30.5308C34.2913 30.5313 34.1815 30.5319 34.0717 30.5325C33.7104 30.5343 33.3492 30.5353 32.9879 30.5363C32.8636 30.5366 32.7393 30.537 32.615 30.5374C32.098 30.5389 31.5811 30.5401 31.0641 30.5409C30.3228 30.542 29.5816 30.5443 28.8404 30.5482C28.3194 30.5508 27.7984 30.5522 27.2774 30.5525C26.9662 30.5528 26.6549 30.5536 26.3437 30.5558C26.0508 30.5579 25.7579 30.5583 25.465 30.5575C25.3576 30.5575 25.2502 30.5581 25.1428 30.5593C24.9959 30.5608 24.8492 30.5602 24.7023 30.5592C24.6202 30.5594 24.5381 30.5596 24.4535 30.5598C24.1476 30.5025 24.0355 30.3968 23.8181 30.1758C23.73 29.8905 23.7297 29.7504 23.8352 29.4708C24.0519 29.138 24.2382 29.1331 24.6131 29.1317Z" fill="#05C7F2"/>
<path d="M24.5783 33.1055C24.6373 33.1052 24.6962 33.1048 24.7569 33.1044C24.8541 33.1042 24.8541 33.1042 24.9533 33.1041C25.0555 33.1036 25.0555 33.1036 25.1598 33.1031C25.386 33.1021 25.6122 33.1016 25.8384 33.1013C25.9953 33.1009 26.1521 33.1005 26.309 33.1001C26.6382 33.0994 26.9674 33.099 27.2967 33.0987C27.7187 33.0983 28.1408 33.0967 28.5628 33.0948C28.8869 33.0935 29.211 33.0931 29.5352 33.093C29.6908 33.0928 29.8464 33.0923 30.002 33.0914C30.2196 33.0902 30.4373 33.0903 30.6549 33.0908C30.7193 33.0901 30.7837 33.0895 30.8501 33.0889C31.183 33.091 31.4102 33.1019 31.6797 33.3202C31.857 33.5271 31.9007 33.6741 31.8805 33.9397C31.8367 34.195 31.7559 34.3257 31.543 34.4823C31.3546 34.5451 31.2424 34.5595 31.0482 34.5603C30.9597 34.5609 30.9597 34.5609 30.8693 34.5615C30.8048 34.5615 30.7402 34.5616 30.6737 34.5617C30.6055 34.562 30.5374 34.5624 30.4672 34.5627C30.2413 34.5637 30.0155 34.5642 29.7897 34.5646C29.6329 34.565 29.4762 34.5654 29.3194 34.5658C28.9906 34.5665 28.6618 34.5669 28.3329 34.5671C27.9114 34.5675 27.4899 34.5691 27.0684 34.5711C26.7446 34.5723 26.4208 34.5727 26.0969 34.5728C25.9415 34.573 25.7861 34.5736 25.6307 34.5745C25.4134 34.5756 25.1961 34.5755 24.9788 34.5751C24.9145 34.5757 24.8502 34.5763 24.784 34.577C24.4527 34.5748 24.2211 34.5662 23.9551 34.3456C23.8086 34.1259 23.75 33.9909 23.75 33.7261C23.8876 33.322 24.1619 33.1072 24.5783 33.1055Z" fill="#05C7F2"/>
<path d="M24.7953 37.1141C24.8515 37.1137 24.9076 37.1133 24.9655 37.113C25.1507 37.1121 25.3358 37.1132 25.5209 37.1145C25.6499 37.1145 25.7789 37.1144 25.9078 37.1142C26.1779 37.1141 26.448 37.1149 26.7181 37.1165C27.064 37.1184 27.4099 37.1182 27.7559 37.1174C28.0221 37.1169 28.2884 37.1174 28.5546 37.1183C28.6822 37.1186 28.8097 37.1186 28.9373 37.1183C29.1156 37.1181 29.2939 37.1193 29.4723 37.1208C29.5511 37.1203 29.5511 37.1203 29.6316 37.1198C29.9387 37.1241 30.1379 37.1617 30.3809 37.3535C30.5242 37.5685 30.5401 37.6996 30.5558 37.9529C30.4957 38.1926 30.365 38.3628 30.1758 38.5156C29.9628 38.5567 29.8028 38.5712 29.5902 38.5676C29.532 38.5682 29.4738 38.5688 29.4139 38.5694C29.222 38.5709 29.0304 38.5693 28.8385 38.5676C28.7049 38.5677 28.5714 38.568 28.4378 38.5683C28.1581 38.5686 27.8784 38.5675 27.5986 38.5653C27.2402 38.5626 26.8819 38.5632 26.5235 38.5649C26.2478 38.5659 25.9721 38.5652 25.6963 38.564C25.5642 38.5636 25.432 38.5637 25.2999 38.5642C25.1151 38.5648 24.9305 38.5631 24.7458 38.5609C24.664 38.5618 24.664 38.5618 24.5806 38.5627C24.3049 38.5569 24.1756 38.5278 23.9567 38.3547C23.7965 38.1452 23.7555 38.0262 23.75 37.7636C23.8811 37.2129 24.283 37.1076 24.7953 37.1141Z" fill="#05C7F2"/>
</svg>
