<svg width="32" height="32" viewBox="0 0 32 32" fill="none" xmlns="http://www.w3.org/2000/svg">
<path fill-rule="evenodd" clip-rule="evenodd" d="M5.77574 17.4271H8.29126V12.916L6.57598 12.471C5.78041 13.8056 3.63909 12.9534 4.05245 11.4592C4.3684 10.3168 5.96364 10.113 6.57539 11.1371C6.69461 11.337 6.76068 11.5665 6.76068 11.8038L8.72155 12.3125C8.88378 12.3451 9.00582 12.4844 9.00582 12.6511V17.4271H10.2458V12.5173C10.2458 12.3604 10.3538 12.2279 10.5017 12.1855L11.6437 11.7441V9.08494L10.52 8.45687C9.37386 9.57149 7.52766 8.14661 8.36742 6.82665C9.21185 5.49939 11.2833 6.39899 10.8761 7.86074L12.149 8.57218C12.2724 8.62661 12.3582 8.74712 12.3582 8.88697V11.4678L13.3185 11.0966V10.3077C13.3185 10.1736 13.3974 10.0573 13.5126 9.99991L15.6176 8.69922V6.62234C14.0865 6.22307 14.3658 4 15.9748 4C17.5707 4 17.8719 6.22087 16.3321 6.62234V8.69715L18.4806 10.0159C18.5877 10.0816 18.6462 10.1934 18.6463 10.3077L18.6467 11.0966L19.607 11.4678V8.88697C19.607 8.74712 19.6929 8.62661 19.8162 8.57218L21.2091 7.79369C20.8892 6.35117 22.9207 5.51899 23.7484 6.8479C24.3598 7.82953 23.4056 9.11569 22.1997 8.80299C21.9481 8.7377 21.7151 8.60293 21.5337 8.40742L20.3216 9.08496V11.7441L21.4636 12.1856C21.6115 12.2279 21.7195 12.3604 21.7195 12.5173V17.4271H22.9594V12.6512C22.9594 12.4844 23.0814 12.3452 23.2436 12.3125L25.2393 11.7948C25.2409 11.5637 25.3058 11.3375 25.4252 11.1375C26.04 10.1082 27.6323 10.3199 27.9475 11.4592C28.3623 12.9588 26.2078 13.8072 25.4193 12.4633L23.6739 12.916V17.4271H26.1894C26.3867 17.4271 26.5467 17.582 26.5467 17.773V19.6576C26.5467 19.8486 26.3867 20.0034 26.1894 20.0034H24.2864C24.0982 20.6624 23.8295 21.2885 23.4831 21.8797L24.8291 23.1828C24.9686 23.3178 24.9686 23.5368 24.8291 23.6718L22.0759 26.3372C21.9364 26.4722 21.7103 26.4722 21.5708 26.3372L20.2252 25.0345C19.614 25.3701 18.9677 25.63 18.2867 25.8123V27.6541C18.2867 27.8451 18.1267 28 17.9295 28H14.0358C13.8386 28 13.6786 27.8451 13.6786 27.6541V25.8118C12.9978 25.6295 12.3514 25.3696 11.7405 25.0341L10.3944 26.3372C10.255 26.4722 10.0288 26.4722 9.88932 26.3372L7.13614 23.6718C6.99665 23.5368 6.99665 23.3178 7.13614 23.1828L8.48175 21.8801C8.1351 21.2884 7.86663 20.6628 7.67834 20.0036H5.7758C5.57851 20.0036 5.41855 19.8487 5.41855 19.6577V17.7729C5.41855 17.5819 5.57845 17.4271 5.77574 17.4271ZM10.9602 17.4271H13.3185V11.8384L10.9602 12.7501V17.4271ZM14.033 17.4271H17.9321V10.4975L15.9744 9.29583L14.033 10.4955L14.033 17.4271ZM18.6467 17.4271H21.0049V12.7501L18.6467 11.8384V17.4271ZM25.8322 18.1188H22.0736C21.7718 23.1782 15.3916 25.5542 11.6683 21.9497C10.6427 20.9569 9.98063 19.6121 9.89154 18.1188H6.13302V19.3119H7.95353C8.11424 19.3117 8.26023 19.4188 8.29959 19.5767C9.08487 22.7218 10.244 21.1521 7.89379 23.4273L10.1419 25.6038L11.4302 24.3565C11.5438 24.2463 11.7251 24.2219 11.8684 24.3065C14.7244 25.9942 14.3931 24.0966 14.3931 27.3084H17.5722V25.5459C17.5721 25.3903 17.6827 25.249 17.8457 25.2109C21.0946 24.4507 19.4731 23.3285 21.8233 25.6037L24.0715 23.4274L22.7831 22.1801C22.6693 22.0702 22.644 21.8947 22.7315 21.756C24.4747 18.991 22.5146 19.3118 25.8322 19.3118L25.8322 18.1188ZM21.3579 18.1188H10.6073C10.9082 22.5646 16.5184 24.6296 19.7918 21.4607C20.6879 20.5932 21.2697 19.4212 21.3579 18.1188ZM11.8255 14.1257C12.2911 14.1257 12.8877 14.2306 12.8877 13.7799C12.8877 13.3291 12.291 13.434 11.8255 13.434C11.3552 13.434 11.3552 14.1257 11.8255 14.1257ZM11.8255 15.6811C12.2911 15.6811 12.8877 15.7859 12.8877 15.3352C12.8877 14.8845 12.291 14.9894 11.8255 14.9894C11.3552 14.9894 11.3552 15.6811 11.8255 15.6811ZM19.433 14.1257C19.8986 14.1257 20.4953 14.2306 20.4953 13.7799C20.4953 13.3291 19.8986 13.434 19.433 13.434C18.9627 13.434 18.9627 14.1257 19.433 14.1257ZM19.433 15.6811C19.8986 15.6811 20.4953 15.7859 20.4953 15.3352C20.4953 14.8845 19.8986 14.9894 19.433 14.9894C18.9627 14.9894 18.9627 15.6811 19.433 15.6811ZM16.4447 4.87919C15.8253 4.2814 14.8874 5.1911 15.5056 5.78956C16.1222 6.38644 17.0622 5.47887 16.4447 4.87919ZM9.3738 6.89409C8.52904 7.11314 8.87391 8.35445 9.71798 8.13567C10.5581 7.9179 10.2214 6.67433 9.3738 6.89409ZM5.05127 11.2469C4.28864 11.673 4.97002 12.7901 5.7148 12.3613C5.86356 12.2756 5.97568 12.1455 6.02425 11.9705C6.18387 11.3953 5.52552 10.9657 5.05127 11.2469ZM27.2581 11.6375C27.1633 11.2944 26.8009 11.0903 26.4432 11.1837C25.6008 11.4035 25.9445 12.6439 26.789 12.4249C27.143 12.333 27.3537 11.9828 27.2581 11.6375ZM23.1227 7.17786C22.6864 6.48875 21.5386 7.06459 21.9943 7.85941C22.3726 8.51916 23.5834 7.99756 23.1227 7.17786ZM14.8802 11.599H17.085C17.5553 11.599 17.5553 10.9073 17.085 10.9073H14.8802C14.4098 10.9073 14.4098 11.599 14.8802 11.599ZM14.8802 13.313H17.085C17.5553 13.313 17.5553 12.6212 17.085 12.6212H14.8802C14.4098 12.6212 14.4098 13.313 14.8802 13.313ZM14.8802 15.0269H17.085C17.5553 15.0269 17.5553 14.3352 17.085 14.3352H14.8802C14.4098 14.3352 14.4098 15.0269 14.8802 15.0269ZM14.8802 16.7409H17.085C17.5553 16.7409 17.5553 16.0492 17.085 16.0492H14.8802C14.4098 16.0492 14.4098 16.7409 14.8802 16.7409Z" fill="white"/>
</svg>
