<svg width="65" height="65" viewBox="0 0 65 65" fill="none" xmlns="http://www.w3.org/2000/svg">
<path d="M38.3335 33.9583L45.9504 39.0362C46.0602 39.1093 46.1877 39.1512 46.3195 39.1575C46.4512 39.1638 46.5822 39.1343 46.6985 39.072C46.8148 39.0098 46.912 38.9171 46.9798 38.804C47.0476 38.6909 47.0834 38.5615 47.0835 38.4296V26.4771C47.0835 26.3488 47.0497 26.2227 46.9855 26.1117C46.9212 26.0006 46.8288 25.9085 46.7175 25.8446C46.6063 25.7807 46.4802 25.7472 46.3519 25.7477C46.2236 25.7481 46.0976 25.7824 45.9868 25.8471L38.3335 30.3125" stroke="#05C7F2" stroke-width="2.91667" stroke-linecap="round" stroke-linejoin="round"/>
<path d="M35.4165 23.75H20.8332C19.2223 23.75 17.9165 25.0558 17.9165 26.6667V38.3333C17.9165 39.9442 19.2223 41.25 20.8332 41.25H35.4165C37.0273 41.25 38.3332 39.9442 38.3332 38.3333V26.6667C38.3332 25.0558 37.0273 23.75 35.4165 23.75Z" stroke="#05C7F2" stroke-width="2.91667" stroke-linecap="round" stroke-linejoin="round"/>
</svg>
