<svg width="65" height="65" viewBox="0 0 65 65" fill="none" xmlns="http://www.w3.org/2000/svg">
<g clip-path="url(#clip0_5570_6157)">
<path d="M21.2237 14.9819C21.326 14.981 21.326 14.981 21.4304 14.9801C21.5421 14.9803 21.5421 14.9803 21.656 14.9804C21.7752 14.9797 21.7752 14.9797 21.8968 14.979C22.1171 14.9779 22.3374 14.9774 22.5577 14.9771C22.7954 14.9767 23.0331 14.9756 23.2708 14.9745C23.8446 14.9721 24.4184 14.9711 24.9922 14.9701C25.2625 14.9697 25.5329 14.969 25.8032 14.9684C26.7019 14.9664 27.6005 14.9647 28.4992 14.964C28.5855 14.9639 28.5855 14.9639 28.6735 14.9639C28.7599 14.9638 28.7599 14.9638 28.8481 14.9637C28.9649 14.9636 29.0817 14.9635 29.1985 14.9634C29.2564 14.9634 29.3143 14.9633 29.374 14.9633C30.3127 14.9624 31.2515 14.9595 32.1902 14.9557C33.1543 14.9518 34.1183 14.9497 35.0824 14.9494C35.6236 14.9492 36.1647 14.9482 36.7059 14.9453C37.1667 14.9427 37.6275 14.9418 38.0883 14.943C38.3233 14.9436 38.5583 14.9434 38.7933 14.9411C39.0483 14.9391 39.3032 14.9399 39.5583 14.9416C39.6692 14.9396 39.6692 14.9396 39.7824 14.9376C40.2363 14.9445 40.4728 15.029 40.7942 15.3542C40.8318 15.3952 40.8695 15.4363 40.9082 15.4785C40.985 15.5531 41.0621 15.6274 41.1396 15.7013C41.2169 15.7781 41.2939 15.8551 41.3708 15.9323C41.4135 15.9748 41.4561 16.0174 41.5 16.0612C41.639 16.1998 41.7776 16.3386 41.9163 16.4775C42.0134 16.5746 42.1105 16.6717 42.2077 16.7687C42.4102 16.9712 42.6126 17.1737 42.8149 17.3763C43.0746 17.6364 43.3346 17.8962 43.5947 18.1558C43.7948 18.3557 43.9948 18.5558 44.1947 18.7559C44.2906 18.8518 44.3865 18.9477 44.4825 19.0435C44.616 19.1768 44.7493 19.3104 44.8825 19.444C44.9422 19.5035 44.9422 19.5035 45.0031 19.5642C45.3192 19.8819 45.3601 20.0072 45.3609 20.4536C45.3611 20.502 45.3613 20.5504 45.3615 20.6003C45.362 20.7642 45.3621 20.9282 45.3621 21.0921C45.3624 21.2101 45.3627 21.3282 45.363 21.4463C45.3638 21.772 45.3642 22.0977 45.3645 22.4234C45.3649 22.7742 45.3657 23.125 45.3665 23.4758C45.3681 24.3238 45.3691 25.1717 45.37 26.0197C45.3703 26.2591 45.3705 26.4985 45.3708 26.7379C45.3725 28.2241 45.3741 29.7102 45.3749 31.1964C45.3751 31.5408 45.3753 31.8852 45.3755 32.2297C45.3756 32.3153 45.3756 32.4009 45.3757 32.4891C45.3765 33.8758 45.3788 35.2624 45.3817 36.6491C45.3846 38.0721 45.3862 39.4952 45.3865 40.9182C45.3868 41.7175 45.3876 42.5167 45.3898 43.3159C45.3917 43.9967 45.3925 44.6774 45.3917 45.3581C45.3914 45.7054 45.3916 46.0527 45.3932 46.4C45.3948 46.7182 45.3947 47.0363 45.3934 47.3544C45.3932 47.4693 45.3936 47.5842 45.3947 47.6992C45.4007 48.4154 45.3469 48.9794 44.8712 49.5514C44.8281 49.5867 44.785 49.6219 44.7406 49.6582C44.6977 49.6949 44.6548 49.7315 44.6106 49.7693C44.3039 49.9645 44.0018 50.0171 43.6432 50.0176C43.5622 50.018 43.4813 50.0185 43.3979 50.0189C43.3096 50.0187 43.2214 50.0185 43.1304 50.0183C43.0352 50.0186 42.94 50.0189 42.8447 50.0192C42.5834 50.0201 42.3221 50.0201 42.0608 50.0199C41.7788 50.0199 41.4968 50.0206 41.2148 50.0213C40.6625 50.0224 40.1102 50.0228 39.5579 50.0229C39.1089 50.0229 38.66 50.0232 38.211 50.0236C36.938 50.0248 35.6649 50.0255 34.3918 50.0254C34.3232 50.0254 34.2546 50.0254 34.1839 50.0254C34.1152 50.0253 34.0465 50.0253 33.9757 50.0253C32.8622 50.0253 31.7486 50.0266 30.6351 50.0285C29.4916 50.0305 28.3481 50.0314 27.2046 50.0313C26.5627 50.0313 25.9208 50.0316 25.2788 50.0331C24.7323 50.0344 24.1858 50.0347 23.6392 50.0337C23.3604 50.0333 23.0817 50.0333 22.8029 50.0345C22.5475 50.0355 22.2921 50.0353 22.0367 50.0341C21.901 50.0338 21.7652 50.0349 21.6295 50.036C21.0665 50.0316 20.6179 49.9616 20.1745 49.5971C20.1391 49.5538 20.1037 49.5105 20.0672 49.466C20.0307 49.4232 19.9942 49.3805 19.9566 49.3365C19.6971 48.9418 19.6182 48.607 19.6223 48.1382C19.6219 48.0831 19.6216 48.0281 19.6212 47.9714C19.6204 47.7869 19.6209 47.6026 19.6215 47.4181C19.6212 47.2846 19.6207 47.151 19.6202 47.0174C19.6191 46.6504 19.6193 46.2833 19.6196 45.9163C19.6198 45.5204 19.6188 45.1246 19.618 44.7287C19.6166 43.9532 19.6162 43.1776 19.6164 42.4021C19.6165 41.7718 19.6162 41.1415 19.6157 40.5111C19.6155 40.3296 19.6154 40.1482 19.6153 39.9667C19.6152 39.9216 19.6152 39.8764 19.6151 39.83C19.6142 38.561 19.6136 37.292 19.6139 36.0231C19.6139 35.9753 19.6139 35.9274 19.6139 35.8781C19.614 35.6357 19.6141 35.3932 19.6141 35.1508C19.6141 35.0786 19.6141 35.0786 19.6142 35.0049C19.6142 34.9075 19.6142 34.8102 19.6142 34.7128C19.6147 33.1978 19.6136 31.6829 19.6114 30.1679C19.6089 28.4656 19.6076 26.7633 19.608 25.061C19.6081 24.1598 19.6077 23.2585 19.606 22.3573C19.6046 21.59 19.6044 20.8227 19.6057 20.0555C19.6063 19.664 19.6064 19.2725 19.605 18.881C19.6037 18.5226 19.604 18.1641 19.6055 17.8057C19.6058 17.6761 19.6055 17.5465 19.6046 17.4169C19.5995 16.653 19.6151 16.0587 20.1312 15.4486C20.175 15.4134 20.2187 15.3781 20.2637 15.3418C20.3074 15.3052 20.3511 15.2685 20.3961 15.2307C20.664 15.0522 20.9033 14.983 21.2237 14.9819ZM20.8789 16.5723C20.8526 16.7611 20.8421 16.9224 20.8445 17.1109C20.8441 17.165 20.8437 17.219 20.8433 17.2748C20.8423 17.4567 20.8433 17.6385 20.8442 17.8205C20.8439 17.9519 20.8435 18.0833 20.8429 18.2148C20.8418 18.5766 20.8423 18.9383 20.8432 19.3001C20.8438 19.69 20.8428 20.08 20.8421 20.4699C20.8409 21.234 20.8411 21.9981 20.8419 22.7622C20.8425 23.3831 20.8426 24.0039 20.8423 24.6248C20.8423 24.7131 20.8422 24.8013 20.8422 24.8923C20.8421 25.0716 20.842 25.2508 20.8419 25.4301C20.8412 27.0645 20.842 28.6989 20.8434 30.3333C20.8447 31.8257 20.8446 33.3182 20.8433 34.8106C20.8418 36.4869 20.8412 38.1631 20.8421 39.8393C20.8422 40.018 20.8422 40.1966 20.8423 40.3753C20.8424 40.4632 20.8424 40.5511 20.8425 40.6416C20.8427 41.2619 20.8423 41.8823 20.8417 42.5026C20.8409 43.2582 20.8411 44.0139 20.8426 44.7695C20.8433 45.1553 20.8435 45.541 20.8426 45.9268C20.8418 46.2796 20.8423 46.6325 20.8437 46.9853C20.844 47.1132 20.8439 47.2412 20.8432 47.3691C20.8424 47.5425 20.8432 47.7158 20.8445 47.8892C20.8439 47.9393 20.8432 47.9894 20.8426 48.041C20.8461 48.2772 20.8762 48.423 20.9936 48.6296C21.19 48.8028 21.2803 48.8124 21.5397 48.8126C21.6191 48.8135 21.6985 48.8144 21.7804 48.8153C21.8677 48.8145 21.955 48.8137 22.045 48.813C22.1387 48.8134 22.2323 48.8139 22.326 48.8146C22.5836 48.816 22.8412 48.8153 23.0988 48.8142C23.3765 48.8135 23.6543 48.8147 23.932 48.8156C24.4762 48.8171 25.0203 48.8168 25.5645 48.8158C26.0067 48.815 26.4488 48.8149 26.891 48.8153C26.9539 48.8153 27.0167 48.8154 27.0815 48.8155C27.2092 48.8156 27.337 48.8157 27.4647 48.8158C28.6629 48.8168 29.8612 48.8156 31.0594 48.8138C32.0882 48.8123 33.1169 48.8125 34.1456 48.8141C35.3395 48.8159 36.5334 48.8167 37.7273 48.8156C37.8545 48.8155 37.9818 48.8154 38.109 48.8153C38.1716 48.8152 38.2343 48.8152 38.2988 48.8151C38.7405 48.8148 39.1823 48.8153 39.624 48.8161C40.1622 48.8171 40.7004 48.8168 41.2386 48.815C41.5133 48.8141 41.788 48.8138 42.0627 48.8149C42.314 48.8159 42.5653 48.8154 42.8166 48.8135C42.951 48.813 43.0853 48.8141 43.2196 48.8153C43.3388 48.8139 43.3388 48.8139 43.4604 48.8126C43.5634 48.8125 43.5634 48.8125 43.6685 48.8124C43.8597 48.7819 43.8597 48.7819 44.0065 48.6255C44.1467 48.3835 44.1551 48.2344 44.1548 47.9555C44.1551 47.9086 44.1554 47.8616 44.1557 47.8133C44.1564 47.6558 44.1552 47.4983 44.154 47.3408C44.1541 47.2269 44.1544 47.1129 44.1547 46.999C44.1553 46.6857 44.1542 46.3724 44.1528 46.059C44.1517 45.7212 44.1521 45.3835 44.1523 45.0457C44.1524 44.4603 44.1516 43.875 44.15 43.2897C44.1478 42.4434 44.1471 41.5971 44.1467 40.7508C44.1461 39.3778 44.1443 38.0048 44.1417 36.6318C44.1392 35.298 44.1373 33.9641 44.1361 32.6303C44.136 32.507 44.136 32.507 44.1359 32.3812C44.1356 31.9688 44.1352 31.5565 44.1349 31.1441C44.132 27.7224 44.1272 24.3007 44.1211 20.8789C44.0834 20.8787 44.0457 20.8784 44.0068 20.8782C43.6108 20.8753 43.2149 20.8705 42.8189 20.8647C42.6716 20.8628 42.5242 20.8614 42.3768 20.8604C42.1638 20.8589 41.9509 20.8557 41.7379 20.8522C41.673 20.8521 41.6081 20.8521 41.5412 20.852C41.022 20.8408 40.4768 20.756 40.073 20.4055C39.5948 19.8991 39.5103 19.4212 39.5061 18.7472C39.5042 18.639 39.5042 18.639 39.5023 18.5286C39.4986 18.2995 39.4963 18.0704 39.494 17.8412C39.4918 17.6853 39.4894 17.5294 39.487 17.3735C39.4812 16.9925 39.4765 16.6115 39.4727 16.2305C37.1434 16.2227 34.8142 16.2167 32.4849 16.213C32.2101 16.2126 31.9353 16.2122 31.6604 16.2117C31.6057 16.2116 31.551 16.2115 31.4946 16.2114C30.608 16.21 29.7215 16.2073 28.8349 16.2041C27.9256 16.2009 27.0162 16.199 26.1069 16.1983C25.5455 16.1979 24.9842 16.1964 24.4228 16.1936C24.0381 16.1918 23.6535 16.1913 23.2688 16.1917C23.0467 16.1919 22.8246 16.1914 22.6025 16.1898C22.3619 16.1881 22.1214 16.1885 21.8808 16.1894C21.8103 16.1884 21.7398 16.1874 21.6672 16.1864C21.6028 16.1871 21.5384 16.1877 21.4721 16.1884C21.4166 16.1883 21.361 16.1882 21.3038 16.188C21.0692 16.2538 21.001 16.365 20.8789 16.5723ZM40.7031 17.1192C40.6964 17.4147 40.6914 17.7102 40.6881 18.0058C40.6868 18.1062 40.6849 18.2067 40.6825 18.3071C40.6792 18.4519 40.6776 18.5966 40.6764 18.7414C40.675 18.8284 40.6736 18.9153 40.6721 19.005C40.7084 19.2778 40.7844 19.3873 40.9766 19.5801C41.1799 19.6817 41.3637 19.6561 41.5902 19.6551C41.6371 19.655 41.6839 19.6549 41.7322 19.6548C41.8819 19.6545 42.0317 19.6536 42.1814 19.6527C42.2829 19.6524 42.3844 19.6521 42.4858 19.6518C42.7347 19.651 42.9836 19.6499 43.2324 19.6485C42.9472 19.3083 42.6503 18.9879 42.336 18.6746C42.2912 18.6298 42.2465 18.5849 42.2003 18.5387C42.1066 18.445 42.0128 18.3513 41.9189 18.2577C41.7745 18.1136 41.6305 17.9692 41.4865 17.8248C41.3951 17.7335 41.3038 17.6422 41.2124 17.551C41.1691 17.5076 41.1259 17.4642 41.0814 17.4196C40.9179 17.2159 40.9179 17.2159 40.7031 17.1192Z" fill="#05C7F2"/>
<path d="M26.3216 39.462C26.3687 39.4617 26.4158 39.4614 26.4642 39.4611C26.6227 39.4602 26.7811 39.4598 26.9395 39.4594C27.0528 39.4588 27.1661 39.4583 27.2794 39.4577C27.6521 39.4559 28.0247 39.4548 28.3974 39.4539C28.5256 39.4535 28.6538 39.4531 28.782 39.4528C29.3151 39.4513 29.8482 39.45 30.3813 39.4492C31.1459 39.4481 31.9105 39.4458 32.6751 39.442C33.2124 39.4393 33.7497 39.438 34.287 39.4376C34.6081 39.4374 34.9291 39.4365 35.2502 39.4343C35.5522 39.4323 35.8542 39.4318 36.1563 39.4326C36.2671 39.4327 36.378 39.4321 36.4889 39.4309C36.6402 39.4293 36.7915 39.4299 36.9429 39.431C37.0699 39.4306 37.0699 39.4306 37.1996 39.4303C37.483 39.4842 37.5844 39.5934 37.7635 39.8143C37.8255 40.0212 37.7952 40.139 37.7635 40.3612C37.6356 40.5274 37.5391 40.6101 37.3533 40.703C37.2034 40.7101 37.0532 40.7126 36.9032 40.7131C36.8564 40.7133 36.8096 40.7136 36.7614 40.7138C36.6039 40.7146 36.4465 40.7149 36.289 40.7151C36.1764 40.7155 36.0637 40.716 35.9511 40.7165C35.6446 40.7177 35.3382 40.7184 35.0317 40.719C34.8403 40.7193 34.6489 40.7197 34.4575 40.7202C33.8589 40.7215 33.2604 40.7224 32.6618 40.723C31.9704 40.7237 31.279 40.7255 30.5875 40.7282C30.0534 40.7303 29.5193 40.7313 28.9852 40.7315C28.666 40.7317 28.3469 40.7323 28.0277 40.734C27.7275 40.7356 27.4273 40.7359 27.127 40.7352C27.0168 40.7352 26.9066 40.7356 26.7964 40.7365C26.646 40.7377 26.4956 40.7373 26.3451 40.7364C26.2188 40.7366 26.2188 40.7366 26.09 40.7369C25.8271 40.6966 25.7147 40.6143 25.5271 40.4296C25.4296 40.2345 25.4376 40.0991 25.4588 39.8827C25.7173 39.4949 25.869 39.4641 26.3216 39.462Z" fill="#05C7F2"/>
<path d="M26.3216 30.712C26.3687 30.7117 26.4158 30.7114 26.4642 30.7111C26.6227 30.7102 26.7811 30.7098 26.9395 30.7094C27.0528 30.7088 27.1661 30.7083 27.2794 30.7077C27.6521 30.7059 28.0247 30.7048 28.3974 30.7039C28.5256 30.7035 28.6538 30.7031 28.782 30.7028C29.3151 30.7013 29.8482 30.7 30.3813 30.6992C31.1459 30.6981 31.9105 30.6958 32.6751 30.692C33.2124 30.6893 33.7497 30.688 34.287 30.6876C34.6081 30.6874 34.9291 30.6865 35.2502 30.6843C35.5522 30.6823 35.8542 30.6818 36.1563 30.6826C36.2671 30.6827 36.378 30.6821 36.4889 30.6809C36.6402 30.6793 36.7915 30.6799 36.9429 30.681C37.0699 30.6806 37.0699 30.6806 37.1996 30.6803C37.483 30.7342 37.5844 30.8434 37.7635 31.0643C37.8255 31.2712 37.7952 31.389 37.7635 31.6112C37.6356 31.7774 37.5391 31.8601 37.3533 31.953C37.2034 31.9601 37.0532 31.9626 36.9032 31.9631C36.8564 31.9633 36.8096 31.9636 36.7614 31.9638C36.6039 31.9646 36.4465 31.9649 36.289 31.9651C36.1764 31.9655 36.0637 31.966 35.9511 31.9665C35.6446 31.9677 35.3382 31.9684 35.0317 31.969C34.8403 31.9693 34.6489 31.9697 34.4575 31.9702C33.8589 31.9715 33.2604 31.9724 32.6618 31.973C31.9704 31.9737 31.279 31.9755 30.5875 31.9782C30.0534 31.9803 29.5193 31.9813 28.9852 31.9815C28.666 31.9817 28.3469 31.9823 28.0277 31.984C27.7275 31.9856 27.4273 31.9859 27.127 31.9852C27.0168 31.9852 26.9066 31.9856 26.7964 31.9865C26.646 31.9877 26.4956 31.9873 26.3451 31.9864C26.2188 31.9866 26.2188 31.9866 26.09 31.9869C25.8271 31.9466 25.7147 31.8643 25.5271 31.6796C25.4296 31.4845 25.4376 31.3491 25.4588 31.1327C25.7173 30.7449 25.869 30.7141 26.3216 30.712Z" fill="#05C7F2"/>
<path d="M31.9522 42.37C32.0434 42.3697 32.1346 42.3694 32.2258 42.3688C32.473 42.3679 32.7201 42.369 32.9673 42.3706C33.2261 42.372 33.4849 42.3716 33.7437 42.3714C34.1782 42.3714 34.6126 42.3728 35.0471 42.375C35.5494 42.3775 36.0517 42.3781 36.554 42.3776C37.0373 42.3772 37.5207 42.3779 38.0041 42.3793C38.2097 42.3798 38.4153 42.38 38.621 42.3799C38.9081 42.3798 39.1951 42.3815 39.4822 42.3833C39.5676 42.3831 39.653 42.3829 39.741 42.3827C39.8581 42.3839 39.8581 42.3839 39.9777 42.3851C40.0455 42.3853 40.1134 42.3856 40.1833 42.3858C40.3902 42.4163 40.4838 42.4745 40.6346 42.6171C40.7117 42.8217 40.7262 43.0154 40.703 43.2323C40.5326 43.4596 40.4249 43.5529 40.1561 43.6425C40.0363 43.649 39.9163 43.6514 39.7964 43.6516C39.7218 43.6519 39.6473 43.6522 39.5704 43.6525C39.4886 43.6525 39.4068 43.6525 39.3225 43.6524C39.2363 43.6527 39.1502 43.6529 39.0614 43.6531C38.825 43.6537 38.5885 43.6539 38.3521 43.6539C38.1547 43.654 37.9573 43.6543 37.7599 43.6545C37.2941 43.6551 36.8284 43.6552 36.3626 43.6552C35.8822 43.6551 35.4019 43.6559 34.9215 43.6569C34.509 43.6578 34.0965 43.6582 33.684 43.6581C33.4377 43.6581 33.1914 43.6583 32.9451 43.659C32.6703 43.6598 32.3955 43.6595 32.1207 43.6591C32.0392 43.6595 31.9576 43.6599 31.8736 43.6603C31.7987 43.66 31.7237 43.6597 31.6465 43.6594C31.5815 43.6594 31.5166 43.6595 31.4497 43.6595C31.19 43.635 30.9954 43.5689 30.8037 43.3904C30.6859 43.161 30.6868 43.0081 30.7225 42.7538C31.0191 42.2908 31.4455 42.3646 31.9522 42.37Z" fill="#05C7F2"/>
<path d="M26.164 24.8774C26.2376 24.8766 26.3113 24.8758 26.3871 24.875C26.5077 24.8759 26.5077 24.8759 26.6307 24.8767C26.7582 24.876 26.7582 24.876 26.8881 24.8753C27.1209 24.8743 27.3536 24.8745 27.5864 24.8754C27.8301 24.8761 28.0737 24.8754 28.3174 24.875C28.7265 24.8745 29.1357 24.8751 29.5448 24.8764C30.0178 24.8779 30.4907 24.8775 30.9637 24.8759C31.3699 24.8747 31.776 24.8745 32.1822 24.8752C32.4247 24.8757 32.6673 24.8757 32.9098 24.8748C33.1802 24.8739 33.4505 24.8752 33.7209 24.8767C33.8013 24.8762 33.8817 24.8756 33.9645 24.875C34.075 24.8762 34.075 24.8762 34.1876 24.8774C34.2515 24.8775 34.3154 24.8776 34.3813 24.8777C34.6033 24.9227 34.6841 25.0111 34.8243 25.1855C34.9076 25.441 34.904 25.5628 34.8157 25.8179C34.6669 26.0361 34.5928 26.0655 34.3457 26.1426C34.1746 26.16 34.1746 26.16 33.9908 26.1604C33.8857 26.1611 33.8857 26.1611 33.7785 26.1619C33.6643 26.1616 33.6643 26.1616 33.5479 26.1613C33.4671 26.1617 33.3864 26.162 33.3032 26.1624C33.0823 26.1632 32.8614 26.1634 32.6405 26.1632C32.4559 26.1631 32.2712 26.1634 32.0866 26.1638C31.6508 26.1645 31.2151 26.1646 30.7793 26.1641C30.3303 26.1637 29.8813 26.1646 29.4323 26.166C29.0463 26.1672 28.6603 26.1676 28.2743 26.1674C28.044 26.1673 27.8136 26.1675 27.5833 26.1684C27.3264 26.1693 27.0695 26.1688 26.8126 26.168C26.7366 26.1685 26.6607 26.1691 26.5824 26.1696C26.2032 26.167 25.9209 26.1567 25.5957 25.9375C25.4472 25.7567 25.4591 25.662 25.4676 25.4248C25.568 25.0232 25.7546 24.878 26.164 24.8774Z" fill="#05C7F2"/>
<path d="M26.2375 36.5235C26.3295 36.5229 26.3295 36.5229 26.4233 36.5223C26.524 36.5222 26.524 36.5222 26.6267 36.5221C26.6975 36.5218 26.7684 36.5214 26.8413 36.5211C27.076 36.5201 27.3107 36.5196 27.5455 36.5192C27.7083 36.5188 27.8712 36.5184 28.0341 36.518C28.3758 36.5173 28.7175 36.5169 29.0592 36.5167C29.4972 36.5163 29.9353 36.5147 30.3734 36.5127C30.7099 36.5115 31.0463 36.5111 31.3828 36.511C31.5444 36.5108 31.7059 36.5102 31.8674 36.5093C32.0932 36.5082 32.319 36.5083 32.5449 36.5087C32.6117 36.5081 32.6786 36.5075 32.7474 36.5068C33.3315 36.5104 33.3315 36.5104 33.5937 36.7382C33.699 36.9854 33.7477 37.1407 33.6877 37.4047C33.5814 37.5786 33.4922 37.6556 33.3202 37.7636C33.1699 37.7896 33.1699 37.7896 33.0037 37.7901C32.9405 37.7908 32.8772 37.7914 32.812 37.7921C32.7431 37.7918 32.6742 37.7915 32.6033 37.7912C32.5303 37.7917 32.4574 37.7921 32.3822 37.7926C32.1409 37.7939 31.8996 37.7936 31.6582 37.7932C31.4907 37.7935 31.3231 37.7939 31.1556 37.7943C30.8044 37.7949 30.4532 37.7948 30.1019 37.7941C29.6514 37.7933 29.2008 37.7947 28.7503 37.7967C28.4043 37.7979 28.0583 37.7979 27.7123 37.7975C27.5461 37.7975 27.38 37.7979 27.2138 37.7988C26.9818 37.7998 26.7497 37.7991 26.5177 37.7979C26.4143 37.7989 26.4143 37.7989 26.3089 37.7999C25.8433 37.7949 25.8433 37.7949 25.6234 37.6333C25.459 37.3886 25.4298 37.2402 25.4589 36.9433C25.675 36.608 25.8479 36.525 26.2375 36.5235Z" fill="#05C7F2"/>
<path d="M34.964 27.7735C35.0202 27.7731 35.0763 27.7727 35.1342 27.7723C35.1956 27.7723 35.2569 27.7722 35.3202 27.7721C35.385 27.7718 35.4498 27.7714 35.5166 27.7711C35.7313 27.7701 35.9461 27.7696 36.1608 27.7692C36.3099 27.7688 36.459 27.7684 36.6081 27.768C36.9208 27.7673 37.2335 27.7669 37.5462 27.7667C37.9471 27.7663 38.3479 27.7647 38.7487 27.7627C39.0567 27.7615 39.3647 27.7611 39.6727 27.761C39.8205 27.7608 39.9682 27.7602 40.116 27.7593C40.3227 27.7582 40.5294 27.7583 40.736 27.7587C40.7971 27.7581 40.8582 27.7575 40.9212 27.7568C41.2459 27.759 41.4669 27.7737 41.7284 27.9882C41.8993 28.2446 41.9017 28.3682 41.8651 28.6718C41.728 28.8646 41.6189 28.9925 41.3812 29.0449C41.2029 29.0577 41.0275 29.059 40.8487 29.0567C40.7473 29.0575 40.7473 29.0575 40.6438 29.0582C40.4206 29.0594 40.1975 29.058 39.9742 29.0566C39.8191 29.0566 39.6639 29.0568 39.5087 29.0571C39.1836 29.0573 38.8585 29.0563 38.5335 29.0544C38.1165 29.0521 37.6997 29.0525 37.2827 29.0537C36.9624 29.0545 36.642 29.0539 36.3216 29.0528C36.1679 29.0525 36.0141 29.0525 35.8604 29.0529C35.6457 29.0533 35.431 29.0519 35.2163 29.05C35.1208 29.0507 35.1208 29.0507 35.0233 29.0514C34.5925 29.045 34.5925 29.045 34.3766 28.8831C34.2075 28.6399 34.1796 28.4912 34.2088 28.1933C34.4176 27.8693 34.5852 27.7751 34.964 27.7735Z" fill="#05C7F2"/>
<path d="M26.214 27.7735C26.2702 27.7731 26.3263 27.7727 26.3842 27.7723C26.4456 27.7723 26.5069 27.7722 26.5702 27.7721C26.635 27.7718 26.6998 27.7714 26.7666 27.7711C26.9813 27.7701 27.1961 27.7696 27.4108 27.7692C27.5599 27.7688 27.709 27.7684 27.8581 27.768C28.1708 27.7673 28.4835 27.7669 28.7962 27.7667C29.1971 27.7663 29.5979 27.7647 29.9987 27.7627C30.3067 27.7615 30.6147 27.7611 30.9227 27.761C31.0705 27.7608 31.2182 27.7602 31.366 27.7593C31.5727 27.7582 31.7794 27.7583 31.986 27.7587C32.0471 27.7581 32.1082 27.7575 32.1712 27.7568C32.4959 27.759 32.7169 27.7737 32.9784 27.9882C33.1493 28.2446 33.1517 28.3682 33.1151 28.6718C32.978 28.8646 32.8689 28.9925 32.6312 29.0449C32.4529 29.0577 32.2775 29.059 32.0987 29.0567C31.9973 29.0575 31.9973 29.0575 31.8938 29.0582C31.6706 29.0594 31.4475 29.058 31.2242 29.0566C31.0691 29.0566 30.9139 29.0568 30.7587 29.0571C30.4336 29.0573 30.1085 29.0563 29.7835 29.0544C29.3665 29.0521 28.9497 29.0525 28.5327 29.0537C28.2124 29.0545 27.892 29.0539 27.5716 29.0528C27.4179 29.0525 27.2641 29.0525 27.1104 29.0529C26.8957 29.0533 26.681 29.0519 26.4663 29.05C26.3708 29.0507 26.3708 29.0507 26.2733 29.0514C25.8425 29.045 25.8425 29.045 25.6266 28.8831C25.4575 28.6399 25.4296 28.4912 25.4588 28.1933C25.6676 27.8693 25.8352 27.7751 26.214 27.7735Z" fill="#05C7F2"/>
<path d="M26.5201 45.2721C26.6094 45.2716 26.6094 45.2716 26.7004 45.2711C26.8974 45.2701 27.0944 45.2696 27.2913 45.2692C27.4282 45.2688 27.565 45.2684 27.7018 45.268C27.9888 45.2673 28.2758 45.2669 28.5628 45.2667C28.9305 45.2663 29.2982 45.2647 29.6659 45.2627C29.9486 45.2615 30.2312 45.2611 30.5139 45.261C30.6495 45.2608 30.785 45.2602 30.9206 45.2593C31.1103 45.2582 31.2999 45.2583 31.4895 45.2587C31.5455 45.2581 31.6015 45.2575 31.6592 45.2568C31.9726 45.2591 32.1767 45.2853 32.4316 45.4882C32.5098 45.6445 32.5181 45.7499 32.5256 45.924C32.529 45.9767 32.5323 46.0294 32.5358 46.0837C32.5 46.2401 32.5 46.2401 32.3655 46.3844C32.0837 46.56 31.8659 46.5521 31.5402 46.549C31.4785 46.5494 31.4169 46.5499 31.3534 46.5504C31.1502 46.5516 30.947 46.5508 30.7438 46.5499C30.6024 46.5501 30.461 46.5503 30.3196 46.5507C30.0235 46.5511 29.7274 46.5505 29.4313 46.5492C29.0516 46.5477 28.6719 46.5486 28.2923 46.5502C28.0004 46.5512 27.7085 46.5509 27.4166 46.5502C27.2766 46.55 27.1366 46.5502 26.9966 46.5508C26.801 46.5515 26.6056 46.5505 26.41 46.549C26.3521 46.5495 26.2941 46.5501 26.2345 46.5506C25.8418 46.545 25.8418 46.545 25.6303 46.3832C25.4563 46.1413 25.4297 45.9924 25.459 45.6933C25.7425 45.2534 26.0332 45.2728 26.5201 45.2721Z" fill="#05C7F2"/>
<path d="M32.8508 33.6189C32.913 33.6184 32.9753 33.6179 33.0395 33.6174C33.245 33.6162 33.4504 33.6176 33.6558 33.619C33.7988 33.619 33.9417 33.6188 34.0846 33.6185C34.384 33.6183 34.6833 33.6193 34.9826 33.6212C35.3664 33.6235 35.7502 33.6231 36.134 33.6218C36.4291 33.6211 36.7241 33.6217 37.0191 33.6228C37.1607 33.6231 37.3022 33.6231 37.4437 33.6226C37.6414 33.6223 37.839 33.6237 38.0367 33.6255C38.0953 33.6251 38.1539 33.6246 38.2142 33.6242C38.6103 33.6306 38.6103 33.6306 38.8251 33.7915C38.9728 34.0029 38.9638 34.1548 38.9526 34.4054C38.9257 34.5507 38.9257 34.5507 38.8018 34.7216C38.5075 34.9234 38.22 34.9026 37.8771 34.9024C37.8189 34.9026 37.7608 34.9029 37.7008 34.9031C37.5083 34.9038 37.3158 34.9039 37.1232 34.904C36.9894 34.9042 36.8557 34.9044 36.7219 34.9046C36.4414 34.9051 36.1608 34.9052 35.8803 34.9051C35.5208 34.9051 35.1614 34.9061 34.802 34.9072C34.5256 34.908 34.2493 34.9081 33.973 34.9081C33.8405 34.9082 33.708 34.9085 33.5755 34.909C33.3901 34.9097 33.2047 34.9095 33.0193 34.9091C32.9646 34.9095 32.9099 34.9098 32.8535 34.9102C32.5024 34.9083 32.2288 34.8853 31.9658 34.6404C31.848 34.411 31.8489 34.2581 31.8846 34.0038C32.1651 33.6199 32.4094 33.6128 32.8508 33.6189Z" fill="#05C7F2"/>
<path d="M31.4644 18.4524C31.6441 18.4939 31.7217 18.5585 31.8568 18.6832C31.9041 18.7266 31.9515 18.7701 32.0002 18.8148C32.0524 18.8643 32.1045 18.9139 32.1583 18.9649C32.2165 19.0197 32.2747 19.0746 32.3346 19.1311C32.5255 19.3132 32.7138 19.4976 32.9017 19.6827C32.9666 19.745 33.0314 19.8073 33.0982 19.8714C33.1601 19.9325 33.222 19.9936 33.2857 20.0565C33.3416 20.1111 33.3976 20.1657 33.4552 20.2219C33.6239 20.4391 33.6847 20.6083 33.7306 20.8789C33.6647 21.2225 33.4077 21.4343 33.1666 21.6704C33.1246 21.7123 33.0827 21.7541 33.0394 21.7972C32.9509 21.8852 32.8622 21.973 32.7733 22.0605C32.6368 22.1949 32.5011 22.3299 32.3655 22.4651C32.2794 22.5506 32.1932 22.636 32.107 22.7214C32.0663 22.7619 32.0256 22.8023 31.9836 22.844C31.6276 23.1938 31.6276 23.1938 31.3508 23.2245C31.0829 23.1983 30.9816 23.1148 30.7911 22.9297C30.6834 22.7143 30.6586 22.544 30.7227 22.3145C30.9016 22.0611 31.1181 21.8488 31.338 21.6309C31.4075 21.5606 31.4769 21.4903 31.5463 21.4199C31.7261 21.2382 31.9076 21.0582 32.0899 20.8789C31.9908 20.6502 31.8659 20.5029 31.6881 20.3294C31.6364 20.2785 31.5847 20.2275 31.5314 20.1751C31.4775 20.1225 31.4235 20.07 31.3679 20.0159C31.2608 19.9112 31.1539 19.8064 31.0472 19.7013C30.9997 19.6551 30.9523 19.6089 30.9034 19.5613C30.7516 19.4019 30.7244 19.3324 30.7099 19.1101C30.7225 18.9002 30.7429 18.7949 30.8595 18.6231C31.0737 18.4802 31.2082 18.4446 31.4644 18.4524Z" fill="#05C7F2"/>
<path d="M24.6387 18.4862C24.8461 18.6245 24.8992 18.7202 24.9762 18.9562C24.9828 19.2855 24.8613 19.4836 24.6431 19.7283C24.4803 19.8952 24.3147 20.0585 24.1473 20.2208C24.0896 20.2777 24.0318 20.3345 23.9723 20.3931C23.8303 20.5327 23.6878 20.6718 23.5449 20.8104C23.8211 21.1429 24.1118 21.4527 24.4208 21.7547C24.9052 22.2284 24.9052 22.2284 24.9335 22.5792C24.9298 22.7834 24.9189 22.8507 24.8053 23.0279C24.5834 23.1701 24.4232 23.1984 24.1602 23.203C23.8558 23.0564 23.6332 22.8316 23.3986 22.5939C23.3598 22.5551 23.321 22.5163 23.281 22.4762C23.1995 22.3945 23.1182 22.3127 23.037 22.2306C22.9124 22.1048 22.7873 21.9796 22.6621 21.8544C22.5829 21.7748 22.5037 21.6952 22.4245 21.6155C22.387 21.578 22.3496 21.5405 22.311 21.5018C22.0989 21.2871 21.9866 21.1712 21.9385 20.8703C22.0159 20.2703 22.7036 19.7953 23.1223 19.3785C23.2257 19.2754 23.3288 19.172 23.4318 19.0685C23.4977 19.0026 23.5636 18.9368 23.6296 18.871C23.7184 18.7823 23.7184 18.7823 23.8091 18.6917C24.0603 18.4558 24.3041 18.4392 24.6387 18.4862Z" fill="#05C7F2"/>
<path d="M29.2873 18.4864C29.5064 18.6268 29.5512 18.7314 29.6333 18.9777C29.6239 19.5523 29.1434 20.0824 28.8298 20.5446C28.787 20.6082 28.7441 20.6718 28.6999 20.7372C28.6099 20.8706 28.5198 21.0039 28.4295 21.1371C28.2917 21.3406 28.1542 21.5443 28.0169 21.7481C27.929 21.8782 27.8411 22.0082 27.7532 22.1383C27.6919 22.2292 27.6919 22.2292 27.6293 22.3219C27.1015 23.0998 27.1015 23.0998 26.8947 23.2032C26.6186 23.2058 26.3623 23.1976 26.1385 23.028C26.0447 22.7843 26.0299 22.5691 26.0744 22.3145C26.1872 22.0689 26.336 21.852 26.4888 21.6296C26.5315 21.5654 26.5742 21.5012 26.6182 21.435C26.7548 21.2303 26.8931 21.0269 27.0314 20.8234C27.1224 20.6874 27.2133 20.5514 27.304 20.4153C28.6529 18.3984 28.6529 18.3984 29.2873 18.4864Z" fill="#05C7F2"/>
<path d="M26.2545 33.6266C26.2994 33.6261 26.3444 33.6257 26.3907 33.6252C26.5388 33.624 26.6868 33.6248 26.835 33.6257C26.9382 33.6255 27.0413 33.6252 27.1445 33.6249C27.3606 33.6245 27.5766 33.6251 27.7927 33.6263C28.0695 33.6279 28.3462 33.627 28.623 33.6254C28.836 33.6244 29.0489 33.6247 29.2619 33.6254C29.364 33.6256 29.466 33.6254 29.5681 33.6247C29.7108 33.624 29.8534 33.6251 29.9961 33.6266C30.1178 33.6269 30.1178 33.6269 30.242 33.6273C30.4925 33.6692 30.5717 33.7347 30.7229 33.9354C30.7951 34.2001 30.8169 34.3499 30.7144 34.6062C30.5236 34.8288 30.3344 34.8844 30.0452 34.9103C29.9352 34.9108 29.9352 34.9108 29.8231 34.9112C29.7396 34.9119 29.6561 34.9125 29.57 34.9132C29.4804 34.9132 29.3907 34.9131 29.2983 34.913C29.2048 34.9133 29.1112 34.9136 29.0177 34.9139C28.8219 34.9144 28.6261 34.9144 28.4304 34.914C28.1802 34.9136 27.9301 34.9148 27.6799 34.9164C27.4868 34.9174 27.2937 34.9175 27.1006 34.9172C26.9637 34.9173 26.8269 34.9182 26.69 34.9192C26.6063 34.9188 26.5226 34.9184 26.4363 34.9179C26.3263 34.918 26.3263 34.918 26.2141 34.918C25.9291 34.883 25.6833 34.7937 25.4977 34.5678C25.4398 34.3362 25.4701 34.1657 25.5276 33.9354C25.7424 33.6491 25.905 33.6276 26.2545 33.6266Z" fill="#05C7F2"/>
<path d="M39.5992 30.7017C39.6665 30.7006 39.7338 30.6995 39.8032 30.6984C39.8758 30.698 39.9484 30.6977 40.0233 30.6973C40.1354 30.6964 40.1354 30.6964 40.2498 30.6954C40.4081 30.6944 40.5663 30.6938 40.7246 30.6936C40.9666 30.6927 41.2085 30.6894 41.4505 30.6859C41.6043 30.6853 41.758 30.6848 41.9117 30.6845C41.9841 30.6831 42.0564 30.6818 42.131 30.6804C42.6319 30.6835 42.6319 30.6835 42.9024 30.881C43.0673 31.1231 43.0736 31.2554 43.0273 31.543C42.9046 31.7312 42.8187 31.8524 42.6172 31.9531C42.5115 31.9606 42.4055 31.964 42.2996 31.9652C42.2337 31.9661 42.1677 31.967 42.0998 31.9679C42.0283 31.9684 41.9568 31.9689 41.8831 31.9694C41.8098 31.97 41.7364 31.9705 41.6609 31.9711C41.5054 31.972 41.35 31.9728 41.1945 31.9733C40.9569 31.9745 40.7193 31.9775 40.4816 31.9805C40.3307 31.9812 40.1798 31.9818 40.0289 31.9822C39.9578 31.9834 39.8867 31.9846 39.8135 31.9859C39.5091 31.9849 39.3207 31.9838 39.0534 31.8293C38.8752 31.6203 38.8574 31.4733 38.8574 31.2012C39.0184 30.8389 39.2068 30.7065 39.5992 30.7017Z" fill="#05C7F2"/>
<path d="M26.1476 42.3768C26.2509 42.3755 26.2509 42.3755 26.3563 42.3741C26.4303 42.3747 26.5043 42.3753 26.5805 42.3758C26.6569 42.3756 26.7332 42.3753 26.8119 42.375C26.9732 42.3748 27.1346 42.3753 27.2959 42.3765C27.5431 42.378 27.7901 42.3765 28.0372 42.3748C28.1939 42.3749 28.3507 42.3753 28.5074 42.3758C28.5814 42.3753 28.6554 42.3747 28.7316 42.3741C28.8005 42.375 28.8694 42.3759 28.9404 42.3768C29.0312 42.3771 29.0312 42.3771 29.1237 42.3774C29.3419 42.4238 29.4231 42.5133 29.5606 42.6856C29.6328 42.9502 29.6546 43.1 29.552 43.3564C29.3732 43.565 29.2109 43.6311 28.9354 43.6557C28.7535 43.6619 28.5722 43.6633 28.3902 43.6632C28.3234 43.6635 28.2565 43.6638 28.1877 43.6641C28.0466 43.6644 27.9056 43.6645 27.7645 43.6642C27.5492 43.664 27.334 43.6656 27.1187 43.6673C26.9814 43.6675 26.8441 43.6675 26.7068 43.6674C26.6427 43.6681 26.5786 43.6687 26.5126 43.6693C26.1553 43.6668 25.9047 43.6377 25.5957 43.4375C25.4472 43.2568 25.4591 43.162 25.4676 42.9248C25.5651 42.5346 25.7464 42.3782 26.1476 42.3768Z" fill="#05C7F2"/>
<path d="M39.7563 39.4544C39.8039 39.4543 39.8515 39.4541 39.9006 39.454C40.0012 39.4539 40.1018 39.4542 40.2024 39.4547C40.3561 39.4555 40.5096 39.4547 40.6633 39.4539C40.7611 39.4539 40.859 39.4541 40.9569 39.4544C41.0458 39.4545 41.1347 39.4547 41.2263 39.4549C41.4384 39.4713 41.5542 39.492 41.7283 39.6093C41.8857 39.8296 41.8975 40.0276 41.865 40.2929C41.742 40.4774 41.6542 40.6033 41.4549 40.703C41.1464 40.7207 40.8377 40.7215 40.5287 40.7232C40.3752 40.7244 40.2218 40.7274 40.0683 40.7304C39.9704 40.7311 39.8724 40.7317 39.7745 40.7321C39.6855 40.7331 39.5965 40.7341 39.5048 40.7351C39.2282 40.6977 39.1173 40.6294 38.9256 40.4296C38.847 40.1596 38.8277 40.0174 38.9427 39.7588C39.1875 39.4527 39.3825 39.455 39.7563 39.4544Z" fill="#05C7F2"/>
<path d="M40.8775 33.63C40.928 33.6295 40.9785 33.6289 41.0305 33.6284C41.1373 33.6277 41.244 33.6275 41.3508 33.6278C41.5137 33.6278 41.6763 33.625 41.8391 33.622C41.943 33.6216 42.0468 33.6214 42.1507 33.6214C42.1992 33.6203 42.2476 33.6192 42.2975 33.618C42.5617 33.6217 42.677 33.6555 42.8872 33.8205C43.0271 34.0038 43.0271 34.0038 43.0656 34.2431C43.0211 34.5196 42.956 34.633 42.7537 34.8241C42.3723 34.9595 41.9303 34.908 41.5317 34.9096C41.4451 34.911 41.3585 34.9124 41.2693 34.9139C41.1855 34.9142 41.1017 34.9146 41.0153 34.9149C40.939 34.9156 40.8627 34.9162 40.7841 34.9169C40.5321 34.8887 40.37 34.8222 40.156 34.6874C40.045 34.4377 39.9995 34.2879 40.0663 34.0209C40.279 33.6563 40.4666 33.6301 40.8775 33.63Z" fill="#05C7F2"/>
<path d="M23.1602 45.2661C23.2249 45.2647 23.2896 45.2633 23.3562 45.2618C23.9588 45.2584 23.9588 45.2584 24.2284 45.4882C24.3993 45.7446 24.4017 45.8682 24.3651 46.1718C24.2457 46.3556 24.2457 46.3556 24.0233 46.5136C23.7377 46.5648 23.4582 46.5613 23.1688 46.5564C23.0531 46.5583 23.0531 46.5583 22.9351 46.5604C22.375 46.557 22.375 46.557 22.0924 46.355C21.9337 46.1126 21.9268 45.9779 21.9725 45.6933C22.2761 45.2117 22.6428 45.2689 23.1602 45.2661Z" fill="#05C7F2"/>
<path d="M23.1602 36.5161C23.2249 36.5147 23.2896 36.5133 23.3562 36.5118C23.9588 36.5084 23.9588 36.5084 24.2284 36.7382C24.3993 36.9946 24.4017 37.1182 24.3651 37.4218C24.2457 37.6056 24.2457 37.6056 24.0233 37.7636C23.7377 37.8148 23.4582 37.8113 23.1688 37.8064C23.0531 37.8083 23.0531 37.8083 22.9351 37.8104C22.375 37.807 22.375 37.807 22.0924 37.605C21.9337 37.3626 21.9268 37.2279 21.9725 36.9433C22.2761 36.4617 22.6428 36.5189 23.1602 36.5161Z" fill="#05C7F2"/>
<path d="M23.1602 27.7661C23.2249 27.7647 23.2896 27.7633 23.3562 27.7618C23.9588 27.7584 23.9588 27.7584 24.2284 27.9882C24.3993 28.2446 24.4017 28.3682 24.3651 28.6718C24.2457 28.8556 24.2457 28.8556 24.0233 29.0136C23.7377 29.0648 23.4582 29.0613 23.1688 29.0564C23.0531 29.0583 23.0531 29.0583 22.9351 29.0604C22.375 29.057 22.375 29.057 22.0924 28.855C21.9337 28.6126 21.9268 28.4779 21.9725 28.1933C22.2761 27.7117 22.6428 27.7689 23.1602 27.7661Z" fill="#05C7F2"/>
<path d="M23.1688 42.3695C23.2459 42.3681 23.323 42.3668 23.4025 42.3655C23.9626 42.3688 23.9626 42.3688 24.2452 42.5708C24.4039 42.8132 24.4108 42.9479 24.3651 43.2325C24.1737 43.547 24.1737 43.547 23.964 43.6168C23.7016 43.6633 23.4389 43.6553 23.1731 43.6555C23.1152 43.6563 23.0574 43.6571 22.9978 43.658C22.6324 43.6589 22.3341 43.6517 22.0537 43.3906C21.9359 43.1612 21.9368 43.0083 21.9725 42.754C22.2684 42.3002 22.679 42.3611 23.1688 42.3695Z" fill="#05C7F2"/>
<path d="M23.1688 33.6195C23.2459 33.6181 23.323 33.6168 23.4025 33.6155C23.9626 33.6188 23.9626 33.6188 24.2452 33.8208C24.4039 34.0632 24.4108 34.1979 24.3651 34.4825C24.1737 34.797 24.1737 34.797 23.964 34.8668C23.7016 34.9133 23.4389 34.9053 23.1731 34.9055C23.1152 34.9063 23.0574 34.9071 22.9978 34.908C22.6324 34.9089 22.3341 34.9017 22.0537 34.6406C21.9359 34.4112 21.9368 34.2583 21.9725 34.004C22.2684 33.5502 22.679 33.6111 23.1688 33.6195Z" fill="#05C7F2"/>
<path d="M23.1688 24.8695C23.2459 24.8681 23.323 24.8668 23.4025 24.8655C23.9626 24.8688 23.9626 24.8688 24.2452 25.0708C24.4039 25.3132 24.4108 25.4479 24.3651 25.7325C24.1737 26.047 24.1737 26.047 23.964 26.1168C23.7016 26.1633 23.4389 26.1553 23.1731 26.1555C23.1152 26.1563 23.0574 26.1571 22.9978 26.158C22.6324 26.1589 22.3341 26.1517 22.0537 25.8906C21.9359 25.6612 21.9368 25.5083 21.9725 25.254C22.2684 24.8002 22.679 24.8611 23.1688 24.8695Z" fill="#05C7F2"/>
<path d="M23.139 39.4426C23.2135 39.443 23.2879 39.4434 23.3645 39.4438C23.9792 39.4533 23.9792 39.4533 24.2285 39.6092C24.3859 39.8295 24.3977 40.0276 24.3652 40.2928C24.2422 40.4774 24.1544 40.6033 23.9551 40.703C23.6977 40.7231 23.4398 40.722 23.1818 40.7243C23.0745 40.7273 23.0745 40.7273 22.9651 40.7304C22.4359 40.7347 22.4359 40.7347 22.1663 40.5735C22.0037 40.3867 21.9754 40.3166 21.947 40.0664C21.9727 39.8143 21.9727 39.8143 22.0936 39.6295C22.4285 39.3914 22.7387 39.4305 23.139 39.4426Z" fill="#05C7F2"/>
<path d="M23.139 30.6926C23.2135 30.693 23.2879 30.6934 23.3645 30.6938C23.9792 30.7033 23.9792 30.7033 24.2285 30.8592C24.3859 31.0795 24.3977 31.2776 24.3652 31.5428C24.2422 31.7274 24.1544 31.8533 23.9551 31.953C23.6977 31.9731 23.4398 31.972 23.1818 31.9743C23.0745 31.9773 23.0745 31.9773 22.9651 31.9804C22.4359 31.9847 22.4359 31.9847 22.1663 31.8235C22.0037 31.6367 21.9754 31.5666 21.947 31.3164C21.9727 31.0643 21.9727 31.0643 22.0936 30.8795C22.4285 30.6414 22.7387 30.6805 23.139 30.6926Z" fill="#05C7F2"/>
</g>
<defs>
<clipPath id="clip0_5570_6157">
<rect width="35" height="35" fill="white" transform="translate(15 15)"/>
</clipPath>
</defs>
</svg>
