<svg width="56" height="56" viewBox="0 0 56 56" fill="none" xmlns="http://www.w3.org/2000/svg">
<path d="M8.43411 4.45485C6.54098 4.98366 4.95455 6.58066 4.45747 8.48437C4.24595 9.26701 4.24595 46.7278 4.45747 47.5104C4.96513 49.4353 6.47752 50.9477 8.44469 51.5188C8.9735 51.6775 10.4859 51.688 23.7801 51.6457C31.8815 51.6246 38.6925 51.6034 38.8935 51.6034C39.9405 51.5823 40.1203 51.4977 42.5211 49.9007C43.822 49.044 45.3026 47.9758 45.8315 47.5422C48.5495 45.2471 50.5061 41.9791 51.3839 38.2034C51.5637 37.4314 51.6166 36.7756 51.6589 34.7767C51.7224 32.0481 51.6801 31.7519 51.1618 31.1914C50.7388 30.7472 50.5167 30.6415 48.9937 30.1655C47.3121 29.6473 45.9161 29.0868 44.1604 28.2407L42.7115 27.5426L42.6798 23.0372C42.648 18.6798 42.6375 18.5106 42.4048 17.9077C42.2779 17.5587 42.0135 17.0405 41.8337 16.7444C41.6433 16.4482 39.6761 14.3541 37.4657 12.0803C31.0988 5.55477 30.8767 5.34325 30.1681 4.97308C28.8144 4.27505 29.3855 4.30678 18.6507 4.31736C11.2051 4.32793 8.7937 4.35966 8.43411 4.45485ZM28 10.4727C28 14.7032 28.0212 14.8618 28.6663 16.0992C29.3644 17.4107 30.9402 18.5846 32.4209 18.8913C32.7593 18.9654 34.3986 19.0077 36.609 19.0077H40.2367L40.3107 19.3355C40.3424 19.5153 40.3741 21.1123 40.3741 22.8785V26.0831L40.0463 25.9668C39.8771 25.9033 39.454 25.8822 39.1156 25.9033C38.5762 25.9456 38.3224 26.0514 37.1378 26.7494C34.3563 28.3782 32.8016 29.0868 29.872 30.0598C26.8261 31.0751 26.7838 31.1385 26.8578 34.5758C26.9001 36.3209 26.9636 37.0823 27.1434 37.9707C28.0106 42.2541 30.6441 46.2413 34.2082 48.6632L35.2341 49.3613H22.31H9.39654L8.78312 49.1286C7.96876 48.8219 7.17555 48.0287 6.86884 47.2143L6.63616 46.6009V27.9974V9.39392L6.86884 8.78051C7.16497 7.97672 7.96876 7.17292 8.7514 6.86621C9.32251 6.64412 9.44942 6.64412 18.6718 6.64412L28 6.63354V10.4727ZM36.9898 15.0204L38.6291 16.6915L35.7629 16.6598L32.8968 16.628L32.167 16.2579C31.6488 15.9935 31.3315 15.7396 31.046 15.3589C30.3797 14.4916 30.3268 14.1532 30.3268 11.0121V8.23054L32.8333 10.79C34.2188 12.1966 36.0908 14.1003 36.9898 15.0204ZM40.9558 29.2454C43.1874 30.5357 45.6411 31.6039 48.1371 32.3865L49.3956 32.7884L49.3322 34.7556C49.2899 36.342 49.2264 36.9343 49.0149 37.8332C48.2746 40.9426 46.7622 43.4915 44.3614 45.6279C43.7797 46.1461 39.4329 49.1498 39.2637 49.1498C39.2213 49.1498 38.1849 48.4729 36.958 47.6479C35.0861 46.3894 34.5255 45.9557 33.5419 44.9722C31.3527 42.7829 30.0095 40.2975 29.4278 37.2939C29.3326 36.8074 29.2269 35.5911 29.1951 34.5969L29.1317 32.7778L29.7557 32.6086C32.3363 31.9 36.0696 30.2501 38.3647 28.8012C39.2319 28.2512 39.2742 28.2407 39.5281 28.4099C39.6761 28.4945 40.3213 28.8752 40.9558 29.2454Z" fill="white" fill-opacity="0.7"/>
<path d="M11.5858 13.4694C11.205 13.6704 11.0781 13.9242 11.0781 14.4636C11.0781 15.0135 11.2156 15.2674 11.6069 15.4683C11.8713 15.6058 12.6434 15.627 16.7998 15.627H21.6754L22.035 15.2674C22.3312 14.9712 22.3946 14.8232 22.3946 14.4636C22.3946 14.104 22.3312 13.9559 22.035 13.6598L21.6754 13.3002H16.7681C12.654 13.3108 11.829 13.3319 11.5858 13.4694Z" fill="white" fill-opacity="0.7"/>
<path d="M11.5858 20.238C11.205 20.4389 11.0781 20.6927 11.0781 21.2321C11.0781 21.7821 11.2156 22.0359 11.6069 22.2369C11.8713 22.3744 13.0136 22.3955 20.1842 22.3955H28.4442L28.8038 22.0359C29.0999 21.7398 29.1634 21.5917 29.1634 21.2321C29.1634 20.8725 29.0999 20.7245 28.8038 20.4283L28.4442 20.0687H20.1631C13.0559 20.0793 11.829 20.1005 11.5858 20.238Z" fill="white" fill-opacity="0.7"/>
<path d="M11.5858 27.0065C11.205 27.2075 11.0781 27.4613 11.0781 28.0007C11.0781 28.5506 11.2156 28.8045 11.6069 29.0054C11.8713 29.1429 13.1299 29.164 21.2312 29.164C31.2363 29.164 30.9931 29.1746 31.2786 28.6458C31.4161 28.3814 31.4161 27.6199 31.2786 27.3555C30.9931 26.8267 31.2469 26.8373 21.2101 26.8373C13.1722 26.8479 11.829 26.869 11.5858 27.0065Z" fill="white" fill-opacity="0.7"/>
<path d="M11.5858 33.7751C11.205 33.976 11.0781 34.2299 11.0781 34.7692C11.0781 35.3192 11.2156 35.573 11.6069 35.774C11.8713 35.9115 12.7597 35.9326 17.8469 35.9326C24.1926 35.9326 24.2243 35.9326 24.5099 35.4144C24.6474 35.15 24.6474 34.3885 24.5099 34.1241C24.2243 33.6059 24.1926 33.6059 17.8257 33.6059C12.7809 33.6164 11.829 33.6376 11.5858 33.7751Z" fill="white" fill-opacity="0.7"/>
<path d="M11.5858 40.5423C11.205 40.7432 11.0781 40.9971 11.0781 41.5365C11.0781 42.0864 11.2156 42.3402 11.6069 42.5412C12.0723 42.7844 23.6215 42.7844 24.0868 42.5412C24.4781 42.3402 24.6156 42.0864 24.6156 41.5365C24.6156 40.9865 24.4781 40.7327 24.0868 40.5317C23.632 40.299 12.0194 40.299 11.5858 40.5423Z" fill="white" fill-opacity="0.7"/>
<path d="M40.1412 36.7451L38.1529 38.7229L37.3174 37.8979C36.63 37.2105 36.429 37.073 36.0694 37.0201C35.2762 36.9143 34.7686 37.4114 34.7686 38.2892C34.7686 38.7123 34.8214 38.7758 36.1752 40.1295L37.5818 41.5361H38.1529H38.724L41.1883 39.0825C43.8218 36.4596 43.9804 36.2375 43.7583 35.5606C43.5891 35.0318 43.1978 34.7674 42.6161 34.7674H42.1296L40.1412 36.7451Z" fill="white" fill-opacity="0.7"/>
</svg>
