<svg width="65" height="65" viewBox="0 0 65 65" fill="none" xmlns="http://www.w3.org/2000/svg">
<g clip-path="url(#clip0_5371_19472)">
<path d="M29.9709 17.8028C30.1549 17.9178 30.2205 17.9967 30.2825 18.2038C30.3251 18.4367 30.3381 18.5679 30.2366 18.7881C30.0793 19.0036 29.8907 19.165 29.6889 19.3366C29.223 19.7465 28.9103 20.2067 28.6037 20.7422C28.6471 20.7404 28.6905 20.7386 28.7352 20.7368C28.9335 20.7296 29.1317 20.7252 29.33 20.7208C29.3983 20.718 29.4666 20.7151 29.537 20.7122C30.1077 20.7027 30.1077 20.7027 30.3583 20.8931C30.5726 21.1496 30.5732 21.2834 30.5541 21.605C30.4987 21.853 30.3781 21.9637 30.176 22.1094C29.9546 22.1832 29.7947 22.1856 29.5621 22.1844C29.4825 22.1842 29.403 22.184 29.3211 22.1838C29.238 22.1832 29.155 22.1826 29.0694 22.182C28.9855 22.1817 28.9017 22.1814 28.8153 22.1811C28.608 22.1803 28.4008 22.1791 28.1935 22.1778C28.171 22.6064 28.1484 23.035 28.1252 23.4766C28.3327 23.4706 28.3327 23.4706 28.5444 23.4646C28.6795 23.4622 28.8145 23.4598 28.9496 23.4578C29.043 23.4561 29.1363 23.4538 29.2297 23.4508C30.105 23.4236 30.105 23.4236 30.3733 23.6275C30.5688 23.8858 30.5727 24.0261 30.5541 24.3393C30.4987 24.5874 30.3781 24.6981 30.176 24.8438C29.9505 24.9189 29.7843 24.9199 29.5471 24.9188C29.4232 24.9185 29.4232 24.9185 29.2968 24.9181C29.1673 24.9173 29.1673 24.9173 29.0352 24.9164C28.9045 24.9159 28.9045 24.9159 28.7712 24.9155C28.5559 24.9147 28.3405 24.9134 28.1252 24.9121C28.1252 25.3407 28.1252 25.7694 28.1252 26.211C28.3327 26.205 28.3327 26.205 28.5444 26.1989C28.6795 26.1966 28.8145 26.1942 28.9496 26.1922C29.043 26.1905 29.1363 26.1881 29.2297 26.1852C30.105 26.158 30.105 26.158 30.3733 26.3618C30.5688 26.6202 30.5727 26.7604 30.5541 27.0737C30.4987 27.3217 30.3781 27.4324 30.176 27.5781C29.9505 27.6533 29.7843 27.6543 29.5471 27.6532C29.4645 27.653 29.3819 27.6527 29.2968 27.6525C29.2104 27.6519 29.1241 27.6514 29.0352 27.6508C28.9045 27.6503 28.9045 27.6503 28.7712 27.6498C28.5559 27.649 28.3405 27.6478 28.1252 27.6465C28.1252 28.0751 28.1252 28.5037 28.1252 28.9453C31.0127 28.9453 33.9002 28.9453 36.8752 28.9453C36.8752 28.5167 36.8752 28.0881 36.8752 27.6465C36.7467 27.6489 36.6182 27.6513 36.4858 27.6537C36.3165 27.6556 36.1473 27.6575 35.978 27.6593C35.8934 27.661 35.8088 27.6628 35.7216 27.6645C35.5987 27.6655 35.5987 27.6655 35.4733 27.6665C35.3605 27.6681 35.3605 27.6681 35.2455 27.6698C34.9945 27.6427 34.8337 27.573 34.6193 27.4414C34.4767 27.2275 34.4575 27.1513 34.4484 26.9031C34.4449 26.8455 34.4414 26.7878 34.4377 26.7285C34.4903 26.5226 34.5686 26.4049 34.7389 26.2762C35.1025 26.1219 35.5218 26.1772 35.9096 26.1896C36.0032 26.1913 36.0969 26.1929 36.1905 26.1943C36.4188 26.1983 36.647 26.2044 36.8752 26.211C36.8752 25.7823 36.8752 25.3537 36.8752 24.9121C36.7467 24.9145 36.6182 24.9169 36.4858 24.9193C36.3165 24.9213 36.1473 24.9231 35.978 24.9249C35.8934 24.9267 35.8088 24.9284 35.7216 24.9302C35.6397 24.9308 35.5577 24.9315 35.4733 24.9322C35.3981 24.9332 35.3229 24.9343 35.2455 24.9354C34.9945 24.9084 34.8337 24.8386 34.6193 24.707C34.4767 24.4931 34.4575 24.417 34.4484 24.1687C34.4449 24.1111 34.4414 24.0535 34.4377 23.9941C34.4903 23.7882 34.5686 23.6705 34.7389 23.5419C35.1025 23.3876 35.5218 23.4429 35.9096 23.4552C36.0032 23.4569 36.0969 23.4585 36.1905 23.4599C36.4188 23.4639 36.647 23.47 36.8752 23.4766C36.8526 23.048 36.8301 22.6194 36.8068 22.1778C36.6215 22.1813 36.6215 22.1813 36.4324 22.185C36.2696 22.1869 36.1067 22.1888 35.9438 22.1906C35.8624 22.1923 35.7811 22.194 35.6973 22.1958C34.9328 22.2022 34.9328 22.2022 34.6193 21.9727C34.4767 21.7588 34.4575 21.6826 34.4484 21.4343C34.4449 21.3767 34.4414 21.3191 34.4377 21.2597C34.4914 21.0495 34.5809 20.9381 34.7538 20.8075C35.0428 20.6717 35.3581 20.7077 35.6703 20.7208C35.7402 20.7224 35.8101 20.7239 35.8821 20.7255C36.0537 20.7295 36.2251 20.7351 36.3967 20.7422C36.0251 20.1138 35.6117 19.5429 35.0337 19.0888C34.7991 18.8941 34.7203 18.7276 34.6877 18.418C34.7665 18.1222 34.8322 17.9835 35.0807 17.8028C35.363 17.7159 35.4972 17.716 35.7814 17.8028C36.0056 17.9418 36.1999 18.106 36.3967 18.2813C36.4476 18.3258 36.4985 18.3703 36.551 18.4161C37.5063 19.3065 38.193 20.6645 38.2617 21.976C38.2719 22.2926 38.2709 22.6092 38.27 22.9259C38.2704 23.047 38.2708 23.168 38.2714 23.2891C38.2726 23.6153 38.2725 23.9416 38.2722 24.2679C38.2719 24.5413 38.2724 24.8148 38.2728 25.0883C38.2737 25.734 38.2736 26.3798 38.2729 27.0255C38.2721 27.6892 38.273 28.353 38.2749 29.0167C38.2764 29.5888 38.2768 30.161 38.2764 30.7332C38.2762 31.0739 38.2764 31.4146 38.2775 31.7553C38.2786 32.0759 38.2783 32.3965 38.277 32.7171C38.2768 32.834 38.277 32.9509 38.2777 33.0677C38.287 34.6953 37.7614 36.1267 36.633 37.3282C35.4205 38.4983 33.8752 39.0323 32.2067 39.0088C30.6216 38.9569 29.1728 38.1883 28.1011 37.0454C27.3116 36.0973 26.752 34.8822 26.7479 33.6346C26.7477 33.5843 26.7474 33.5339 26.7472 33.4821C26.7464 33.3138 26.7461 33.1454 26.7459 32.9771C26.7455 32.8563 26.745 32.7354 26.7445 32.6146C26.7431 32.2178 26.7424 31.821 26.7417 31.4242C26.7414 31.2872 26.7411 31.1503 26.7409 31.0133C26.7395 30.3694 26.7386 29.7255 26.738 29.0815C26.7373 28.3403 26.7355 27.599 26.7328 26.8578C26.7307 26.2836 26.7297 25.7095 26.7295 25.1354C26.7293 24.7931 26.7287 24.4508 26.727 24.1085C26.7254 23.7858 26.7251 23.4632 26.7258 23.1405C26.7258 23.0229 26.7254 22.9053 26.7245 22.7877C26.7172 21.8279 26.822 20.8975 27.2878 20.0372C27.3113 19.9923 27.3348 19.9473 27.3591 19.9009C27.8263 19.03 28.7991 17.4291 29.9709 17.8028ZM28.1252 30.3809C28.0067 33.3435 28.0067 33.3435 29.0822 35.918C29.1315 35.9885 29.1809 36.059 29.2317 36.1316C29.9737 36.9737 31.1169 37.4991 32.2262 37.585C33.3987 37.6367 34.5244 37.2353 35.4185 36.4771C36.3727 35.5763 36.7584 34.4682 36.8752 33.1836C36.8752 32.2587 36.8752 31.3338 36.8752 30.3809C33.9877 30.3809 31.1002 30.3809 28.1252 30.3809Z" fill="#05C7F2"/>
<path d="M25.1171 32.5684C25.405 32.8347 25.4581 33.0965 25.4858 33.4733C25.6568 35.5764 26.4701 37.3131 28.0693 38.6994C29.5168 39.8371 31.3496 40.3901 33.1835 40.2246C34.7325 40.0364 36.1221 39.4232 37.285 38.3789C37.3325 38.3371 37.38 38.2952 37.429 38.2521C38.6917 37.07 39.4087 35.3522 39.5024 33.645C39.5307 33.207 39.5585 32.8816 39.8912 32.5684C40.1665 32.4726 40.4276 32.4659 40.703 32.5684C40.9183 32.7597 40.9931 32.9138 41.0128 33.1946C41.0139 33.3063 41.0131 33.418 41.0106 33.5297C41.0098 33.5896 41.009 33.6496 41.0081 33.7113C40.9446 35.8709 39.9723 37.7185 38.5155 39.2676C38.4604 39.3293 38.4604 39.3293 38.4042 39.3923C37.6641 40.188 36.6223 40.7781 35.623 41.1731C35.5716 41.1935 35.5201 41.2139 35.467 41.235C35.4173 41.2539 35.3675 41.2727 35.3162 41.2922C35.2724 41.3088 35.2286 41.3255 35.1834 41.3426C34.9775 41.4015 34.7627 41.4248 34.5507 41.4551C34.5507 42.2221 34.5507 42.9891 34.5507 43.7793C34.7086 43.7793 34.8665 43.7793 35.0292 43.7793C35.6101 43.9008 36.1184 44.1206 36.6014 44.4629C36.6483 44.4956 36.6952 44.5283 36.7435 44.562C37.4197 45.0904 37.8899 45.95 38.037 46.7871C38.13 47.6967 38.13 47.6967 37.8905 47.9948C37.6584 48.1844 37.5576 48.1972 37.2619 48.1977C37.1308 48.1992 37.1308 48.1992 36.9971 48.2006C36.9007 48.2 36.8043 48.1993 36.708 48.1985C36.6061 48.199 36.5043 48.1996 36.4024 48.2003C36.1261 48.2019 35.8499 48.2013 35.5736 48.2002C35.2844 48.1994 34.9952 48.2002 34.7059 48.2007C34.2202 48.2013 33.7345 48.2005 33.2488 48.1989C32.6874 48.197 32.1261 48.1976 31.5647 48.1995C31.0825 48.201 30.6004 48.2013 30.1182 48.2004C29.8303 48.1998 29.5425 48.1998 29.2546 48.2009C28.9839 48.2019 28.7132 48.2012 28.4426 48.1992C28.3433 48.1988 28.244 48.1989 28.1447 48.1997C28.0091 48.2006 27.8734 48.1992 27.7378 48.1977C27.662 48.1976 27.5861 48.1975 27.5079 48.1973C27.2372 48.1401 27.1338 48.0254 26.9628 47.8125C26.8099 47.0074 27.0455 46.1827 27.4669 45.4968C27.5478 45.3789 27.6303 45.2619 27.7147 45.1465C27.7471 45.1016 27.7794 45.0566 27.8127 45.0103C28.3194 44.3644 29.1591 43.8947 29.9706 43.7793C30.1285 43.7793 30.2864 43.7793 30.4491 43.7793C30.4491 43.0123 30.4491 42.2453 30.4491 41.4551C30.2235 41.41 29.9979 41.3649 29.7655 41.3184C29.5749 41.255 29.3944 41.1906 29.2101 41.1133C29.1609 41.0928 29.1116 41.0722 29.0609 41.051C28.2129 40.683 27.4424 40.1599 26.7577 39.541C26.6911 39.4808 26.6245 39.4207 26.5558 39.3586C25.1044 38.0008 24.0982 35.9678 24.0017 33.9748C23.9982 33.845 23.9954 33.7151 23.9934 33.5852C23.9919 33.5236 23.9903 33.462 23.9888 33.3985C23.9898 33.1119 23.9986 32.9513 24.1491 32.7014C24.439 32.4403 24.7585 32.473 25.1171 32.5684ZM31.8163 41.7285C31.8163 42.4053 31.8163 43.082 31.8163 43.7793C32.2675 43.7793 32.7186 43.7793 33.1835 43.7793C33.1835 43.1026 33.1835 42.4258 33.1835 41.7285C32.7323 41.7285 32.2811 41.7285 31.8163 41.7285ZM29.0136 45.8301C28.7811 46.1384 28.6107 46.427 28.4667 46.7871C31.1286 46.7871 33.7905 46.7871 36.5331 46.7871C36.2546 46.1864 36.2546 46.1864 35.8495 45.7617C35.7987 45.7152 35.748 45.6687 35.6957 45.6207C35.016 45.1419 34.3155 45.1358 33.5111 45.135C33.4317 45.1348 33.3524 45.1346 33.2706 45.1343C33.1032 45.134 32.9359 45.1338 32.7685 45.1338C32.5142 45.1337 32.26 45.1324 32.0057 45.1311C31.8425 45.1309 31.6792 45.1308 31.5159 45.1307C31.4407 45.1302 31.3656 45.1298 31.2882 45.1293C30.4546 45.1317 29.6361 45.2239 29.0136 45.8301Z" fill="#05C7F2"/>
<path d="M46.7315 18.5862C46.9241 18.8559 46.8937 19.1154 46.8911 19.4391C46.8916 19.5089 46.8921 19.5787 46.8927 19.6506C46.8941 19.8851 46.8935 20.1196 46.893 20.3542C46.8936 20.522 46.8943 20.6899 46.8951 20.8578C46.8968 21.2668 46.8971 21.6758 46.8968 22.0849C46.8965 22.4173 46.8968 22.7497 46.8974 23.0822C46.8975 23.1531 46.8975 23.1531 46.8976 23.2255C46.8978 23.3215 46.8979 23.4176 46.8981 23.5137C46.8996 24.4149 46.8993 25.3161 46.8985 26.2173C46.8978 27.0419 46.8993 27.8665 46.9019 28.6912C46.9046 29.5377 46.9057 30.3843 46.9052 31.2308C46.9049 31.7062 46.9052 32.1815 46.9072 32.6569C46.909 33.1038 46.9086 33.5507 46.9068 33.9976C46.9065 34.1618 46.9069 34.326 46.908 34.4902C46.9095 34.714 46.9084 34.9377 46.9066 35.1616C46.9076 35.2269 46.9086 35.2922 46.9097 35.3595C46.9026 35.7882 46.9026 35.7882 46.7658 35.9662C46.5829 36.1239 46.4172 36.2392 46.1719 36.2341C46.1296 36.235 46.0873 36.2359 46.0437 36.2368C45.8085 36.1633 45.6369 36.0429 45.4883 35.8496C45.4274 35.6208 45.4332 35.3977 45.4366 35.162C45.4361 35.0922 45.4355 35.0223 45.4349 34.9504C45.4334 34.716 45.4348 34.4818 45.4363 34.2474C45.4358 34.0796 45.4352 33.9117 45.4344 33.7438C45.433 33.335 45.4335 32.9263 45.4349 32.5175C45.4361 32.1852 45.4363 31.853 45.436 31.5207C45.436 31.4735 45.436 31.4262 45.4359 31.3775C45.4358 31.2814 45.4357 31.1853 45.4356 31.0893C45.4348 30.1885 45.4365 29.2878 45.439 28.387C45.4411 27.6141 45.4413 26.8412 45.44 26.0683C45.4384 25.1708 45.438 24.2733 45.4394 23.3758C45.4396 23.2801 45.4397 23.1843 45.4399 23.0886C45.4399 23.0416 45.44 22.9945 45.4401 22.9459C45.4405 22.6141 45.4402 22.2823 45.4396 21.9504C45.4388 21.5038 45.4398 21.0572 45.4421 20.6106C45.4427 20.4465 45.4426 20.2824 45.442 20.1182C45.4412 19.8946 45.4425 19.671 45.4444 19.4474C45.4437 19.3821 45.443 19.3168 45.4422 19.2496C45.4471 18.9358 45.4538 18.8034 45.6539 18.5499C46.0234 18.2732 46.3432 18.3268 46.7315 18.5862Z" fill="#05C7F2"/>
<path d="M19.3877 18.5862C19.5804 18.8559 19.5499 19.1154 19.5473 19.4391C19.5479 19.5089 19.5484 19.5787 19.5489 19.6506C19.5503 19.8851 19.5498 20.1196 19.5493 20.3542C19.5499 20.522 19.5506 20.6899 19.5514 20.8578C19.553 21.2668 19.5534 21.6758 19.553 22.0849C19.5528 22.4173 19.553 22.7497 19.5536 23.0822C19.5537 23.1531 19.5537 23.1531 19.5539 23.2255C19.554 23.3215 19.5542 23.4176 19.5544 23.5137C19.5559 24.4149 19.5556 25.3161 19.5547 26.2173C19.554 27.0419 19.5556 27.8665 19.5582 28.6912C19.5608 29.5377 19.5619 30.3843 19.5614 31.2308C19.5612 31.7062 19.5615 32.1815 19.5634 32.6569C19.5652 33.1038 19.5649 33.5507 19.5631 33.9976C19.5628 34.1618 19.5632 34.326 19.5643 34.4902C19.5657 34.714 19.5646 34.9377 19.5629 35.1616C19.5639 35.2269 19.5649 35.2922 19.5659 35.3595C19.5589 35.7882 19.5589 35.7882 19.4221 35.9662C19.2391 36.1239 19.0735 36.2392 18.8281 36.2341C18.7858 36.235 18.7435 36.2359 18.6999 36.2368C18.4648 36.1633 18.2931 36.0429 18.1445 35.8496C18.0837 35.6208 18.0894 35.3977 18.0929 35.162C18.0923 35.0922 18.0917 35.0223 18.0911 34.9504C18.0896 34.716 18.0911 34.4818 18.0925 34.2474C18.0921 34.0796 18.0915 33.9117 18.0907 33.7438C18.0893 33.335 18.0898 32.9263 18.0912 32.5175C18.0923 32.1852 18.0926 31.853 18.0923 31.5207C18.0923 31.4735 18.0922 31.4262 18.0922 31.3775C18.0921 31.2814 18.092 31.1853 18.0919 31.0893C18.0911 30.1885 18.0927 29.2878 18.0952 28.387C18.0973 27.6141 18.0975 26.8412 18.0962 26.0683C18.0947 25.1708 18.0943 24.2733 18.0957 23.3758C18.0958 23.2801 18.096 23.1843 18.0961 23.0886C18.0962 23.0416 18.0963 22.9945 18.0963 22.9459C18.0968 22.6141 18.0965 22.2823 18.0958 21.9504C18.095 21.5038 18.0961 21.0572 18.0984 20.6106C18.0989 20.4465 18.0989 20.2824 18.0983 20.1182C18.0975 19.8946 18.0988 19.671 18.1007 19.4474C18.0999 19.3821 18.0992 19.3168 18.0985 19.2496C18.1034 18.9358 18.1101 18.8034 18.3101 18.5499C18.6796 18.2732 18.9995 18.3268 19.3877 18.5862Z" fill="#05C7F2"/>
<path d="M49.6578 22.1777C49.835 22.2912 49.9024 22.34 49.9996 22.5195C50.0519 22.823 50.0463 23.1242 50.0439 23.4314C50.0443 23.5252 50.0449 23.619 50.0457 23.7128C50.0472 23.967 50.0466 24.2212 50.0455 24.4755C50.0447 24.7417 50.0455 25.0079 50.046 25.2742C50.0466 25.7213 50.0458 26.1683 50.0442 26.6154C50.0423 27.1321 50.0429 27.6487 50.0448 28.1654C50.0464 28.6092 50.0466 29.053 50.0457 29.4969C50.0452 29.7618 50.0451 30.0268 50.0462 30.2918C50.0472 30.5409 50.0465 30.79 50.0445 31.0391C50.0439 31.174 50.0449 31.3089 50.046 31.4438C50.0381 32.1029 50.0381 32.1029 49.8367 32.3149C49.6439 32.4408 49.5444 32.4779 49.316 32.4744C49.2596 32.4753 49.2032 32.4761 49.1451 32.477C48.9581 32.4274 48.8392 32.361 48.7055 32.2202C48.533 31.9122 48.5855 31.5206 48.5882 31.1779C48.5878 31.0842 48.5871 30.9904 48.5864 30.8966C48.5848 30.6424 48.5854 30.3882 48.5865 30.1339C48.5874 29.8677 48.5866 29.6014 48.5861 29.3352C48.5854 28.8881 48.5863 28.441 48.5879 27.994C48.5897 27.4773 48.5891 26.9607 48.5873 26.444C48.5857 26.0002 48.5855 25.5564 48.5864 25.1125C48.5869 24.8475 48.587 24.5826 48.5859 24.3176C48.5849 24.0685 48.5856 23.8194 48.5875 23.5702C48.5882 23.4354 48.5872 23.3005 48.5861 23.1656C48.594 22.5065 48.594 22.5065 48.7933 22.2959C49.1042 22.0928 49.3002 22.0914 49.6578 22.1777Z" fill="#05C7F2"/>
<path d="M43.3688 22.1777C43.5459 22.2912 43.6133 22.34 43.7106 22.5195C43.7628 22.823 43.7572 23.1242 43.7548 23.4314C43.7553 23.5252 43.7559 23.619 43.7566 23.7128C43.7582 23.967 43.7576 24.2212 43.7565 24.4755C43.7556 24.7417 43.7564 25.0079 43.757 25.2742C43.7576 25.7213 43.7568 26.1683 43.7551 26.6154C43.7533 27.1321 43.7539 27.6487 43.7558 28.1654C43.7573 28.6092 43.7575 29.053 43.7566 29.4969C43.7561 29.7618 43.756 30.0268 43.7572 30.2918C43.7581 30.5409 43.7575 30.79 43.7555 31.0391C43.7548 31.174 43.7558 31.3089 43.7569 31.4438C43.749 32.1029 43.749 32.1029 43.5476 32.3149C43.3548 32.4408 43.2554 32.4779 43.027 32.4744C42.9706 32.4753 42.9142 32.4761 42.8561 32.477C42.6691 32.4274 42.5501 32.361 42.4164 32.2202C42.2439 31.9122 42.2965 31.5206 42.2992 31.1779C42.2987 31.0842 42.2981 30.9904 42.2973 30.8966C42.2958 30.6424 42.2964 30.3882 42.2975 30.1339C42.2983 29.8677 42.2975 29.6014 42.297 29.3352C42.2964 28.8881 42.2972 28.441 42.2988 27.994C42.3007 27.4773 42.3001 26.9607 42.2982 26.444C42.2966 26.0002 42.2964 25.5564 42.2973 25.1125C42.2979 24.8475 42.2979 24.5826 42.2968 24.3176C42.2958 24.0685 42.2965 23.8194 42.2985 23.5702C42.2991 23.4354 42.2981 23.3005 42.2971 23.1656C42.3049 22.5065 42.3049 22.5065 42.5042 22.2959C42.8152 22.0928 43.0111 22.0914 43.3688 22.1777Z" fill="#05C7F2"/>
<path d="M22.3141 22.1777C22.4913 22.2912 22.5586 22.34 22.6559 22.5195C22.7081 22.823 22.7025 23.1242 22.7001 23.4314C22.7006 23.5252 22.7012 23.619 22.7019 23.7128C22.7035 23.967 22.7029 24.2212 22.7018 24.4755C22.7009 24.7417 22.7017 25.0079 22.7023 25.2742C22.7029 25.7213 22.7021 26.1683 22.7004 26.6154C22.6986 27.1321 22.6992 27.6487 22.7011 28.1654C22.7026 28.6092 22.7028 29.053 22.7019 29.4969C22.7014 29.7618 22.7013 30.0268 22.7025 30.2918C22.7035 30.5409 22.7028 30.79 22.7008 31.0391C22.7001 31.174 22.7011 31.3089 22.7022 31.4438C22.6943 32.1029 22.6943 32.1029 22.4929 32.3149C22.3001 32.4408 22.2007 32.4779 21.9723 32.4744C21.9159 32.4753 21.8595 32.4761 21.8014 32.477C21.6144 32.4274 21.4955 32.361 21.3617 32.2202C21.1892 31.9122 21.2418 31.5206 21.2445 31.1779C21.244 31.0842 21.2434 30.9904 21.2427 30.8966C21.2411 30.6424 21.2417 30.3882 21.2428 30.1339C21.2436 29.8677 21.2428 29.6014 21.2423 29.3352C21.2417 28.8881 21.2425 28.441 21.2441 27.994C21.246 27.4773 21.2454 26.9607 21.2435 26.444C21.242 26.0002 21.2417 25.5564 21.2426 25.1125C21.2432 24.8475 21.2432 24.5826 21.2421 24.3176C21.2411 24.0685 21.2418 23.8194 21.2438 23.5702C21.2444 23.4354 21.2434 23.3005 21.2424 23.1656C21.2503 22.5065 21.2503 22.5065 21.4495 22.2959C21.7605 22.0928 21.9564 22.0914 22.3141 22.1777Z" fill="#05C7F2"/>
<path d="M16.025 22.1777C16.2022 22.2912 16.2696 22.34 16.3668 22.5195C16.4191 22.823 16.4135 23.1242 16.411 23.4314C16.4115 23.5252 16.4121 23.619 16.4129 23.7128C16.4144 23.967 16.4138 24.2212 16.4127 24.4755C16.4119 24.7417 16.4127 25.0079 16.4132 25.2742C16.4138 25.7213 16.413 26.1683 16.4114 26.6154C16.4095 27.1321 16.4101 27.6487 16.412 28.1654C16.4136 28.6092 16.4138 29.053 16.4129 29.4969C16.4123 29.7618 16.4123 30.0268 16.4134 30.2918C16.4144 30.5409 16.4137 30.79 16.4117 31.0391C16.4111 31.174 16.4121 31.3089 16.4131 31.4438C16.4053 32.1029 16.4053 32.1029 16.2038 32.3149C16.011 32.4408 15.9116 32.4779 15.6832 32.4744C15.6268 32.4753 15.5704 32.4761 15.5123 32.477C15.3253 32.4274 15.2064 32.361 15.0727 32.2202C14.9001 31.9122 14.9527 31.5206 14.9554 31.1779C14.9549 31.0842 14.9543 30.9904 14.9536 30.8966C14.952 30.6424 14.9526 30.3882 14.9537 30.1339C14.9546 29.8677 14.9538 29.6014 14.9532 29.3352C14.9526 28.8881 14.9534 28.441 14.9551 27.994C14.9569 27.4773 14.9563 26.9607 14.9544 26.444C14.9529 26.0002 14.9527 25.5564 14.9536 25.1125C14.9541 24.8475 14.9542 24.5826 14.953 24.3176C14.9521 24.0685 14.9527 23.8194 14.9547 23.5702C14.9554 23.4354 14.9544 23.3005 14.9533 23.1656C14.9612 22.5065 14.9612 22.5065 15.1605 22.2959C15.4714 22.0928 15.6674 22.0914 16.025 22.1777Z" fill="#05C7F2"/>
<path d="M32.8417 33.252C33.0596 33.3957 33.1628 33.498 33.2188 33.7564C33.2344 33.9945 33.237 34.1899 33.1101 34.3975C32.9266 34.5735 32.7425 34.6422 32.4956 34.6576C32.2018 34.6156 32.0889 34.5561 31.8847 34.3457C31.7659 34.1082 31.7756 33.8529 31.8163 33.5938C32.1184 33.2018 32.3668 33.1374 32.8417 33.252Z" fill="#05C7F2"/>
<path d="M32.8421 16.8458C33.0973 17.0177 33.1666 17.1284 33.2522 17.4226C33.2522 17.7024 33.1989 17.8432 33.0471 18.0763C32.7571 18.2696 32.4987 18.2736 32.1585 18.213C31.9646 18.0963 31.9296 18.0137 31.8167 17.8028C31.742 17.4892 31.793 17.3001 31.9449 17.0167C32.1928 16.7581 32.51 16.7738 32.8421 16.8458Z" fill="#05C7F2"/>
</g>
<defs>
<clipPath id="clip0_5371_19472">
<rect width="35" height="35" fill="white" transform="translate(15 15)"/>
</clipPath>
</defs>
</svg>
