<svg width="65" height="65" viewBox="0 0 65 65" fill="none" xmlns="http://www.w3.org/2000/svg">
<g clip-path="url(#clip0_5371_19393)">
<path d="M31.0004 20.7056C32.2175 21.7412 32.9296 23.1957 33.1153 24.7754C33.2052 26.3638 32.8281 27.9747 31.7544 29.1946C31.3077 29.684 30.832 30.202 30.2442 30.5175C30.199 30.5175 30.1539 30.5175 30.1074 30.5175C30.1074 30.5627 30.1074 30.6078 30.1074 30.6543C30.1487 30.6609 30.1899 30.6675 30.2323 30.6743C30.6809 30.7539 31.0759 30.8891 31.4917 31.073C31.5856 31.114 31.5856 31.114 31.6813 31.1559C32.8155 31.6607 33.8296 32.3219 34.7335 33.1715C34.8574 33.2874 34.9816 33.395 35.1148 33.4997C36.6189 34.7987 37.9463 37.1553 38.1739 39.1308C38.4897 39.1308 38.8055 39.1308 39.1309 39.1308C39.1556 39.0229 39.1804 38.9149 39.2059 38.8037C39.3458 38.2451 39.5298 37.7022 39.7161 37.1576C39.7764 36.9807 39.8356 36.8035 39.8947 36.6262C39.9333 36.5127 39.972 36.3991 40.0107 36.2856C40.0281 36.2331 40.0455 36.1807 40.0634 36.1266C40.1904 35.7605 40.3233 35.4584 40.6861 35.2771C41.0367 35.2096 41.3181 35.2132 41.6221 35.4118C41.8302 35.6075 41.9097 35.7996 41.9982 36.0637C42.0152 36.1115 42.0321 36.1593 42.0496 36.2085C42.1034 36.3619 42.1554 36.5158 42.2071 36.6699C42.2241 36.7203 42.2412 36.7707 42.2587 36.8226C42.3614 37.1269 42.4612 37.4321 42.5593 37.7379C42.6097 37.8951 42.6607 38.0522 42.7117 38.2093C42.7442 38.3098 42.7766 38.4103 42.8089 38.5108C42.8241 38.5575 42.8393 38.6042 42.8549 38.6523C42.959 38.9783 42.959 38.9783 42.959 39.1308C43.0043 39.1302 43.0497 39.1296 43.0964 39.129C43.5688 39.1229 44.0412 39.1188 44.5136 39.1158C44.6899 39.1144 44.8661 39.1126 45.0423 39.1102C45.2959 39.1069 45.5493 39.1053 45.8029 39.1041C45.8815 39.1027 45.9601 39.1013 46.0411 39.0998C46.471 39.0997 46.7358 39.1114 47.0606 39.4043C47.2759 39.6555 47.291 39.8805 47.2996 40.1987C47.1957 40.6966 46.793 40.9443 46.4026 41.2201C46.3459 41.261 46.2891 41.3019 46.2306 41.344C46.1119 41.4295 45.993 41.5147 45.8738 41.5997C45.6958 41.7268 45.5185 41.8549 45.3414 41.9835C45.13 42.137 44.9184 42.2903 44.7064 42.443C44.6642 42.4735 44.622 42.5039 44.5785 42.5352C44.473 42.61 44.3655 42.6821 44.2578 42.7539C44.3424 43.1676 44.4505 43.5655 44.5849 43.9656C44.6216 44.0767 44.6582 44.1878 44.6948 44.2989C44.752 44.4711 44.8093 44.6433 44.8667 44.8155C44.9227 44.9835 44.9781 45.1518 45.0336 45.32C45.0507 45.3709 45.0679 45.4219 45.0856 45.4743C45.2369 45.9349 45.3505 46.3414 45.1508 46.8007C45.0227 47.0178 44.8977 47.097 44.668 47.1972C44.3731 47.2544 44.1061 47.262 43.8359 47.1182C43.7882 47.0844 43.7406 47.0507 43.6915 47.0159C43.6383 46.9787 43.5851 46.9415 43.5303 46.9032C43.4771 46.8649 43.424 46.8265 43.3692 46.7871C43.3203 46.7525 43.2713 46.7179 43.2209 46.6822C43.0732 46.5771 42.9263 46.4707 42.7796 46.3641C42.7269 46.3262 42.6743 46.2884 42.6201 46.2494C42.3576 46.06 42.098 45.8682 41.8431 45.6688C41.797 45.6333 41.7509 45.5978 41.7035 45.5612C41.6167 45.4941 41.5306 45.4259 41.4455 45.3567C41.3168 45.2535 41.3168 45.2535 41.1133 45.1464C40.7667 45.1932 40.4518 45.5075 40.1776 45.7147C40.0621 45.8009 39.9466 45.8871 39.831 45.9732C39.7721 46.0172 39.7131 46.0613 39.6523 46.1067C39.3649 46.3203 39.0751 46.5304 38.7848 46.7401C38.7324 46.7781 38.6799 46.8162 38.6259 46.8554C38.5774 46.8904 38.529 46.9254 38.4791 46.9614C38.4365 46.9922 38.3939 47.023 38.3501 47.0547C38.0611 47.2533 37.762 47.2338 37.4219 47.1972C37.1397 47.069 37.0377 46.9673 36.8793 46.7016C36.7325 46.1834 36.9242 45.7024 37.091 45.2092C37.1228 45.1132 37.1228 45.1132 37.1551 45.0153C37.2222 44.8125 37.29 44.6099 37.3578 44.4073C37.4258 44.2035 37.4937 43.9996 37.5612 43.7957C37.6031 43.6691 37.6453 43.5427 37.6879 43.4163C37.7068 43.3592 37.7258 43.3022 37.7453 43.2434C37.7621 43.1933 37.7789 43.1432 37.7962 43.0915C37.841 42.9488 37.841 42.9488 37.8321 42.7539C37.7006 42.6444 37.572 42.5498 37.4304 42.4548C37.3434 42.3946 37.2565 42.3343 37.1696 42.274C37.1225 42.2416 37.0754 42.2092 37.0269 42.1758C36.7501 41.9834 36.4774 41.7852 36.2042 41.5875C36.1499 41.5484 36.0956 41.5093 36.0397 41.469C35.964 41.4144 35.964 41.4144 35.8867 41.3586C35.8416 41.3261 35.7965 41.2936 35.7501 41.2601C35.6446 41.1816 35.6446 41.1816 35.5762 41.1132C35.4794 41.1073 35.3824 41.1059 35.2854 41.1066C35.1978 41.1069 35.1978 41.1069 35.1085 41.1072C35.0471 41.1078 34.9857 41.1084 34.9225 41.109C34.8609 41.1093 34.7992 41.1096 34.7357 41.1099C34.5829 41.1107 34.4302 41.1118 34.2774 41.1132C34.2999 41.1584 34.3225 41.2035 34.3457 41.25C34.3634 41.5487 34.3643 41.8477 34.3659 42.1469C34.3671 42.2955 34.3701 42.4439 34.3731 42.5924C34.3738 42.6873 34.3744 42.7821 34.3748 42.877C34.3763 43.0061 34.3763 43.0061 34.3779 43.1379C34.34 43.4102 34.2651 43.5188 34.0723 43.7109C33.8709 43.819 33.8709 43.819 33.6536 43.9032C33.5455 43.9461 33.5455 43.9461 33.4352 43.9899C33.252 44.0527 33.252 44.0527 33.1153 44.0527C33.1028 44.0965 33.0904 44.1403 33.0776 44.1854C32.9967 44.4638 32.9178 44.7316 32.7906 44.9926C32.6911 45.2512 32.6966 45.3615 32.7735 45.625C32.8087 45.7011 32.844 45.7772 32.8803 45.8557C32.9901 46.1327 33.053 46.3598 32.9785 46.6504C32.8505 46.8632 32.6769 47.0243 32.5 47.1972C32.4199 47.2787 32.3399 47.3604 32.26 47.4421C32.0903 47.6146 31.9203 47.7867 31.7489 47.9575C31.7125 47.9937 31.6762 48.03 31.6388 48.0673C31.488 48.2042 31.4033 48.2229 31.1969 48.244C30.9462 48.2241 30.8375 48.1894 30.6201 48.0816C30.3206 47.9409 30.1615 47.9248 29.834 48.0175C29.5997 48.1036 29.3675 48.193 29.1363 48.287C28.9453 48.3593 28.9453 48.3593 28.8086 48.3593C28.7962 48.4047 28.7838 48.4501 28.771 48.4969C28.6589 48.8907 28.5576 49.2256 28.2617 49.5214C28.0836 49.5368 27.9129 49.5439 27.7346 49.5444C27.6824 49.5449 27.6301 49.5453 27.5763 49.5458C27.4656 49.5465 27.3549 49.5468 27.2442 49.5468C27.0751 49.5471 26.9061 49.5496 26.737 49.5522C26.6295 49.5526 26.522 49.5528 26.4144 49.553C26.3639 49.5539 26.3134 49.5549 26.2614 49.5559C26.0244 49.5538 25.8943 49.5407 25.7038 49.3944C25.5775 49.2233 25.5102 49.0647 25.4419 48.8635C25.419 48.7977 25.3961 48.732 25.3725 48.6643C25.3223 48.4961 25.3223 48.4961 25.3223 48.3593C25.2785 48.3469 25.2347 48.3345 25.1896 48.3217C24.9122 48.2411 24.6459 48.1631 24.3866 48.0346C24.0285 47.8995 23.7848 47.9715 23.4424 48.1244C23.1665 48.2376 23.0193 48.2743 22.7246 48.2226C22.515 48.0917 22.3512 47.9189 22.1778 47.7441C22.0961 47.664 22.0144 47.584 21.9326 47.504C21.7603 47.3343 21.5882 47.1644 21.4175 46.993C21.3813 46.9566 21.345 46.9203 21.3077 46.8829C21.134 46.6915 21.1306 46.5128 21.1315 46.2597C21.1623 46.0291 21.2611 45.8458 21.3727 45.6437C21.4936 45.29 21.3155 44.946 21.1823 44.6167C21.0156 44.2032 21.0156 44.2032 21.0156 44.0527C20.9711 44.0411 20.9265 44.0294 20.8805 44.0174C20.4225 43.8904 20.0589 43.7797 19.7852 43.3691C19.7686 43.1535 19.7686 43.1535 19.7694 42.8903C19.7695 42.8439 19.7695 42.7975 19.7695 42.7496C19.7697 42.6517 19.7703 42.5537 19.7711 42.4557C19.7724 42.3056 19.7725 42.1554 19.7725 42.0053C19.7751 41.2701 19.7751 41.2701 19.8535 41.1132C19.8089 41.1128 19.7643 41.1124 19.7183 41.112C19.2536 41.1077 18.789 41.1019 18.3244 41.0953C18.151 41.093 17.9776 41.0911 17.8042 41.0896C17.5549 41.0873 17.3057 41.0837 17.0564 41.0799C16.9789 41.0794 16.9014 41.079 16.8216 41.0785C16.7128 41.0765 16.7128 41.0765 16.6019 41.0744C16.5383 41.0737 16.4747 41.0729 16.4091 41.0721C16.193 41.0392 16.0649 40.9678 15.8887 40.8398C15.5844 40.3833 15.801 39.7296 15.9004 39.2221C16.2953 37.2993 17.2076 35.5529 18.4864 34.0722C18.5328 34.0174 18.5792 33.9626 18.6271 33.9061C18.9218 33.5648 19.2313 33.2638 19.5801 32.9785C19.6811 32.8941 19.6811 32.8941 19.7841 32.8081C20.8465 31.9361 22.5864 30.6543 24.0235 30.6543C24.0235 30.6091 24.0235 30.564 24.0235 30.5175C23.9729 30.4991 23.9223 30.4807 23.8702 30.4617C22.6711 29.9471 21.8429 28.6312 21.3721 27.4681C20.7795 25.8139 20.938 24.1466 21.6645 22.5718C22.3688 21.1633 23.6119 20.1149 25.0908 19.5846C27.1687 18.9303 29.3072 19.3428 31.0004 20.7056ZM23.8184 21.6992C23.7731 21.7381 23.7278 21.7771 23.6811 21.8172C22.7608 22.6654 22.2586 23.8697 22.1628 25.1049C22.1175 26.5211 22.6842 27.8236 23.6421 28.8483C24.664 29.8067 25.9177 30.2441 27.3047 30.2441C28.6607 30.147 29.8404 29.5405 30.7697 28.5565C31.6211 27.5234 32.0315 26.2451 31.9531 24.9121C31.7828 23.5505 31.1638 22.3788 30.1074 21.4941C28.1645 20.0976 25.6361 20.0795 23.8184 21.6992ZM19.7168 34.4824C19.6595 34.5388 19.6023 34.5952 19.5433 34.6533C18.1431 36.1112 17.4144 37.939 16.9824 39.8828C18.3811 39.8828 19.7797 39.8828 21.2207 39.8828C21.513 39.4664 21.513 39.4664 21.4899 39.1992C21.4286 38.9867 21.4286 38.9867 21.319 38.7677C21.1974 38.4559 21.1341 38.2293 21.2207 37.9004C21.3913 37.6548 21.5911 37.4499 21.8078 37.2444C21.9085 37.1485 22.0063 37.0501 22.1039 36.9511C22.6476 36.4199 22.6476 36.4199 23.1348 36.3964C23.3513 36.4669 23.3513 36.4669 23.5578 36.5673C23.8094 36.7009 23.8094 36.7009 24.083 36.7238C24.131 36.706 24.1791 36.6882 24.2285 36.6699C24.3115 36.65 24.3946 36.6301 24.4801 36.6095C25.0043 36.4747 25.0043 36.4747 25.4098 36.1422C25.523 35.9214 25.5947 35.6959 25.6611 35.4576C25.7324 35.2343 25.7324 35.2343 25.9375 35.0976C26.1081 35.0826 26.2708 35.0752 26.4414 35.0747C26.4905 35.0742 26.5397 35.0737 26.5903 35.0733C26.6941 35.0726 26.7979 35.0723 26.9018 35.0723C27.0604 35.072 27.2189 35.0695 27.3775 35.0669C27.4785 35.0665 27.5794 35.0662 27.6804 35.0661C27.7514 35.0646 27.7514 35.0646 27.8237 35.0631C28.0532 35.0653 28.1736 35.0825 28.3582 35.2234C28.4958 35.4104 28.5309 35.5821 28.5864 35.8068C28.6922 36.1046 28.7796 36.2683 29.0618 36.4066C29.3365 36.5174 29.6151 36.5981 29.9024 36.6699C29.9625 36.6879 30.0226 36.7058 30.0845 36.7244C30.3596 36.7483 30.5609 36.5948 30.7969 36.4669C31.056 36.3753 31.2076 36.4035 31.4746 36.4648C31.7167 36.6336 31.9171 36.8396 32.1241 37.0495C32.222 37.1481 32.3224 37.2437 32.4233 37.3393C32.9527 37.8676 32.9527 37.8676 32.962 38.2349C32.9344 38.455 32.8784 38.6417 32.7692 38.836C32.6394 39.1008 32.6066 39.252 32.7051 39.541C32.7777 39.7269 32.7777 39.7269 32.9102 39.8828C33.1146 39.93 33.1146 39.93 33.3489 39.9162C33.4775 39.9145 33.4775 39.9145 33.6086 39.9128C33.6982 39.91 33.7877 39.9071 33.88 39.9041C33.9713 39.9024 34.0626 39.9009 34.1539 39.8995C34.3774 39.8954 34.6008 39.8898 34.8242 39.8828C34.8698 39.7862 34.8698 39.7862 34.9162 39.6876C35.0595 39.4152 35.1608 39.3314 35.4395 39.1992C35.6987 39.1584 35.955 39.1516 36.2171 39.1479C36.2869 39.1459 36.3568 39.1439 36.4288 39.1418C36.6003 39.137 36.7718 39.1333 36.9434 39.1308C36.8637 38.6569 36.7409 38.2251 36.5589 37.7807C36.5347 37.7214 36.5105 37.662 36.4857 37.6008C35.4431 35.0991 33.3765 33.1289 30.8848 32.0917C26.9766 30.5416 22.6755 31.5661 19.7168 34.4824ZM26.5528 36.1914C26.5119 36.3394 26.471 36.4874 26.4289 36.64C26.3374 36.895 26.237 37.0888 26.0034 37.2363C25.6784 37.3834 25.3399 37.4786 24.9973 37.575C24.8446 37.6266 24.7198 37.6907 24.5821 37.7738C24.2866 37.9463 24.0823 37.9561 23.75 37.9004C23.5125 37.8234 23.2947 37.7298 23.0664 37.6269C22.8408 37.8525 22.6153 38.0781 22.3828 38.3105C22.4406 38.436 22.4984 38.5615 22.558 38.6908C22.6994 39.037 22.7802 39.244 22.6563 39.6093C22.5602 39.8097 22.4593 40.0062 22.354 40.2019C22.2399 40.4428 22.1779 40.6765 22.1094 40.9338C22.0135 41.2237 21.9363 41.391 21.6701 41.5384C21.4341 41.6515 21.2014 41.7161 20.9473 41.7968C20.9473 42.1352 20.9473 42.4736 20.9473 42.8222C21.0897 42.8716 21.2321 42.9209 21.3788 42.9718C21.7995 43.1176 21.7995 43.1176 21.9569 43.3184C22.052 43.5302 22.1299 43.7427 22.2034 43.963C22.3087 44.2698 22.4227 44.5507 22.5794 44.8346C22.7313 45.127 22.7542 45.3006 22.6563 45.625C22.6201 45.7094 22.5831 45.7934 22.5452 45.877C22.4382 46.1327 22.4382 46.1327 22.5196 46.3769C22.6327 46.5302 22.6327 46.5302 22.7759 46.6717C22.8221 46.7208 22.8683 46.7699 22.9158 46.8204C23.0601 46.9423 23.0601 46.9423 23.2413 46.9123C23.4216 46.8548 23.4216 46.8548 23.6347 46.7443C23.9318 46.6336 24.1361 46.6262 24.4336 46.7187C24.6387 46.8135 24.8375 46.9168 25.0368 47.0231C25.317 47.1596 25.6031 47.2433 25.9036 47.3235C26.2778 47.4963 26.3977 48.0011 26.5528 48.3593C26.8911 48.3593 27.2295 48.3593 27.5781 48.3593C27.6317 48.2183 27.6853 48.0774 27.7405 47.9321C27.9754 47.425 27.9754 47.425 28.3045 47.2998C28.4266 47.2645 28.5491 47.2304 28.6719 47.1972C28.8151 47.1408 28.9575 47.0823 29.0991 47.0221C29.1682 46.9936 29.2373 46.9651 29.3085 46.9358C29.5024 46.855 29.5024 46.855 29.7144 46.7273C29.9761 46.6202 30.1795 46.6453 30.4492 46.7187C30.586 46.7871 30.7227 46.8554 30.8594 46.9238C31.1794 46.8929 31.3589 46.6752 31.5713 46.4533C31.6988 46.3107 31.6988 46.3107 31.6925 46.0992C31.6325 45.9508 31.5677 45.8043 31.5003 45.6591C31.364 45.3123 31.4326 45.1067 31.5788 44.7694C31.6206 44.6841 31.6628 44.599 31.7053 44.5141C31.8785 44.1598 32.0173 43.8213 32.1035 43.4343C32.1779 43.2528 32.2645 43.1963 32.4317 43.0957C32.6787 42.9925 32.9303 42.9097 33.1836 42.8222C33.1836 42.4838 33.1836 42.1455 33.1836 41.7968C33.037 41.7588 32.8904 41.7207 32.7393 41.6815C32.473 41.5878 32.2839 41.4785 32.132 41.2352C31.9666 40.8759 31.8517 40.5016 31.7381 40.1235C31.6808 39.9543 31.611 39.8029 31.5286 39.6446C31.3862 39.3649 31.3806 39.2881 31.4746 38.9941C31.561 38.7638 31.653 38.5375 31.7481 38.3105C31.5225 38.0849 31.2969 37.8593 31.0645 37.6269C30.9644 37.672 30.8643 37.7171 30.7611 37.7636C30.3078 37.9393 29.999 38.0032 29.5432 37.8024C29.4203 37.7396 29.2974 37.6768 29.1765 37.6103C28.9072 37.4632 28.6626 37.3814 28.3643 37.315C28.0794 37.2309 28.0057 37.1764 27.8462 36.919C27.7332 36.6814 27.6626 36.4447 27.5781 36.1914C27.2398 36.1914 26.9014 36.1914 26.5528 36.1914ZM40.9766 37.08C40.9515 37.1611 40.9263 37.2421 40.9004 37.3256C40.8066 37.6273 40.7113 37.9284 40.6157 38.2295C40.5745 38.3597 40.5338 38.49 40.4934 38.6204C40.4351 38.8082 40.3756 38.9956 40.3157 39.1829C40.298 39.2409 40.2803 39.299 40.2621 39.3588C40.1505 39.7026 40.0368 39.9234 39.7461 40.1562C39.5573 40.2191 39.437 40.2347 39.2416 40.2386C39.1814 40.24 39.1212 40.2413 39.0592 40.2427C38.9945 40.2439 38.9297 40.245 38.8631 40.2462C38.7966 40.2476 38.7301 40.249 38.6616 40.2505C38.4492 40.255 38.2368 40.259 38.0243 40.263C37.8803 40.266 37.7364 40.269 37.5924 40.272C37.2393 40.2793 36.8863 40.2862 36.5332 40.2929C36.7504 40.5156 36.979 40.6971 37.2339 40.874C37.3188 40.934 37.4036 40.9941 37.4884 41.0542C37.5329 41.0858 37.5774 41.1174 37.6233 41.1499C37.8694 41.3253 38.1141 41.5025 38.3576 41.6815C38.4042 41.7151 38.4509 41.7486 38.499 41.7832C38.7458 41.9659 38.9468 42.1186 39.0625 42.4121C39.0897 42.8367 39.0198 43.1618 38.8807 43.5608C38.8623 43.6159 38.8439 43.6709 38.825 43.7276C38.7668 43.9018 38.7075 44.0755 38.6481 44.2492C38.5885 44.4244 38.5292 44.5997 38.4704 44.7752C38.434 44.884 38.397 44.9927 38.3595 45.1011C38.3166 45.2289 38.2789 45.3585 38.2422 45.4882C38.276 45.5559 38.276 45.5559 38.3106 45.625C38.3621 45.5868 38.3621 45.5868 38.4146 45.548C39.5744 44.69 39.5744 44.69 40.1605 44.2706C40.1999 44.2423 40.2393 44.214 40.2799 44.1849C40.5959 43.9597 40.7952 43.8701 41.1851 43.8762C41.5624 43.9506 41.8441 44.1992 42.1421 44.4293C42.3463 44.5854 42.5548 44.7353 42.7631 44.8856C42.8722 44.9644 42.981 45.0435 43.0895 45.123C43.1395 45.1595 43.1896 45.1961 43.2413 45.2338C43.2857 45.2664 43.3302 45.299 43.376 45.3325C43.5061 45.42 43.6377 45.4897 43.7793 45.5566C43.6758 44.9126 43.4597 44.316 43.2394 43.7041C42.8987 42.7225 42.8987 42.7225 43.1061 42.2219C43.2592 42.0382 43.4208 41.9058 43.6127 41.7627C43.6505 41.7342 43.6883 41.7058 43.7272 41.6765C44.1273 41.3774 44.5339 41.0867 44.941 40.7973C44.9914 40.7614 45.0418 40.7254 45.0936 40.6884C45.1385 40.6566 45.1833 40.6248 45.2295 40.592C45.3491 40.4999 45.451 40.4005 45.5567 40.2929C45.519 40.2927 45.4814 40.2924 45.4426 40.2922C45.05 40.2893 44.6575 40.2846 44.2649 40.2787C44.1185 40.2768 43.9721 40.2754 43.8257 40.2744C43.6149 40.2729 43.4042 40.2697 43.1935 40.2662C43.1283 40.2661 43.0631 40.2661 42.996 40.266C42.612 40.2576 42.3662 40.2212 42.0703 39.9511C41.9828 39.7975 41.9828 39.7975 41.9299 39.6248C41.9086 39.5586 41.8873 39.4923 41.8653 39.4241C41.8427 39.3499 41.8202 39.2756 41.7969 39.1992C41.7548 39.0709 41.7126 38.9427 41.6701 38.8145C41.6253 38.6789 41.5808 38.5432 41.5365 38.4074C41.5218 38.3621 41.507 38.3167 41.4917 38.27C41.4612 38.1762 41.4309 38.0823 41.4007 37.9884C41.3564 37.8512 41.3116 37.7142 41.2666 37.5772C41.2404 37.4965 41.2142 37.4157 41.1872 37.3325C41.1334 37.1395 41.1334 37.1395 40.9766 37.08Z" fill="#05C7F2"/>
<path d="M45.0778 15.4785C45.4658 15.6733 45.7304 16.0909 45.9947 16.4224C46.1948 16.6721 46.4053 16.9124 46.6158 17.1533C46.9218 17.5041 47.2201 17.8596 47.5131 18.2214C47.7113 18.4614 47.9152 18.696 48.1198 18.9307C49.2894 20.2746 49.2894 20.2746 49.2477 20.8789C49.1438 21.0966 49.0233 21.271 48.8375 21.4258C48.6405 21.4915 48.5178 21.5021 48.3133 21.5008C48.2523 21.5006 48.1913 21.5004 48.1284 21.5001C48.0332 21.4993 48.0332 21.4993 47.936 21.4984C47.8718 21.4981 47.8075 21.4978 47.7412 21.4975C47.5826 21.4967 47.4239 21.4955 47.2653 21.4941C47.266 21.5722 47.2668 21.6502 47.2676 21.7306C47.2745 22.4658 47.2796 23.2011 47.283 23.9364C47.2848 24.3144 47.2872 24.6924 47.291 25.0704C47.2948 25.4352 47.2968 25.8 47.2977 26.1648C47.2983 26.304 47.2996 26.4432 47.3014 26.5823C47.3039 26.7773 47.3042 26.9721 47.3041 27.1671C47.3053 27.2246 47.3065 27.2822 47.3078 27.3416C47.3052 27.6347 47.291 27.7496 47.1069 27.9899C46.9235 28.125 46.9235 28.125 46.6842 28.1677C46.3737 28.1123 46.2922 28.0347 46.1031 27.7832C46.053 27.5546 46.0564 27.3305 46.0589 27.0972C46.0583 27.0283 46.0577 26.9595 46.0571 26.8886C46.0556 26.6612 46.0566 26.434 46.0578 26.2067C46.0575 26.0486 46.0572 25.8905 46.0568 25.7324C46.0563 25.4012 46.057 25.07 46.0586 24.7387C46.0605 24.3141 46.0594 23.8896 46.0574 23.465C46.0561 23.1386 46.0565 22.8122 46.0574 22.4858C46.0576 22.3292 46.0574 22.1727 46.0566 22.0161C46.0557 21.7973 46.057 21.5786 46.0589 21.3598C46.0579 21.2627 46.0579 21.2627 46.0568 21.1637C46.0619 20.8505 46.0695 20.7169 46.2677 20.4629C46.4434 20.3331 46.5189 20.2886 46.7325 20.2837C46.7839 20.2817 46.8352 20.2797 46.8881 20.2777C46.9406 20.2773 46.9932 20.2769 47.0474 20.2765C47.1012 20.2748 47.1551 20.273 47.2107 20.2713C47.3428 20.2673 47.4749 20.2653 47.6071 20.2637C47.5313 20.1755 47.5313 20.1755 47.454 20.0856C46.9455 19.4932 46.4401 18.8984 45.9367 18.3017C45.8384 18.1852 45.7401 18.0687 45.6417 17.9523C45.6105 17.9153 45.5794 17.8783 45.5472 17.8401C45.3305 17.5836 45.1091 17.332 44.8826 17.0841C44.8043 16.9824 44.8043 16.9824 44.8043 16.8457C44.4662 17.0971 44.2205 17.3905 43.9581 17.7189C43.757 17.9691 43.5459 18.2104 43.3346 18.4521C43.0202 18.8125 42.7136 19.1774 42.4125 19.5491C42.213 19.7924 42.0058 20.0287 41.7965 20.2637C41.8764 20.2654 41.9564 20.2672 42.0387 20.269C42.1445 20.2728 42.2504 20.2768 42.3562 20.2807C42.4088 20.2817 42.4613 20.2827 42.5155 20.2837C42.5925 20.287 42.5925 20.287 42.671 20.2904C42.7179 20.2918 42.7648 20.2932 42.8131 20.2947C43.0286 20.35 43.142 20.4507 43.3004 20.6055C43.3432 20.7985 43.3432 20.7985 43.3434 21.0258C43.3442 21.112 43.3451 21.1983 43.346 21.2872C43.3452 21.3826 43.3444 21.478 43.3436 21.5734C43.3439 21.6741 43.3444 21.7747 43.345 21.8753C43.3463 22.1485 43.3454 22.4216 43.3441 22.6947C43.343 22.9805 43.3436 23.2663 43.3439 23.5521C43.3442 24.0321 43.3431 24.512 43.3412 24.992C43.339 25.547 43.339 26.1019 43.3402 26.6569C43.3413 27.1907 43.3408 27.7244 43.3397 28.2582C43.3392 28.4854 43.3393 28.7126 43.3398 28.9398C43.3403 29.2074 43.3395 29.4749 43.3376 29.7424C43.3371 29.8406 43.3371 29.9388 43.3376 30.037C43.3382 30.171 43.3369 30.305 43.3356 30.439C43.3354 30.5141 43.3352 30.5891 43.335 30.6663C43.2921 30.9058 43.2168 30.9851 43.027 31.1328C42.7813 31.2112 42.6669 31.2228 42.4288 31.12C42.2644 30.9875 42.2141 30.9165 42.1383 30.7226C42.1215 30.5449 42.1215 30.5449 42.1219 30.3394C42.1217 30.2614 42.1215 30.1834 42.1213 30.103C42.1218 30.0177 42.1223 29.9323 42.1228 29.8445C42.1228 29.7544 42.1227 29.6643 42.1227 29.5716C42.1227 29.3248 42.1235 29.0781 42.1244 28.8314C42.1253 28.5735 42.1254 28.3156 42.1255 28.0577C42.126 27.5693 42.1271 27.081 42.1285 26.5927C42.13 26.0368 42.1307 25.4808 42.1314 24.9248C42.1329 23.7813 42.1353 22.6377 42.1383 21.4941C42.0794 21.4963 42.0794 21.4963 42.0193 21.4985C41.8397 21.5042 41.66 21.5077 41.4803 21.5112C41.4186 21.5135 41.3568 21.5158 41.2932 21.5182C40.9003 21.5239 40.6694 21.4897 40.361 21.2207C40.1955 20.9858 40.1574 20.8415 40.1431 20.5542C40.2162 20.1504 40.5075 19.8779 40.7711 19.5801C40.8354 19.5052 40.8994 19.4301 40.9634 19.355C41.1021 19.1921 41.2413 19.0296 41.381 18.8676C41.5792 18.6376 41.7758 18.4063 41.9717 18.1744C42.0025 18.138 42.0333 18.1016 42.065 18.064C42.1578 17.9542 42.2506 17.8443 42.3434 17.7344C42.5937 17.4378 42.8443 17.1416 43.0953 16.8457C43.1307 16.8039 43.1662 16.7621 43.2026 16.7191C43.312 16.5902 43.4215 16.4616 43.5311 16.333C43.5645 16.2937 43.5978 16.2543 43.6322 16.2138C44.077 15.6931 44.3559 15.3695 45.0778 15.4785Z" fill="#05C7F2"/>
<path d="M37.6956 22.1093C38.11 22.3402 38.3981 22.7646 38.6887 23.1294C38.873 23.3588 39.0629 23.5825 39.255 23.8055C39.2895 23.8456 39.3239 23.8857 39.3594 23.927C39.4656 24.0503 39.5718 24.1736 39.678 24.2968C40.1639 24.8605 40.6492 25.4241 41.1135 26.0058C41.1523 26.0508 41.1911 26.0959 41.231 26.1423C41.3924 26.3947 41.3611 26.6748 41.3186 26.9628C41.1744 27.2101 41.0385 27.3435 40.7717 27.4414C40.572 27.4578 40.3738 27.4542 40.1736 27.4499C40.1194 27.4493 40.0652 27.4487 40.0094 27.448C39.8761 27.4464 39.7429 27.444 39.6096 27.4414C39.6099 27.482 39.6101 27.5226 39.6104 27.5644C39.6164 28.5526 39.621 29.5407 39.6238 30.5289C39.6252 31.0068 39.6271 31.4846 39.6303 31.9625C39.6333 32.4235 39.6349 32.8844 39.6356 33.3454C39.6361 33.5214 39.6371 33.6975 39.6385 33.8736C39.6405 34.1198 39.6408 34.3659 39.6407 34.6121C39.6417 34.6852 39.6426 34.7584 39.6437 34.8338C39.6409 35.3274 39.6409 35.3274 39.4795 35.5529C39.2497 35.6998 39.0526 35.6996 38.7893 35.6445C38.6231 35.5166 38.5404 35.4202 38.4475 35.2343C38.4406 35.1216 38.438 35.0087 38.4375 34.8958C38.437 34.8242 38.4365 34.7526 38.436 34.6788C38.4358 34.6 38.4356 34.5211 38.4354 34.4398C38.435 34.357 38.4345 34.2742 38.4341 34.1889C38.4329 33.9613 38.4322 33.7338 38.4316 33.5062C38.4312 33.3641 38.4308 33.2219 38.4304 33.0798C38.4291 32.635 38.4281 32.1903 38.4275 31.7455C38.4269 31.2321 38.4251 30.7187 38.4223 30.2053C38.4203 29.8085 38.4192 29.4117 38.419 29.0149C38.4189 28.7779 38.4182 28.5409 38.4165 28.3038C38.4146 28.0394 38.4149 27.7749 38.4154 27.5104C38.4145 27.432 38.4136 27.3535 38.4127 27.2727C38.4162 26.7418 38.4162 26.7418 38.5777 26.4715C38.8099 26.2707 38.9739 26.2633 39.2764 26.2408C39.3513 26.2351 39.4262 26.2293 39.5034 26.2234C39.561 26.2193 39.6186 26.2152 39.678 26.2109C39.6407 26.1703 39.6034 26.1296 39.565 26.0878C39.2929 25.7887 39.0267 25.487 38.7722 25.1727C38.5132 24.8527 38.2471 24.5396 37.9776 24.2285C37.9393 24.1842 37.901 24.14 37.8616 24.0944C37.6972 23.9052 37.5326 23.7206 37.3538 23.5449C36.9391 23.989 36.5368 24.4372 36.1559 24.911C35.9067 25.2144 35.6479 25.5093 35.3886 25.8042C35.3519 25.8461 35.3152 25.8881 35.2774 25.9313C35.2444 25.9688 35.2114 26.0062 35.1775 26.0448C35.0912 26.1435 35.0912 26.1435 35.0296 26.2792C35.0905 26.2761 35.1515 26.2729 35.2143 26.2696C35.2944 26.2672 35.3744 26.2647 35.4568 26.2622C35.5361 26.259 35.6154 26.2558 35.6971 26.2525C35.9182 26.2792 35.9182 26.2792 36.0795 26.4085C36.28 26.6662 36.2709 26.8736 36.2721 27.189C36.2728 27.2662 36.2728 27.2662 36.2735 27.345C36.2748 27.5157 36.2756 27.6864 36.2763 27.8571C36.2766 27.9154 36.2769 27.9737 36.2772 28.0337C36.2786 28.3421 36.2796 28.6506 36.2802 28.959C36.281 29.2776 36.2833 29.5962 36.286 29.9148C36.2878 30.1598 36.2884 30.4047 36.2886 30.6497C36.289 30.7671 36.2898 30.8846 36.291 31.002C36.2927 31.1665 36.2926 31.3309 36.2922 31.4953C36.293 31.5438 36.2939 31.5922 36.2948 31.642C36.2923 31.8818 36.2636 32.0157 36.1363 32.2212C35.9321 32.415 35.7857 32.4266 35.5081 32.4316C35.2758 32.3563 35.2382 32.3003 35.0979 32.0898C35.0815 31.8887 35.0815 31.8887 35.0824 31.6398C35.0824 31.5944 35.0824 31.5491 35.0823 31.5023C35.0824 31.3525 35.0835 31.2027 35.0846 31.0529C35.0848 30.949 35.085 30.8451 35.0852 30.7411C35.0857 30.4677 35.087 30.1943 35.0885 29.9209C35.0899 29.6418 35.0906 29.3628 35.0912 29.0837C35.0927 28.5363 35.095 27.9888 35.0979 27.4414C35.0188 27.4445 34.9397 27.4477 34.8581 27.451C34.7529 27.4535 34.6477 27.456 34.5425 27.4584C34.4905 27.4607 34.4385 27.463 34.3849 27.4654C34.0183 27.4717 33.8177 27.4095 33.5257 27.1679C33.3663 26.9652 33.3687 26.7511 33.3574 26.4977C33.4426 26.0918 33.8041 25.7626 34.0725 25.4589C34.1519 25.3682 34.2313 25.2774 34.3107 25.1866C34.3708 25.118 34.3708 25.118 34.4321 25.0481C34.6153 24.8386 34.797 24.6277 34.9783 24.4165C35.0123 24.3768 35.0464 24.3371 35.0815 24.2962C35.2838 24.0596 35.4826 23.8206 35.679 23.5791C35.9235 23.2786 36.1715 22.9813 36.4224 22.6861C36.4574 22.6445 36.4924 22.6029 36.5285 22.5601C36.8859 22.1415 37.1503 22.0068 37.6956 22.1093Z" fill="#05C7F2"/>
<path d="M29.0697 39.0945C29.907 39.6817 30.5731 40.5177 30.7693 41.5397C30.901 42.6749 30.7368 43.6665 30.0392 44.5996C30.0027 44.6494 29.9661 44.6993 29.9284 44.7507C29.3523 45.4719 28.4193 45.9294 27.5099 46.0351C26.3852 46.1168 25.4005 45.821 24.5192 45.108C23.8099 44.4353 23.3796 43.5434 23.3261 42.5693C23.3127 41.4255 23.6029 40.4673 24.4145 39.6219C25.6655 38.4245 27.5747 38.1948 29.0697 39.0945ZM25.0661 40.6393C24.6189 41.2642 24.4189 41.919 24.5021 42.6855C24.6356 43.4377 25.0507 44.0183 25.6642 44.4628C26.2581 44.8326 26.9012 44.9709 27.5882 44.8284C28.3017 44.6349 28.8691 44.2596 29.2873 43.6425C29.6204 43.0233 29.7509 42.3524 29.5775 41.659C29.3044 40.875 28.7964 40.2685 28.0576 39.8796C27.0019 39.4581 25.7899 39.7845 25.0661 40.6393Z" fill="#05C7F2"/>
<path d="M46.9922 28.5351C47.2469 28.7891 47.3005 28.9613 47.3019 29.317C47.3023 29.4007 47.3027 29.4844 47.303 29.5706C47.3014 29.701 47.3014 29.701 47.2998 29.8339C47.3009 29.9208 47.3019 30.0077 47.303 30.0972C47.3027 30.1809 47.3023 30.2647 47.3019 30.3509C47.3016 30.4271 47.3013 30.5034 47.301 30.5819C47.2579 30.837 47.1733 30.9509 46.9922 31.1328C46.7439 31.2173 46.6339 31.2247 46.3941 31.1157C46.2402 30.996 46.2402 30.996 46.1035 30.791C46.0712 30.4758 46.0782 30.1591 46.0779 29.8425C46.0762 29.755 46.0745 29.6675 46.0728 29.5773C46.0726 29.493 46.0723 29.4087 46.072 29.3218C46.0715 29.2447 46.0709 29.1676 46.0703 29.0882C46.1109 28.8303 46.1938 28.718 46.377 28.5351C46.6235 28.4529 46.7432 28.464 46.9922 28.5351Z" fill="#05C7F2"/>
<path d="M42.9591 31.543C43.1428 31.6522 43.1428 31.6522 43.3009 31.8164C43.344 32.0314 43.344 32.0314 43.3439 32.2821C43.344 32.3266 43.3442 32.3711 43.3444 32.4169C43.3443 32.5107 43.3434 32.6044 43.3417 32.6982C43.3393 32.8414 43.3403 32.9843 43.3416 33.1275C43.3411 33.2188 43.3405 33.3102 43.3396 33.4015C43.3385 33.5256 43.3385 33.5256 43.3373 33.6522C43.2943 33.906 43.2288 33.9857 43.0274 34.1406C42.825 34.2133 42.7155 34.2161 42.5062 34.1663C42.3007 34.0473 42.2433 33.9427 42.1388 33.7305C42.1133 33.5328 42.1133 33.5328 42.1139 33.3179C42.114 33.2401 42.114 33.1622 42.1141 33.082C42.1152 33.0013 42.1163 32.9206 42.1174 32.8375C42.1172 32.7566 42.117 32.6756 42.1167 32.5923C42.121 31.9118 42.121 31.9118 42.2755 31.6797C42.531 31.5094 42.6565 31.5117 42.9591 31.543Z" fill="#05C7F2"/>
<path d="M46.9236 31.543C47.1055 31.6558 47.1689 31.7005 47.2654 31.8848C47.3155 32.2044 47.3099 32.519 47.3038 32.8418C47.3046 32.9287 47.3053 33.0156 47.3061 33.1051C47.3004 33.8265 47.3004 33.8265 46.9919 34.1407C46.7868 34.2195 46.683 34.2176 46.4707 34.162C46.2828 34.0582 46.213 33.9828 46.1033 33.7989C46.0582 33.483 46.0684 33.1649 46.0691 32.8461C46.0672 32.7589 46.0652 32.6717 46.0632 32.5819C46.0617 31.8688 46.0617 31.8688 46.2614 31.6565C46.5062 31.5052 46.6407 31.4925 46.9236 31.543Z" fill="#05C7F2"/>
</g>
<defs>
<clipPath id="clip0_5371_19393">
<rect width="35" height="35" fill="white" transform="translate(15 15)"/>
</clipPath>
</defs>
</svg>
