<svg width="65" height="65" viewBox="0 0 65 65" fill="none" xmlns="http://www.w3.org/2000/svg">
<g clip-path="url(#clip0_5371_19475)">
<path d="M17.7872 14.9644C17.9191 14.9639 18.051 14.9634 18.1829 14.9628C18.5447 14.9614 18.9065 14.9617 19.2682 14.9622C19.6587 14.9626 20.0492 14.9614 20.4396 14.9603C21.2043 14.9586 21.969 14.9583 22.7337 14.9587C23.3553 14.9589 23.9768 14.9587 24.5984 14.9581C24.6869 14.958 24.7754 14.9579 24.8665 14.9578C25.0463 14.9577 25.226 14.9575 25.4057 14.9573C26.6125 14.9563 27.8192 14.9557 29.026 14.9563C29.0731 14.9563 29.1203 14.9563 29.1689 14.9564C29.408 14.9565 29.6471 14.9566 29.8862 14.9567C29.9574 14.9567 29.9574 14.9567 30.0301 14.9568C30.1261 14.9568 30.2221 14.9569 30.3181 14.9569C31.812 14.9576 33.3058 14.9566 34.7997 14.954C36.4789 14.9512 38.1581 14.9497 39.8372 14.9503C40.726 14.9505 41.6148 14.9502 42.5036 14.9483C43.2603 14.9466 44.0169 14.9465 44.7736 14.9481C45.1595 14.9489 45.5455 14.9491 45.9314 14.9474C46.285 14.9459 46.6385 14.9464 46.9921 14.9483C47.1198 14.9486 47.2474 14.9483 47.3751 14.9472C48.1624 14.9409 48.8281 14.981 49.452 15.5291C49.5612 15.6421 49.6436 15.7555 49.7268 15.8887C49.7516 15.9268 49.7765 15.9649 49.802 16.0041C50.093 16.546 50.0391 17.151 50.0367 17.7481C50.0372 17.8742 50.0378 18.0004 50.0385 18.1265C50.04 18.4677 50.0398 18.8089 50.0392 19.1501C50.0389 19.4352 50.0394 19.7203 50.0399 20.0054C50.041 20.6777 50.0408 21.35 50.0396 22.0223C50.0385 22.7159 50.0396 23.4094 50.0418 24.103C50.0436 24.699 50.0441 25.2949 50.0435 25.8908C50.0432 26.2466 50.0433 26.6023 50.0447 26.9581C50.046 27.2923 50.0456 27.6264 50.0439 27.9606C50.0436 28.0833 50.0438 28.206 50.0447 28.3286C50.0458 28.496 50.0447 28.6632 50.0432 28.8306C50.0444 28.9035 50.0444 28.9035 50.0456 28.9779C50.0407 29.2414 50.0056 29.3488 49.8373 29.5563C49.6428 29.7096 49.5605 29.7438 49.3167 29.74C49.2603 29.7409 49.2039 29.7418 49.1458 29.7427C48.9749 29.6973 48.9749 29.6973 48.6331 29.3555C48.6331 26.874 48.6331 24.3926 48.6331 21.8359C37.9854 21.8359 27.3377 21.8359 16.3674 21.8359C16.3745 25.0971 16.3815 28.3582 16.3888 31.7181C16.3905 32.7487 16.3922 33.7794 16.3939 34.8412C16.3964 35.7631 16.3964 35.7631 16.3992 36.685C16.4004 37.0964 16.4011 37.5078 16.4014 37.9192C16.4018 38.3936 16.4028 38.8679 16.4047 39.3423C16.4057 39.585 16.4063 39.8277 16.4061 40.0704C16.4059 40.3303 16.4071 40.5901 16.4085 40.85C16.4082 40.9257 16.4079 41.0014 16.4075 41.0795C16.4113 41.4833 16.4366 41.7857 16.6409 42.1387C16.9255 42.2846 17.1954 42.2935 17.5117 42.2972C17.5558 42.2979 17.5999 42.2986 17.6453 42.2993C17.7895 42.3014 17.9338 42.3025 18.078 42.3037C18.1786 42.305 18.2792 42.3063 18.3797 42.3077C18.6434 42.3112 18.907 42.3139 19.1706 42.3165C19.4401 42.3192 19.7095 42.3227 19.979 42.3261C20.5069 42.3327 21.0348 42.3385 21.5627 42.3437C21.551 42.3036 21.5392 42.2635 21.5271 42.2222C21.473 42.037 21.4193 41.8516 21.3657 41.6663C21.3379 41.5717 21.3379 41.5717 21.3096 41.4752C20.4779 38.593 20.9483 35.4403 22.3608 32.8192C22.8267 31.9901 23.3967 31.2284 24.0622 30.5498C24.1658 30.4437 24.2674 30.3358 24.3689 30.2278C26.1409 28.3701 28.5475 27.3191 31.0647 26.9629C31.1277 26.9539 31.1907 26.9449 31.2556 26.9357C34.1881 26.5992 37.2411 27.4591 39.5689 29.2677C39.8574 29.4999 40.1285 29.7495 40.3944 30.0071C40.5022 30.1112 40.6113 30.2138 40.7205 30.3165C42.756 32.2601 44.0016 35.1213 44.0669 37.9335C44.081 39.2315 44.0023 40.4216 43.6348 41.6687C43.6063 41.7668 43.6063 41.7668 43.5773 41.8668C43.5311 42.0259 43.4845 42.1849 43.4377 42.3437C44.0177 42.338 44.5977 42.3315 45.1777 42.3241C45.4471 42.3207 45.7164 42.3175 45.9858 42.3149C46.2459 42.3124 46.5061 42.3092 46.7663 42.3056C46.8653 42.3043 46.9643 42.3033 47.0633 42.3025C47.2026 42.3013 47.3418 42.2994 47.481 42.2972C47.5996 42.2958 47.5996 42.2958 47.7206 42.2944C47.9822 42.2727 48.1869 42.2456 48.428 42.1387C48.6021 41.7706 48.5836 41.3851 48.5811 40.9837C48.5812 40.9175 48.5813 40.8513 48.5815 40.7831C48.5817 40.6401 48.5817 40.4971 48.5814 40.354C48.581 40.1276 48.5816 39.9012 48.5825 39.6748C48.5851 39.0313 48.5863 38.3878 48.5856 37.7443C48.5852 37.3502 48.5864 36.9561 48.5887 36.5619C48.5893 36.4118 48.5892 36.2618 48.5884 36.1117C48.5875 35.9021 48.5886 35.6926 48.5901 35.4829C48.5893 35.421 48.5885 35.3591 48.5877 35.2952C48.5922 34.9894 48.6023 34.8637 48.796 34.615C48.99 34.4712 49.0782 34.436 49.3167 34.4397C49.3731 34.4388 49.4294 34.4379 49.4876 34.437C49.7457 34.5056 49.8374 34.6125 50.0002 34.8242C50.0513 35.0585 50.0477 35.2887 50.0456 35.5277C50.0466 35.6338 50.0466 35.6338 50.0477 35.7421C50.0496 35.976 50.0489 36.2098 50.048 36.4437C50.0485 36.6068 50.0489 36.7699 50.0495 36.933C50.0503 37.2751 50.0499 37.6171 50.0486 37.9592C50.047 38.396 50.0488 38.8328 50.0516 39.2696C50.0534 39.6066 50.0532 39.9436 50.0525 40.2807C50.0524 40.4416 50.0529 40.6026 50.0541 40.7635C50.0645 42.4761 50.0645 42.4761 49.4791 43.1563C49.3628 43.2674 49.2477 43.3522 49.1116 43.4375C49.055 43.4754 49.055 43.4754 48.9973 43.514C48.496 43.7889 47.9542 43.7342 47.4014 43.717C47.2159 43.7116 47.0306 43.7088 46.8451 43.7068C46.318 43.701 45.7912 43.6941 45.2644 43.6774C44.941 43.6674 44.6179 43.6631 44.2943 43.6624C44.1717 43.6611 44.0492 43.6577 43.9268 43.6521C43.3594 43.6227 43.3594 43.6227 42.8225 43.7793C42.5303 44.0628 42.3719 44.4296 42.2095 44.7968C41.8685 45.4957 41.2355 46.0907 40.7034 46.6504C40.6611 46.6971 40.6188 46.7438 40.5752 46.7919C38.8484 48.6343 36.0475 49.8988 33.5302 50.0121C33.4324 50.0139 33.3347 50.0153 33.237 50.0163C33.184 50.017 33.1311 50.0176 33.0766 50.0183C31.9268 50.0298 30.8161 50.0278 29.6975 49.7266C29.6229 49.7068 29.6229 49.7068 29.5469 49.6867C27.0713 49.0118 24.8751 47.5707 23.2974 45.5438C23.2639 45.5013 23.2304 45.4589 23.1959 45.4151C23.0118 45.1718 22.8567 44.9381 22.7343 44.6581C22.4903 44.1008 22.4903 44.1008 22.0461 43.714C21.6691 43.6161 21.2842 43.6462 20.8989 43.6653C20.7746 43.667 20.6504 43.6681 20.5261 43.6686C20.2001 43.6713 19.8745 43.6806 19.5487 43.6917C19.028 43.7085 18.5071 43.7156 17.9862 43.7218C17.8055 43.725 17.6252 43.7313 17.4446 43.738C16.7123 43.7582 16.1365 43.6863 15.5534 43.1897C14.9979 42.6009 14.9603 41.9334 14.9646 41.1628C14.9642 41.0568 14.9637 40.9508 14.963 40.8449C14.9616 40.5548 14.9619 40.2647 14.9625 39.9746C14.9628 39.6613 14.9616 39.3481 14.9606 39.0348C14.9588 38.4214 14.9586 37.8081 14.9589 37.1947C14.9592 36.6961 14.9589 36.1974 14.9583 35.6987C14.9582 35.6277 14.9582 35.5567 14.9581 35.4835C14.9579 35.3393 14.9578 35.195 14.9576 35.0507C14.9561 33.6981 14.9564 32.3455 14.9572 30.9929C14.9579 29.7562 14.9564 28.5195 14.9538 27.2828C14.9511 26.0122 14.95 24.7416 14.9505 23.4711C14.9508 22.758 14.9505 22.045 14.9485 21.3319C14.9469 20.7249 14.9467 20.1179 14.9484 19.5108C14.9492 19.2013 14.9493 18.8917 14.9477 18.5822C14.9462 18.2984 14.9466 18.0147 14.9485 17.731C14.9489 17.6287 14.9486 17.5264 14.9475 17.4242C14.9404 16.7135 15.0485 16.1119 15.5214 15.5523C15.638 15.4433 15.7538 15.358 15.8889 15.2734C15.9454 15.2362 15.9454 15.2362 16.003 15.1982C16.5531 14.9003 17.1803 14.9617 17.7872 14.9644ZM16.5725 16.5723C16.0602 17.7677 16.3674 19.1681 16.3674 20.4687C27.0151 20.4687 37.6627 20.4687 48.6331 20.4687C48.7867 18.4679 48.7867 18.4679 48.428 16.5723C48.0955 16.373 47.7891 16.3376 47.4094 16.3414C47.3305 16.3409 47.3305 16.3409 47.25 16.3405C47.0741 16.3397 46.8981 16.3404 46.7221 16.3411C46.5946 16.3409 46.4671 16.3406 46.3396 16.3402C45.9893 16.3393 45.639 16.3397 45.2887 16.3404C44.9109 16.3408 44.5331 16.3401 44.1552 16.3396C43.4151 16.3386 42.675 16.3388 41.9349 16.3394C41.3335 16.3399 40.7321 16.34 40.1307 16.3397C40.0451 16.3397 39.9596 16.3397 39.8714 16.3396C39.6976 16.3396 39.5238 16.3395 39.3501 16.3394C37.7664 16.3389 36.1827 16.3395 34.599 16.3405C33.1534 16.3415 31.7077 16.3414 30.2621 16.3404C28.6378 16.3394 27.0135 16.3389 25.3893 16.3395C25.2161 16.3396 25.043 16.3397 24.8698 16.3397C24.7846 16.3398 24.6994 16.3398 24.6116 16.3398C24.0108 16.34 23.4101 16.3397 22.8093 16.3392C22.0772 16.3387 21.3452 16.3388 20.6132 16.3399C20.2396 16.3404 19.866 16.3407 19.4924 16.34C19.1505 16.3394 18.8087 16.3397 18.4668 16.3408C18.343 16.341 18.2192 16.3409 18.0954 16.3404C17.9273 16.3398 17.7592 16.3404 17.5911 16.3414C17.5189 16.3407 17.5189 16.3407 17.4451 16.3399C17.1111 16.3437 16.8598 16.4001 16.5725 16.5723ZM25.4592 31.2012C25.3996 31.2556 25.3399 31.3101 25.2785 31.3662C24.7258 31.8896 24.3014 32.4796 23.887 33.1152C23.8472 33.1759 23.8472 33.1759 23.8066 33.2378C22.4862 35.2867 22.0482 38.0164 22.5179 40.3936C22.9483 42.3529 23.8367 44.0137 25.1858 45.4883C25.2378 45.5452 25.2898 45.6021 25.3433 45.6608C27.1024 47.4972 29.7176 48.5726 32.2463 48.6349C33.7537 48.6401 35.2283 48.372 36.6018 47.7441C36.645 47.7249 36.6882 47.7056 36.7327 47.6858C39.0884 46.6253 40.9731 44.6136 41.9417 42.224C42.2198 41.4845 42.4297 40.7324 42.5491 39.9512C42.5678 39.8288 42.5678 39.8288 42.587 39.7039C42.8845 37.2212 42.2441 34.7559 40.8401 32.7051C40.8006 32.6474 40.8006 32.6474 40.7603 32.5885C39.8194 31.2392 38.5412 30.1686 37.0803 29.4238C37.0354 29.4008 36.9904 29.3779 36.9441 29.3542C35.7548 28.759 34.4447 28.4031 33.1155 28.3301C33.0677 28.3274 33.02 28.3248 32.9708 28.3221C30.1408 28.1933 27.5045 29.2683 25.4592 31.2012Z" fill="#05C7F2"/>
<path d="M31.6114 31.4746C31.8583 31.5811 31.9876 31.6669 32.0928 31.9184C32.1442 32.0887 32.1888 32.258 32.2266 32.4317C32.5071 32.5011 32.5071 32.5011 32.7735 32.4317C32.8059 32.3231 32.8337 32.2131 32.859 32.1027C32.933 31.8426 32.9667 31.7592 33.1708 31.5686C33.4121 31.4645 33.5399 31.4315 33.7989 31.4746C34.1803 31.6905 34.1803 31.6905 34.2774 31.8848C34.3049 32.3111 34.3171 32.7182 34.1407 33.1153C34.2112 33.1688 34.2817 33.2224 34.3543 33.2776C34.9067 33.7504 35.1489 34.3926 35.2344 35.0977C35.238 35.1939 35.2404 35.2903 35.2416 35.3866C35.2432 35.4606 35.2432 35.4606 35.2447 35.5361C35.2464 35.6374 35.2468 35.7387 35.2458 35.84C35.2532 36.1294 35.2532 36.1294 35.3978 36.3716C35.5219 36.4787 35.5219 36.4787 35.713 36.6016C36.1236 36.4241 36.5093 36.1003 36.7383 35.7129C36.8164 35.4352 36.8072 35.1654 36.7982 34.8787C36.8083 34.5693 36.8653 34.4111 37.0118 34.1406C37.2838 33.968 37.4229 33.9253 37.7424 33.974C37.9774 34.076 38.0837 34.1477 38.2423 34.3457C38.3063 34.653 38.296 34.9639 38.2978 35.2771C38.3017 35.3614 38.3056 35.4458 38.3097 35.5327C38.3139 35.9947 38.2765 36.2792 37.9635 36.6304C37.8531 36.7366 37.741 36.841 37.627 36.9434C37.5367 37.035 37.4469 37.127 37.3576 37.2195C37.2753 37.3014 37.1927 37.3831 37.1101 37.4646C37.0672 37.5072 37.0243 37.5497 36.9801 37.5936C36.8769 37.696 36.7735 37.7982 36.67 37.9004C36.6848 37.9507 36.6996 38.001 36.7148 38.0529C36.7339 38.1196 36.7529 38.1863 36.7725 38.255C36.8011 38.3538 36.8011 38.3538 36.8302 38.4545C36.873 38.6432 36.8785 38.8019 36.8751 38.9942C36.9495 38.9927 37.024 38.9913 37.1007 38.9898C37.3782 38.9849 37.6557 38.9817 37.9332 38.9791C38.053 38.9778 38.1729 38.9759 38.2928 38.9735C38.4655 38.9702 38.6382 38.9687 38.811 38.9675C38.8642 38.966 38.9174 38.9646 38.9723 38.9632C39.3296 38.963 39.5308 39.0311 39.8145 39.2676C39.9332 39.505 39.924 39.7606 39.8829 40.0195C39.7337 40.2079 39.6182 40.3228 39.4044 40.4297C39.2199 40.4356 39.0372 40.4376 38.8527 40.4364C38.7983 40.4363 38.7438 40.4362 38.6877 40.4361C38.5136 40.4357 38.3395 40.4348 38.1653 40.434C38.0474 40.4336 37.9295 40.4333 37.8115 40.433C37.5222 40.4323 37.2328 40.4311 36.9434 40.4297C36.8119 41.2279 36.8119 41.2279 37.0553 41.9724C37.3335 42.299 37.6506 42.5808 37.9833 42.8507C38.1602 43.0075 38.2376 43.1213 38.2632 43.3576C38.268 43.6093 38.271 43.8609 38.2722 44.1126C38.2755 44.2438 38.2755 44.2438 38.279 44.3777C38.2831 45.0955 38.2831 45.0955 38.0818 45.3051C37.8676 45.4407 37.7446 45.4883 37.4903 45.4883C37.2382 45.4199 37.2382 45.4199 37.0118 45.2832C36.7961 44.8848 36.7783 44.5517 36.7887 44.1064C36.7851 43.9079 36.7764 43.7552 36.644 43.6013C36.5195 43.4942 36.5195 43.4942 36.3282 43.3692C36.3 43.4072 36.2718 43.4453 36.2427 43.4845C35.4166 44.5762 34.4391 45.2234 33.0894 45.4605C31.8921 45.5898 30.6496 45.2761 29.6973 44.5313C29.3012 44.184 28.9541 43.815 28.6719 43.3692C28.5106 43.4787 28.3873 43.5651 28.2618 43.711C28.225 43.9077 28.2102 44.0539 28.2148 44.2493C28.2174 44.6474 28.1799 44.9282 27.9883 45.2832C27.7163 45.4559 27.5772 45.4986 27.2578 45.4498C27.0228 45.3479 26.9164 45.2762 26.7579 45.0781C26.6939 44.7709 26.7041 44.4599 26.7023 44.1467C26.6984 44.0624 26.6945 43.9781 26.6905 43.8912C26.6862 43.4212 26.7288 43.1383 27.0452 42.7796C27.269 42.5634 27.5065 42.3707 27.7534 42.1814C27.9972 41.9477 28.0758 41.7794 28.0997 41.4498C28.1064 41.1084 28.0889 40.7695 28.0567 40.4297C27.9843 40.4311 27.9119 40.4326 27.8373 40.434C27.5675 40.439 27.2977 40.4421 27.0278 40.4447C26.9112 40.4461 26.7947 40.448 26.6781 40.4503C26.5101 40.4537 26.3422 40.4552 26.1742 40.4564C26.1224 40.4578 26.0707 40.4592 26.0174 40.4607C25.6644 40.4608 25.4661 40.3888 25.1856 40.1563C25.0669 39.9189 25.0761 39.6633 25.1173 39.4043C25.2664 39.2159 25.3819 39.1011 25.5958 38.9942C25.7852 38.9882 25.973 38.9863 26.1624 38.9875C26.2463 38.9876 26.2463 38.9876 26.3319 38.9878C26.5109 38.9882 26.69 38.989 26.869 38.9899C26.9902 38.9902 27.1114 38.9905 27.2327 38.9908C27.5301 38.9916 27.8276 38.9928 28.1251 38.9942C28.1339 38.9093 28.1428 38.8245 28.152 38.7371C28.1772 38.5307 28.2192 38.3736 28.3098 38.1859C28.3546 38.0486 28.3546 38.0486 28.3301 37.9004C28.1331 37.6175 27.8832 37.3924 27.6295 37.1613C27.5607 37.0965 27.492 37.0316 27.4236 36.9665C27.2979 36.8472 27.1715 36.7287 27.0441 36.6112C26.7092 36.2833 26.735 36.0254 26.7292 35.5781C26.7288 35.49 26.7284 35.402 26.728 35.3113C26.7246 35.18 26.7246 35.18 26.7212 35.0461C26.717 34.3284 26.717 34.3284 26.9184 34.1187C27.1325 33.9831 27.2556 33.9356 27.5098 33.9356C27.7619 34.0039 27.7619 34.0039 27.9883 34.1406C28.1822 34.4966 28.2037 34.7312 28.1849 35.1404C28.1848 35.5661 28.2881 35.7998 28.584 36.1066C28.7674 36.2793 28.9548 36.4427 29.1505 36.6016C29.2429 36.5587 29.3338 36.5124 29.4239 36.4649C29.4739 36.4422 29.524 36.4196 29.5756 36.3962C29.7825 36.1643 29.7318 35.8798 29.7315 35.5805C29.7554 34.5935 29.9834 33.9243 30.68 33.2178C30.7392 33.1614 30.7984 33.105 30.8594 33.0469C30.8375 32.999 30.8156 32.951 30.7929 32.9016C30.6737 32.568 30.674 32.2339 30.7227 31.8848C30.9794 31.5402 31.1866 31.4338 31.6114 31.4746ZM31.4832 34.4782C31.2348 34.8362 31.1841 35.0706 31.2012 35.5078C31.2493 35.498 31.2975 35.4881 31.347 35.4779C32.1829 35.3208 32.9667 35.3371 33.7989 35.5078C33.7828 35.0022 33.6764 34.649 33.3204 34.2774C32.6986 33.8575 31.9862 33.9056 31.4832 34.4782ZM30.3126 37.627C29.7675 38.2131 29.4842 38.9311 29.476 39.7229C29.4754 39.7738 29.4749 39.8247 29.4743 39.8772C29.4733 39.9851 29.4726 40.0929 29.4721 40.2008C29.4713 40.3098 29.4699 40.4189 29.4679 40.5279C29.4489 41.5456 29.61 42.3524 30.3278 43.1219C30.9767 43.7451 31.6709 44.0114 32.5684 44.0528C33.4201 44.0199 34.1342 43.6384 34.7428 43.0562C34.9772 42.7972 35.1579 42.5247 35.3028 42.207C35.3302 42.1493 35.3302 42.1493 35.3581 42.0905C35.5582 41.5995 35.5413 41.0858 35.5384 40.5645C35.5378 40.4049 35.5398 40.2454 35.5419 40.0858C35.5465 39.1181 35.3129 38.3849 34.6619 37.6483C34.3053 37.3341 33.9956 37.0888 33.5409 36.9308C33.4403 36.8955 33.4403 36.8955 33.3376 36.8594C33.2868 36.842 33.236 36.8246 33.1837 36.8067C33.1836 36.8496 33.1835 36.8925 33.1834 36.9367C33.182 37.3836 33.1783 37.8305 33.1732 38.2774C33.1716 38.4442 33.1707 38.6109 33.1703 38.7777C33.1697 39.0175 33.1669 39.2572 33.1636 39.497C33.164 39.6087 33.164 39.6087 33.1644 39.7227C33.1545 40.2413 33.1545 40.2413 32.9502 40.5108C32.7802 40.6301 32.7042 40.6816 32.5001 40.6775C32.4564 40.6784 32.4127 40.6793 32.3676 40.6802C32.1279 40.603 32.0375 40.4943 31.8848 40.293C31.8326 40.0282 31.8355 39.7662 31.8365 39.497C31.8355 39.4201 31.8344 39.3432 31.8334 39.2639C31.8304 39.0188 31.8298 38.7736 31.8293 38.5285C31.8277 38.3621 31.826 38.1956 31.8241 38.0292C31.8198 37.6217 31.8174 37.2142 31.8165 36.8067C31.2904 36.8067 30.6751 37.2811 30.3126 37.627Z" fill="#05C7F2"/>
<path d="M31.1429 17.691C31.206 17.6905 31.2692 17.6899 31.3342 17.6894C31.5459 17.688 31.7575 17.6891 31.9691 17.6902C32.1208 17.6897 32.2725 17.6891 32.4242 17.6884C32.8364 17.6868 33.2485 17.6874 33.6606 17.6885C34.0916 17.6894 34.5226 17.6886 34.9536 17.688C35.7239 17.6874 36.4941 17.6884 37.2643 17.6902C37.9626 17.6917 38.6609 17.6914 39.3592 17.6899C40.1702 17.688 40.9812 17.6873 41.7922 17.6884C42.2214 17.6889 42.6507 17.689 43.08 17.6878C43.4835 17.6868 43.887 17.6875 44.2906 17.6895C44.4388 17.69 44.587 17.6898 44.7352 17.6891C44.9374 17.6881 45.1394 17.6893 45.3415 17.691C45.4298 17.6899 45.4298 17.6899 45.5199 17.6887C45.8175 17.6936 45.9321 17.7071 46.1739 17.8973C46.3201 18.0915 46.3551 18.1782 46.3513 18.418C46.3522 18.4744 46.3531 18.5308 46.354 18.5889C46.2862 18.8439 46.1735 18.939 45.9668 19.1016C45.7583 19.1513 45.555 19.1478 45.3415 19.145C45.2783 19.1455 45.2152 19.1461 45.1501 19.1466C44.9385 19.148 44.7269 19.1469 44.5152 19.1458C44.3635 19.1463 44.2118 19.1469 44.0601 19.1476C43.648 19.1492 43.2359 19.1486 42.8237 19.1475C42.3927 19.1466 41.9617 19.1474 41.5307 19.148C40.7605 19.1486 39.9902 19.1476 39.22 19.1458C38.5217 19.1443 37.8235 19.1446 37.1252 19.1462C36.3142 19.148 35.5032 19.1487 34.6922 19.1477C34.2629 19.1471 33.8337 19.1471 33.4044 19.1482C33.0008 19.1492 32.5973 19.1485 32.1938 19.1465C32.0456 19.1461 31.8973 19.1462 31.7491 19.1469C31.547 19.1479 31.345 19.1467 31.1429 19.145C31.0546 19.1461 31.0546 19.1461 30.9644 19.1473C30.6668 19.1424 30.5522 19.1289 30.3104 18.9387C30.1642 18.7445 30.1293 18.6578 30.133 18.418C30.1322 18.3616 30.1313 18.3052 30.1304 18.2471C30.272 17.7137 30.6747 17.6849 31.1429 17.691Z" fill="#05C7F2"/>
<path d="M49.6583 31.4063C49.8719 31.5345 49.8719 31.5345 50.0001 31.7481C50.0677 32.0917 50.0532 32.3432 49.8719 32.6453C49.5698 32.8266 49.3183 32.8411 48.9747 32.7735C48.7611 32.6453 48.7611 32.6453 48.6329 32.4317C48.5653 32.0881 48.5798 31.8366 48.7611 31.5345C49.0632 31.3532 49.3147 31.3387 49.6583 31.4063Z" fill="#05C7F2"/>
<path d="M25.7325 17.7344C25.9461 17.8626 25.9461 17.8626 26.0743 18.0762C26.1419 18.4198 26.1274 18.6713 25.9461 18.9735C25.644 19.1547 25.3925 19.1692 25.0489 19.1016C24.8353 18.9735 24.8353 18.9735 24.7071 18.7598C24.6395 18.4162 24.654 18.1648 24.8353 17.8626C25.1374 17.6813 25.3889 17.6669 25.7325 17.7344Z" fill="#05C7F2"/>
<path d="M22.7247 17.7344C22.9383 17.8626 22.9383 17.8626 23.0665 18.0762C23.1341 18.4198 23.1196 18.6713 22.9383 18.9735C22.6362 19.1547 22.3847 19.1692 22.0411 19.1016C21.8275 18.9735 21.8275 18.9735 21.6993 18.7598C21.6317 18.4162 21.6462 18.1648 21.8275 17.8626C22.1296 17.6813 22.3811 17.6669 22.7247 17.7344Z" fill="#05C7F2"/>
<path d="M19.7169 17.7344C19.9305 17.8626 19.9305 17.8626 20.0587 18.0762C20.1263 18.4198 20.1118 18.6713 19.9305 18.9735C19.6283 19.1547 19.3769 19.1692 19.0333 19.1016C18.8196 18.9735 18.8196 18.9735 18.6915 18.7598C18.6239 18.4162 18.6384 18.1648 18.8196 17.8626C19.1218 17.6813 19.3733 17.6669 19.7169 17.7344Z" fill="#05C7F2"/>
</g>
<defs>
<clipPath id="clip0_5371_19475">
<rect width="35" height="35" fill="white" transform="translate(15 15)"/>
</clipPath>
</defs>
</svg>
