<svg width="32" height="32" viewBox="0 0 32 32" fill="none" xmlns="http://www.w3.org/2000/svg">
<g clip-path="url(#clip0_738_53254)">
<path d="M26.3906 0.0142964C25.7393 0.0105464 25.0368 0.0342964 24.2968 0.0955476C20.3493 0.421788 15.3106 1.84054 10.9506 6.20051C10.5981 6.55302 10.2668 6.92051 9.95555 7.29801L7.89805 6.79801C6.54179 6.46803 5.12304 7.03551 4.36941 8.21052L0.135811 14.8217V14.823C0.0383101 14.9742 0.0295613 15.1667 0.114561 15.3267C0.198311 15.4867 0.362062 15.588 0.542049 15.593L5.99709 15.7517C5.6521 17.2255 5.44083 18.6617 5.31459 19.9741V19.9754C5.30084 20.1229 5.35459 20.2691 5.45834 20.3741L11.6119 26.5268V26.5255C11.7169 26.6318 11.8644 26.6855 12.0144 26.6705C13.327 26.5443 14.7632 26.3318 16.2356 25.9868L16.3943 31.4466C16.4006 31.6266 16.5018 31.7879 16.6606 31.8716C16.8193 31.9553 17.0106 31.9478 17.1618 31.8516L23.7717 27.6142C24.9467 26.8616 25.5167 25.4416 25.1855 24.0855L24.6842 22.033C25.0642 21.7205 25.433 21.388 25.7867 21.0343C27.0142 19.8068 28.008 18.5293 28.813 17.2394C33.5679 9.62433 31.6417 1.63073 31.4655 0.94817L31.4667 0.94942C31.4405 0.748169 31.2955 0.58318 31.0992 0.530668C31.0992 0.530668 29.2144 0.0268084 26.3906 0.0142964ZM26.3643 1.00178C28.4493 1.01303 29.9682 1.30178 30.5544 1.43305C30.8857 2.88178 32.1894 9.95177 27.9694 16.7092C27.2032 17.9367 26.2519 19.153 25.0794 20.3268C22.6182 22.7881 19.3882 24.1681 16.273 24.9281C15.1943 23.1031 13.818 21.3406 12.2317 19.7543C10.6442 18.1668 8.88422 16.7931 7.0567 15.7143C7.81794 12.5981 9.19795 9.36809 11.6593 6.90697C16.6055 1.96073 22.4394 0.981848 26.3642 1.00329L26.3643 1.00178ZM21.8706 4.34194C20.3906 4.34069 18.9106 4.90319 17.7842 6.02943C15.5316 8.28195 15.5316 11.952 17.7842 14.2045C20.0367 16.457 23.7029 16.4545 25.9554 14.2007C28.2079 11.9482 28.2079 8.28456 25.9554 6.03208C24.8291 4.90584 23.3504 4.3421 21.8702 4.3421L21.8706 4.34194ZM21.8706 5.3357C23.0918 5.33695 24.313 5.80444 25.2482 6.73945C27.1182 8.60946 27.1182 11.6233 25.2482 13.4943C23.3781 15.3643 20.3618 15.3668 18.492 13.4968C16.6222 11.6268 16.622 8.60819 18.492 6.73683C19.427 5.80182 20.6495 5.33433 21.8709 5.33558L21.8706 5.3357ZM7.12943 7.70444C7.30568 7.70444 7.48444 7.72694 7.66194 7.76944L9.28694 8.16445C7.82444 10.202 6.86943 12.5008 6.24943 14.7593L1.45327 14.6193L5.21071 8.75053C5.63695 8.08554 6.36444 7.7007 7.12943 7.70444ZM6.82693 16.7419C8.47567 17.7494 10.0743 19.0144 11.522 20.4632C12.9707 21.9119 14.2357 23.5094 15.2433 25.1582C14.167 25.3782 13.1158 25.5295 12.1282 25.6295L6.35577 19.857C6.45702 18.8695 6.60692 17.8181 6.82693 16.7419ZM5.26194 21.5944H5.26319C5.22569 21.5969 5.18819 21.6031 5.15194 21.6144C4.08068 21.9231 3.0057 22.4394 2.14445 23.3006C-0.76054 26.2056 0.129445 31.4395 0.129445 31.4395C0.131944 31.4495 0.135694 31.4607 0.138195 31.4707C0.143194 31.4895 0.148195 31.5095 0.154445 31.5282C0.160694 31.547 0.168195 31.5645 0.176944 31.582C0.184445 31.5957 0.190694 31.6107 0.199445 31.6232C0.210694 31.642 0.223194 31.6595 0.236945 31.6757C0.246945 31.6895 0.258196 31.702 0.270696 31.7132C0.284446 31.7282 0.300696 31.7407 0.315694 31.7532C0.329444 31.7632 0.341944 31.7732 0.356945 31.782C0.371945 31.792 0.389445 31.802 0.405694 31.8095C0.423194 31.8182 0.441944 31.8257 0.460696 31.8332C0.475696 31.8382 0.490696 31.842 0.505694 31.8457C0.519444 31.8507 0.533194 31.8545 0.546945 31.857C0.546945 31.857 5.78054 32.7507 8.68583 29.8457C9.54707 28.9845 10.0633 27.9057 10.3721 26.8345C10.4471 26.5707 10.2958 26.2957 10.0321 26.2182C9.90456 26.1807 9.76831 26.1957 9.65207 26.2595C9.53582 26.3232 9.44957 26.4307 9.41207 26.5582C9.13582 27.5157 8.68333 28.4307 7.97706 29.1382C5.98957 31.1257 2.26954 31.0032 1.08202 30.9069C0.985768 29.7194 0.862018 25.9994 2.85075 24.0119C3.55824 23.3044 4.4745 22.8531 5.43075 22.5769L5.4295 22.5756C5.6945 22.4994 5.84826 22.2231 5.772 21.9581C5.70825 21.7331 5.497 21.5831 5.26326 21.5956L5.26194 21.5944ZM23.8194 22.7006L24.2144 24.3231C24.4444 25.2681 24.0506 26.2493 23.2319 26.7744L17.3631 30.5356L17.2268 25.7356C19.4831 25.1156 21.7817 24.1619 23.8182 22.7019L23.8194 22.7006Z" fill="#EBF3FF"/>
</g>
<defs>
<clipPath id="clip0_738_53254">
<rect width="32" height="32" fill="white"/>
</clipPath>
</defs>
</svg>
