<svg width="29" height="32" viewBox="0 0 29 32" fill="none" xmlns="http://www.w3.org/2000/svg">
<g clip-path="url(#clip0_738_53252)">
<path d="M9.97425 11.9729C9.97425 11.7242 10.1731 11.5208 10.4221 11.5208L14.939 11.5195C15.1853 11.5195 15.3869 11.7203 15.3869 11.9716C15.3869 12.2202 15.188 12.4237 14.939 12.4237L10.4234 12.425C10.1771 12.425 9.97425 12.2202 9.97425 11.9729ZM10.4234 9.92637H19.0722C19.3185 9.92637 19.52 9.72557 19.52 9.47425C19.52 9.22558 19.3211 9.02213 19.0722 9.02213L10.4234 9.0208C10.1771 9.0208 9.97556 9.2216 9.97556 9.47292C9.97425 9.72558 10.1771 9.92637 10.4234 9.92637ZM4.5155 11.8053V9.6431C4.5155 9.03673 5.00156 8.54734 5.60091 8.54734H7.74273C8.34337 8.54734 8.82814 9.03803 8.82814 9.6431V11.8053C8.82814 12.4117 8.34209 12.9011 7.74273 12.9011H5.60091C5.00028 12.9011 4.5155 12.4078 4.5155 11.8053ZM5.40857 11.8053C5.40857 11.9104 5.49287 11.9995 5.60088 11.9995H7.7427C7.84676 11.9995 7.93502 11.9144 7.93502 11.8053V9.6431C7.93502 9.53805 7.85071 9.44895 7.7427 9.44895H5.60088C5.49682 9.44895 5.40857 9.53406 5.40857 9.6431V11.8053ZM4.5155 18.6179V16.4557C4.5155 15.8493 5.00156 15.3599 5.60091 15.3599H7.74273C8.34337 15.3599 8.82814 15.8506 8.82814 16.4557V18.6179C8.82814 19.2243 8.34209 19.7137 7.74273 19.7137H5.60091C5.00028 19.7137 4.5155 19.223 4.5155 18.6179ZM5.40857 18.6179C5.40857 18.723 5.49287 18.8121 5.60088 18.8121H7.7427C7.84676 18.8121 7.93502 18.727 7.93502 18.6179V16.4557C7.93502 16.3506 7.85071 16.2615 7.7427 16.2615H5.60088C5.49682 16.2615 5.40857 16.3467 5.40857 16.4557V18.6179ZM4.5155 26.0794V23.9171C4.5155 23.3108 5.00156 22.8214 5.60091 22.8214H7.74273C8.34337 22.8214 8.82814 23.3121 8.82814 23.9171V26.0794C8.82814 26.6858 8.34209 27.1752 7.74273 27.1752H5.60091C5.00028 27.1752 4.5155 26.6818 4.5155 26.0794ZM5.40857 26.0794C5.40857 26.1844 5.49287 26.2735 5.60088 26.2735H7.7427C7.84676 26.2735 7.93502 26.1884 7.93502 26.0794V23.9171C7.93502 23.8121 7.85071 23.723 7.7427 23.723H5.60088C5.49682 23.723 5.40857 23.8081 5.40857 23.9171V26.0794ZM10.4232 19.2375H14.9388C15.1851 19.2375 15.3866 19.0367 15.3866 18.7854C15.3866 18.5367 15.1877 18.3333 14.9388 18.3333L10.4232 18.3319C10.1769 18.3319 9.97536 18.5327 9.97536 18.7841C9.97404 19.0367 10.1769 19.2375 10.4232 19.2375ZM10.4232 16.7415H16.5193C16.7656 16.7415 16.9671 16.5407 16.9671 16.2894C16.9671 16.0407 16.7682 15.8373 16.5193 15.8373L10.4232 15.8359C10.1769 15.8359 9.97536 16.0367 9.97536 16.2881C9.97404 16.5367 10.1769 16.7415 10.4232 16.7415ZM10.4232 26.6962H14.9388C15.1851 26.6962 15.3866 26.4954 15.3866 26.2441C15.3866 25.9955 15.1877 25.792 14.9388 25.792L10.4232 25.7907C10.1769 25.7907 9.97536 25.9915 9.97536 26.2428C9.97404 26.4941 10.1769 26.6962 10.4232 26.6962ZM10.4232 24.2002H17.1569C17.4033 24.2002 17.6048 23.9994 17.6048 23.7481C17.6048 23.4995 17.4059 23.296 17.1569 23.296L10.4232 23.2947C10.1769 23.2947 9.97536 23.4955 9.97536 23.7468C9.97404 23.9995 10.1769 24.2002 10.4232 24.2002ZM23.7194 24.1457V28.7854C23.7194 30.5181 22.3231 31.9277 20.6068 31.9277H3.42999C1.71367 31.9277 0.317383 30.5181 0.317383 28.7854V6.04461C0.317383 4.31191 1.71363 2.90231 3.42999 2.90231H7.63466C7.70184 2.37836 8.14442 1.97013 8.68317 1.97013H9.73564C9.94508 0.890329 10.8895 0.0738525 12.0184 0.0738525C13.1486 0.0738525 14.0917 0.890329 14.3011 1.97013H15.3536C15.8937 1.97013 16.3349 2.37836 16.4021 2.90231H20.6068C22.3231 2.90231 23.7194 4.31188 23.7194 6.04461V13.2654C26.4948 13.4968 28.6828 15.8452 28.6828 18.7054C28.6867 21.5657 26.4948 23.9146 23.7194 24.1457ZM20.6068 3.80257H16.4153V4.61904H20.6041C21.3825 4.61904 22.0174 5.25867 22.0174 6.0459V13.3957C22.2809 13.3305 22.5496 13.2866 22.8262 13.2627V6.04603C22.8262 4.80934 21.8305 3.80257 20.6068 3.80257ZM3.42999 5.52066C3.14284 5.52066 2.91366 5.75604 2.91366 6.04192V28.7827C2.91366 29.0726 3.14681 29.3039 3.42999 29.3039H20.6078C20.8949 29.3039 21.1241 29.0686 21.1241 28.7827L21.1228 23.7175C19.2036 22.8771 17.8613 20.9462 17.8613 18.7068C17.8613 16.4673 19.2062 14.5366 21.1228 13.696V6.04567C21.1228 5.75577 20.8896 5.52441 20.6065 5.52441H16.3981C16.3138 6.02841 15.8791 6.4167 15.3522 6.4167H8.68321C8.15763 6.4167 7.7256 6.02841 7.63732 5.52441H3.42996L3.42999 5.52066ZM8.51444 5.34114C8.51444 5.43689 8.5882 5.51135 8.68304 5.51135H15.3534C15.4482 5.51135 15.522 5.43689 15.522 5.34114V3.03929C15.522 2.94753 15.4443 2.86907 15.3534 2.86907H13.8965C13.6502 2.86907 13.4487 2.66828 13.4487 2.41695C13.4487 1.62043 12.8085 0.974128 12.0195 0.974128C11.2305 0.974128 10.5864 1.62039 10.5864 2.41695C10.5864 2.66562 10.3875 2.86907 10.1385 2.86907H8.68166C8.59077 2.86907 8.51305 2.94753 8.51305 3.03929L8.51042 5.34114H8.51444ZM22.8259 28.7852V24.1456C22.5493 24.1216 22.2793 24.0777 22.0172 24.0126V28.7826C22.0172 29.5685 21.3836 30.2095 20.6038 30.2095L3.42972 30.2082C2.65124 30.2082 2.01634 29.5685 2.01634 28.7813V6.04053C2.01634 5.25463 2.64993 4.61367 3.42972 4.61367H7.61854V3.7972L3.42972 3.79853C2.20602 3.79853 1.21153 4.80251 1.21153 6.03788V28.7786C1.21153 30.014 2.20602 31.018 3.42972 31.018H20.6075C21.8299 31.026 22.8259 30.0179 22.8259 28.7852ZM27.7893 18.7028C27.7893 16.1869 25.7621 14.1418 23.2714 14.1418C20.7792 14.1418 18.7535 16.1884 18.7535 18.7028C18.7535 21.2188 20.7807 23.2639 23.2714 23.2639C25.7621 23.2639 27.7893 21.2173 27.7893 18.7028ZM25.6277 16.877L22.3057 19.5499L20.9766 17.9675C20.8185 17.7773 20.5353 17.7534 20.3457 17.913C20.1573 18.0725 20.1336 18.3584 20.2917 18.5499L21.9 20.4701C21.9882 20.5752 22.116 20.6297 22.2411 20.6297C22.3386 20.6297 22.4361 20.5991 22.5204 20.5313L26.1821 17.5872C26.3744 17.4303 26.4087 17.1483 26.2533 16.9542C26.1031 16.7547 25.8227 16.7215 25.6277 16.877Z" fill="#EBF3FF"/>
</g>
<defs>
<clipPath id="clip0_738_53252">
<rect width="29" height="32" fill="white"/>
</clipPath>
</defs>
</svg>
