<svg width="32" height="30" viewBox="0 0 32 30" fill="none" xmlns="http://www.w3.org/2000/svg">
<g clip-path="url(#clip0_738_53256)">
<path d="M31.1666 0.315308H0.438273C0.322532 0.315308 0.20988 0.361567 0.128087 0.443289C0.0462972 0.526555 0 0.639114 0 0.75476V23.5184C0 23.7605 0.195986 23.9579 0.438281 23.9579H22.1236C22.2332 24.1923 22.3829 24.4066 22.5665 24.5886L27.0157 29.0341C27.8814 29.9007 29.2873 29.9007 30.1546 29.0341C31.0219 28.1675 31.0219 26.7628 30.1546 25.8963L28.2132 23.9565H31.1669C31.4077 23.9565 31.6052 23.7607 31.6052 23.5186V0.754879C31.6052 0.639233 31.5589 0.526673 31.4771 0.443408C31.3953 0.361685 31.2823 0.315308 31.1666 0.315308ZM30.7283 1.19269L30.7267 4.06531H0.877857V1.19423L30.7283 1.19269ZM19.983 18.871H19.9815C18.7515 20.0984 17.0833 20.7892 15.3442 20.7892C13.6051 20.7892 11.9368 20.0984 10.707 18.8694C9.47859 17.6405 8.78723 15.9737 8.78723 14.236C8.78723 12.4983 9.47859 10.8314 10.707 9.6026C11.9369 8.37366 13.6051 7.68441 15.3442 7.68441C17.0834 7.68287 18.7516 8.37366 19.9815 9.6026C21.2099 10.8315 21.9012 12.4983 21.9012 14.236C21.9012 15.9737 21.2114 17.6422 19.983 18.8726V18.871ZM20.6034 19.4908C20.7176 19.3767 20.8271 19.2595 20.9321 19.1408L22.9429 21.1499L22.9413 21.1484C22.6682 21.3226 22.4367 21.5555 22.2639 21.8284L20.2531 19.8193C20.3734 19.7144 20.4892 19.6065 20.6034 19.4924L20.6034 19.4908ZM29.9245 27.4641H29.9229C29.9229 28.0069 29.5973 28.4957 29.0957 28.7023C28.5942 28.9105 28.017 28.7948 27.6328 28.4109L23.1836 23.9653L23.1851 23.9669C23.0293 23.8111 22.9135 23.6184 22.8503 23.4071C22.8503 23.3994 22.8456 23.3902 22.8441 23.3825H22.8425C22.6805 22.795 22.9336 22.1705 23.4598 21.8637C23.9861 21.5553 24.6543 21.6416 25.0864 22.0734L29.5356 26.5189V26.5173C29.7856 26.7687 29.926 27.111 29.9245 27.4656L29.9245 27.4641ZM27.3349 23.079L25.7069 21.4522L25.7038 21.4507C25.2886 21.0344 24.7223 20.8016 24.1343 20.8031C24.0402 20.8031 23.9476 20.8093 23.855 20.8216L21.4738 18.4424C22.8812 16.3901 23.1652 13.7687 22.2285 11.4635C21.2933 9.15827 19.2624 7.47464 16.8209 6.98122C14.3793 6.4878 11.8549 7.25106 10.0957 9.01194C8.33649 10.7728 7.57722 13.2968 8.07567 15.7347C8.57412 18.1725 10.2624 20.1988 12.5711 21.13C14.8813 22.0613 17.503 21.773 19.5558 20.3636L21.9369 22.7413C21.9246 22.8338 21.9184 22.9279 21.9184 23.0204V23.079L0.878208 23.0805V4.93959H30.7271V23.0805L27.3349 23.079ZM2.24853 2.62807C2.24853 2.38599 2.44451 2.19015 2.68681 2.19015H3.51707H3.51553C3.75318 2.19632 3.94298 2.3906 3.94298 2.62807C3.94298 2.86553 3.75317 3.05983 3.51553 3.06753H2.6868C2.44452 3.06599 2.24853 2.87016 2.24853 2.62807ZM5.30101 2.62807C5.30101 2.38599 5.497 2.19015 5.73929 2.19015H6.56955C6.80721 2.19632 6.99547 2.3906 6.99547 2.62807C6.99547 2.86553 6.8072 3.05983 6.56955 3.06753H5.73929C5.62355 3.06753 5.5109 3.02127 5.4291 2.93801C5.34731 2.85628 5.30101 2.74372 5.30101 2.62807ZM8.35195 2.62807C8.35195 2.38599 8.54948 2.19015 8.79177 2.19015H15.0033C15.241 2.19632 15.4292 2.3906 15.4292 2.62807C15.4292 2.86553 15.241 3.05983 15.0033 3.06753H8.79177C8.67449 3.06753 8.56338 3.02127 8.48159 2.93801C8.39825 2.85628 8.35195 2.74372 8.35195 2.62807ZM9.43047 7.92177C9.43201 8.03896 9.38572 8.14998 9.30238 8.2317C9.22059 8.31497 9.10948 8.36122 8.9922 8.36122H2.97225C2.72996 8.36122 2.53397 8.16385 2.53397 7.92176C2.53397 7.67968 2.72995 7.48384 2.97225 7.48384H8.9922C9.10948 7.48384 9.22059 7.5301 9.30238 7.61182C9.38572 7.69354 9.43201 7.80612 9.43047 7.92177ZM2.53388 10.025C2.53388 9.78288 2.72986 9.58704 2.97216 9.58704H7.15112C7.38724 9.59476 7.57704 9.78904 7.57704 10.0265C7.57704 10.2624 7.38722 10.4567 7.15112 10.4644H2.97216C2.85642 10.4644 2.74376 10.4182 2.66197 10.3364C2.58018 10.2532 2.53388 10.1422 2.53388 10.025ZM2.53388 12.1312C2.53388 12.0141 2.58018 11.903 2.66197 11.8213C2.74376 11.738 2.85641 11.6918 2.97215 11.6918H6.47216C6.71445 11.6918 6.91044 11.8892 6.91044 12.1313C6.91044 12.3733 6.71446 12.5692 6.47216 12.5692H2.97215C2.72987 12.5692 2.53387 12.3749 2.53387 12.1328L2.53388 12.1312ZM2.53388 14.236C2.53388 14.1203 2.58018 14.0078 2.66197 13.926C2.74376 13.8443 2.85641 13.7981 2.97215 13.7981H6.13265C6.37493 13.7981 6.57247 13.9939 6.57247 14.236C6.57247 14.4781 6.37494 14.6754 6.13265 14.6754H2.97215C2.72987 14.6754 2.53387 14.4796 2.53387 14.2375L2.53388 14.236ZM2.53388 16.3407C2.53388 16.0986 2.72986 15.9028 2.97216 15.9028H6.47217C6.71445 15.9028 6.91045 16.0986 6.91045 16.3407C6.91045 16.5828 6.71447 16.7802 6.47217 16.7802H2.97216C2.85642 16.7802 2.74376 16.7339 2.66197 16.6522C2.58018 16.5689 2.53388 16.4579 2.53388 16.3407ZM2.53388 18.447C2.53388 18.3298 2.58018 18.2188 2.66197 18.1371C2.74376 18.0538 2.85641 18.0075 2.97215 18.0075H6.95991C7.19756 18.0152 7.38736 18.2095 7.38736 18.447C7.38736 18.6845 7.19755 18.8788 6.95991 18.8849H2.97215C2.72987 18.8849 2.53387 18.6906 2.53387 18.4485L2.53388 18.447ZM2.97216 20.1138H8.16525C8.40753 20.1138 8.60353 20.3097 8.60353 20.5518C8.60353 20.7939 8.40754 20.9912 8.16525 20.9912H2.97216C2.72988 20.9912 2.53388 20.7939 2.53388 20.5518C2.53388 20.3097 2.72986 20.1138 2.97216 20.1138ZM29.0707 7.92161C29.0707 8.0388 29.0244 8.14982 28.9426 8.23154C28.8609 8.31481 28.7482 8.36106 28.6325 8.36106H22.6125C22.3702 8.36106 22.1742 8.16369 22.1742 7.9216C22.1742 7.67952 22.3702 7.48368 22.6125 7.48368H28.6325C28.7482 7.48368 28.8609 7.52994 28.9426 7.61166C29.0244 7.69339 29.0707 7.80597 29.0707 7.92161ZM29.0707 10.0263C29.0707 10.1435 29.0244 10.2546 28.9426 10.3378C28.8609 10.4195 28.7482 10.4658 28.6325 10.4658H24.4566C24.219 10.4581 24.0307 10.2638 24.0307 10.0279C24.0307 9.79042 24.219 9.59612 24.4566 9.58842H28.6325C28.8747 9.58842 29.0707 9.78424 29.0707 10.0248L29.0707 10.0263ZM29.0707 12.1326C29.0707 12.3747 28.8747 12.5705 28.6324 12.5705H25.1324C24.8902 12.5705 24.6942 12.3747 24.6942 12.1326C24.6942 11.8905 24.8901 11.6947 25.1324 11.6947H28.6324C28.7482 11.6932 28.8608 11.7394 28.9426 11.8227C29.0244 11.9044 29.0707 12.0154 29.0707 12.1326ZM29.0707 14.2374C29.0707 14.3546 29.0244 14.4656 28.9426 14.5473C28.8609 14.6306 28.7482 14.6768 28.6325 14.6768H25.472C25.2297 14.6768 25.0321 14.4794 25.0321 14.2374C25.0321 13.9953 25.2297 13.7994 25.472 13.7994H28.6325C28.7482 13.7994 28.8609 13.8457 28.9426 13.9274C29.0244 14.0091 29.0707 14.1217 29.0707 14.2374ZM29.0707 16.3421C29.0707 16.4593 29.0244 16.5703 28.9426 16.6536C28.8609 16.7353 28.7482 16.7816 28.6325 16.7816H25.1324C24.8902 16.7816 24.6942 16.5857 24.6942 16.3421C24.6942 16.1 24.8902 15.9042 25.1324 15.9042H28.6325C28.8747 15.9042 29.0707 16.1 29.0707 16.3406L29.0707 16.3421ZM29.0707 18.4484C29.0707 18.6905 28.8747 18.8863 28.6324 18.8863H24.6447C24.407 18.8801 24.2172 18.6858 24.2172 18.4484C24.2172 18.2109 24.4071 18.0166 24.6447 18.0089H28.6324C28.7482 18.0089 28.8608 18.0552 28.9426 18.1384C29.0244 18.2202 29.0707 18.3312 29.0707 18.4484ZM29.0707 20.5531C29.0707 20.6703 29.0244 20.7813 28.9426 20.863C28.8609 20.9463 28.7482 20.9926 28.6325 20.9926H27.2744C27.0321 20.9926 26.8361 20.7952 26.8361 20.5531C26.8361 20.311 27.0321 20.1152 27.2744 20.1152H28.6325C28.7482 20.1152 28.8609 20.1614 28.9426 20.2432C29.0244 20.3249 29.0707 20.4375 29.0707 20.5531Z" fill="#EBF3FF"/>
</g>
<rect x="0.5" y="0.5" width="31" height="29" stroke="black"/>
<defs>
<clipPath id="clip0_738_53256">
<rect width="32" height="30" fill="white"/>
</clipPath>
</defs>
</svg>
