<svg width="60" height="60" viewBox="0 0 60 60" fill="none" xmlns="http://www.w3.org/2000/svg">
<path d="M26.25 3.75C25.5625 4.4375 25 5.4375 25 5.9375C25 6.5 22.625 8.0625 19.25 9.75C14.5 12.1875 12.875 12.6875 10.5 12.5625C8.25 12.5 7.25 12.75 6.25 13.75C4.5625 15.4375 4.5625 19.5625 6.25 21.25C7.375 22.375 7.5 23.3125 7.5 30C7.5 36.6875 7.375 37.625 6.25 38.75C4.5625 40.4375 4.5625 44.5625 6.25 46.25C7.25 47.25 8.25 47.5 10.5 47.4375C12.875 47.3125 14.5 47.8125 19.25 50.25C22.625 51.9375 25 53.5 25 54.0625C25 55.875 27.375 57.5 30 57.5C32.625 57.5 35 55.875 35 54.0625C35 53.5 37.375 51.9375 40.8125 50.25C45.5 47.8125 47.125 47.3125 49.5 47.4375C51.75 47.5 52.75 47.25 53.75 46.25C55.4375 44.5625 55.4375 40.4375 53.75 38.75C52.625 37.625 52.5 36.6875 52.5 30C52.5 23.3125 52.625 22.375 53.75 21.25C55.4375 19.5625 55.4375 15.4375 53.75 13.75C52.75 12.75 51.75 12.5 49.5 12.5625C47.125 12.6875 45.5 12.1875 40.8125 9.75C37.375 8.0625 35 6.5 35 5.9375C35 4.125 32.625 2.5 30 2.5C28.3125 2.5 27.0625 2.9375 26.25 3.75ZM39.25 15.25C42.625 16.9375 45 18.5 45 19.0625C45 19.5625 45.5625 20.5625 46.25 21.25C47.375 22.375 47.5 23.3125 47.5 30C47.5 36.6875 47.375 37.625 46.25 38.75C45.5625 39.4375 45 40.4375 45 40.9375C45 41.5 42.625 43.0625 39.25 44.75C31.3125 48.75 28.6875 48.75 20.75 44.75C17.375 43.0625 15 41.5 15 40.9375C15 40.4375 14.4375 39.4375 13.75 38.75C12.625 37.625 12.5 36.6875 12.5 29.6875C12.5 24.625 12.75 21.875 13.125 21.875C13.5 21.875 14.1875 21 14.625 19.875C15.3125 18.3125 16.625 17.3125 21.1875 15.0625C28.8125 11.1875 31.25 11.25 39.25 15.25Z" fill="white" fill-opacity="0.7"/>
<path d="M26.2504 21.25C25.4379 22.0625 25.0004 23.3125 25.0004 24.9375C25.0004 26.875 24.7504 27.4375 23.7504 27.6875C22.5629 28 22.4379 28.4375 22.6254 32.625L22.8129 37.1875H30.0004H37.1879L37.3754 32.625C37.5629 28.4375 37.4379 28 36.2504 27.6875C35.2504 27.4375 35.0004 26.875 35.0004 24.9375C35.0004 21.6875 33.3129 20 30.0004 20C28.3129 20 27.0629 20.4375 26.2504 21.25ZM31.8754 24.3125C33.1254 26.6875 32.6879 27.5 30.0004 27.5C28.1254 27.5 27.5004 27.25 27.5004 26.5C27.5004 24.8125 28.7504 23.125 30.0004 23.125C30.6879 23.125 31.5004 23.6875 31.8754 24.3125Z" fill="white" fill-opacity="0.7"/>
</svg>
