<svg width="107" height="112" viewBox="0 0 107 112" fill="none" xmlns="http://www.w3.org/2000/svg">
<path fill-rule="evenodd" clip-rule="evenodd" d="M7.91685 62.4652H19.1319V41.4789L11.4846 39.4088C7.93766 45.6174 -1.60907 41.6528 0.233826 34.7013C1.64244 29.387 8.75458 28.4389 11.4819 33.203C12.0135 34.1331 12.308 35.2008 12.308 36.3048L21.0502 38.6713C21.7735 38.823 22.3176 39.4708 22.3176 40.2466V62.4651H27.8456V39.6238C27.8456 38.8939 28.3273 38.2774 28.9867 38.0805L34.0781 36.0268V23.656L29.0684 20.7341C23.9585 25.9195 15.7275 19.2908 19.4714 13.1501C23.2362 6.97543 32.4713 11.1605 30.6561 17.9609L36.3309 21.2706C36.881 21.5238 37.2637 22.0844 37.2637 22.7351V34.7417L41.5452 33.0146V29.3443C41.5452 28.7205 41.8967 28.1797 42.4104 27.9126L51.7951 21.8616V12.1996C44.969 10.3421 46.2143 0 53.3878 0C60.5029 0 61.8454 10.3319 54.9806 12.1996V21.852L64.5595 27.987C65.0368 28.2926 65.2976 28.8128 65.2982 29.3443L65.2999 33.0146L69.5814 34.7417V22.7351C69.5814 22.0844 69.964 21.5238 70.5141 21.2706L76.7237 17.6489C75.2978 10.9381 84.3548 7.06659 88.0449 13.2489C90.7706 17.8156 86.5168 23.7991 81.1405 22.3443C80.0187 22.0406 78.9797 21.4136 78.171 20.5041L72.7669 23.6561V36.0269L77.8583 38.0807C78.5178 38.2774 78.9994 38.8939 78.9994 39.6239V62.4652H84.5272V40.2467C84.5272 39.4708 85.0711 38.8231 85.7945 38.6714L94.6917 36.2629C94.6992 35.1879 94.9886 34.1351 95.5205 33.2048C98.2618 28.4164 105.361 29.4012 106.766 34.7014C108.615 41.6778 99.0096 45.6248 95.4943 39.3727L87.7126 41.479V62.4653H98.9279C99.8075 62.4653 100.521 63.1857 100.521 64.0743V72.8419C100.521 73.7304 99.8075 74.4508 98.9279 74.4508H90.4435C89.6043 77.5163 88.4067 80.4289 86.8621 83.1797L92.8632 89.2419C93.4849 89.87 93.4849 90.8886 92.8632 91.5168L80.5883 103.916C79.9666 104.545 78.9583 104.545 78.3363 103.916L72.3372 97.8561C69.6123 99.4174 66.7312 100.626 63.695 101.475V110.043C63.695 110.932 62.9817 111.652 62.1022 111.652H44.7431C43.8636 111.652 43.1504 110.932 43.1504 110.043V101.472C40.1154 100.624 37.2332 99.4151 34.5096 97.8544L28.5085 103.917C27.8868 104.545 26.8785 104.545 26.2566 103.917L13.982 91.5167C13.3601 90.8886 13.3601 89.87 13.982 89.2418L19.9811 83.1814C18.4357 80.4288 17.2387 77.5183 16.3993 74.4513H7.9171C7.03752 74.4513 6.32438 73.7309 6.32438 72.8424V64.0741C6.32438 63.1856 7.03727 62.4652 7.91685 62.4652ZM31.031 62.4652H41.5449V36.4656L31.031 40.7068V62.4652ZM44.7305 62.4652H62.1141V30.2276L53.3857 24.6371L44.7304 30.2182L44.7305 62.4652ZM65.2997 62.4652H75.8137V40.7068L65.2997 36.4656V62.4652ZM97.3351 65.6832H80.5783C79.2327 89.2202 50.7874 100.274 34.1876 83.5049C29.6154 78.8863 26.6636 72.6304 26.2665 65.6832H9.50971V71.2334H17.6261C18.3427 71.2328 18.9935 71.731 19.169 72.4653C22.67 87.0972 27.8378 79.7948 17.3598 90.3793L27.3824 100.504L33.1263 94.702C33.6328 94.1895 34.4409 94.0756 35.0797 94.4695C47.813 102.321 46.3359 93.4927 46.3359 108.435H60.5094V100.235C60.5091 99.5116 61.0019 98.854 61.7289 98.6767C76.2133 95.14 68.9844 89.9196 79.4623 100.504L89.4853 90.3796L83.7415 84.5772C83.2341 84.0656 83.1213 83.2492 83.5112 82.6039C91.2831 69.7408 82.5443 71.233 97.3353 71.233L97.3351 65.6832ZM77.3871 65.6832H29.4576C30.7989 86.3657 55.8113 95.9724 70.4052 81.23C74.4001 77.1943 76.9942 71.7421 77.3871 65.6832ZM34.8886 47.1065C36.9644 47.1065 39.6244 47.5944 39.6244 45.4976C39.6244 43.4008 36.9642 43.8886 34.8886 43.8886C32.7918 43.8886 32.7918 47.1065 34.8886 47.1065ZM34.8886 54.3423C36.9644 54.3423 39.6244 54.8301 39.6244 52.7333C39.6244 50.6365 36.9642 51.1244 34.8886 51.1244C32.7918 51.1244 32.7918 54.3423 34.8886 54.3423ZM68.8057 47.1065C70.8814 47.1065 73.5415 47.5944 73.5415 45.4976C73.5415 43.4008 70.8813 43.8886 68.8057 43.8886C66.7087 43.8886 66.7087 47.1065 68.8057 47.1065ZM68.8057 54.3423C70.8814 54.3423 73.5415 54.8301 73.5415 52.7333C73.5415 50.6365 70.8813 51.1244 68.8057 51.1244C66.7087 51.1244 66.7087 54.3423 68.8057 54.3423ZM55.4824 4.09013C52.7212 1.30914 48.5397 5.5412 51.2958 8.32535C54.0447 11.1022 58.2358 6.87997 55.4824 4.09013ZM23.9582 13.4638C20.1919 14.4829 21.7295 20.2577 25.4927 19.2399C29.2382 18.2267 27.7369 12.4414 23.9582 13.4638ZM4.6869 33.7138C1.28687 35.6963 4.32469 40.8929 7.64513 38.898C8.30839 38.4995 8.80822 37.8944 9.0248 37.0803C9.73643 34.4044 6.80127 32.4055 4.6869 33.7138ZM103.693 35.5311C103.27 33.9348 101.654 32.9855 100.059 33.4198C96.3034 34.4425 97.8358 40.2131 101.601 39.1939C103.179 38.7668 104.119 37.1375 103.693 35.5311ZM85.2553 14.784C83.3103 11.5781 78.1928 14.257 80.2247 17.9546C81.9113 21.0239 87.3093 18.5973 85.2553 14.784ZM48.5075 35.352H58.3371C60.4341 35.352 60.4341 32.1339 58.3371 32.1339H48.5075C46.4106 32.1339 46.4106 35.352 48.5075 35.352ZM48.5075 43.3256H58.3371C60.4341 43.3256 60.4341 40.1076 58.3371 40.1076H48.5075C46.4106 40.1076 46.4106 43.3256 48.5075 43.3256ZM48.5075 51.2992H58.3371C60.4341 51.2992 60.4341 48.0812 58.3371 48.0812H48.5075C46.4106 48.0812 46.4106 51.2992 48.5075 51.2992ZM48.5075 59.2729H58.3371C60.4341 59.2729 60.4341 56.0548 58.3371 56.0548H48.5075C46.4106 56.0548 46.4106 59.2729 48.5075 59.2729Z" fill="#E8DEDE"/>
</svg>
