<svg width="122" height="137" viewBox="0 0 122 137" fill="none" xmlns="http://www.w3.org/2000/svg">
<path fill-rule="evenodd" clip-rule="evenodd" d="M20.0504 1.95299e-05H101.298C106.613 0.0177965 110.922 4.4501 110.933 9.92532V69.6242L121.052 102.463C121.65 104.377 121.322 106.468 120.172 108.092C119.016 109.71 117.181 110.664 115.225 110.652H114.068V110.794C114.707 117.691 113.919 123.072 111.624 126.846C109.242 130.757 105.319 132.89 99.762 133.127C87.1354 134.117 82.1597 126.965 75.2796 117.075C73.853 115.025 72.3459 112.856 70.6892 110.646L52.9264 110.652C52.7711 111.369 52.4949 112.056 52.1095 112.678C52.0865 112.72 52.0578 112.761 52.0232 112.803C50.0214 115.398 48.2324 117.97 46.5585 120.37C39.6785 130.259 34.7027 137.411 22.0761 136.422C16.5193 136.185 12.5961 134.052 10.2146 130.141C7.91358 126.366 7.13118 120.986 7.7697 114.089V110.658H6.13023C4.17444 110.67 2.33366 109.722 1.17735 108.098C0.0211092 106.474 -0.306756 104.377 0.297226 102.463L10.4158 69.6242V9.9253C10.4273 4.45008 14.7351 0.0179193 20.0504 1.95299e-05ZM50.516 109.498C50.5103 109.451 50.5045 109.398 50.5045 109.35V109.327C50.493 109.167 50.4642 109.007 50.4125 108.847C50.2974 108.479 50.0788 108.147 49.7855 107.904C49.4461 107.626 49.0376 107.448 48.6062 107.395C47.1393 107.306 45.7012 107.845 44.6313 108.882L43.5786 110.126C43.5326 110.18 43.4866 110.233 43.4406 110.286L39.5347 114.885C39.2068 115.335 38.6373 115.525 38.1139 115.347C37.5962 115.169 37.2395 114.671 37.2453 114.102V88.5284C37.2107 87.1774 36.1408 86.0989 34.8293 86.0989C33.5177 86.0989 32.4477 87.1774 32.419 88.5284V103.928C32.396 104.633 31.8323 105.19 31.1477 105.19C30.4632 105.19 29.8995 104.633 29.8765 103.928V84.1142C29.8419 82.7691 28.772 81.6906 27.4662 81.6906C26.1547 81.6906 25.0847 82.769 25.0502 84.1142V105.95C25.0502 106.667 24.4807 107.254 23.7789 107.254C23.0829 107.254 22.5134 106.667 22.5134 105.95V87.0236C22.4789 85.6785 21.4089 84.6 20.0974 84.6C18.7916 84.6 17.7159 85.6785 17.6872 87.0236V106.128C17.6642 106.833 17.1004 107.39 16.4159 107.39C15.7314 107.39 15.1676 106.833 15.1446 106.128V92.2325C15.1158 90.8815 14.0401 89.8089 12.7344 89.8089C11.4228 89.8089 10.3528 90.8814 10.3184 92.2325V114.11C10.3184 114.187 10.3126 114.264 10.3011 114.341C9.71435 120.652 10.3759 125.493 12.3604 128.752C14.2875 131.904 17.5433 133.628 22.2258 133.824H22.2719C33.4776 134.701 38.1026 128.058 44.5114 118.856C46.1681 116.48 47.9341 113.932 50.0051 111.248C50.3329 110.726 50.5113 110.116 50.5228 109.494L50.516 109.498ZM52.817 108.041L69.0969 108.047C68.7229 106.992 68.6999 105.842 69.0163 104.77C69.2809 103.916 69.7757 103.158 70.4487 102.589C70.7593 102.328 71.1045 102.109 71.4669 101.937H39.7716V108.041H41.9805L42.7743 107.11C42.8261 107.045 42.8894 106.986 42.9527 106.927C44.5749 105.38 46.7607 104.61 48.9639 104.805C49.8555 104.93 50.6954 105.303 51.3914 105.884C52.0587 106.441 52.5524 107.193 52.817 108.041ZM13.8676 87.2602L18.8319 71.1306H12.6135L2.72509 103.253C2.36269 104.373 2.54677 105.6 3.22555 106.554C3.89858 107.508 4.98577 108.065 6.13059 108.047H7.77006V92.2315C7.77006 90.6731 8.46611 89.1976 9.65105 88.2318C10.8418 87.2659 12.3892 86.9104 13.8676 87.2659L13.8676 87.2602ZM22.7033 82.6857V82.6917C23.3246 80.5111 25.2574 79.0178 27.4606 79.0119C30.1758 79.0237 32.3789 81.2814 32.402 84.0781C33.9322 83.1952 35.8017 83.2189 37.3145 84.1315C38.8331 85.0499 39.7594 86.7209 39.7651 88.5282V99.3245H82.0574V79.7287C82.1034 76.9438 84.3066 74.7157 87.0103 74.7157C89.7139 74.7157 91.9171 76.9438 91.9632 79.7287V89.18C93.896 88.066 96.312 88.4097 97.8767 90.0273C98.1988 90.3651 98.4749 90.7443 98.6992 91.1532C100.672 89.571 103.474 89.7488 105.24 91.5739C105.74 92.0894 106.131 92.7116 106.384 93.393C106.471 93.3337 106.563 93.2745 106.655 93.2212L99.8555 71.1316H21.4956L18.0269 82.3901C19.534 81.6731 21.2884 81.7916 22.6979 82.6923L22.7033 82.6857ZM111.544 111.039C111.532 110.962 111.527 110.885 111.527 110.808V97.6589C111.527 96.2842 110.445 95.1702 109.111 95.1702C107.782 95.1702 106.7 96.2842 106.7 97.6589V102.832V102.826C106.7 103.549 106.131 104.136 105.429 104.136C104.727 104.136 104.158 103.549 104.158 102.826V95.1761C104.129 93.8251 103.059 92.7525 101.747 92.7525C100.436 92.7525 99.366 93.825 99.3372 95.1761V102.654C99.3372 103.371 98.7677 103.958 98.066 103.958C97.3642 103.958 96.7947 103.371 96.7947 102.654V93.6296C96.7947 92.2608 95.7132 91.1468 94.3844 91.1468C93.0499 91.1468 91.9684 92.2608 91.9684 93.6296V100.634C91.9684 101.351 91.3989 101.937 90.6971 101.937C89.9953 101.937 89.4316 101.351 89.4316 100.634V79.7287C89.3971 78.3777 88.3271 77.3051 87.0156 77.3051C85.7098 77.3051 84.6341 78.3776 84.6054 79.7287V110.814C84.6054 111.377 84.2545 111.88 83.731 112.058C83.2075 112.236 82.638 112.046 82.3101 111.59L81.2057 110.292C81.1597 110.239 81.1136 110.186 81.0676 110.126L77.2135 105.593C76.1435 104.556 74.7054 104.017 73.2386 104.1C72.8071 104.159 72.3987 104.337 72.0593 104.616C71.7659 104.859 71.5473 105.184 71.4323 105.558C71.2252 106.381 71.3805 107.258 71.8522 107.958C71.9903 108.135 72.1226 108.307 72.2549 108.485C72.2894 108.526 72.3239 108.568 72.3527 108.609C74.205 111.051 75.8215 113.379 77.3458 115.56C83.7483 124.756 88.3732 131.404 99.5854 130.528H99.6314C104.314 130.332 107.57 128.614 109.497 125.455C111.487 122.191 112.149 117.349 111.568 111.045L111.544 111.039ZM82.0618 107.341V101.937H76.108C77.1147 102.346 78.0581 102.921 78.8922 103.632C78.9554 103.691 79.013 103.75 79.0705 103.816L82.0676 107.341L82.0618 107.341ZM114.062 108.046H115.218C116.363 108.064 117.45 107.507 118.123 106.553C118.802 105.599 118.986 104.373 118.624 103.253L108.735 71.13H102.517L109.115 92.5567C111.847 92.5626 114.056 94.8439 114.062 97.6586L114.062 108.046ZM70.7005 25.2081L82.6599 35.5659L70.7005 45.9237C70.1656 46.3859 70.0965 47.2095 70.5452 47.7605C70.9997 48.3057 71.7935 48.3768 72.3284 47.9146L85.4267 36.5731C85.4842 36.5257 85.5417 36.4664 85.5935 36.4072C86.0422 35.8561 85.9789 35.0384 85.4439 34.5703L72.3399 23.217C71.805 22.7548 71.0054 22.8259 70.5567 23.377C70.108 23.928 70.1771 24.7457 70.7121 25.2079L70.7005 25.2081ZM63.6365 18.7552L55.0769 51.7015C54.9791 52.0393 55.0194 52.4066 55.1862 52.7148C55.353 53.0229 55.6349 53.2481 55.9685 53.337C56.2964 53.4258 56.6473 53.3784 56.9464 53.1948C57.2398 53.017 57.4469 52.7207 57.5274 52.377L66.0985 19.4308C66.1906 19.093 66.1503 18.7315 65.9835 18.4234C65.8167 18.1153 65.5348 17.8901 65.2069 17.8012C64.879 17.7123 64.5281 17.7598 64.2347 17.9435C63.9356 18.1212 63.7285 18.4116 63.648 18.7553L63.6365 18.7552ZM49.0195 23.2112L35.9155 34.5646C35.6279 34.8134 35.4611 35.1808 35.4611 35.5719C35.4669 35.9571 35.6337 36.3244 35.9271 36.5674L49.0253 47.9089C49.5603 48.3711 50.3541 48.3 50.8028 47.7548C51.2515 47.2038 51.1824 46.3801 50.6532 45.918L38.6939 35.5602L50.6532 25.2024C51.1824 24.7402 51.2515 23.9166 50.8028 23.3656C50.3541 22.8145 49.5545 22.7431 49.0195 23.2112ZM20.056 11.1706V59.9612H101.292V11.1706H20.056ZM17.5248 61.2703C17.5248 61.614 17.6571 61.9458 17.8987 62.1947C18.1346 62.4377 18.4567 62.5799 18.7961 62.5799H102.558C102.897 62.5799 103.219 62.4377 103.455 62.1947C103.697 61.9459 103.829 61.614 103.829 61.2703V9.85994C103.829 9.51033 103.697 9.1785 103.455 8.93555C103.219 8.6926 102.897 8.55038 102.558 8.55038H18.7902C18.0884 8.55038 17.5189 9.13701 17.5189 9.85992V61.2703L17.5248 61.2703ZM101.298 2.61354H20.0504C16.1388 2.63132 12.9691 5.89634 12.9519 9.92562V68.5111H108.396V9.92562C108.378 5.89634 105.21 2.63129 101.298 2.61354Z" fill="white"/>
</svg>
