<svg width="31" height="30" viewBox="0 0 31 30" fill="none" xmlns="http://www.w3.org/2000/svg">
<path d="M13.9272 19.8214C13.9272 19.2079 14.3722 18.6852 14.9898 18.4963V18.3528C14.9898 18.0804 15.2184 17.8608 15.4984 17.8608C15.7799 17.8608 16.007 18.0819 16.007 18.3528V18.4963C16.4566 18.6339 16.8229 18.9472 16.9833 19.3631C17.0817 19.6179 16.9485 19.9005 16.6851 19.9956C16.4217 20.0908 16.1296 19.962 16.0312 19.7072C15.9616 19.5285 15.7436 19.4041 15.4984 19.4041C15.1972 19.4041 14.9429 19.5944 14.9429 19.8199C14.9429 20.0571 14.9671 20.1186 15.6013 20.2475C16.1129 20.3514 17.0681 20.5462 17.0681 21.6385C17.0681 22.252 16.6231 22.7732 16.007 22.9621V23.1056C16.007 23.378 15.7784 23.5976 15.4984 23.5976C15.2169 23.5976 14.9898 23.3765 14.9898 23.1056V22.9621C14.5402 22.8245 14.1739 22.5111 14.0135 22.0953C13.9151 21.8405 14.0483 21.5579 14.3117 21.4627C14.5751 21.3676 14.8672 21.4964 14.9656 21.7512C15.0352 21.9298 15.2532 22.0543 15.4969 22.0543C15.7966 22.0543 16.0494 21.8639 16.0494 21.6384C16.0494 21.4012 16.0252 21.3397 15.391 21.2109C14.8793 21.1069 13.9242 20.9122 13.9242 19.8199L13.9272 19.8214ZM31.0001 20.7292L30.9047 20.9313C29.7604 23.3765 27.7094 25.4687 24.9725 26.9801C22.1934 28.5146 18.9193 29.3243 15.5 29.3243C12.0822 29.3243 8.8052 28.5131 6.02605 26.9801C3.28933 25.469 1.23848 23.3781 0.0953599 20.9313L0 20.7292L0.0953599 20.5272C1.23817 18.0819 3.28921 15.9908 6.02605 14.4799C8.80516 12.9453 12.0807 12.1356 15.5 12.1356C18.9193 12.1356 22.1933 12.9468 24.9725 14.4799C27.7092 15.9909 29.76 18.0819 30.9047 20.5272L31.0001 20.7292ZM15.5001 17.1316C13.449 17.1316 11.781 18.7452 11.781 20.7292C11.781 21.7366 12.2229 22.7059 12.9919 23.3883C13.6791 23.9945 14.5691 24.3283 15.5001 24.3283C17.5511 24.3283 19.2192 22.7133 19.2192 20.7292C19.2192 18.7437 17.5511 17.1316 15.5001 17.1316ZM14.9915 13.1358C10.8894 13.3906 7.63363 16.6983 7.63363 20.7293C7.63363 22.6504 8.37383 24.4075 9.59232 25.7488L11.8114 23.6023C11.1393 22.7925 10.7654 21.7779 10.7654 20.7295C10.7654 18.3691 12.6197 16.4218 14.9931 16.1744V13.1361L14.9915 13.1358ZM10.1795 27.6081C8.01799 26.0384 6.61632 23.5392 6.61632 20.729C6.61632 17.9188 8.01648 15.4212 10.1795 13.8514C6.08208 15.0155 2.72323 17.4914 1.12014 20.729C2.7216 23.9678 6.08208 26.4438 10.1795 27.6081ZM15.4999 28.3402C19.6671 28.3402 23.0864 25.1892 23.3499 21.2212H20.209C19.9547 23.5185 17.94 25.3122 15.5001 25.3122C14.4132 25.3122 13.3703 24.9535 12.5302 24.299L10.3112 26.4455C11.6977 27.6257 13.5141 28.3417 15.5002 28.3417L15.4999 28.3402ZM29.8796 20.729C28.2766 17.4916 24.9177 15.0157 20.8218 13.8514C22.9833 15.4211 24.3835 17.9192 24.3835 20.729C24.3835 23.5374 22.9833 26.0383 20.8218 27.6081C24.9177 26.444 28.2781 23.968 29.8812 20.729H29.8796ZM23.7219 7.98441H24.6331V13.1838C24.9192 13.3229 25.2007 13.4694 25.4777 13.6216C26.6675 14.2791 27.7376 15.0405 28.6716 15.8912V7.9843H29.5828C29.7781 7.9843 29.9567 7.87594 30.0415 7.70463C30.1262 7.53478 30.102 7.33126 29.9794 7.18338L27.0474 3.64581C26.9506 3.52868 26.8052 3.46132 26.6509 3.46132C26.4965 3.46132 26.3512 3.52868 26.2543 3.64581L23.3238 7.18338C23.2012 7.33126 23.177 7.53332 23.2618 7.70463C23.3465 7.87448 23.5251 7.98283 23.7204 7.98283L23.7219 7.98441ZM1.41658 7.98441H2.32782V15.8898C3.26022 15.0406 4.33042 14.2792 5.52016 13.6217C5.79716 13.4694 6.07871 13.323 6.36631 13.1824V7.98452H7.27755C7.47282 7.98452 7.65143 7.87617 7.7362 7.70485C7.82096 7.53501 7.79675 7.33148 7.67414 7.1836L4.74216 3.64604C4.64528 3.5289 4.49997 3.46155 4.34559 3.46155C4.19119 3.46155 4.04588 3.5289 3.94902 3.64604L1.01855 7.1836C0.895943 7.33149 0.871724 7.53355 0.95649 7.70485C1.04126 7.8747 1.21987 7.98306 1.41513 7.98306L1.41658 7.98441ZM12.5692 4.52151H13.4789V11.2379C14.145 11.1779 14.82 11.1471 15.4982 11.1471C16.1778 11.1471 16.8499 11.1779 17.5159 11.2379V4.52151H18.4271C18.6224 4.52151 18.801 4.41316 18.8858 4.24331C18.9705 4.07346 18.9463 3.86993 18.8237 3.72206L15.8932 0.184493C15.7964 0.0673553 15.6511 0 15.4967 0C15.3423 0 15.197 0.0673553 15.1001 0.184493L12.1696 3.72206C12.047 3.86994 12.0228 4.072 12.1076 4.24331C12.1923 4.41316 12.371 4.52151 12.5662 4.52151H12.5692Z" fill="white"/>
</svg>
