<svg width="32" height="32" viewBox="0 0 32 32" fill="none" xmlns="http://www.w3.org/2000/svg">
<path d="M11.2345 4.02803C10.9157 4.08427 10.7563 4.12571 10.4521 4.2234C9.53922 4.52237 8.72201 5.10552 8.12793 5.87516C7.72512 6.39911 7.42374 7.02666 7.26146 7.67198C7.15423 8.10712 7.14844 8.17224 7.14844 8.86492C7.14844 9.54872 7.18611 9.79441 7.36578 10.3628C7.4759 10.7032 7.77149 11.31 7.97724 11.6179C8.8756 12.9529 10.3188 13.7344 11.8836 13.7344C12.9385 13.7344 13.9585 13.3614 14.8134 12.6658C15.7031 11.9405 16.3319 10.8541 16.5435 9.67896C16.6217 9.24678 16.6101 8.35281 16.5232 7.90287C16.2885 6.69513 15.5901 5.59099 14.6106 4.87463C14.0571 4.47501 13.292 4.15235 12.6168 4.03987C12.3386 3.99251 11.475 3.98659 11.2345 4.02803ZM12.5009 5.02856C14.1614 5.32162 15.3988 6.65368 15.619 8.3913C15.6799 8.87972 15.6161 9.53984 15.4626 10.0431C15.0366 11.4166 13.8803 12.4349 12.469 12.6806C11.9474 12.7694 11.249 12.722 10.7448 12.5592C10.4897 12.4793 10.0116 12.2454 9.80293 12.0974C8.88429 11.461 8.27573 10.4516 8.13083 9.31782C7.899 7.49733 8.98861 5.74196 10.7042 5.17953C11.3098 4.9812 11.9242 4.92791 12.5009 5.02856Z" fill="white"/>
<path d="M20.9634 11.8963C20.4736 12.1449 19.9317 12.4528 19.4796 12.7429C19.0131 13.0419 18.222 13.5362 17.425 14.0276L16.744 14.445H12.1305C8.10822 14.445 7.47068 14.4509 7.18959 14.4923C6.32021 14.6137 5.66238 14.9867 4.9495 15.7504C4.48293 16.2507 4.19024 16.8101 4.04535 17.4851C4.00188 17.6893 3.99608 17.8995 4.00188 19.3736C4.00478 20.2854 4.01927 21.869 4.03086 22.8962C4.05694 24.9831 4.05114 24.9328 4.26559 25.2259C4.39599 25.4005 4.65391 25.5781 4.88864 25.6521C4.97268 25.6788 5.23059 25.7084 5.4972 25.7232C5.75222 25.738 8.72838 25.7498 12.1131 25.7498L18.2654 25.7528L18.3553 25.8593C18.4973 26.0221 19.0855 26.5461 19.4072 26.7947C19.8245 27.1144 20.0679 27.2743 20.633 27.6029C21.4821 28.0913 21.5024 28.0943 22.0646 27.8012C23.3976 27.1026 24.5858 26.0991 25.6986 24.7286C26.4752 23.7754 26.9795 22.8518 27.3707 21.6678C27.4692 21.3747 27.6923 20.5163 27.7213 20.3209C27.7271 20.2706 27.7561 20.1255 27.7822 19.9953C27.9126 19.3292 27.9995 17.9676 27.9995 16.5467C27.9995 15.6054 27.9937 15.484 27.9474 15.3922C27.8923 15.2797 27.7735 15.1998 26.8983 14.6966C26.6201 14.5367 26.2753 14.3355 26.1304 14.2496C25.9884 14.1638 25.5189 13.8914 25.0871 13.6457C23.473 12.7133 22.792 12.3196 22.65 12.2308C22.5659 12.1834 22.3109 12.0413 22.082 11.917C21.5256 11.618 21.514 11.618 20.9634 11.8963ZM22.0704 12.9235C22.3602 13.0803 22.9919 13.4444 23.4788 13.7286C24.7249 14.4598 25.1074 14.6818 25.5595 14.9364C25.7768 15.0607 26.2202 15.3153 26.5448 15.5018L27.1301 15.8422V16.5881C27.1301 18.8526 26.9302 20.3268 26.4433 21.6678C26.0637 22.7097 25.742 23.2633 24.8669 24.3615C24.6061 24.6901 23.7077 25.6048 23.3918 25.8623C22.8557 26.3004 21.6473 27.0848 21.5082 27.0848C21.456 27.0848 20.52 26.5046 20.0882 26.2027C19.4478 25.7587 19.0421 25.3798 18.5059 24.7315C17.5902 23.6155 16.8599 22.1414 16.4832 20.6435C16.2108 19.569 16.0601 18.1333 16.0601 16.6503V15.8807L16.5238 15.6054C16.9845 15.3301 18.9059 14.143 20.4302 13.1899C20.7779 12.9738 21.4184 12.6393 21.4908 12.6393C21.5227 12.6393 21.7835 12.7666 22.0704 12.9235ZM10.3512 15.5166C10.4208 15.7978 10.4758 15.9843 10.5686 16.2832L10.6671 16.5941L10.583 17.1269C10.5396 17.417 10.4932 17.71 10.4816 17.7752C10.4642 17.8936 10.4584 17.938 10.4092 18.234C10.3947 18.3228 10.3773 18.4441 10.3686 18.5004C10.3251 18.8112 10.1107 20.1551 10.018 20.7205C9.8122 21.9401 9.8151 21.9579 10.2904 22.4374C10.4439 22.5913 10.7917 22.9495 11.0612 23.2337C11.3336 23.5149 11.5944 23.7665 11.6466 23.7872C11.8552 23.879 12.1798 23.7991 12.2986 23.6244C12.3363 23.5711 13.1274 22.7216 13.5157 22.316C13.623 22.2035 13.7389 22.0585 13.7708 21.9904C13.878 21.7802 13.878 21.7832 13.5273 19.6519C13.3187 18.3879 13.3274 18.4441 13.2491 17.9528C13.0463 16.7065 13.0492 16.7243 13.1042 16.5615C13.1709 16.3809 13.394 15.5106 13.394 15.4426C13.394 15.3952 13.4752 15.3922 14.3098 15.3922C15.1704 15.3922 15.2255 15.3952 15.2023 15.4426C15.1473 15.5728 15.1994 18.1837 15.2632 18.4412C15.269 18.4649 15.2835 18.6395 15.2922 18.826C15.3037 19.0125 15.3153 19.1723 15.3211 19.1812C15.3269 19.1901 15.3385 19.276 15.3472 19.3736C15.3762 19.6371 15.5037 20.312 15.5877 20.6317C15.6283 20.7856 15.6921 21.0313 15.7326 21.1793C16.0137 22.2479 16.5904 23.4912 17.2483 24.4533L17.4772 24.7907L11.8205 24.7996C8.71099 24.8055 5.93769 24.7996 5.66238 24.7878C5.2161 24.773 5.15235 24.7641 5.06831 24.7049C4.99007 24.6516 4.97268 24.6161 4.95239 24.4799C4.9408 24.3911 4.93501 22.837 4.93791 21.0313L4.9466 17.7456L5.03064 17.4939C5.21321 16.9345 5.52039 16.4786 5.96087 16.1056C6.43613 15.703 6.88241 15.4958 7.43301 15.4248C7.53154 15.41 8.22124 15.3981 8.96601 15.3952L10.3193 15.3922L10.3512 15.5166ZM12.1131 15.5994C12.3798 15.7652 12.3942 16.1826 12.145 16.378C12.0001 16.4875 11.9277 16.4993 11.7828 16.4431C11.5394 16.3484 11.409 16.1027 11.4785 15.8659C11.5133 15.7504 11.6292 15.6083 11.7277 15.5669C11.8349 15.5254 12.0146 15.5373 12.1131 15.5994ZM12.003 17.4229L12.2204 17.4081L12.2899 17.7988C12.3247 18.0149 12.4522 18.7609 12.5681 19.4624C12.6869 20.161 12.8028 20.8419 12.826 20.9721C12.8521 21.1024 12.884 21.2918 12.8956 21.3954L12.9217 21.579L12.658 21.869C12.5131 22.0259 12.2783 22.2805 12.1334 22.4315L11.8726 22.7068L11.351 22.171C10.9656 21.7773 10.8265 21.6145 10.8207 21.5553C10.8178 21.5109 10.896 20.9632 11.0003 20.3357C11.1047 19.7081 11.1945 19.1487 11.2032 19.0924C11.2322 18.9 11.3945 17.8936 11.4408 17.6242L11.4872 17.3548L11.635 17.3963C11.7335 17.4259 11.861 17.4347 12.003 17.4229Z" fill="white"/>
<path d="M24.3915 16.9898C24.2553 17.0342 24.18 17.1141 23.7482 17.6706C23.525 17.9548 23.0324 18.5883 22.6528 19.0767C22.2731 19.5651 21.7602 20.2252 21.511 20.542C21.2646 20.8587 21.0589 21.1251 21.0502 21.134C21.0357 21.1518 21.0502 21.1695 20.3286 20.2578C19.3839 19.0678 19.3752 19.056 19.2564 18.9908C19.1405 18.9316 18.8942 18.9287 18.784 18.9879C18.6102 19.0796 18.5174 19.3017 18.5725 19.5C18.5812 19.5385 18.8826 19.9322 19.239 20.3732C19.5954 20.8173 20.0852 21.4241 20.3286 21.7231C20.7807 22.2855 20.8531 22.3477 21.0502 22.3477C21.1806 22.3477 21.3052 22.2648 21.4704 22.0605C21.6211 21.877 22.6875 20.5183 23.7337 19.1803C24.0814 18.7333 24.49 18.2182 24.6378 18.0406C24.7856 17.8601 24.9305 17.6736 24.9595 17.6262C25.0696 17.4456 25.0059 17.1911 24.8117 17.0431C24.7248 16.9779 24.5103 16.9513 24.3915 16.9898Z" fill="white"/>
</svg>
