<svg width="38" height="36" viewBox="0 0 38 36" fill="none" xmlns="http://www.w3.org/2000/svg">
<path d="M23.0232 6.00315L25.5559 1.61781V1.61934C25.7245 1.32669 26.0983 1.22709 26.391 1.39717C26.6837 1.56571 26.7848 1.93804 26.6162 2.23223L24.0835 6.61757V6.61604C23.9149 6.90869 23.5411 7.00829 23.2484 6.83821C22.9558 6.66967 22.8562 6.29581 23.0232 6.00315ZM18.9995 6.28662C19.3381 6.28662 19.6124 6.01235 19.6124 5.67373V0.61136C19.6124 0.272739 19.3381 0 18.9995 0C18.6609 0 18.3866 0.272735 18.3866 0.61136V5.67373C18.3866 5.83614 18.4525 5.99243 18.5674 6.10736C18.6808 6.22228 18.8371 6.28662 18.9995 6.28662ZM13.9156 6.61604C14.0856 6.9087 14.4595 7.00829 14.7506 6.83822C15.0433 6.66967 15.1444 6.29582 14.9759 6.00316L12.4446 1.61938C12.2746 1.32673 11.9007 1.22713 11.608 1.39721C11.3154 1.56575 11.2158 1.93808 11.3828 2.23227L13.9156 6.61604ZM37.953 23.3984C37.8641 23.7416 37.6404 24.0328 37.3324 24.209L34.1454 26.0476L34.1439 26.0492C33.9432 26.1656 33.7148 26.2284 33.482 26.2284C33.3655 26.2284 33.2491 26.2131 33.1357 26.1825C32.7925 26.0921 32.4998 25.8684 32.3236 25.5604L32.1137 25.1973C31.7827 25.4869 31.3936 25.7044 30.9737 25.8362C31.1239 26.1059 31.2082 26.4062 31.2189 26.7142C31.2449 27.5109 30.8512 28.2632 30.1816 28.6953C29.7572 28.9665 29.2439 29.0646 28.7505 28.9681C28.7413 29.319 28.6494 29.6622 28.4839 29.9717C28.1162 30.6581 27.3945 31.1668 26.5472 31.1178C26.5456 31.1484 26.5441 31.1806 26.5426 31.2113C26.4706 32.1199 25.6968 33.0469 24.7422 33.3671C24.4894 33.456 24.2213 33.4943 23.9531 33.482C23.9026 34.0244 23.6559 34.5285 23.2575 34.8993C22.8913 35.2426 22.4087 35.4356 21.9061 35.4356C21.5506 35.4326 21.1997 35.3437 20.8872 35.1751L18.3529 33.8482C18.2962 33.8191 18.2364 33.7946 18.1767 33.7716L18.1721 33.7701L17.4872 34.8411C17.0628 35.5015 16.456 35.7788 15.8569 35.7788C15.031 35.7697 14.2833 35.287 13.934 34.5377C13.698 34.6389 13.4437 34.6894 13.1863 34.6894C12.7603 34.6864 12.3451 34.5576 11.9911 34.3202C11.4349 33.9509 11.0396 33.3288 11.0381 32.6286C11.0044 32.6286 10.9691 32.627 10.9354 32.6255C10.1632 32.5704 9.47673 32.1153 9.12739 31.4258C8.8899 30.9539 8.85772 30.4053 9.03852 29.9073C8.395 29.7894 7.84032 29.3818 7.5339 28.8026C7.21213 28.1821 7.2581 27.4681 7.65954 26.8429L7.90623 26.4568L5.93733 25.3398L5.67532 25.7918C5.43476 26.2039 4.99347 26.4583 4.51544 26.4583C4.28408 26.4583 4.05576 26.397 3.85505 26.2805L0.666496 24.4388C0.0290906 24.0711 -0.18849 23.2575 0.177714 22.6201L6.26228 12.0815C6.44002 11.7766 6.73114 11.5529 7.07283 11.461C7.41451 11.3706 7.77919 11.4196 8.08561 11.5958L11.2711 13.4345C11.907 13.8037 12.1246 14.6173 11.7584 15.2547L11.3079 16.0347L13.9648 17.6573L15.2028 16.1097C17.0644 13.7823 20.3601 14.6281 23.5459 15.4447C24.6813 15.7359 25.8427 16.0331 26.903 16.171L26.2411 15.0234L26.2426 15.0249C25.8734 14.3875 26.0925 13.5724 26.7284 13.2047L29.9169 11.3629C30.5543 10.9983 31.3664 11.2158 31.7357 11.8502L37.8202 22.3887C37.998 22.6936 38.047 23.0583 37.9535 23.3985L37.953 23.3984ZM9.94717 15.9394C9.95024 15.9348 9.95177 15.9318 9.95483 15.9272L10.6964 14.6416V14.6432C10.7117 14.6171 10.7148 14.588 10.7071 14.5604C10.701 14.5328 10.6826 14.5099 10.6596 14.4961L7.47109 12.6574V12.6559C7.45424 12.6467 7.43585 12.6406 7.41746 12.6406C7.40827 12.6406 7.39754 12.6421 7.38835 12.6452C7.36077 12.6513 7.33779 12.6697 7.324 12.6942L1.23786 23.2312C1.21028 23.2833 1.22867 23.3476 1.2777 23.3783L4.46625 25.22H4.46778C4.51988 25.2476 4.58577 25.2292 4.61488 25.1771L5.17262 24.2118C5.17415 24.2072 5.17721 24.2041 5.17875 24.1995L9.94717 15.9394ZM9.92266 28.4545L10.2199 28.0056L10.8113 27.0816C11.2051 26.4642 10.678 26.0826 10.5677 26.0121H10.5708C10.4972 25.9662 10.416 25.9294 10.3333 25.9034C10.3241 25.9018 10.3164 25.8988 10.3072 25.8972C10.0131 25.8497 9.7204 25.983 9.48595 26.2604L8.68921 27.503C8.52373 27.7604 8.50075 28.0087 8.62026 28.24H8.62179C8.77195 28.5143 9.05084 28.6935 9.36338 28.715C9.58249 28.7257 9.79242 28.6276 9.92418 28.453L9.92266 28.4545ZM13.505 28.309C13.5157 28.2936 13.5264 28.2783 13.5372 28.263L13.8068 27.8569H13.8084C13.9294 27.6915 13.9846 27.4861 13.9601 27.2824C13.9172 27.0939 13.8191 26.9238 13.6797 26.7905C13.5203 26.6465 13.3181 26.5592 13.1051 26.5408C13.0882 26.5392 13.0714 26.5392 13.0561 26.5392C12.7971 26.5392 12.5796 26.6695 12.4095 26.9269L11.2465 28.6751L11.0351 29.0061C10.9968 29.0643 10.957 29.121 10.9156 29.1747L10.3088 30.0878C10.1265 30.3621 10.0989 30.6287 10.2245 30.8815L10.223 30.88C10.3808 31.1772 10.6765 31.3734 11.0106 31.4025C11.291 31.4209 11.5254 31.2906 11.7077 31.0163L11.9452 30.6593L13.505 28.309ZM14.9177 31.4148V31.4133C14.9637 31.3428 15.0127 31.2738 15.0663 31.2079L15.9244 29.9147V29.9132C16.0301 29.7692 16.0853 29.5945 16.0853 29.4152C16.0608 29.2789 16.0117 29.1486 15.9397 29.0291C15.9152 28.9877 15.8876 28.9494 15.8585 28.9111C15.8064 28.8544 15.7482 28.8039 15.6838 28.761C15.5306 28.6614 15.3529 28.6062 15.1705 28.6001C14.9729 28.6001 14.7477 28.6782 14.5546 28.9433L12.9871 31.3014L12.4263 32.1456C11.982 32.8167 12.5949 33.2519 12.6669 33.2994C12.7389 33.3469 13.3794 33.7453 13.8252 33.0742L14.5975 31.9112L14.9177 31.4148ZM17.3999 32.3847C17.3662 32.2453 17.3003 32.115 17.2084 32.0047C17.1532 31.9434 17.0904 31.8913 17.0214 31.8469C16.8835 31.7565 16.7227 31.7059 16.5572 31.7029C16.358 31.7029 16.1695 31.7917 16.0454 31.948L15.6256 32.5793L15.1383 33.3393C14.7446 33.9552 15.2716 34.3383 15.382 34.4073C15.4923 34.4777 16.0592 34.798 16.4561 34.1805L17.2635 32.9179V32.9164C17.3739 32.7616 17.4229 32.5716 17.3999 32.3847ZM29.9946 26.7646C29.9824 26.4658 29.8215 26.2344 29.515 26.0735C29.253 25.9372 28.9926 25.7977 28.7321 25.6568C28.608 25.6016 28.4869 25.5403 28.3705 25.4729L27.9859 25.2507C26.3188 24.3329 24.6625 23.36 23.049 22.4115C22.2737 21.9564 21.4739 21.4845 20.6879 21.031V21.0295C20.4351 20.8885 20.1608 20.7889 19.8758 20.7368C19.6659 20.7031 19.4499 20.7 19.2384 20.7307C18.8461 20.8012 18.4754 20.9651 18.1597 21.2103L14.9757 23.8028L14.9742 23.8043C14.962 23.8151 14.9466 23.8227 14.9344 23.8319C14.9221 23.8411 14.9099 23.8503 14.8976 23.858H14.8961C14.8777 23.8687 14.8578 23.8779 14.8378 23.8871C14.8302 23.8901 14.8225 23.8947 14.8149 23.8993L14.8133 23.8978C14.7857 23.9085 14.7566 23.9177 14.7291 23.9254H14.726C14.608 23.953 14.4854 23.9453 14.3721 23.9024C14.3705 23.9024 14.369 23.9009 14.3675 23.9009C14.3521 23.8947 14.3368 23.8871 14.323 23.8794C14.3092 23.8733 14.2954 23.8687 14.2832 23.861C12.2944 22.7211 11.2831 22.1403 11.2831 22.1403C11.2678 22.1312 11.2525 22.122 11.2387 22.1112C11.2356 22.1082 11.231 22.1066 11.2279 22.1036C11.2157 22.0944 11.2034 22.0837 11.1912 22.0729C11.1866 22.0683 11.182 22.0653 11.1774 22.0607C11.1667 22.0515 11.1575 22.0408 11.1467 22.03C11.1421 22.0239 11.136 22.0193 11.1314 22.0132C11.1222 22.004 11.1161 21.9933 11.1084 21.9841C11.1023 21.9764 11.0962 21.9703 11.0916 21.9626C11.0855 21.955 11.0809 21.9458 11.0747 21.9366C11.0686 21.9274 11.0609 21.9166 11.0563 21.9074C11.0517 21.8998 11.0487 21.8921 11.0456 21.8845C11.0395 21.8722 11.0334 21.8615 11.0272 21.8492C11.0242 21.8416 11.0211 21.8324 11.018 21.8232C11.0134 21.8109 11.0088 21.7987 11.0042 21.7864C11.0012 21.7787 11.0012 21.7711 10.9981 21.7634C10.995 21.7496 10.9905 21.7358 10.9874 21.7221C10.9859 21.7144 10.9859 21.7083 10.9843 21.7006C10.9828 21.6853 10.9797 21.6715 10.9782 21.6562V21.6362C10.9782 21.6209 10.9767 21.6056 10.9767 21.5903C10.9767 21.5872 10.9782 21.5826 10.9782 21.5796C10.9797 21.5612 10.9797 21.5428 10.9828 21.5259C10.9843 21.5198 10.9859 21.5137 10.9859 21.5075C10.9889 21.4922 10.9905 21.4769 10.995 21.4616C10.9981 21.4524 11.0012 21.4417 11.0042 21.4325C11.0073 21.4217 11.0104 21.4095 11.015 21.3988C11.018 21.3896 11.0226 21.3819 11.0257 21.3742C11.0303 21.362 11.0349 21.3497 11.041 21.339C11.0425 21.3344 11.0456 21.3313 11.0487 21.3267C11.0563 21.3114 11.064 21.2961 11.0747 21.2823C11.0763 21.2792 11.0778 21.2777 11.0793 21.2746C11.09 21.2593 11.1008 21.2425 11.113 21.2271L13.1969 18.6224L10.6947 17.0948L6.54866 24.2776L8.57428 25.4268V25.4283C9.04007 24.7756 9.86901 24.4891 10.6382 24.7158C11.1668 24.8446 11.6264 25.174 11.916 25.6352C12.5213 25.2567 13.2751 25.2062 13.9263 25.4988C14.2052 25.6245 14.4534 25.8068 14.6572 26.0351C14.6802 26.0596 14.7001 26.0841 14.7216 26.1102C14.7231 26.1117 14.7231 26.1133 14.7246 26.1133V26.1148C14.8273 26.2389 14.9161 26.3737 14.9897 26.5177C15.0755 26.6909 15.1352 26.8748 15.1659 27.0647C15.1827 27.1429 15.195 27.2226 15.2042 27.3022C15.8048 27.3344 16.3656 27.6133 16.7548 28.0714C17.0919 28.4223 17.2911 28.8835 17.3141 29.3707C17.3493 29.7339 17.2911 30.1001 17.1455 30.4356C17.6006 30.6547 17.9944 30.9857 18.287 31.3978C18.3361 31.4668 18.379 31.5388 18.4188 31.6139C18.4188 31.6154 18.4204 31.6154 18.4204 31.6169C18.4326 31.6399 18.4433 31.6644 18.4541 31.6874C18.5966 31.9847 18.664 32.3126 18.6502 32.642C18.7421 32.6772 18.8325 32.7171 18.9214 32.763L21.4557 34.0899C21.9399 34.3443 22.2708 34.1436 22.4241 34.0011C22.6478 33.7927 22.8332 33.3851 22.683 32.8825L21.7499 32.2942C21.6135 32.2084 21.5155 32.0705 21.4802 31.9126C21.4434 31.7533 21.4726 31.5878 21.5584 31.4499C21.7392 31.1634 22.1176 31.0776 22.4041 31.2584L23.5134 31.957H23.515V31.9586C23.5318 31.9693 23.5487 31.9816 23.564 31.9938C23.5655 31.9954 23.5671 31.9969 23.5686 31.9984C23.5824 32.0091 23.5947 32.0199 23.6069 32.0321C23.6146 32.0383 23.6207 32.0459 23.6284 32.0536C23.633 32.0597 23.6391 32.0643 23.6437 32.0689C23.708 32.1409 23.9026 32.3585 24.3516 32.2068C24.8434 32.0413 25.2878 31.5418 25.3215 31.1143C25.3292 31.0132 25.3537 30.7037 24.8113 30.4187C24.8067 30.4156 24.8021 30.4126 24.7975 30.411C24.7944 30.4095 24.7929 30.408 24.7898 30.4064L22.4685 29.0673C22.3275 28.986 22.2248 28.8527 22.1819 28.6949C22.1406 28.5386 22.162 28.3716 22.2432 28.2307C22.4133 27.938 22.7872 27.8369 23.0798 28.0054L25.3904 29.3384L26.2148 29.7721C26.7817 30.0693 27.2092 29.7537 27.4022 29.3936C27.5953 29.032 27.6167 28.4972 27.0375 28.1816C27.0345 28.1801 27.0329 28.1786 27.0299 28.177C27.0283 28.1755 27.0268 28.1755 27.0238 28.174L23.0585 25.8833C22.9175 25.8021 22.8149 25.6688 22.7735 25.511C22.7306 25.3547 22.7536 25.1877 22.8348 25.0467C23.0033 24.7541 23.3787 24.6529 23.6714 24.823L27.6276 27.1076L28.6848 27.6591C28.9913 27.82 29.2747 27.82 29.5276 27.6607H29.526C29.8248 27.4615 30.0008 27.1231 29.9946 26.7646ZM31.4855 24.1092L27.6519 17.4684C26.2683 17.4072 24.7315 17.0134 23.2422 16.6319C20.3034 15.878 17.5271 15.1655 16.1602 16.8755L14.225 19.2933C14.1422 19.3975 14.0457 19.5186 13.9354 19.6565C13.5906 20.087 13.1141 20.6831 12.5135 21.4338L14.5268 22.5891C14.985 22.2153 15.9273 21.4492 17.3522 20.2893L17.3997 20.2509V20.2494C17.9988 19.7545 18.7527 19.4818 19.5295 19.4787C20.1363 19.4833 20.7292 19.6427 21.2548 19.9445C21.2624 19.9491 21.2701 19.9522 21.2778 19.9568C21.2824 19.9598 21.287 19.9614 21.2916 19.9644H21.2931L28.5866 24.1827C28.8149 24.3083 29.0447 24.434 29.273 24.5581C30.0697 24.9028 30.8374 24.7588 31.4625 24.1352L31.4855 24.1092ZM36.7593 23.003L30.6763 12.4644C30.6564 12.4307 30.6196 12.4108 30.5798 12.4108C30.5614 12.4108 30.5445 12.4154 30.5277 12.4246L27.3406 14.2663V14.2648C27.3161 14.2801 27.2977 14.3031 27.2916 14.3306C27.2839 14.3582 27.287 14.3858 27.3008 14.4103L33.3854 24.9489C33.3992 24.9734 33.4237 24.9918 33.4513 24.9994C33.4773 25.0056 33.5064 25.0025 33.5309 24.9887L36.721 23.1485C36.7455 23.1347 36.7624 23.1102 36.77 23.0826C36.7777 23.0566 36.7746 23.0275 36.7593 23.003Z" fill="white"/>
</svg>
