<svg width="28" height="27" viewBox="0 0 28 27" fill="none" xmlns="http://www.w3.org/2000/svg">
<path d="M17.8334 13.7748H9.25152C8.88109 13.7748 8.58105 13.4324 8.58105 13.0098C8.58105 9.88892 10.807 7.34961 13.5423 7.34961C16.2775 7.34961 18.5035 9.88917 18.5035 13.0098C18.5035 13.4324 18.2039 13.7748 17.8334 13.7748ZM9.98398 12.2449H17.101C16.7859 10.3306 15.3108 8.87922 13.5425 8.87922C11.7758 8.87922 10.2991 10.3306 9.98398 12.2449Z" fill="white" fill-opacity="0.7"/>
<path d="M24.2688 13.7725H2.81402C2.44359 13.7725 2.14355 13.4302 2.14355 13.0076V11.3802C2.14355 11.0207 2.36145 10.7109 2.66821 10.6325L4.63768 10.1334C4.83379 9.34359 5.11204 8.58439 5.46905 7.86538L4.38292 5.91289C4.21363 5.61075 4.25218 5.21489 4.47511 4.96248L6.49152 2.66006C6.71277 2.40572 7.05973 2.36173 7.32456 2.55488L9.03425 3.79404C9.6561 3.38863 10.3232 3.07116 11.0238 2.84553L11.4613 0.598577C11.5284 0.248625 11.8016 0 12.115 0H14.9678C15.2829 0 15.5545 0.2486 15.6232 0.598577L16.0606 2.84553C16.7612 3.07118 17.4267 3.38864 18.0502 3.79404L19.7599 2.55488C20.0231 2.36174 20.37 2.40381 20.5929 2.66006L22.611 4.96248C22.8323 5.2149 22.8708 5.61074 22.7032 5.91289L21.6171 7.86538C21.9741 8.58444 22.2524 9.34359 22.4485 10.1334L24.4179 10.6325C24.7247 10.7109 24.9426 11.0207 24.9426 11.3802V13.0076C24.9426 13.4302 24.6425 13.7725 24.2721 13.7725H24.2688ZM3.48427 12.2426H23.5981V11.994L21.7527 11.5274C21.5013 11.4624 21.3035 11.2406 21.2448 10.9537C21.0504 10.0033 20.7185 9.09874 20.2575 8.26307C20.1201 8.01256 20.1201 7.6951 20.2592 7.44459L21.28 5.61258L20.0229 4.17834L18.4171 5.34294C18.1992 5.50357 17.9176 5.50166 17.6964 5.34294C16.9806 4.82279 16.1878 4.44417 15.3413 4.21848C15.0899 4.15155 14.8938 3.92781 14.8385 3.63905L14.4295 1.53357H12.6528L12.2438 3.63905C12.1885 3.92589 11.9924 4.15156 11.741 4.21848C10.8945 4.44414 10.1017 4.82088 9.38594 5.34294C9.16637 5.50357 8.88643 5.50357 8.66519 5.34294L7.05943 4.17834L5.8023 5.61258L6.82308 7.44459C6.9622 7.69319 6.9622 8.01257 6.82476 8.26307C6.36382 9.09683 6.03192 10.0033 5.83749 10.9537C5.77883 11.2406 5.58104 11.4624 5.32962 11.5274L3.48416 11.994L3.48427 12.2426Z" fill="white" fill-opacity="0.7"/>
<path d="M13.5435 20.9606C13.1731 20.9606 12.873 20.6183 12.873 20.1957V13.0091C12.873 12.5864 13.1731 12.2441 13.5435 12.2441C13.9139 12.2441 14.214 12.5864 14.214 13.0091V20.1957C14.214 20.6183 13.9139 20.9606 13.5435 20.9606Z" fill="white" fill-opacity="0.7"/>
<path d="M13.5435 26.0133C11.9914 26.0133 10.7275 24.5714 10.7275 22.8006C10.7275 21.0279 11.9914 19.5879 13.5435 19.5879C15.0973 19.5879 16.3594 21.0298 16.3594 22.8006C16.3594 24.5733 15.0956 26.0133 13.5435 26.0133ZM13.5435 21.1177C12.7306 21.1177 12.0685 21.8731 12.0685 22.8006C12.0685 23.728 12.7306 24.4834 13.5435 24.4834C14.3564 24.4834 15.0185 23.728 15.0185 22.8006C15.0185 21.8731 14.3564 21.1177 13.5435 21.1177Z" fill="white" fill-opacity="0.7"/>
<path d="M4.96184 22.3411C4.7892 22.3411 4.61655 22.2666 4.4858 22.1155C4.226 21.8153 4.22767 21.3314 4.48915 21.0331L7.27493 17.8797V13.0091C7.27493 12.5864 7.57497 12.2441 7.94539 12.2441C8.31582 12.2441 8.61586 12.5864 8.61586 13.0091V18.1974C8.61586 18.402 8.54378 18.597 8.41807 18.7405L5.43452 22.1195C5.30378 22.2668 5.13283 22.3411 4.96184 22.3411Z" fill="white" fill-opacity="0.7"/>
<path d="M2.81594 26.0133C1.26382 26.0133 0 24.5714 0 22.8006C0 21.0279 1.26382 19.5879 2.81594 19.5879C4.36807 19.5879 5.63189 21.0298 5.63189 22.8006C5.63189 24.5733 4.36807 26.0133 2.81594 26.0133ZM2.81594 21.1177C2.00302 21.1177 1.34093 21.8731 1.34093 22.8006C1.34093 23.728 2.00302 24.4834 2.81594 24.4834C3.62887 24.4834 4.29096 23.728 4.29096 22.8006C4.29096 21.8731 3.62887 21.1177 2.81594 21.1177Z" fill="white" fill-opacity="0.7"/>
<path d="M22.1257 22.3413C21.9547 22.3413 21.7838 22.2668 21.653 22.1195L18.6695 18.7405C18.5421 18.597 18.4717 18.402 18.4717 18.1974V13.0091C18.4717 12.5864 18.7717 12.2441 19.1421 12.2441C19.5126 12.2441 19.8126 12.5864 19.8126 13.0091V17.8797L22.5984 21.0331C22.8615 21.3296 22.8632 21.8153 22.6017 22.1155C22.471 22.2666 22.2984 22.3413 22.1257 22.3413Z" fill="white" fill-opacity="0.7"/>
<path d="M24.272 26.0133C22.7182 26.0133 21.4561 24.5714 21.4561 22.8006C21.4561 21.0279 22.7199 19.5879 24.272 19.5879C25.8258 19.5879 27.0879 21.0298 27.0879 22.8006C27.0879 24.5733 25.8241 26.0133 24.272 26.0133ZM24.272 21.1177C23.4591 21.1177 22.797 21.8731 22.797 22.8006C22.797 23.728 23.4591 24.4834 24.272 24.4834C25.0849 24.4834 25.747 23.728 25.747 22.8006C25.747 21.8731 25.0849 21.1177 24.272 21.1177Z" fill="white" fill-opacity="0.7"/>
</svg>
