<?xml version="1.0" encoding="UTF-8"?>
<svg id="Layer_2" data-name="Layer 2" xmlns="http://www.w3.org/2000/svg" xmlns:xlink="http://www.w3.org/1999/xlink" viewBox="0 0 4063.01 1220.99">
  <defs>
    <style>
      .cls-1 {
        fill: url(#linear-gradient-8);
      }

      .cls-2 {
        fill: url(#linear-gradient-7);
      }

      .cls-3 {
        fill: url(#linear-gradient-5);
      }

      .cls-4 {
        fill: url(#linear-gradient-6);
      }

      .cls-5 {
        fill: url(#linear-gradient-4);
      }

      .cls-6 {
        fill: url(#linear-gradient-3);
      }

      .cls-7 {
        fill: url(#linear-gradient-2);
      }

      .cls-8 {
        fill: url(#linear-gradient);
      }

      .cls-9 {
        fill: #fff;
      }
    </style>
    <linearGradient id="linear-gradient" x1="1049.29" y1="944.14" x2="652.21" y2="1214.15" gradientUnits="userSpaceOnUse">
      <stop offset="0" stop-color="#fdbe0b"/>
      <stop offset="1" stop-color="#fb4201"/>
    </linearGradient>
    <linearGradient id="linear-gradient-2" x1="1018.02" y1="1117.46" x2="1047.92" y2="247.47" gradientUnits="userSpaceOnUse">
      <stop offset="0" stop-color="#fc0915"/>
      <stop offset=".51" stop-color="#ee3984"/>
      <stop offset=".99" stop-color="#7800da"/>
    </linearGradient>
    <linearGradient id="linear-gradient-3" x1="1884.4" y1="5631.87" x2="1487.33" y2="5901.88" gradientTransform="translate(5236.38 3646.71) rotate(138.18)" gradientUnits="userSpaceOnUse">
      <stop offset="0" stop-color="#fdbe0b"/>
      <stop offset="1" stop-color="#fb4201"/>
    </linearGradient>
    <linearGradient id="linear-gradient-4" x1="-.83" y1="532.89" x2="532.82" y2="1232.47" xlink:href="#linear-gradient-2"/>
    <linearGradient id="linear-gradient-5" x1="3717.12" y1="3347.44" x2="3452.71" y2="3527.24" gradientTransform="translate(-648.98 5021.14) rotate(-118.64) scale(1 1.06)" xlink:href="#linear-gradient"/>
    <linearGradient id="linear-gradient-6" x1="801.74" y1="9.58" x2="260.62" y2="293.59" xlink:href="#linear-gradient-2"/>
    <linearGradient id="linear-gradient-7" x1="570.22" y1="779.97" x2="801.65" y2="681.26" xlink:href="#linear-gradient"/>
    <linearGradient id="linear-gradient-8" x1="385.43" y1="726.95" x2="800.65" y2="502.32" xlink:href="#linear-gradient-2"/>
  </defs>
  <g id="Layer_1-2" data-name="Layer 1">
    <g>
      <g>
        <path class="cls-8" d="M1028.58,892.08c-23.33,5.78-46.15,13.17-68.27,22.57-95.14,40.46-176.96,99.62-246.4,176.01-28.16,30.99-51.74,65.15-69.51,103.18-.83,1.78-1.58,3.61-2.5,5.73,1.35.16,2.06.34,2.76.32,9.43-.24,18.86-.54,28.29-.76,20.35-.47,40.53-2.71,60.65-5.65,29.28-4.27,57.94-11.11,86.25-19.68,21.76-6.58,42.8-15.26,63.66-24.26,10.38-4.48,21.12-8.58,31.26-13.57,11.46-5.64,22.81-11.43,34.02-17.45,58.94-66.2,93.69-147.71,93.69-235.92-3.62,4.55-8,8.01-13.91,9.47Z"/>
        <path class="cls-7" d="M1230.92,616.92c-.27-5.36-.07-10.75-.55-16.08-2.3-25.42-6.05-50.63-11.92-75.5-21.05-89.15-62.64-167.22-126.57-233.05-12.98-13.36-28.76-23.77-45.64-31.54-17.63-8.12-36.79-14.84-56.29-16.11-12.82-.84-25.73.22-38.27,3.01-85.58,19.08-120.19,103.77-102.21,168.92,11.51,41.71,53.69,72.78,83.2,102.84,1.9,1.94,3.79,3.89,5.66,5.86,38.68,40.76,68.71,86.97,87.89,139.96,13.42,37.07,21.49,75.23,24.05,114.62,2.13,32.67.23,65.04-5.63,97.21-.35,1.93-.96,4.06-2.15,5.55,0,88.21-34.75,169.72-93.69,235.92,49.61-26.65,96.29-57.74,135.5-99.12,91.37-96.44,139.3-211.62,146.62-343.99.11-1.99.67-3.95,1.02-5.93,0-15.54,0-31.09,0-46.63-.35-1.98-.92-3.94-1.02-5.93Z"/>
        <path class="cls-6" d="M126.66,731.51c13.53-19.86,25.61-40.59,35.82-62.35,43.91-93.6,65.44-192.24,66.24-295.47.33-41.87-4.89-83.05-17-123.24-.57-1.88-1.23-3.74-1.96-5.93-1.11.78-1.76,1.12-2.27,1.6-6.87,6.47-13.69,12.98-20.57,19.43-14.85,13.92-28.39,29.04-41.43,44.66-18.97,22.71-35.77,46.92-51.15,72.18-11.83,19.42-21.72,39.92-31.26,60.53-4.75,10.26-10.02,20.47-14.25,30.96-4.78,11.84-9.38,23.73-13.71,35.69.22,88.64,28.68,172.55,87.5,238.28-.34-5.8.62-11.3,4.05-16.34Z"/>
        <path class="cls-5" d="M159.37,1071.49c3.78,3.81,7.22,7.97,11.13,11.62,18.67,17.41,38.27,33.69,59.23,48.31,75.14,52.4,158.19,82.84,249.73,89.26,18.58,1.3,37.28-1.47,55.04-6.93,18.56-5.71,37.31-13.47,52.69-25.53,10.11-7.93,19.03-17.32,26.51-27.77,51.05-71.28,20.36-157.48-36.48-194.04-36.4-23.41-88.55-18.43-130.58-21.15-2.71-.18-5.41-.37-8.12-.59-56.01-4.58-109.2-18.99-158.82-45.69-34.71-18.68-66.18-41.74-94.36-69.37-23.37-22.92-43.54-48.31-60.63-76.19-1.03-1.67-1.99-3.67-2.1-5.57-58.82-65.73-87.28-149.65-87.5-238.28C15.92,562.51,1.86,616.81.24,673.79c-3.78,132.8,37.32,250.59,120.13,354.11,1.24,1.56,2.14,3.39,3.19,5.1,10.37,11.58,20.73,23.17,31.1,34.75,1.58,1.24,3.31,2.32,4.71,3.74Z"/>
        <path class="cls-3" d="M661.11,85.92c11.03,11.68,22.9,22.51,35.79,32.25,55.46,41.9,118.26,69.68,187.8,84.38,28.21,5.96,56.92,8.17,86.17,5.68,1.37-.12,2.74-.3,4.35-.48-.33-.84-.44-1.32-.68-1.72-3.16-5.43-6.35-10.84-9.5-16.28-6.79-11.73-14.62-22.77-22.86-33.53-12-15.66-25.38-30.1-39.73-43.74-11.03-10.49-23.13-19.84-35.36-28.99-6.09-4.55-12.06-9.44-18.39-13.67-7.15-4.79-14.37-9.46-21.68-13.97-59.87-12.02-121.51-4.72-176.21,25.15,3.97.57,7.52,1.96,10.32,4.92Z"/>
        <path class="cls-4" d="M425.88,60.87c-3.24,1.97-6.65,3.68-9.8,5.77-15.03,9.96-29.47,20.69-43.01,32.54-48.57,42.5-83.71,93.25-104.13,152.91-4.14,12.11-5.56,24.86-4.99,37.35.59,13.06,2.54,26.53,7.97,38.35,3.57,7.78,8.35,14.97,14.08,21.35,39.15,43.55,102.72,35.09,137.38,2.52,22.2-20.86,28-56.03,37.22-83.46.59-1.77,1.2-3.53,1.83-5.29,12.93-36.41,32-69.61,58.74-98.77,18.7-20.39,39.8-38.04,63.4-52.88,19.58-12.31,40.26-22.16,62.08-29.63,1.31-.45,2.83-.81,4.13-.63,54.7-29.88,116.35-37.18,176.21-25.15-32.36-19.96-66.54-36.72-104.72-45.61-88.98-20.73-175.7-9.73-260.13,30.83-1.27.61-2.67.95-4,1.41-9.64,5.27-19.28,10.53-28.92,15.8-1.11.88-2.15,1.87-3.35,2.6Z"/>
        <path class="cls-2" d="M653.02,858.08c17.1-3.84,33.68-9.6,49.66-17.33,66.78-32.29,111.16-83.84,132.98-154.7,2.7-8.78,4.39-17.87,6.54-26.81-.44-.04-.88-.09-1.32-.13-.35.64-.73,1.26-1.03,1.92-16.49,35.91-42.08,63.76-75.78,84.04-40.5,24.38-84.49,34.3-131.67,30.41-14.98-1.23-29.65-3.76-44.02-8.01-39.87-11.8-73.72-32.99-100.5-65-.97-1.15-1.84-2.46-2.58-3.84,17.7,65.86,79.93,122.79,167.71,159.46Z"/>
        <path class="cls-1" d="M485.31,698.62c-.84-1.55-1.51-3.2-1.95-4.83-6.78-25.15-8.12-50.72-4.73-76.47,3.92-29.77,14.23-57.26,30.59-82.5,7.09-10.94,16.12-19.77,27.28-26.37,18.36-10.87,38.22-15.19,59.52-13.67,20.75,1.48,39.34,8.31,55.36,21.57,13.71,11.35,22.89,25.64,25.69,43.43,1.65,10.47.88,21.01-.38,31.52-2.65,22.03-13.5,38.34-33.39,48.53-9.6,4.92-19.7,8.41-30.14,10.93-4.29,1.04-8.68,2.02-13.07,2.25-19.44,1-37.79-3.49-55.2-11.93-13.62-6.6-25.1-15.61-31.91-29.61-.05-.1-.32-.09-.89-.24,0,.76-.06,1.42.01,2.07.34,3.12.62,6.26,1.08,9.36,6.7,44.67,29.73,77.56,71.15,96.38,34.25,15.56,70.45,19.09,107.42,13.67,36.17-5.31,67.14-21.58,92.32-47.93,35.85-37.51,50.85-82.46,45.4-134.09-2.52-23.91-10.15-46.23-22.99-66.51-18.77-29.64-42.96-54.17-72.41-73.29-45.77-29.72-95.9-43.26-150.53-40.14-19.48,1.11-38.49,4.37-57.15,9.93-97.07,28.91-170.11,116.87-175.56,222.88-1.39,26.97,1.17,53.57,8.46,79.63,31.73,113.4,141.17,193.92,269.2,179.06,8.28-.96,16.45-2.35,24.52-4.16-87.79-36.67-150.01-93.59-167.71-159.46Z"/>
      </g>
      <g>
        <path class="cls-9" d="M1480.89,738.33c43.95,30.04,122.57,30.01,167.71-29.46,13.09,10.01,26.17,20.01,39.44,30.16-7.86,10.52-16.65,19.73-26.51,27.91-23.34,19.36-49.87,32.32-79.6,38.35-18.48,3.74-37.14,4.03-55.91,1.86-32.93-3.81-62.08-16.31-87.43-37.51-31.43-26.29-53.42-58.57-61.82-99.22-3.82-18.47-4.74-37.14-2.64-55.86,7.42-66.22,43.6-111.99,101.97-141.51,15.82-8,33.02-11.81,50.65-13.89,34.36-4.06,67.06,1.41,98.16,16.43,23.72,11.46,43.88,27.45,60.17,48.19,8.74,11.13,7.6,24.72-2.95,34.29-12.9,11.7-25.94,23.23-38.92,34.85-34.11,30.53-68.23,61.07-102.34,91.61-19.23,17.22-38.46,34.45-57.68,51.67-.7.63-1.38,1.29-2.29,2.15ZM1629.73,538.16c-41.48-37.54-116.84-45.3-168.83,5.04-50.37,48.78-45.05,121.91-16.04,160.1,61.62-55.05,123.23-110.08,184.87-165.15Z"/>
        <path class="cls-9" d="M2394.19,708.77c13.23,10.13,26.24,20.08,40.02,30.63-6.58,7.06-12.58,14.25-19.35,20.62-25.9,24.34-56.38,40.4-91.49,45.92-56.32,8.85-106.34-5.03-148.38-44.52-24.28-22.81-41.88-49.7-50.45-82.14-5.49-20.79-7.07-41.93-4.84-63.24,7.06-67.66,43.84-114.22,103.76-143.72,17.91-8.82,37.39-12.55,57.35-13.87,50.63-3.36,94.55,12.38,132.1,46.09,6.58,5.91,12.47,12.69,18.04,19.59,8.59,10.63,7.26,24.53-2.96,33.73-25.25,22.74-50.62,45.34-75.94,68-34.12,30.54-68.23,61.09-102.34,91.64-7.61,6.82-15.23,13.63-23.42,20.96,28.05,17.54,57.91,23.11,89.93,17.84,32.25-5.31,57.91-21.64,77.98-47.51ZM2190.42,703.42c61.69-55.11,123.35-110.19,185.07-165.32-43.85-38.67-115.88-42.84-165.01,1.48-53.77,48.51-50.46,122.1-20.05,163.84Z"/>
        <path class="cls-9" d="M3529.02,800.23v-50.09c1.73,0,3.27,0,4.82,0,52.18-.02,104.36.14,156.54-.18,15.61-.1,31.01-2.63,45.35-9.34,11.78-5.51,21.11-13.4,24.43-26.74,3.67-14.73-.86-26.51-13.66-34.97-10-6.61-21.23-10.23-32.84-12.44-19.06-3.62-38.19-6.88-57.33-10.02-27.42-4.49-54.98-8.41-81.12-18.34-24.76-9.41-43.48-25.4-49.92-52.01-10.32-42.6,3.53-82.33,46.55-104.84,15.67-8.2,32.34-13.19,49.96-14.67,9.93-.83,19.92-1.34,29.88-1.38,43.77-.14,87.54-.06,131.31-.06,1.43,0,2.86,0,4.47,0v50.21c-1.34,0-2.74,0-4.13,0-48.4,0-96.81-.11-145.21.09-16.24.07-31.92,3.29-46.05,11.77-14.37,8.63-21.25,21.37-19.47,38.21,1.11,10.46,7.87,17.17,16.34,22.44,10.8,6.73,22.87,10.13,35.19,12.34,21.01,3.77,42.15,6.82,63.19,10.4,24.63,4.18,49.3,8.37,72.69,17.61,18.3,7.23,33.34,18.55,42.68,36.36,6.83,13.02,8.93,27.07,8.71,41.61-.33,22.06-7.31,41.48-22.91,57.4-12.05,12.31-26.7,20.6-42.75,26.5-17.85,6.56-36.38,9.72-55.33,9.83-52.78.3-105.56.33-158.34.46-.95,0-1.89-.08-3.04-.13Z"/>
        <path class="cls-9" d="M2551.53,800.17h-49.6v-334.05h49.61v21.64c3.97-2.47,7.13-4.44,10.3-6.41,20.02-12.43,41.82-20.16,65.17-22.62,45.33-4.77,86.85,5.25,122.65,34.39,34.54,28.12,57.18,63.62,64.15,108.07,1.87,11.95,2.77,24.16,2.84,36.26.3,52.73.13,105.46.13,158.19v4.52h-49.6c-.09-1.6-.25-3.24-.25-4.87-.01-54.07.04-108.14-.04-162.2-.03-18.89-3.05-37.31-11.47-54.36-17.01-34.43-42.92-59.06-81.07-67.84-42.63-9.81-79.89,1.63-110.96,32.3-12.19,12.03-11.85,12.37-11.85,29.32v227.68Z"/>
        <path class="cls-9" d="M3139.62,465.97h49.64v4.54c0,54.32-.37,108.64.11,162.95.42,47.57,21.18,84.39,61.84,109.31,21.06,12.91,44.41,17.1,68.99,14.75,33.97-3.24,61.11-18.77,82.09-45.35,1.35-1.71,2.1-4.38,2.11-6.6.11-78.19.09-156.38.09-234.57v-4.94h49.62v334.1h-49.46v-21.74c-1.7,1.01-2.84,1.6-3.89,2.31-20.36,13.75-42.69,22.76-67.01,25.99-48.72,6.46-92.79-4.62-130.61-36.86-27-23.02-46.56-51.11-56.52-85.46-4.56-15.72-6.9-31.8-6.94-48.11-.14-55.66-.06-111.32-.06-166.97v-3.33Z"/>
        <path class="cls-9" d="M2935.51,514.3h-50.96v-48.41h50.73v-165.65h50.08v165.58h101.93v48.05h-101.68c-.09,1.76-.23,3.19-.23,4.62-.01,43.97-.2,87.94.08,131.91.12,18.93.79,37.85,4.48,56.58,4.8,24.36,20.68,36.87,43.59,42.44,14.97,3.64,30.22,2.88,45.42,2.92,2.67,0,5.34,0,8.26,0v50.22c-1.25,0-2.54.03-3.83,0-16.31-.48-32.66-.4-48.91-1.6-17.64-1.3-34.78-5.35-50.73-13.39-21.01-10.59-34.45-27.19-40.01-50.14-3.84-15.87-5.92-31.98-6.73-48.23-2.8-56.58-.99-113.21-1.48-169.82-.01-1.56,0-3.11,0-5.07Z"/>
        <path class="cls-9" d="M1717.92,465.8c17.97,0,35.28-.04,52.58.1,1.01,0,2.47,1.3,2.94,2.35,15.69,35.25,31.28,70.54,46.89,105.82,26.8,60.58,53.61,121.17,80.46,181.73.5,1.12,1.56,2,2.36,2.99,1.01-1.25,2.36-2.35,2.99-3.76,18.79-41.97,37.53-83.97,56.24-125.98,23.75-53.31,47.48-106.62,71.15-159.97,1.07-2.42,2.28-3.39,5.07-3.36,16.69.16,33.38.08,50.62.08-.57,1.45-.95,2.54-1.42,3.59-45.52,102.2-91.06,204.38-136.57,306.59-7.74,17.37-20.67,28.46-39.53,31.57-23.62,3.9-46.35-8.53-56.08-30.39-21.91-49.22-43.63-98.52-65.42-147.79-23.66-53.48-47.32-106.97-70.98-160.45-.38-.86-.72-1.74-1.29-3.11Z"/>
      </g>
      <g>
        <path class="cls-9" d="M3873.56,399.31v-108.16h-33.29v-17.75h86.19v17.75h-32.96v108.16h-19.94Z"/>
        <path class="cls-9" d="M3941.32,399.31v-125.91h18.59l47.32,65.57h-9.29l46.47-65.57h18.59v125.91h-19.77v-102.25l7.44,2.03-47.49,64.73h-2.03l-46.47-64.73,6.59-2.03v102.25h-19.94Z"/>
      </g>
    </g>
  </g>
</svg>