<svg width="78" height="78" viewBox="0 0 78 78" fill="none" xmlns="http://www.w3.org/2000/svg">
<rect x="0.5" y="0.5" width="77" height="77" rx="9.5" fill="url(#paint0_linear_1484_2946)" fill-opacity="0.2" stroke="url(#paint1_linear_1484_2946)"/>
<path d="M47.849 18.315C48.0889 18.5275 48.3234 18.7446 48.5566 18.9646C48.6264 19.0283 48.6963 19.092 48.7683 19.1576C50.49 20.7865 51.7315 23.0308 52.3122 25.3203C52.3419 25.436 52.3419 25.436 52.3723 25.554C52.8834 27.6393 52.9351 29.9722 52.4085 32.0611C52.3798 32.176 52.3798 32.176 52.3505 32.2932C51.8047 34.4065 50.851 36.2791 49.4232 37.9353C49.303 38.0749 49.303 38.0749 49.1802 38.2174C47.2966 40.3592 44.4684 42.0792 41.6231 42.5576C41.4306 42.5616 41.2379 42.5627 41.0453 42.5576C41.061 42.6117 41.0767 42.6658 41.0929 42.7215C41.1445 42.9558 41.1526 43.162 41.151 43.4017C41.1507 43.4874 41.1504 43.573 41.1501 43.6613C41.1493 43.7499 41.1485 43.8385 41.1476 43.9298C41.1472 44.02 41.1468 44.1101 41.1463 44.2029C41.1452 44.4249 41.1436 44.6468 41.1416 44.8687C41.237 44.9005 41.3323 44.9323 41.4305 44.965C41.596 45.1546 41.596 45.1546 41.7676 45.3984C41.8242 45.4768 41.8808 45.5553 41.9391 45.6361C42.3956 46.4413 42.4357 47.1929 42.4324 48.1065C42.433 48.237 42.4336 48.3674 42.4344 48.4979C42.4361 48.8498 42.436 49.2018 42.4355 49.5538C42.4352 49.8486 42.4358 50.1434 42.4363 50.4382C42.4377 51.1341 42.4375 51.8301 42.4364 52.526C42.4353 53.2419 42.4367 53.9578 42.4393 54.6736C42.4414 55.2903 42.442 55.907 42.4415 56.5236C42.4412 56.8911 42.4414 57.2584 42.443 57.6259C42.4445 57.9715 42.4441 58.3171 42.4423 58.6628C42.4418 58.8487 42.4432 59.0346 42.4446 59.2205C42.4348 60.3906 42.0761 61.2282 41.2774 62.076C40.6136 62.7008 39.6846 63.0149 38.7763 62.9995C37.9178 62.9018 37.1466 62.6053 36.5193 62.0098C36.459 61.9533 36.3987 61.8968 36.3365 61.8386C35.5112 60.9872 35.4027 59.9981 35.4102 58.8568C35.4097 58.7274 35.409 58.598 35.4082 58.4687C35.4064 58.1205 35.4071 57.7723 35.4083 57.4241C35.4093 57.0578 35.4084 56.6915 35.4078 56.3252C35.4071 55.7104 35.408 55.0955 35.4098 54.4807C35.4119 53.7722 35.4112 53.0638 35.4091 52.3554C35.4074 51.7445 35.4071 51.1337 35.4081 50.5228C35.4087 50.1591 35.4088 49.7954 35.4075 49.4317C35.4064 49.0896 35.4072 48.7475 35.4094 48.4054C35.4102 48.2217 35.409 48.038 35.4078 47.8544C35.4188 46.7295 35.7094 45.7749 36.5193 44.965C36.5345 44.7867 36.5435 44.6079 36.5498 44.429C36.5538 44.3207 36.5579 44.2124 36.562 44.1008C36.5658 43.9868 36.5696 43.8728 36.5735 43.7553C36.5797 43.5837 36.5797 43.5837 36.5861 43.4087C36.5963 43.125 36.6062 42.8413 36.6156 42.5576C36.5251 42.5507 36.5251 42.5507 36.4327 42.5437C35.8897 42.4969 35.3854 42.4151 34.8642 42.2567C34.7593 42.2251 34.7593 42.2251 34.6523 42.1928C33.9241 41.9644 33.2473 41.657 32.5711 41.3057C32.4767 41.2573 32.4767 41.2573 32.3804 41.2079C29.1015 39.5082 26.6592 36.5422 25.5414 33.0241C24.5943 29.5834 24.749 25.9259 26.408 22.7202C26.4605 22.6156 26.5131 22.5109 26.5672 22.4031C28.2842 19.0819 31.2617 16.7437 34.786 15.5942C39.3119 14.2251 44.2525 15.2588 47.849 18.315ZM29.5257 20.8665C28.3608 22.2041 27.5632 23.7504 27.046 25.4406C27.0115 25.5531 27.0115 25.5531 26.9763 25.6679C26.3724 27.765 26.4111 30.0608 26.9858 32.1574C27.0033 32.2223 27.0209 32.2873 27.0389 32.3542C27.644 34.5214 28.8699 36.2686 30.4526 37.839C30.5244 37.9117 30.5963 37.9845 30.6703 38.0594C32.8202 40.1297 35.6652 41.1109 38.608 41.0743C38.9038 41.071 39.1993 41.0723 39.4952 41.0742C40.587 41.0734 41.551 40.992 42.5861 40.6316C42.6968 40.5933 42.8076 40.5549 42.9217 40.5154C46.0933 39.3765 48.5371 37.0976 50.0131 34.0834C51.3352 31.2635 51.5582 27.9643 50.5243 25.0144C50.4788 24.8915 50.4328 24.7687 50.3862 24.6462C50.3505 24.5519 50.3505 24.5519 50.314 24.4557C49.7187 22.923 48.8856 21.6131 47.7266 20.4476C47.6069 20.3263 47.4907 20.2016 47.375 20.0765C45.9096 18.5213 43.8629 17.4857 41.8157 16.9423C41.7521 16.9254 41.6884 16.9084 41.6229 16.8909C37.1142 15.7544 32.6141 17.5935 29.5257 20.8665ZM38.2527 42.7502C38.2527 43.1633 38.2527 43.5764 38.2527 44.0021C38.6658 44.0021 39.0789 44.0021 39.5046 44.0021C39.5046 43.5889 39.5046 43.1758 39.5046 42.7502C39.0914 42.7502 38.6783 42.7502 38.2527 42.7502ZM37.3183 46.5081C36.9211 47.1134 36.9729 47.7736 36.9744 48.4699C36.9739 48.5899 36.9734 48.7099 36.9729 48.8336C36.9718 49.1617 36.9715 49.4897 36.9718 49.8179C36.9719 50.0923 36.9714 50.3668 36.9709 50.6413C36.9699 51.2891 36.9698 51.937 36.9704 52.5849C36.971 53.2519 36.9698 53.9189 36.9678 54.5859C36.9661 55.1598 36.9655 55.7337 36.9658 56.3076C36.966 56.6498 36.9657 56.992 36.9644 57.3342C36.9629 57.7162 36.9638 58.0981 36.965 58.48C36.9642 58.5925 36.9635 58.7049 36.9627 58.8208C36.9675 59.5599 37.0602 60.095 37.4522 60.7338C37.8829 61.1529 38.3232 61.3569 38.9268 61.3838C39.5472 61.3552 40.0338 61.1382 40.4555 60.6797C40.9145 59.9912 40.8813 59.3001 40.8807 58.497C40.8813 58.3773 40.882 58.2576 40.8827 58.1343C40.8842 57.8073 40.8848 57.4804 40.8849 57.1535C40.8851 56.9488 40.8855 56.7441 40.886 56.5394C40.8878 55.824 40.8886 55.1086 40.8884 54.3932C40.8883 53.7284 40.8903 53.0637 40.8934 52.3989C40.8959 51.8264 40.8969 51.2539 40.8968 50.6814C40.8968 50.3403 40.8973 49.9991 40.8993 49.658C40.9016 49.277 40.9007 48.8961 40.8995 48.5152C40.9011 48.3477 40.9011 48.3477 40.9028 48.1769C40.8975 47.4906 40.8031 46.9198 40.4675 46.3132C40.2615 46.0912 40.2615 46.0912 40.0222 45.9701C39.9101 45.9044 39.9101 45.9044 39.7957 45.8374C38.7906 45.3115 38.0121 45.721 37.3183 46.5081Z" fill="white" fill-opacity="0.7"/>
<path d="M45.9926 21.0348C47.9938 22.9239 49.3455 25.4415 49.4462 28.2312C49.4992 31.0695 48.8036 33.6448 46.9195 35.8166C46.8544 35.8955 46.7894 35.9745 46.7224 36.0558C45.0647 38.0038 42.5264 39.252 39.986 39.4759C36.9393 39.6745 34.1395 38.899 31.8007 36.8758C29.5157 34.8496 28.4316 32.1334 28.2136 29.1291C28.2076 28.8516 28.2173 28.5821 28.2377 28.3053C28.2455 28.1917 28.2533 28.0782 28.2614 27.9611C28.4698 25.8014 29.272 23.6656 30.7414 22.046C30.8096 21.9654 30.8777 21.8848 30.9479 21.8018C32.7295 19.7332 35.3726 18.5139 38.077 18.3114C41.0092 18.15 43.8089 19.0481 45.9926 21.0348ZM32.6674 22.3348C32.576 22.4144 32.576 22.4144 32.4827 22.4955C30.9104 23.9526 29.9373 26.2476 29.8518 28.3674C29.8179 29.955 30.0361 31.3939 30.7414 32.8313C30.785 32.9211 30.8286 33.0108 30.8735 33.1033C31.9358 35.1674 33.7647 36.69 35.9415 37.4536C36.7236 37.6933 37.5292 37.8991 38.349 37.9351C38.42 37.939 38.491 37.9428 38.5641 37.9468C40.8915 38.0114 43.194 37.1704 44.9104 35.5995C46.7241 33.8601 47.8185 31.5896 47.8882 29.0602C47.9008 26.4954 46.8919 24.2451 45.1199 22.4131C43.4681 20.7763 41.1695 19.9007 38.8606 19.8853C36.5032 19.9139 34.415 20.7703 32.6674 22.3348Z" fill="white" fill-opacity="0.7"/>
<path d="M34.3499 24.0863C34.4305 24.0841 34.5111 24.0819 34.5942 24.0796C34.7655 24.076 34.9369 24.0735 35.1083 24.072C35.3643 24.0683 35.619 24.0564 35.8747 24.0441C36.8621 24.0202 37.4691 24.1511 38.268 24.7423C39.3612 25.5409 40.4477 25.4594 41.7555 25.4164C42.0885 25.4098 42.4215 25.4048 42.7547 25.4018C42.9599 25.3996 43.1652 25.395 43.3704 25.3877C43.4628 25.3859 43.5551 25.3841 43.6503 25.3822C43.731 25.3795 43.8116 25.3769 43.8947 25.3742C44.2309 25.4353 44.3789 25.5494 44.6083 25.8016C44.656 26.0645 44.6724 26.2677 44.6675 26.5302C44.6681 26.6031 44.6686 26.6759 44.6691 26.751C44.6703 26.9914 44.6679 27.2317 44.6655 27.4721C44.6653 27.6393 44.6653 27.8065 44.6655 27.9736C44.6653 28.3237 44.6635 28.6738 44.6605 29.0239C44.6566 29.473 44.6562 29.922 44.657 30.371C44.6572 30.7161 44.6561 31.0611 44.6544 31.4062C44.6538 31.5718 44.6535 31.7374 44.6535 31.903C44.6534 32.1342 44.6513 32.3654 44.6487 32.5966C44.649 32.6652 44.6493 32.7338 44.6496 32.8045C44.6448 33.0793 44.6402 33.2675 44.4794 33.496C44.1926 33.6855 43.9412 33.7103 43.6078 33.7115C43.5214 33.7121 43.435 33.7126 43.346 33.7132C43.2042 33.7134 43.2042 33.7134 43.0595 33.7135C42.9597 33.714 42.8599 33.7145 42.7571 33.715C42.4265 33.7164 42.0959 33.717 41.7652 33.7176C41.5358 33.7181 41.3063 33.7187 41.0769 33.7192C40.5955 33.7203 40.1142 33.7208 39.6329 33.7211C39.0157 33.7217 38.3987 33.724 37.7816 33.7267C37.3075 33.7285 36.8335 33.729 36.3595 33.7292C36.132 33.7295 35.9044 33.7302 35.6769 33.7315C35.3588 33.7331 35.0407 33.733 34.7226 33.7323C34.5813 33.7337 34.5813 33.7337 34.4372 33.735C33.9641 33.7321 33.6247 33.7266 33.2451 33.4091C33.0883 33.0955 33.1329 32.7499 33.1318 32.4052C33.1311 32.3212 33.1305 32.2373 33.1299 32.1508C33.128 31.8723 33.1268 31.5939 33.1259 31.3154C33.1253 31.173 33.1253 31.173 33.1247 31.0276C33.1227 30.5252 33.1213 30.0227 33.1204 29.5203C33.1193 29.0006 33.116 28.481 33.1122 27.9614C33.1097 27.5624 33.1089 27.1634 33.1085 26.7644C33.1081 26.5728 33.1069 26.3812 33.1052 26.1896C33.1028 25.9217 33.1029 25.6539 33.1036 25.386C33.1023 25.3066 33.1011 25.2273 33.0998 25.1455C33.103 24.8017 33.1184 24.5922 33.3212 24.3087C33.644 24.09 33.9721 24.0944 34.3499 24.0863ZM34.6896 25.7053C34.6896 27.8027 34.6896 29.9 34.6896 32.061C37.4543 32.061 40.219 32.061 43.0675 32.061C43.0675 30.4085 43.0675 28.756 43.0675 27.0535C41.7712 27.0371 41.7712 27.0371 40.4748 27.0248C40.3109 27.0219 40.1469 27.019 39.983 27.0158C39.8579 27.0157 39.8579 27.0157 39.7303 27.0155C38.855 26.9951 38.3429 26.6469 37.6688 26.1146C36.7235 25.531 36.7235 25.531 34.6896 25.7053Z" fill="white" fill-opacity="0.7"/>
<path d="M50.7112 39.4939C51.4854 39.6674 51.9533 40.6353 52.3723 41.2634C52.4778 41.42 52.5834 41.5766 52.689 41.7332C52.7388 41.8072 52.7886 41.8812 52.84 41.9574C53.0442 42.2574 53.2552 42.5521 53.4677 42.8463C53.563 42.8145 53.6584 42.7827 53.7566 42.75C54.8056 42.4933 55.9637 42.5591 56.9344 43.0389C57.9592 43.6733 58.7227 44.5975 59.0153 45.7796C59.1869 46.8946 59.0085 47.9141 58.4131 48.8814C58.2518 49.0984 58.084 49.2953 57.8974 49.4908C57.8449 49.5461 57.7924 49.6013 57.7383 49.6582C56.955 50.4009 55.7551 50.7041 54.694 50.6761C53.5916 50.5517 52.6508 50.0795 51.8968 49.2681C51.1343 48.3005 50.8848 47.259 51.0087 46.047C51.1507 45.1879 51.5089 44.5035 52.0232 43.8092C51.9156 43.6527 51.8079 43.4961 51.7002 43.3396C51.6057 43.202 51.5114 43.0643 51.4173 42.9264C51.1687 42.563 50.9173 42.2025 50.6577 41.8468C50.6092 41.7792 50.5606 41.7116 50.5106 41.642C50.4175 41.5127 50.3233 41.3842 50.2277 41.2568C49.9361 40.8475 49.8355 40.5721 49.9047 40.0536C50.1482 39.7068 50.2987 39.5932 50.7112 39.4939ZM53.8529 44.4833C53.8529 44.5469 53.8529 44.6104 53.8529 44.6759C53.7695 44.6898 53.686 44.7037 53.6001 44.7181C53.1324 44.9346 52.94 45.2917 52.6973 45.7352C52.4813 46.3833 52.5128 47.0776 52.7996 47.6973C53.1765 48.3587 53.6971 48.7893 54.4307 49.0093C55.2443 49.1095 55.888 48.974 56.5466 48.4823C57.0583 48.0228 57.3399 47.4598 57.449 46.7813C57.4828 46.0648 57.2246 45.5328 56.7839 44.9889C56.2699 44.4438 55.6908 44.1854 54.9422 44.1523C54.5283 44.1707 54.2197 44.296 53.8529 44.4833Z" fill="white" fill-opacity="0.7"/>
<path d="M26.5043 39.4761C26.7932 39.6747 26.7932 39.6747 26.9858 39.9576C26.9587 40.4631 26.8157 40.8324 26.5818 41.2772C26.5368 41.3645 26.5368 41.3645 26.4908 41.4535C26.3959 41.6375 26.2998 41.8208 26.2034 42.0039C26.0756 42.2466 25.9492 42.4899 25.8234 42.7337C25.7671 42.8408 25.7107 42.948 25.6526 43.0584C25.5066 43.3288 25.5066 43.3288 25.6376 43.6169C25.7419 43.7152 25.7419 43.7152 25.8483 43.8155C26.6407 44.5757 26.9283 45.5638 26.9877 46.6285C26.9818 47.7551 26.5927 48.6623 25.8449 49.4971C25.0577 50.2471 23.988 50.6303 22.9112 50.6767C21.725 50.6396 20.691 50.1842 19.8718 49.3225C19.2319 48.5292 18.8383 47.4633 18.8731 46.4377C18.9703 45.5319 19.1932 44.8123 19.7635 44.0984C19.8228 44.0182 19.8821 43.938 19.9433 43.8554C20.6564 43.0273 21.7346 42.6459 22.7968 42.5629C23.2319 42.5534 23.7021 42.5528 24.0969 42.7502C24.1358 42.6257 24.1358 42.6257 24.1755 42.4987C24.3701 41.9415 24.646 41.4238 24.9094 40.8965C24.9664 40.7801 25.0234 40.6638 25.0803 40.5474C25.135 40.4377 25.1897 40.3279 25.246 40.2149C25.2957 40.1147 25.3455 40.0145 25.3967 39.9112C25.6779 39.4397 25.9883 39.4138 26.5043 39.4761ZM21.097 45.0584C20.611 45.5926 20.5047 46.1834 20.5338 46.891C20.6808 47.6163 20.9811 48.1954 21.5931 48.6244C22.2464 48.9825 22.8399 49.1395 23.5646 48.946C24.2806 48.6965 24.7211 48.3059 25.1441 47.6855C25.3766 47.0138 25.4401 46.3291 25.1761 45.6587C24.88 45.1183 24.4901 44.6966 23.9584 44.3873C22.8165 44.0667 21.9675 44.2108 21.097 45.0584Z" fill="white" fill-opacity="0.7"/>
<path d="M22.0746 16.1718C22.2027 16.2552 22.2027 16.2552 22.3334 16.3403C23.1045 17.0906 23.5844 18.0224 23.624 19.1044C23.6291 19.4932 23.6282 19.8406 23.5191 20.2163C23.5882 20.2275 23.6574 20.2386 23.7286 20.2502C24.0124 20.3153 24.24 20.4115 24.5001 20.5413C24.5829 20.5818 24.6657 20.6222 24.751 20.6639C24.9635 20.7941 24.9635 20.7941 25.1561 21.083C25.2025 21.4381 25.1782 21.6185 25.0117 21.9376C24.7392 22.1692 24.5699 22.2051 24.2146 22.1851C23.8941 22.1209 23.6211 21.9853 23.334 21.8319C23.091 21.741 22.9859 21.7531 22.7487 21.8534C22.6394 21.9916 22.5303 22.1298 22.4218 22.2687C21.6973 23.0302 20.6286 23.3445 19.613 23.3998C18.4507 23.38 17.5092 22.9525 16.6578 22.1784C15.9344 21.411 15.5336 20.409 15.5237 19.359C15.5887 18.0643 16.0712 17.1185 17.0069 16.244C18.525 14.9515 20.479 15.0696 22.0746 16.1718ZM17.5486 18.0014C17.1842 18.5814 17.0569 19.1524 17.1634 19.8311C17.4052 20.6069 17.803 21.1535 18.5116 21.5645C19.0744 21.8203 19.6931 21.8638 20.2867 21.6875C21.0457 21.3713 21.5437 20.9435 21.8903 20.1922C22.101 19.5583 22.0591 18.8851 21.7883 18.2749C21.4085 17.5946 20.8923 17.1843 20.1486 16.9422C19.0872 16.7717 18.1967 17.1519 17.5486 18.0014Z" fill="white" fill-opacity="0.7"/>
<path d="M60.4312 16.0516C61.3411 16.8063 61.8812 17.6894 62.0382 18.8683C62.145 20.1272 61.7933 21.1877 60.9966 22.1642C60.1958 23.0282 59.2494 23.342 58.0927 23.3943C56.896 23.3943 56.003 22.8733 55.1048 22.1424C55.0361 22.1911 54.9675 22.2397 54.8967 22.2899C54.0483 22.8654 54.0483 22.8654 53.6663 22.8887C53.3714 22.8165 53.3714 22.8165 53.1367 22.6239C52.9846 22.332 52.9022 22.0955 52.9166 21.7628C53.0653 21.3392 53.4925 21.1262 53.8529 20.8905C53.9819 20.7951 54.1105 20.699 54.2381 20.6016C54.2219 20.543 54.2058 20.4844 54.1892 20.4241C53.9208 19.2691 54.0719 18.1246 54.6534 17.0916C55.2067 16.2552 55.9738 15.8087 56.9043 15.4617C58.1103 15.224 59.4077 15.3353 60.4312 16.0516ZM56.2001 17.9173C55.8314 18.4738 55.6113 19.0063 55.7209 19.683C55.8969 20.3559 56.1858 20.9258 56.7659 21.3306C57.4262 21.7107 58.0544 21.8915 58.8119 21.6948C59.4945 21.4516 59.9788 21.1097 60.3353 20.4707C60.6138 19.8459 60.732 19.2825 60.5121 18.6238C60.1844 17.8884 59.7078 17.4413 59.0169 17.0446C57.961 16.7351 56.8896 17.0193 56.2001 17.9173Z" fill="white" fill-opacity="0.7"/>
<path d="M21.4728 30.0024C22.2058 30.5658 22.6859 31.2705 22.9413 32.1571C22.9452 32.3175 22.946 32.4782 22.9413 32.6386C23.0052 32.6352 23.0692 32.6319 23.135 32.6284C23.9827 32.6024 23.9827 32.6024 24.3858 32.9275C24.564 33.1057 24.5101 33.3536 24.5231 33.5914C24.462 33.8934 24.3437 33.9991 24.0969 34.1793C23.7854 34.217 23.7854 34.217 23.4469 34.2034C23.3342 34.1999 23.2215 34.1965 23.1053 34.1929C23.0194 34.1884 22.9335 34.184 22.845 34.1793C22.8257 34.3112 22.8257 34.3112 22.8059 34.4457C22.6519 35.2846 22.1247 35.9326 21.4969 36.4905C20.4376 37.167 19.3337 37.4477 18.0899 37.1947C17.419 37.0081 16.9061 36.7679 16.3931 36.2979C16.3338 36.2474 16.2746 36.1969 16.2136 36.1448C15.4681 35.4663 15.0937 34.5533 15.0204 33.5587C14.9806 32.2866 15.3136 31.2768 16.179 30.3335C17.6561 28.9319 19.8344 28.9058 21.4728 30.0024ZM16.9708 31.9645C16.6529 32.4712 16.5328 33.0561 16.621 33.6448C16.8012 34.3711 17.1579 34.8645 17.7661 35.2969C18.3832 35.6512 18.9659 35.7367 19.6672 35.6238C20.3843 35.4036 20.8424 35.0222 21.208 34.3719C21.4987 33.8025 21.624 33.2324 21.4269 32.6104C21.0645 31.731 20.6212 31.3172 19.7624 30.9188C18.6708 30.5021 17.6458 31.103 16.9708 31.9645Z" fill="white" fill-opacity="0.7"/>
<path d="M61.3269 29.8661C62.2033 30.5231 62.7422 31.4057 62.947 32.4759C63.0958 33.7065 62.7754 34.7378 62.0769 35.7504C61.4677 36.5094 60.5882 37.0022 59.6307 37.1644C58.3861 37.2677 57.364 37.0513 56.3566 36.2978C55.6365 35.6508 55.172 34.8478 55.0084 33.8903C54.9225 33.8937 54.8366 33.897 54.7481 33.9005C54.6354 33.9031 54.5227 33.9057 54.4066 33.9084C54.239 33.9134 54.239 33.9134 54.068 33.9185C53.7301 33.8879 53.6027 33.8454 53.3714 33.6014C53.2688 33.3462 53.2522 33.1044 53.2751 32.831C53.4313 32.5591 53.5333 32.3933 53.8352 32.2894C54.0776 32.2477 54.3052 32.244 54.551 32.2472C54.6369 32.2481 54.7228 32.249 54.8113 32.2499C54.8764 32.251 54.9414 32.2521 55.0084 32.2533C55.0226 32.1927 55.0367 32.1321 55.0513 32.0697C55.3251 31.0248 55.9541 30.2561 56.8851 29.7036C58.3698 28.9331 59.9103 28.9633 61.3269 29.8661ZM57.197 31.4855C56.6855 32.0698 56.5061 32.7437 56.5172 33.507C56.595 34.2048 56.921 34.7031 57.458 35.1422C58.126 35.6084 58.7287 35.7101 59.5344 35.6237C60.2712 35.4472 60.7497 34.9852 61.1715 34.3718C61.4728 33.8015 61.5323 33.2602 61.3641 32.6384C61.1138 31.9391 60.748 31.3988 60.1122 31.0014C59.023 30.5365 58.068 30.6682 57.197 31.4855Z" fill="white" fill-opacity="0.7"/>
<path d="M37.386 28.7228C37.5081 28.7223 37.6303 28.7219 37.7561 28.7214C38.0142 28.7211 38.2721 28.7217 38.5302 28.724C38.8603 28.7267 39.1901 28.7251 39.5201 28.7223C39.8359 28.7201 40.1517 28.7216 40.4675 28.7228C40.5857 28.7218 40.7038 28.7209 40.8256 28.7198C41.7364 28.7324 41.7364 28.7324 42.035 29.0134C42.2402 29.3287 42.2701 29.4768 42.2009 29.846C42.0405 30.1011 42.0405 30.1011 41.8157 30.3275C41.5519 30.3874 41.5519 30.3874 41.2461 30.3868C41.1314 30.3877 41.0167 30.3886 40.8985 30.3895C40.775 30.3879 40.6515 30.3863 40.5243 30.3847C40.3973 30.3847 40.2703 30.3847 40.1394 30.3847C39.8709 30.3845 39.6024 30.3827 39.3339 30.3797C38.9898 30.3759 38.6457 30.3755 38.3016 30.3762C37.9732 30.3766 37.6448 30.3746 37.3164 30.3727C37.1927 30.3726 37.069 30.3726 36.9416 30.3726C36.7699 30.3703 36.7699 30.3703 36.5949 30.368C36.4436 30.3667 36.4436 30.3667 36.2893 30.3655C36.0032 30.3223 35.9201 30.2665 35.7489 30.0386C35.6098 29.7605 35.6163 29.5767 35.6526 29.2682C36.0712 28.6181 36.6724 28.7169 37.386 28.7228Z" fill="white" fill-opacity="0.7"/>
<defs>
<linearGradient id="paint0_linear_1484_2946" x1="41.1273" y1="1.41818" x2="39" y2="78" gradientUnits="userSpaceOnUse">
<stop stop-color="white" stop-opacity="0.7"/>
<stop offset="1" stop-color="white" stop-opacity="0.1"/>
</linearGradient>
<linearGradient id="paint1_linear_1484_2946" x1="8.50909" y1="4.25455" x2="68.7818" y2="78" gradientUnits="userSpaceOnUse">
<stop stop-color="white" stop-opacity="0.5"/>
<stop offset="0.5" stop-color="white" stop-opacity="0"/>
<stop offset="1" stop-color="white" stop-opacity="0.2"/>
</linearGradient>
</defs>
</svg>
