<?xml version="1.0" encoding="UTF-8"?>
<svg id="Layer_2" data-name="Layer 2" xmlns="http://www.w3.org/2000/svg" viewBox="0 0 129.99 150">
  <defs>
    <style>
      .cls-1 {
        fill: #fff;
      }
    </style>
  </defs>
  <g id="Layer_1-2" data-name="Layer 1">
    <g>
      <path class="cls-1" d="M126.99,42.62v68.12l-61.99,35.79-4.22-2.44v-63.25l8.44-4.92v58.42l4.5-2.6,43.33-25.02,1.5-.87v-58.37l8.44-4.88M129.99,37.42l-14.44,8.34v58.37l-43.33,25.02v-58.45l-14.44,8.42v66.71l7.22,4.17,64.99-37.53V37.42h0Z"/>
      <polygon class="cls-1" points="65 16.58 21.67 41.6 72.21 70.71 57.77 79.12 14.44 54.1 14.44 120.81 0 112.47 0 37.42 64.98 0 129.99 37.42 115.54 45.77 65 16.58"/>
    </g>
  </g>
</svg>