<svg width="62" height="57" viewBox="0 0 62 57" fill="none" xmlns="http://www.w3.org/2000/svg">
<path d="M7.04046 20.711L1.63584 11.3498L25.1618 1.63584L29.7506 9.58381M7.04046 20.711L29.7506 9.58381M7.04046 20.711L1 28.0231L5.62463 30.5229M7.04046 20.711L30.8844 32.474M29.7506 9.58381L54.7283 20.711M29.7506 9.58381L35.3353 1L60.4509 11.3498L54.7283 20.711M30.8844 32.474L24.526 40.7399L5.62463 30.5229M30.8844 32.474L54.7283 20.711M30.8844 32.474L37.2428 40.104L54.7283 30.5229M30.8844 32.474V56M54.7283 20.711L60.4509 27.3873L54.7283 30.5229M30.8844 56L54.7283 43.9191V30.5229M30.8844 56L5.62463 43.9191V30.5229" stroke="#EBF3FF"/>
</svg>
