<svg width="28" height="26" viewBox="0 0 28 26" fill="none" xmlns="http://www.w3.org/2000/svg">
<path d="M26.4156 2.0596H22.7952V0.643627C22.7952 0.288123 22.495 0 22.1247 0H4.9613C4.59098 0 4.29085 0.288123 4.29085 0.643627V2.0596H0.670446C0.300129 2.0596 0 2.34773 0 2.70323V10.9417C0 11.2972 0.300129 11.5853 0.670446 11.5853H4.29085V25.3589C4.29085 25.7144 4.59098 26.0025 4.9613 26.0025H22.1247C22.495 26.0025 22.7952 25.7144 22.7952 25.3589V11.5853H26.4156C26.7859 11.5853 27.086 11.2972 27.086 10.9417V2.70323C27.086 2.34773 26.7859 2.0596 26.4156 2.0596ZM5.63175 1.28725H21.4543V2.0596H5.63175V1.28725ZM21.4543 10.298V11.5853V24.7153H5.63175V11.5853V10.298V9.52567H21.4543V10.298ZM25.7451 10.298H22.7952V9.52567H24.2701C24.6405 9.52567 24.9406 9.23755 24.9406 8.88205C24.9406 8.52654 24.6405 8.23842 24.2701 8.23842H22.1247H4.9613H2.81587C2.44556 8.23842 2.14543 8.52654 2.14543 8.88205C2.14543 9.23755 2.44556 9.52567 2.81587 9.52567H4.29085V10.298H1.34089V3.34686H4.9613H22.1247H25.7451V10.298Z" fill="#D1E5FF" fill-opacity="0.7"/>
<path d="M4.96094 0.5H22.125C22.2384 0.500139 22.2949 0.583292 22.2949 0.643555V2.55957H26.416C26.5293 2.55979 26.5859 2.64289 26.5859 2.70312V10.9414C26.5859 11.0016 26.5293 11.0847 26.416 11.085H22.2949V25.3594C22.2946 25.4196 22.2381 25.5028 22.125 25.5029H4.96094C4.84788 25.5028 4.79132 25.4196 4.79102 25.3594V11.085H0.670898C0.557289 11.085 0.5 11.0017 0.5 10.9414V2.70312C0.500067 2.64281 0.557356 2.55957 0.670898 2.55957H4.79102V0.643555C4.79106 0.583306 4.84762 0.500177 4.96094 0.5ZM5.13184 25.2148H21.9541V9.02539H5.13184V25.2148ZM0.84082 10.7979H4.79102V9.02539H2.81543C2.70212 9.02517 2.64551 8.94208 2.64551 8.88184C2.64564 8.82161 2.70225 8.7385 2.81543 8.73828H24.2705C24.3837 8.73846 24.4403 8.8216 24.4404 8.88184C24.4404 8.94209 24.3839 9.02521 24.2705 9.02539H22.2949V10.7979H26.2451V2.84668H0.84082V10.7979ZM5.13184 2.55957H21.9541V0.787109H5.13184V2.55957Z" stroke="url(#paint0_linear_2024_102645)" stroke-opacity="0.5"/>
<path d="M3.88867 4.12305C2.92752 4.12305 2.14551 4.87378 2.14551 5.79648C2.14551 6.71917 2.92752 7.4699 3.88867 7.4699C4.84981 7.4699 5.63183 6.71917 5.63183 5.79648C5.63183 4.87378 4.84981 4.12305 3.88867 4.12305ZM3.88867 6.18265C3.66684 6.18265 3.4864 6.00943 3.4864 5.79648C3.4864 5.58353 3.66684 5.4103 3.88867 5.4103C4.11049 5.4103 4.29094 5.58353 4.29094 5.79648C4.29094 6.00943 4.11049 6.18265 3.88867 6.18265Z" fill="#D1E5FF" fill-opacity="0.7"/>
<path d="M3.88867 4.62305C4.59311 4.62305 5.13184 5.16936 5.13184 5.79688C5.13161 6.42422 4.59296 6.96972 3.88867 6.96973C3.18438 6.96973 2.64574 6.42422 2.64551 5.79688C2.64551 5.16936 3.18423 4.62305 3.88867 4.62305ZM3.88867 4.91016C3.43994 4.91016 3.03935 5.24273 2.99121 5.70312L2.98633 5.79688L2.99121 5.89062C3.03973 6.35062 3.44019 6.68262 3.88867 6.68262C4.36708 6.68261 4.79079 6.30481 4.79102 5.79688C4.79102 5.32047 4.41843 4.9584 3.97754 4.91504L3.88867 4.91016Z" stroke="url(#paint1_linear_2024_102645)" stroke-opacity="0.5"/>
<path d="M9.25142 5.14453H7.10599C6.73568 5.14453 6.43555 5.43265 6.43555 5.78816C6.43555 6.14366 6.73568 6.43178 7.10599 6.43178H9.25142C9.62174 6.43178 9.92187 6.14366 9.92187 5.78816C9.92187 5.43265 9.62174 5.14453 9.25142 5.14453Z" fill="#D1E5FF" fill-opacity="0.7"/>
<path d="M7.10645 5.64453H9.25098C9.36454 5.64453 9.42183 5.72777 9.42188 5.78809C9.42188 5.8484 9.36459 5.93164 9.25098 5.93164H7.10645C6.99284 5.93164 6.93555 5.8484 6.93555 5.78809C6.93559 5.72777 6.99288 5.64453 7.10645 5.64453Z" stroke="url(#paint2_linear_2024_102645)" stroke-opacity="0.5"/>
<path d="M6.80613 17.695L11.097 19.7546C11.1934 19.8009 11.2955 19.8227 11.3963 19.8227C11.6422 19.8227 11.879 19.6923 11.9966 19.4667C12.1621 19.1487 12.0277 18.7623 11.6967 18.6031L8.60507 17.1193L11.6967 15.6354C12.0277 15.4763 12.1621 15.0898 11.9966 14.7718C11.8308 14.4535 11.4283 14.3255 11.097 14.4839L6.80613 16.5435C6.57906 16.6526 6.43555 16.8754 6.43555 17.1193C6.43555 17.3631 6.57906 17.5859 6.80613 17.695Z" fill="#D1E5FF" fill-opacity="0.7"/>
<path d="M11.3125 14.9336C11.4117 14.8865 11.5171 14.9345 11.5527 15.0029C11.5821 15.0595 11.5678 15.1423 11.4805 15.1846L8.38867 16.6689L7.44922 17.1191L8.38867 17.5703L11.4805 19.0537C11.568 19.096 11.5812 19.1797 11.5518 19.2363C11.5266 19.2834 11.4701 19.3222 11.3965 19.3223C11.3684 19.3223 11.3403 19.3166 11.3135 19.3037L7.02246 17.2441C6.96124 17.2146 6.93555 17.1625 6.93555 17.1191C6.93559 17.0758 6.96123 17.0236 7.02246 16.9941L11.3135 14.9346L11.3125 14.9336Z" stroke="url(#paint3_linear_2024_102645)" stroke-opacity="0.5"/>
<path d="M15.0894 14.7724C14.9239 15.0905 15.0582 15.4769 15.3893 15.6361L18.4809 17.1199L15.3893 18.6038C15.0582 18.7629 14.9239 19.1494 15.0894 19.4674C15.207 19.6929 15.4438 19.8234 15.6897 19.8234C15.7905 19.8234 15.8926 19.8013 15.989 19.7553L20.2799 17.6957C20.5069 17.5866 20.6504 17.3638 20.6504 17.1199C20.6504 16.876 20.5069 16.6533 20.2799 16.5442L15.989 14.4846C15.6567 14.3247 15.2549 14.4542 15.0894 14.7724Z" fill="#D1E5FF" fill-opacity="0.7"/>
<path d="M15.7354 14.9219L15.7725 14.9355L20.0635 16.9951C20.1247 17.0246 20.1504 17.0768 20.1504 17.1201C20.1503 17.1526 20.1356 17.1896 20.1025 17.2188L20.0635 17.2451L15.7734 19.3037C15.7453 19.3171 15.7168 19.3232 15.6895 19.3232C15.6338 19.3232 15.5878 19.3007 15.5576 19.2695L15.5332 19.2363C15.5038 19.1798 15.5182 19.0969 15.6055 19.0547L18.6973 17.5703L19.6367 17.1201L18.6973 16.6689L15.6055 15.1855C15.518 15.1433 15.5038 15.0595 15.5332 15.0029C15.565 14.9421 15.649 14.8998 15.7354 14.9219Z" stroke="url(#paint4_linear_2024_102645)" stroke-opacity="0.5"/>
<path d="M12.2594 20.824C12.3298 20.8464 12.4013 20.8572 12.4715 20.8572C12.7522 20.8572 13.0139 20.6865 13.1076 20.4169L15.2531 14.2381C15.3701 13.9007 15.1802 13.5362 14.8291 13.4238C14.4763 13.3114 14.0978 13.4939 13.9808 13.8308L11.8354 20.0096C11.7183 20.347 11.9082 20.7116 12.2594 20.824Z" fill="#D1E5FF" fill-opacity="0.7"/>
<path d="M14.4531 13.9951C14.4763 13.9283 14.5683 13.8653 14.6768 13.8994V13.9004C14.7508 13.9241 14.7838 13.9777 14.7871 14.0273L14.7803 14.0742L12.6357 20.2529C12.6173 20.3058 12.5564 20.3573 12.4717 20.3574C12.4531 20.3574 12.4326 20.3544 12.4111 20.3477H12.4121C12.3135 20.3161 12.2879 20.2311 12.3076 20.1738L14.4531 13.9951Z" stroke="url(#paint5_linear_2024_102645)" stroke-opacity="0.5"/>
<defs>
<linearGradient id="paint0_linear_2024_102645" x1="0" y1="0" x2="30.1169" y2="4.18348" gradientUnits="userSpaceOnUse">
<stop stop-color="#D1E5FF" stop-opacity="0.5"/>
<stop offset="0.5" stop-color="#D1E5FF" stop-opacity="0.02"/>
<stop offset="1" stop-color="#D1E5FF" stop-opacity="0.2"/>
</linearGradient>
<linearGradient id="paint1_linear_2024_102645" x1="2.14551" y1="4.12305" x2="6.02194" y2="4.66151" gradientUnits="userSpaceOnUse">
<stop stop-color="#D1E5FF" stop-opacity="0.5"/>
<stop offset="0.5" stop-color="#D1E5FF" stop-opacity="0.02"/>
<stop offset="1" stop-color="#D1E5FF" stop-opacity="0.2"/>
</linearGradient>
<linearGradient id="paint2_linear_2024_102645" x1="6.43555" y1="5.14453" x2="9.93085" y2="6.4069" gradientUnits="userSpaceOnUse">
<stop stop-color="#D1E5FF" stop-opacity="0.5"/>
<stop offset="0.5" stop-color="#D1E5FF" stop-opacity="0.02"/>
<stop offset="1" stop-color="#D1E5FF" stop-opacity="0.2"/>
</linearGradient>
<linearGradient id="paint3_linear_2024_102645" x1="6.43555" y1="14.416" x2="12.6976" y2="15.2859" gradientUnits="userSpaceOnUse">
<stop stop-color="#D1E5FF" stop-opacity="0.5"/>
<stop offset="0.5" stop-color="#D1E5FF" stop-opacity="0.02"/>
<stop offset="1" stop-color="#D1E5FF" stop-opacity="0.2"/>
</linearGradient>
<linearGradient id="paint4_linear_2024_102645" x1="15.0186" y1="14.416" x2="21.2807" y2="15.2857" gradientUnits="userSpaceOnUse">
<stop stop-color="#D1E5FF" stop-opacity="0.5"/>
<stop offset="0.5" stop-color="#D1E5FF" stop-opacity="0.02"/>
<stop offset="1" stop-color="#D1E5FF" stop-opacity="0.2"/>
</linearGradient>
<linearGradient id="paint5_linear_2024_102645" x1="11.8008" y1="13.3906" x2="15.7373" y2="13.6358" gradientUnits="userSpaceOnUse">
<stop stop-color="#D1E5FF" stop-opacity="0.5"/>
<stop offset="0.5" stop-color="#D1E5FF" stop-opacity="0.02"/>
<stop offset="1" stop-color="#D1E5FF" stop-opacity="0.2"/>
</linearGradient>
</defs>
</svg>
