<svg width="38" height="26" viewBox="0 0 38 26" fill="none" xmlns="http://www.w3.org/2000/svg">
<path d="M5.82846 20.5643C5.82846 20.0322 6.25025 19.614 6.78708 19.614H15.6065C16.1433 19.614 16.5651 20.0322 16.5651 20.5643V20.7164H21.4349V20.5643C21.4349 20.0322 21.8567 19.614 22.3935 19.614H31.2513C31.7881 19.614 32.2099 20.0322 32.2099 20.5643C32.2099 21.0965 31.7881 21.5146 31.2513 21.5146H23.1988C22.892 22.1608 22.2402 22.617 21.4349 22.617H16.6034C15.8365 22.617 15.1463 22.1608 14.8396 21.5146H6.78708C6.2886 21.5146 5.82846 21.0965 5.82846 20.5643ZM0 22.3509V20.5643C0 20.0322 0.421796 19.614 0.958628 19.614H2.76085V2.47076C2.76085 1.10234 3.87286 0 5.25328 0H32.67C34.0121 0 35.1241 1.02632 35.2392 2.39474C35.2392 2.43275 35.2392 2.47076 35.2392 2.47076V19.614H37.0414C37.5782 19.614 38 20.0322 38 20.5643V22.3509C38 24.3655 36.3512 26 34.3189 26H3.68113C1.64884 26 0 24.3655 0 22.3509ZM1.91726 22.3509C1.91726 23.3012 2.7225 24.0994 3.68113 24.0994H34.3572C35.3158 24.0994 36.1211 23.3012 36.1211 22.3509V21.5146H34.3189C33.782 21.5146 33.3602 21.0965 33.3602 20.5643V2.54678C33.3219 2.20468 33.0151 1.90058 32.7084 1.90058H5.25328C4.94652 1.90058 4.6781 2.16667 4.6781 2.47076V20.5643C4.6781 21.0965 4.25631 21.5146 3.71948 21.5146H1.91726V22.3509ZM12.9223 16.269V11.5175C12.9223 10.5673 13.6509 9.76901 14.6095 9.65497V7.94445C14.6095 5.54971 16.6034 3.5731 19.0192 3.5731C21.4349 3.5731 23.4289 5.54971 23.4289 7.94445V9.65497C24.3875 9.76901 25.116 10.5292 25.116 11.5175V16.269C25.116 17.2953 24.2725 18.1316 23.2371 18.1316H14.8012C13.7659 18.1316 12.9223 17.2953 12.9223 16.269ZM23.1988 11.5556H14.8396V16.231H23.1604V11.5556H23.1988ZM16.5267 7.94445V9.65497H21.5116V7.94445C21.5116 6.57602 20.3996 5.47368 19.0192 5.47368C17.6387 5.47368 16.5267 6.61404 16.5267 7.94445Z" fill="white"/>
</svg>
