<svg width="65" height="65" viewBox="0 0 65 65" fill="none" xmlns="http://www.w3.org/2000/svg">
<g clip-path="url(#clip0_7194_5975)">
<path d="M34.3363 23.8677C34.3056 22.4099 34.5353 21.1629 35.5817 20.0663C37.4312 18.128 40.9738 18.1288 42.8892 19.968C43.8399 20.881 44.3379 22.3402 44.2336 23.6461C44.8941 23.8115 45.5606 23.9608 46.2035 24.1908C47.0608 24.4976 47.3791 25.0087 47.415 25.9037C48.5421 25.9784 49.4166 26.5264 49.8325 27.5999C49.8903 27.7491 49.9398 27.9215 50 28.0654V46.9846C49.8896 47.2766 49.8229 47.6074 49.6917 47.8817C48.758 49.8384 47.0067 49.8353 45.1234 49.7857C43.6799 49.7789 42.2369 49.7915 40.7934 49.7929C40.4177 49.7932 39.8699 49.6169 40.0389 49.1406C40.2322 48.5961 41.2448 48.7416 41.7105 48.7431L44.4512 48.7413C45.2058 48.7403 46.8912 48.8099 47.5329 48.5749C48.104 48.3619 48.5594 47.9188 48.7878 47.3537C48.8846 47.1127 48.9401 46.8571 48.9519 46.5977C48.9947 45.8083 48.9647 44.7579 48.9647 43.956L48.9635 39.0553L48.964 32.2576C48.9642 30.9585 48.987 29.6491 48.9401 28.3519C48.9065 27.422 48.2098 27.0992 47.42 26.9355C47.3627 28.4906 47.4043 30.2747 47.4045 31.843L47.4035 40.6405L47.4084 43.9523C47.4095 44.5627 47.4292 45.1753 47.3763 45.7804C47.3137 46.4976 46.7123 47.1068 45.9972 47.1734C45.4111 47.2281 44.8188 47.2101 44.2278 47.2102L41.1509 47.21L35.8268 47.2095C34.9915 47.2101 34.1561 47.2102 33.3208 47.2166C33.2299 47.2173 33.1398 47.2091 33.0497 47.1974C32.9936 47.7415 33.0557 48.255 33.0099 48.7499C34.1245 48.7584 35.2392 48.7589 36.3538 48.7513C36.9731 48.7488 37.5901 48.7274 38.201 48.7806C38.6908 48.8233 38.7978 49.3773 38.5037 49.648C38.2555 49.8766 37.2895 49.7915 36.9481 49.7919L34.6257 49.7967L27.2814 49.7915L21.3868 49.7867C20.3244 49.7861 19.2048 49.798 18.1994 49.7652C16.6963 49.7163 15.4512 48.7483 15.0979 47.2948C15.0792 47.2181 15.0454 47.1143 15 47.0505V27.9899L15.0144 27.9658C15.1315 27.7659 15.164 27.5387 15.2678 27.3394C15.7818 26.353 16.5133 26.0096 17.5719 25.9122C17.6384 25.3776 17.7015 24.8705 18.1601 24.5162C19.0646 23.8174 21.8643 23.4527 23.0383 23.3669C23.2906 23.3485 23.5951 23.2973 23.8451 23.3363C24.0021 23.3608 24.1601 23.4249 24.2538 23.5596C24.3232 23.6592 24.3472 23.7877 24.3233 23.9061C24.2931 24.0553 24.2006 24.181 24.074 24.2637C23.7466 24.4773 22.9227 24.4233 22.5146 24.4671C21.8105 24.5427 19.2148 24.9196 18.7694 25.369C18.7258 25.413 18.7085 25.5155 18.6947 25.5742C18.561 26.1419 18.6293 26.8247 18.6292 27.4094L18.6291 30.1918L18.6294 39.6774C18.6295 41.1828 18.6786 43.0062 18.6245 44.4953C19.629 44.191 20.4963 43.9459 21.5388 43.7732C24.5241 43.2785 29.1347 43.3973 31.9815 44.484L31.9831 31.4389V27.4376C31.983 26.9255 32.0113 25.8224 31.9627 25.3607C31.613 25.1868 31.1775 25.0568 30.8017 24.9574C29.7762 24.686 28.7221 24.5542 27.6679 24.4551C27.1875 24.4099 26.694 24.4171 26.2231 24.3126C25.8976 24.2357 25.8203 23.994 25.8832 23.6921C25.9682 23.2768 26.4867 23.3114 26.81 23.3357C28.324 23.4491 29.8377 23.6055 31.3029 24.021C31.7251 24.1408 32.1119 24.3086 32.5234 24.4414C33.1397 24.1803 33.6685 23.9889 34.3363 23.8677ZM41.5633 29.1249C42.5289 29.6225 43.0089 30.6211 42.4673 31.6361C42.2383 32.0591 41.8482 32.3716 41.3855 32.5029C40.8068 32.673 38.2447 32.6145 37.552 32.5752C35.7965 32.4755 35.1671 30.0147 37.0052 29.1242C36.6438 27.1566 35.2748 26.8065 34.5722 24.8721C34.1162 24.9783 33.4692 25.1386 33.0574 25.3514C32.9917 25.7237 33.0113 26.4447 33.0116 26.8428L33.0142 29.2016L33.014 37.9175C33.0139 40.0921 32.9951 42.2985 33.0245 44.4706C36.9595 43.1668 42.4538 43.1232 46.3716 44.5163C46.3426 43.029 46.3686 41.4487 46.3689 39.9545L46.3692 31.134L46.3685 27.746C46.3684 27.4338 46.4311 25.5036 46.2294 25.3647C45.7377 25.0261 44.6621 24.8354 44.0565 24.6926C43.8791 25.2327 43.6944 25.6078 43.365 26.0808C42.6241 27.1447 41.7536 27.7708 41.5633 29.1249ZM18.6257 45.6659C18.6957 45.8248 18.7575 46.0118 18.9336 46.0805C19.3249 46.2332 25.1468 46.1481 26.0913 46.1491L31.9704 46.1509C31.9665 45.9734 31.9611 45.8066 31.9712 45.6288C30.5467 44.7651 26.2493 44.4938 24.5935 44.5472C23.0219 44.5846 20.0322 44.9159 18.6257 45.6659ZM33.0662 45.5991C33.0414 45.7822 33.0147 45.9638 33.0007 46.148L40.2759 46.1491L43.9632 46.1529C44.4614 46.1531 44.9599 46.1548 45.458 46.1528C45.6695 46.152 46.0321 46.1579 46.1827 45.9939C46.2617 45.9079 46.3345 45.7694 46.391 45.6646C44.2577 44.6986 41.4205 44.514 39.116 44.548C37.5306 44.6037 34.4743 44.8918 33.0662 45.5991ZM41.3149 30.1491C40.7525 30.0075 38.6033 30.0303 37.9022 30.054C37.4407 30.0712 37.143 30.0822 36.9684 30.5718C36.7807 31.0985 37.179 31.4647 37.6765 31.5229C38.0256 31.5638 38.4285 31.5452 38.7832 31.5442L40.8051 31.5375C41.0846 31.5117 41.2877 31.4779 41.4798 31.2471C41.6037 31.0989 41.6613 30.9063 41.6391 30.7143C41.6073 30.4525 41.4962 30.3195 41.3149 30.1491ZM39.0127 19.6622C38.4134 19.72 37.9826 19.777 37.4274 20.0248C35.8938 20.7093 35.2478 22.166 35.3889 23.7923C35.5267 25.3805 36.8034 26.1888 37.5333 27.4806C37.8181 27.9857 37.9294 28.3984 38.0504 28.965C38.2917 28.9784 38.5332 28.9899 38.7748 28.9996C38.7744 27.8513 38.8028 26.5914 38.7709 25.4521C38.4942 25.4505 36.8271 25.5828 37.5796 24.5108C37.7174 24.3146 39.1697 24.3816 39.5496 24.3836C40.0104 24.381 41.118 24.2243 41.1172 24.895C41.1182 25.0436 41.0579 25.1859 40.9506 25.2886C40.7485 25.4818 40.1342 25.465 39.8604 25.4521C39.8423 25.4514 39.8243 25.4504 39.8062 25.4492C39.7907 26.5928 39.8379 27.8488 39.7999 28.9713C40.0306 28.9803 40.2991 28.9978 40.5267 28.9984C40.6377 28.3947 40.7502 27.9933 41.055 27.4519C41.7498 26.2175 42.9272 25.4639 43.1526 23.9816C43.4649 21.9276 42.3173 20.1146 40.2275 19.738C39.8268 19.6666 39.4192 19.6412 39.0127 19.6622ZM17.4465 26.9698C15.749 27.241 16.0325 28.6873 16.032 29.9911L16.0315 32.5212L16.0318 40.3482L16.0319 44.7079C16.0316 45.387 15.9917 46.2864 16.0784 46.9267C16.2031 47.8474 17.094 48.641 18.0103 48.7006C18.5711 48.7577 19.1122 48.7432 19.675 48.7427L22.1967 48.7399L30.6714 48.7565C31.0975 48.7586 31.5553 48.7525 31.9787 48.765C31.9422 48.2962 31.9834 47.7096 31.9714 47.2173L22.9969 47.2084L20.4352 47.2107C19.5999 47.212 18.648 47.3478 18.0417 46.6912C17.775 46.4024 17.6528 46.1827 17.6228 45.7852C17.5753 45.1852 17.5948 44.5356 17.5961 43.9308L17.6006 40.6124L17.5997 29.1514C17.5997 28.5268 17.6078 27.6783 17.5899 27.0289C17.5883 26.9737 17.4828 26.972 17.4465 26.9698Z" fill="#05C7F2"/>
<path d="M39.2962 35.1129C40.9438 35.0768 42.6323 35.2295 44.1799 35.831C44.8601 36.0954 44.9679 36.622 44.2876 36.9804C43.9094 36.8556 43.5412 36.6981 43.157 36.5833C42.2244 36.3044 41.229 36.1761 40.2569 36.1619C38.3399 36.1518 37.032 36.2303 35.2401 36.9874L34.8668 36.7921C34.6722 36.268 34.7792 36.0287 35.3356 35.8067C36.5906 35.306 37.9579 35.1744 39.2962 35.1129Z" fill="#05C7F2"/>
<path d="M39.1855 38.906C39.2641 38.9018 39.3427 38.8991 39.4214 38.8979C40.7928 38.8765 43.3497 39.0396 44.5854 39.8729C44.9158 40.0957 44.684 40.8316 44.1553 40.7055C43.7795 40.6159 43.396 40.4402 43.0228 40.3253C42.1545 40.0838 41.2842 40.003 40.3889 39.9565C39.1028 39.9151 37.8059 40.0122 36.546 40.2949C36.2151 40.3691 35.5625 40.6853 35.309 40.7131C35.1742 40.7289 35.0389 40.6886 34.9347 40.6016C34.1725 39.9765 35.5969 39.4847 36.0163 39.3681C37.1004 39.0668 38.0722 38.9681 39.1855 38.906Z" fill="#05C7F2"/>
<path d="M24.7279 35.1128C24.9644 35.1075 25.201 35.1057 25.4375 35.1075C26.7927 35.1289 28.9487 35.3002 30.0952 36.0907C30.467 36.3724 30.0202 37.0683 29.684 36.9312C28.3973 36.4067 27.2867 36.2192 25.882 36.164C23.8446 36.1319 22.643 36.2295 20.7388 36.9869C20.0642 36.6884 20.0829 36.1314 20.7362 35.859C21.9974 35.333 23.3739 35.176 24.7279 35.1128Z" fill="#05C7F2"/>
<path d="M24.6903 31.319C24.9865 31.3129 25.2827 31.3124 25.5788 31.3179C26.8863 31.3485 28.996 31.527 30.0944 32.3002C30.4613 32.5986 30.0262 33.2901 29.6629 33.1342C28.3755 32.5818 27.3024 32.4714 25.9024 32.3671C24.6178 32.3462 23.4967 32.3851 22.2275 32.6813C21.7347 32.7841 21.274 33.0432 20.7839 33.1394C20.5117 33.1928 20.2736 32.9541 20.2531 32.6927C20.2396 32.5391 20.2916 32.3869 20.3963 32.2736C20.5419 32.1149 20.8633 32.0212 21.0678 31.9472C22.2305 31.526 23.4574 31.3654 24.6903 31.319Z" fill="#05C7F2"/>
<path d="M24.6222 38.9058C26.2694 38.8218 28.1686 39.032 29.7103 39.6318C30.7149 40.0227 30.112 40.9347 29.5011 40.6673C28.3264 40.1528 27.1791 40.0231 25.9118 39.9647C24.1158 39.8541 22.5481 40.0959 20.8857 40.6893C20.3996 40.8628 20.0338 40.3358 20.4248 39.8073C21.6491 39.1624 23.2548 38.9875 24.6222 38.9058Z" fill="#05C7F2"/>
<path d="M24.6333 27.5245C24.9362 27.5158 25.2393 27.5145 25.5423 27.5207C26.8343 27.5445 28.9961 27.7395 30.0805 28.4991C30.4567 28.7962 30.0474 29.4862 29.6913 29.3409C28.3771 28.8048 27.3005 28.6703 25.8777 28.5798C24.6792 28.5168 23.36 28.6263 22.1879 28.8986C21.721 29.0081 21.2829 29.2332 20.8163 29.3333C20.5179 29.3973 20.2872 29.1926 20.2533 28.9008C20.1923 28.375 20.8406 28.2313 21.2212 28.0993C22.3412 27.7107 23.4626 27.6005 24.6333 27.5245Z" fill="#05C7F2"/>
<path d="M44.5214 16.8152C46.1037 16.8637 44.2542 18.5976 43.7609 18.8113C43.3646 18.8302 43.0466 18.5523 43.2174 18.1595C43.3913 17.7598 44.1407 16.9967 44.5214 16.8152Z" fill="#05C7F2" fill-opacity="0.988235"/>
<path d="M33.7959 16.816C34.2616 16.8041 34.5838 17.2479 34.9006 17.5388C35.3192 17.923 35.6864 18.447 35.0145 18.8017C34.5559 18.8614 33.7941 17.9743 33.5356 17.6143C33.3111 17.3016 33.4616 16.9905 33.7959 16.816Z" fill="#05C7F2" fill-opacity="0.984314"/>
<path d="M39.1992 15.2059C39.8313 15.2122 39.8369 15.7906 39.8227 16.2827C39.8089 16.7608 39.9199 17.3531 39.4148 17.5836C38.633 17.6717 38.7614 16.7317 38.7687 16.2162C38.7756 15.7255 38.7078 15.407 39.1992 15.2059Z" fill="#05C7F2" fill-opacity="0.988235"/>
</g>
<defs>
<clipPath id="clip0_7194_5975">
<rect width="35" height="35" fill="white" transform="translate(15 15)"/>
</clipPath>
</defs>
</svg>
