<svg width="65" height="65" viewBox="0 0 65 65" fill="none" xmlns="http://www.w3.org/2000/svg">
<g clip-path="url(#clip0_5371_19473)">
<path d="M20.0145 14.9908C20.0927 14.9905 20.1709 14.9902 20.2515 14.9899C20.3381 14.9899 20.4248 14.9899 20.5141 14.9899C20.6065 14.9897 20.6989 14.9894 20.7913 14.9891C21.0461 14.9885 21.3009 14.9882 21.5557 14.988C21.8302 14.9878 22.1046 14.9871 22.3791 14.9865C23.0423 14.9852 23.7055 14.9845 24.3688 14.9839C24.6808 14.9836 24.9929 14.9832 25.3049 14.9828C26.3418 14.9817 27.3787 14.9807 28.4156 14.9802C28.6848 14.9801 28.954 14.9799 29.2232 14.9798C29.2901 14.9798 29.357 14.9797 29.4259 14.9797C30.5105 14.9791 31.5951 14.9774 32.6797 14.9752C33.7924 14.9729 34.905 14.9717 36.0177 14.9715C36.6428 14.9713 37.2679 14.9707 37.8929 14.969C38.4251 14.9675 38.9573 14.9669 39.4895 14.9676C39.7611 14.9679 40.0328 14.9678 40.3044 14.9665C40.553 14.9653 40.8015 14.9653 41.05 14.9664C41.1829 14.9666 41.3157 14.9655 41.4486 14.9644C41.5664 14.9652 41.5664 14.9652 41.6867 14.9661C41.7546 14.9661 41.8225 14.966 41.8925 14.9659C42.1211 15.0097 42.2023 15.0917 42.3435 15.2734C42.378 15.4856 42.378 15.4856 42.3783 15.7404C42.3789 15.8108 42.3789 15.8108 42.3796 15.8827C42.3806 16.0399 42.3798 16.1971 42.3789 16.3543C42.3793 16.4671 42.3798 16.5798 42.3804 16.6926C42.3816 16.9988 42.3811 17.305 42.3803 17.6112C42.3796 17.9314 42.3802 18.2517 42.3806 18.572C42.3811 19.1099 42.3805 19.6478 42.3792 20.1857C42.3777 20.8077 42.3782 21.4298 42.3797 22.0519C42.3809 22.5858 42.3811 23.1196 42.3804 23.6535C42.38 23.9725 42.3799 24.2914 42.3808 24.6104C42.3816 24.9102 42.3811 25.21 42.3795 25.5099C42.3791 25.62 42.3792 25.7301 42.3798 25.8403C42.3806 25.9905 42.3796 26.1406 42.3783 26.2907C42.3781 26.4169 42.3781 26.4169 42.378 26.5455C42.3371 26.7975 42.2701 26.8778 42.0701 27.0312C41.9334 27.0675 41.9334 27.0675 41.7967 27.0654C41.729 27.0665 41.729 27.0665 41.6599 27.0675C41.4583 27.014 41.3799 26.9194 41.2498 26.7578C41.2161 26.5576 41.2161 26.5576 41.2169 26.3201C41.2163 26.1852 41.2163 26.1852 41.2158 26.0476C41.2167 25.9477 41.2177 25.8477 41.2188 25.7478C41.2188 25.641 41.2188 25.5342 41.2186 25.4274C41.2186 25.1413 41.2202 24.8552 41.2221 24.5692C41.2237 24.3007 41.2237 24.0323 41.2239 23.7639C41.2254 22.9788 41.2292 22.1937 41.2327 21.4087C41.2383 19.6547 41.244 17.9008 41.2498 16.0937C34.392 16.0937 27.5342 16.0937 20.4685 16.0937C20.4685 17.4472 20.4685 18.8008 20.4685 20.1953C20.3783 20.2855 20.2881 20.3758 20.1951 20.4687C18.8416 20.4687 17.4881 20.4687 16.0935 20.4687C16.0935 29.8531 16.0935 39.2375 16.0935 48.9062C22.5185 48.8981 22.5185 48.8981 28.9435 48.8877C30.1835 48.8868 30.1835 48.8868 30.7633 48.8866C31.1699 48.8865 31.5765 48.8857 31.9832 48.8846C32.4517 48.8833 32.9202 48.8827 33.3887 48.883C33.6286 48.8831 33.8684 48.8829 34.1083 48.8818C34.3647 48.8808 34.621 48.881 34.8774 48.8816C34.9906 48.8807 34.9906 48.8807 35.1061 48.8797C35.2089 48.8804 35.2089 48.8804 35.3138 48.881C35.3731 48.8809 35.4324 48.8808 35.4935 48.8807C35.6795 48.9122 35.7379 48.9611 35.8494 49.1113C35.9202 49.3845 35.9469 49.5288 35.8238 49.7863C35.7127 49.9316 35.7127 49.9316 35.6443 50C35.5359 50.0068 35.4272 50.0089 35.3185 50.0091C35.2476 50.0094 35.1767 50.0098 35.1036 50.0101C34.9853 50.01 34.9853 50.01 34.8646 50.01C34.7815 50.0103 34.6985 50.0105 34.6129 50.0108C34.3813 50.0114 34.1497 50.0117 33.9182 50.0119C33.6688 50.0122 33.4195 50.0128 33.1701 50.0134C32.5674 50.0148 31.9647 50.0155 31.362 50.0161C31.0784 50.0164 30.7948 50.0167 30.5113 50.0171C29.5691 50.0183 28.6269 50.0193 27.6847 50.0198C27.44 50.0199 27.1954 50.02 26.9507 50.0201C26.8899 50.0202 26.8291 50.0202 26.7664 50.0202C25.7809 50.0208 24.7953 50.0225 23.8097 50.0248C22.7987 50.027 21.7877 50.0283 20.7767 50.0285C20.2087 50.0286 19.6407 50.0292 19.0727 50.031C18.5891 50.0325 18.1054 50.033 17.6218 50.0323C17.3749 50.032 17.128 50.0322 16.8811 50.0335C16.6137 50.0349 16.3464 50.0342 16.079 50.0333C16.0006 50.0341 15.9222 50.0348 15.8414 50.0356C15.7342 50.0347 15.7342 50.0347 15.6248 50.0338C15.5631 50.0339 15.5013 50.0339 15.4377 50.034C15.2098 49.9869 15.1336 49.9164 14.9998 49.7265C14.9728 49.5496 14.9626 49.4015 14.9648 49.2247C14.9644 49.1737 14.9639 49.1228 14.9634 49.0703C14.9622 48.8987 14.963 48.7271 14.9637 48.5555C14.9632 48.4315 14.9627 48.3076 14.962 48.1837C14.9604 47.8424 14.9606 47.5012 14.961 47.1599C14.9612 46.7922 14.9599 46.4244 14.9587 46.0566C14.9567 45.3358 14.9562 44.615 14.9563 43.8942C14.9563 43.3084 14.9559 42.7225 14.9552 42.1367C14.953 40.2956 14.9524 38.4546 14.953 36.6135C14.9534 35.1604 14.9513 33.7074 14.9481 32.2543C14.9448 30.7631 14.9433 29.2719 14.9437 27.7807C14.9438 26.9432 14.9433 26.1057 14.9408 25.2682C14.9388 24.5551 14.9384 23.842 14.9401 23.1289C14.941 22.765 14.9411 22.4011 14.9391 22.0372C14.9373 21.7041 14.9377 21.371 14.9398 21.0379C14.9402 20.9173 14.9398 20.7968 14.9385 20.6763C14.9283 19.6635 14.9283 19.6635 15.2297 19.3133C15.3105 19.2404 15.3933 19.1696 15.4783 19.1015C15.5491 19.0295 15.6191 18.9569 15.688 18.8831C15.7588 18.812 15.8297 18.7411 15.9007 18.6703C15.9399 18.631 15.9791 18.5917 16.0195 18.5512C16.147 18.4234 16.2747 18.2958 16.4025 18.1683C16.4919 18.0788 16.5813 17.9893 16.6707 17.8998C16.8571 17.7134 17.0435 17.5271 17.2301 17.3409C17.4694 17.1019 17.7085 16.8626 17.9475 16.6232C18.1316 16.4389 18.3158 16.2547 18.5001 16.0706C18.5883 15.9824 18.6766 15.8941 18.7648 15.8058C18.8875 15.6829 19.0104 15.5602 19.1333 15.4376C19.1881 15.3827 19.1881 15.3827 19.2439 15.3267C19.516 15.0562 19.6338 14.9915 20.0145 14.9908ZM19.0853 17.1947C19.0388 17.241 18.9923 17.2873 18.9443 17.335C18.8938 17.3856 18.8434 17.4363 18.7913 17.4884C18.7398 17.5398 18.6884 17.5913 18.6353 17.6442C18.5262 17.7533 18.4172 17.8624 18.3083 17.9716C18.1408 18.1395 17.9729 18.307 17.8051 18.4744C17.6994 18.5801 17.5938 18.6858 17.4882 18.7915C17.4376 18.842 17.387 18.8925 17.3348 18.9445C17.2885 18.991 17.2422 19.0376 17.1945 19.0855C17.1534 19.1266 17.1123 19.1678 17.07 19.2102C16.9745 19.2933 16.9745 19.2933 16.9822 19.375C17.7718 19.375 18.5613 19.375 19.3748 19.375C19.3748 18.5854 19.3748 17.7959 19.3748 16.9824C19.2485 16.9824 19.1699 17.1102 19.0853 17.1947Z" fill="#05C7F2"/>
<path d="M47.6076 27.3046C47.6717 27.3328 47.7357 27.361 47.8017 27.3901C48.7901 27.878 49.5019 28.7289 49.8635 29.7656C50.143 30.696 50.1228 31.8151 49.7267 32.705C49.6985 32.7691 49.6703 32.8332 49.6413 32.8992C49.2742 33.6427 48.7177 34.1725 48.0442 34.6353C46.1282 35.9521 44.5769 37.7837 44.1341 40.1092C44.1017 40.3067 44.0758 40.5043 44.0529 40.7031C44.0466 40.7563 44.0402 40.8096 44.0337 40.8645C43.956 41.5234 43.956 41.5234 44.1819 42.1213C44.359 42.2773 44.5449 42.411 44.7365 42.5488C45.4181 43.2163 46.1556 44.0936 46.202 45.0952C46.1471 45.5656 45.9014 45.9652 45.6722 46.3726C45.6287 46.4505 45.6287 46.4505 45.5843 46.5299C45.1745 47.2591 44.7515 47.9809 44.3264 48.7011C44.2886 48.7652 44.2508 48.8293 44.2119 48.8953C44.1757 48.9562 44.1396 49.017 44.1023 49.0798C44.0702 49.1338 44.0382 49.1879 44.0051 49.2436C43.7442 49.6576 43.412 49.8477 42.9592 49.9999C42.7242 50.0384 42.4962 50.0423 42.2585 50.0384C42.1932 50.0377 42.128 50.0369 42.0607 50.0361C39.2725 49.9535 36.3031 48.2467 34.1408 46.582C34.063 46.5237 33.9852 46.4654 33.9074 46.4071C32.7824 45.554 31.3222 44.4095 30.9963 42.9589C30.88 42.1021 31.3572 41.4753 31.7781 40.7629C32.0399 40.3189 32.3006 39.8747 32.5536 39.4256C32.5955 39.3519 32.6374 39.2781 32.6806 39.2021C32.7605 39.0613 32.8398 38.92 32.9183 38.7783C33.1879 38.3065 33.4913 37.8643 34.0383 37.7038C35.0885 37.4373 36.2308 37.7027 37.2261 38.0595C37.5338 38.1316 37.7432 38.0843 38.0205 37.9372C40.057 36.5493 41.1766 34.6964 41.6697 32.2893C41.7428 31.8991 41.7859 31.5056 41.8312 31.1114C41.9802 29.8345 42.3653 28.7037 43.3928 27.856C44.591 26.9745 46.22 26.6871 47.6076 27.3046ZM43.9846 28.9453C43.2786 29.6131 43.1319 30.3534 43.0134 31.2794C42.6618 33.974 41.7686 36.5683 39.5708 38.3028C39.382 38.4469 39.1896 38.5854 38.9943 38.7207C39.23 38.9146 39.4902 39.0419 39.7634 39.1735C40.7489 39.6594 41.6684 40.2133 42.5746 40.8349C42.6872 40.9123 42.6872 40.9123 42.8224 40.9765C42.8286 40.9333 42.8347 40.89 42.841 40.8454C43.2489 38.0374 44.5198 35.8111 46.7873 34.0722C46.8778 34.0054 46.9685 33.9388 47.0594 33.8725C47.7408 33.375 48.384 32.9022 48.7014 32.0898C48.7378 31.9986 48.7378 31.9986 48.7751 31.9055C48.9716 31.2011 48.9141 30.3398 48.5646 29.6972C48.4426 29.4995 48.3077 29.3248 48.1545 29.1503C48.1202 29.1089 48.0859 29.0675 48.0506 29.0248C47.5638 28.4823 46.9022 28.2167 46.1881 28.133C45.3458 28.1024 44.6114 28.3927 43.9846 28.9453ZM34.2092 38.9257C34.0728 39.1154 34.0728 39.1154 33.948 39.3458C33.9244 39.3872 33.9009 39.4287 33.8766 39.4715C33.827 39.5591 33.7777 39.647 33.7287 39.735C33.6542 39.8691 33.5786 40.0026 33.5029 40.136C33.213 40.6453 33.213 40.6453 32.9787 41.1816C33.024 41.1898 33.0694 41.198 33.1161 41.2065C36.436 41.8161 39.7221 43.3938 42.1781 45.7411C42.3107 45.8668 42.4435 45.979 42.5875 46.0906C42.9134 46.3625 43.1573 46.7217 43.4134 47.0573C43.5631 47.26 43.5631 47.26 43.7111 47.4023C43.7432 47.3461 43.7752 47.2899 43.8083 47.232C43.9279 47.0224 44.0475 46.8128 44.1672 46.6033C44.2188 46.5128 44.2705 46.4223 44.3221 46.3318C44.3966 46.2013 44.4711 46.0708 44.5456 45.9403C44.5685 45.9002 44.5913 45.8601 44.6149 45.8188C44.7139 45.6455 44.8123 45.4777 44.9279 45.3147C45.0379 45.0891 45.0108 44.975 44.9416 44.7363C44.6743 44.1958 44.2843 43.7613 43.8564 43.3435C43.7998 43.2876 43.7432 43.2318 43.6849 43.1743C43.159 42.6646 42.6009 42.2173 42.0021 41.7968C41.9603 41.767 41.9184 41.7373 41.8753 41.7066C40.4275 40.6828 36.0495 37.7267 34.2092 38.9257ZM32.1584 42.4804C32.2514 43.543 33.3351 44.4296 34.1077 45.0786C36.3492 46.9025 39.5511 48.9549 42.5279 48.8632C42.7634 48.8543 42.7634 48.8543 42.9592 48.7011C42.4644 46.8148 40.1732 45.4362 38.5929 44.4961C35.5208 42.6241 35.5208 42.6241 32.1584 42.4804Z" fill="#05C7F2"/>
<path d="M32.6159 20.6874C33.8925 21.8059 34.6816 23.2145 34.8072 24.9164C34.8998 26.5357 34.4047 28.1117 33.3258 29.333C32.2122 30.5486 30.7625 31.2636 29.1088 31.3598C27.4096 31.4204 25.9387 30.835 24.6564 29.7426C23.5004 28.6587 22.864 27.1617 22.7821 25.5909C22.7349 23.7897 23.4184 22.2746 24.6473 20.9772C26.7965 18.8813 30.312 18.8075 32.6159 20.6874ZM24.9827 22.3449C24.2271 23.2951 23.8617 24.5234 23.9551 25.7324C24.1422 27.106 24.7404 28.3198 25.835 29.1888C26.9083 29.9636 28.1671 30.3396 29.4928 30.1568C30.6348 29.9602 31.5673 29.4334 32.3633 28.6035C32.4045 28.5621 32.4456 28.5207 32.488 28.478C33.287 27.6183 33.6529 26.4461 33.6646 25.2899C33.6 23.894 33.0546 22.7139 32.0587 21.7401C30.9482 20.7661 29.6857 20.4522 28.2357 20.5229C26.9336 20.6259 25.8178 21.3775 24.9827 22.3449Z" fill="#05C7F2"/>
<path d="M19.5615 33.7636C19.6437 33.7632 19.7258 33.7627 19.8104 33.7622C20.0381 33.7612 20.2658 33.7613 20.4935 33.7621C20.7392 33.7625 20.9849 33.7614 21.2305 33.7606C21.7117 33.7591 22.1929 33.7591 22.6741 33.7596C23.0651 33.7601 23.4561 33.76 23.8471 33.7596C23.9028 33.7595 23.9584 33.7594 24.0157 33.7594C24.1287 33.7592 24.2418 33.7591 24.3548 33.759C25.4147 33.7579 26.4747 33.7585 27.5347 33.7596C28.5047 33.7606 29.4748 33.7596 30.4448 33.7576C31.4406 33.7556 32.4364 33.7549 33.4322 33.7555C33.5448 33.7556 33.6574 33.7557 33.77 33.7557C33.8254 33.7558 33.8808 33.7558 33.9379 33.7558C34.3285 33.756 34.7191 33.7553 35.1097 33.7543C35.5857 33.7531 36.0616 33.7531 36.5376 33.7547C36.7805 33.7554 37.0233 33.7557 37.2662 33.7544C37.5294 33.753 37.7925 33.7543 38.0556 33.7559C38.1711 33.7547 38.1711 33.7547 38.2889 33.7534C38.8039 33.7596 38.8039 33.7596 39.0766 33.9593C39.2259 34.1801 39.2382 34.2892 39.1992 34.5508C39.1402 34.7277 39.1007 34.8005 38.942 34.899C38.765 34.9707 38.6353 34.9781 38.4446 34.9783C38.3748 34.9787 38.3049 34.9791 38.2329 34.9795C38.1563 34.9793 38.0796 34.979 38.0007 34.9787C37.9192 34.979 37.8377 34.9793 37.7537 34.9795C37.5274 34.9801 37.3011 34.9801 37.0748 34.9798C36.8307 34.9796 36.5867 34.9802 36.3427 34.9808C35.8645 34.9816 35.3864 34.9817 34.9083 34.9816C34.5197 34.9815 34.1312 34.9816 33.7426 34.9819C33.6874 34.9819 33.6321 34.982 33.5752 34.982C33.4629 34.9821 33.3506 34.9822 33.2384 34.9823C32.1852 34.983 31.132 34.9828 30.0788 34.9824C29.115 34.9821 28.1511 34.9828 27.1872 34.9841C26.1979 34.9855 25.2086 34.986 24.2193 34.9858C23.6637 34.9856 23.1082 34.9858 22.5526 34.9868C22.0796 34.9876 21.6067 34.9877 21.1337 34.9869C20.8924 34.9865 20.651 34.9864 20.4097 34.9872C20.1482 34.9881 19.8867 34.9874 19.6252 34.9865C19.5487 34.987 19.4722 34.9875 19.3934 34.988C19.3234 34.9875 19.2533 34.987 19.1811 34.9865C19.0906 34.9865 19.0906 34.9865 18.9982 34.9865C18.788 34.9549 18.6583 34.8788 18.4863 34.7558C18.3792 34.5416 18.3597 34.3025 18.418 34.0722C18.7327 33.7054 19.115 33.7604 19.5615 33.7636Z" fill="#05C7F2"/>
<path d="M19.1821 37.3872C19.2562 37.3865 19.2562 37.3865 19.3319 37.3859C19.4977 37.3848 19.6633 37.3857 19.8291 37.3865C19.9479 37.3862 20.0667 37.3857 20.1855 37.3851C20.5082 37.3838 20.8309 37.3843 21.1536 37.3852C21.4912 37.3859 21.8287 37.3852 22.1662 37.3848C22.7331 37.3843 23.2999 37.385 23.8668 37.3863C24.5224 37.3877 25.178 37.3873 25.8336 37.3858C26.3963 37.3845 26.9589 37.3843 27.5215 37.3851C27.8576 37.3855 28.1938 37.3855 28.5299 37.3846C28.8459 37.3838 29.1619 37.3844 29.4779 37.386C29.594 37.3863 29.7101 37.3862 29.8261 37.3856C29.9844 37.3849 30.1426 37.3858 30.3009 37.3872C30.4338 37.3873 30.4338 37.3873 30.5694 37.3875C30.8281 37.4276 30.9087 37.4893 31.0647 37.6953C31.1145 37.8827 31.104 38.0529 31.0647 38.2422C30.9138 38.4451 30.8264 38.5039 30.5862 38.584C30.4319 38.5906 30.2775 38.5929 30.1231 38.5932C30.0758 38.5933 30.0284 38.5935 29.9797 38.5936C29.8207 38.5941 29.6617 38.594 29.5026 38.5939C29.3888 38.5941 29.2749 38.5944 29.1611 38.5946C28.8515 38.5952 28.5419 38.5954 28.2323 38.5954C27.9739 38.5955 27.7155 38.5958 27.4571 38.596C26.8475 38.5966 26.2378 38.5967 25.6282 38.5967C24.9993 38.5966 24.3703 38.5974 23.7414 38.5984C23.2015 38.5993 22.6617 38.5997 22.1218 38.5997C21.7993 38.5996 21.4769 38.5998 21.1544 38.6006C20.851 38.6012 20.5476 38.6012 20.2442 38.6007C20.133 38.6007 20.0217 38.6008 19.9104 38.6012C19.7583 38.6018 19.6063 38.6014 19.4542 38.6009C19.3266 38.601 19.3266 38.601 19.1965 38.601C18.9576 38.5835 18.7742 38.5433 18.5549 38.4473C18.4085 38.2276 18.3977 38.0936 18.3867 37.8345C18.4819 37.4144 18.8075 37.3876 19.1821 37.3872Z" fill="#05C7F2"/>
<path d="M19.2296 44.6935C19.2993 44.6927 19.2993 44.6927 19.3704 44.692C19.5255 44.6908 19.6806 44.692 19.8357 44.6933C19.9471 44.6929 20.0585 44.6924 20.1699 44.6918C20.4722 44.6905 20.7744 44.6914 21.0767 44.6927C21.3929 44.6939 21.7092 44.6933 22.0255 44.6929C22.5565 44.6926 23.0875 44.6937 23.6186 44.6956C24.2327 44.6978 24.8468 44.6978 25.4609 44.6966C26.0516 44.6955 26.6423 44.696 27.2329 44.6971C27.4844 44.6976 27.7358 44.6975 27.9872 44.697C28.2832 44.6965 28.5792 44.6973 28.8752 44.6992C28.9838 44.6997 29.0925 44.6997 29.2012 44.6992C29.3495 44.6986 29.4976 44.6997 29.6459 44.7012C29.7288 44.7014 29.8118 44.7016 29.8973 44.7018C30.1496 44.7434 30.2287 44.8076 30.3807 45.0098C30.449 45.2448 30.449 45.2448 30.449 45.4884C30.3283 45.6799 30.2419 45.797 30.0389 45.8985C29.8916 45.9057 29.744 45.9083 29.5965 45.909C29.5276 45.9095 29.5276 45.9095 29.4573 45.9099C29.3027 45.9109 29.148 45.9113 28.9934 45.9117C28.8828 45.9122 28.7722 45.9128 28.6616 45.9134C28.2978 45.9152 27.934 45.9162 27.5702 45.9172C27.4451 45.9176 27.3199 45.9179 27.1948 45.9183C26.6743 45.9198 26.1539 45.9211 25.6334 45.9218C24.887 45.9229 24.1407 45.9252 23.3943 45.9291C22.8697 45.9317 22.3452 45.9331 21.8207 45.9334C21.5073 45.9337 21.1938 45.9345 20.8804 45.9367C20.5856 45.9388 20.2907 45.9392 19.9959 45.9384C19.8877 45.9384 19.7794 45.939 19.6712 45.9402C19.5234 45.9417 19.3758 45.9412 19.228 45.9401C19.1453 45.9403 19.0626 45.9405 18.9774 45.9408C18.6952 45.886 18.5935 45.7799 18.4178 45.5567C18.3751 45.3175 18.3751 45.3175 18.4178 45.0782C18.6682 44.7601 18.8293 44.6936 19.2296 44.6935Z" fill="#05C7F2"/>
<path d="M19.2263 40.967C19.3111 40.9666 19.3959 40.9663 19.4833 40.9658C19.5778 40.9658 19.6724 40.9657 19.7669 40.9656C19.866 40.9653 19.9652 40.965 20.0643 40.9646C20.3341 40.9637 20.6038 40.9633 20.8736 40.9629C21.0421 40.9627 21.2106 40.9625 21.3791 40.9622C21.9061 40.9612 22.4331 40.9606 22.9601 40.9603C23.5688 40.96 24.1774 40.9588 24.786 40.9568C25.2563 40.9553 25.7265 40.9546 26.1968 40.9546C26.4777 40.9545 26.7587 40.9541 27.0396 40.9529C27.304 40.9517 27.5683 40.9516 27.8326 40.9522C27.9296 40.9522 28.0265 40.9519 28.1235 40.9513C28.256 40.9504 28.3885 40.9509 28.521 40.9515C28.5951 40.9514 28.6692 40.9513 28.7456 40.9512C28.9739 40.9803 29.1027 41.0459 29.287 41.1817C29.394 41.3956 29.403 41.6336 29.3554 41.8653C29.2074 42.0548 29.1266 42.1309 28.8868 42.1732C28.8108 42.1733 28.7348 42.1734 28.6565 42.1735C28.569 42.1742 28.4816 42.175 28.3916 42.1758C28.2949 42.1753 28.1981 42.1747 28.1014 42.1741C27.9995 42.1745 27.8975 42.175 27.7955 42.1756C27.5187 42.1768 27.2419 42.1763 26.9651 42.1755C26.6754 42.1748 26.3858 42.1754 26.0962 42.1759C25.6098 42.1763 25.1234 42.1757 24.637 42.1744C24.0746 42.1729 23.5122 42.1734 22.9497 42.1749C22.4669 42.1761 21.9842 42.1763 21.5014 42.1756C21.213 42.1752 20.9246 42.1751 20.6362 42.176C20.3651 42.1768 20.094 42.1763 19.8228 42.1747C19.7233 42.1743 19.6238 42.1744 19.5242 42.175C19.3884 42.1758 19.2526 42.1747 19.1168 42.1735C19.0028 42.1733 19.0028 42.1733 18.8865 42.1732C18.6468 42.1309 18.5664 42.0543 18.4179 41.8653C18.3682 41.678 18.3783 41.5076 18.4179 41.3184C18.6597 41.0041 18.8434 40.9681 19.2263 40.967Z" fill="#05C7F2"/>
<path d="M31.6114 23.6133C31.7823 23.7158 31.7823 23.7158 31.8848 23.8867C31.9206 24.2044 31.9353 24.4062 31.7342 24.6627C31.6661 24.7385 31.5966 24.813 31.5259 24.8864C31.45 24.97 31.3741 25.0536 31.2982 25.1372C31.2592 25.1793 31.2202 25.2213 31.18 25.2647C31.0008 25.4601 30.8301 25.6626 30.6586 25.8648C30.3357 26.2424 30.0104 26.6177 29.6843 26.9925C29.5002 27.2046 29.3174 27.4176 29.1371 27.6328C29.1026 27.674 29.0681 27.7151 29.0326 27.7575C28.9674 27.8355 28.9025 27.9136 28.8377 27.9919C28.6433 28.2246 28.5584 28.3193 28.2519 28.3554C27.9099 28.3225 27.7331 28.1938 27.4628 27.9925C27.4156 27.9586 27.3684 27.9248 27.3198 27.8899C27.1772 27.787 27.0359 27.6827 26.8946 27.5781C26.8118 27.5181 26.7289 27.4582 26.646 27.3984C26.0979 26.9983 26.0979 26.9983 25.9376 26.7578C25.9086 26.4922 25.8955 26.3407 26.0486 26.1169C26.2594 25.9727 26.3633 25.9326 26.6212 25.9375C27.1519 26.139 27.613 26.5499 28.0567 26.8945C28.4008 26.6386 28.6495 26.3374 28.9165 26.0032C29.0796 25.8038 29.2493 25.614 29.4239 25.4248C29.7058 25.1185 29.9705 24.802 30.2322 24.4784C31.0082 23.531 31.0082 23.531 31.6114 23.6133Z" fill="#05C7F2"/>
</g>
<defs>
<clipPath id="clip0_5371_19473">
<rect width="35" height="35" fill="white" transform="translate(15 15)"/>
</clipPath>
</defs>
</svg>
