<svg width="65" height="65" viewBox="0 0 65 65" fill="none" xmlns="http://www.w3.org/2000/svg">
<g clip-path="url(#clip0_5570_6156)">
<path d="M16.2498 31.4486C16.3068 31.4483 16.3639 31.4479 16.4227 31.4476C16.6147 31.4468 16.8067 31.4474 16.9988 31.4481C17.1375 31.4478 17.2762 31.4474 17.415 31.447C17.7969 31.446 18.1788 31.4463 18.5607 31.4468C18.9723 31.4471 19.3839 31.4462 19.7955 31.4455C20.5555 31.4444 21.3154 31.4443 22.0754 31.4446C22.7775 31.4449 23.4796 31.4449 24.1816 31.4445C24.2758 31.4444 24.3699 31.4444 24.464 31.4443C24.6058 31.4442 24.7476 31.4442 24.8895 31.4441C26.2083 31.4433 27.5271 31.443 28.8459 31.4436C28.8957 31.4436 28.9454 31.4436 28.9966 31.4436C29.4005 31.4438 29.8044 31.444 30.2082 31.4441C31.7837 31.4448 33.3592 31.4443 34.9347 31.4427C36.7043 31.4409 38.4738 31.44 40.2434 31.4405C40.432 31.4406 40.6206 31.4406 40.8092 31.4406C40.8789 31.4407 40.8789 31.4407 40.9499 31.4407C41.6516 31.4408 42.3532 31.4403 43.0548 31.4394C43.8526 31.4384 44.6503 31.4383 45.4481 31.4395C45.8553 31.4401 46.2625 31.4403 46.6698 31.4392C47.0423 31.4383 47.4148 31.4386 47.7873 31.4399C47.9224 31.4402 48.0574 31.44 48.1924 31.4393C48.3755 31.4384 48.5585 31.4391 48.7416 31.4404C48.7944 31.4397 48.8472 31.439 48.9016 31.4384C49.2546 31.4432 49.4544 31.5255 49.7266 31.748C50.0038 32.105 49.9845 32.4763 49.9316 32.9101C49.7829 33.224 49.627 33.3771 49.3164 33.5254C49.1225 33.5448 48.9439 33.553 48.7502 33.5514C48.6932 33.5517 48.6361 33.552 48.5773 33.5523C48.3853 33.5531 48.1933 33.5525 48.0012 33.5519C47.8625 33.5521 47.7238 33.5525 47.585 33.553C47.2031 33.554 46.8212 33.5537 46.4393 33.5532C46.0277 33.5528 45.6161 33.5537 45.2045 33.5544C44.4445 33.5555 43.6846 33.5557 42.9246 33.5553C42.2225 33.555 41.5204 33.5551 40.8184 33.5555C40.7242 33.5555 40.6301 33.5556 40.536 33.5556C40.3942 33.5557 40.2523 33.5558 40.1105 33.5558C38.7917 33.5566 37.4729 33.5569 36.1541 33.5564C36.1043 33.5563 36.0546 33.5563 36.0034 33.5563C35.5995 33.5561 35.1956 33.556 34.7918 33.5558C33.2163 33.5551 31.6407 33.5557 30.0652 33.5572C28.2957 33.559 26.5262 33.5599 24.7566 33.5594C24.568 33.5594 24.3794 33.5593 24.1908 33.5593C24.1211 33.5593 24.1211 33.5593 24.0501 33.5592C23.3484 33.5591 22.6468 33.5596 21.9452 33.5605C21.1474 33.5616 20.3497 33.5616 19.5519 33.5604C19.1447 33.5598 18.7375 33.5597 18.3302 33.5607C17.9577 33.5617 17.5852 33.5613 17.2126 33.56C17.0776 33.5598 16.9426 33.56 16.8076 33.5607C16.6245 33.5616 16.4415 33.5608 16.2584 33.5596C16.2056 33.5602 16.1528 33.5609 16.0984 33.5616C15.7454 33.5568 15.5456 33.4744 15.2734 33.2519C14.9961 32.8949 15.0154 32.5237 15.0684 32.0898C15.3238 31.5505 15.684 31.4437 16.2498 31.4486Z" fill="#05C7F2"/>
<path d="M49.3848 40.293C49.6986 40.4416 49.852 40.5974 50 40.9082C50.0198 41.1055 50.0287 41.2879 50.0276 41.4851C50.0281 41.5424 50.0286 41.5997 50.029 41.6587C50.0303 41.8479 50.03 42.0371 50.0296 42.2263C50.0299 42.3585 50.0303 42.4908 50.0307 42.623C50.0313 42.9005 50.0312 43.1779 50.0305 43.4553C50.0297 43.8087 50.0311 44.1621 50.0331 44.5155C50.0343 44.7889 50.0343 45.0624 50.0339 45.3358C50.0339 45.4659 50.0343 45.5961 50.0352 45.7262C50.0426 47.039 49.7944 48.0338 48.871 49.0208C48.1566 49.6892 47.3049 50.0088 46.3393 50.0121C46.2812 50.0125 46.2232 50.013 46.1634 50.0135C45.9719 50.0148 45.7804 50.0156 45.5889 50.0163C45.4906 50.0167 45.4906 50.0167 45.3903 50.0171C45.0437 50.0185 44.6971 50.0195 44.3504 50.0202C43.9927 50.0209 43.6349 50.0233 43.2772 50.026C43.0017 50.0278 42.7263 50.0284 42.4508 50.0286C42.3189 50.0289 42.1871 50.0297 42.0552 50.031C41.8706 50.0327 41.6861 50.0326 41.5016 50.0321C41.4202 50.0334 41.4202 50.0334 41.3372 50.0348C40.9812 50.0314 40.7816 49.9601 40.498 49.7266C40.2208 49.3695 40.2401 48.9983 40.293 48.5644C40.4418 48.2501 40.5984 48.0995 40.9082 47.9492C41.0866 47.9296 41.2486 47.9207 41.4267 47.9218C41.5033 47.9211 41.5033 47.9211 41.5815 47.9204C41.7498 47.919 41.918 47.919 42.0863 47.919C42.2039 47.9182 42.3215 47.9173 42.4391 47.9163C42.7486 47.9138 43.058 47.9124 43.3675 47.9114C43.8619 47.9097 44.3562 47.907 44.8505 47.9031C45.0225 47.902 45.1944 47.9017 45.3663 47.9015C46.5077 47.8972 46.5077 47.8972 47.4707 47.334C47.8353 46.807 47.891 46.2698 47.8905 45.6409C47.8909 45.5647 47.8909 45.5647 47.8913 45.4871C47.8918 45.3777 47.8921 45.2684 47.8924 45.159C47.8929 44.9857 47.8939 44.8124 47.8952 44.6391C47.8988 44.1466 47.9021 43.6542 47.9031 43.1617C47.9038 42.8598 47.9058 42.5578 47.9087 42.2559C47.9095 42.1412 47.9099 42.0265 47.9097 41.9117C47.9096 41.7512 47.9111 41.5908 47.913 41.4304C47.9123 41.3599 47.9123 41.3599 47.9116 41.288C47.9181 40.9503 48.0133 40.7591 48.2226 40.498C48.5797 40.2208 48.9509 40.2401 49.3848 40.293Z" fill="#05C7F2"/>
<path d="M16.4354 40.293C16.7498 40.4419 16.9 40.5985 17.0506 40.9082C17.0703 41.0842 17.0792 41.2436 17.078 41.4193C17.0785 41.4696 17.079 41.5199 17.0795 41.5717C17.0808 41.7375 17.0808 41.9032 17.0808 42.069C17.0816 42.1849 17.0825 42.3007 17.0836 42.4166C17.086 42.7217 17.0874 43.0268 17.0885 43.3319C17.0901 43.8189 17.0929 44.3059 17.0968 44.7929C17.0979 44.9622 17.0982 45.1314 17.0984 45.3007C17.0949 46.4789 17.0949 46.4789 17.6659 47.4707C18.1786 47.8194 18.679 47.891 19.2892 47.8905C19.3406 47.8908 19.392 47.891 19.4449 47.8913C19.5559 47.8918 19.6669 47.8921 19.7779 47.8924C19.9538 47.8929 20.1297 47.8939 20.3056 47.8952C20.8054 47.8988 21.3053 47.9021 21.8052 47.9031C22.1115 47.9038 22.4178 47.9058 22.7241 47.9087C22.8405 47.9095 22.9569 47.9099 23.0734 47.9097C23.2363 47.9096 23.3992 47.9111 23.5621 47.913C23.6099 47.9125 23.6576 47.9121 23.7068 47.9116C24.0467 47.9181 24.2391 48.0114 24.5018 48.2226C24.7791 48.5797 24.7598 48.9509 24.7069 49.3848C24.5582 49.6986 24.4025 49.852 24.0917 50C23.8943 50.0198 23.7119 50.0287 23.5147 50.0276C23.4575 50.0281 23.4002 50.0286 23.3411 50.029C23.1519 50.0303 22.9628 50.03 22.7736 50.0296C22.6414 50.0299 22.5091 50.0303 22.3768 50.0307C22.0994 50.0313 21.822 50.0312 21.5445 50.0305C21.1911 50.0297 20.8378 50.0311 20.4843 50.0331C20.2109 50.0343 19.9375 50.0343 19.6641 50.0339C19.5339 50.0339 19.4038 50.0343 19.2736 50.0352C17.9609 50.0426 16.966 49.7944 15.9791 48.871C15.3107 48.1566 14.991 47.3049 14.9878 46.3393C14.9873 46.2812 14.9869 46.2232 14.9864 46.1634C14.9851 45.9719 14.9843 45.7804 14.9836 45.5889C14.9833 45.5234 14.983 45.4579 14.9827 45.3903C14.9813 45.0437 14.9803 44.6971 14.9797 44.3504C14.9789 43.9927 14.9766 43.6349 14.9739 43.2772C14.9721 43.0017 14.9715 42.7263 14.9713 42.4508C14.9709 42.3189 14.9701 42.1871 14.9689 42.0552C14.9672 41.8706 14.9673 41.6861 14.9677 41.5016C14.9669 41.4473 14.966 41.3931 14.9651 41.3372C14.9684 40.9812 15.0398 40.7816 15.2733 40.498C15.6303 40.2208 16.0016 40.2401 16.4354 40.293Z" fill="#05C7F2"/>
<path d="M41.4851 14.9723C41.5424 14.9718 41.5997 14.9714 41.6587 14.9709C41.8479 14.9696 42.0371 14.9699 42.2263 14.9703C42.3585 14.97 42.4908 14.9696 42.623 14.9692C42.9005 14.9686 43.1779 14.9688 43.4553 14.9694C43.8087 14.9702 44.1621 14.9689 44.5155 14.9669C44.7889 14.9656 45.0624 14.9656 45.3358 14.966C45.4659 14.966 45.5961 14.9656 45.7262 14.9648C47.039 14.9574 48.0338 15.2055 49.0208 16.1289C49.6892 16.8434 50.0088 17.6951 50.0121 18.6606C50.0125 18.7187 50.013 18.7767 50.0135 18.8366C50.0148 19.028 50.0156 19.2195 50.0163 19.411C50.0166 19.4765 50.0168 19.5421 50.0171 19.6096C50.0185 19.9562 50.0195 20.3029 50.0202 20.6495C50.0209 21.0073 50.0233 21.365 50.026 21.7227C50.0278 21.9982 50.0284 22.2736 50.0286 22.5491C50.0289 22.681 50.0297 22.8129 50.031 22.9447C50.0327 23.1293 50.0326 23.3138 50.0321 23.4984C50.0334 23.5797 50.0334 23.5797 50.0348 23.6627C50.0314 24.0188 49.9601 24.2184 49.7266 24.5019C49.3695 24.7792 48.9983 24.7599 48.5644 24.707C48.2501 24.5581 48.0998 24.4014 47.9492 24.0917C47.9296 23.9157 47.9207 23.7563 47.9218 23.5806C47.9213 23.5303 47.9209 23.48 47.9204 23.4282C47.919 23.2624 47.919 23.0967 47.919 22.931C47.9182 22.8151 47.9173 22.6992 47.9163 22.5833C47.9138 22.2782 47.9124 21.9732 47.9114 21.6681C47.9097 21.181 47.907 20.694 47.9031 20.207C47.902 20.0378 47.9017 19.8685 47.9015 19.6993C47.9049 18.521 47.9049 18.521 47.334 17.5292C46.8213 17.1805 46.3208 17.1089 45.7107 17.1094C45.6593 17.1091 45.6079 17.1089 45.5549 17.1087C45.4439 17.1082 45.3329 17.1078 45.2219 17.1075C45.046 17.1071 44.8702 17.106 44.6943 17.1047C44.1944 17.1011 43.6946 17.0979 43.1947 17.0968C42.8884 17.0961 42.5821 17.0941 42.2758 17.0912C42.1594 17.0904 42.0429 17.09 41.9265 17.0902C41.7635 17.0904 41.6007 17.0888 41.4377 17.087C41.39 17.0874 41.3422 17.0879 41.293 17.0883C40.9532 17.0819 40.7608 16.9885 40.498 16.7773C40.2208 16.4203 40.2401 16.049 40.293 15.6152C40.5507 15.0711 40.9153 14.969 41.4851 14.9723Z" fill="#05C7F2"/>
<path d="M18.6606 14.9879C18.7187 14.9874 18.7767 14.987 18.8366 14.9865C19.028 14.9852 19.2195 14.9844 19.411 14.9837C19.4765 14.9834 19.5421 14.9831 19.6096 14.9829C19.9562 14.9814 20.3029 14.9805 20.6495 14.9798C21.0073 14.9791 21.365 14.9767 21.7227 14.974C21.9982 14.9722 22.2736 14.9716 22.5491 14.9714C22.681 14.9711 22.8129 14.9703 22.9447 14.969C23.1293 14.9673 23.3138 14.9674 23.4984 14.9679C23.5797 14.9666 23.5797 14.9666 23.6627 14.9652C24.0188 14.9685 24.2184 15.0399 24.5019 15.2734C24.7792 15.6304 24.7599 16.0017 24.707 16.4355C24.5581 16.7499 24.4016 16.9005 24.0917 17.0508C23.9134 17.0704 23.7513 17.0793 23.5732 17.0782C23.5222 17.0786 23.4711 17.0791 23.4185 17.0796C23.2502 17.081 23.0819 17.0809 22.9136 17.0809C22.796 17.0818 22.6784 17.0827 22.5609 17.0837C22.2514 17.0862 21.9419 17.0875 21.6324 17.0886C21.1381 17.0903 20.6437 17.093 20.1494 17.0969C19.9775 17.098 19.8055 17.0983 19.6336 17.0985C18.4922 17.1028 18.4922 17.1028 17.5292 17.666C17.1646 18.193 17.1089 18.7302 17.1094 19.3591C17.1091 19.4099 17.1089 19.4606 17.1087 19.5129C17.1082 19.6223 17.1078 19.7316 17.1075 19.841C17.1071 20.0143 17.106 20.1876 17.1047 20.3609C17.1012 20.8533 17.0979 21.3458 17.0968 21.8382C17.0961 22.1402 17.0941 22.4421 17.0912 22.7441C17.0904 22.8588 17.09 22.9735 17.0902 23.0882C17.0904 23.2487 17.0888 23.4091 17.087 23.5696C17.0874 23.6166 17.0879 23.6636 17.0883 23.712C17.0818 24.0496 16.9867 24.2408 16.7773 24.5019C16.4203 24.7792 16.049 24.7599 15.6152 24.707C15.3013 24.5583 15.1479 24.4026 14.9999 24.0918C14.9801 23.8945 14.9712 23.712 14.9723 23.5149C14.9718 23.4576 14.9714 23.4003 14.9709 23.3412C14.9696 23.1521 14.9699 22.9629 14.9703 22.7737C14.97 22.6415 14.9696 22.5092 14.9692 22.377C14.9686 22.0995 14.9688 21.8221 14.9694 21.5447C14.9702 21.1912 14.9689 20.8379 14.9669 20.4845C14.9656 20.211 14.9656 19.9376 14.966 19.6642C14.966 19.534 14.9656 19.4039 14.9648 19.2737C14.9574 17.961 15.2055 16.9662 16.1289 15.9792C16.8434 15.3108 17.6951 14.9912 18.6606 14.9879Z" fill="#05C7F2"/>
<path d="M21.9674 37.2644C22.2565 37.4114 22.4579 37.5976 22.5879 37.9005C22.6282 38.1731 22.6261 38.4434 22.6248 38.7186C22.6256 38.7975 22.6264 38.8764 22.6272 38.9576C22.6297 39.2091 22.6303 39.4605 22.6307 39.712C22.6318 39.9634 22.6333 40.2149 22.6356 40.4663C22.6369 40.6226 22.6376 40.7789 22.6374 40.9352C22.6372 41.5251 22.6372 41.5251 22.8785 42.0533C23.2797 42.3399 23.7566 42.2946 24.2264 42.2941C24.3883 42.2955 24.5503 42.297 24.7122 42.2984C24.9664 42.3 25.2207 42.3011 25.475 42.3015C25.721 42.3021 25.9671 42.3044 26.2131 42.307C26.3269 42.3064 26.3269 42.3064 26.443 42.3059C26.8651 42.3113 27.1204 42.3338 27.4415 42.6172C27.6367 42.8364 27.7321 43.0767 27.7491 43.3692C27.7268 43.7529 27.5657 44.0054 27.2897 44.2625C26.9335 44.4936 26.4862 44.4349 26.078 44.4333C25.984 44.4337 25.89 44.4341 25.796 44.4346C25.5991 44.4353 25.4023 44.435 25.2054 44.434C24.9554 44.4328 24.7054 44.4344 24.4553 44.4368C24.2611 44.4383 24.0668 44.4382 23.8726 44.4377C23.7363 44.4376 23.6 44.4389 23.4637 44.4403C22.6087 44.4317 21.9119 44.1673 21.2891 43.5743C20.6475 42.8975 20.4849 42.1055 20.4942 41.1993C20.4941 41.1049 20.494 41.0105 20.4937 40.9161C20.4935 40.72 20.4945 40.5239 20.4964 40.3277C20.4987 40.0772 20.4983 39.8267 20.497 39.5762C20.4963 39.3819 20.4969 39.1877 20.4979 38.9935C20.4984 38.8565 20.4979 38.7195 20.4974 38.5825C20.5074 37.8159 20.5074 37.8159 20.8106 37.4903C21.1421 37.1951 21.5497 37.1133 21.9674 37.2644Z" fill="#05C7F2"/>
<path d="M43.8423 37.2644C44.1316 37.4115 44.3385 37.5943 44.4629 37.9005C44.5052 38.218 44.5028 38.5338 44.5016 38.8537C44.502 38.9477 44.5024 39.0418 44.5029 39.1358C44.5036 39.3326 44.5033 39.5295 44.5023 39.7263C44.5011 39.9764 44.5027 40.2264 44.5051 40.4764C44.5066 40.6707 44.5065 40.8649 44.506 41.0592C44.5059 41.1955 44.5072 41.3318 44.5086 41.4681C44.5 42.323 44.2356 43.0199 43.6426 43.6426C42.9658 44.2843 42.1738 44.4468 41.2676 44.4376C41.1732 44.4376 41.0788 44.4378 40.9844 44.4381C40.7883 44.4383 40.5922 44.4373 40.396 44.4354C40.1455 44.4331 39.895 44.4335 39.6445 44.4348C39.4502 44.4355 39.256 44.4349 39.0618 44.4338C38.9248 44.4333 38.7878 44.4338 38.6508 44.4343C37.8842 44.4244 37.8842 44.4244 37.5586 44.1212C37.3634 43.902 37.268 43.6617 37.251 43.3692C37.268 43.0767 37.3634 42.8364 37.5586 42.6172C37.938 42.2823 38.2965 42.3047 38.7869 42.307C38.9052 42.3058 38.9052 42.3058 39.0259 42.3045C39.2774 42.3021 39.5288 42.3015 39.7803 42.3011C40.0317 42.3 40.2832 42.2985 40.5346 42.2962C40.6909 42.2949 40.8472 42.2942 41.0035 42.2944C41.6209 42.2918 41.6209 42.2918 42.16 42.0148C42.3582 41.7579 42.3522 41.4742 42.3534 41.1586C42.3539 41.0874 42.3544 41.0162 42.3549 40.9429C42.3553 40.8286 42.3553 40.8286 42.3558 40.712C42.3574 40.5499 42.359 40.3877 42.3607 40.2256C42.3631 39.9706 42.3651 39.7156 42.366 39.4606C42.3671 39.214 42.3698 38.9675 42.3729 38.721C42.3727 38.645 42.3726 38.5689 42.3725 38.4905C42.3791 38.0683 42.402 37.8115 42.6855 37.4903C43.0171 37.1951 43.4247 37.1133 43.8423 37.2644Z" fill="#05C7F2"/>
<path d="M38.922 20.43C39.016 20.4297 39.1101 20.4292 39.2041 20.4287C39.4009 20.428 39.5978 20.4283 39.7946 20.4293C40.0447 20.4305 40.2947 20.4289 40.5447 20.4265C40.739 20.425 40.9332 20.4251 41.1275 20.4257C41.2638 20.4257 41.4001 20.4244 41.5364 20.423C42.3913 20.4316 43.0882 20.6961 43.7109 21.2891C44.3526 21.9659 44.5151 22.7578 44.5059 23.664C44.5059 23.7584 44.5061 23.8528 44.5064 23.9472C44.5066 24.1434 44.5056 24.3395 44.5037 24.5356C44.5014 24.7861 44.5018 25.0366 44.5031 25.2872C44.5038 25.4814 44.5032 25.6756 44.5021 25.8699C44.5016 26.0068 44.5021 26.1438 44.5026 26.2808C44.4927 27.0474 44.4927 27.0474 44.1895 27.373C43.9703 27.5682 43.73 27.6637 43.4375 27.6807C43.145 27.6637 42.9047 27.5682 42.6855 27.373C42.3506 26.9937 42.373 26.6352 42.3753 26.1447C42.3745 26.0658 42.3736 25.987 42.3728 25.9057C42.3704 25.6543 42.3698 25.4028 42.3694 25.1514C42.3683 24.8999 42.3668 24.6485 42.3645 24.397C42.3632 24.2407 42.3625 24.0845 42.3626 23.9282C42.3601 23.3107 42.3601 23.3107 42.0831 22.7716C41.8262 22.5734 41.5425 22.5794 41.2269 22.5782C41.1557 22.5777 41.0845 22.5772 41.0112 22.5767C40.8969 22.5763 40.8969 22.5763 40.7803 22.5759C40.6182 22.5743 40.456 22.5726 40.2939 22.5709C40.0389 22.5685 39.7839 22.5665 39.5288 22.5656C39.2823 22.5645 39.0358 22.5618 38.7893 22.5588C38.7133 22.5589 38.6372 22.559 38.5588 22.5592C38.1365 22.5525 37.8797 22.5296 37.5586 22.2461C37.3634 22.0269 37.268 21.7866 37.251 21.4941C37.2733 21.1104 37.4343 20.8579 37.7103 20.6009C38.0665 20.3697 38.5138 20.4285 38.922 20.43Z" fill="#05C7F2"/>
<path d="M23.7325 20.4258C23.8269 20.4258 23.9213 20.4256 24.0157 20.4253C24.2118 20.4251 24.4079 20.4261 24.6041 20.428C24.8546 20.4303 25.1051 20.4299 25.3556 20.4286C25.5499 20.4279 25.7441 20.4285 25.9383 20.4296C26.0753 20.4301 26.2123 20.4296 26.3493 20.4291C27.1159 20.439 27.1159 20.439 27.4415 20.7422C27.6367 20.9614 27.7321 21.2017 27.7491 21.4942C27.7321 21.7867 27.6367 22.027 27.4415 22.2462C27.0621 22.5811 26.7037 22.5587 26.2132 22.5564C26.0949 22.5576 26.0949 22.5576 25.9742 22.5589C25.7227 22.5613 25.4713 22.5619 25.2198 22.5623C24.9684 22.5634 24.7169 22.5649 24.4655 22.5672C24.3092 22.5685 24.1529 22.5692 23.9967 22.5691C23.3792 22.5716 23.3792 22.5716 22.8401 22.8486C22.6419 23.1055 22.6479 23.3892 22.6467 23.7048C22.6462 23.776 22.6457 23.8472 22.6452 23.9205C22.6449 23.9967 22.6446 24.0729 22.6443 24.1514C22.6428 24.3135 22.6411 24.4757 22.6394 24.6378C22.637 24.8928 22.635 25.1478 22.6341 25.4028C22.633 25.6494 22.6303 25.8959 22.6273 26.1424C22.6274 26.2184 22.6275 26.2945 22.6277 26.3729C22.621 26.7951 22.5981 27.0519 22.3146 27.3731C22.0954 27.5683 21.8551 27.6637 21.5626 27.6807C21.1789 27.6584 20.9264 27.4974 20.6694 27.2214C20.4382 26.8652 20.497 26.4179 20.4985 26.0097C20.4981 25.9157 20.4977 25.8216 20.4972 25.7276C20.4965 25.5308 20.4968 25.3339 20.4978 25.1371C20.499 24.887 20.4974 24.637 20.495 24.387C20.4935 24.1927 20.4936 23.9985 20.4941 23.8042C20.4942 23.6679 20.4929 23.5316 20.4915 23.3953C20.5001 22.5404 20.7646 21.8435 21.3575 21.2208C22.0344 20.5791 22.8263 20.4166 23.7325 20.4258Z" fill="#05C7F2"/>
</g>
<defs>
<clipPath id="clip0_5570_6156">
<rect width="35" height="35" fill="white" transform="translate(15 15)"/>
</clipPath>
</defs>
</svg>
