<svg width="65" height="65" viewBox="0 0 65 65" fill="none" xmlns="http://www.w3.org/2000/svg">
<path d="M31.9304 16.1075C32.3169 16.0911 32.7039 16.0922 33.0903 16.1108C35.9971 16.2686 38.7207 17.5802 40.6564 19.7544C42.5713 21.8951 43.5654 24.7042 43.4231 27.5729C43.2756 30.4827 41.9734 33.2133 39.8053 35.1595C38.2898 36.5216 36.4284 37.4399 34.4253 37.8138C34.0619 37.8822 33.5552 37.9821 33.1982 37.9617C33.1761 38.3833 33.1867 38.8994 33.1852 39.3281C33.6629 39.3259 34.4453 39.2755 34.875 39.4348C34.9511 39.463 35.076 39.5822 35.1384 39.6418C35.3045 40.0926 35.2394 41.5157 35.2359 42.0619C35.9277 42.0606 36.4145 41.9685 36.6168 42.7428C36.431 43.5164 35.9228 43.5023 35.2428 43.4438C35.2355 43.892 35.2375 44.3474 35.2354 44.7963C35.7827 44.7942 36.1051 44.7305 36.505 45.1123L36.6175 45.4771C36.4294 46.2514 35.9265 46.2393 35.2433 46.1789C35.2355 46.6266 35.2378 47.0828 35.2359 47.5313L44.1348 47.5381C45.4209 47.538 46.7081 47.5282 47.9939 47.5391C48.5569 47.5438 48.7786 47.6614 48.9219 48.211C48.7957 48.6864 48.6551 48.8877 48.1357 48.9098C47.5641 48.934 46.9898 48.9229 46.4174 48.9222L43.2579 48.9196L33.1067 48.9219L22.1407 48.9207L18.813 48.9233C18.2778 48.925 17.748 48.9286 17.2066 48.9257C16.7426 48.9234 16.1072 48.8969 16.0983 48.2747C16.092 47.8375 16.3399 47.5658 16.7783 47.5468C17.2196 47.5277 17.6769 47.537 18.1228 47.537L20.788 47.5373L29.7598 47.5335L29.7715 46.2043C29.4363 46.2014 28.7921 46.2263 28.5945 45.9888C28.0986 45.3931 28.583 44.7064 29.3162 44.8013C29.3989 44.8119 29.6739 44.796 29.7587 44.7953L29.7715 43.4698C29.4361 43.469 28.8874 43.4943 28.6178 43.2759C28.3273 43.0376 28.3357 42.5368 28.5879 42.2757C28.8444 42.0102 29.4068 42.064 29.7592 42.0623C29.7717 41.3529 29.742 40.5932 29.7769 39.8923C29.8131 39.1655 31.2937 39.3314 31.8109 39.3306L31.8166 37.9695C31.4843 37.9571 31.0286 37.8813 30.6952 37.8237C28.6834 37.4831 26.8064 36.5885 25.2748 35.2404C23.1211 33.3503 21.7981 30.6884 21.592 27.8304C21.3816 24.9063 22.3488 22.0194 24.2781 19.8121C26.2745 17.53 28.9336 16.3109 31.9304 16.1075ZM33.8736 46.1981C33.3501 46.1925 32.8264 46.1905 32.3028 46.1921C31.9816 46.1947 31.4445 46.2179 31.1555 46.1762C31.1173 46.4896 31.1348 47.1856 31.1342 47.5311C32.0177 47.5363 32.979 47.5567 33.8599 47.5333L33.8736 46.1981ZM32.7222 36.5931C37.9962 36.4691 42.1737 32.098 42.0589 26.8238C41.9441 21.5496 37.5803 17.3645 32.3059 17.4702C27.0186 17.5761 22.8209 21.953 22.936 27.2401C23.0511 32.5273 27.4353 36.7173 32.7222 36.5931ZM31.1488 43.439C31.1248 43.8837 31.1336 44.3497 31.1348 44.7964C31.896 44.8011 33.1269 44.843 33.8619 44.796C33.8655 44.3547 33.8642 43.9039 33.8737 43.4635C33.3502 43.458 32.8266 43.4561 32.303 43.4578C31.979 43.4605 31.4401 43.4846 31.1488 43.439ZM31.1482 40.7025C31.1257 41.1511 31.1334 41.6123 31.1345 42.0622C31.8907 42.0668 33.132 42.1093 33.8623 42.062C33.8658 41.6199 33.8644 41.1679 33.8742 40.7268C33.3665 40.7206 32.8588 40.7191 32.3511 40.7223C32.0199 40.7256 31.4497 40.7497 31.1482 40.7025Z" fill="#2EC3F3"/>
<path d="M31.9789 18.8455C36.4975 18.5593 40.3934 21.9883 40.6832 26.5066C40.9731 31.0248 37.5472 34.9235 33.0292 35.217C28.506 35.5107 24.602 32.0802 24.3118 27.5568C24.0216 23.0334 27.4553 19.1321 31.9789 18.8455ZM32.6539 33.8592C36.418 33.7728 39.4021 30.6561 39.3248 26.8917C39.2476 23.1273 36.1381 20.1357 32.3736 20.2039C28.5961 20.2723 25.592 23.3948 25.6695 27.172C25.7471 30.9493 28.8768 33.9459 32.6539 33.8592Z" fill="#2EC3F3"/>
<path d="M29.6848 24.9888C30.1875 24.9884 30.3427 25.215 30.4663 25.6549C30.443 25.743 30.3935 25.9325 30.3396 26.0006C30.0425 26.3756 29.359 26.764 28.9467 27.028C29.3722 27.3126 30.0268 27.6719 30.3462 28.0596C30.3933 28.1169 30.4451 28.3065 30.4669 28.3864C30.3052 28.965 30.0096 29.2309 29.4128 28.9884C29.0239 28.7309 27.1532 27.6008 27.0592 27.2547C27.0068 27.0616 27.0347 26.8391 27.14 26.6681C27.3026 26.4043 29.0115 25.2957 29.3693 25.1046C29.4703 25.0507 29.574 25.0168 29.6848 24.9888Z" fill="#2EC3F3"/>
<path d="M35.1437 24.9861C35.3168 24.9975 35.4845 25.0283 35.6557 25.1384C36.3702 25.5979 37.2095 26.0922 37.8467 26.6465C37.8918 26.6857 37.9636 26.9409 37.9835 27.0085C37.9606 27.1005 37.9081 27.3225 37.8496 27.3821C37.3543 27.887 36.4043 28.4456 35.7987 28.8485C35.7165 28.9015 35.604 28.9768 35.5155 29.0138C35.2048 29.1435 34.6358 29.0101 34.5655 28.6296C34.3943 27.703 35.4755 27.5961 35.9228 27.0671C35.9752 27.0005 35.8247 26.8638 35.7802 26.8294C35.273 26.4376 34.1759 26.1551 34.6606 25.3057C34.7824 25.0922 34.9244 25.0485 35.1437 24.9861Z" fill="#2EC3F3"/>
<path d="M33.095 24.3027C33.6403 24.3213 33.9791 24.6683 33.8091 25.2153C33.3771 26.6052 32.9212 28.0083 32.4188 29.3743C32.3415 29.5846 32.1202 29.7022 31.92 29.766C31.3174 29.7761 31.0215 29.4021 31.1981 28.8133C31.5519 27.6474 31.9518 26.4916 32.3384 25.3355C32.5123 24.8155 32.5393 24.4585 33.095 24.3027Z" fill="#2EC3F3"/>
<path d="M43.7258 19.109C44.2857 19.0818 44.6252 19.5793 44.9533 19.9686C45.7009 20.8557 46.3072 21.8555 46.7404 22.9325C47.8234 25.6302 47.7938 28.647 46.6581 31.3229C46.2591 32.2535 44.9005 34.5967 43.9849 34.9613C43.8575 34.965 43.6571 34.9598 43.5477 34.897C42.5414 34.3048 43.7866 33.4017 44.1929 32.8503C44.5999 32.2978 44.9806 31.7099 45.2702 31.0803C46.6743 28.0537 46.408 24.5154 44.5669 21.7329C44.4168 21.4976 44.2505 21.273 44.0692 21.0607C43.8497 20.7994 43.2902 20.2429 43.1957 19.9711C43.1398 19.815 43.1521 19.6425 43.2295 19.4958C43.3492 19.2665 43.4926 19.1835 43.7258 19.109Z" fill="#2EC3F3"/>
<path d="M21.0315 19.1082C21.5398 19.0997 21.7183 19.2949 21.8441 19.7588C21.7228 20.3209 20.9673 20.9426 20.5685 21.5211C20.1525 22.1169 19.8051 22.7578 19.5331 23.4316C18.2394 26.6591 18.7664 30.321 20.9278 33.0028C21.1946 33.3338 21.6136 33.7143 21.789 34.0918C21.9655 34.4717 21.6289 34.8251 21.2848 34.9611C20.6901 34.9926 20.3559 34.4695 20.008 34.0536C19.0707 32.9328 18.359 31.6247 17.9357 30.225C17.0906 27.4225 17.395 24.3989 18.7818 21.8212C19.1531 21.1293 20.3186 19.3231 21.0315 19.1082Z" fill="#2EC3F3"/>
<path d="M42.5089 38.6659C44.009 38.5326 45.3344 39.638 45.4724 41.1378C45.6104 42.6375 44.5091 43.9663 43.0098 44.109C41.5038 44.2524 40.1679 43.1451 40.0293 41.6387C39.8906 40.1323 41.002 38.7998 42.5089 38.6659ZM43.0448 42.7148C43.7788 42.5521 44.2413 41.8245 44.077 41.0909C43.9127 40.3572 43.1841 39.8964 42.4508 40.0623C41.7199 40.2277 41.2607 40.9536 41.4245 41.6849C41.5883 42.4162 42.3131 42.8769 43.0448 42.7148Z" fill="#2EC3F3"/>
<path d="M21.3158 37.9825C22.8162 37.8482 24.1424 38.9533 24.2809 40.4533C24.4194 41.9534 23.318 43.2827 21.8184 43.4254C20.3128 43.5687 18.977 42.462 18.8379 40.956C18.6989 39.45 19.8093 38.1173 21.3158 37.9825ZM21.8534 42.0312C22.5874 41.8686 23.0499 41.1409 22.8856 40.4073C22.7213 39.6736 21.9927 39.2128 21.2594 39.3787C20.5285 39.5441 20.0693 40.27 20.2331 41.0013C20.3969 41.7326 21.1218 42.1933 21.8534 42.0312Z" fill="#2EC3F3"/>
<path d="M17.9254 16.1074C19.0493 15.9889 20.0571 16.8022 20.1786 17.9257C20.3002 19.0492 19.4896 20.0592 18.3663 20.1837C17.2389 20.3086 16.2244 19.4943 16.1024 18.3666C15.9804 17.2389 16.7974 16.2264 17.9254 16.1074ZM17.6683 18.6221C17.8513 18.8048 18.1229 18.8664 18.3669 18.7804C18.7182 18.6567 18.902 18.271 18.7768 17.9202C18.6516 17.5694 18.2651 17.3871 17.9148 17.5138C17.6984 17.592 17.537 17.7755 17.487 18.0002C17.437 18.2248 17.5054 18.4595 17.6683 18.6221Z" fill="#2EC3F3"/>
<path d="M46.6366 16.1073C47.7606 15.988 48.7691 16.8012 48.8906 17.925C49.0121 19.0488 48.2007 20.0588 47.0771 20.1824C45.9506 20.3063 44.9373 19.4923 44.8155 18.3655C44.6937 17.2387 45.5096 16.227 46.6366 16.1073ZM46.3797 18.6216C46.5626 18.8043 46.834 18.8658 47.0778 18.7801C47.4291 18.6564 47.6129 18.2707 47.4877 17.92C47.3625 17.5693 46.976 17.3871 46.6259 17.5139C46.4096 17.5922 46.2484 17.7756 46.1985 18.0001C46.1486 18.2247 46.2169 18.4591 46.3797 18.6216Z" fill="#2EC3F3"/>
</svg>
