<svg width="65" height="65" viewBox="0 0 65 65" fill="none" xmlns="http://www.w3.org/2000/svg">
<path d="M32.7733 16.0937C32.9918 16.175 33.1902 16.2823 33.3928 16.3971C33.4488 16.4278 33.5049 16.4586 33.5626 16.4903C33.7332 16.5847 33.9027 16.6808 34.0721 16.7773C34.1237 16.8061 34.1754 16.8349 34.2285 16.8646C34.3708 16.944 34.5121 17.0248 34.6532 17.1063C34.6953 17.1301 34.7374 17.1539 34.7808 17.1784C35.0388 17.332 35.1773 17.462 35.3026 17.7344C35.3061 17.9661 35.3061 17.9661 35.2799 18.23C35.175 19.249 35.175 19.249 35.509 20.1685C35.8904 20.4655 36.335 20.6266 36.7859 20.7907C37.1375 20.9281 37.4526 21.118 37.7763 21.3104C37.9049 21.3839 38.0337 21.4571 38.1627 21.5299C38.2296 21.5678 38.2965 21.6056 38.3654 21.6447C38.7843 21.8803 39.2053 22.1123 39.6263 22.3443C39.6679 22.3673 39.7094 22.3902 39.7523 22.4138C39.9496 22.5225 40.1471 22.631 40.345 22.7387C40.4914 22.8198 40.6365 22.9034 40.78 22.9895C40.8459 23.0284 40.9117 23.0672 40.9796 23.1072C41.0656 23.1597 41.0656 23.1597 41.1534 23.2133C41.3172 23.2886 41.3172 23.2886 41.4848 23.2268C41.5426 23.1965 41.6004 23.1661 41.66 23.1347C41.7245 23.1017 41.789 23.0687 41.8554 23.0346C41.9255 22.9966 41.9956 22.9585 42.0677 22.9193C42.145 22.8774 42.2222 22.8356 42.3018 22.7926C42.3827 22.7485 42.4635 22.7045 42.5444 22.6605C42.703 22.5743 42.8618 22.4883 43.0205 22.4023C43.0906 22.3641 43.1608 22.326 43.233 22.2867C43.3342 22.2327 43.3342 22.2327 43.4373 22.1777C43.5369 22.1179 43.5369 22.1179 43.6386 22.0569C43.9058 21.9491 44.0482 21.9705 44.326 22.041C44.5558 22.1437 44.5558 22.1437 44.792 22.2749C44.8343 22.2983 44.8767 22.3217 44.9203 22.3457C45.0093 22.395 45.098 22.4447 45.1866 22.4947C45.3209 22.5705 45.4559 22.6449 45.5911 22.7193C45.8329 22.8538 46.0736 22.988 46.3084 23.1347C46.3843 23.1815 46.4602 23.2283 46.5384 23.2765C46.8042 23.5716 46.7801 23.828 46.7779 24.2133C46.7786 24.2847 46.7793 24.356 46.78 24.4296C46.7809 24.5803 46.7807 24.731 46.7796 24.8817C46.7784 25.112 46.7823 25.3418 46.7867 25.5721C46.7869 25.7187 46.7868 25.8653 46.7864 26.012C46.7879 26.0806 46.7895 26.1492 46.7911 26.2198C46.7818 26.6853 46.7818 26.6853 46.6056 26.8874C46.4658 26.9947 46.3259 27.0829 46.1717 27.168C46.1064 27.2082 46.0411 27.2484 45.9737 27.2898C45.9145 27.322 45.8552 27.3543 45.7941 27.3875C45.7287 27.4231 45.6632 27.4588 45.5957 27.4956C45.5292 27.5313 45.4627 27.567 45.3941 27.6037C45.326 27.641 45.2579 27.6783 45.1877 27.7167C44.6861 27.9883 44.6861 27.9883 44.5311 27.9883C44.5536 30.763 44.5762 33.5377 44.5994 36.3965C45.1183 36.6897 45.6371 36.983 46.1717 37.2851C46.5819 37.5586 46.5819 37.5586 46.7186 37.6953C46.7387 37.8335 46.7387 37.8335 46.7428 38.0055C46.7445 38.0699 46.7463 38.1342 46.7481 38.2005C46.7491 38.2703 46.7501 38.3401 46.7512 38.412C46.7523 38.4837 46.7534 38.5553 46.7545 38.6292C46.7564 38.7811 46.7579 38.933 46.7589 39.085C46.7613 39.317 46.7673 39.5488 46.7733 39.7808C46.7747 39.9284 46.7759 40.0759 46.7768 40.2235C46.7804 40.3274 46.7804 40.3274 46.7841 40.4333C46.7812 40.9038 46.7812 40.9038 46.6069 41.1064C46.4668 41.2141 46.3267 41.3019 46.1717 41.3867C46.1037 41.4279 46.0356 41.4691 45.9655 41.5116C45.9023 41.5454 45.839 41.5791 45.7738 41.6139C45.7034 41.6518 45.633 41.6896 45.5605 41.7286C45.4887 41.7667 45.4168 41.8047 45.3429 41.8439C45.2705 41.8827 45.1982 41.9215 45.1236 41.9615C44.9265 42.067 44.7293 42.172 44.5311 42.2754C44.4655 42.3147 44.3998 42.3541 44.3322 42.3947C44.0645 42.5034 43.9207 42.4826 43.6424 42.4121C43.4356 42.3154 43.4356 42.3154 43.2315 42.1937C43.1571 42.1504 43.0828 42.1071 43.0062 42.0626C42.8513 41.9704 42.6964 41.8782 42.5416 41.7859C42.4675 41.7428 42.3935 41.6997 42.3172 41.6553C42.2165 41.5953 42.2165 41.5953 42.1138 41.5341C41.945 41.4434 41.945 41.4434 41.7952 41.4652C41.625 41.5385 41.4629 41.62 41.2998 41.7082C41.2286 41.7466 41.1574 41.7849 41.0841 41.8245C40.9694 41.8869 40.9694 41.8869 40.8525 41.9507C40.7721 41.9943 40.6916 42.0378 40.6112 42.0814C40.044 42.3894 39.481 42.7047 38.9201 43.024C38.2957 43.379 37.6667 43.7256 37.037 44.0711C36.8797 44.1575 36.7231 44.2452 36.5671 44.334C36.3967 44.4258 36.236 44.5034 36.0585 44.5772C35.7907 44.6952 35.5856 44.8071 35.3709 45.0098C35.25 45.3942 35.2666 45.7519 35.2898 46.1505C35.2946 46.3042 35.2981 46.4579 35.3007 46.6117C35.3037 46.7506 35.3102 46.8895 35.3169 47.0284C35.3012 47.2882 35.2567 47.4044 35.0975 47.6074C34.986 47.6992 34.986 47.6992 34.8641 47.7687C34.8183 47.7953 34.7725 47.8219 34.7252 47.8494C34.6761 47.8767 34.6269 47.904 34.5763 47.9321C34.5252 47.9611 34.4741 47.9901 34.4215 48.0199C34.3142 48.0805 34.2066 48.1406 34.0988 48.2003C33.9382 48.2895 33.7788 48.3806 33.6195 48.472C33.5184 48.5286 33.4172 48.5851 33.3159 48.6413C33.2465 48.6814 33.2465 48.6814 33.1757 48.7222C32.864 48.8911 32.5815 48.9904 32.2264 48.9062C31.9191 48.7768 31.632 48.6174 31.342 48.4534C31.2649 48.4111 31.1877 48.3689 31.1082 48.3254C29.8906 47.6525 29.8906 47.6525 29.7655 47.4023C29.7595 47.2228 29.7576 47.0451 29.7588 46.8656C29.7589 46.7862 29.7589 46.7862 29.7591 46.7053C29.7595 46.536 29.7603 46.3668 29.7612 46.1975C29.7615 46.0828 29.7618 45.9682 29.7621 45.8536C29.7629 45.5723 29.7641 45.291 29.7655 45.0098C29.6757 44.9821 29.6757 44.9821 29.5841 44.954C29.3652 44.8765 29.1784 44.7852 28.9764 44.6714C28.9039 44.6309 28.8315 44.5903 28.7569 44.5486C28.6794 44.5048 28.602 44.461 28.5222 44.4159C28.4401 44.3698 28.3579 44.3237 28.2757 44.2777C28.1051 44.1821 27.9345 44.0863 27.764 43.9904C27.3697 43.7689 26.9738 43.55 26.5782 43.3307C25.8961 42.952 25.2149 42.5715 24.5347 42.1894C24.4053 42.1168 24.2757 42.0445 24.1458 41.9728C24.0136 41.8983 23.8828 41.8211 23.7533 41.7419C23.3981 41.5167 23.3981 41.5167 22.9955 41.4719C22.9286 41.5114 22.8617 41.551 22.7928 41.5918C22.7407 41.621 22.6887 41.6503 22.635 41.6805C22.3838 41.8228 22.1365 41.9715 21.8896 42.1212C21.2719 42.4852 21.2719 42.4852 20.8787 42.4805C20.6731 42.4113 20.6731 42.4113 20.46 42.2967C20.4208 42.2759 20.3816 42.2551 20.3411 42.2337C20.2004 42.158 20.0611 42.0801 19.9217 42.0019C19.862 41.9689 19.8024 41.9358 19.7409 41.9018C19.5458 41.7935 19.3513 41.6843 19.1569 41.5747C19.094 41.5392 19.031 41.5037 18.9661 41.4672C18.9069 41.4332 18.8476 41.3993 18.7866 41.3643C18.7336 41.334 18.6806 41.3038 18.626 41.2726C18.4858 41.1814 18.3871 41.1058 18.2811 40.9765C18.2527 40.8301 18.2527 40.8301 18.2491 40.6586C18.2474 40.5942 18.2456 40.5299 18.2438 40.4636C18.2428 40.3594 18.2428 40.3594 18.2418 40.2532C18.2408 40.1816 18.2398 40.11 18.2388 40.0363C18.2371 39.8848 18.2361 39.7332 18.2356 39.5817C18.2341 39.3502 18.2286 39.1191 18.223 38.8877C18.2219 38.7404 18.2211 38.5932 18.2205 38.4459C18.2183 38.3769 18.2161 38.3079 18.2139 38.2368C18.2183 37.7677 18.2183 37.7677 18.3937 37.5654C18.5335 37.458 18.6735 37.37 18.828 37.2851C18.8933 37.2449 18.9586 37.2047 19.0259 37.1633C19.0852 37.1311 19.1445 37.0988 19.2055 37.0656C19.271 37.03 19.3365 36.9943 19.4039 36.9575C19.4705 36.9218 19.537 36.8861 19.6055 36.8493C19.7077 36.7934 19.7077 36.7934 19.812 36.7364C20.3136 36.4648 20.3136 36.4648 20.4686 36.4648C20.4686 33.6676 20.4686 30.8703 20.4686 27.9883C20.3332 27.9431 20.1979 27.898 20.0584 27.8515C19.9312 27.7879 19.8056 27.7209 19.6817 27.651C19.613 27.6123 19.5443 27.5736 19.4735 27.5336C19.4029 27.4933 19.3322 27.453 19.2595 27.4115C19.1523 27.3514 19.1523 27.3514 19.0431 27.2901C18.4326 26.9438 18.4326 26.9438 18.2811 26.7578C18.2527 26.6113 18.2527 26.6113 18.2491 26.4398C18.2465 26.3433 18.2465 26.3433 18.2438 26.2448C18.2432 26.1754 18.2425 26.1059 18.2418 26.0344C18.2408 25.9628 18.2398 25.8913 18.2388 25.8175C18.2371 25.666 18.2361 25.5145 18.2356 25.363C18.2341 25.1315 18.2286 24.9004 18.223 24.669C18.2219 24.5217 18.2211 24.3744 18.2205 24.2272C18.2183 24.1582 18.2161 24.0891 18.2139 24.018C18.2183 23.5493 18.2183 23.5493 18.3929 23.3469C18.533 23.2391 18.6731 23.1513 18.828 23.0664C18.896 23.0252 18.964 22.984 19.0341 22.9415C19.0974 22.9077 19.1607 22.8739 19.2258 22.8391C19.2962 22.8013 19.3666 22.7635 19.4392 22.7245C19.511 22.6864 19.5828 22.6484 19.6568 22.6092C19.7292 22.5704 19.8015 22.5316 19.876 22.4916C20.0731 22.3861 20.2704 22.2811 20.4686 22.1777C20.5342 22.1383 20.5999 22.099 20.6675 22.0584C20.9366 21.9492 21.0773 21.9695 21.3573 22.041C21.5227 22.1162 21.6739 22.1921 21.8304 22.2821C21.8733 22.306 21.9161 22.3298 21.9602 22.3544C22.0958 22.4301 22.2306 22.5068 22.3656 22.5836C22.4571 22.6349 22.5487 22.6861 22.6403 22.7373C23.2865 23.0993 23.2865 23.0993 23.5448 23.2715C23.795 23.2479 23.9787 23.1657 24.1942 23.0405C24.2538 23.0063 24.3134 22.972 24.3748 22.9368C24.4392 22.8992 24.5037 22.8616 24.5701 22.8229C24.7122 22.7413 24.8542 22.6599 24.9963 22.5785C25.0715 22.5354 25.1467 22.4923 25.2242 22.4479C25.6249 22.22 26.029 21.9981 26.4329 21.7761C26.5999 21.6842 26.7669 21.5922 26.9339 21.5003C26.9754 21.4774 27.017 21.4545 27.0598 21.431C27.4886 21.1948 27.9169 20.9576 28.3449 20.72C28.4637 20.6541 28.5826 20.5882 28.7014 20.5223C28.7734 20.4823 28.8454 20.4424 28.9195 20.4012C28.9824 20.3663 29.0453 20.3313 29.1102 20.2953C29.2324 20.2262 29.353 20.1541 29.4723 20.0799C29.6287 19.9902 29.6287 19.9902 29.7655 19.9902C29.7637 19.9195 29.7619 19.8488 29.76 19.776C29.7538 19.5129 29.7499 19.2499 29.7467 18.9868C29.745 18.8731 29.7426 18.7593 29.7397 18.6456C29.7355 18.4819 29.7336 18.3182 29.7321 18.1544C29.7303 18.1038 29.7286 18.0533 29.7267 18.0012C29.7266 17.7394 29.7526 17.6142 29.915 17.4056C30.0993 17.262 30.2762 17.1466 30.4827 17.0377C30.5535 16.9999 30.6242 16.9622 30.6971 16.9233C30.7704 16.885 30.8436 16.8467 30.919 16.8072C31.0641 16.7303 31.2092 16.6533 31.3543 16.5763C31.4229 16.5404 31.4915 16.5045 31.5622 16.4675C31.715 16.3849 31.859 16.2969 32.0048 16.2029C32.2721 16.0712 32.484 16.0367 32.7733 16.0937ZM32.0782 17.4946C32.0115 17.5315 31.9449 17.5684 31.8762 17.6065C31.8071 17.6458 31.7379 17.6852 31.6667 17.7258C31.5618 17.7841 31.5618 17.7841 31.4548 17.8436C31.1388 18.0026 31.1388 18.0026 30.8592 18.2129C30.8532 18.3595 30.8519 18.5064 30.8525 18.6532C30.8528 18.7424 30.853 18.8316 30.8532 18.9236C30.8538 19.0185 30.8544 19.1134 30.8549 19.2084C30.8553 19.3036 30.8556 19.3987 30.8559 19.4939C30.8567 19.7277 30.8578 19.9615 30.8592 20.1953C31.113 20.3483 31.3683 20.4985 31.624 20.6482C31.7322 20.7135 31.7322 20.7135 31.8425 20.7801C31.9124 20.8206 31.9822 20.8612 32.0542 20.9029C32.1182 20.9409 32.1823 20.9788 32.2483 21.0179C32.4283 21.1024 32.4283 21.1024 32.6052 21.038C32.6607 21.0081 32.7161 20.9781 32.7733 20.9472C32.8275 20.9193 32.8817 20.8914 32.9376 20.8627C32.9931 20.8319 33.0486 20.8011 33.1057 20.7694C33.1877 20.7241 33.1877 20.7241 33.2714 20.6779C33.3396 20.6399 33.4079 20.6019 33.4782 20.5627C33.6968 20.4415 33.9153 20.3202 34.1405 20.1953C34.1405 19.5411 34.1405 18.8869 34.1405 18.2129C33.9092 18.0789 33.678 17.945 33.4398 17.807C33.3673 17.7648 33.2949 17.7226 33.2202 17.6791C33.1626 17.646 33.105 17.6128 33.0456 17.5787C32.9869 17.5447 32.9282 17.5107 32.8677 17.4756C32.5342 17.3055 32.4101 17.3084 32.0782 17.4946ZM29.7636 21.2271C29.628 21.303 29.4934 21.3808 29.3596 21.4599C29.287 21.5011 29.2144 21.5423 29.1396 21.5847C28.9883 21.6707 28.8373 21.7574 28.6868 21.8448C28.4226 21.9982 28.1566 22.1481 27.8904 22.2979C27.6979 22.4064 27.5059 22.5155 27.3139 22.6247C26.9663 22.8216 26.617 23.0152 26.2666 23.2071C26.0514 23.3251 25.8367 23.4437 25.6229 23.5642C25.2637 23.7661 24.9077 23.9623 24.5277 24.1236C24.007 24.3529 24.007 24.3529 23.6771 24.7973C23.5389 25.2582 23.5289 25.7076 23.7498 26.1426C24.1497 26.5611 24.6788 26.8107 25.1912 27.0656C25.4419 27.1944 25.6645 27.343 25.8946 27.5055C26.1034 27.667 26.1034 27.667 26.3475 27.7148C26.3609 27.8116 26.3736 27.9085 26.3859 28.0054C26.3967 28.0862 26.3967 28.0862 26.4076 28.1688C26.4159 28.3314 26.3902 28.4478 26.3475 28.6035C26.0316 28.6866 25.7725 28.7172 25.4658 28.5891C25.2538 28.4647 25.0507 28.3322 24.8479 28.1933C24.7446 28.1255 24.7446 28.1255 24.6392 28.0564C24.3629 27.8748 24.0881 27.6914 23.8163 27.5031C23.7506 27.4587 23.6848 27.4144 23.6171 27.3688C23.5587 27.3285 23.5004 27.2882 23.4402 27.2467C23.2288 27.1481 23.1515 27.1753 22.9295 27.2363C22.7625 27.3119 22.7625 27.3119 22.5971 27.4075C22.5365 27.4412 22.4759 27.4749 22.4135 27.5096C22.3511 27.5449 22.2888 27.5802 22.2246 27.6166C22.1609 27.6521 22.0972 27.6877 22.0316 27.7243C21.875 27.8119 21.7186 27.8999 21.5623 27.9883C21.5496 29.0786 21.5399 30.169 21.534 31.2594C21.5312 31.7658 21.5273 32.272 21.5211 32.7783C21.5156 33.2196 21.5121 33.6609 21.5109 34.1022C21.5102 34.3359 21.5085 34.5695 21.5045 34.8032C21.5006 35.0641 21.5 35.3249 21.5003 35.5858C21.4973 35.7019 21.4973 35.7019 21.4943 35.8203C21.4884 36.204 21.4884 36.204 21.6794 36.5168C21.8195 36.6055 21.9572 36.6725 22.1092 36.7383C22.1936 36.7888 22.2773 36.8404 22.36 36.8937C22.4401 36.9417 22.5203 36.9896 22.6005 37.0373C22.6409 37.0625 22.6812 37.0876 22.7227 37.1134C22.8957 37.2155 23.03 37.2846 23.2329 37.2875C23.4913 37.1831 23.7117 37.0348 23.9421 36.8793C24.0455 36.8112 24.1489 36.7432 24.2524 36.6752C24.4098 36.5711 24.5672 36.4668 24.7244 36.3624C24.8704 36.2661 25.0171 36.1709 25.164 36.076C25.2082 36.0464 25.2524 36.0167 25.2979 35.9862C25.5668 35.8136 25.7545 35.7354 26.0741 35.7812C26.2749 35.9137 26.2749 35.9137 26.4159 36.123C26.4237 36.3353 26.393 36.5313 26.3475 36.7383C26.3021 36.7538 26.2567 36.7693 26.21 36.7853C25.8895 36.926 25.6076 37.1236 25.3194 37.3211C25.0605 37.4962 24.817 37.6448 24.5242 37.7564C24.2052 37.8886 23.9348 38.0071 23.7498 38.3105C23.6601 38.6585 23.6413 38.9961 23.6388 39.353C23.6377 39.3992 23.6366 39.4453 23.6355 39.4929C23.6251 40.0399 23.6251 40.0399 23.88 40.4988C24.0594 40.6083 24.2401 40.6894 24.4334 40.7715C24.5694 40.8462 24.7046 40.9224 24.839 40.9998C24.9872 41.0819 25.1354 41.1638 25.2836 41.2457C25.3647 41.2906 25.4457 41.3354 25.5266 41.3803C25.6943 41.4732 25.862 41.566 26.0297 41.6588C26.3448 41.8331 26.6595 42.008 26.9742 42.183C27.1257 42.2672 27.2773 42.3513 27.4288 42.4355C27.7904 42.6362 28.1519 42.8373 28.513 43.0391C28.6841 43.1347 28.8553 43.2302 29.0265 43.3257C29.1084 43.3714 29.1902 43.4171 29.2719 43.463C29.3851 43.5264 29.4984 43.5895 29.6117 43.6527C29.6762 43.6888 29.7407 43.7249 29.8071 43.762C29.9733 43.8546 29.9733 43.8546 30.1756 43.916C30.3481 43.8445 30.3481 43.8445 30.5324 43.7331C30.6017 43.6934 30.6711 43.6537 30.7425 43.6128C30.8149 43.5704 30.8872 43.5281 30.9618 43.4845C31.0341 43.4429 31.1064 43.4014 31.181 43.3586C31.4425 43.2079 31.7018 43.0581 31.953 42.8906C31.9841 42.735 31.9841 42.735 31.9793 42.552C31.98 42.4815 31.9806 42.411 31.9814 42.3384C31.9812 42.262 31.9809 42.1856 31.9807 42.1069C31.9818 41.9895 31.9818 41.9895 31.983 41.8698C31.9853 41.6191 31.9864 41.3683 31.9871 41.1175C31.9881 40.7879 31.9904 40.4583 31.9936 40.1287C31.9933 40.0525 31.9931 39.9762 31.9929 39.8976C31.9936 39.8269 31.9943 39.7562 31.995 39.6833C31.9952 39.6211 31.9953 39.5588 31.9954 39.4946C32.0263 39.3055 32.0753 39.245 32.2264 39.1308C32.3588 39.1036 32.3588 39.1036 32.4998 39.1052C32.5464 39.1047 32.5929 39.1042 32.6408 39.1036C32.8155 39.1395 32.8695 39.1957 32.9784 39.3359C32.995 39.4896 32.995 39.4896 32.983 39.6714C32.9793 39.7397 32.9756 39.808 32.9719 39.8784C32.965 39.9892 32.965 39.9892 32.9581 40.1023C32.7915 41.6828 32.7915 41.6828 33.1967 43.1442C33.5994 43.5209 34.0828 43.6863 34.619 43.7793C34.7196 43.8046 34.7196 43.8046 34.8224 43.8305C35.0889 43.8526 35.2071 43.7834 35.438 43.6511C35.5559 43.5847 35.5559 43.5847 35.6762 43.5169C35.761 43.4677 35.8458 43.4184 35.9306 43.3691C36.0193 43.3187 36.108 43.2684 36.1968 43.2183C36.3796 43.1148 36.5621 43.0108 36.7443 42.9064C37.1416 42.6791 37.5424 42.4584 37.943 42.2369C38.0938 42.153 38.2447 42.0691 38.3956 41.9851C38.6755 41.8294 38.9556 41.674 39.236 41.519C39.404 41.4262 39.572 41.3332 39.74 41.2402C39.8575 41.1752 39.975 41.1104 40.0926 41.0456C40.234 40.9672 40.3748 40.8878 40.5148 40.8071C40.703 40.7031 40.703 40.7031 40.874 40.6325C41.0398 40.5572 41.1351 40.5035 41.2498 40.3613C41.3348 40.0325 41.3324 39.7167 41.3267 39.3786C41.33 39.2896 41.3333 39.2006 41.3366 39.1089C41.3411 38.6279 41.3411 38.6279 41.1139 38.223C40.9372 38.0974 40.7596 37.998 40.5662 37.9004C40.4618 37.8363 40.3578 37.7716 40.2544 37.706C40.1533 37.6453 40.0522 37.5848 39.951 37.5244C38.7078 36.7692 38.7078 36.7692 38.5326 36.4563C38.5128 36.2292 38.5376 36.1143 38.6522 35.918C38.8935 35.7571 38.9832 35.7517 39.2674 35.7812C39.4674 35.8751 39.4674 35.8751 39.6746 36.0061C39.7507 36.0536 39.8268 36.1011 39.9052 36.15C39.9846 36.2008 40.0639 36.2516 40.1433 36.3025C40.2218 36.3518 40.3003 36.401 40.3789 36.4501C40.9815 36.8291 40.9815 36.8291 41.2238 37.0047C41.2763 37.0428 41.3289 37.0809 41.3831 37.1201C41.4273 37.1538 41.4715 37.1875 41.517 37.2222C41.6977 37.3173 41.6977 37.3173 42.0702 37.2168C42.5213 36.9686 42.9725 36.7205 43.4373 36.4648C43.4373 33.6676 43.4373 30.8703 43.4373 27.9883C42.1624 27.0841 42.1624 27.0841 41.5916 27.2363C41.4452 27.309 41.4452 27.309 41.3054 27.4032C41.2524 27.4372 41.1994 27.4713 41.1447 27.5063C41.0892 27.5427 41.0336 27.5791 40.9764 27.6166C40.8604 27.6912 40.7445 27.7658 40.6285 27.8403C40.5716 27.8771 40.5148 27.9138 40.4563 27.9516C40.2312 28.0962 40.0039 28.2372 39.7758 28.3771C39.6721 28.4409 39.6721 28.4409 39.5662 28.506C39.3083 28.6611 39.1619 28.6962 38.8573 28.6719C38.6949 28.6078 38.6949 28.6078 38.5838 28.4668C38.5164 28.2445 38.5138 28.0737 38.5838 27.8515C38.7763 27.6409 39.0227 27.516 39.2674 27.373C39.3712 27.3076 39.4747 27.2417 39.578 27.1754C39.6333 27.1401 39.6886 27.1047 39.7456 27.0683C39.86 26.995 39.9741 26.9214 40.088 26.8474C40.3837 26.6578 40.6602 26.5157 40.9892 26.3904C41.1549 26.2621 41.238 26.1834 41.297 25.9803C41.3156 25.7835 41.3287 25.5883 41.3353 25.3906C41.3385 25.324 41.3417 25.2573 41.3449 25.1886C41.3404 24.9841 41.3235 24.8298 41.2498 24.6387C41.0483 24.4476 40.8162 24.3452 40.5662 24.2285C40.4305 24.1533 40.2954 24.0771 40.1606 24.0002C40.0125 23.9181 39.8643 23.8361 39.716 23.7543C39.635 23.7094 39.554 23.6645 39.473 23.6197C39.3054 23.5268 39.1377 23.434 38.97 23.3412C38.6549 23.1669 38.3402 22.992 38.0255 22.817C37.8739 22.7327 37.7222 22.6487 37.5704 22.5648C37.2093 22.365 36.8493 22.1638 36.492 21.9574C36.3231 21.8599 36.1538 21.7633 35.9844 21.6668C35.865 21.5982 35.7463 21.5285 35.6275 21.4587C35.5551 21.4175 35.4827 21.3764 35.408 21.3339C35.3129 21.2787 35.3129 21.2787 35.2158 21.2224C34.7657 21.0534 34.2262 21.3276 33.8115 21.5155C33.4934 21.6712 33.2596 21.8231 33.0467 22.1094C32.8274 22.7524 32.9111 23.5289 32.9719 24.1946C32.9991 24.5404 32.9991 24.5404 32.8854 24.7041C32.7476 24.7917 32.6625 24.8029 32.4998 24.801C32.43 24.8018 32.43 24.8018 32.3588 24.8026C32.177 24.7652 32.1282 24.7237 32.0213 24.5703C32.0161 24.3881 32.022 24.2214 32.0368 24.0408C32.1454 22.9317 32.1454 22.9317 31.8163 21.9165C31.481 21.6339 31.0986 21.4722 30.6818 21.3447C30.5174 21.289 30.5174 21.289 30.3129 21.1462C30.0568 21.0687 29.9994 21.1119 29.7636 21.2271ZM20.5404 23.4485C20.4768 23.4852 20.4133 23.5219 20.3478 23.5597C20.2819 23.5985 20.216 23.6374 20.1482 23.6774C20.0815 23.7159 20.0148 23.7545 19.9461 23.7942C19.6436 23.954 19.6436 23.954 19.3748 24.1601C19.346 24.4728 19.3431 24.7863 19.3364 25.1001C19.3321 25.1882 19.3278 25.2763 19.3234 25.3671C19.2984 25.8146 19.2984 25.8146 19.482 26.2008C19.6248 26.2903 19.7655 26.3532 19.9217 26.416C20.0062 26.4662 20.0899 26.518 20.1725 26.5714C20.2526 26.6194 20.3328 26.6673 20.413 26.7151C20.4534 26.7402 20.4937 26.7653 20.5352 26.7912C20.7739 26.9322 20.7739 26.9322 21.0441 26.9445C21.2223 26.894 21.3697 26.8297 21.5332 26.7431C21.5901 26.7131 21.647 26.6831 21.7056 26.6522C21.7641 26.6208 21.8225 26.5894 21.8828 26.557C21.942 26.5258 22.0013 26.4947 22.0623 26.4626C22.3807 26.2985 22.3807 26.2985 22.6561 26.0742C22.6969 25.761 22.6941 25.4455 22.6988 25.13C22.7048 24.9983 22.7048 24.9983 22.7108 24.8639C22.7334 24.418 22.7334 24.418 22.5487 24.0337C22.406 23.9439 22.2656 23.881 22.1092 23.8183C22.024 23.7688 21.9395 23.7179 21.8561 23.6653C21.7753 23.618 21.6945 23.5707 21.6136 23.5235C21.5727 23.499 21.5318 23.4745 21.4897 23.4492C21.1155 23.2318 20.9087 23.234 20.5404 23.4485ZM43.5092 23.4485C43.4456 23.4852 43.382 23.5219 43.3165 23.5597C43.2506 23.5985 43.1848 23.6374 43.1169 23.6774C43.0502 23.7159 42.9836 23.7545 42.9149 23.7942C42.6123 23.954 42.6123 23.954 42.3436 24.1601C42.3147 24.4728 42.3118 24.7863 42.3051 25.1001C42.3009 25.1882 42.2966 25.2763 42.2922 25.3671C42.2672 25.8146 42.2672 25.8146 42.4508 26.2008C42.5936 26.2903 42.7342 26.3532 42.8905 26.416C42.975 26.4662 43.0586 26.518 43.1412 26.5714C43.2213 26.6194 43.3015 26.6673 43.3818 26.7151C43.4221 26.7402 43.4624 26.7653 43.504 26.7912C43.7427 26.9322 43.7427 26.9322 44.0128 26.9445C44.191 26.894 44.3385 26.8297 44.502 26.7431C44.5589 26.7131 44.6157 26.6831 44.6743 26.6522C44.7328 26.6208 44.7913 26.5894 44.8515 26.557C44.9108 26.5258 44.97 26.4947 45.0311 26.4626C45.3495 26.2985 45.3495 26.2985 45.6248 26.0742C45.6656 25.761 45.6629 25.4455 45.6676 25.13C45.6735 24.9983 45.6735 24.9983 45.6796 24.8639C45.7022 24.418 45.7022 24.418 45.5175 24.0337C45.3747 23.9439 45.2344 23.881 45.078 23.8183C44.9927 23.7688 44.9083 23.7179 44.8248 23.6653C44.7441 23.618 44.6632 23.5707 44.5824 23.5235C44.5415 23.499 44.5006 23.4745 44.4585 23.4492C44.0842 23.2318 43.8775 23.234 43.5092 23.4485ZM20.6072 37.6673C20.5065 37.7223 20.5065 37.7223 20.4038 37.7785C20.3336 37.8173 20.2633 37.8561 20.1909 37.8961C20.0851 37.9539 20.0851 37.9539 19.9771 38.0129C19.6573 38.1695 19.6573 38.1695 19.3748 38.3789C19.346 38.6915 19.3431 39.0051 19.3364 39.3188C19.3321 39.407 19.3278 39.4951 19.3234 39.5859C19.2984 40.0333 19.2984 40.0333 19.482 40.4196C19.6248 40.5091 19.7655 40.572 19.9217 40.6348C20.0062 40.685 20.0899 40.7367 20.1725 40.7902C20.2526 40.8382 20.3328 40.886 20.413 40.9338C20.4534 40.9589 20.4937 40.9841 20.5352 41.0099C20.7739 41.151 20.7739 41.151 21.0441 41.1632C21.2223 41.1128 21.3697 41.0485 21.5332 40.9619C21.5901 40.9319 21.647 40.9018 21.7056 40.8709C21.7641 40.8395 21.8225 40.8081 21.8828 40.7757C21.942 40.7446 22.0013 40.7134 22.0623 40.6813C22.3807 40.5172 22.3807 40.5172 22.6561 40.293C22.7707 39.6844 22.8099 38.9812 22.6561 38.3789C22.4107 38.0295 22.0291 37.8801 21.6362 37.7455C21.4435 37.6775 21.2664 37.5815 21.0838 37.4902C20.8902 37.4902 20.7767 37.5743 20.6072 37.6673ZM43.5759 37.6673C43.4753 37.7223 43.4753 37.7223 43.3726 37.7785C43.3023 37.8173 43.232 37.8561 43.1596 37.8961C43.0538 37.9539 43.0538 37.9539 42.9459 38.0129C42.6261 38.1695 42.6261 38.1695 42.3436 38.3789C42.3147 38.6915 42.3118 39.0051 42.3051 39.3188C42.3009 39.407 42.2966 39.4951 42.2922 39.5859C42.2672 40.0333 42.2672 40.0333 42.4508 40.4196C42.5936 40.5091 42.7342 40.572 42.8905 40.6348C42.975 40.685 43.0586 40.7367 43.1412 40.7902C43.2213 40.8382 43.3015 40.886 43.3818 40.9338C43.4221 40.9589 43.4624 40.9841 43.504 41.0099C43.7427 41.151 43.7427 41.151 44.0128 41.1632C44.191 41.1128 44.3385 41.0485 44.502 40.9619C44.5589 40.9319 44.6157 40.9018 44.6743 40.8709C44.7328 40.8395 44.7913 40.8081 44.8515 40.7757C44.9108 40.7446 44.97 40.7134 45.0311 40.6813C45.3495 40.5172 45.3495 40.5172 45.6248 40.293C45.7394 39.6844 45.7786 38.9812 45.6248 38.3789C45.3794 38.0295 44.9979 37.8801 44.605 37.7455C44.4122 37.6775 44.2351 37.5815 44.0526 37.4902C43.8589 37.4902 43.7454 37.5743 43.5759 37.6673ZM32.161 44.0583C32.1074 44.0882 32.0539 44.1182 31.9988 44.149C31.9148 44.1965 31.9148 44.1965 31.8291 44.245C31.7739 44.2759 31.7186 44.3068 31.6618 44.3386C31.5078 44.425 31.354 44.5116 31.201 44.5996C31.1392 44.6276 31.0773 44.6556 31.0136 44.6844C30.8378 44.794 30.8378 44.794 30.8204 45.0099C30.8222 45.0919 30.824 45.1739 30.8258 45.2584C30.8269 45.3471 30.828 45.4359 30.8292 45.5274C30.832 45.6212 30.8349 45.7149 30.8378 45.8087C30.8396 45.9033 30.8411 45.9978 30.8425 46.0924C30.8466 46.3241 30.8522 46.5555 30.8592 46.7871C31.0925 46.9229 31.3261 47.058 31.5599 47.193C31.6261 47.2315 31.6923 47.2701 31.7604 47.3098C31.8243 47.3466 31.8882 47.3834 31.954 47.4213C32.0127 47.4553 32.0714 47.4893 32.1319 47.5243C32.3411 47.632 32.3411 47.632 32.5682 47.6758C32.7429 47.611 32.7429 47.611 32.9215 47.5054C32.9881 47.4685 33.0548 47.4316 33.1235 47.3935C33.1926 47.3541 33.2617 47.3147 33.333 47.2742C33.4029 47.2353 33.4728 47.1964 33.5449 47.1564C33.8609 46.9973 33.8609 46.9973 34.1405 46.7871C34.1465 46.6404 34.1478 46.4936 34.1471 46.3468C34.1469 46.2575 34.1467 46.1683 34.1465 46.0764C34.1459 45.9815 34.1453 45.8865 34.1447 45.7916C34.1444 45.6964 34.1441 45.6012 34.1438 45.506C34.143 45.2722 34.1419 45.0385 34.1405 44.8047C33.8815 44.6561 33.6222 44.5082 33.3629 44.3603C33.289 44.3179 33.2152 44.2756 33.1391 44.2319C33.0686 44.1918 32.9981 44.1517 32.9255 44.1104C32.8278 44.0546 32.8278 44.0546 32.728 43.9976C32.4801 43.871 32.3925 43.9283 32.161 44.0583Z" fill="#05C7F2"/>
<path d="M33.9612 26.3648C34.0483 26.4136 34.1355 26.4622 34.2226 26.5109C34.4024 26.6113 34.582 26.7119 34.7615 26.8128C35.0191 26.9574 35.2773 27.1008 35.5359 27.2439C35.918 27.4553 36.2997 27.6675 36.6811 27.8803C36.8532 27.9762 37.0256 28.0715 37.1981 28.1667C37.2856 28.2155 37.373 28.2642 37.4603 28.3131C37.5309 28.3522 37.6015 28.3913 37.6742 28.4316C37.8321 28.5352 37.8321 28.5352 37.9688 28.7403C37.9835 28.9491 37.9903 29.1517 37.9908 29.3606C37.9918 29.4558 37.9918 29.4558 37.9929 29.553C37.9949 29.7633 37.9958 29.9736 37.9965 30.1839C37.9973 30.3299 37.9981 30.4759 37.9989 30.6219C38.0003 30.9282 38.0011 31.2345 38.0016 31.5408C38.0024 31.9334 38.0057 32.3259 38.0095 32.7184C38.0121 33.0201 38.0128 33.3217 38.013 33.6234C38.0134 33.7681 38.0145 33.9129 38.0163 34.0576C38.0186 34.2601 38.0184 34.4624 38.0175 34.6648C38.0188 34.7246 38.02 34.7845 38.0213 34.8461C38.0159 35.2433 38.0159 35.2433 37.8808 35.4139C37.6684 35.5947 37.4238 35.7329 37.1797 35.8662C37.1072 35.9061 37.0347 35.946 36.96 35.9872C36.8439 36.0502 36.8439 36.0502 36.7255 36.1146C36.6438 36.1594 36.5621 36.2043 36.4804 36.2492C36.3104 36.3426 36.1403 36.4359 35.9701 36.529C35.639 36.7103 35.309 36.8936 34.9791 37.0771C34.8227 37.164 34.6663 37.2508 34.5097 37.3373C34.1798 37.5198 33.8512 37.7032 33.5275 37.8965C33.4779 37.9258 33.4282 37.9551 33.377 37.9853C33.2895 38.0372 33.2026 38.09 33.1164 38.1441C32.8217 38.318 32.5595 38.3894 32.2266 38.3106C31.9102 38.1726 31.6144 38.0013 31.3165 37.8278C31.229 37.778 31.1414 37.7283 31.0537 37.6787C30.8729 37.5762 30.6925 37.4732 30.5122 37.3698C30.2577 37.2241 30.0015 37.0814 29.7445 36.94C29.7047 36.918 29.6648 36.8961 29.6238 36.8734C29.5844 36.8518 29.545 36.8301 29.5044 36.8077C28.9046 36.4771 28.3066 36.1432 27.7149 35.7984C27.6449 35.758 27.6449 35.758 27.5735 35.7167C27.1827 35.4864 27.1827 35.4864 27.0313 35.3028C27.009 35.0982 26.9992 34.9074 26.9985 34.7024C26.9974 34.6411 26.9964 34.5797 26.9953 34.5164C26.9922 34.3131 26.9906 34.1098 26.9891 33.9065C26.9874 33.7652 26.9857 33.624 26.9839 33.4827C26.9804 33.1864 26.9776 32.89 26.9753 32.5937C26.9724 32.2141 26.9676 31.8347 26.9622 31.4552C26.9583 31.1633 26.9553 30.8714 26.9527 30.5795C26.9513 30.4396 26.9496 30.2997 26.9476 30.1598C26.9449 29.964 26.9436 29.7682 26.9426 29.5723C26.9411 29.4858 26.9411 29.4858 26.9395 29.3976C26.9395 29.0587 26.981 28.8295 27.168 28.5352C27.3041 28.4244 27.3041 28.4244 27.4623 28.3392C27.5223 28.3061 27.5824 28.2729 27.6443 28.2388C27.7099 28.2041 27.7755 28.1694 27.843 28.1336C27.9119 28.0959 27.9807 28.0583 28.0517 28.0195C28.2014 27.9376 28.3514 27.8563 28.5017 27.7754C28.8737 27.5745 29.2434 27.3697 29.6134 27.1653C29.7398 27.0955 29.8662 27.026 29.9927 26.9566C30.5744 26.6368 31.152 26.3104 31.7246 25.9745C31.7783 25.9434 31.8319 25.9122 31.8872 25.8802C31.9333 25.8531 31.9794 25.8261 32.0269 25.7982C32.6862 25.4684 33.3937 26.0441 33.9612 26.3648ZM32.0923 27.1039C32.0385 27.1354 31.9847 27.1668 31.9293 27.1992C31.8709 27.234 31.8125 27.2689 31.7523 27.3048C31.6246 27.3795 31.4968 27.4541 31.3689 27.5285C31.2991 27.5691 31.2294 27.6097 31.1575 27.6516C30.9055 27.796 30.6516 27.9368 30.3969 28.0765C30.352 28.1011 30.3071 28.1257 30.2608 28.1511C30.081 28.2496 29.9012 28.3479 29.7211 28.446C29.5946 28.5149 29.4682 28.584 29.3419 28.6532C29.2687 28.6931 29.1955 28.733 29.1201 28.7741C28.9415 28.8695 28.9415 28.8695 28.8086 29.0137C29.5922 29.4663 30.3794 29.912 31.1711 30.3502C31.2592 30.399 31.3473 30.4478 31.4353 30.4967C31.5601 30.5661 31.685 30.6351 31.81 30.704C31.8821 30.7439 31.9543 30.7838 32.0286 30.8249C32.1266 30.8758 32.1266 30.8758 32.2266 30.9278C32.2838 30.9586 32.341 30.9895 32.4 31.0212C32.6394 31.0828 32.7343 31.0099 32.9454 30.8872C33.0189 30.8454 33.0924 30.8035 33.1682 30.7604C33.2474 30.7137 33.3266 30.667 33.4058 30.6202C33.4873 30.5732 33.5689 30.5263 33.6506 30.4795C33.82 30.3824 33.989 30.2847 34.1578 30.1867C34.4079 30.042 34.6603 29.9015 34.9134 29.7622C34.9918 29.719 35.0702 29.6757 35.151 29.6311C35.3016 29.5481 35.4522 29.4652 35.603 29.3825C35.6704 29.345 35.7379 29.3074 35.8074 29.2688C35.8669 29.2359 35.9264 29.203 35.9877 29.1692C36.1325 29.0923 36.1325 29.0923 36.1914 28.9454C36.15 28.9231 36.1085 28.9008 36.0658 28.8779C33.4014 27.4454 33.4014 27.4454 32.8047 27.054C32.5282 26.9041 32.3469 26.9526 32.0923 27.1039ZM28.125 29.9708C28.125 31.5273 28.125 33.0839 28.125 34.6876C28.6664 34.9808 29.2078 35.2741 29.7656 35.5762C30.0526 35.7362 30.3391 35.8963 30.6244 36.059C30.688 36.0951 30.7516 36.1312 30.8171 36.1684C31.3028 36.4442 31.3028 36.4442 31.4837 36.5509C31.7035 36.6917 31.7035 36.6917 31.9531 36.7383C31.9531 35.2044 31.9531 33.6704 31.9531 32.0899C30.7725 31.4143 30.7725 31.4143 29.5848 30.7517C29.4584 30.6821 29.3321 30.6124 29.2058 30.5426C28.8483 30.3455 28.4904 30.1534 28.125 29.9708ZM36.5257 30.1267C36.4651 30.1612 36.4045 30.1958 36.3421 30.2313C36.2754 30.2694 36.2088 30.3075 36.1402 30.3467C35.4805 30.7219 34.818 31.0914 34.1535 31.4576C34.1094 31.4819 34.0654 31.5062 34.02 31.5312C33.2805 31.9389 33.2805 31.9389 33.1153 32.0216C33.1153 33.5781 33.1153 35.1346 33.1153 36.7383C33.7298 36.4106 34.3442 36.0829 34.9567 35.7514C35.0211 35.7166 35.0856 35.6819 35.152 35.6461C35.7303 35.3331 36.3016 35.0101 36.875 34.6876C36.875 33.131 36.875 31.5745 36.875 29.9708C36.7464 29.9708 36.6343 30.0646 36.5257 30.1267Z" fill="#05C7F2"/>
</svg>
