<svg width="65" height="65" viewBox="0 0 65 65" fill="none" xmlns="http://www.w3.org/2000/svg">
<g clip-path="url(#clip0_5371_19476)">
<path d="M27.6721 15.1795C27.785 15.1766 27.785 15.1766 27.9001 15.1736C28.4232 15.2469 28.7743 15.6996 29.1285 16.0585C29.184 16.1143 29.2396 16.17 29.2968 16.2275C29.4733 16.4047 29.6494 16.5825 29.8254 16.7603C29.9454 16.8809 30.0653 17.0015 30.1854 17.1221C30.4787 17.417 30.7717 17.7123 31.0644 18.0078C31.1173 17.8979 31.1173 17.8979 31.1712 17.7857C31.33 17.5141 31.5148 17.3522 31.8164 17.2559C32.0771 17.2194 32.3335 17.2191 32.5964 17.222C32.6706 17.2219 32.7448 17.2218 32.8213 17.2217C32.9776 17.2218 33.1339 17.2226 33.2903 17.224C33.5291 17.226 33.7678 17.2254 34.0067 17.2245C34.1589 17.2249 34.3112 17.2255 34.4634 17.2262C34.5702 17.2259 34.5702 17.2259 34.679 17.2256C35.1334 17.2315 35.4466 17.282 35.7951 17.5971C36.0084 17.9542 36.0663 18.366 36.1476 18.7707C36.221 19.1315 36.221 19.1315 36.4538 19.3959C36.5943 19.4493 36.7274 19.4841 36.875 19.5117C36.9281 19.5282 36.9812 19.5447 37.036 19.5617C37.2848 19.6237 37.508 19.6757 37.7636 19.6485C37.8982 19.552 37.8982 19.552 38.0122 19.414C38.0574 19.3653 38.1026 19.3165 38.1491 19.2663C38.2416 19.1632 38.3337 19.0596 38.4252 18.9555C38.7114 18.6486 38.9427 18.4657 39.3668 18.4127C39.9969 18.4318 40.5918 18.887 41.1175 19.1956C41.1941 19.2398 41.2706 19.284 41.3494 19.3296C42.7338 20.1351 42.7338 20.1351 42.8906 20.6055C42.9325 21.1077 42.8185 21.5325 42.677 22.0101C42.5772 22.3643 42.5772 22.3643 42.6801 22.703C42.8945 23.0145 43.1561 23.3196 43.5058 23.4766C43.8564 23.492 44.1692 23.3648 44.4917 23.2408C44.885 23.0909 45.2495 23.0737 45.6463 23.216C45.9692 23.4337 46.149 23.7441 46.3401 24.0774C46.3836 24.1531 46.4271 24.2288 46.472 24.3068C46.5055 24.3655 46.5055 24.3655 46.5397 24.4255C46.6067 24.5431 46.6742 24.6605 46.7417 24.7778C46.8716 25.0044 47.0005 25.2315 47.1289 25.459C47.1689 25.5295 47.2089 25.5999 47.2501 25.6725C47.287 25.7384 47.3238 25.8042 47.3617 25.8721C47.3942 25.9299 47.4267 25.9877 47.4601 26.0473C47.6046 26.3469 47.6699 26.6354 47.5643 26.9576C47.356 27.3887 47.0549 27.6636 46.6978 27.9745C46.5755 28.0881 46.4702 28.1916 46.3769 28.3301C46.3671 28.5744 46.3671 28.5744 46.4453 28.8086C46.4559 28.8809 46.4666 28.9531 46.4776 29.0276C46.5187 29.2397 46.566 29.4298 46.6504 29.6289C46.8618 29.759 46.9616 29.7902 47.1972 29.834C47.3714 29.8754 47.545 29.9178 47.7185 29.9622C47.786 29.9793 47.786 29.9793 47.8549 29.9968C48.2448 30.1013 48.4945 30.2224 48.7092 30.5747C48.7807 30.7502 48.7878 30.8842 48.7894 31.0735C48.7902 31.1433 48.7911 31.2132 48.792 31.2851C48.7922 31.3977 48.7922 31.3977 48.7925 31.5125C48.7929 31.5901 48.7934 31.6676 48.7938 31.7475C48.7945 31.9115 48.7949 32.0755 48.7948 32.2395C48.7951 32.4901 48.7976 32.7405 48.8002 32.9911C48.8006 33.1505 48.8009 33.3099 48.801 33.4693C48.802 33.5441 48.803 33.6189 48.804 33.6959C48.8015 34.1162 48.782 34.3706 48.4961 34.6875C48.177 34.9171 47.9145 34.9893 47.5308 35.0509C47.0234 35.1278 47.0234 35.1278 46.6247 35.4196C46.4417 35.7819 46.3776 36.1683 46.3764 36.5722C46.5085 36.8908 46.7976 37.1001 47.0474 37.3298C47.3604 37.6271 47.5711 37.8853 47.6269 38.3287C47.5931 38.6297 47.5126 38.8601 47.3636 39.1239C47.3267 39.1898 47.2898 39.2556 47.2518 39.3234C47.2113 39.3952 47.1707 39.467 47.1289 39.541C47.0633 39.6598 46.9978 39.7787 46.9323 39.8975C46.8401 40.0644 46.7467 40.2306 46.6532 40.3968C46.6054 40.4819 46.558 40.5673 46.5108 40.6528C46.4413 40.7788 46.3708 40.9042 46.3 41.0294C46.259 41.1031 46.2179 41.1767 46.1756 41.2525C45.9749 41.542 45.7611 41.7515 45.4199 41.8652C45.0176 41.9097 44.7074 41.8423 44.3337 41.6984C43.8514 41.5139 43.8514 41.5139 43.3587 41.5846C43.2148 41.6817 43.0977 41.7842 42.976 41.908C42.9192 41.9657 42.9192 41.9657 42.8612 42.0246C42.7124 42.2013 42.6223 42.3339 42.6069 42.5679C42.6345 42.8549 42.7047 43.1289 42.7923 43.4033C42.9144 43.8334 42.9621 44.195 42.8094 44.621C42.5838 44.9555 42.2592 45.136 41.9133 45.3321C41.8727 45.3552 41.8322 45.3782 41.7904 45.402C41.6617 45.4752 41.5327 45.548 41.4038 45.6207C41.3183 45.6693 41.2329 45.7178 41.1474 45.7664C40.9829 45.8599 40.8183 45.953 40.6534 46.0458C40.5155 46.1235 40.3778 46.2016 40.2404 46.2802C40.1863 46.3109 40.1323 46.3416 40.0766 46.3732C40.0312 46.3992 39.9858 46.4252 39.939 46.452C39.6249 46.6075 39.321 46.6105 38.9894 46.511C38.6576 46.3459 38.421 46.0041 38.1831 45.7277C37.9399 45.4507 37.9399 45.4507 37.606 45.3311C37.4477 45.348 37.3021 45.379 37.1484 45.4199C37.0767 45.4298 37.0049 45.4397 36.931 45.4498C36.5781 45.5149 36.5781 45.5149 36.3153 45.7369C36.2595 45.9032 36.2259 46.0682 36.1914 46.2402C36.1429 46.4295 36.0884 46.6168 36.0333 46.8042C36.0212 46.8511 36.0091 46.8979 35.9966 46.9462C35.8897 47.3171 35.7473 47.4639 35.4394 47.6758C35.2413 47.7418 35.1112 47.7539 34.9049 47.7563C34.838 47.7571 34.7712 47.758 34.7023 47.7589C34.594 47.7597 34.594 47.7597 34.4835 47.7604C34.409 47.761 34.3346 47.7616 34.2579 47.7621C34.1002 47.7631 33.9425 47.7638 33.7848 47.7643C33.5443 47.7655 33.3039 47.7685 33.0634 47.7715C32.9101 47.7722 32.7569 47.7728 32.6036 47.7733C32.5319 47.7745 32.4603 47.7757 32.3865 47.7769C31.9535 47.7756 31.688 47.7325 31.3379 47.4707C31.002 46.9621 30.791 46.2325 30.791 45.625C30.3026 45.4986 29.9643 45.5876 29.5088 45.7886C29.1404 45.9496 28.7682 46.0634 28.3813 46.1719C27.7385 46.3564 27.1582 46.5641 26.6894 47.0606C26.712 47.1057 26.7345 47.1508 26.7578 47.1973C26.7741 47.3409 26.7741 47.3409 26.7791 47.5134C26.783 47.5972 26.783 47.5972 26.7869 47.6827C26.7016 48.2632 26.3171 48.6357 25.9118 49.0302C25.8611 49.0814 25.8103 49.1326 25.758 49.1854C25.3789 49.5602 25.0653 49.8232 24.5105 49.8291C24.4113 49.8323 24.4113 49.8323 24.3102 49.8355C23.7873 49.7384 23.4029 49.3411 23.0405 48.9753C22.9699 48.9052 22.9699 48.9052 22.8978 48.8337C22.7437 48.6805 22.5903 48.5265 22.437 48.3725C22.3295 48.2651 22.2219 48.1578 22.1144 48.0504C21.8897 47.826 21.6653 47.6013 21.4413 47.3762C21.1543 47.0881 20.8665 46.801 20.5783 46.5141C20.3564 46.2928 20.1349 46.0711 19.9135 45.8492C19.8076 45.7431 19.7015 45.6372 19.5952 45.5314C19.4468 45.3835 19.2991 45.235 19.1515 45.0863C19.1077 45.0429 19.0639 44.9996 19.0188 44.9549C18.6758 44.6069 18.4575 44.2929 18.4521 43.7879C18.45 43.7218 18.4479 43.6557 18.4457 43.5876C18.5456 43.0502 18.952 42.6643 19.328 42.2925C19.3708 42.2483 19.4135 42.2042 19.4576 42.1587C19.7956 41.8211 20.134 41.5294 20.6289 41.5184C20.7001 41.5271 20.7713 41.5358 20.8447 41.5448C21.097 41.5518 21.2389 41.5554 21.4533 41.4188C22.3018 40.5197 22.4025 39.3841 22.4015 38.2132C22.4015 38.0387 22.4024 37.8642 22.4035 37.6897C22.4067 37.1943 22.4084 36.6988 22.4088 36.2033C22.4092 35.8988 22.4108 35.5943 22.4133 35.2898C22.414 35.1744 22.4141 35.0589 22.4138 34.9434C22.4133 34.7821 22.4145 34.6209 22.416 34.4597C22.4152 34.3889 22.4152 34.3889 22.4143 34.3166C22.4201 33.9777 22.5148 33.7876 22.7246 33.5254C23.0589 33.2309 23.384 33.1682 23.8183 33.1836C24.5312 33.2971 25.0532 33.6767 25.4926 34.2338C25.8192 34.805 25.827 35.3428 25.8136 35.9906C25.8126 36.0759 25.8117 36.1611 25.8108 36.249C25.8084 36.4577 25.8048 36.6663 25.8008 36.875C26.3342 36.4987 26.781 36.046 27.2366 35.582C27.3716 35.4445 27.5072 35.3076 27.6429 35.1708C28.0283 34.7821 28.4129 34.3926 28.7969 34.0025C29.0328 33.7629 29.2694 33.524 29.5064 33.2855C29.5961 33.1949 29.6855 33.1042 29.7746 33.0131C29.8994 32.8857 30.025 32.7592 30.1508 32.6328C30.2049 32.5769 30.2049 32.5769 30.2601 32.5199C30.6527 32.1293 31.0897 31.9118 31.6447 31.8786C32.1631 31.8972 32.5038 32.1161 32.8805 32.4576C32.9785 32.5684 32.9785 32.5684 32.9785 32.7051C33.015 32.6903 33.0515 32.6755 33.089 32.6602C33.6026 32.4683 34.0753 32.403 34.5977 32.6026C34.9807 32.7934 35.2601 33.0988 35.4509 33.4797C35.6231 34.0319 35.5598 34.6262 35.2942 35.1335C35.2744 35.1668 35.2547 35.2001 35.2343 35.2344C35.2758 35.2531 35.3172 35.2718 35.3598 35.291C35.6394 35.4424 35.8031 35.6861 35.9393 35.965C36.0493 36.4949 36.0451 36.9609 35.7796 37.4422C35.4867 37.8428 35.1174 38.1779 34.7558 38.5156C34.7852 38.5474 34.8146 38.5792 34.8449 38.612C35.2394 39.0441 35.4193 39.4399 35.3983 40.0313C35.3021 40.7141 34.8348 41.1455 34.3457 41.5918C36.7785 41.3947 38.9595 40.2044 40.5664 38.3789C42.1148 36.5155 42.8503 34.0587 42.6428 31.6541C42.5275 30.5266 42.2326 29.4805 41.7285 28.4668C41.6896 28.388 41.6508 28.3093 41.6107 28.2281C41.206 27.4444 40.6918 26.782 40.0879 26.1426C40.0375 26.0871 39.9872 26.0316 39.9354 25.9744C38.811 24.7803 37.2726 24.047 35.7129 23.6133C35.6654 23.6001 35.6179 23.5868 35.569 23.5732C34.1632 23.2053 32.5224 23.2856 31.1328 23.6817C31.0782 23.6962 31.0237 23.7107 30.9675 23.7256C30.7197 23.7979 30.5564 23.8464 30.375 24.0347C30.3313 24.1179 30.3313 24.1179 30.2868 24.2029C30.255 24.2633 30.2232 24.3238 30.1904 24.3861C29.9312 24.9613 29.8238 25.4982 29.8243 26.1304C29.824 26.1824 29.8238 26.2344 29.8235 26.2879C29.823 26.4001 29.8227 26.5124 29.8224 26.6246C29.8219 26.8025 29.8209 26.9804 29.8196 27.1583C29.816 27.664 29.8127 28.1696 29.8117 28.6752C29.811 28.9851 29.809 29.2949 29.8061 29.6048C29.8053 29.7225 29.8049 29.8402 29.8051 29.9579C29.8052 30.1228 29.8037 30.2877 29.8018 30.4526C29.8023 30.5007 29.8027 30.5488 29.8032 30.5984C29.7963 30.9689 29.6947 31.175 29.4922 31.4746C29.1631 31.7723 28.8303 31.8317 28.3984 31.8164C27.7535 31.7137 27.1834 31.3685 26.777 30.8583C26.377 30.2388 26.3406 29.5631 26.3092 28.8471C26.3062 28.784 26.3033 28.721 26.3002 28.656C26.293 28.5018 26.2861 28.3476 26.2793 28.1934C25.6658 28.704 25.0841 29.2338 24.5246 29.8031C24.4019 29.9279 24.2787 30.0523 24.1554 30.1765C23.8056 30.5289 23.4567 30.8823 23.108 31.2359C22.8928 31.454 22.6771 31.6716 22.4611 31.8889C22.3403 32.0109 22.22 32.1334 22.0997 32.256C22.0255 32.3307 21.9512 32.4054 21.8769 32.4801C21.8441 32.5139 21.8113 32.5477 21.7775 32.5825C21.424 32.935 21.0716 33.0841 20.5819 33.1195C20.0658 33.1074 19.6677 32.9295 19.3066 32.5684C19.2615 32.5007 19.2164 32.433 19.1699 32.3633C19.0938 32.3859 19.0176 32.4084 18.9392 32.4317C18.3024 32.588 17.7682 32.5221 17.2088 32.1839C16.8646 31.8303 16.662 31.4055 16.6235 30.9149C16.6444 30.5969 16.7348 30.3354 16.8457 30.0391C16.8682 29.9714 16.8908 29.9037 16.914 29.834C16.8658 29.7905 16.8658 29.7905 16.8166 29.7461C16.383 29.3377 16.2225 29.0318 16.2005 28.4369C16.1909 27.915 16.3854 27.5497 16.7399 27.1787C16.8258 27.0946 16.9123 27.0113 16.9995 26.9287C17.0439 26.8855 17.0883 26.8424 17.1341 26.7979C17.2424 26.6927 17.3513 26.5883 17.4609 26.4844C17.4328 26.4519 17.4047 26.4195 17.3757 26.386C17.3388 26.3432 17.3019 26.3004 17.2638 26.2563C17.209 26.1929 17.209 26.1929 17.153 26.1281C16.8366 25.7499 16.8205 25.4184 16.8118 24.9404C16.8852 24.4354 17.163 24.0755 17.5178 23.7251C17.5569 23.6853 17.5961 23.6455 17.6365 23.6046C17.7651 23.4744 17.8947 23.3453 18.0243 23.2162C18.1152 23.125 18.206 23.0338 18.2968 22.9425C18.487 22.7516 18.6777 22.5612 18.8688 22.3711C19.1114 22.1296 19.3527 21.8868 19.5935 21.6435C19.7808 21.4547 19.969 21.2667 20.1573 21.0789C20.2465 20.9898 20.3353 20.9005 20.424 20.8108C21.1141 20.114 21.8376 19.4812 22.7801 19.1528C22.8247 19.1369 22.8693 19.121 22.9153 19.1046C23.3015 18.9699 23.6956 18.863 24.0893 18.7528C24.5531 18.618 25.1727 18.4205 25.459 18.0078C25.4733 17.7672 25.4585 17.5336 25.4461 17.293C25.4683 16.8747 25.6688 16.6099 25.9586 16.3213C26.0153 16.2646 26.072 16.208 26.1304 16.1496C26.1894 16.0917 26.2484 16.0338 26.3092 15.9741C26.3679 15.9152 26.4266 15.8562 26.4872 15.7955C26.8806 15.4054 27.1022 15.1861 27.6721 15.1795ZM27.2165 16.694C27.1723 16.7385 27.1281 16.7829 27.0825 16.8286C27.0372 16.872 26.9919 16.9153 26.9452 16.96C26.9028 17.0023 26.8603 17.0446 26.8165 17.0882C26.7578 17.1462 26.7578 17.1462 26.6979 17.2053C26.606 17.3193 26.606 17.3193 26.6387 17.4551C26.6955 17.6149 26.7571 17.6906 26.8767 17.8096C26.9364 17.8697 26.9364 17.8697 26.9973 17.931C27.0411 17.9741 27.085 18.0173 27.1302 18.0617C27.1762 18.1077 27.2222 18.1538 27.2696 18.2012C27.4219 18.3534 27.5749 18.5048 27.7279 18.6562C27.8336 18.7615 27.9393 18.8669 28.0449 18.9723C28.323 19.2496 28.6018 19.5264 28.8806 19.803C29.1651 20.0853 29.449 20.3683 29.7329 20.6511C30.2901 21.2062 30.848 21.7605 31.4062 22.3145C31.6049 22.219 31.7461 22.1278 31.9008 21.97C31.94 21.9303 31.9792 21.8907 32.0196 21.8498C32.0597 21.8086 32.0998 21.7674 32.1411 21.7249C32.1822 21.6831 32.2234 21.6413 32.2658 21.5983C32.3669 21.4955 32.4677 21.3923 32.5683 21.2891C32.4806 21.0967 32.3891 20.9559 32.2401 20.8063C32.2011 20.7668 32.1621 20.7273 32.1219 20.6866C32.0579 20.6229 32.0579 20.6229 31.9926 20.5579C31.9476 20.5125 31.9026 20.4671 31.8562 20.4204C31.7073 20.2706 31.558 20.1213 31.4086 19.9721C31.3051 19.8683 31.2015 19.7645 31.098 19.6606C30.8811 19.4432 30.6639 19.226 30.4465 19.009C30.1675 18.7303 29.8892 18.4509 29.6112 18.1713C29.3977 17.9568 29.1837 17.7427 28.9696 17.5288C28.8667 17.4259 28.7641 17.3229 28.6616 17.2197C28.5185 17.0758 28.3749 16.9326 28.231 16.7896C28.1885 16.7465 28.146 16.7035 28.1022 16.6592C27.7074 16.2693 27.5786 16.3395 27.2165 16.694ZM32.2265 18.418C32.0784 18.7589 32.0784 18.7589 32.0898 19.1016C32.2195 19.2751 32.2195 19.2751 32.399 19.437C32.4953 19.5302 32.4953 19.5302 32.5934 19.6252C32.6619 19.69 32.7304 19.7547 32.799 19.8194C32.9327 19.9462 33.0655 20.0737 33.198 20.2017C33.2871 20.286 33.2871 20.286 33.3781 20.372C33.6612 20.6894 33.6876 20.986 33.6802 21.3959C33.6558 21.6199 33.5734 21.7817 33.457 21.9727C33.4344 22.0403 33.4119 22.108 33.3886 22.1777C33.465 22.1795 33.5413 22.1813 33.6199 22.1831C36.5508 22.278 39.1871 23.4106 41.203 25.5573C41.5812 25.973 41.9098 26.4172 42.207 26.8945C42.2452 26.9557 42.2452 26.9557 42.2841 27.018C43.7628 29.4258 44.1941 32.2919 43.54 35.0359C42.8715 37.7052 41.1365 39.9811 38.7912 41.3961C37.8648 41.9348 36.8936 42.3134 35.8496 42.5488C35.8034 42.5596 35.7573 42.5703 35.7097 42.5814C35.5715 42.6125 35.4331 42.6412 35.2942 42.6685C35.2474 42.6778 35.2006 42.6872 35.1523 42.6968C34.8613 42.747 34.6018 42.7518 34.3075 42.7237C33.6879 42.6778 33.1905 42.6714 32.695 43.0813C32.2284 43.498 31.7832 43.9635 31.4062 44.4629C31.4062 44.508 31.4062 44.5531 31.4062 44.5996C31.4839 44.6648 31.4839 44.6648 31.5632 44.7313C31.8359 44.9932 31.8847 45.3501 31.9702 45.7062C32.0046 45.8425 32.0392 45.9788 32.0738 46.115C32.0884 46.1751 32.1031 46.2352 32.1182 46.2972C32.1534 46.447 32.1534 46.447 32.2265 46.582C33.1063 46.582 33.9861 46.582 34.8925 46.582C35.0361 46.0067 35.0361 46.0067 35.1767 45.4307C35.1953 45.359 35.2139 45.2874 35.233 45.2135C35.2513 45.1401 35.2695 45.0667 35.2883 44.9911C35.3931 44.755 35.4792 44.7047 35.7129 44.5996C36.0009 44.5003 36.2944 44.4218 36.5886 44.343C36.7292 44.305 36.8692 44.2651 37.0093 44.2251C37.0996 44.2006 37.1899 44.1761 37.2803 44.1518C37.4022 44.1183 37.4022 44.1183 37.5265 44.0842C37.8734 44.0382 38.1236 44.0995 38.4032 44.3117C38.4724 44.3836 38.4724 44.3836 38.5431 44.457C38.594 44.509 38.6449 44.561 38.6973 44.6146C38.7487 44.6689 38.8001 44.7231 38.8531 44.7791C38.9064 44.8339 38.9597 44.8887 39.0145 44.9452C39.1453 45.0799 39.2751 45.2154 39.4043 45.3516C39.673 45.2518 39.9132 45.1257 40.161 44.982C40.1995 44.9598 40.238 44.9375 40.2776 44.9146C40.3585 44.8678 40.4392 44.8209 40.5199 44.774C40.6433 44.7022 40.7668 44.6307 40.8903 44.5593C41.3148 44.3147 41.3148 44.3147 41.7285 44.0527C41.7103 43.9801 41.6922 43.9075 41.6735 43.8327C41.5282 43.2517 41.5282 43.2517 41.4919 43.1059C41.467 43.0064 41.4415 42.9071 41.4156 42.8079C41.2829 42.2951 41.2829 42.2951 41.3867 42.002C41.5354 41.8105 41.7017 41.634 41.8652 41.4551C41.9091 41.407 41.9529 41.3589 41.9981 41.3093C42.1329 41.1638 42.27 41.0209 42.4078 40.8783C42.4532 40.8292 42.4987 40.7801 42.5455 40.7294C42.7887 40.4796 42.9829 40.2905 43.3519 40.2775C43.686 40.3111 44.0042 40.4017 44.3261 40.4938C44.3987 40.5137 44.4712 40.5335 44.5459 40.554C44.7236 40.6028 44.9009 40.6525 45.0781 40.7031C45.1203 40.6311 45.1625 40.5592 45.206 40.485C45.2337 40.4378 45.2615 40.3905 45.2901 40.3419C45.3514 40.2374 45.4126 40.1328 45.4736 40.0282C45.628 39.7644 45.7845 39.5028 45.9489 39.2452C45.9778 39.1992 46.0067 39.1533 46.0365 39.1059C46.0917 39.0185 46.1478 38.9316 46.2048 38.8454C46.2903 38.7144 46.2903 38.7144 46.3769 38.5156C46.2992 38.2959 46.1702 38.1567 46.005 37.996C45.9594 37.9512 45.9139 37.9065 45.867 37.8604C45.8196 37.8144 45.7721 37.7684 45.7232 37.721C45.629 37.6291 45.5349 37.5371 45.441 37.4449C45.3993 37.4044 45.3575 37.3639 45.3145 37.3221C45.1228 37.1197 45.1249 36.9335 45.1282 36.6608C45.1626 36.2918 45.2648 35.9386 45.3651 35.5827C45.403 35.4472 45.439 35.3112 45.4749 35.1751C45.4987 35.0891 45.5225 35.0031 45.547 34.9145C45.5685 34.8364 45.59 34.7584 45.6121 34.6779C45.7029 34.4594 45.7612 34.3896 45.9668 34.2774C46.1411 34.2175 46.1411 34.2175 46.335 34.17C46.4396 34.1437 46.4396 34.1437 46.5464 34.1169C46.6549 34.0906 46.6549 34.0906 46.7657 34.0637C46.9099 34.0282 47.054 33.9924 47.198 33.9564C47.2618 33.9409 47.3256 33.9254 47.3913 33.9094C47.5364 33.8809 47.5364 33.8809 47.6074 33.7988C47.6135 33.6066 47.6153 33.4161 47.6141 33.2239C47.614 33.1664 47.6139 33.1088 47.6138 33.0495C47.6134 32.8649 47.6125 32.6803 47.6117 32.4957C47.6113 32.3709 47.611 32.2461 47.6107 32.1212C47.61 31.8146 47.6088 31.5079 47.6074 31.2012C47.1826 31.0373 47.1826 31.0373 46.7452 30.9133C46.6659 30.8935 46.6659 30.8935 46.5851 30.8733C46.4765 30.8466 46.3677 30.8209 46.2588 30.7958C46.2064 30.7824 46.154 30.769 46.1 30.7552C46.053 30.744 46.006 30.7328 45.9576 30.7212C45.7174 30.5952 45.6438 30.3664 45.5578 30.1203C45.4953 29.8941 45.4334 29.6677 45.3729 29.4409C45.351 29.3629 45.3291 29.2848 45.3065 29.2043C45.0247 28.1585 45.0247 28.1585 45.2247 27.7667C45.2811 27.7114 45.2811 27.7114 45.3387 27.655C45.403 27.5897 45.403 27.5897 45.4685 27.5231C45.5201 27.4736 45.5718 27.4241 45.625 27.3731C45.6915 27.3061 45.7579 27.239 45.8242 27.1717C46.0069 26.9866 46.1915 26.8035 46.3769 26.6211C46.222 26.2028 45.991 25.8254 45.7701 25.4395C45.6932 25.3049 45.6169 25.1699 45.5406 25.035C45.4918 24.9495 45.4431 24.864 45.3943 24.7786C45.35 24.701 45.3058 24.6233 45.2602 24.5433C45.1642 24.3595 45.1642 24.3595 45.0097 24.2969C44.8581 24.3271 44.8581 24.3271 44.6866 24.3823C44.6217 24.4014 44.5567 24.4204 44.4898 24.44C44.3537 24.4809 44.2177 24.5222 44.0818 24.5639C43.2861 24.7952 43.2861 24.7952 42.959 24.6387C42.7144 24.4453 42.4971 24.2314 42.2827 24.006C42.1813 23.8995 42.0783 23.7947 41.975 23.6901C41.4087 23.1105 41.4087 23.1105 41.3183 22.8613C41.3453 22.3917 41.4802 21.9605 41.6163 21.5127C41.6393 21.4341 41.6393 21.4341 41.6628 21.354C41.6842 21.2835 41.6842 21.2835 41.706 21.2116C41.7416 21.069 41.7416 21.069 41.6601 20.8789C41.4973 20.7652 41.4973 20.7652 41.294 20.6592C41.219 20.6179 41.144 20.5766 41.0667 20.5341C40.9876 20.4914 40.9085 20.4487 40.827 20.4047C40.6721 20.3202 40.5173 20.2355 40.3626 20.1507C40.2591 20.0947 40.2591 20.0947 40.1535 20.0375C39.9418 19.9165 39.7423 19.7859 39.541 19.6485C39.3196 19.7449 39.1804 19.8596 39.016 20.0354C38.9694 20.084 38.9228 20.1326 38.8748 20.1826C38.7778 20.285 38.6814 20.3877 38.5853 20.4908C38.5385 20.5393 38.4917 20.5878 38.4435 20.6378C38.4016 20.6824 38.3596 20.727 38.3164 20.7729C38.1276 20.9132 37.998 20.9338 37.7636 20.9473C37.5342 20.9081 37.5342 20.9081 37.287 20.8415C37.2208 20.8239 37.2208 20.8239 37.1533 20.8059C37.0605 20.781 36.9678 20.7557 36.8753 20.7301C36.7344 20.6911 36.5932 20.6535 36.4519 20.6162C35.6169 20.3903 35.6169 20.3903 35.3711 20.1953C35.2883 20.0089 35.2883 20.0089 35.233 19.7865C35.2144 19.7148 35.1959 19.6432 35.1767 19.5694C35.1439 19.433 35.1439 19.433 35.1104 19.2938C35.0385 19.0048 34.9666 18.7158 34.8925 18.418C34.0128 18.418 33.133 18.418 32.2265 18.418ZM25.8072 19.237C25.1826 19.6447 24.5252 19.8465 23.8113 20.0439C22.7119 20.3636 22.0193 20.9067 21.2322 21.704C21.1385 21.7976 21.0447 21.8911 20.9509 21.9846C20.756 22.1792 20.5619 22.3745 20.3682 22.5703C20.12 22.8213 19.87 23.0706 19.6196 23.3194C19.4264 23.5116 19.2341 23.7046 19.042 23.8979C18.9501 23.9902 18.8579 24.0822 18.7655 24.1741C18.6371 24.302 18.5098 24.4309 18.3827 24.5602C18.3445 24.5979 18.3063 24.6355 18.2669 24.6743C18.1094 24.8367 18.0139 24.9427 17.9771 25.1694C17.9965 25.3314 17.9965 25.3314 18.1231 25.4547C18.2772 25.5453 18.2772 25.5453 18.4359 25.4895C18.6823 25.3593 18.8529 25.177 19.0409 24.9759C19.1214 24.8925 19.2019 24.8092 19.2824 24.7259C19.408 24.5948 19.5332 24.4633 19.6577 24.3312C19.7786 24.2032 19.9009 24.0768 20.0236 23.9506C20.0601 23.911 20.0965 23.8714 20.1341 23.8306C20.4152 23.544 20.6133 23.4833 21.0156 23.4766C21.1822 23.5492 21.1822 23.5492 21.289 23.6817C21.3645 23.9132 21.3869 24.0324 21.2772 24.2531C21.1346 24.4592 20.9767 24.6251 20.7986 24.8017C20.7635 24.8368 20.7283 24.8719 20.6921 24.908C20.5766 25.0231 20.4606 25.1377 20.3446 25.2523C20.2639 25.3325 20.1833 25.4128 20.1027 25.4931C19.891 25.7039 19.6789 25.9143 19.4667 26.1246C19.1267 26.4617 18.7872 26.7991 18.4479 27.1368C18.3294 27.2547 18.2107 27.3722 18.0919 27.4898C18.0193 27.5619 17.9467 27.6341 17.8741 27.7062C17.8107 27.7691 17.7472 27.832 17.6819 27.8967C17.5005 28.0868 17.3999 28.2028 17.3669 28.4668C17.374 28.6741 17.374 28.6741 17.5036 28.8043C17.7248 28.9033 17.8434 28.8694 18.0761 28.8086C18.24 28.6911 18.24 28.6911 18.3849 28.5321C18.4422 28.4735 18.4995 28.4149 18.5585 28.3545C18.6495 28.2589 18.6495 28.2589 18.7424 28.1613C18.8064 28.0956 18.8706 28.0299 18.9349 27.9644C19.1725 27.7217 19.4084 27.4772 19.644 27.2325C19.8434 27.0255 20.0435 26.8193 20.2449 26.6143C20.3387 26.5181 20.4312 26.4207 20.5237 26.3233C20.9994 25.8383 20.9994 25.8383 21.2869 25.791C21.4917 25.8007 21.6027 25.8171 21.7676 25.9375C21.8783 26.1591 21.8763 26.3817 21.8359 26.6211C21.7203 26.7877 21.6249 26.9007 21.4804 27.0365C21.4237 27.093 21.4237 27.093 21.3659 27.1506C21.2413 27.2742 21.1149 27.3957 20.9884 27.5173C20.9012 27.6031 20.8142 27.689 20.7273 27.775C20.4985 28.0009 20.2683 28.2251 20.0376 28.449C19.6685 28.8078 19.3019 29.1692 18.935 29.5303C18.8068 29.6562 18.6779 29.7814 18.549 29.9066C18.4702 29.9835 18.3914 30.0605 18.3126 30.1375C18.2767 30.1721 18.2407 30.2067 18.2037 30.2424C18.0312 30.4117 17.8853 30.5611 17.8027 30.791C17.8132 31.0051 17.8425 31.1011 17.9864 31.261C18.2087 31.3691 18.3177 31.3363 18.5547 31.2695C18.7052 31.1498 18.8308 31.0362 18.963 30.8989C19.0015 30.8603 19.04 30.8218 19.0797 30.782C19.2064 30.6548 19.3318 30.5264 19.4572 30.398C19.5451 30.3093 19.6331 30.2206 19.7212 30.1321C19.9525 29.8991 20.1827 29.6651 20.4128 29.4309C20.7377 29.1005 21.064 28.7714 21.3901 28.4422C21.5638 28.2669 21.737 28.0912 21.91 27.9152C21.9889 27.8352 22.0677 27.7553 22.1465 27.6753C22.1825 27.6386 22.2184 27.6019 22.2554 27.5641C22.5748 27.2408 22.5748 27.2408 22.8912 27.2235C23.1347 27.2363 23.1347 27.2363 23.3398 27.3731C23.4552 27.8347 23.4552 27.8347 23.3132 28.092C23.073 28.4403 22.7506 28.7211 22.4477 29.0137C22.3804 29.0795 22.3132 29.1454 22.246 29.2113C21.9622 29.4899 21.6779 29.7681 21.3918 30.0444C21.2163 30.2141 21.0419 30.3849 20.8683 30.5564C20.8021 30.6214 20.7355 30.686 20.6684 30.75C20.5748 30.8395 20.4828 30.9306 20.3909 31.0217C20.3382 31.073 20.2854 31.1243 20.2311 31.1772C20.1058 31.3363 20.1058 31.3363 20.1371 31.5545C20.1813 31.7515 20.1813 31.7515 20.3149 31.8805C20.5211 31.9779 20.5944 31.9578 20.8105 31.8848C20.9615 31.7573 21.0952 31.6319 21.2316 31.4904C21.2724 31.4492 21.3131 31.4081 21.3551 31.3657C21.4434 31.2763 21.5314 31.1867 21.6192 31.0967C21.7586 30.9537 21.8989 30.8117 22.0394 30.6698C22.3887 30.3169 22.7365 29.9625 23.0844 29.6081C23.3778 29.3092 23.6718 29.011 23.9666 28.7134C24.1038 28.5745 24.2401 28.4348 24.3764 28.295C25.6859 26.9645 25.6859 26.9645 26.4715 26.9415C26.803 26.9464 26.9894 27.0014 27.2363 27.2363C27.4869 27.6744 27.4716 28.0993 27.4756 28.595C27.4697 29.4855 27.4697 29.4855 27.8425 30.2698C27.8877 30.3064 27.933 30.3431 27.9797 30.3809C28.0246 30.4189 28.0696 30.457 28.1159 30.4962C28.2794 30.5969 28.4159 30.6212 28.6035 30.6543C28.6039 30.5913 28.6043 30.5284 28.6047 30.4635C28.6087 29.8662 28.6136 29.269 28.6196 28.6717C28.6226 28.3648 28.6253 28.0578 28.6272 27.7509C28.629 27.4539 28.6317 27.1569 28.6352 26.86C28.6363 26.7474 28.6371 26.6349 28.6375 26.5223C28.6413 25.6217 28.6964 24.7441 29.1333 23.9337C29.1569 23.8881 29.1805 23.8424 29.2049 23.7953C29.3744 23.4768 29.5677 23.19 29.8035 22.9158C29.905 22.7896 29.969 22.665 30.039 22.5195C29.5694 22.0468 29.0994 21.5743 28.629 21.1024C28.4105 20.8832 28.1922 20.664 27.9742 20.4444C27.764 20.2327 27.5534 20.0213 27.3426 19.8102C27.2621 19.7294 27.1817 19.6485 27.1014 19.5675C26.9893 19.4544 26.8767 19.3417 26.7641 19.2291C26.7307 19.1952 26.6973 19.1613 26.6629 19.1264C26.3006 18.7664 26.1741 18.9636 25.8072 19.237ZM31.4204 33.1144C31.3814 33.1518 31.3425 33.1892 31.3023 33.2277C31.2551 33.2723 31.2079 33.317 31.1593 33.363C31.1054 33.4166 31.0516 33.4702 30.9961 33.5254C30.9329 33.5876 30.8697 33.6497 30.8046 33.7138C30.6185 33.898 30.4342 34.084 30.2502 34.2703C30.1267 34.3953 30.0029 34.5201 29.8791 34.6447C29.5273 34.9988 29.1758 35.3531 28.825 35.7082C28.6094 35.9264 28.3933 36.144 28.1769 36.3614C28.0952 36.4436 28.0137 36.526 27.9325 36.6086C27.479 37.0694 27.0348 37.4857 26.4843 37.832C26.4167 37.8758 26.349 37.9195 26.2793 37.9645C25.9149 38.0935 25.5473 38.1038 25.1898 37.9517C24.8751 37.6846 24.7737 37.4152 24.707 37.0117C24.6829 36.6188 24.682 36.2251 24.6803 35.8315C24.6714 35.2389 24.6714 35.2389 24.3652 34.7559C24.1287 34.5318 23.9212 34.4424 23.6133 34.3457C23.6129 34.4058 23.6125 34.4659 23.612 34.5278C23.6081 35.0989 23.6031 35.6699 23.5971 36.241C23.5941 36.5345 23.5914 36.8279 23.5896 37.1214C23.5878 37.4055 23.585 37.6896 23.5816 37.9737C23.5805 38.0812 23.5797 38.1887 23.5792 38.2961C23.5723 39.8701 23.228 41.1343 22.1777 42.3438C22.2856 42.6052 22.4508 42.7701 22.65 42.9683C22.684 43.0023 22.718 43.0364 22.7531 43.0714C22.8652 43.1835 22.9778 43.295 23.0904 43.4065C23.1684 43.4843 23.2464 43.5621 23.3243 43.6399C23.5292 43.8442 23.7345 44.0482 23.9399 44.2521C24.1496 44.4604 24.3589 44.669 24.5681 44.8776C24.9786 45.2866 25.3896 45.6952 25.8008 46.1035C26.0388 45.9877 26.2539 45.8509 26.4758 45.7062C27.0281 45.3592 27.6183 45.1671 28.2403 44.9831C28.2962 44.9662 28.3521 44.9494 28.4097 44.932C28.5173 44.8997 28.6252 44.8685 28.7334 44.8384C29.6982 44.5514 30.3417 43.9384 31.0313 43.2426C31.1236 43.1505 31.2159 43.0586 31.3083 42.9666C31.5002 42.7752 31.6916 42.5831 31.8825 42.3906C32.1273 42.1438 32.3736 41.8986 32.6204 41.6539C32.8107 41.4649 33.0001 41.275 33.1893 41.0849C33.2799 40.9941 33.3707 40.9036 33.4618 40.8133C33.5884 40.6875 33.7139 40.5607 33.8392 40.4335C33.8769 40.3965 33.9146 40.3595 33.9534 40.3214C34.11 40.1604 34.2031 40.0561 34.2393 39.8311C34.2204 39.6687 34.2204 39.6687 34.0936 39.5453C33.9394 39.4545 33.9394 39.4545 33.7805 39.5117C33.539 39.638 33.3679 39.8124 33.1812 40.0067C33.1428 40.0457 33.1045 40.0846 33.065 40.1247C32.9431 40.2487 32.8219 40.3733 32.7008 40.4981C32.5794 40.6228 32.4578 40.7473 32.3358 40.8714C32.26 40.9485 32.1846 41.026 32.1096 41.1038C31.7752 41.4447 31.7752 41.4447 31.5429 41.5235C31.2897 41.5146 31.127 41.5059 30.9277 41.344C30.8225 41.0943 30.8498 40.9629 30.9277 40.7031C31.2545 40.2485 31.6914 39.8688 32.0919 39.4801C32.2842 39.293 32.4753 39.1047 32.6666 38.9166C32.9088 38.6785 33.1513 38.4409 33.3953 38.2047C33.5939 38.0124 33.791 37.8189 33.9874 37.6244C34.0621 37.5508 34.1373 37.4777 34.213 37.4052C34.3186 37.3039 34.4223 37.2011 34.5258 37.0977C34.5852 37.0397 34.6446 36.9817 34.7059 36.9219C34.8474 36.7392 34.8474 36.7392 34.8215 36.4851C34.7769 36.242 34.7769 36.242 34.5508 36.1231C34.3286 36.089 34.241 36.0995 34.0581 36.2337C33.9821 36.3114 33.9821 36.3114 33.9047 36.3907C33.8177 36.4783 33.8177 36.4783 33.7291 36.5677C33.6674 36.6316 33.6057 36.6955 33.5422 36.7613C33.4775 36.8269 33.4128 36.8925 33.3479 36.958C33.1775 37.1305 33.008 37.304 32.8388 37.4777C32.568 37.7555 32.2958 38.032 32.0234 38.3083C31.9285 38.4048 31.8342 38.5018 31.7399 38.5989C31.6533 38.6871 31.6533 38.6871 31.565 38.7772C31.5144 38.8291 31.4638 38.881 31.4117 38.9345C31.1849 39.1387 31.0605 39.2004 30.7525 39.195C30.5176 39.1309 30.5176 39.1309 30.3808 38.9813C30.2918 38.731 30.2917 38.6314 30.3808 38.3789C30.7189 37.9238 31.151 37.5364 31.5556 37.1411C31.7513 36.9496 31.9459 36.7571 32.1407 36.5647C32.3874 36.3213 32.6344 36.0782 32.8824 35.8361C33.0842 35.6392 33.285 35.4412 33.4851 35.2425C33.5613 35.1673 33.6378 35.0925 33.7146 35.018C33.8218 34.9142 33.9276 34.8091 34.0332 34.7036C34.0937 34.6443 34.1542 34.5849 34.2165 34.5237C34.3732 34.3077 34.3815 34.1969 34.3457 33.9356C34.2445 33.7603 34.2445 33.7603 34.0722 33.6621C33.693 33.6708 33.505 33.8404 33.2537 34.1011C33.2152 34.1397 33.1767 34.1783 33.137 34.218C33.0104 34.3452 32.885 34.4736 32.7595 34.6021C32.6716 34.6908 32.5836 34.7794 32.4956 34.868C32.2643 35.101 32.034 35.3349 31.8039 35.5691C31.479 35.8996 31.1527 36.2286 30.8266 36.5579C30.653 36.7332 30.4797 36.9089 30.3067 37.0848C30.2279 37.1648 30.149 37.2447 30.0702 37.3247C30.0343 37.3614 29.9983 37.3981 29.9613 37.436C29.7429 37.6571 29.6445 37.7559 29.3298 37.785C29.082 37.7637 29.082 37.7637 28.9154 37.6569C28.7606 37.4154 28.7567 37.2946 28.8086 37.0117C29.1209 36.5718 29.5461 36.1997 29.9296 35.8229C30.0523 35.7014 30.1751 35.5798 30.2978 35.4582C30.4897 35.2683 30.6819 35.0786 30.8743 34.8893C31.0612 34.7054 31.2474 34.5208 31.4335 34.3361C31.4914 34.2794 31.5494 34.2227 31.6091 34.1643C31.6623 34.1114 31.7155 34.0584 31.7703 34.0039C31.8173 33.9575 31.8642 33.9112 31.9126 33.8635C32.0282 33.7223 32.071 33.6375 32.0898 33.457C32.0207 33.2678 32.0207 33.2678 31.8847 33.1152C31.6475 33.0347 31.6475 33.0347 31.4204 33.1144ZM20.5719 42.7797C20.5293 42.8226 20.4867 42.8656 20.4428 42.9099C20.3738 42.9793 20.3738 42.9793 20.3033 43.0501C20.255 43.099 20.2066 43.1479 20.1568 43.1983C20.1082 43.2472 20.0596 43.2961 20.0096 43.3465C19.889 43.4678 19.7687 43.5893 19.6484 43.711C19.7363 43.904 19.828 44.0443 19.978 44.1937C20.0173 44.2332 20.0566 44.2727 20.0971 44.3134C20.1401 44.3559 20.1831 44.3984 20.2274 44.4421C20.2954 44.5102 20.2954 44.5102 20.3648 44.5797C20.5147 44.7294 20.665 44.8787 20.8153 45.0279C20.9194 45.1317 21.0234 45.2356 21.1274 45.3394C21.4011 45.6126 21.6752 45.8853 21.9494 46.158C22.2291 46.4364 22.5085 46.7151 22.7879 46.9938C23.3361 47.5405 23.8847 48.0868 24.4336 48.6328C24.6322 48.5374 24.7734 48.4462 24.9281 48.2884C24.9673 48.2487 25.0065 48.2091 25.0469 48.1682C25.087 48.127 25.1271 48.0857 25.1684 48.0432C25.2096 48.0015 25.2507 47.9597 25.2931 47.9167C25.3943 47.8139 25.495 47.7107 25.5957 47.6074C25.3215 47.2789 25.0352 46.9687 24.7322 46.6667C24.6889 46.6233 24.6456 46.5799 24.601 46.5352C24.4594 46.3933 24.3177 46.2518 24.1759 46.1102C24.077 46.0113 23.9781 45.9123 23.8793 45.8134C23.6729 45.607 23.4665 45.4006 23.2599 45.1944C22.9946 44.9294 22.7295 44.6642 22.4645 44.3988C22.2609 44.1949 22.0571 43.9912 21.8532 43.7875C21.7553 43.6896 21.6575 43.5918 21.5597 43.4938C21.4238 43.3577 21.2876 43.2217 21.1513 43.0859C21.1106 43.0451 21.07 43.0043 21.0281 42.9622C20.8199 42.6902 20.8199 42.6902 20.5719 42.7797Z" fill="#05C7F2"/>
</g>
<defs>
<clipPath id="clip0_5371_19476">
<rect width="35" height="35" fill="white" transform="translate(15 15)"/>
</clipPath>
</defs>
</svg>
