<svg width="65" height="65" viewBox="0 0 65 65" fill="none" xmlns="http://www.w3.org/2000/svg">
<path d="M31.731 16.8978C31.7862 16.8971 31.8415 16.8964 31.8983 16.8957C33.679 16.8786 35.3111 17.0391 37.0118 17.5977C37.0599 17.6133 37.108 17.629 37.1576 17.6451C39.615 18.4623 41.8382 20.0851 43.4376 22.1094C43.5189 22.2082 43.5189 22.2082 43.6018 22.3091C45.5321 24.712 46.4798 27.783 46.4668 30.838C46.4666 30.9287 46.4666 30.9287 46.4664 31.0211C46.4633 31.894 46.4371 32.74 46.2403 33.5938C46.2282 33.6493 46.2161 33.7048 46.2037 33.7619C45.9725 34.8116 45.6289 35.8156 45.2149 36.8066C45.2488 36.84 45.2828 36.8733 45.3177 36.9076C46.034 37.6551 46.4331 38.6029 46.471 39.6393C46.4319 40.7616 46.0117 41.6448 45.2833 42.4805C45.3592 42.5081 45.3592 42.5081 45.4366 42.5363C46.4954 42.9907 47.2967 44.1209 47.7351 45.1473C47.9725 45.7734 48.111 46.363 48.1245 47.0306C48.1263 47.0819 48.1281 47.1331 48.13 47.1859C48.1281 47.4606 48.0964 47.6277 47.9213 47.8443C47.6363 48.1232 47.4149 48.0972 47.0337 48.0991C46.9744 48.0997 46.915 48.1002 46.8538 48.1008C46.6568 48.1025 46.4598 48.1036 46.2627 48.1046C46.1955 48.105 46.1283 48.1054 46.059 48.1057C45.703 48.1076 45.3471 48.1089 44.9912 48.1099C44.6235 48.111 44.2559 48.1141 43.8883 48.1176C43.6056 48.1199 43.3229 48.1206 43.0403 48.121C42.9047 48.1215 42.7692 48.1225 42.6337 48.1242C42.4439 48.1263 42.2542 48.1263 42.0643 48.1258C42.0085 48.1269 41.9526 48.1281 41.8951 48.1292C41.6134 48.1262 41.4391 48.1011 41.2163 47.9211C40.9532 47.6493 40.9499 47.4655 40.9521 47.0982C40.9917 46.8173 41.1133 46.7042 41.3184 46.5137C41.5181 46.4138 41.6933 46.4372 41.9162 46.4376C41.9873 46.4375 41.9873 46.4375 42.0597 46.4375C42.2166 46.4376 42.3734 46.4381 42.5302 46.4386C42.6388 46.4388 42.7475 46.4389 42.8561 46.4389C43.1422 46.4392 43.4283 46.4399 43.7144 46.4406C44.0063 46.4413 44.2982 46.4416 44.5901 46.442C45.1629 46.4427 45.7358 46.4439 46.3087 46.4453C46.2468 46.2832 46.1842 46.1215 46.1212 45.9599C46.104 45.9146 46.0868 45.8693 46.0691 45.8227C45.725 44.9456 45.0801 44.2703 44.2226 43.873C43.2736 43.4996 42.2192 43.4019 41.2429 43.7566C40.9016 43.9136 40.5961 44.1051 40.293 44.3262C40.2268 44.3723 40.2268 44.3723 40.1593 44.4194C39.7716 44.7161 39.4748 45.1171 39.2677 45.5566C39.2467 45.747 39.2667 45.8972 39.3002 46.0854C39.3481 46.3839 39.3566 46.6774 39.3617 46.9794C39.3642 47.0349 39.3668 47.0905 39.3694 47.1478C39.3737 47.4363 39.3574 47.6189 39.1721 47.8475C38.9019 48.1058 38.7186 48.0962 38.3611 48.0965C38.3094 48.0968 38.2576 48.0971 38.2043 48.0974C38.03 48.0983 37.8556 48.0987 37.6813 48.0991C37.5567 48.0997 37.4321 48.1002 37.3074 48.1008C36.8974 48.1026 36.4873 48.1037 36.0772 48.1046C35.9361 48.105 35.7951 48.1054 35.654 48.1057C35.0674 48.1072 34.4807 48.1085 33.8941 48.1093C33.0528 48.1104 32.2114 48.1126 31.3701 48.1165C30.7789 48.1192 30.1876 48.1205 29.5964 48.1209C29.2431 48.1211 28.8899 48.122 28.5366 48.1242C28.2042 48.1262 27.8718 48.1267 27.5394 48.1259C27.4175 48.1258 27.2955 48.1264 27.1735 48.1276C27.0069 48.1292 26.8404 48.1286 26.6738 48.1275C26.6256 48.1285 26.5774 48.1294 26.5277 48.1304C26.1468 48.1243 25.991 48.0037 25.7325 47.7441C25.6167 47.5126 25.6544 47.2509 25.6556 46.9965C25.6553 46.908 25.6553 46.908 25.6549 46.8178C25.6556 46.5023 25.6748 46.2059 25.7282 45.8942C25.7633 45.5897 25.6874 45.4403 25.5146 45.1892C25.4297 45.0823 25.3427 44.9769 25.254 44.8731C25.212 44.8166 25.1701 44.7601 25.1269 44.7019C24.606 44.0945 23.7251 43.6302 22.924 43.5621C21.8132 43.5315 20.9799 43.6561 20.0587 44.3262C20.0153 44.3553 19.972 44.3845 19.9273 44.4146C19.6432 44.6264 19.4534 44.9002 19.2597 45.1935C19.2345 45.2312 19.2093 45.2689 19.1833 45.3078C19.026 45.5572 18.918 45.8082 18.8192 46.0861C18.7831 46.1872 18.7831 46.1872 18.7462 46.2903C18.7282 46.3414 18.7101 46.3926 18.6915 46.4453C18.7514 46.4446 18.8113 46.4438 18.873 46.443C19.4382 46.4362 20.0034 46.431 20.5687 46.4276C20.8593 46.4258 21.1498 46.4234 21.4404 46.4195C21.721 46.4158 22.0015 46.4138 22.2821 46.4129C22.389 46.4123 22.4959 46.411 22.6028 46.4092C22.7529 46.4067 22.9028 46.4064 23.0529 46.4065C23.1809 46.4054 23.1809 46.4054 23.3114 46.4042C23.6221 46.4589 23.7329 46.5668 23.9552 46.7871C24.0825 47.0417 24.0626 47.3302 24.0235 47.6074C23.9092 47.8211 23.7647 47.9761 23.545 48.0859C23.3532 48.0941 23.1631 48.0981 22.9712 48.0991C22.9119 48.0997 22.8525 48.1002 22.7913 48.1008C22.5943 48.1025 22.3973 48.1036 22.2002 48.1046C22.133 48.105 22.0658 48.1054 21.9965 48.1057C21.6405 48.1076 21.2846 48.1089 20.9287 48.1099C20.561 48.111 20.1934 48.1141 19.8258 48.1176C19.5431 48.1199 19.2604 48.1206 18.9778 48.121C18.8422 48.1215 18.7067 48.1225 18.5712 48.1242C18.3814 48.1263 18.1917 48.1263 18.0018 48.1258C17.946 48.1269 17.8901 48.1281 17.8326 48.1292C17.5509 48.1262 17.3766 48.1011 17.1538 47.9211C16.8492 47.6065 16.8928 47.2953 16.8928 46.8801C16.9135 45.6803 17.4335 44.5427 18.213 43.6426C18.2528 43.5889 18.2926 43.5353 18.3337 43.48C18.5234 43.2574 18.7346 43.0865 18.9649 42.9077C19.0281 42.8571 19.0281 42.8571 19.0926 42.8054C19.1336 42.7733 19.1747 42.7411 19.217 42.708C19.2539 42.679 19.2908 42.65 19.3289 42.6202C19.4565 42.5407 19.5701 42.5095 19.7169 42.4805C19.6562 42.4035 19.6562 42.4035 19.5943 42.3251C18.8969 41.4217 18.4168 40.449 18.5548 39.2676C18.7321 38.2795 19.0767 37.535 19.7852 36.8066C19.7708 36.7707 19.7564 36.7347 19.7415 36.6976C19.0933 35.0689 18.5511 33.3882 18.5409 31.6188C18.5404 31.5629 18.5399 31.5069 18.5394 31.4493C18.5189 28.3796 19.1506 25.4815 20.9473 22.9297C20.992 22.8658 20.992 22.8658 21.0375 22.8006C23.2651 19.6415 26.5601 17.7291 30.3232 17.0129C30.7924 16.9394 31.2564 16.9026 31.731 16.8978ZM24.6387 21.4258C24.5446 21.5372 24.4524 21.6505 24.3653 21.7676C24.4058 21.7991 24.4462 21.8307 24.4879 21.8632C25.2693 22.5082 25.4788 23.3284 25.5835 24.313C25.5987 24.5469 25.5986 24.7792 25.5982 25.0136C25.5987 25.1541 25.5994 25.2945 25.6001 25.435C25.6001 25.5312 25.5992 25.6275 25.5974 25.7237C25.5666 26.2722 25.5666 26.2722 25.7732 26.7531C25.9159 26.8437 26.0527 26.9041 26.211 26.9629C26.2936 27.0063 26.3757 27.0508 26.4569 27.0967C26.5742 27.1595 26.5742 27.1595 26.6938 27.2235C27.2117 27.5113 27.5855 27.8302 27.7833 28.3984C27.8116 28.6613 27.806 28.9246 27.8046 29.1888C27.8044 29.2647 27.8041 29.3405 27.8038 29.4187C27.7895 30.4811 27.7436 32.0774 26.9331 32.8695C26.6305 33.1394 26.3222 33.3225 25.9547 33.4912C25.8981 33.5175 25.8416 33.5437 25.7833 33.5707C24.2369 34.2691 22.5452 34.5677 20.879 34.8242C20.9421 35.0055 21.0063 35.1862 21.0712 35.3668C21.0891 35.4184 21.1069 35.47 21.1253 35.5232C21.174 35.6571 21.2311 35.7879 21.2891 35.918C21.5234 35.996 21.5992 35.9671 21.836 35.918C23.0269 35.8501 24.0292 36.0784 24.972 36.8579C25.7279 37.5764 26.1293 38.5943 26.164 39.6265C26.1404 40.6134 25.8336 41.5272 25.1392 42.2396C25.034 42.338 25.034 42.338 25.0489 42.4805C25.1686 42.5644 25.2918 42.6432 25.4163 42.7197C25.855 43.0031 26.197 43.3268 26.5528 43.7109C26.7355 43.5342 26.896 43.3544 27.0484 43.1512C27.7344 42.2656 28.4847 41.61 29.4923 41.1133C29.4103 40.9364 29.3464 40.8307 29.206 40.6903C28.3871 39.8714 27.9017 38.8049 27.888 37.6413C27.8887 37.5731 27.8894 37.5049 27.8901 37.4347C27.8907 37.3629 27.8912 37.291 27.8918 37.217C27.9176 36.0263 28.3819 34.9321 29.2188 34.0723C30.1486 33.2494 31.2469 32.7992 32.4873 32.8119C32.595 32.8127 32.595 32.8127 32.705 32.8136C33.8956 32.8394 34.9899 33.3037 35.8497 34.1406C36.6726 35.0704 37.1228 36.1687 37.1101 37.4091C37.1095 37.4809 37.1089 37.5528 37.1083 37.6268C37.0822 38.8315 36.6078 39.8887 35.7813 40.7715C35.7308 40.8087 35.6803 40.8459 35.6283 40.8842C35.5886 40.9147 35.5488 40.9452 35.5079 40.9766C35.5079 41.0217 35.5079 41.0668 35.5079 41.1133C35.5659 41.1432 35.6239 41.1732 35.6836 41.2041C36.8132 41.8069 37.6805 42.6394 38.379 43.7109C38.4467 43.6531 38.5143 43.5953 38.5841 43.5358C38.6279 43.4984 38.6717 43.461 38.7168 43.4226C38.8094 43.3424 38.9011 43.2613 38.9918 43.179C39.2927 42.9073 39.6 42.6832 39.9513 42.4805C39.8605 42.2853 39.7571 42.1265 39.6223 41.9592C39.043 41.1907 38.7447 40.2333 38.8575 39.2676C39.041 38.2451 39.4081 37.3145 40.2685 36.6718C41.3386 35.9678 42.3813 35.7816 43.6427 35.9863C44.1269 35.0136 44.6129 33.8059 44.5997 32.7051C44.2425 32.53 43.8839 32.3584 43.5236 32.1898C43.4014 32.132 43.2796 32.0733 43.1583 32.0137C42.9834 31.9279 42.8071 31.8456 42.6304 31.7638C42.5767 31.7366 42.5231 31.7094 42.4678 31.6814C42.2321 31.5758 42.086 31.5144 41.835 31.5998C41.677 31.6862 41.5328 31.7795 41.3868 31.8848C41.3025 31.941 41.2181 31.9972 41.1337 32.0533C41.0528 32.1096 40.972 32.1659 40.8912 32.2223C40.1712 32.708 39.4852 33.1377 38.5841 32.9785C37.2938 32.579 36.3224 31.2284 35.7077 30.0942C35.2851 29.2675 35.1887 28.3515 35.4549 27.4602C35.6209 26.973 35.8312 26.5013 36.0358 26.0294C36.474 25.0131 36.277 24.3388 35.9325 23.3177C35.9111 23.2543 35.8897 23.1909 35.8677 23.1256C35.8252 23.0003 35.7822 22.8751 35.7386 22.75C35.3546 21.6294 35.533 20.7149 35.9876 19.6476C36.0698 19.4529 36.1231 19.3155 36.1231 19.1016C32.1051 18.1043 27.8561 18.6271 24.6387 21.4258ZM37.7638 19.7852C37.3428 20.5781 37.011 21.2375 37.2633 22.1383C37.3199 22.3039 37.3807 22.4672 37.4433 22.6306C38.0691 24.3512 38.0778 25.651 37.2971 27.3271C37.0836 27.7969 36.8999 28.2927 36.9731 28.815C37.3622 29.7477 38.042 30.8008 38.9259 31.3379C39.1994 31.3261 39.3808 31.2138 39.6052 31.0645C39.6708 31.0217 39.7365 30.979 39.8041 30.9349C39.9536 30.8351 40.1021 30.7342 40.2501 30.6321C40.8903 30.1963 41.5403 29.8248 42.3428 29.922C42.8009 30.0303 43.2235 30.2525 43.6469 30.4535C43.7927 30.5215 43.9386 30.5892 44.0845 30.6569C44.1747 30.6989 44.2648 30.7411 44.3547 30.7836C44.5379 30.8846 44.5379 30.8846 44.7364 30.9277C44.8683 27.5834 43.4402 24.6196 41.2164 22.1972C40.2381 21.182 39.0378 20.378 37.7638 19.7852ZM23.0665 22.998C22.9546 23.1251 22.852 23.2518 22.7503 23.3868C22.7046 23.4471 22.7046 23.4471 22.658 23.5086C22.3552 23.9141 22.0885 24.3369 21.836 24.7754C21.7911 24.8524 21.7461 24.9294 21.6998 25.0088C21.0525 26.1489 20.6465 27.3874 20.4005 28.6719C20.3877 28.7366 20.3749 28.8012 20.3617 28.8679C20.2558 29.4653 20.2427 30.051 20.2459 30.6557C20.2467 30.8205 20.2459 30.9852 20.2451 31.15C20.2127 32.1954 20.2127 32.1954 20.4688 33.1836C22.1879 32.989 24.3484 32.7311 25.7792 31.6621C25.9143 31.4833 25.9373 31.3042 25.9803 31.0858C25.9967 31.0052 26.0131 30.9246 26.03 30.8415C26.1151 30.3506 26.1522 29.8868 26.1469 29.3897C26.1466 29.3334 26.1463 29.2772 26.146 29.2193C26.1452 29.0824 26.144 28.9455 26.1427 28.8086C26.0651 28.7689 25.9876 28.7293 25.9077 28.6884C24.3611 27.8901 24.3611 27.8901 24.0919 27.168C24.0391 26.8531 24.0134 26.5467 24.0067 26.2278C24.0044 26.1411 24.0022 26.0544 23.9999 25.9651C23.9957 25.7862 23.9918 25.6073 23.9881 25.4284C24.0075 24.2737 24.0075 24.2737 23.545 23.2715C23.3361 23.0623 23.3361 23.0623 23.0665 22.998ZM30.1737 35.5318C29.5984 36.2997 29.4448 37.0966 29.5606 38.0371C29.7519 38.8712 30.237 39.5279 30.9548 39.9872C31.7108 40.4145 32.5227 40.4973 33.3679 40.3034C34.2448 39.9976 34.8225 39.4283 35.2561 38.6216C35.5653 37.918 35.5536 37.0475 35.3028 36.3281C34.9359 35.512 34.342 34.9481 33.5255 34.5892C32.3005 34.1902 31.0115 34.562 30.1737 35.5318ZM20.6739 38.3789C20.3441 38.8973 20.167 39.4347 20.3001 40.051C20.4905 40.7404 20.8781 41.2222 21.4854 41.6038C21.9728 41.825 22.645 41.8159 23.1519 41.6644C23.7141 41.4057 24.1223 40.939 24.3763 40.3859C24.5802 39.813 24.5278 39.2756 24.297 38.7207C23.9823 38.1669 23.499 37.7665 22.8849 37.5909C22.0236 37.4172 21.2416 37.712 20.6739 38.3789ZM40.9083 38.3789C40.5785 38.8973 40.4014 39.4347 40.5344 40.051C40.7249 40.7404 41.1125 41.2222 41.7198 41.6038C42.2072 41.825 42.8794 41.8159 43.3863 41.6644C43.9485 41.4057 44.3567 40.939 44.6106 40.3859C44.8146 39.813 44.7622 39.2756 44.5313 38.7207C44.2167 38.1669 43.7334 37.7665 43.1193 37.5909C42.2579 37.4172 41.476 37.712 40.9083 38.3789ZM28.7857 43.6589C28.0447 44.4315 27.5594 45.3843 27.4415 46.4453C30.7802 46.4453 34.1188 46.4453 37.5587 46.4453C37.421 45.2062 36.7701 44.082 35.8116 43.2801C33.6311 41.5721 30.7734 41.7543 28.7857 43.6589Z" fill="#05C7F2"/>
<path d="M32.6378 21.5083C32.8247 21.6582 33.0052 21.8127 33.1836 21.9727C33.2285 22.012 33.2735 22.0513 33.3198 22.0918C33.9123 22.6422 34.3286 23.3701 34.3756 24.1858C34.3341 25.2113 33.6866 26.0808 33.0469 26.8262C32.9933 26.8967 32.9397 26.9672 32.8845 27.0398C32.3342 27.6425 31.5488 28.3336 30.7077 28.4214C30.1059 28.4286 29.8348 28.3269 29.4038 27.9114C29.1466 27.653 28.9435 27.3743 28.7445 27.0697C28.7093 27.0162 28.6741 26.9626 28.6378 26.9074C27.9137 25.786 27.173 24.3916 27.4045 23.016C27.5176 22.5457 27.7129 22.1633 27.9883 21.7676C28.0176 21.7248 28.0469 21.6819 28.0772 21.6378C29.2718 20.0802 31.2384 20.4841 32.6378 21.5083ZM29.2572 22.9169C29.0045 23.4323 29.072 23.854 29.2534 24.3882C29.5623 25.1467 29.9643 25.9419 30.5176 26.5528C30.6191 26.5866 30.6191 26.5866 30.7226 26.6211C31.5471 26.1256 32.3196 25.2069 32.6367 24.2969C32.6367 23.8687 32.2859 23.5421 32.0078 23.2507C31.5188 22.7829 30.9153 22.3784 30.2313 22.2846C29.7936 22.3348 29.5384 22.5925 29.2572 22.9169Z" fill="#05C7F2"/>
</svg>
