<svg width="65" height="65" viewBox="0 0 65 65" fill="none" xmlns="http://www.w3.org/2000/svg">
<g clip-path="url(#clip0_5475_1768)">
<path d="M36.9737 22.1137C37.0781 22.2028 37.1821 22.2925 37.2856 22.3828C37.3348 22.4215 37.3841 22.4602 37.4348 22.5001C38.4182 23.3011 39.0938 24.4908 39.4987 25.6769C39.515 25.7247 39.5314 25.7726 39.5482 25.8219C39.7686 26.5115 39.8353 27.2048 39.8336 27.9256C39.8342 28.0427 39.8342 28.0427 39.8347 28.1621C39.8356 28.4172 39.8356 28.6723 39.8354 28.9274C39.8357 29.106 39.836 29.2845 39.8363 29.463C39.8369 29.8359 39.8368 30.2087 39.8364 30.5816C39.836 31.0116 39.8369 31.4416 39.8383 31.8716C39.8397 32.2872 39.8399 32.7028 39.8396 33.1184C39.8397 33.2945 39.84 33.4706 39.8407 33.6466C39.8416 33.8925 39.8411 34.1384 39.8403 34.3843C39.8408 34.4567 39.8414 34.5291 39.8419 34.6037C39.8374 35.2323 39.6797 35.6078 39.2522 36.0731C38.9905 36.3291 38.7239 36.4621 38.3578 36.467C38.3006 36.4647 38.2433 36.4624 38.1844 36.4601C37.4515 36.4274 37.4515 36.4274 36.79 36.6833C36.6248 36.8729 36.6248 36.8729 36.4818 37.0796C36.3067 37.3144 36.1202 37.4663 35.8842 37.6355C35.7816 37.7098 35.7816 37.7098 35.677 37.7856C35.5082 37.9004 35.5082 37.9004 35.3715 37.9688C35.3269 38.1072 35.3269 38.1072 35.3031 38.2422C35.3484 38.2456 35.3937 38.2491 35.4403 38.2526C35.9097 38.2913 36.369 38.3563 36.8324 38.4398C36.9037 38.4526 36.9751 38.4653 37.0486 38.4784C37.1984 38.5054 37.3481 38.5325 37.4979 38.5598C37.7246 38.6009 37.9516 38.6407 38.1786 38.6804C39.5865 38.9327 40.7552 39.316 41.6606 40.4981C42.2002 41.3552 42.4622 42.3638 42.774 43.3191C42.8338 43.5015 42.8942 43.6837 42.9547 43.8658C43.0269 44.0836 43.0988 44.3016 43.1706 44.5195C43.1975 44.601 43.2244 44.6826 43.2522 44.7666C43.2766 44.8415 43.3011 44.9164 43.3263 44.9936C43.3479 45.0596 43.3695 45.1256 43.3918 45.1937C43.4379 45.3516 43.4379 45.3516 43.4379 45.4883C37.5163 45.5221 37.5163 45.5221 31.475 45.5567C31.7006 45.7822 31.9262 46.0078 32.1586 46.2403C32.0823 46.5453 32.0306 46.5905 31.7997 46.7871C31.5161 47.0335 31.2374 47.2833 30.9623 47.5391C30.6446 47.8333 30.3252 48.1253 30.0015 48.4131C29.8853 48.5183 29.7712 48.6259 29.6587 48.7351C28.7053 49.6482 27.7491 50.0366 26.4301 50.0287C25.1157 49.9938 24.2025 49.3432 23.3084 48.439C23.2268 48.3578 23.1452 48.2767 23.0635 48.1956C22.8438 47.9772 22.6252 47.7577 22.4068 47.538C22.1771 47.3071 21.9465 47.0772 21.7161 46.847C21.3294 46.4607 20.9435 46.0738 20.558 45.6864C20.1135 45.2396 19.6679 44.794 19.2216 44.3489C18.7907 43.9191 18.3606 43.4885 17.9308 43.0576C17.7487 42.8749 17.5662 42.6926 17.3835 42.5104C17.1682 42.2956 16.9536 42.0801 16.7395 41.8642C16.6612 41.7854 16.5826 41.7069 16.5039 41.6286C15.7495 40.8784 15.0598 39.9662 15.0004 38.8574C14.9962 38.7955 14.9919 38.7335 14.9876 38.6697C14.9423 37.5128 15.3134 36.5103 16.0927 35.6571C16.5603 35.1593 17.0498 34.682 17.534 34.2005C17.6465 34.0883 17.7589 33.9762 17.8714 33.864C18.1447 33.5914 18.4182 33.3191 18.6918 33.0469C19.1719 33.4393 19.6026 33.8807 20.0395 34.3196C20.1231 34.4033 20.2067 34.487 20.2903 34.5707C20.5091 34.7897 20.7276 35.0089 20.9461 35.2281C21.1696 35.4523 21.3933 35.6763 21.617 35.9004C22.0549 36.339 22.4926 36.7778 22.9301 37.2168C22.8397 37.4179 22.7433 37.556 22.5844 37.7082C22.5422 37.7491 22.5 37.79 22.4565 37.8321C22.3884 37.8972 22.3884 37.8972 22.3189 37.9637C22.223 38.0572 22.1272 38.1507 22.0314 38.2442C21.8805 38.3909 21.7292 38.5373 21.5773 38.6829C21.4305 38.8239 21.285 38.9662 21.1397 39.1087C21.0941 39.1517 21.0485 39.1948 21.0016 39.2391C20.7904 39.4479 20.6848 39.5735 20.5992 39.8639C20.6065 40.1098 20.6238 40.1741 20.7941 40.3443C20.8606 40.4127 20.8606 40.4127 20.9285 40.4826C20.9799 40.5328 21.0314 40.583 21.0844 40.6348C21.1419 40.6935 21.1995 40.7522 21.2587 40.8126C21.4484 41.0055 21.6399 41.1963 21.8321 41.3867C21.8991 41.4534 21.966 41.5201 22.033 41.5867C22.1952 41.7481 22.3575 41.9093 22.5199 42.0703C22.5424 42.0156 22.5649 41.9608 22.5881 41.9044C22.6181 41.8317 22.6481 41.7591 22.6791 41.6842C22.7086 41.6125 22.7382 41.5409 22.7686 41.467C23.2425 40.3628 23.9915 39.5165 25.1176 39.0625C25.9163 38.8266 26.7377 38.6817 27.5564 38.5348C27.7601 38.4982 27.9637 38.4607 28.1673 38.4233C28.2981 38.3995 28.4288 38.3759 28.5596 38.3522C28.6198 38.3411 28.6801 38.33 28.7422 38.3186C29.042 38.2653 29.3232 38.2294 29.6293 38.2422C29.6047 38.0649 29.5853 37.9885 29.4437 37.874C29.3936 37.8446 29.3434 37.8153 29.2918 37.7851C28.0638 37.0073 27.2165 35.7588 26.8949 34.3457C26.8949 34.278 26.8949 34.2104 26.8949 34.1406C26.8399 34.1364 26.785 34.1322 26.7283 34.1278C26.1841 34.0037 25.7702 33.7135 25.4594 33.252C25.2161 32.8286 25.1073 32.4816 25.1066 31.991C25.1062 31.9393 25.1059 31.8875 25.1055 31.8343C25.1045 31.6628 25.1041 31.4913 25.1037 31.3198C25.1033 31.1999 25.1029 31.08 25.1025 30.9602C25.1018 30.7082 25.1014 30.4563 25.1012 30.2044C25.1008 29.8842 25.0992 29.5641 25.0972 29.244C25.0959 28.9959 25.0956 28.7478 25.0955 28.4997C25.0953 28.3819 25.0947 28.264 25.0938 28.1462C25.0871 27.2009 25.179 26.3164 25.5064 25.4206C25.5239 25.3724 25.5413 25.3242 25.5593 25.2745C26.2677 23.399 27.7554 21.9693 29.561 21.1524C31.978 20.1196 34.9079 20.491 36.9737 22.1137ZM28.5356 23.2031C28.4833 23.2443 28.4311 23.2854 28.3772 23.3278C27.1881 24.3143 26.4441 25.8498 26.2797 27.3731C26.2589 27.8114 26.2667 28.2504 26.2712 28.689C26.2718 28.8071 26.2725 28.9252 26.273 29.0433C26.2745 29.3297 26.2769 29.616 26.2797 29.9024C26.5166 29.8347 26.5166 29.8347 26.7582 29.7656C26.7582 29.5401 26.7582 29.3145 26.7582 29.0821C26.8344 29.0844 26.9105 29.0868 26.9889 29.0893C28.7877 29.1286 30.3273 28.5995 31.6801 27.3731C31.861 27.1881 32.0396 27.002 32.2139 26.8107C32.2633 26.7707 32.3128 26.7307 32.3637 26.6895C32.6801 26.7257 32.837 26.9466 33.043 27.168C34.0891 28.2472 35.5599 29.0329 37.0903 29.0873C37.2452 29.0887 37.3999 29.088 37.5547 29.0863C37.6346 29.0859 37.6346 29.0859 37.7161 29.0854C37.8461 29.0846 37.976 29.0834 38.1059 29.0821C38.1059 29.2851 38.1059 29.4881 38.1059 29.6973C38.3659 29.8478 38.3659 29.8478 38.6527 29.9024C38.6562 29.5889 38.6586 29.2754 38.6603 28.9619C38.6609 28.8557 38.6619 28.7495 38.6631 28.6434C38.6849 26.6551 38.17 24.9865 36.76 23.5321C35.5502 22.3285 33.9585 21.8146 32.2821 21.8146C30.8783 21.8324 29.6235 22.3091 28.5356 23.2031ZM32.432 28.2617C32.4037 28.2891 32.3753 28.3165 32.3461 28.3448C31.1118 29.4835 29.6198 29.9839 27.9887 30.2442C27.9834 30.7147 27.9799 31.1851 27.9774 31.6557C27.9764 31.8154 27.975 31.9751 27.9732 32.1348C27.9556 33.7525 28.1111 35.0361 29.2875 36.2598C30.1542 37.1061 31.2493 37.5409 32.4577 37.5885C33.4957 37.5582 34.5645 37.2035 35.3031 36.4649C34.3557 36.4649 33.4082 36.4649 32.432 36.4649C32.432 36.0814 32.432 35.6979 32.432 35.3028C33.7179 35.3028 35.0037 35.3028 36.3285 35.3028C36.9444 34.0711 36.9718 33.1974 36.9566 31.8634C36.9555 31.7061 36.9546 31.5488 36.9538 31.3914C36.9515 31.009 36.9481 30.6266 36.9438 30.2442C36.9033 30.2369 36.8629 30.2296 36.8212 30.2221C36.6348 30.1883 36.4486 30.1539 36.2623 30.1195C36.1987 30.108 36.1351 30.0966 36.0696 30.0848C34.7975 29.8478 33.7152 29.2623 32.7055 28.4668C32.6145 28.3982 32.5235 28.3297 32.432 28.2617ZM26.519 31.2268C26.2905 31.5071 26.2596 31.8043 26.2797 32.1582C26.3921 32.4835 26.4758 32.5616 26.7582 32.7735C26.7582 32.2095 26.7582 31.6455 26.7582 31.0645C26.6588 31.0566 26.6588 31.0566 26.519 31.2268ZM38.1059 31.0645C38.1059 31.651 38.1059 32.2375 38.1059 32.8418C38.5239 32.5241 38.5239 32.5241 38.6527 32.0899C38.6582 31.7011 38.5634 31.4372 38.3109 31.1328C38.2433 31.1103 38.1756 31.0877 38.1059 31.0645ZM38.0375 34.1406C37.8732 34.488 37.6957 34.9138 37.6957 35.3028C38.0924 35.3359 38.0924 35.3359 38.4434 35.1746C38.6877 34.9228 38.6602 34.7502 38.657 34.4055C38.6564 34.3179 38.6558 34.2304 38.6551 34.1401C38.6544 34.0726 38.6536 34.0051 38.6527 33.9356C38.3995 33.9356 38.2296 33.9875 38.0375 34.1406ZM18.5805 34.8606C18.5368 34.905 18.4932 34.9494 18.4483 34.9951C18.4045 35.0395 18.3607 35.084 18.3156 35.1297C18.2818 35.1643 18.2481 35.1988 18.2133 35.2344C18.3074 35.4457 18.4151 35.5896 18.5789 35.7522C18.6254 35.7987 18.6719 35.8453 18.7199 35.8932C18.77 35.9426 18.8201 35.992 18.8718 36.043C18.9232 36.0942 18.9746 36.1454 19.0275 36.1981C19.1916 36.3614 19.3561 36.5242 19.5207 36.687C19.632 36.7977 19.7434 36.9085 19.8547 37.0192C20.1275 37.2905 20.4007 37.5614 20.6742 37.8321C20.7548 37.7704 20.8344 37.7075 20.9135 37.6441C20.9579 37.6092 21.0023 37.5743 21.0481 37.5383C21.1832 37.4141 21.1832 37.4141 21.1527 37.1485C21.0628 37.0184 21.0628 37.0184 20.9342 36.8978C20.8865 36.8499 20.8388 36.802 20.7897 36.7527C20.7376 36.7018 20.6855 36.6508 20.6318 36.5984C20.5788 36.5457 20.5259 36.4929 20.4713 36.4386C20.3593 36.3273 20.2469 36.2163 20.1343 36.1056C19.9611 35.9354 19.7888 35.7643 19.6167 35.593C19.5079 35.4852 19.3991 35.3774 19.2902 35.2696C19.2382 35.2182 19.1863 35.1667 19.1327 35.1137C19.0848 35.0666 19.0369 35.0196 18.9876 34.9712C18.9452 34.9295 18.9029 34.8878 18.8592 34.8449C18.7178 34.7178 18.7212 34.7282 18.5805 34.8606ZM17.0341 36.3922C16.7688 36.6619 16.5987 36.9459 16.436 37.2852C16.3951 37.3641 16.3542 37.4431 16.312 37.5244C16.0983 38.1374 16.147 38.9817 16.4123 39.5696C16.7329 40.1845 17.2654 40.6653 17.7499 41.1515C17.8265 41.2289 17.9032 41.3064 17.9798 41.3838C18.1865 41.5926 18.3937 41.801 18.6011 42.0092C18.731 42.1397 18.8608 42.2702 18.9907 42.4008C19.3981 42.8105 19.8059 43.2199 20.214 43.6288C20.683 44.0988 21.151 44.5698 21.6181 45.0416C21.9807 45.4078 22.3443 45.7731 22.7086 46.1377C22.9254 46.3548 23.1419 46.5722 23.3574 46.7907C23.5603 46.9963 23.7644 47.2008 23.9693 47.4044C24.0437 47.4788 24.1177 47.5535 24.1913 47.6287C24.8641 48.3155 25.6069 48.8391 26.6001 48.855C27.3868 48.8454 28.0855 48.5492 28.6466 47.992C28.7002 47.9327 28.7538 47.8735 28.809 47.8125C28.7149 47.6012 28.6072 47.4573 28.4434 47.2947C28.3969 47.2482 28.3504 47.2017 28.3024 47.1537C28.2523 47.1043 28.2022 47.0549 28.1505 47.004C28.0991 46.9528 28.0477 46.9016 27.9948 46.8488C27.8307 46.6855 27.6662 46.5227 27.5016 46.3599C27.3902 46.2492 27.2789 46.1385 27.1676 46.0277C26.8948 45.7564 26.6216 45.4855 26.3481 45.2149C26.3068 45.2387 26.2656 45.2626 26.2231 45.2872C26.1685 45.3183 26.1138 45.3494 26.0575 45.3815C26.0036 45.4124 25.9497 45.4433 25.8941 45.4752C25.4591 45.6949 24.9341 45.6982 24.4744 45.5472C23.9083 45.3079 23.5018 44.8171 23.078 44.3871C22.9816 44.2906 22.8852 44.1942 22.7887 44.0979C22.5873 43.8965 22.3866 43.6944 22.1864 43.4918C21.9306 43.2329 21.6733 42.9755 21.4155 42.7186C21.2164 42.52 21.018 42.3207 20.8198 42.1211C20.7252 42.026 20.6304 41.931 20.5354 41.8363C20.4026 41.7035 20.2707 41.5698 20.139 41.4359C20.1002 41.3974 20.0613 41.3589 20.0213 41.3192C19.6197 40.9069 19.4047 40.5023 19.4096 39.917C19.42 39.4824 19.4951 39.2253 19.7172 38.8574C19.7441 38.5953 19.7441 38.5953 19.6268 38.4603C19.5845 38.4184 19.5422 38.3765 19.4987 38.3333C19.451 38.2854 19.4033 38.2376 19.3542 38.1882C19.302 38.1373 19.2499 38.0864 19.1962 38.0339C19.1433 37.9812 19.0903 37.9285 19.0358 37.8742C18.9238 37.7628 18.8114 37.6518 18.6987 37.5412C18.5255 37.371 18.3532 37.1999 18.1811 37.0286C18.0724 36.9207 17.9635 36.8129 17.8547 36.7052C17.7767 36.628 17.7767 36.628 17.6972 36.5492C17.6493 36.5022 17.6014 36.4552 17.552 36.4067C17.5097 36.365 17.4673 36.3234 17.4237 36.2804C17.2433 36.1184 17.1904 36.2424 17.0341 36.3922ZM30.9965 38.584C31.2962 38.943 31.6123 39.2766 31.945 39.6051C31.992 39.6519 32.0391 39.6986 32.0876 39.7468C32.2022 39.8606 32.3171 39.9744 32.432 40.0879C32.791 39.7882 33.1247 39.4721 33.4532 39.1394C33.4999 39.0924 33.5467 39.0453 33.5948 38.9968C33.7087 38.8822 33.8224 38.7673 33.9359 38.6524C33.7639 38.6031 33.6682 38.583 33.4884 38.6134C33.153 38.6688 32.8226 38.6622 32.4833 38.6609C32.4159 38.6612 32.3485 38.6614 32.279 38.6617C31.8475 38.6611 31.4249 38.6358 30.9965 38.584ZM29.5356 39.4006C29.4571 39.4148 29.3785 39.429 29.2976 39.4436C28.9833 39.5007 28.6691 39.5581 28.355 39.6159C28.1169 39.6597 27.8788 39.7032 27.6405 39.746C27.3656 39.7954 27.0909 39.846 26.8162 39.8967C26.7317 39.9118 26.6472 39.9268 26.5602 39.9423C25.6061 40.1205 24.8166 40.4265 24.2471 41.2495C24.0042 41.6348 23.8443 42.0332 23.6949 42.4634C23.6711 42.5301 23.6711 42.5301 23.6469 42.5981C23.5664 42.8392 23.5217 42.9939 23.6137 43.2324C23.7263 43.3744 23.7263 43.3744 23.8698 43.511C23.9214 43.5622 23.973 43.6134 24.0261 43.6662C24.0803 43.7191 24.1346 43.7719 24.1905 43.8263C24.2714 43.9067 24.2714 43.9067 24.354 43.9888C24.6755 44.3372 24.6755 44.3372 25.1053 44.4824C25.3701 44.4587 25.4566 44.3923 25.6559 44.2194C25.7525 44.136 25.7525 44.136 25.8511 44.0509C26.2068 43.7303 26.5552 43.4017 26.9021 43.0717C27.1298 42.8561 27.3637 42.6489 27.601 42.4441C27.6875 42.3681 27.7706 42.2884 27.852 42.2071C28.0905 42.2312 28.131 42.2816 28.3012 42.4682C28.3691 42.5532 28.4368 42.6384 28.5043 42.7237C29.2377 43.6013 29.9414 44.4376 31.1382 44.5456C31.6701 44.5731 32.1991 44.5596 32.7308 44.5341C33.0509 44.5211 33.3711 44.5201 33.6914 44.5177C34.2946 44.5114 34.8969 44.4946 35.4997 44.4739C36.1874 44.4507 36.8751 44.4396 37.563 44.4294C38.9749 44.4081 40.386 44.3722 41.7973 44.3262C41.6891 43.9781 41.5797 43.6305 41.4693 43.2831C41.432 43.1652 41.395 43.0472 41.3584 42.9291C41.1569 42.2807 40.9654 41.6724 40.5668 41.1133C40.5175 41.0414 40.4681 40.9695 40.4173 40.8954C40.0048 40.4829 39.5741 40.2319 39.0036 40.1031C38.6653 40.0254 38.3332 39.9389 38.0024 39.8333C36.3563 39.2602 36.3563 39.2602 34.6908 39.4251C33.7883 39.9757 33.1047 40.8766 32.5004 41.7285C32.2922 41.6356 32.1498 41.5311 31.9899 41.3692C31.945 41.3241 31.9001 41.2789 31.8538 41.2324C31.8061 41.1837 31.7584 41.1351 31.7092 41.085C31.6597 41.0351 31.6102 40.9852 31.5591 40.9338C31.4012 40.7747 31.2437 40.615 31.0862 40.4553C30.928 40.2952 30.7696 40.1352 30.6111 39.9754C30.5125 39.8759 30.414 39.7762 30.3158 39.6764C30.2715 39.6317 30.2272 39.5869 30.1816 39.5409C30.1425 39.5012 30.1034 39.4615 30.0631 39.4207C29.9039 39.2741 29.741 39.3636 29.5356 39.4006ZM27.719 43.8989C27.6698 43.9497 27.6206 44.0005 27.57 44.0528C27.5205 44.1035 27.4709 44.1543 27.4199 44.2066C27.382 44.246 27.3441 44.2855 27.3051 44.3262C27.3992 44.5375 27.5069 44.6814 27.6707 44.844C27.7172 44.8905 27.7637 44.937 27.8117 44.985C27.8618 45.0344 27.9119 45.0838 27.9636 45.1348C28.015 45.186 28.0664 45.2372 28.1193 45.2899C28.2834 45.4532 28.4479 45.616 28.6125 45.7788C28.7238 45.8895 28.8352 46.0003 28.9465 46.111C29.2193 46.3823 29.4925 46.6532 29.766 46.9238C29.8418 46.8616 29.9172 46.7988 29.9925 46.7359C30.0345 46.701 30.0765 46.6661 30.1198 46.6301C30.2486 46.5099 30.3482 46.3839 30.4496 46.2403C30.1021 45.8893 29.7541 45.5389 29.4057 45.1888C29.2872 45.0696 29.1687 44.9502 29.0504 44.8307C28.8807 44.6594 28.7106 44.4885 28.5404 44.3176C28.4872 44.2638 28.4341 44.21 28.3794 44.1545C28.3055 44.0806 28.3055 44.0806 28.2301 44.0052C28.165 43.9396 28.165 43.9396 28.0986 43.8727C27.9295 43.729 27.8817 43.7526 27.719 43.8989Z" fill="#05C7F2"/>
<path d="M40.2575 14.9817C40.3692 14.9809 40.3692 14.9809 40.4831 14.98C40.6047 14.9801 40.6047 14.9801 40.7286 14.9802C40.8145 14.9797 40.9003 14.9792 40.9888 14.9788C41.2238 14.9776 41.4588 14.9772 41.6939 14.9772C41.8409 14.9771 41.9879 14.9768 42.1349 14.9764C42.6484 14.9751 43.1618 14.9746 43.6753 14.9747C44.153 14.9748 44.6308 14.9733 45.1085 14.9712C45.5194 14.9694 45.9302 14.9686 46.3411 14.9687C46.5862 14.9688 46.8312 14.9684 47.0763 14.9669C47.3499 14.9654 47.6234 14.966 47.897 14.9668C48.0179 14.9657 48.0179 14.9657 48.1412 14.9645C48.6802 14.9686 49.0449 15.0448 49.4672 15.4006C49.5034 15.4432 49.5396 15.4859 49.5769 15.5298C49.614 15.5717 49.6511 15.6137 49.6894 15.6569C49.9462 16.0549 50.0256 16.4281 50.0275 16.8964C50.028 16.9462 50.0285 16.996 50.029 17.0472C50.0302 17.21 50.03 17.3727 50.0296 17.5355C50.0299 17.6497 50.0302 17.7639 50.0306 17.8781C50.0313 18.1169 50.0311 18.3556 50.0304 18.5943C50.0296 18.899 50.031 19.2035 50.033 19.5082C50.0343 19.7439 50.0342 19.9796 50.0339 20.2153C50.0338 20.3275 50.0342 20.4398 50.0351 20.552C50.0397 21.2567 50.003 21.8219 49.5684 22.4042C49.3017 22.6709 49.0106 22.8624 48.6327 22.9297C48.5034 22.9281 48.3741 22.9229 48.245 22.9153C46.9981 22.8748 46.2747 23.1504 45.2787 23.8799C44.9491 24.1158 44.6032 24.3244 44.2577 24.5361C44.1225 24.6205 43.9874 24.705 43.8524 24.7896C43.563 24.9704 43.2736 25.1511 42.984 25.3316C42.8726 25.4012 42.8726 25.4012 42.7589 25.4721C42.6169 25.5607 42.4748 25.6493 42.3327 25.7378C41.9394 25.9831 41.9394 25.9831 41.5538 26.2401C41.3866 26.3477 41.3866 26.3477 41.2499 26.3477C41.2943 25.9146 41.355 25.488 41.4296 25.0593C41.4402 24.9979 41.4507 24.9366 41.4615 24.8734C41.4948 24.6798 41.5283 24.4862 41.5618 24.2926C41.5846 24.1604 41.6073 24.0282 41.63 23.8959C41.6854 23.5738 41.7411 23.2518 41.7968 22.9297C41.7445 22.9315 41.6921 22.9333 41.6382 22.9351C41.3977 22.9423 41.1572 22.9467 40.9167 22.9511C40.7932 22.9554 40.7932 22.9554 40.6673 22.9597C40.0351 22.9683 39.5908 22.8568 39.1009 22.4493C39.0656 22.4062 39.0304 22.3631 38.9941 22.3187C38.9574 22.2758 38.9207 22.2329 38.883 22.1887C38.6641 21.8448 38.6317 21.498 38.6313 21.0994C38.6308 21.0478 38.6302 20.9962 38.6296 20.943C38.628 20.7731 38.6274 20.6033 38.6269 20.4335C38.6263 20.3147 38.6257 20.1958 38.625 20.077C38.6239 19.828 38.6234 19.5791 38.6232 19.3302C38.6228 19.0127 38.6202 18.6952 38.6171 18.3778C38.6151 18.1322 38.6146 17.8868 38.6145 17.6413C38.6142 17.5243 38.6134 17.4073 38.6119 17.2904C38.5981 16.0592 38.5981 16.0592 38.9941 15.5469C39.3672 15.1968 39.7367 14.9836 40.2575 14.9817ZM39.8827 16.4356C39.7852 16.6306 39.8046 16.7973 39.8034 17.0154C39.803 17.0608 39.8027 17.1063 39.8023 17.1532C39.8013 17.3039 39.8009 17.4547 39.8005 17.6054C39.8001 17.7102 39.7997 17.8149 39.7993 17.9196C39.7986 18.1394 39.7982 18.3592 39.798 18.5791C39.7976 18.8604 39.7959 19.1418 39.794 19.4231C39.7927 19.6396 39.7924 19.856 39.7923 20.0725C39.7921 20.1762 39.7915 20.2799 39.7906 20.3836C39.7894 20.5289 39.7896 20.6741 39.79 20.8195C39.7898 20.9021 39.7895 20.9847 39.7893 21.0698C39.8172 21.3136 39.8684 21.4389 40.0195 21.6309C40.2119 21.7615 40.3639 21.7845 40.5938 21.7831C40.6526 21.7831 40.7114 21.7831 40.772 21.7831C40.8349 21.7824 40.8978 21.7817 40.9626 21.7809C41.0599 21.7807 41.0599 21.7807 41.1591 21.7804C41.366 21.7796 41.5728 21.7779 41.7797 21.7761C41.9201 21.7755 42.0604 21.7748 42.2008 21.7743C42.5447 21.7728 42.8885 21.7704 43.2323 21.7676C43.222 21.8245 43.2116 21.8814 43.201 21.94C43.1626 22.1514 43.1244 22.3627 43.0863 22.5741C43.0698 22.6656 43.0532 22.757 43.0366 22.8484C43.0127 22.9799 42.989 23.1114 42.9653 23.2429C42.951 23.322 42.9367 23.4012 42.9219 23.4827C42.8852 23.6818 42.8852 23.6818 42.8905 23.8867C43.2258 23.7723 43.505 23.5861 43.8006 23.3954C43.9156 23.322 44.0306 23.2487 44.1456 23.1754C44.2071 23.1361 44.2687 23.0968 44.3321 23.0563C44.6949 22.8256 45.0595 22.5979 45.4241 22.37C45.4961 22.3249 45.5681 22.2798 45.6422 22.2334C45.7092 22.1915 45.7762 22.1496 45.8452 22.1065C45.905 22.0691 45.9647 22.0317 46.0263 21.9932C46.2823 21.8368 46.4391 21.8261 46.7411 21.8215C46.8283 21.8196 46.9154 21.8177 47.0052 21.8157C47.1436 21.8128 47.2821 21.8103 47.4205 21.8085C47.5544 21.8066 47.6882 21.8034 47.822 21.8002C47.9421 21.7981 47.9421 21.7981 48.0646 21.7961C48.3167 21.7644 48.4846 21.6937 48.7011 21.5625C48.8008 21.3632 48.7804 21.1865 48.7826 20.9639C48.7832 20.9164 48.7838 20.8689 48.7843 20.82C48.786 20.6626 48.7872 20.5052 48.7881 20.3478C48.7887 20.2672 48.7887 20.2672 48.7892 20.1849C48.7911 19.9004 48.7924 19.6159 48.7934 19.3314C48.7945 19.0376 48.7976 18.7439 48.8011 18.4501C48.8034 18.2242 48.8042 17.9982 48.8045 17.7722C48.805 17.664 48.806 17.5557 48.8077 17.4474C48.8098 17.2957 48.8098 17.1441 48.8093 16.9924C48.8102 16.863 48.8102 16.863 48.811 16.731C48.7828 16.4981 48.7828 16.4981 48.6452 16.3052C48.3185 16.0903 48.0245 16.1149 47.6413 16.119C47.5617 16.1185 47.4822 16.118 47.4003 16.1175C47.1375 16.1163 46.8747 16.1177 46.6119 16.1191C46.4293 16.1191 46.2466 16.1189 46.064 16.1186C45.6813 16.1183 45.2986 16.1194 44.9159 16.1213C44.4738 16.1235 44.0317 16.1235 43.5896 16.1223C43.1639 16.1212 42.7381 16.1217 42.3123 16.1229C42.1314 16.1232 41.9504 16.1232 41.7694 16.1228C41.5166 16.1224 41.2638 16.1238 41.0109 16.1257C40.936 16.1252 40.8611 16.1248 40.7838 16.1243C40.2764 16.1298 40.2764 16.1298 39.8827 16.4356Z" fill="#05C7F2"/>
<path d="M37.1484 17.3242C37.1109 17.7376 37.0183 18.097 36.875 18.4863C36.5565 18.4517 36.2545 18.4055 35.9436 18.3251C33.9614 17.8132 31.776 17.7423 29.7656 18.1445C29.7064 18.1562 29.6471 18.1679 29.586 18.18C27.6138 18.5836 25.7349 19.3686 24.0918 20.5371C24.0532 20.5643 24.0146 20.5915 23.9748 20.6195C23.5402 20.9282 23.136 21.2621 22.7446 21.6236C22.6056 21.7513 22.4634 21.8728 22.3187 21.994C20.3644 23.7094 18.9788 26.3082 18.3496 28.8085C18.3875 28.7851 18.4254 28.7616 18.4645 28.7374C18.6363 28.6318 18.8091 28.5279 18.9819 28.424C19.0714 28.3685 19.0714 28.3685 19.1627 28.3119C19.2204 28.2775 19.2781 28.2431 19.3376 28.2077C19.3906 28.1755 19.4436 28.1433 19.4982 28.1101C19.6484 28.0566 19.6484 28.0566 19.7972 28.1059C19.9639 28.2228 20.0441 28.3523 20.1483 28.5266C20.1847 28.5856 20.2211 28.6446 20.2586 28.7055C20.332 28.8769 20.332 28.8769 20.3263 29.0084C20.2314 29.2235 20.0821 29.2865 19.8816 29.4048C19.8425 29.4282 19.8034 29.4516 19.7631 29.4758C19.6356 29.5518 19.5075 29.6267 19.3793 29.7015C19.2918 29.7533 19.2043 29.8052 19.1169 29.8571C18.9857 29.9351 18.8544 30.0131 18.7229 30.0907C18.4649 30.243 18.2094 30.3985 17.956 30.5584C17.8714 30.6116 17.8714 30.6116 17.7851 30.6658C17.6823 30.7308 17.5798 30.7961 17.4776 30.862C17.3613 30.9348 17.2405 31.0004 17.1191 31.0644C16.8422 30.9721 16.81 30.8502 16.6663 30.599C16.6428 30.5584 16.6193 30.5177 16.595 30.4759C16.5185 30.3434 16.4429 30.2104 16.3672 30.0775C16.2628 29.8961 16.1581 29.715 16.0534 29.5338C16.0276 29.489 16.0018 29.4442 15.9752 29.398C15.7285 28.9705 15.4713 28.5499 15.2084 28.1322C15 27.7974 15 27.7974 15 27.6464C15.1421 27.5455 15.2825 27.4541 15.4315 27.3645C15.4722 27.339 15.5129 27.3135 15.5548 27.2873C15.8625 27.0996 15.8625 27.0996 16.0938 27.0996C16.1986 27.2354 16.1986 27.2354 16.3082 27.4237C16.3673 27.5246 16.3673 27.5246 16.4277 27.6275C16.4683 27.6986 16.509 27.7697 16.5509 27.843C16.6131 27.9488 16.6131 27.9488 16.6765 28.0569C16.9824 28.5833 16.9824 28.5833 16.9824 28.7402C17.0275 28.7402 17.0727 28.7402 17.1191 28.7402C17.1261 28.6639 17.1331 28.5876 17.1402 28.5089C17.1838 28.1639 17.2849 27.8466 17.3969 27.5183C17.4181 27.4555 17.4394 27.3928 17.4613 27.3282C17.9799 25.8307 18.7053 24.4087 19.6484 23.1347C19.6785 23.094 19.7085 23.0532 19.7394 23.0112C22.2504 19.6347 25.9832 17.462 30.1266 16.7971C30.3707 16.7623 30.6141 16.7333 30.8594 16.7089C30.9729 16.6976 30.9729 16.6976 31.0888 16.686C33.144 16.511 35.1682 16.7617 37.1484 17.3242Z" fill="#05C7F2"/>
<path d="M46.3086 25.459C46.6026 25.5654 46.864 25.7137 47.131 25.8739C47.177 25.9013 47.223 25.9286 47.2703 25.9568C47.417 26.0441 47.5635 26.1318 47.71 26.2195C47.8063 26.2768 47.9026 26.3341 47.9989 26.3914C48.5779 26.7364 49.1537 27.0864 49.7266 27.4414C49.6289 27.693 49.5175 27.9161 49.3762 28.1464C49.3394 28.2067 49.3026 28.2671 49.2646 28.3293C49.2366 28.3747 49.2086 28.42 49.1797 28.4668C48.9284 28.428 48.7505 28.3619 48.5353 28.2273C48.4809 28.1936 48.4265 28.1599 48.3705 28.1251C48.3146 28.0898 48.2588 28.0545 48.2013 28.0182C48.1441 27.9826 48.087 27.9471 48.0281 27.9104C47.8876 27.8229 47.7474 27.7349 47.6074 27.6465C47.6208 27.7 47.6343 27.7535 47.6481 27.8087C48.7413 32.2112 48.4472 36.6595 46.1035 40.6348C45.7071 41.2738 45.2855 41.9015 44.8047 42.4805C44.5268 42.3867 44.3485 42.2603 44.1339 42.0618C44.0799 42.0122 44.0259 41.9627 43.9702 41.9117C43.9096 41.8549 43.9096 41.8549 43.8477 41.7969C43.9504 41.4857 44.1279 41.2534 44.3262 40.9979C44.7532 40.4301 45.0954 39.8302 45.4199 39.1992C45.4469 39.147 45.4739 39.0949 45.5017 39.0411C47.2655 35.5885 47.4148 31.7466 46.377 28.0566C46.3318 28.0566 46.2867 28.0566 46.2402 28.0566C46.1428 28.1871 46.1428 28.1871 46.0474 28.3557C46.0109 28.4174 45.9743 28.4791 45.9366 28.5426C45.8986 28.6078 45.8607 28.673 45.8215 28.7402C45.783 28.8054 45.7445 28.8707 45.7048 28.9378C45.6094 29.0996 45.5145 29.2616 45.4199 29.4238C45.1394 29.3401 44.9165 29.2407 44.6765 29.0735C44.6231 29.0367 44.5697 28.9998 44.5147 28.9619C44.475 28.9338 44.4354 28.9058 44.3945 28.877C44.4342 28.5795 44.5425 28.3779 44.6997 28.1239C44.7236 28.085 44.7475 28.0461 44.7721 28.006C44.8495 27.8802 44.9275 27.7548 45.0055 27.6294C45.0852 27.5001 45.1646 27.3707 45.2441 27.2413C45.2968 27.1555 45.3495 27.0698 45.4023 26.9841C45.619 26.6321 45.8308 26.2773 46.0394 25.9204C46.0815 25.8485 46.0815 25.8485 46.1245 25.7751C46.186 25.6698 46.2473 25.5644 46.3086 25.459Z" fill="#05C7F2"/>
<path d="M40.9082 17.2559C43.1641 17.2559 45.4199 17.2559 47.7441 17.2559C47.7441 17.6394 47.7441 18.0229 47.7441 18.418C45.4883 18.418 43.2324 18.418 40.9082 18.418C40.9082 18.0345 40.9082 17.651 40.9082 17.2559Z" fill="#05C7F2"/>
<path d="M40.9082 19.5117C42.4196 19.5117 43.9311 19.5117 45.4883 19.5117C45.4883 19.8952 45.4883 20.2787 45.4883 20.6738C43.9769 20.6738 42.4654 20.6738 40.9082 20.6738C40.9082 20.2903 40.9082 19.9068 40.9082 19.5117Z" fill="#05C7F2"/>
<path d="M46.5137 19.5117C46.9197 19.5117 47.3258 19.5117 47.7441 19.5117C47.7441 19.8952 47.7441 20.2787 47.7441 20.6738C47.3381 20.6738 46.932 20.6738 46.5137 20.6738C46.5137 20.2903 46.5137 19.9068 46.5137 19.5117Z" fill="#05C7F2"/>
</g>
<defs>
<clipPath id="clip0_5475_1768">
<rect width="35" height="35" fill="white" transform="translate(15 15)"/>
</clipPath>
</defs>
</svg>
