<svg width="65" height="65" viewBox="0 0 65 65" fill="none" xmlns="http://www.w3.org/2000/svg">
<g clip-path="url(#clip0_5371_19470)">
<path d="M32.5184 16.6377C32.5842 16.6795 32.6499 16.7213 32.7177 16.7644C32.7869 16.8096 32.8561 16.8547 32.9274 16.9012C33.0001 16.9477 33.0727 16.9941 33.1476 17.0419C33.2955 17.1366 33.4433 17.2315 33.5908 17.3267C33.8267 17.4787 34.0639 17.6284 34.3015 17.7777C34.8831 18.1431 35.462 18.5128 36.0414 18.8818C36.6601 19.2757 37.2802 19.6673 37.9006 20.0586C38.6484 20.5302 39.3953 21.0031 40.1409 21.4782C40.62 21.7833 41.1 22.0869 41.5808 22.3892C41.7215 22.4778 41.8619 22.5669 42.0022 22.6562C42.043 22.682 42.0838 22.7078 42.1258 22.7343C42.2906 22.8406 42.4037 22.9162 42.5106 23.0835C42.6023 23.5318 42.4664 23.8986 42.2756 24.2969C42.86 24.7235 43.4729 25.1037 44.0857 25.4876C44.3601 25.6597 44.6337 25.8328 44.9074 26.0058C45.0159 26.0744 45.1244 26.1429 45.2329 26.2115C45.2865 26.2453 45.3402 26.2792 45.3954 26.3141C45.555 26.4148 45.7147 26.5156 45.8743 26.6163C46.5162 27.0212 47.1573 27.4273 47.797 27.8357C48.1074 28.0338 48.4185 28.2305 48.7315 28.4243C48.82 28.4794 48.82 28.4794 48.9103 28.5355C49.021 28.6043 49.1319 28.6727 49.243 28.7406C49.8109 29.0942 49.8109 29.0942 50.0002 29.3555C50.0888 29.7951 49.9488 30.2003 49.8037 30.6116C49.2935 32.1474 49.427 33.5934 49.889 35.1297C49.9879 35.4705 50.0814 35.8387 50.0002 36.1914C49.8446 36.4121 49.7392 36.4615 49.4763 36.5324C49.3764 36.549 49.2764 36.5645 49.1762 36.5789C49.1229 36.5874 49.0696 36.596 49.0147 36.6048C48.8449 36.6318 48.6749 36.6573 48.5048 36.6827C48.391 36.7006 48.2771 36.7185 48.1633 36.7365C47.9536 36.7696 47.7439 36.8021 47.534 36.8339C47.3075 36.8686 47.0815 36.905 46.8557 36.9433C46.8547 36.9812 46.8537 37.019 46.8526 37.058C46.8101 38.5044 46.8101 38.5044 46.5822 38.9941C46.5612 39.043 46.5401 39.0919 46.5184 39.1423C46.2259 39.6841 45.6749 39.9853 45.1771 40.3174C44.8905 40.51 44.6088 40.7095 44.3264 40.9082C44.2106 40.9892 44.0948 41.0702 43.979 41.1512C43.5259 41.4683 43.0742 41.7874 42.6226 42.1067C42.3331 42.3113 42.0435 42.5156 41.7539 42.72C41.5143 42.8892 41.2747 43.0583 41.0352 43.2276C40.4574 43.636 39.8783 44.0426 39.2985 44.4481C38.7875 44.8056 38.278 45.165 37.7688 45.525C37.6259 45.6258 37.4829 45.7265 37.3398 45.8271C36.7892 46.2146 36.2415 46.6058 35.6963 47.0008C35.2007 47.3595 34.7011 47.7125 34.2002 48.0639C34.1133 48.1254 34.0267 48.1876 33.9406 48.2503C33.3444 48.6841 32.8632 48.6486 32.1595 48.5443C31.7829 48.4839 31.4078 48.4151 31.0326 48.3468C30.9067 48.3242 30.7808 48.3016 30.6549 48.2791C30.3141 48.2179 29.9734 48.1563 29.6328 48.0946C29.2721 48.0294 28.9114 47.9646 28.5507 47.8998C27.8645 47.7764 27.1784 47.6526 26.4923 47.5287C25.725 47.3901 24.9575 47.2519 24.1901 47.1138C23.2326 46.9415 22.2752 46.7691 21.3178 46.5962C21.0393 46.5459 20.7608 46.4956 20.4822 46.4453C20.3818 46.4272 20.3818 46.4272 20.2794 46.4087C19.4492 46.2588 18.6188 46.1099 17.788 45.9625C17.6232 45.9332 17.4583 45.9039 17.2935 45.8745C17.0106 45.8242 16.7277 45.7743 16.4446 45.7247C16.3258 45.7036 16.207 45.6825 16.0881 45.6613C16.0368 45.6525 15.9855 45.6436 15.9327 45.6345C15.2188 45.5062 15.2188 45.5062 15.0002 45.2148C14.9447 44.6774 15.0865 44.2043 15.2309 43.6896C15.7104 41.9559 15.6545 40.5472 15.1357 38.8369C15.0258 38.4623 14.9191 38.0858 15.0002 37.6953C15.1428 37.5073 15.1428 37.5073 15.342 37.3535C15.4469 37.271 15.4469 37.271 15.554 37.1869C15.634 37.1281 15.7143 37.0697 15.7949 37.0117C15.8611 36.9635 15.8611 36.9635 15.9287 36.9143C16.337 36.6193 16.7532 36.336 17.17 36.0531C17.5952 35.7636 18.013 35.465 18.4289 35.1624C18.8113 34.8847 19.197 34.612 19.5846 34.3414C19.6411 34.3019 19.6977 34.2624 19.7559 34.2217C19.869 34.1428 19.982 34.0639 20.0951 33.985C20.371 33.7924 20.6466 33.5993 20.9218 33.4058C20.9953 33.3543 20.9953 33.3543 21.0703 33.3019C21.245 33.1789 21.4113 33.0615 21.5627 32.9101C21.3236 32.7533 21.0843 32.5967 20.8449 32.4402C20.7736 32.3934 20.7023 32.3467 20.6288 32.2985C20.3073 32.0885 19.9857 31.8797 19.6569 31.6813C19.608 31.6517 19.5591 31.622 19.5087 31.5915C19.4202 31.5384 19.3313 31.4859 19.242 31.4343C18.6613 31.085 18.3826 30.622 18.2131 29.9707C18.1786 29.6603 18.1794 29.354 18.184 29.042C18.1842 28.9558 18.1844 28.8697 18.1847 28.781C18.1856 28.5543 18.1877 28.3277 18.1903 28.101C18.1922 27.916 18.1928 27.7309 18.1933 27.5458C18.194 27.3239 18.1954 27.102 18.1968 26.8801C18.1973 26.7975 18.1978 26.7149 18.1983 26.6298C18.1992 26.5529 18.2001 26.4759 18.201 26.3967C18.2017 26.3293 18.2023 26.2619 18.203 26.1924C18.2129 26.01 18.2409 25.8419 18.2815 25.6641C18.2425 25.64 18.2036 25.6159 18.1635 25.5912C17.9844 25.4796 17.8061 25.3668 17.6278 25.2539C17.536 25.1972 17.536 25.1972 17.4423 25.1393C16.9149 24.8032 16.4507 24.4501 16.299 23.8183C16.2782 23.5538 16.2766 23.29 16.2761 23.0247C16.2756 22.948 16.2752 22.8713 16.2747 22.7923C16.274 22.6303 16.2737 22.4683 16.2737 22.3062C16.2734 22.0599 16.2709 21.8136 16.2683 21.5673C16.2679 21.4094 16.2676 21.2515 16.2675 21.0936C16.2665 21.0206 16.2656 20.9477 16.2645 20.8726C16.2681 20.282 16.3895 19.7231 16.8075 19.281C16.8454 19.2396 16.8834 19.1982 16.9225 19.1555C16.9649 19.1151 17.0073 19.0748 17.051 19.0332C17.0975 18.9884 17.144 18.9436 17.192 18.8974C17.4543 18.7176 17.6899 18.676 17.9995 18.6225C18.0595 18.6113 18.1195 18.6002 18.1814 18.5887C18.374 18.5533 18.5669 18.5196 18.76 18.4863C18.8216 18.4755 18.8833 18.4647 18.9468 18.4536C19.4078 18.3733 19.8694 18.2973 20.3312 18.2217C20.4815 18.1969 20.6318 18.1721 20.7821 18.1473C21.182 18.0813 21.5818 18.0157 21.9817 17.9501C22.2302 17.9094 22.4787 17.8686 22.7272 17.8277C23.3997 17.7173 24.0721 17.6068 24.7446 17.4966C25.6637 17.346 26.5826 17.1944 27.5013 17.0415C27.95 16.9668 28.3987 16.8926 28.8475 16.8186C29.1423 16.7699 29.4371 16.7211 29.7318 16.6716C30.0041 16.6259 30.2765 16.5808 30.549 16.5363C30.6471 16.5201 30.7452 16.5037 30.8433 16.4871C30.976 16.4645 31.1089 16.443 31.2418 16.4215C31.3154 16.4092 31.389 16.397 31.4649 16.3844C31.8711 16.3519 32.1777 16.418 32.5184 16.6377ZM31.1536 17.6699C31.106 17.6776 31.0584 17.6854 31.0093 17.6934C30.849 17.7196 30.6887 17.7459 30.5284 17.7723C30.4137 17.791 30.2991 17.8098 30.1845 17.8285C29.8725 17.8795 29.5605 17.9307 29.2485 17.9819C28.9223 18.0354 28.5961 18.0888 28.2699 18.1422C27.7218 18.2319 27.1738 18.3218 26.6257 18.4117C25.992 18.5156 25.3583 18.6194 24.7246 18.7232C24.1154 18.8229 23.5062 18.9227 22.8971 19.0225C22.6377 19.065 22.3783 19.1075 22.1189 19.15C21.8132 19.2001 21.5076 19.2502 21.202 19.3003C21.0898 19.3187 20.9776 19.3371 20.8655 19.3555C20.7123 19.3805 20.5592 19.4057 20.406 19.4308C20.3203 19.4449 20.2346 19.4589 20.1463 19.4734C19.9568 19.5058 19.7685 19.5411 19.5803 19.5801C19.8169 19.8462 20.089 20.0077 20.392 20.1868C20.872 20.4751 21.3472 20.7697 21.819 21.0712C21.8819 21.1113 21.9447 21.1514 22.0095 21.1927C22.1379 21.2748 22.2664 21.3568 22.3948 21.439C22.7139 21.6429 23.0334 21.8462 23.3529 22.0495C23.4153 22.0893 23.4777 22.129 23.5419 22.1699C23.9456 22.4267 24.3497 22.6828 24.7542 22.9382C24.8071 22.9716 24.8599 23.005 24.9144 23.0393C25.1802 23.2071 25.4462 23.3747 25.7123 23.542C25.7657 23.5756 25.819 23.6093 25.8739 23.6439C25.9817 23.7116 26.0898 23.7788 26.1981 23.8455C26.4851 24.0236 26.7579 24.2094 27.0248 24.4165C27.11 24.4796 27.11 24.4796 27.197 24.5439C27.3041 24.6235 27.409 24.7062 27.5106 24.7926C27.8335 25.0268 28.0897 25.0673 28.484 25.0078C28.5403 24.9982 28.5967 24.9886 28.6547 24.9788C28.7164 24.9691 28.7781 24.9595 28.8417 24.9495C29.0587 24.9152 29.2755 24.8795 29.4924 24.8437C29.6629 24.8164 29.8335 24.7892 30.0041 24.7621C30.5504 24.6749 31.0964 24.5856 31.6423 24.4962C31.9178 24.4511 32.1932 24.4061 32.4687 24.3611C32.93 24.2858 33.3914 24.2104 33.8527 24.1348C34.3841 24.0478 34.9155 23.961 35.4469 23.8742C36.0168 23.7812 36.5866 23.6881 37.1564 23.5949C37.3192 23.5683 37.4819 23.5417 37.6446 23.5151C37.9008 23.4733 38.157 23.4314 38.4132 23.3894C38.5508 23.3669 38.6883 23.3444 38.8259 23.322C39.3159 23.2416 39.805 23.1573 40.2932 23.0664C40.074 22.8861 39.8533 22.7247 39.612 22.5756C39.5142 22.5149 39.5142 22.5149 39.4144 22.453C39.3449 22.4101 39.2753 22.3672 39.2037 22.323C39.0554 22.2309 38.9071 22.1388 38.7588 22.0466C38.6839 22.0001 38.609 21.9535 38.5318 21.9055C38.199 21.6978 37.8681 21.4873 37.5374 21.2762C37.0737 20.9805 36.6097 20.6854 36.1446 20.3918C36.0917 20.3584 36.0387 20.325 35.9841 20.2905C35.8254 20.1904 35.6667 20.0903 35.508 19.9902C34.8166 19.5542 34.1256 19.1173 33.4359 18.6786C33.341 18.6183 33.341 18.6183 33.2443 18.5568C32.9627 18.3777 32.6816 18.198 32.4022 18.0155C32.3575 17.9864 32.3128 17.9573 32.2668 17.9273C32.1504 17.8514 32.0342 17.775 31.9181 17.6986C31.6534 17.5413 31.4521 17.621 31.1536 17.6699ZM17.8029 19.9902C17.5929 20.2951 17.4536 20.5139 17.4501 20.8869C17.4495 20.9432 17.4488 20.9996 17.4481 21.0577C17.4478 21.1183 17.4476 21.179 17.4473 21.2415C17.4469 21.3041 17.4465 21.3668 17.4461 21.4313C17.4454 21.5638 17.445 21.6963 17.4447 21.8288C17.4441 22.0312 17.4419 22.2336 17.4398 22.4359C17.4393 22.5647 17.439 22.6935 17.4387 22.8223C17.4379 22.8827 17.437 22.9431 17.4362 23.0053C17.4373 23.3316 17.4467 23.5589 17.6662 23.8183C17.8261 23.9496 17.8261 23.9496 18.0144 24.0621C18.0842 24.1062 18.154 24.1502 18.2259 24.1956C18.3006 24.2417 18.3753 24.2878 18.4523 24.3353C18.5301 24.384 18.6078 24.4328 18.6855 24.4817C18.8417 24.5799 18.9982 24.6776 19.155 24.775C19.402 24.9288 19.6478 25.0842 19.8935 25.24C20.1015 25.3718 20.3099 25.503 20.5183 25.6343C20.7868 25.8035 21.0551 25.973 21.3234 26.1426C21.6457 26.3461 21.968 26.5497 22.2904 26.753C22.8689 27.118 23.4467 27.4841 24.0236 27.8516C24.1496 27.9317 24.2755 28.0118 24.4015 28.0919C24.6504 28.2503 24.8991 28.4091 25.1476 28.5683C25.2642 28.6427 25.3809 28.7171 25.4976 28.7915C25.5509 28.8258 25.6042 28.86 25.6591 28.8954C25.7337 28.9428 25.7337 28.9428 25.8098 28.9912C25.8528 29.0188 25.8959 29.0463 25.9403 29.0747C26.094 29.1614 26.2513 29.2247 26.4162 29.2871C26.4172 29.162 26.4172 29.162 26.4182 29.0344C26.4209 28.7222 26.4254 28.4101 26.4304 28.098C26.4323 27.9634 26.4338 27.8288 26.4347 27.6942C26.4362 27.4997 26.4394 27.3053 26.4429 27.1108C26.443 27.0515 26.4431 26.9923 26.4432 26.9312C26.4525 26.5355 26.5376 26.236 26.7063 25.8775C26.7782 25.7228 26.7782 25.7228 26.6897 25.5273C26.5515 25.4187 26.5515 25.4187 26.377 25.3166C26.3109 25.276 26.2448 25.2353 26.1767 25.1934C26.1049 25.1499 26.0331 25.1064 25.9591 25.0616C25.8082 24.9689 25.6575 24.8762 25.5067 24.7834C25.4301 24.7364 25.3534 24.6894 25.2745 24.641C24.9394 24.4343 24.6074 24.2227 24.2757 24.0106C24.1514 23.9313 24.027 23.852 23.9027 23.7727C23.8428 23.7345 23.7829 23.6963 23.7212 23.657C23.4465 23.4821 23.1711 23.3084 22.8957 23.1348C22.4278 22.8397 21.9609 22.5433 21.4943 22.2461C20.971 21.9128 20.4473 21.5801 19.9223 21.2494C19.6429 21.0734 19.3641 20.8967 19.086 20.7187C18.9977 20.6624 18.9977 20.6624 18.9077 20.605C18.7951 20.5332 18.6827 20.4611 18.5705 20.3889C18.3209 20.23 18.0851 20.0858 17.8029 19.9902ZM40.4176 24.2371C40.3657 24.2454 40.3137 24.2536 40.2602 24.2622C40.0847 24.2901 39.9092 24.3182 39.7337 24.3462C39.6084 24.3662 39.4831 24.3862 39.3578 24.4062C38.9452 24.472 38.5325 24.538 38.1198 24.6039C38.0497 24.6152 37.9795 24.6264 37.9073 24.6379C37.2461 24.7436 36.585 24.8494 35.9239 24.9552C35.0774 25.0908 34.2308 25.2261 33.3843 25.361C32.7895 25.4559 32.1948 25.551 31.6001 25.6463C31.2447 25.7033 30.8893 25.7601 30.5339 25.8167C30.1994 25.8699 29.8649 25.9235 29.5305 25.9773C29.4078 25.9969 29.285 26.0165 29.1623 26.0359C28.9946 26.0625 28.827 26.0895 28.6594 26.1166C28.6109 26.1242 28.5624 26.1318 28.5124 26.1396C28.2359 26.1849 27.975 26.2417 27.715 26.3476C27.5817 26.5742 27.5613 26.7741 27.5617 27.0336C27.5615 27.1002 27.5613 27.1667 27.5611 27.2354C27.5616 27.3064 27.5621 27.3775 27.5626 27.4507C27.5626 27.5243 27.5626 27.5978 27.5627 27.6736C27.5629 27.8287 27.5634 27.9837 27.5643 28.1388C27.5655 28.3769 27.5657 28.615 27.5656 28.853C27.566 29.0037 27.5664 29.1543 27.5668 29.305C27.5669 29.3765 27.567 29.448 27.5671 29.5216C27.5675 29.5876 27.5679 29.6535 27.5684 29.7215C27.5687 29.7796 27.5689 29.8378 27.5692 29.8977C27.5694 30.0434 27.5694 30.0434 27.6467 30.1758C28.3312 30.1342 29.0022 30.0296 29.678 29.9188C29.7981 29.8993 29.9182 29.8799 30.0383 29.8605C30.3622 29.8081 30.686 29.7553 31.0098 29.7024C31.3494 29.647 31.6891 29.592 32.0288 29.5369C32.5986 29.4445 33.1683 29.3518 33.738 29.259C34.5414 29.1281 35.3449 28.9977 36.1484 28.8673C36.7056 28.7769 37.2628 28.6863 37.82 28.5958C37.9549 28.5738 38.0899 28.5519 38.2248 28.53C38.6091 28.4675 38.9934 28.405 39.3777 28.3424C39.4941 28.3234 39.6105 28.3045 39.7268 28.2856C39.8856 28.2598 40.0444 28.2339 40.2032 28.208C40.2921 28.1935 40.3809 28.1791 40.4725 28.1642C40.6642 28.1316 40.8547 28.0962 41.0451 28.0566C41.0253 27.9555 41.0053 27.8544 40.9853 27.7533C40.9729 27.6902 40.9605 27.6271 40.9477 27.5621C40.9144 27.4021 40.8759 27.2451 40.8358 27.0868C40.6687 26.3291 40.6871 25.5998 40.84 24.8437C40.8532 24.7754 40.8663 24.707 40.8798 24.6365C40.9109 24.4774 40.9431 24.3187 40.9768 24.1601C40.7912 24.1601 40.601 24.2077 40.4176 24.2371ZM41.8654 25.5957C41.7983 26.4592 42.0074 27.337 42.4155 28.098C42.5142 28.3459 42.5175 28.5611 42.4333 28.8144C42.3082 28.9976 42.2038 29.0072 41.9893 29.0542C41.9151 29.0705 41.841 29.0869 41.7646 29.1037C41.3439 29.1852 40.922 29.2559 40.4988 29.3221C40.3986 29.338 40.2985 29.354 40.1984 29.37C39.9846 29.4041 39.7707 29.438 39.5569 29.4717C39.2187 29.525 38.8806 29.579 38.5426 29.633C37.7038 29.7669 36.8649 29.9001 36.026 30.033C35.372 30.1367 34.7181 30.2405 34.0643 30.3451C33.7281 30.3988 33.3919 30.4521 33.0557 30.505C32.8471 30.5379 32.6385 30.5713 32.43 30.6047C32.3333 30.6202 32.2364 30.6354 32.1396 30.6505C32.0076 30.6711 31.8758 30.6924 31.7439 30.7137C31.6701 30.7254 31.5962 30.7371 31.5201 30.7491C31.324 30.7829 31.324 30.7829 31.133 30.9277C31.3238 31.0517 31.5146 31.1756 31.7055 31.2994C31.7869 31.3524 31.7869 31.3524 31.87 31.4064C31.922 31.4401 31.974 31.4738 32.0276 31.5085C32.0755 31.5397 32.1235 31.5708 32.1729 31.6029C32.5996 31.871 33.1266 31.7368 33.5999 31.6572C33.6601 31.6474 33.7203 31.6377 33.7823 31.6276C33.9828 31.5949 34.1833 31.5617 34.3837 31.5284C34.5279 31.5048 34.6721 31.4812 34.8163 31.4577C35.207 31.3938 35.5976 31.3294 35.9882 31.2649C36.3967 31.1975 36.8052 31.1307 37.2138 31.0637C37.9871 30.937 38.7604 30.8098 39.5336 30.6824C40.414 30.5374 41.2945 30.3929 42.175 30.2485C43.986 29.9513 45.7968 29.6536 47.6076 29.3555C47.6076 29.2878 47.6076 29.2201 47.6076 29.1504C47.4769 29.0403 47.4769 29.0403 47.3016 28.9397C47.2022 28.8787 47.2022 28.8787 47.1008 28.8164C46.9921 28.7512 46.9921 28.7512 46.8813 28.6847C46.7296 28.5918 46.5779 28.4989 46.4263 28.4059C46.3876 28.3823 46.349 28.3588 46.3092 28.3345C45.9385 28.1085 45.5722 27.8761 45.2065 27.6422C45.0831 27.5635 44.9598 27.4848 44.8364 27.4061C44.7448 27.3477 44.7448 27.3477 44.6513 27.288C44.4571 27.1641 44.2628 27.0405 44.0684 26.917C44.0034 26.8756 43.9383 26.8342 43.8713 26.7916C43.7435 26.7103 43.6156 26.6291 43.4877 26.5479C43.2099 26.3713 42.9325 26.1941 42.6569 26.0141C42.6121 25.9849 42.5673 25.9558 42.5211 25.9257C42.4046 25.8496 42.2883 25.7731 42.172 25.6966C42.0155 25.5841 42.0155 25.5841 41.8654 25.5957ZM19.3752 26.416C19.3718 26.8209 19.3693 27.2257 19.3677 27.6306C19.367 27.768 19.3661 27.9054 19.3649 28.0429C19.2786 29.2185 19.2786 29.2185 19.6465 30.274C19.7322 30.3269 19.7322 30.3269 19.8195 30.3808C19.9214 30.4461 19.9214 30.4461 20.0254 30.5128C20.1048 30.56 20.1843 30.6072 20.2639 30.6543C20.3541 30.7098 20.4443 30.7656 20.5344 30.8214C20.7398 30.9482 20.9461 31.0736 21.1528 31.1982C21.515 31.4176 21.8723 31.6441 22.2292 31.8719C22.2921 31.9121 22.355 31.9522 22.4198 31.9936C22.5482 32.0756 22.6766 32.1576 22.805 32.2397C23.1241 32.4437 23.4435 32.647 23.763 32.8503C23.8254 32.89 23.8878 32.9298 23.9521 32.9707C24.5145 33.3285 25.0781 33.6846 25.6419 34.0403C25.9658 34.2446 26.2895 34.4491 26.6133 34.6536C26.8812 34.8229 27.1492 34.9921 27.4173 35.1612C28.0745 35.5758 28.7306 35.9919 29.3858 36.4097C29.5031 36.4844 29.6205 36.559 29.7379 36.6336C29.8466 36.7027 29.955 36.7722 30.0632 36.8422C30.1366 36.8892 30.1366 36.8892 30.2115 36.9372C30.2543 36.9649 30.2971 36.9926 30.3412 37.0211C30.4489 37.091 30.4489 37.091 30.5861 37.0801C30.5865 37.0343 30.5869 36.9886 30.5874 36.9415C30.5917 36.4635 30.5975 35.9855 30.6041 35.5075C30.6063 35.3294 30.6083 35.1512 30.6098 34.9731C30.6121 34.7163 30.6157 34.4596 30.6195 34.2028C30.62 34.1238 30.6204 34.0447 30.6208 33.9632C30.6314 33.3753 30.7013 32.9039 31.0647 32.4316C30.9759 32.1654 30.8723 32.13 30.6355 31.9846C30.5624 31.9393 30.4892 31.894 30.4138 31.8474C30.3367 31.8005 30.2597 31.7536 30.1803 31.7053C30.1027 31.6575 30.0251 31.6096 29.9475 31.5616C29.4722 31.2236 29.4722 31.2236 28.9306 31.1734C28.8724 31.1832 28.8142 31.193 28.7543 31.203C28.6332 31.2242 28.5121 31.2457 28.3912 31.2677C27.5774 31.4029 27.0976 31.2797 26.4119 30.8209C26.3411 30.7751 26.2703 30.7293 26.1974 30.682C26.0482 30.5854 25.8994 30.4883 25.751 30.3907C25.4654 30.2033 25.1773 30.0199 24.8892 29.8365C24.6754 29.7003 24.462 29.5635 24.2487 29.4265C23.9615 29.242 23.674 29.0579 23.3862 28.8743C22.6809 28.424 21.9771 27.9716 21.2764 27.514C21.2115 27.4717 21.1466 27.4293 21.0797 27.3857C20.7972 27.2014 20.515 27.0166 20.2337 26.8304C20.1469 26.7735 20.0601 26.7165 19.9733 26.6595C19.9011 26.6117 19.8288 26.5638 19.7544 26.5145C19.5839 26.3992 19.5839 26.3992 19.3752 26.416ZM47.5581 30.5387C47.468 30.5531 47.468 30.5531 47.3761 30.5678C47.1748 30.6002 46.9736 30.6329 46.7724 30.6656C46.6281 30.6888 46.4838 30.7121 46.3395 30.7353C45.9472 30.7985 45.5549 30.862 45.1627 30.9256C44.7515 30.9922 44.3403 31.0585 43.9291 31.1248C43.2376 31.2364 42.5462 31.3482 41.8548 31.4602C40.9701 31.6034 40.0853 31.7463 39.2006 31.8891C38.4377 32.0122 37.6748 32.1355 36.9119 32.2588C36.668 32.2982 36.424 32.3376 36.1801 32.377C35.7948 32.4393 35.4094 32.5016 35.0241 32.564C34.8835 32.5868 34.7428 32.6095 34.6022 32.6322C34.5364 32.6428 34.4705 32.6535 34.4027 32.6644C34.3388 32.6748 34.2748 32.6851 34.2089 32.6957C34.0267 32.7254 33.8445 32.7558 33.6624 32.7862C33.436 32.8239 33.2096 32.8574 32.9822 32.888C32.929 32.8958 32.8758 32.9035 32.821 32.9115C32.7228 32.9258 32.6244 32.9389 32.5258 32.9503C32.2678 32.9897 32.1253 33.0558 31.9591 33.2504C31.7481 33.5564 31.7397 33.7609 31.7383 34.1274C31.7379 34.2072 31.7374 34.2871 31.737 34.3693C31.7369 34.4553 31.7368 34.5413 31.7368 34.6298C31.7365 34.7183 31.7363 34.8068 31.7361 34.8979C31.7357 35.085 31.7355 35.2721 31.7356 35.4592C31.7356 35.6988 31.7347 35.9383 31.7335 36.1778C31.7325 36.4066 31.7326 36.6355 31.7325 36.8643C31.732 36.9503 31.7315 37.0362 31.731 37.1248C31.7312 37.2046 31.7314 37.2845 31.7316 37.3667C31.7315 37.4369 31.7314 37.5072 31.7313 37.5795C31.7488 37.7693 31.777 37.8806 31.885 38.0371C32.1397 38.122 32.2882 38.086 32.5533 38.043C32.6008 38.0355 32.6482 38.0279 32.6971 38.0201C32.8566 37.9946 33.0161 37.9683 33.1756 37.9421C33.29 37.9236 33.4044 37.9052 33.5187 37.8868C33.8312 37.8365 34.1436 37.7856 34.4559 37.7346C34.7869 37.6806 35.118 37.6272 35.449 37.5738C36.0812 37.4716 36.7134 37.3689 37.3455 37.2661C38.0475 37.1519 38.7496 37.0382 39.4517 36.9246C40.5342 36.7494 41.6167 36.5739 42.6991 36.3982C44.104 36.17 45.509 35.9428 46.9142 35.7163C46.9597 35.709 47.0053 35.7017 47.0523 35.6941C47.5792 35.6092 48.1061 35.5243 48.633 35.4394C48.6115 35.3087 48.5899 35.1779 48.5683 35.0472C48.5503 34.938 48.5503 34.938 48.5319 34.8266C48.5035 34.661 48.4727 34.4967 48.4381 34.3323C48.2147 33.2279 48.1234 31.9716 48.4514 30.8813C48.5087 30.7063 48.5087 30.7063 48.4963 30.4492C48.1773 30.4359 47.8716 30.4873 47.5581 30.5387ZM22.4153 33.8228C22.3675 33.858 22.3197 33.8932 22.2705 33.9294C22.193 33.9874 22.193 33.9874 22.1138 34.0466C22.002 34.1289 21.8901 34.211 21.7782 34.2931C21.7201 34.3358 21.662 34.3785 21.6022 34.4224C21.3211 34.6271 21.0362 34.8262 20.7509 35.025C20.6943 35.0646 20.6376 35.1041 20.5792 35.1449C20.4637 35.2255 20.3483 35.306 20.2328 35.3865C19.9424 35.5889 19.6524 35.7919 19.3624 35.9949C19.2781 36.0539 19.2781 36.0539 19.192 36.114C18.7634 36.414 18.3359 36.7154 17.9092 37.0181C17.6486 37.2026 17.3859 37.3828 17.1193 37.5586C17.3224 37.7617 17.5701 37.7678 17.8437 37.8165C17.9053 37.8278 17.9669 37.8392 18.0303 37.851C18.2378 37.8892 18.4454 37.9266 18.653 37.964C18.8013 37.9911 18.9496 38.0183 19.0979 38.0455C19.5016 38.1195 19.9054 38.1927 20.3093 38.2658C20.646 38.3268 20.9827 38.3881 21.3194 38.4494C22.159 38.6022 22.9988 38.7542 23.8386 38.906C24.5681 39.0379 25.2974 39.1708 26.0267 39.3041C26.7751 39.441 27.5238 39.5771 28.2725 39.7125C28.693 39.7885 29.1134 39.8648 29.5337 39.9419C29.9289 40.0144 30.3243 40.0859 30.7199 40.1567C30.8652 40.1829 31.0104 40.2094 31.1556 40.2362C31.3535 40.2728 31.5516 40.3082 31.7498 40.3432C31.8363 40.3596 31.8363 40.3596 31.9246 40.3764C32.3125 40.4432 32.5238 40.4064 32.862 40.195C32.9144 40.1578 32.9669 40.1206 33.0209 40.0823C33.0793 40.0411 33.1378 39.9999 33.1979 39.9574C33.2581 39.9145 33.3183 39.8715 33.3803 39.8273C33.44 39.7851 33.4996 39.7429 33.5611 39.6995C33.6777 39.617 33.7941 39.5343 33.9103 39.4514C34.014 39.3776 34.118 39.3042 34.2223 39.2314C34.333 39.1539 34.4422 39.0743 34.551 38.9941C34.551 38.9716 34.551 38.949 34.551 38.9258C34.0277 38.953 33.5205 39.0137 33.0044 39.1009C31.9065 39.2806 31.3743 39.1439 30.4537 38.5327C30.3323 38.453 30.2109 38.3733 30.0895 38.2937C30.0257 38.2519 29.962 38.21 29.8963 38.1669C29.5538 37.9433 29.209 37.7232 28.8643 37.503C28.7926 37.4572 28.7209 37.4114 28.647 37.3641C28.5005 37.2705 28.3541 37.1769 28.2076 37.0834C27.8496 36.8546 27.4918 36.6255 27.134 36.3965C26.7004 36.1189 26.2668 35.8414 25.833 35.5641C25.1484 35.1264 24.4638 34.6886 23.7826 34.2456C23.6999 34.1919 23.6171 34.1383 23.5341 34.085C23.4433 34.0264 23.3528 33.9672 23.2626 33.9076C23.2143 33.8762 23.1659 33.8448 23.116 33.8124C23.0722 33.7837 23.0284 33.7549 22.9833 33.7253C22.7431 33.6006 22.6141 33.6747 22.4153 33.8228ZM44.4133 37.256C44.3403 37.2674 44.2672 37.2789 44.1919 37.2907C43.9507 37.3286 43.7095 37.367 43.4684 37.4056C43.3858 37.4187 43.3033 37.4319 43.2182 37.4454C42.7813 37.515 42.3444 37.585 41.9076 37.6554C41.4573 37.7278 41.0067 37.7988 40.5561 37.8695C40.2088 37.9243 39.8618 37.9801 39.5147 38.0362C39.3487 38.0628 39.1827 38.089 39.0166 38.1149C38.7837 38.1512 38.5512 38.189 38.3187 38.2271C38.2165 38.2426 38.2165 38.2426 38.1123 38.2583C37.4244 38.3744 36.9263 38.7175 36.3753 39.1266C36.2684 39.2049 36.1614 39.2831 36.0544 39.3613C35.999 39.4017 35.9436 39.4422 35.8866 39.4838C35.5315 39.7408 35.1713 39.9905 34.8117 40.2411C34.4955 40.4615 34.1805 40.6835 33.8674 40.9082C33.9735 41.1823 34.0932 41.4489 34.2159 41.716C34.3335 42.0005 34.3556 42.251 34.3599 42.5588C34.3613 42.6436 34.3627 42.7284 34.3641 42.8158C34.3652 42.908 34.3664 43.0003 34.3675 43.0925C34.3689 43.1871 34.3704 43.2817 34.3718 43.3764C34.3756 43.625 34.379 43.8736 34.3823 44.1221C34.3857 44.376 34.3895 44.6299 34.3933 44.8837C34.4006 45.3815 34.4076 45.8792 34.4143 46.3769C34.5344 46.301 34.6546 46.2249 34.7746 46.1488C34.8415 46.1064 34.9084 46.0641 34.9773 46.0204C35.2055 45.873 35.4237 45.7159 35.6405 45.5524C36.0445 45.252 36.4538 44.9602 36.8667 44.6722C36.9247 44.6317 36.9828 44.5913 37.0426 44.5495C37.1588 44.4685 37.275 44.3875 37.3912 44.3065C37.6456 44.1288 37.8992 43.9499 38.1527 43.7707C38.1998 43.7374 38.2469 43.7041 38.2955 43.6698C38.39 43.603 38.4845 43.5363 38.5789 43.4695C38.8684 43.2649 39.1581 43.0605 39.4477 42.8561C39.6873 42.687 39.9269 42.5178 40.1663 42.3485C40.7442 41.9401 41.3232 41.5335 41.9031 41.128C42.366 40.8042 42.8278 40.479 43.289 40.1528C43.4868 40.0129 43.6849 39.8736 43.8834 39.7346C44.4981 39.3043 44.4981 39.3043 45.104 38.8617C45.1482 38.8286 45.1924 38.7956 45.238 38.7615C45.4719 38.537 45.5682 38.3453 45.5769 38.0229C45.5755 37.918 45.5731 37.813 45.5697 37.7081C45.5687 37.6542 45.5678 37.6003 45.5669 37.5448C45.5645 37.4127 45.5608 37.2805 45.5568 37.1484C45.167 37.132 44.7968 37.1946 44.4133 37.256ZM16.4357 38.789C16.4461 38.8364 16.4565 38.8837 16.4671 38.9324C16.8285 40.6201 16.9063 42.118 16.4645 43.7926C16.4033 44.0268 16.3674 44.2187 16.3674 44.4629C19.328 45.0174 22.2921 45.5524 25.2568 46.0849C26.0545 46.2282 26.8521 46.3718 27.6497 46.5158C28.2191 46.6186 28.7886 46.721 29.3581 46.8232C29.6953 46.8838 30.0326 46.9444 30.3697 47.0054C30.6838 47.0623 30.9978 47.1187 31.312 47.1748C31.4268 47.1954 31.5416 47.2161 31.6563 47.237C31.813 47.2655 31.9699 47.2934 32.1267 47.3213C32.2142 47.337 32.3017 47.3528 32.3919 47.369C32.6364 47.4023 32.8691 47.4083 33.1154 47.4023C33.244 47.1292 33.2697 46.9107 33.2709 46.61C33.2716 46.5201 33.2722 46.4302 33.2729 46.3375C33.2729 46.2398 33.2728 46.1422 33.2727 46.0445C33.273 45.9436 33.2733 45.8427 33.2736 45.7418C33.2741 45.5305 33.2741 45.3193 33.2737 45.108C33.2733 44.8384 33.2745 44.5688 33.2761 44.2992C33.2771 44.0908 33.2771 43.8824 33.2769 43.674C33.277 43.5747 33.2773 43.4754 33.278 43.376C33.2899 42.5386 33.2899 42.5386 32.9444 41.7921C32.689 41.5947 32.4246 41.566 32.1109 41.5117C32.0431 41.4991 31.9753 41.4865 31.9054 41.4734C31.6782 41.4315 31.4508 41.3911 31.2233 41.3507C31.061 41.321 30.8987 41.2913 30.7364 41.2616C30.2985 41.1815 29.8603 41.103 29.4221 41.0249C29.1529 40.977 28.8838 40.9287 28.6147 40.8804C27.4531 40.6719 26.2911 40.4663 25.1288 40.2618C24.6033 40.1694 24.0778 40.0766 23.5523 39.9839C22.9911 39.8848 22.4299 39.7858 21.8686 39.6871C21.0714 39.5468 20.2742 39.4064 19.4774 39.264C19.15 39.2055 18.8226 39.1472 18.4953 39.0889C18.3432 39.0618 18.1912 39.0345 18.0392 39.0072C17.8321 38.9699 17.6249 38.933 17.4176 38.8961C17.3572 38.8852 17.2968 38.8742 17.2346 38.8629C16.9651 38.8153 16.7107 38.775 16.4357 38.789Z" fill="#05C7F2"/>
</g>
<defs>
<clipPath id="clip0_5371_19470">
<rect width="35" height="35" fill="white" transform="translate(15 15)"/>
</clipPath>
</defs>
</svg>
