<svg width="65" height="65" viewBox="0 0 65 65" fill="none" xmlns="http://www.w3.org/2000/svg">
<path d="M31.0415 39.7917L33.9582 42.7084C34.2454 42.9956 34.5865 43.2235 34.9618 43.379C35.3371 43.5344 35.7394 43.6145 36.1457 43.6145C36.5519 43.6145 36.9542 43.5344 37.3295 43.379C37.7049 43.2235 38.0459 42.9956 38.3332 42.7084C38.6204 42.4211 38.8483 42.0801 39.0038 41.7047C39.1592 41.3294 39.2393 40.9271 39.2393 40.5209C39.2393 40.1146 39.1592 39.7123 39.0038 39.337C38.8483 38.9617 38.6204 38.6206 38.3332 38.3334" stroke="#05C7F2" stroke-width="2.91667" stroke-linecap="round" stroke-linejoin="round"/>
<path d="M35.417 35.4167L39.0628 39.0625C39.643 39.6427 40.4299 39.9686 41.2503 39.9686C42.0708 39.9686 42.8577 39.6427 43.4378 39.0625C44.018 38.4823 44.3439 37.6955 44.3439 36.875C44.3439 36.0545 44.018 35.2677 43.4378 34.6875L37.7795 29.0292C36.9592 28.2099 35.8472 27.7497 34.6878 27.7497C33.5285 27.7497 32.4165 28.2099 31.5962 29.0292L30.3128 30.3125C29.7327 30.8927 28.9458 31.2186 28.1253 31.2186C27.3049 31.2186 26.518 30.8927 25.9378 30.3125C25.3577 29.7323 25.0317 28.9455 25.0317 28.125C25.0317 27.3045 25.3577 26.5177 25.9378 25.9375L30.0357 21.8396C31.3661 20.5127 33.101 19.6675 34.9659 19.4377C36.8307 19.2079 38.7189 19.6066 40.3316 20.5708L41.017 20.9792C41.6379 21.3539 42.3762 21.4839 43.0878 21.3438L45.6253 20.8333" stroke="#05C7F2" stroke-width="2.91667" stroke-linecap="round" stroke-linejoin="round"/>
<path d="M45.6248 19.375L47.0832 35.4167H44.1665" stroke="#05C7F2" stroke-width="2.91667" stroke-linecap="round" stroke-linejoin="round"/>
<path d="M19.3748 19.375L17.9165 35.4167L27.3957 44.8958C27.9758 45.476 28.7627 45.8019 29.5832 45.8019C30.4036 45.8019 31.1905 45.476 31.7707 44.8958C32.3508 44.3157 32.6768 43.5288 32.6768 42.7083C32.6768 41.8879 32.3508 41.101 31.7707 40.5208" stroke="#05C7F2" stroke-width="2.91667" stroke-linecap="round" stroke-linejoin="round"/>
<path d="M19.375 20.8334H31.0417" stroke="#05C7F2" stroke-width="2.91667" stroke-linecap="round" stroke-linejoin="round"/>
</svg>
