<svg width="24" height="24" viewBox="0 0 24 24" fill="none" xmlns="http://www.w3.org/2000/svg">
<path d="M6.94146 5.00091C6.94109 5.81522 6.44706 6.548 5.69232 6.85371C4.93758 7.15943 4.07285 6.97703 3.50588 6.39253C2.93891 5.80802 2.78293 4.93813 3.11148 4.19305C3.44004 3.44797 4.18752 2.97648 5.00146 3.00091C6.08253 3.03336 6.94195 3.91935 6.94146 5.00091ZM7.00146 8.48091H3.00146V21.0009H7.00146V8.48091ZM13.3215 8.48091H9.34146V21.0009H13.2815V14.4309C13.2815 10.7709 18.0515 10.4309 18.0515 14.4309V21.0009H22.0015V13.0709C22.0015 6.90091 14.9415 7.13091 13.2815 10.1609L13.3215 8.48091Z" fill="#CAEBFB" fill-opacity="0.7"/>
</svg>
