<svg width="43" height="32" viewBox="0 0 43 32" fill="none" xmlns="http://www.w3.org/2000/svg">
<path d="M31.4753 23.2096H12.1613C11.4919 23.2096 10.8844 22.8708 10.5332 22.3047C10.182 21.7385 10.1489 21.0402 10.4505 20.4452L20.1077 1.12694C20.4341 0.474037 21.0912 0.0690918 21.8184 0.0690918C22.5457 0.0690918 23.2027 0.474037 23.5292 1.12694L33.1863 20.437C33.4838 21.0361 33.4549 21.7303 33.1037 22.2965C32.7524 22.8626 32.145 23.2014 31.4756 23.2014L31.4753 23.2096ZM21.8181 0.895565C21.3966 0.895565 21.033 1.11871 20.8471 1.49473L11.1899 20.8087C11.0205 21.1475 11.037 21.5442 11.2395 21.8666C11.4379 22.1889 11.785 22.3831 12.1651 22.3831H31.4752C31.8553 22.3831 32.1983 22.1889 32.4008 21.8666C32.5991 21.5442 32.6198 21.1475 32.4504 20.8087L22.7893 1.4987C22.5992 1.12266 22.2397 0.899532 21.8182 0.899532L21.8181 0.895565Z" fill="#EBF3FF"/>
<path d="M22.472 15.3567H21.1662C20.6993 15.3567 20.3067 14.9889 20.2737 14.522L19.8315 7.74938C19.8026 7.31137 19.9596 6.87747 20.2571 6.55929C20.5547 6.24112 20.9803 6.05518 21.4183 6.05518H22.2158C22.6538 6.05518 23.0753 6.23699 23.377 6.55929C23.6745 6.87747 23.8315 7.31137 23.8026 7.74938L23.3604 14.522C23.3315 14.9889 22.9389 15.3567 22.4679 15.3567H22.472ZM21.4224 6.88569C21.2075 6.88569 21.0133 6.97247 20.8646 7.12536C20.7158 7.27826 20.6456 7.48487 20.658 7.6956L21.1001 14.4682C21.1001 14.5013 21.1332 14.5302 21.1662 14.5302H22.472C22.5051 14.5302 22.534 14.5013 22.5381 14.4682L22.9803 7.69957C22.9927 7.48882 22.9224 7.28222 22.7737 7.12933C22.6249 6.97645 22.4307 6.88966 22.2158 6.88966H21.4183L21.4224 6.88569Z" fill="#EBF3FF"/>
<path d="M21.8189 19.6943C20.9057 19.6943 20.166 18.9546 20.166 18.0414C20.166 17.1282 20.9057 16.3885 21.8189 16.3885C22.7321 16.3885 23.4718 17.1282 23.4718 18.0414C23.4718 18.9546 22.7321 19.6943 21.8189 19.6943ZM21.8189 17.215C21.3643 17.215 20.9925 17.5869 20.9925 18.0414C20.9925 18.496 21.3643 18.8679 21.8189 18.8679C22.2735 18.8679 22.6454 18.496 22.6454 18.0414C22.6454 17.5869 22.2735 17.215 21.8189 17.215Z" fill="#EBF3FF"/>
<path d="M20.0002 26.1801V22.9074H24.0002V26.1801H26.182L22.182 31.271L17.8184 26.1801H20.0002Z" stroke="#EBF3FF" stroke-width="0.727273"/>
<path d="M30.5451 22.9074V26.1801H28.3633L32.7269 31.271L36.7269 26.1801H34.5451V22.9074" stroke="#EBF3FF" stroke-width="0.727273"/>
<path d="M34.5449 22.907V7.63428" stroke="#EBF3FF" stroke-width="0.727273" stroke-dasharray="1.45 1.45"/>
<path d="M9.45508 23.2728V8.00003" stroke="#EBF3FF" stroke-width="0.727273" stroke-dasharray="1.45 1.45"/>
<path d="M30.5449 16L30.5449 8.00003" stroke="#EBF3FF" stroke-width="0.727273" stroke-dasharray="1.45 1.45"/>
<path d="M13.0918 16L13.0918 8.00003" stroke="#EBF3FF" stroke-width="0.727273" stroke-dasharray="1.45 1.45"/>
<path d="M9.45526 22.9074V26.1801H7.27344L11.6371 31.271L15.6371 26.1801H13.4553V22.9074" stroke="#EBF3FF" stroke-width="0.727273"/>
</svg>
