<svg width="37" height="37" viewBox="0 0 37 37" fill="none" xmlns="http://www.w3.org/2000/svg">
<path fill-rule="evenodd" clip-rule="evenodd" d="M26.8214 10.4772L29.1402 9.13639L31.9159 13.9537L29.5991 15.2926C29.8917 16.3103 30.0501 17.3861 30.0501 18.5002C30.0501 19.6122 29.8937 20.688 29.5991 21.7077L31.9159 23.0466L29.1402 27.8639L26.8214 26.5231C25.3363 28.0686 23.4243 29.2007 21.2777 29.7306V32.4103H15.7243V29.7306C13.5779 29.2008 11.6659 28.0666 10.1807 26.5231L7.8619 27.8639L5.08612 23.0466L7.40291 21.7077C7.11031 20.69 6.95197 19.6142 6.95197 18.5002C6.95197 17.3881 7.1103 16.3123 7.40291 15.2926L5.08612 13.9537L7.8619 9.13639L10.1807 10.4772C11.6657 8.93167 13.5777 7.7996 15.7243 7.26967V4.59004H21.2777V7.26967C23.4242 7.80161 25.3341 8.93167 26.8214 10.4772ZM3.36054 26.9102C-0.38923 20.15 0.805231 11.7095 6.26253 6.24361C12.9847 -0.488872 24.0155 -0.488872 30.7372 6.24361L29.9295 7.05252L32.6431 7.30743L32.3886 4.58962L31.581 5.39852C24.394 -1.79951 12.6058 -1.79951 5.41885 5.39852C-0.413134 11.2395 -1.68399 20.2642 2.32041 27.488C2.48075 27.775 2.84148 27.8794 3.13008 27.7188C3.41667 27.5602 3.52087 27.1972 3.36054 26.9102ZM33.6395 10.0898C37.3892 16.85 36.1948 25.2905 30.7375 30.7564C24.0153 37.4889 12.9865 37.4889 6.26283 30.7564L7.0705 29.9475L4.35686 29.6926L4.61138 32.4104L5.41905 31.6015C12.606 38.7995 24.3942 38.7995 31.5811 31.6015C37.4131 25.7605 38.684 16.7357 34.6796 9.51202C34.5193 9.22499 34.1585 9.12061 33.8699 9.28119C33.5833 9.43976 33.4791 9.80275 33.6395 10.0898ZM22.8754 16.6733L21.5967 15.3926L17.5744 19.4211L15.4059 17.2493L14.1273 18.5299L16.9351 21.3421C17.2878 21.6953 17.861 21.6953 18.2138 21.3421L22.8754 16.6733ZM18.5004 11.1576C14.452 11.1576 11.1692 14.4454 11.1692 18.5C11.1692 22.5546 14.452 25.8424 18.5004 25.8424C22.5487 25.8424 25.8315 22.5546 25.8315 18.5C25.8315 14.4454 22.5487 11.1576 18.5004 11.1576Z" fill="white"/>
</svg>
