<svg width="30" height="33" viewBox="0 0 30 33" fill="none" xmlns="http://www.w3.org/2000/svg">
<path d="M16.3176 7.78076V6.00833L12.6462 6.00978V14.2251C12.6757 14.2353 12.7012 14.2454 12.7293 14.257C13.1875 12.7747 14.029 11.4751 15.1305 10.5004C14.5757 9.39517 15.18 8.02007 16.3176 7.78076ZM21.2098 15.5115C21.5127 15.1663 21.9977 15.6609 21.6962 16.009L19.7801 18.2137C19.6488 18.366 19.425 18.366 19.2937 18.2137L18.1414 16.888C17.8385 16.5399 18.3263 16.0453 18.6278 16.3905L19.5376 17.4392L21.2098 15.5115ZM19.9181 11.1137C22.8499 11.1137 25.2282 13.6868 25.2282 16.8616C25.2282 20.0381 22.8511 22.611 19.9181 22.611C16.9863 22.611 14.6081 20.0379 14.6081 16.8616C14.6081 13.6866 16.9852 11.1137 19.9181 11.1137ZM23.1997 13.3097C21.3854 11.3487 18.4481 11.3487 16.6366 13.3097C14.825 15.2736 14.825 18.4531 16.6366 20.414C18.4481 22.3765 21.3854 22.375 23.1997 20.414C25.0112 18.453 25.0112 15.2721 23.1997 13.3097ZM15.5595 11.06C12.3838 13.855 12.1332 19.0113 15.0315 22.1501C17.7302 25.0684 22.1064 25.0684 24.8022 22.1501C27.5009 19.2289 27.5009 14.4947 24.8022 11.5735C23.1461 9.77791 20.7261 8.98593 18.365 9.57339C18.3972 11.1631 16.6904 12.055 15.5595 11.06ZM18.2233 8.86403C20.8134 8.22292 23.4612 9.0932 25.2793 11.06C26.6675 12.5656 27.4822 14.5759 27.4996 16.8603V27.1104H29.6663C29.9637 27.1104 30.1138 27.5093 29.8981 27.7341L25.4295 32.3696C25.3009 32.5031 25.0945 32.506 24.9659 32.3696L20.5144 27.7512C20.2638 27.509 20.4327 27.1101 20.7288 27.1101H22.787V24.4558C20.4099 25.5103 17.7006 25.1767 15.6102 23.6088V28.4214C15.6102 29.5962 14.699 30.6347 13.2251 31.3658C10.2156 32.8568 5.39452 32.8568 2.38241 31.3658C0.911143 30.6362 0 29.5977 0 28.4214V17.4242C0 17.2312 0.0241188 17.0398 0.0750368 16.8527L0.0736965 0.36261C0.0736965 0.16245 0.22377 0 0.408681 0H4.75001C4.93626 0 5.08633 0.16245 5.08633 0.36261V3.9162C5.45882 4.00032 5.78713 4.21499 6.02965 4.51379V2.93715C6.02965 2.73554 6.17973 2.57309 6.36464 2.57309H10.706C10.8922 2.57309 11.0423 2.73554 11.0423 2.93715V5.89315C11.4094 5.96857 11.7337 6.17163 11.9776 6.45591V5.64656C11.9776 5.4464 12.1277 5.28395 12.3139 5.28395H16.6552C16.8401 5.28395 16.9902 5.4464 16.9902 5.64656V7.78451C17.5383 7.90635 18.0005 8.31393 18.223 8.86362L18.2233 8.86403ZM17.3885 8.80746C16.7279 8.09239 15.5929 8.6015 15.5929 9.61392C15.5929 10.6263 16.7265 11.134 17.3885 10.4175C17.7998 9.9722 17.7998 9.2513 17.3885 8.80746ZM10.3698 5.90078V3.29869H6.69843V13.4025C7.92447 13.314 9.18804 13.3735 10.3698 13.5838V9.55023C9.03659 9.25725 8.52607 7.4587 9.49885 6.40714C9.73066 6.15476 10.0335 5.9733 10.3698 5.90078ZM11.0398 9.55737V13.7202C11.3614 13.7941 11.6749 13.8797 11.9751 13.9784V8.99309C11.7312 9.28028 11.4056 9.48051 11.0398 9.55737ZM11.4592 6.92045C10.7986 6.20537 9.66234 6.71448 9.66234 7.7269C9.66234 8.73788 10.7986 9.24844 11.4592 8.53336C11.8692 8.08519 11.8692 7.36576 11.4592 6.92045ZM4.41381 3.91221V0.728488H0.742416V15.6679C1.62944 14.6831 3.09938 14.0812 4.41381 13.7592V7.57753C3.06449 7.30484 2.53253 5.49178 3.51337 4.42715C3.75456 4.16462 4.06544 3.98183 4.41381 3.91221ZM5.08378 7.56735V13.6112C5.3933 13.5532 5.70819 13.5039 6.0271 13.4676V6.96964C5.78591 7.27133 5.45627 7.48466 5.08378 7.56735ZM5.47503 4.9377C4.81443 4.22263 3.67816 4.73174 3.67816 5.74416C3.67816 6.75514 4.81443 7.26425 5.47503 6.54772C5.88505 6.10389 5.88505 5.38154 5.47503 4.9377ZM26.8284 20.2399C26.1343 21.9007 24.9417 23.2699 23.4571 24.1183V27.4732C23.4571 27.6748 23.307 27.8373 23.1207 27.8373H21.5597L25.1965 31.6098L28.8332 27.8373H27.1623C26.9774 27.8373 26.8273 27.6748 26.8273 27.4732V20.24L26.8284 20.2399ZM12.5458 14.9561C9.69441 13.7407 5.3584 13.803 2.6612 15.1389C0.0081023 16.453 0.0081023 18.3995 2.6612 19.7135C5.44828 21.0928 9.99199 21.1131 12.8302 19.7686C12.2955 18.2442 12.1934 16.5575 12.5458 14.9561ZM13.0925 20.4315C10.075 21.8588 5.35044 21.8385 2.38088 20.3677C1.66265 20.0123 1.07844 19.5816 0.668426 19.1V21.0363C0.668426 21.9037 1.42953 22.713 2.66092 23.3222C5.4882 24.7233 10.119 24.7233 12.9462 23.3222C13.5063 23.0437 13.9699 22.7261 14.3076 22.3794C13.8225 21.7992 13.4128 21.1452 13.0925 20.4315ZM14.939 23.0481C14.884 22.9959 14.8304 22.9437 14.7782 22.8915C14.3816 23.3034 13.8549 23.6704 13.2239 23.9808C10.2144 25.4718 5.39327 25.4718 2.38117 23.9808C1.66294 23.6254 1.07874 23.1946 0.668717 22.7131V24.7321C0.668717 25.5965 1.42982 26.4088 2.66121 27.018C5.4885 28.4176 10.1193 28.4176 12.9465 27.018C14.1765 26.4088 14.939 25.5965 14.939 24.7321L14.939 23.0481ZM14.939 26.4059C14.5289 26.8889 13.9447 27.3197 13.2238 27.6736C10.2143 29.1647 5.39325 29.1647 2.38115 27.6736C1.66292 27.3183 1.07872 26.8875 0.6687 26.4059V28.4221C0.6687 29.2894 1.4298 30.0988 2.6612 30.7109C5.48848 32.1105 10.1192 32.1105 12.9465 30.7109C14.1765 30.1002 14.939 29.2894 14.939 28.4221V26.4059Z" fill="white"/>
</svg>
