<svg width="27" height="31" viewBox="0 0 27 31" fill="none" xmlns="http://www.w3.org/2000/svg">
<path d="M9.19203 11.7544C9.19203 11.52 9.38135 11.3281 9.61832 11.3281L13.9178 11.3269C14.1523 11.3269 14.3441 11.5162 14.3441 11.7532C14.3441 11.9876 14.1548 12.1795 13.9178 12.1795L9.6196 12.1807C9.38514 12.1807 9.19203 11.9876 9.19203 11.7544ZM9.61957 9.82481H17.852C18.0865 9.82481 18.2783 9.63549 18.2783 9.39852C18.2783 9.16406 18.089 8.97223 17.852 8.97223L9.61957 8.97098C9.38511 8.97098 9.19328 9.1603 9.19328 9.39727C9.19203 9.6355 9.38512 9.82481 9.61957 9.82481ZM3.99604 11.5964V9.55773C3.99604 8.986 4.4587 8.52456 5.02921 8.52456H7.06793C7.63965 8.52456 8.10109 8.98722 8.10109 9.55773V11.5964C8.10109 12.1682 7.63843 12.6296 7.06793 12.6296H5.02921C4.45748 12.6296 3.99604 12.1644 3.99604 11.5964ZM4.84612 11.5964C4.84612 11.6955 4.92636 11.7795 5.02918 11.7795H7.0679C7.16695 11.7795 7.25096 11.6993 7.25096 11.5964V9.55773C7.25096 9.45868 7.17071 9.37467 7.0679 9.37467H5.02918C4.93013 9.37467 4.84612 9.45492 4.84612 9.55773V11.5964ZM3.99604 18.0199V15.9811C3.99604 15.4094 4.4587 14.948 5.02921 14.948H7.06793C7.63965 14.948 8.10109 15.4106 8.10109 15.9811V18.0199C8.10109 18.5916 7.63843 19.053 7.06793 19.053H5.02921C4.45748 19.053 3.99604 18.5904 3.99604 18.0199ZM4.84612 18.0199C4.84612 18.1189 4.92636 18.2029 5.02918 18.2029H7.0679C7.16695 18.2029 7.25096 18.1227 7.25096 18.0199V15.9811C7.25096 15.8821 7.17071 15.7981 7.0679 15.7981H5.02918C4.93013 15.7981 4.84612 15.8783 4.84612 15.9811V18.0199ZM3.99604 25.055V23.0163C3.99604 22.4446 4.4587 21.9832 5.02921 21.9832H7.06793C7.63965 21.9832 8.10109 22.4458 8.10109 23.0163V25.055C8.10109 25.6268 7.63843 26.0882 7.06793 26.0882H5.02921C4.45748 26.0882 3.99604 25.623 3.99604 25.055ZM4.84612 25.055C4.84612 25.1541 4.92636 25.2381 5.02918 25.2381H7.0679C7.16695 25.2381 7.25096 25.1579 7.25096 25.055V23.0163C7.25096 22.9173 7.17071 22.8333 7.0679 22.8333H5.02918C4.93013 22.8333 4.84612 22.9135 4.84612 23.0163V25.055ZM9.61938 18.604H13.9176C14.1521 18.604 14.3439 18.4147 14.3439 18.1777C14.3439 17.9433 14.1546 17.7514 13.9176 17.7514L9.61938 17.7502C9.38491 17.7502 9.19309 17.9395 9.19309 18.1765C9.19183 18.4147 9.38492 18.604 9.61938 18.604ZM9.61938 16.2506H15.422C15.6565 16.2506 15.8483 16.0613 15.8483 15.8243C15.8483 15.5899 15.659 15.398 15.422 15.398L9.61938 15.3968C9.38491 15.3968 9.19309 15.5861 9.19309 15.8231C9.19183 16.0575 9.38492 16.2506 9.61938 16.2506ZM9.61938 25.6367H13.9176C14.1521 25.6367 14.3439 25.4473 14.3439 25.2104C14.3439 24.9759 14.1546 24.7841 13.9176 24.7841L9.61938 24.7828C9.38491 24.7828 9.19309 24.9721 9.19309 25.2091C9.19183 25.4461 9.38492 25.6367 9.61938 25.6367ZM9.61938 23.2832H16.029C16.2634 23.2832 16.4553 23.0939 16.4553 22.857C16.4553 22.6225 16.2659 22.4307 16.029 22.4307L9.61938 22.4294C9.38491 22.4294 9.19309 22.6187 9.19309 22.8557C9.19183 23.0939 9.38492 23.2832 9.61938 23.2832ZM22.2755 23.2318V27.6064C22.2755 29.2402 20.9465 30.5692 19.3127 30.5692H2.96278C1.32907 30.5692 0 29.2402 0 27.6064V6.16481C0 4.5311 1.32904 3.20203 2.96278 3.20203H6.96505C7.029 2.70801 7.45027 2.3231 7.9631 2.3231H8.9649C9.16426 1.30499 10.0633 0.535156 11.1378 0.535156C12.2136 0.535156 13.1113 1.30499 13.3106 2.3231H14.3124C14.8265 2.3231 15.2465 2.70801 15.3105 3.20203H19.3127C20.9465 3.20203 22.2755 4.53107 22.2755 6.16481V12.9731C24.9173 13.1912 27 15.4055 27 18.1023C27.0038 20.7992 24.9174 23.0139 22.2755 23.2318ZM19.3127 4.05086H15.323V4.82069H19.3102C20.0512 4.82069 20.6555 5.42377 20.6555 6.16603V13.0959C20.9063 13.0345 21.1621 12.9931 21.4254 12.9706V6.16616C21.4254 5.00011 20.4775 4.05086 19.3127 4.05086ZM2.96278 5.6708C2.68945 5.6708 2.4713 5.89272 2.4713 6.16228V27.6039C2.4713 27.8772 2.69323 28.0954 2.96278 28.0954H19.3137C19.587 28.0954 19.8052 27.8735 19.8052 27.6039L19.8039 22.8281C17.9771 22.0356 16.6995 20.2151 16.6995 18.1036C16.6995 15.9921 17.9796 14.1716 19.8039 13.3791V6.16581C19.8039 5.89248 19.582 5.67433 19.3125 5.67433H15.3067C15.2264 6.14954 14.8126 6.51564 14.3111 6.51564H7.96313C7.46286 6.51564 7.05162 6.14954 6.96759 5.67433H2.96275L2.96278 5.6708ZM7.80248 5.50153C7.80248 5.59181 7.8727 5.66202 7.96297 5.66202H14.3122C14.4025 5.66202 14.4727 5.59181 14.4727 5.50153V3.33118C14.4727 3.24467 14.3987 3.17069 14.3122 3.17069H12.9255C12.691 3.17069 12.4992 2.98137 12.4992 2.7444C12.4992 1.99338 11.8899 1.384 11.1388 1.384C10.3878 1.384 9.77467 1.99334 9.77467 2.7444C9.77467 2.97886 9.58534 3.17069 9.34838 3.17069H7.96166C7.87514 3.17069 7.80117 3.24467 7.80117 3.33118L7.79866 5.50153H7.80248ZM21.4251 27.6063V23.2317C21.1618 23.2091 20.9048 23.1677 20.6553 23.1063V27.6038C20.6553 28.3449 20.0522 28.9492 19.3099 28.9492L2.96253 28.9479C2.22152 28.9479 1.61718 28.3449 1.61718 27.6026V6.16097C1.61718 5.41996 2.22027 4.81562 2.96253 4.81562H6.94971V4.04579L2.96253 4.04705C1.79773 4.04705 0.851104 4.99367 0.851104 6.15847V27.6001C0.851104 28.7649 1.79773 29.7115 2.96253 29.7115H19.3134C20.477 29.719 21.4251 28.7686 21.4251 27.6063ZM26.1496 18.0999C26.1496 15.7277 24.2199 13.7994 21.8491 13.7994C19.4769 13.7994 17.5486 15.7291 17.5486 18.0999C17.5486 20.4721 19.4783 22.4004 21.8491 22.4004C24.2199 22.4004 26.1496 20.4707 26.1496 18.0999ZM24.092 16.3784L20.9299 18.8986L19.6648 17.4066C19.5143 17.2273 19.2448 17.2047 19.0642 17.3552C18.8849 17.5056 18.8623 17.7752 19.0128 17.9557L20.5437 19.7662C20.6277 19.8653 20.7493 19.9167 20.8684 19.9167C20.9612 19.9167 21.054 19.8879 21.1342 19.8239L24.6197 17.048C24.8028 16.9 24.8354 16.6342 24.6874 16.4511C24.5445 16.2631 24.2776 16.2317 24.092 16.3784Z" fill="white"/>
</svg>
