<svg width="126" height="136" viewBox="0 0 126 136" fill="none" xmlns="http://www.w3.org/2000/svg">
<path d="M37.9845 0.16032C36.3109 0.479034 35.4741 0.713879 33.8766 1.26744C29.0841 2.96167 24.7936 6.26625 21.6747 10.6276C19.5599 13.5967 17.9776 17.1529 17.1256 20.8098C16.5627 23.2756 16.5322 23.6447 16.5322 27.5699C16.5322 31.4449 16.73 32.8371 17.6733 36.0579C18.2514 37.9869 19.8033 41.4257 20.8835 43.1703C25.6 50.7356 33.1767 55.1641 41.3925 55.1641C46.9305 55.1641 52.286 53.0505 56.7742 49.1085C61.445 44.9987 64.7465 38.8424 65.8572 32.1829C66.268 29.7338 66.2071 24.6679 65.7507 22.1182C64.5183 15.2742 60.8517 9.01728 55.7092 4.95784C52.8033 2.69328 48.7867 0.864849 45.2417 0.227417C43.7811 -0.0409775 39.2473 -0.0745239 37.9845 0.16032ZM44.6332 5.83012C53.351 7.4908 59.8475 15.0393 61.0038 24.886C61.3233 27.6538 60.9886 31.3945 60.1822 34.2462C57.9457 42.0296 51.8752 47.8 44.4658 49.1923C41.7272 49.6956 38.0605 49.4272 35.4132 48.5046C34.0744 48.0517 31.564 46.7265 30.4686 45.8877C25.6456 42.2812 22.4506 36.5611 21.6899 30.1364C20.4727 19.8201 26.1933 9.87278 35.2002 6.68562C38.38 5.56172 41.6055 5.25978 44.6332 5.83012Z" fill="white"/>
<path d="M89.0595 44.7457C86.4883 46.1548 83.6432 47.8993 81.2698 49.5433C78.8203 51.2375 74.6667 54.0388 70.4828 56.8234L66.9074 59.1886H42.6861C21.5686 59.1886 18.2215 59.2222 16.7457 59.457C12.1814 60.1448 8.72769 62.2584 4.98496 66.5862C2.53545 69.4211 0.998796 72.5915 0.238077 76.4161C0.00986205 77.5735 -0.0205667 78.7645 0.00986205 87.1182C0.0250764 92.2848 0.101148 101.259 0.162006 107.08C0.298935 118.906 0.268506 118.621 1.39437 120.282C2.07902 121.271 3.43309 122.278 4.66546 122.697C5.10667 122.848 6.46075 123.016 7.86047 123.1C9.19934 123.184 24.8245 123.251 42.5949 123.251L74.895 123.267L75.3666 123.871C76.1121 124.794 79.2006 127.763 80.8894 129.172C83.0803 130.984 84.3583 131.89 87.3251 133.751C91.7829 136.519 91.8894 136.536 94.841 134.875C101.84 130.917 108.077 125.23 113.92 117.463C117.997 112.062 120.645 106.828 122.698 100.119C123.216 98.4578 124.387 93.5932 124.539 92.4861C124.57 92.2009 124.722 91.379 124.859 90.6409C125.544 86.8666 126 79.1503 126 71.0985C126 65.7642 125.97 65.0765 125.726 64.5565C125.437 63.919 124.813 63.4661 120.219 60.6145C118.758 59.7086 116.947 58.568 116.187 58.0815C115.441 57.595 112.977 56.0518 110.71 54.6595C102.235 49.3755 98.6598 47.1445 97.9143 46.6413C97.4731 46.3729 96.1342 45.5677 94.9323 44.8632C92.0111 43.1689 91.9503 43.1689 89.0595 44.7457ZM94.8714 50.5665C96.3929 51.4556 99.7096 53.5188 102.266 55.1292C108.808 59.2725 110.816 60.5306 113.19 61.9732C114.331 62.6777 116.658 64.1203 118.362 65.1771L121.436 67.1062V71.3334C121.436 84.1659 120.386 92.5196 117.83 100.119C115.837 106.023 114.148 109.16 109.553 115.383C108.184 117.245 103.468 122.429 101.809 123.888C98.9945 126.371 92.6501 130.816 91.9198 130.816C91.646 130.816 86.7317 127.528 84.4648 125.817C81.1024 123.301 78.9724 121.154 76.1577 117.48C71.35 111.156 67.516 102.802 65.5381 94.3145C64.108 88.2254 63.3168 80.0897 63.3168 71.6857V67.3243L65.7511 65.7642C68.1702 64.2042 78.2573 57.4776 86.2601 52.0762C88.0858 50.8517 91.4482 48.9561 91.8285 48.9561C91.9959 48.9561 93.3652 49.6775 94.8714 50.5665ZM33.3445 65.261C33.7097 66.8546 33.9987 67.9114 34.4856 69.6056L35.0029 71.3669L34.5617 74.3864C34.3335 76.0303 34.09 77.6909 34.0292 78.06C33.9379 78.731 33.9075 78.9826 33.6488 80.66C33.5727 81.1633 33.4815 81.851 33.4358 82.1698C33.2076 83.9311 32.0817 91.5467 31.5949 94.7507C30.5147 101.662 30.5299 101.762 33.025 104.48C33.8314 105.352 35.6571 107.382 37.072 108.992C38.5022 110.586 39.8715 112.012 40.1453 112.129C41.2408 112.649 42.9448 112.196 43.5686 111.206C43.7664 110.905 47.9199 106.09 49.9586 103.792C50.5215 103.155 51.1301 102.333 51.2975 101.947C51.8604 100.756 51.8604 100.773 50.0195 88.695C48.924 81.5323 48.9697 81.851 48.5589 79.0665C47.4939 72.0044 47.5091 72.105 47.7982 71.1824C48.1481 70.1592 49.3196 65.2275 49.3196 64.8416C49.3196 64.5732 49.7456 64.5565 54.1273 64.5565C58.646 64.5565 58.9351 64.5732 58.8134 64.8416C58.5243 65.5797 58.7982 80.3749 59.1329 81.8343C59.1633 81.9685 59.2394 82.9582 59.285 84.0149C59.3459 85.0717 59.4067 85.9776 59.4372 86.0279C59.4676 86.0782 59.5284 86.5647 59.5741 87.1182C59.7262 88.6112 60.3957 92.4358 60.8369 94.2474C61.0499 95.1197 61.3846 96.512 61.5976 97.3507C63.0734 103.406 66.1011 110.452 69.5547 115.903L70.7567 117.816L41.0582 117.866C24.7332 117.9 10.1731 117.866 8.72769 117.799C6.38468 117.715 6.04996 117.665 5.60875 117.329C5.19796 117.027 5.10667 116.826 5.00017 116.054C4.93932 115.551 4.90889 106.744 4.9241 96.512L4.96974 77.8922L5.41096 76.4664C6.36947 73.296 7.98219 70.7127 10.2948 68.5991C12.7899 66.3178 15.1329 65.1436 18.0237 64.741C18.541 64.6571 22.162 64.59 26.0721 64.5732L33.1772 64.5565L33.3445 65.261ZM42.5949 65.7307C43.9946 66.6701 44.0707 69.0353 42.7622 70.1424C42.0015 70.7631 41.6211 70.8302 40.8604 70.5114C39.5824 69.9747 38.8978 68.5824 39.2629 67.2404C39.4455 66.5862 40.0541 65.781 40.5714 65.5462C41.1343 65.3113 42.0776 65.3784 42.5949 65.7307ZM42.0167 76.0638L43.1578 75.9799L43.5229 78.1942C43.7055 79.4187 44.3749 83.6459 44.9835 87.6215C45.6073 91.5803 46.2159 95.4384 46.3376 96.1765C46.4745 96.9146 46.6419 97.9881 46.7027 98.5753L46.8397 99.6153L45.4552 101.259C44.6944 102.148 43.4621 103.591 42.7014 104.446L41.3321 106.006L38.5935 102.97C36.57 100.739 35.8397 99.8166 35.8093 99.4811C35.794 99.2295 36.2048 96.1262 36.7525 92.57C37.3003 89.0138 37.7719 85.8434 37.8176 85.5247C37.9697 84.4343 38.8217 78.731 39.0651 77.2045L39.3086 75.678L40.0845 75.9128C40.6018 76.0806 41.2712 76.1309 42.0167 76.0638Z" fill="white"/>
<path d="M107.056 73.6166C106.34 73.8682 105.945 74.3211 103.678 77.4747C102.506 79.0851 99.92 82.6748 97.9269 85.4426C95.9338 88.2104 93.2409 91.9512 91.9324 93.746C90.6392 95.5409 89.559 97.0506 89.5133 97.101C89.4373 97.2016 89.5133 97.3022 85.725 92.1357C80.7651 85.3923 80.7194 85.3252 80.0957 84.9562C79.4871 84.6207 78.1939 84.6039 77.6157 84.9394C76.7028 85.4594 76.216 86.7175 76.5051 87.8414C76.5507 88.0595 78.133 90.2905 80.0044 92.7899C81.8757 95.3061 84.447 98.7449 85.725 100.439C88.0984 103.626 88.4788 103.979 89.5133 103.979C90.198 103.979 90.8522 103.509 91.7194 102.351C92.5106 101.311 98.1095 93.6118 103.602 86.0297C105.428 83.4968 107.573 80.578 108.349 79.5715C109.125 78.5483 109.885 77.4915 110.038 77.2231C110.616 76.1999 110.281 74.7573 109.262 73.9185C108.805 73.5495 107.679 73.3985 107.056 73.6166Z" fill="white"/>
</svg>
