<svg width="28" height="29" viewBox="0 0 28 29" fill="none" xmlns="http://www.w3.org/2000/svg">
<path d="M27.3106 5.74327L28 0.773438L23.3523 2.66238L24.7099 3.7205L23.7677 4.99236L21.8788 3.10342L19.4058 4.81026C18.7104 4.43397 17.9774 4.12844 17.2203 3.90414L16.6785 0.949528H11.2162L10.6744 3.90414C9.91731 4.12992 9.18428 4.43396 8.4889 4.81026L6.01593 3.10342L2.15389 6.96546L3.86073 9.43842C3.48444 10.1338 3.17891 10.8668 2.95462 11.6239L0 12.1657V17.628L2.95462 18.1698C3.18039 18.9269 3.48443 19.6599 3.86073 20.3553L2.15389 22.8283L2.93959 23.6125L1.92663 25.1041C1.05816 25.1718 0.371793 25.8988 0.371793 26.7854C0.371793 27.7155 1.12887 28.4711 2.05756 28.4711C2.98775 28.4711 3.74483 27.714 3.74483 26.7854C3.74483 26.6138 3.71924 26.4482 3.66957 26.2856L4.45527 25.1267L6.01461 26.686L8.48758 24.9792C9.18297 25.3555 9.91596 25.661 10.6731 25.8853L11.2149 28.8399H16.6772L17.219 25.8853C17.9761 25.6595 18.7091 25.3555 19.4045 24.9792L21.8775 26.686L25.7395 22.824L24.0326 20.351C24.4089 19.6556 24.7145 18.9226 24.9388 18.1655L27.8934 17.6237V12.1614L24.9388 11.6196C24.713 10.8625 24.409 10.1295 24.0326 9.43411L25.7395 6.96114L24.9749 6.19652L25.9893 4.71243L27.3106 5.74327ZM2.93466 22.7558L4.56925 20.3867L4.47593 20.2227C4.04846 19.4656 3.71431 18.6573 3.48104 17.8234L3.42987 17.6428L0.600171 17.1235V12.6654L3.42987 12.1461L3.48104 11.9655C3.71434 11.1316 4.0485 10.3249 4.47593 9.56628L4.56925 9.40222L2.93466 7.03313L6.08644 3.88135L8.45553 5.51594L8.61959 5.42262C9.37666 4.99515 10.1849 4.661 11.0188 4.42773L11.1994 4.37656L11.7187 1.54686H16.1768L16.6961 4.37656L16.8768 4.42773C17.7106 4.66103 18.5174 4.99519 19.276 5.42262L19.44 5.51594L21.8091 3.88135L23.4076 5.4798L20.0722 9.98609C18.5881 8.13776 16.3304 7.04804 13.9506 7.04804C9.62468 7.04804 6.10288 10.5671 6.10288 14.8958C6.10288 15.9795 6.31962 17.0241 6.74409 18.0084L3.28524 23.105L2.93466 22.7558ZM18.7508 14.4803C18.805 14.6113 18.8351 14.7513 18.8351 14.8958C18.8351 15.4948 18.3474 15.981 17.7499 15.981C17.3796 15.981 17.0394 15.7958 16.8377 15.4843C16.7234 15.3097 16.6632 15.1065 16.6632 14.8973C16.6632 14.8702 16.6632 14.8446 16.6662 14.819C16.6782 14.6369 16.7384 14.4623 16.8378 14.3088V14.3073C17.0379 13.9972 17.3781 13.812 17.7469 13.812C17.7679 13.812 17.789 13.812 17.8161 13.8151C17.8417 13.8166 17.8673 13.8181 17.8914 13.8226C18.2707 13.8722 18.6033 14.1221 18.7508 14.4803ZM20.7451 12.3852C21.0416 13.1859 21.1922 14.0273 21.1922 14.8958C21.1922 18.8903 17.941 22.1417 13.9463 22.1417C11.7367 22.1417 9.69274 21.1633 8.311 19.4489L10.2602 16.5786C10.7267 16.5425 11.1542 16.3167 11.4462 15.9495H16.4341C16.7532 16.3484 17.2319 16.5831 17.7497 16.5831C18.6799 16.5831 19.4369 15.8261 19.4369 14.8959C19.4369 14.7273 19.4128 14.5632 19.3647 14.4052L20.7451 12.3852ZM10.0256 15.9765C10.0196 15.9765 10.0105 15.9734 10.0045 15.9734C9.98645 15.9704 9.96688 15.9689 9.94731 15.9659C9.93828 15.9644 9.92925 15.9629 9.92022 15.9599C9.90366 15.9569 9.88711 15.9539 9.87055 15.9494C9.86152 15.9464 9.85249 15.9433 9.84195 15.9403C9.8269 15.9358 9.81185 15.9313 9.7968 15.9283C9.78777 15.9253 9.77723 15.9223 9.76669 15.9178C9.75164 15.9117 9.7381 15.9087 9.72455 15.9027C9.71552 15.8997 9.70498 15.8937 9.69445 15.8907C9.6809 15.8846 9.66735 15.8786 9.65381 15.8726C9.64477 15.8681 9.63424 15.8621 9.6237 15.8576C9.61166 15.8515 9.59811 15.8455 9.58607 15.8365C9.57704 15.8305 9.56651 15.8244 9.55748 15.8184L9.52135 15.7958C9.51232 15.7898 9.50329 15.7823 9.49426 15.7763C9.48222 15.7672 9.47168 15.7597 9.46115 15.7522C9.45212 15.7462 9.44308 15.7371 9.43405 15.7311C9.42352 15.7221 9.41298 15.7131 9.40245 15.704C9.39342 15.6965 9.38438 15.689 9.37686 15.6799C9.36783 15.6709 9.35729 15.6619 9.34676 15.6513C9.33772 15.6423 9.3317 15.6333 9.32267 15.6243C9.31364 15.6152 9.30461 15.6032 9.29558 15.5941C9.28805 15.5851 9.28053 15.5761 9.273 15.5656C9.26397 15.555 9.25645 15.5445 9.24892 15.5324C9.2429 15.5234 9.23537 15.5114 9.22785 15.5023C9.22032 15.4903 9.2128 15.4798 9.20527 15.4677C9.19925 15.4572 9.19323 15.4466 9.18721 15.4361C9.18119 15.4241 9.17216 15.412 9.16614 15.4C9.16012 15.3894 9.1556 15.3789 9.15109 15.3669C9.14507 15.3533 9.13754 15.3398 9.13152 15.3247L9.12851 15.3187C9.07131 15.1832 9.04271 15.0418 9.04271 14.8957C9.04271 14.2967 9.53037 13.8105 10.1279 13.8105C10.4982 13.8105 10.8384 13.9957 11.04 14.3072C11.1544 14.4818 11.2131 14.6865 11.2131 14.8957C11.2131 14.9228 11.2131 14.9484 11.2101 14.974C11.1981 15.1561 11.1379 15.3322 11.0385 15.4842C10.8384 15.7943 10.4997 15.9795 10.1309 15.981H10.1038C10.0767 15.9795 10.0527 15.978 10.0256 15.9765ZM11.755 14.4442H16.123C16.1185 14.4623 16.1139 14.4788 16.1109 14.4954C16.1079 14.5104 16.1019 14.527 16.0989 14.5435C16.0929 14.5676 16.0899 14.5917 16.0868 14.6158C16.0838 14.6308 16.0808 14.6459 16.0793 14.6609C16.0763 14.688 16.0733 14.7136 16.0703 14.7407C16.0688 14.7528 16.0673 14.7663 16.0673 14.7799C16.0643 14.819 16.0628 14.8581 16.0628 14.8988C16.0628 14.9394 16.0643 14.9785 16.0673 15.0177C16.0673 15.0297 16.0703 15.0432 16.0703 15.0568C16.0733 15.0839 16.0748 15.1095 16.0793 15.1351C16.0823 15.1501 16.0853 15.1652 16.0883 15.1817C16.0914 15.2058 16.0959 15.2269 16.1004 15.251C16.1034 15.269 16.1094 15.2841 16.1124 15.3021C16.1154 15.3187 16.12 15.3352 16.1245 15.3503H11.7565C11.761 15.3322 11.7655 15.3157 11.7686 15.2991C11.7716 15.2841 11.7776 15.2675 11.7806 15.251C11.7866 15.2269 11.7896 15.2043 11.7926 15.1802C11.7956 15.1652 11.7987 15.1501 11.8002 15.1351C11.8032 15.108 11.8062 15.0824 11.8092 15.0568C11.8107 15.0448 11.8122 15.0312 11.8122 15.0177C11.8152 14.9785 11.8167 14.9394 11.8167 14.8988C11.8167 14.8596 11.8152 14.8205 11.8122 14.7799C11.8122 14.7678 11.8092 14.7543 11.8092 14.7407C11.8062 14.7136 11.8047 14.688 11.8002 14.6624C11.7971 14.6474 11.7941 14.6323 11.7926 14.6173C11.7896 14.5932 11.7851 14.5706 11.7806 14.5481C11.7776 14.5315 11.7731 14.5149 11.7686 14.4999C11.7625 14.4773 11.7595 14.4608 11.755 14.4442ZM17.6839 13.21C17.1902 13.2281 16.7357 13.4598 16.4316 13.8421H11.4452C11.1261 13.4418 10.646 13.2085 10.1297 13.2085C9.1995 13.2085 8.44243 13.9656 8.44243 14.8958C8.44243 15.0643 8.46952 15.2314 8.51768 15.3925L7.1495 17.4079C6.85298 16.6071 6.70245 15.7643 6.70245 14.8958C6.70245 10.9012 9.95357 7.6499 13.9484 7.6499C16.1985 7.6499 18.3313 8.70651 19.6996 10.4886L17.6839 13.21ZM8.84277 15.987C8.85481 16.0005 8.86685 16.0141 8.8789 16.0261C8.89094 16.0381 8.90298 16.0532 8.91502 16.0652C8.93007 16.0803 8.94663 16.0953 8.96318 16.1119L8.99931 16.148C9.01737 16.1631 9.03543 16.1781 9.05349 16.1932C9.06553 16.2022 9.07757 16.2143 9.08961 16.2233C9.11069 16.2413 9.13477 16.2564 9.15735 16.273C9.16638 16.279 9.17541 16.2865 9.18444 16.2925C9.21755 16.3136 9.24916 16.3347 9.28378 16.3542C9.29281 16.3603 9.30485 16.3648 9.31388 16.3693C9.33796 16.3828 9.36205 16.3964 9.38613 16.4084C9.39967 16.4144 9.41322 16.4205 9.42827 16.4265C9.44935 16.4355 9.47042 16.4476 9.4945 16.4566C9.50955 16.4626 9.5246 16.4686 9.53966 16.4746C9.55772 16.4807 9.57578 16.4897 9.59384 16.4957L3.349 25.6952C3.33696 25.6816 3.32491 25.6696 3.31287 25.656C3.30083 25.644 3.28879 25.629 3.27675 25.6169C3.2617 25.6019 3.24514 25.5868 3.22858 25.5703C3.21654 25.5582 3.2045 25.5462 3.19246 25.5356C3.1744 25.5206 3.15634 25.5055 3.13827 25.4905C3.12623 25.4814 3.11419 25.4694 3.10215 25.4604C3.08108 25.4438 3.0585 25.4273 3.03593 25.4122C3.02689 25.4062 3.01786 25.3972 3.00733 25.3911C2.97421 25.3701 2.94261 25.349 2.90799 25.3279C2.90046 25.3234 2.89294 25.3189 2.88391 25.3159C2.85681 25.3008 2.83123 25.2858 2.80413 25.2737C2.79209 25.2677 2.77855 25.2617 2.765 25.2557C2.74242 25.2451 2.71985 25.2346 2.69576 25.2256C2.68071 25.2196 2.66566 25.2135 2.65211 25.209C2.63405 25.2015 2.61449 25.194 2.59492 25.1879L8.84277 15.987ZM2.05771 27.8702C1.45866 27.8702 0.974006 27.384 0.974006 26.7865C0.974006 26.1889 1.45866 25.7028 2.05621 25.7013H2.0833C2.11039 25.7013 2.13749 25.7043 2.16157 25.7058C2.5559 25.7434 2.90211 25.9948 3.05712 26.362C3.11432 26.496 3.14292 26.639 3.14292 26.7835C3.14442 27.384 2.65677 27.8702 2.05771 27.8702ZM24.9614 7.03605L23.3268 9.40513L23.4201 9.56919C23.8476 10.3263 24.1817 11.1345 24.415 11.9684L24.4662 12.149L27.2959 12.6683V17.1264L24.4662 17.6457L24.415 17.8264C24.1817 18.6602 23.8475 19.467 23.4201 20.2256L23.3268 20.3896L24.9614 22.7587L21.8096 25.9105L19.4405 24.2759L19.2765 24.3692C18.5194 24.7967 17.7111 25.1309 16.8772 25.3641L16.6966 25.4153L16.1773 28.245H11.7192L11.1999 25.4153L11.0193 25.3641C10.1854 25.1308 9.37868 24.7967 8.62007 24.3692L8.45601 24.2759L6.08692 25.9105L4.80003 24.6236L7.95933 19.9698C9.45544 21.7353 11.6153 22.7437 13.9483 22.7437C18.2743 22.7437 21.7961 19.2247 21.7961 14.896C21.7961 13.8153 21.5809 12.7707 21.1564 11.7893L24.6333 6.70778L24.9614 7.03605ZM19.0417 13.8122C19.0327 13.8032 19.0237 13.7942 19.0162 13.7836C19.0041 13.7701 18.9921 13.7566 18.98 13.7415C18.968 13.7295 18.956 13.7159 18.9424 13.7024C18.9274 13.6873 18.9153 13.6753 18.9003 13.6602C18.8897 13.6512 18.8777 13.6407 18.8671 13.6301C18.8491 13.6151 18.834 13.6 18.816 13.585C18.813 13.582 18.81 13.5804 18.8069 13.5789C18.7257 13.5142 18.6414 13.457 18.5511 13.4074H18.5496C18.5225 13.3923 18.4924 13.3773 18.4638 13.3652C18.4608 13.3622 18.4547 13.3622 18.4517 13.3592C18.4246 13.3471 18.396 13.3351 18.3674 13.3231C18.3644 13.3216 18.3584 13.3201 18.3554 13.317L25.547 3.60126L24.5445 2.82762L27.2613 1.72434L26.8579 4.62778L25.8585 3.84813L19.0417 13.8122Z" fill="white"/>
</svg>
