<svg width="31" height="31" viewBox="0 0 31 31" fill="none" xmlns="http://www.w3.org/2000/svg">
<path fill-rule="evenodd" clip-rule="evenodd" d="M14.2201 15.0985C13.0943 13.9727 11.5393 13.2764 9.82125 13.2764C8.10325 13.2764 6.54819 13.9727 5.42271 15.0985C4.29688 16.2243 3.60065 17.7794 3.60065 19.4974C3.60065 21.2154 4.29688 22.7704 5.42271 23.8963C6.54853 25.0221 8.10359 25.7183 9.82125 25.7183C11.5389 25.7183 13.0943 25.0221 14.2201 23.8963C15.346 22.7704 16.0422 21.2154 16.0422 19.4974C16.0422 17.7794 15.346 16.2243 14.2201 15.0985ZM9.82125 12.343C11.7967 12.343 13.5855 13.1436 14.8801 14.4385C16.1747 15.7331 16.9756 17.522 16.9756 19.4974C16.9756 21.4728 16.175 23.2616 14.8801 24.5562C13.5855 25.8508 11.797 26.6518 9.82125 26.6518C7.8455 26.6518 6.05699 25.8508 4.76241 24.5562C3.46783 23.2616 2.66685 21.4731 2.66685 19.4974C2.66685 17.5216 3.46749 15.7331 4.76241 14.4385C6.05699 13.1439 7.8455 12.343 9.82125 12.343ZM10.2881 23.7672C10.2881 24.025 10.079 24.2341 9.82125 24.2341C9.5635 24.2341 9.35435 24.025 9.35435 23.7672V23.314C8.94325 23.2236 8.57597 23.0169 8.28878 22.7297C7.8965 22.3374 7.65415 21.7956 7.65415 21.1972C7.65415 20.9395 7.8633 20.7303 8.12105 20.7303C8.3788 20.7303 8.58795 20.9395 8.58795 21.1972C8.58795 21.5378 8.72589 21.8462 8.94907 22.0694C9.15274 22.2731 9.42761 22.4059 9.73328 22.4274C9.76169 22.422 9.79113 22.4192 9.82125 22.4192C9.85137 22.4192 9.88081 22.422 9.90922 22.4274C10.2149 22.4059 10.4898 22.2731 10.6934 22.0694C10.9166 21.8462 11.0546 21.5378 11.0546 21.1972C11.0546 20.8796 10.9286 20.6105 10.7249 20.4069C10.4894 20.1714 10.1533 20.0159 9.78086 19.9612C9.7682 19.9602 9.75553 19.9584 9.74286 19.9564C9.13802 19.851 8.61259 19.6062 8.23983 19.2335C7.87117 18.8648 7.65415 18.3822 7.65415 17.7965C7.65415 17.1981 7.89684 16.6563 8.28878 16.264C8.57597 15.9768 8.94325 15.7701 9.35435 15.6797V15.2265C9.35435 14.9687 9.5635 14.7596 9.82125 14.7596C10.079 14.7596 10.2881 14.9687 10.2881 15.2265V15.6797C10.6992 15.7701 11.0665 15.9768 11.3537 16.264C11.746 16.6563 11.9883 17.1981 11.9883 17.7965C11.9883 18.0542 11.7792 18.2634 11.5215 18.2634C11.2637 18.2634 11.0546 18.0542 11.0546 17.7965C11.0546 17.4559 10.9166 17.1475 10.6934 16.9243C10.4898 16.7206 10.2149 16.5878 9.90922 16.5663C9.88081 16.5717 9.85137 16.5745 9.82125 16.5745C9.79113 16.5745 9.76169 16.5717 9.73328 16.5663C9.42761 16.5878 9.15308 16.7206 8.94907 16.9243C8.72589 17.1475 8.58795 17.4559 8.58795 17.7965C8.58795 18.1162 8.70364 18.3767 8.90012 18.5735C9.1346 18.808 9.48443 18.9651 9.89998 19.0373L9.91128 19.0394C10.4833 19.1225 11.0083 19.3693 11.3856 19.7469C11.7583 20.1197 11.9887 20.6129 11.9887 21.1972C11.9887 21.7956 11.746 22.3374 11.3541 22.7297C11.0669 23.0169 10.6996 23.2236 10.2885 23.314L10.2881 23.7672ZM21.8243 4.41395C21.7185 4.30818 21.5724 4.2428 21.4108 4.2428C21.2493 4.2428 21.1031 4.30818 20.9973 4.41395C20.8916 4.51972 20.8262 4.66588 20.8262 4.82745C20.8262 4.98901 20.8916 5.13517 20.9973 5.24094C21.1031 5.34671 21.2493 5.41209 21.4108 5.41209C21.5724 5.41209 21.7185 5.34671 21.8243 5.24094C21.9301 5.13517 21.9955 4.98901 21.9955 4.82745C21.9955 4.66588 21.9301 4.51972 21.8243 4.41395ZM21.4108 3.30901C21.8301 3.30901 22.2097 3.47913 22.4846 3.75365C22.7595 4.02852 22.9293 4.40813 22.9293 4.82745C22.9293 5.24676 22.7591 5.62637 22.4846 5.90124C22.2097 6.17611 21.8301 6.34589 21.4108 6.34589C20.9915 6.34589 20.6119 6.17576 20.337 5.90124C20.0622 5.62637 19.8924 5.24676 19.8924 4.82745C19.8924 4.40813 20.0625 4.02852 20.337 3.75365C20.6119 3.47879 20.9915 3.30901 21.4108 3.30901ZM25.7864 8.53386C25.6807 8.42809 25.5345 8.36271 25.3729 8.36271C25.2114 8.36271 25.0652 8.42809 24.9594 8.53386C24.8537 8.63963 24.7883 8.78579 24.7883 8.94736C24.7883 9.10892 24.8537 9.25509 24.9594 9.36086C25.0652 9.46663 25.2114 9.53201 25.3729 9.53201C25.5345 9.53201 25.6807 9.46663 25.7864 9.36086C25.8922 9.25509 25.9576 9.10892 25.9576 8.94736C25.9576 8.78579 25.8922 8.63963 25.7864 8.53386ZM25.3729 7.42892C25.7923 7.42892 26.1719 7.59904 26.4467 7.87357C26.7216 8.14843 26.8914 8.52804 26.8914 8.94736C26.8914 9.36668 26.7213 9.74629 26.4467 10.0212C26.1719 10.296 25.7923 10.4658 25.3729 10.4658C24.9536 10.4658 24.574 10.2957 24.2991 10.0212C24.0243 9.74629 23.8545 9.36668 23.8545 8.94736C23.8545 8.52804 24.0246 8.14843 24.2991 7.87357C24.574 7.5987 24.9536 7.42892 25.3729 7.42892ZM21.8993 10.3296C21.7685 10.551 21.4827 10.6246 21.2612 10.4935C21.0398 10.3628 20.9662 10.0769 21.0973 9.85548L24.8848 3.44524C25.0156 3.22377 25.3014 3.15018 25.5229 3.28128C25.7443 3.41204 25.8179 3.69786 25.6868 3.91933L21.8993 10.3296ZM27.602 2.67746C28.6795 3.75502 29.3457 5.24334 29.3457 6.8874C29.3457 8.53147 28.6792 10.0201 27.602 11.0973C26.5244 12.1749 25.0361 12.841 23.392 12.841C21.748 12.841 20.2593 12.1746 19.1821 11.0973C18.1046 10.0198 17.4384 8.53147 17.4384 6.8874C17.4384 5.24334 18.1049 3.75468 19.1821 2.67746C20.2597 1.59991 21.748 0.933792 23.392 0.933792C25.0361 0.933792 26.5248 1.60025 27.602 2.67746ZM23.392 0C21.4902 0 19.7685 0.770858 18.5218 2.01717C17.2755 3.26348 16.5046 4.98525 16.5046 6.88706C16.5046 8.78888 17.2755 10.5106 18.5218 11.7573C19.7681 13.0039 21.4899 13.7745 23.392 13.7745C25.2942 13.7745 27.0156 13.0036 28.2619 11.7573C29.5083 10.511 30.2791 8.78922 30.2791 6.88706C30.2791 4.9849 29.5083 3.26348 28.2619 2.01717C27.0156 0.770858 25.2939 0 23.392 0ZM16.1069 13.2117C17.7154 14.8202 18.7101 17.0424 18.7101 19.4967C18.7101 21.951 17.7154 24.1732 16.1069 25.7816C14.4984 27.3901 12.2762 28.3848 9.82194 28.3848C7.36765 28.3848 5.14544 27.3901 3.53698 25.7816C1.92851 24.1732 0.933792 21.951 0.933792 19.4967C0.933792 17.0424 1.92851 14.8202 3.53698 13.2117C5.14544 11.6033 7.36765 10.6085 9.82194 10.6085C12.2762 10.6085 14.4984 11.6033 16.1069 13.2117ZM9.82194 9.67475C12.534 9.67475 14.9896 10.7742 16.7672 12.5514C18.5447 14.329 19.6439 16.7843 19.6439 19.4967C19.6439 22.2091 18.5444 24.6644 16.7672 26.4419C14.9896 28.2195 12.5343 29.3186 9.82194 29.3186C7.10956 29.3186 4.65424 28.2192 2.87668 26.4419C1.09912 24.6644 0 22.2091 0 19.4967C0 16.7843 1.09947 14.329 2.87668 12.5514C4.65424 10.7739 7.10956 9.67475 9.82194 9.67475ZM22.3754 24.2543V16.8466C22.3754 16.5888 22.5846 16.3797 22.8423 16.3797H27.8409C28.0987 16.3797 28.3078 16.5888 28.3078 16.8466V24.2543H30.3404C30.4598 24.2543 30.5793 24.2998 30.6704 24.3909C30.8525 24.573 30.8525 24.8687 30.6704 25.0508L25.6718 30.0494C25.4897 30.2315 25.1939 30.2315 25.0118 30.0494L20.0156 25.0532C19.9297 24.9687 19.8763 24.8509 19.8763 24.7209C19.8763 24.4631 20.0854 24.254 20.3432 24.254H22.3758L22.3754 24.2543ZM23.3089 17.41V24.8177C23.3089 25.0755 23.0997 25.2846 22.842 25.2846H21.4694L25.3411 29.1564L29.2128 25.2846H27.8402C27.5825 25.2846 27.3733 25.0755 27.3733 24.8177V17.41H23.3082H23.3089Z" fill="white"/>
</svg>
