<svg width="34" height="30" viewBox="0 0 34 30" fill="none" xmlns="http://www.w3.org/2000/svg">
<path fill-rule="evenodd" clip-rule="evenodd" d="M8.56594 3.90587H24.5727C25.1924 3.90587 25.6934 4.40779 25.6934 5.02529V7.16392C23.6629 7.99943 21.2237 8.53123 18.5779 8.71143V8.38223C18.5779 7.64737 17.9801 7.04966 17.2462 7.04966H15.8925C15.1585 7.04966 14.5608 7.64737 14.5608 8.38223V8.71143C11.915 8.53123 9.47572 7.99943 7.44519 7.16392V5.02529C7.44519 4.40779 7.94623 3.90587 8.56594 3.90587ZM14.8509 1.86921C14.9519 1.33828 15.2025 1.02096 15.3871 1.02096H17.7516C17.9318 1.02096 18.1867 1.33828 18.2878 1.86921L18.4856 2.88491H14.6531L14.8509 1.86921ZM15.5804 10.8694C15.5804 11.0377 15.7211 11.1801 15.8925 11.1801H17.2462C17.4132 11.1801 17.5582 11.0377 17.5582 10.8694V8.38223C17.5582 8.21346 17.4132 8.07107 17.2462 8.07107H15.8925C15.7211 8.07107 15.5804 8.21346 15.5804 8.38223V10.8694ZM24.5727 15.9061C25.1924 15.9061 25.6934 15.4042 25.6934 14.7867V8.26269C23.6278 9.05731 21.1929 9.56185 18.5779 9.73459V10.8694C18.5779 11.6034 17.9801 12.2011 17.2462 12.2011H15.8925C15.1585 12.2011 14.5608 11.6034 14.5608 10.8694V9.73459C11.9457 9.56185 9.51088 9.05731 7.44519 8.26269V14.7867C7.44519 15.4042 7.94623 15.9061 8.56594 15.9061H24.5727ZM8.56594 16.9271H24.5727C25.755 16.9271 26.7131 15.9672 26.7131 14.7867V5.02529C26.7131 3.84478 25.755 2.88491 24.5727 2.88491H19.5272L19.2899 1.6745C19.0921 0.657498 18.49 0 17.7516 0H15.3871C14.6487 0 14.0466 0.657498 13.8488 1.6745L13.6115 2.88491H8.56594C7.38367 2.88491 6.42554 3.84478 6.42554 5.02529V14.7867C6.42554 15.9672 7.38367 16.9271 8.56594 16.9271ZM32.3256 21.3133L22.8015 26.4516C19.7821 27.8356 16.4682 27.6136 13.3346 27.168C12.2534 27.0142 11.5985 26.9671 10.5349 26.9671H8.02535V21.8407C8.13523 21.817 8.23631 21.7577 8.31103 21.6702C9.35706 20.4194 12.227 19.7443 14.3938 19.7443C16.2179 19.7443 16.479 19.8909 17.4659 20.2207C17.5143 20.237 17.567 20.2458 17.6197 20.2458L23.0301 20.2805C23.4036 20.2827 23.7069 20.5846 23.7069 20.9538C23.7069 21.3498 23.3421 21.5938 22.9817 21.6298L16.0156 22.3207C15.4789 22.3736 15.3808 23.1271 15.8925 23.3091C21.9796 25.4803 25.6011 23.4814 30.1808 20.9516C30.6686 20.6835 31.1697 20.4066 31.6839 20.128C32.0098 19.9523 32.425 20.0769 32.5981 20.4009C32.7739 20.7279 32.6508 21.1371 32.3256 21.3133ZM7.0057 27.8461C7.0057 28.0821 6.81232 28.2742 6.57498 28.2742H1.45035C1.21303 28.2742 1.02403 28.0821 1.02403 27.8461V20.9864C1.02403 20.7508 1.21303 20.5587 1.45035 20.5587H6.57498C6.81232 20.5587 7.0057 20.7508 7.0057 20.9864V27.8461ZM33.4991 19.9162C33.0539 19.095 32.0201 18.7855 31.2004 19.2292C30.6818 19.5101 30.1764 19.7883 29.6885 20.0572C25.9264 22.1335 23.0344 23.7311 18.9207 23.0586L23.0828 22.6455C24.0365 22.5514 24.7265 21.8394 24.7265 20.9538C24.7265 20.0252 23.9706 19.2648 23.0388 19.2595L17.7076 19.2253C17.6285 19.1993 17.5582 19.1751 17.4879 19.151C16.7012 18.8842 16.2265 18.7229 14.3938 18.7229C12.8291 18.7229 9.66031 19.1237 7.96381 20.5754C7.78801 19.9764 7.23424 19.5377 6.57498 19.5377H1.45035C0.650452 19.5377 0 20.1878 0 20.9864V27.8461C0 28.6452 0.650452 29.2952 1.45035 29.2952H6.57498C7.33093 29.2952 7.94623 28.7208 8.02095 27.9881H10.5349C11.5414 27.9881 12.1655 28.0329 13.1895 28.1789C14.5784 28.3762 16.0024 28.5313 17.4307 28.5313C19.3909 28.5313 21.3555 28.2408 23.241 27.3719L32.809 22.2117C33.6309 21.7687 33.9385 20.7385 33.4991 19.9162Z" fill="white"/>
</svg>
