<svg width="78" height="78" viewBox="0 0 78 78" fill="none" xmlns="http://www.w3.org/2000/svg">
<rect x="0.5" y="0.5" width="77" height="77" rx="9.5" fill="url(#paint0_linear_1486_3093)" fill-opacity="0.2" stroke="url(#paint1_linear_1486_3093)"/>
<g clip-path="url(#clip0_1486_3093)">
<path d="M36.8324 21.0369C36.9543 21.0348 37.0762 21.0327 37.2019 21.0305C37.8546 21.0321 38.3056 21.0442 38.8286 21.4513C39.2043 21.8765 39.3199 22.2942 39.2955 22.8521C39.1487 23.3415 38.9402 23.6463 38.5484 23.9728C38.2017 24.143 37.9454 24.1759 37.562 24.1596C34.7756 24.1217 32.0782 24.9343 29.9565 26.7745C29.881 26.8365 29.8056 26.8985 29.7278 26.9624C27.6962 28.6878 26.4395 31.3134 26.1964 33.9511C26.1316 34.7793 26.1137 35.6015 26.1118 36.4318C26.1111 36.6659 26.1096 36.9 26.1079 37.1341C26.1031 37.7988 26.0986 38.4636 26.0971 39.1283C26.0842 44.2402 24.8407 48.5761 21.2177 52.3254C20.9577 52.5819 20.6762 52.8131 20.3884 53.0376C20.223 53.1986 20.223 53.1986 20.2046 53.4461C20.2176 53.5203 20.2306 53.5945 20.244 53.6709C20.5677 53.8867 20.6892 53.881 21.071 53.8812C21.1858 53.8816 21.3006 53.8821 21.4189 53.8826C21.5471 53.8822 21.6752 53.8818 21.8033 53.8814C21.9389 53.8816 22.0744 53.8819 22.21 53.8822C22.5835 53.883 22.9569 53.8826 23.3304 53.8821C23.7328 53.8816 24.1352 53.8823 24.5376 53.8828C25.3263 53.8836 26.115 53.8835 26.9037 53.8829C27.5445 53.8825 28.1854 53.8824 28.8262 53.8826C28.9629 53.8827 28.9629 53.8827 29.1023 53.8827C29.2873 53.8828 29.4723 53.8828 29.6573 53.8829C31.3939 53.8834 33.1304 53.8828 34.8669 53.8818C36.3578 53.881 37.8487 53.8811 39.3397 53.882C41.0697 53.883 42.7997 53.8834 44.5297 53.8828C44.7141 53.8828 44.8985 53.8827 45.0829 53.8826C45.1736 53.8826 45.2643 53.8826 45.3578 53.8826C45.998 53.8824 46.6383 53.8827 47.2785 53.8831C48.0585 53.8836 48.8385 53.8835 49.6185 53.8825C50.0167 53.882 50.4149 53.8818 50.8131 53.8824C51.1773 53.883 51.5416 53.8827 51.9058 53.8817C52.0378 53.8815 52.1699 53.8816 52.3019 53.882C52.4809 53.8826 52.6599 53.8819 52.8389 53.8812C52.9882 53.8811 52.9882 53.8811 53.1406 53.8811C53.3979 53.8576 53.5519 53.8035 53.771 53.6709C53.771 53.486 53.771 53.301 53.771 53.1105C53.7165 53.0862 53.6619 53.0618 53.6058 53.0367C51.139 51.6991 49.3538 47.9592 48.5671 45.4026C48.4452 44.9862 48.3358 44.5677 48.2376 44.1451C48.2235 44.0855 48.2094 44.0259 48.1948 43.9645C47.9155 42.6702 47.8526 41.3415 47.8528 40.0215C47.8524 39.7876 47.849 39.5537 47.8455 39.3198C47.8449 39.1682 47.8446 39.0165 47.8444 38.8649C47.8424 38.7621 47.8424 38.7621 47.8403 38.6573C47.8448 38.1501 47.9727 37.7485 48.261 37.3276C48.7086 36.9713 49.074 36.8259 49.6502 36.8344C50.1036 36.8944 50.4168 37.1418 50.7242 37.4735C50.99 37.8723 50.9844 38.233 50.989 38.6956C50.9914 38.8421 50.9939 38.9886 50.9964 39.1351C50.9976 39.2117 50.9989 39.2883 51.0001 39.3672C51.0634 42.9453 51.731 46.3156 54.1446 49.0948C54.239 49.2062 54.239 49.2062 54.3354 49.3198C54.736 49.7803 55.162 50.1939 55.6155 50.6007C56.4151 51.3249 56.8716 52.0463 56.9762 53.1445C57.0117 54.2287 56.7506 55.1067 56.0124 55.9122C55.4822 56.4499 54.8121 56.9066 54.0374 56.951C53.9647 56.9509 53.8921 56.9508 53.8172 56.9508C53.7334 56.9509 53.6496 56.951 53.5633 56.9511C53.472 56.9508 53.3808 56.9505 53.2868 56.9501C53.1902 56.9501 53.0936 56.9502 52.9941 56.9502C52.6747 56.9501 52.3554 56.9494 52.036 56.9486C51.8146 56.9485 51.5932 56.9483 51.3718 56.9482C50.789 56.9479 50.2062 56.947 49.6233 56.9459C49.0287 56.945 48.434 56.9446 47.8393 56.9441C46.6724 56.9431 45.5055 56.9415 44.3386 56.9395C44.3201 57.0354 44.3201 57.0354 44.3012 57.1333C44.2847 57.2172 44.2683 57.3012 44.2513 57.3877C44.2351 57.4709 44.2189 57.5541 44.2022 57.6398C43.8279 59.3756 42.5482 60.8521 41.0926 61.7991C39.2429 62.92 37.1153 63.2817 34.9879 62.7764C33.8502 62.408 32.8006 61.86 31.9177 61.0487C31.8519 60.9892 31.786 60.9297 31.7182 60.8685C30.7725 59.9714 30.1249 58.8491 29.7533 57.6038C29.721 57.4964 29.6887 57.3889 29.6555 57.2782C29.6315 57.1972 29.6076 57.1163 29.583 57.0329C29.4021 57.0324 29.4021 57.0324 29.2176 57.0319C28.0786 57.0284 26.9396 57.023 25.8006 57.0157C25.2151 57.0121 24.6296 57.009 24.0441 57.0076C23.4785 57.0062 22.9129 57.003 22.3474 56.9985C22.1321 56.9971 21.9169 56.9964 21.7016 56.9963C21.399 56.9961 21.0964 56.9936 20.7938 56.9905C20.7058 56.991 20.6178 56.9914 20.5271 56.9919C19.5833 56.9773 18.6832 56.6776 18.0026 56.0056C17.1658 55.0173 16.9684 54.0917 17.0489 52.8268C17.1625 51.773 17.9295 50.9963 18.6855 50.3263C19.2633 49.7988 19.7807 49.2612 20.244 48.6278C20.2808 48.5777 20.3177 48.5276 20.3557 48.476C22.4582 45.585 22.952 42.3596 22.9811 38.8693C22.9817 38.7926 22.9824 38.7159 22.9831 38.6369C22.9888 37.9177 22.9923 37.1985 22.9949 36.4793C22.9964 36.0814 22.9992 35.6835 23.0028 35.2857C23.0039 35.1368 23.0044 34.988 23.0045 34.8392C23.0046 33.4954 23.1717 32.1969 23.5651 30.907C23.5883 30.8307 23.6115 30.7544 23.6354 30.6757C24.0688 29.3203 24.7111 28.0064 25.5672 26.8679C25.6253 26.7903 25.6835 26.7126 25.7434 26.6326C27.8136 23.9661 30.4955 22.1737 33.7855 21.3579C33.8484 21.3414 33.9113 21.3249 33.976 21.308C34.9178 21.0684 35.8655 21.0471 36.8324 21.0369ZM32.8516 56.9395C33.2419 58.1103 34.0096 58.9465 35.1163 59.5019C36.2652 59.986 37.442 60.0707 38.6086 59.6055C39.9069 59.0137 40.6064 58.2392 41.1633 56.9395C38.4205 56.9395 35.6776 56.9395 32.8516 56.9395Z" fill="white" fill-opacity="0.7"/>
<path d="M57.1507 17.1523C59.2495 18.8595 60.6105 21.213 60.9362 23.9174C61.1655 26.8897 60.3088 29.5739 58.388 31.8526C56.5734 33.8325 54.0256 34.9518 51.3655 35.1067C48.5577 35.1737 46.057 34.1833 43.9749 32.3232C42.2052 30.6352 41.0259 28.2678 40.9543 25.8038C40.9347 24.4959 40.9402 23.2621 41.3501 22.0117C41.3794 21.9212 41.3794 21.9212 41.4093 21.829C42.293 19.2002 44.2187 17.1781 46.6721 15.9412C47.0679 15.7541 47.471 15.6079 47.8874 15.4743C47.9767 15.4453 47.9767 15.4453 48.0677 15.4157C51.1235 14.464 54.6555 15.1894 57.1507 17.1523ZM46.0196 20.1438C44.6193 21.5965 43.9952 23.3276 44.0145 25.3279C44.0671 27.0178 44.7035 28.5067 45.8329 29.763C45.8813 29.8201 45.9296 29.8772 45.9795 29.9359C47.1487 31.2227 48.933 31.8855 50.6253 32.031C52.5316 32.0848 54.3178 31.3738 55.6972 30.0742C55.7704 30.0023 55.8436 29.9305 55.919 29.8564C56.0172 29.7616 56.0172 29.7616 56.1174 29.6649C57.3705 28.3653 57.9186 26.5529 57.9002 24.7758C57.7807 22.7739 56.871 21.1098 55.4236 19.7557C52.6376 17.3808 48.6229 17.6718 46.0196 20.1438Z" fill="white" fill-opacity="0.7"/>
</g>
<defs>
<linearGradient id="paint0_linear_1486_3093" x1="41.1273" y1="1.41818" x2="39" y2="78" gradientUnits="userSpaceOnUse">
<stop stop-color="white" stop-opacity="0.7"/>
<stop offset="1" stop-color="white" stop-opacity="0.1"/>
</linearGradient>
<linearGradient id="paint1_linear_1486_3093" x1="8.50909" y1="4.25455" x2="68.7818" y2="78" gradientUnits="userSpaceOnUse">
<stop stop-color="white" stop-opacity="0.5"/>
<stop offset="0.5" stop-color="white" stop-opacity="0"/>
<stop offset="1" stop-color="white" stop-opacity="0.2"/>
</linearGradient>
<clipPath id="clip0_1486_3093">
<rect width="48" height="48" fill="white" transform="translate(15 15)"/>
</clipPath>
</defs>
</svg>
