<svg width="78" height="78" viewBox="0 0 78 78" fill="none" xmlns="http://www.w3.org/2000/svg">
<rect x="0.5" y="0.5" width="77" height="77" rx="9.5" fill="url(#paint0_linear_1484_2972)" fill-opacity="0.2" stroke="url(#paint1_linear_1484_2972)"/>
<path d="M47.713 17.4761C47.9868 17.4473 48.1661 17.4551 48.3292 17.5054C48.4058 17.5848 48.4518 17.6385 48.4815 17.6851C48.5085 17.7273 48.527 17.7731 48.5411 17.8452C48.5397 17.9257 48.5394 17.9589 48.5372 18.0903L48.5362 18.0991C48.5357 18.1601 48.5358 18.221 48.5352 18.2837C48.5332 18.4706 48.5283 18.6585 48.5235 18.854V18.8647C48.5216 18.9982 48.5202 19.1317 48.5186 19.2651C48.5146 19.5844 48.5077 19.9047 48.5001 20.2261L48.4756 21.2681L49.5176 21.2495C49.6308 21.2476 49.7439 21.2457 49.8604 21.2437L49.8594 21.2427C50.2812 21.2359 50.7043 21.2325 51.129 21.229H51.1309C51.3164 21.2271 51.5019 21.2245 51.6876 21.2212C52.4964 21.2071 53.1038 21.2542 53.6339 21.4097C54.1375 21.5575 54.6188 21.8189 55.1475 22.3042C55.8967 23.1101 56.0422 23.9829 56.0323 25.3569V25.8306C56.0324 26.247 56.0303 26.6639 56.0284 27.0825V27.0835C56.0266 27.5244 56.0268 27.9656 56.0264 28.4038L56.0206 30.8911C56.0174 31.8375 56.0151 32.7837 56.0137 33.729C56.0114 35.2464 56.0074 36.7641 56.003 38.2817C55.6705 38.1986 55.3365 38.1158 55.0001 38.0317V30.4995H18.4971L18.5001 31.5024L18.5294 40.8247C18.5317 41.7957 18.5338 42.7667 18.5362 43.7671V43.769C18.5396 44.64 18.5402 44.6402 18.544 45.5112C18.5457 45.8977 18.5465 46.2844 18.5469 46.6714C18.5475 47.1681 18.5489 47.6645 18.5518 48.1606L18.5528 48.6987L18.5567 49.4448C18.5561 49.5358 18.5554 49.541 18.5547 49.6431V49.6636C18.5637 50.3394 18.6728 51.266 19.3506 52.0005L19.4571 52.1147L19.5919 52.1919C20.3514 52.6234 21.0948 52.6823 21.7618 52.6812V52.6821L21.9893 52.6841C22.2405 52.6857 22.4916 52.6848 22.7393 52.6851V52.686L23.2764 52.689L24.7364 52.6938C25.243 52.6953 25.7497 52.6983 26.2579 52.7007H26.2589C27.2209 52.7051 28.183 52.7083 29.1446 52.7114C30.2388 52.715 31.333 52.7194 32.4278 52.7241C34.4558 52.7328 36.4839 52.7397 38.5118 52.7466C38.5606 52.8669 38.6096 52.9869 38.6583 53.1069V53.1079C38.6954 53.2 38.7324 53.2924 38.7706 53.3872L38.7715 53.3901C38.8201 53.5095 38.8723 53.6298 38.9239 53.7524C36.7845 53.7589 34.6452 53.7657 32.5059 53.769C31.2831 53.771 30.0594 53.7735 28.836 53.7778C27.7709 53.7816 26.7056 53.7838 25.6407 53.7847C25.0759 53.7852 24.5103 53.7868 23.9444 53.7896C23.4151 53.7921 22.8854 53.793 22.3555 53.7925H22.3536C22.1571 53.7926 21.9604 53.793 21.7637 53.7944C20.9721 53.8 20.3727 53.7456 19.8487 53.5864C19.3509 53.4352 18.8752 53.1746 18.3575 52.7007C17.6862 51.9815 17.4578 51.1745 17.4639 50.0483V50.0386L17.462 49.6997V48.7817L17.46 47.7788C17.4584 47.1292 17.4586 46.4792 17.459 45.8286C17.4594 45.2983 17.4595 44.7679 17.459 44.2378C17.459 44.1618 17.4581 44.0876 17.4581 44.0093V39.2378C17.459 37.9232 17.4584 36.6084 17.4561 35.2944C17.4538 33.9448 17.4526 32.5952 17.4532 31.2456C17.4535 30.4877 17.4539 29.7289 17.4522 28.9702C17.4508 28.3268 17.4506 27.6835 17.4522 27.0405C17.453 26.7108 17.4527 26.3792 17.4512 26.0474C17.45 25.6946 17.4515 25.3409 17.4532 24.9849V24.9712C17.4523 24.8747 17.4511 24.7783 17.4503 24.6792C17.4598 23.6733 17.8184 22.9011 18.5577 22.0981C19.1487 21.55 19.8208 21.2776 20.6339 21.229L20.9971 21.2222H21.2706V21.2231C21.5374 21.2247 21.8048 21.2283 22.0762 21.2319H22.0821L22.6397 21.2358C23.0883 21.2389 23.5376 21.2437 23.9874 21.2495L25.0245 21.2632L25.0001 20.2261L24.9942 19.9771C24.9879 19.6746 24.9831 19.3716 24.9796 19.0679V19.0649L24.9717 18.6567C24.9674 18.4738 24.9646 18.2892 24.963 18.0991V18.0903L24.9581 17.8442C24.9722 17.7725 24.9917 17.7272 25.0186 17.6851C25.0483 17.6386 25.0935 17.5846 25.17 17.5054C25.3299 17.4559 25.5055 17.4474 25.7706 17.4741C25.827 17.5082 25.8452 17.5289 25.8575 17.5425C25.8785 17.5657 25.9084 17.6034 25.961 17.6802C25.9744 17.6998 25.9871 17.7193 26.0001 17.7388V21.2495H47.5001V17.7437C47.5397 17.6851 47.5719 17.6359 47.6016 17.5942C47.6322 17.5513 47.6539 17.5231 47.669 17.5044C47.6722 17.5004 47.6744 17.4965 47.6768 17.4937C47.6848 17.4895 47.6967 17.4841 47.713 17.4761Z" stroke="white" stroke-opacity="0.7" stroke-width="2"/>
<path d="M47.4559 42.0864C50.0715 41.389 52.1086 41.4353 54.743 42.1392L54.745 42.1401C55.0194 42.2128 55.2939 42.2824 55.5634 42.3511C57.7079 42.8979 58.6125 43.1344 59.1346 43.3892C59.4985 43.5667 59.6101 43.7044 60.0731 44.3989C60.445 45.0802 60.57 45.699 60.5477 46.5317H60.5468V46.5425C60.545 46.6544 60.5437 46.7663 60.5419 46.8813C60.4905 48.9917 59.956 50.9842 59.0096 52.9009L59.0087 52.9028C58.9633 52.9953 58.9628 52.9968 58.9178 53.0884C57.6843 55.5719 55.7711 57.6526 53.4618 59.2231L52.995 59.5308L52.9911 59.5327C52.9134 59.5826 52.8357 59.6328 52.7557 59.6841C52.5109 59.8393 52.2616 59.9912 52.0067 60.145L51.9979 60.1509L51.9891 60.1558C51.9148 60.2028 51.84 60.2491 51.7635 60.2974C51.3844 60.5169 51.1021 60.5779 50.6786 60.5229C50.5154 60.4619 50.3558 60.3768 50.1473 60.2466L50.1366 60.2407L50.1259 60.2339C50.0194 60.171 50.0187 60.1712 49.91 60.1069H49.9091C45.9832 57.7495 43.0401 54.3788 41.8925 49.9966C41.8122 49.6694 41.7372 49.3397 41.6649 49.0063L41.663 48.9985L41.5917 48.6821C41.5047 48.1952 41.4817 47.697 41.4696 47.147L41.4589 46.5698V46.5581L41.4491 46.2378C41.4473 45.3338 41.7145 44.6305 42.3046 43.9487C42.7842 43.4953 43.4035 43.1869 44.1522 42.9409C44.9493 42.6791 45.7341 42.53 46.6395 42.2993H46.6405C46.9126 42.2298 47.1839 42.1579 47.455 42.0854L47.4559 42.0864Z" stroke="white" stroke-opacity="0.7" stroke-width="2"/>
<defs>
<linearGradient id="paint0_linear_1484_2972" x1="41.1273" y1="1.41818" x2="39" y2="78" gradientUnits="userSpaceOnUse">
<stop stop-color="white" stop-opacity="0.7"/>
<stop offset="1" stop-color="white" stop-opacity="0.1"/>
</linearGradient>
<linearGradient id="paint1_linear_1484_2972" x1="8.50909" y1="4.25455" x2="68.7818" y2="78" gradientUnits="userSpaceOnUse">
<stop stop-color="white" stop-opacity="0.5"/>
<stop offset="0.5" stop-color="white" stop-opacity="0"/>
<stop offset="1" stop-color="white" stop-opacity="0.2"/>
</linearGradient>
</defs>
</svg>
