<svg width="32" height="32" viewBox="0 0 32 32" fill="none" xmlns="http://www.w3.org/2000/svg">
<path fill-rule="evenodd" clip-rule="evenodd" d="M7.80038 4H23.2002C24.2077 4.00313 25.0243 4.78236 25.0265 5.74494V16.2404L26.9444 22.0137C27.0578 22.3502 26.9956 22.7179 26.7776 23.0034C26.5584 23.2878 26.2106 23.4555 25.8399 23.4534H25.6207V23.4784C25.7417 24.691 25.5924 25.6369 25.1573 26.3005C24.7059 26.988 23.9623 27.3631 22.9091 27.4047C20.5158 27.5787 19.5727 26.3213 18.2686 24.5826C17.9982 24.2222 17.7126 23.8409 17.3985 23.4523L14.0318 23.4534C14.0023 23.5794 13.95 23.7003 13.8769 23.8097C13.8726 23.8169 13.8671 23.8242 13.8606 23.8315C13.4811 24.2878 13.1421 24.7399 12.8248 25.1618C11.5207 26.9005 10.5776 28.1578 8.18434 27.9839C7.1311 27.9423 6.38748 27.5672 5.93608 26.8797C5.49995 26.2161 5.35165 25.2702 5.47268 24.0576V23.4544H5.16193C4.79123 23.4565 4.44233 23.2898 4.22316 23.0044C4.004 22.719 3.94186 22.3502 4.05634 22.0137L5.97422 16.2404V5.74494C5.9764 4.78236 6.79291 4.00315 7.80038 4ZM13.5749 23.2506C13.5738 23.2423 13.5727 23.2329 13.5727 23.2246V23.2204C13.5705 23.1923 13.5651 23.1641 13.5553 23.136C13.5335 23.0714 13.492 23.0131 13.4364 22.9704C13.3721 22.9214 13.2947 22.8902 13.2129 22.8808C12.9349 22.8652 12.6623 22.96 12.4595 23.1423L12.26 23.361C12.2512 23.3704 12.2425 23.3798 12.2338 23.3892L11.4935 24.1975C11.4313 24.2767 11.3234 24.3101 11.2242 24.2788C11.126 24.2475 11.0584 24.16 11.0595 24.06V19.5639C11.053 19.3264 10.8502 19.1368 10.6016 19.1368C10.353 19.1368 10.1502 19.3264 10.1448 19.5639V22.2714C10.1404 22.3953 10.0335 22.4932 9.90379 22.4932C9.77405 22.4932 9.66719 22.3953 9.66283 22.2714V18.7879C9.65629 18.5514 9.45349 18.3618 9.20599 18.3618C8.9574 18.3618 8.75459 18.5514 8.74806 18.7879V22.6269C8.74806 22.7529 8.64012 22.856 8.5071 22.856C8.37517 22.856 8.26723 22.7529 8.26723 22.6269V19.2994C8.26069 19.0629 8.05788 18.8733 7.8093 18.8733C7.56179 18.8733 7.3579 19.0629 7.35246 19.2994V22.6581C7.34809 22.782 7.24124 22.8799 7.11149 22.8799C6.98175 22.8799 6.87489 22.782 6.87053 22.6581V20.2151C6.86508 19.9776 6.66119 19.789 6.41369 19.789C6.1651 19.789 5.96229 19.9776 5.95576 20.2151V24.0613C5.95576 24.0749 5.95467 24.0884 5.95249 24.1019C5.84127 25.2114 5.96666 26.0625 6.34282 26.6355C6.70808 27.1897 7.32519 27.4928 8.21272 27.5272H8.22144C10.3454 27.6814 11.222 26.5136 12.4368 24.8958C12.7508 24.478 13.0855 24.0301 13.478 23.5582C13.5402 23.4665 13.574 23.3592 13.5762 23.2498L13.5749 23.2506ZM14.011 22.9943L17.0967 22.9954C17.0259 22.8099 17.0215 22.6078 17.0815 22.4193C17.1316 22.2693 17.2254 22.1359 17.353 22.0359C17.4118 21.9901 17.4773 21.9515 17.5459 21.9213H11.5384V22.9943H11.9571L12.1075 22.8308C12.1173 22.8193 12.1293 22.8089 12.1413 22.7985C12.4488 22.5266 12.8631 22.3911 13.2807 22.4255C13.4497 22.4474 13.6089 22.513 13.7408 22.6151C13.8673 22.7131 13.9609 22.8454 14.011 22.9943ZM6.62848 19.341L7.56943 16.5053H6.39078L4.51652 22.1527C4.44783 22.3496 4.48272 22.5652 4.61138 22.7329C4.73894 22.9006 4.94501 22.9986 5.162 22.9954H5.47275V20.215C5.47275 19.941 5.60468 19.6816 5.82928 19.5118C6.05497 19.342 6.34828 19.2795 6.62849 19.342L6.62848 19.341ZM8.30322 18.5367V18.5378C8.42098 18.1544 8.78733 17.8919 9.20493 17.8909C9.71958 17.8929 10.1371 18.2899 10.1415 18.7815C10.4316 18.6263 10.7859 18.6305 11.0727 18.7909C11.3605 18.9524 11.5361 19.2462 11.5371 19.5639V21.462H19.5533V18.0169C19.562 17.5273 19.9796 17.1356 20.4921 17.1356C21.0045 17.1356 21.4221 17.5273 21.4309 18.0169V19.6785C21.7972 19.4826 22.2551 19.5431 22.5517 19.8275C22.6128 19.8868 22.6651 19.9535 22.7076 20.0254C23.0816 19.7472 23.6126 19.7785 23.9473 20.0993C24.0422 20.19 24.1163 20.2994 24.1643 20.4192C24.1806 20.4087 24.1981 20.3983 24.2155 20.389L22.9268 16.5054H8.07432L7.41684 18.4848C7.7025 18.3587 8.03505 18.3796 8.30219 18.5379L8.30322 18.5367ZM25.1422 23.5214C25.14 23.5079 25.1389 23.4943 25.1389 23.4808V21.1691C25.1389 20.9275 24.9339 20.7316 24.681 20.7316C24.4291 20.7316 24.2241 20.9275 24.2241 21.1691V22.0786V22.0776C24.2241 22.2046 24.1162 22.3078 23.9832 22.3078C23.8502 22.3078 23.7422 22.2046 23.7422 22.0776V20.7326C23.7368 20.4951 23.534 20.3066 23.2854 20.3066C23.0368 20.3066 22.834 20.4951 22.8285 20.7326V22.0473C22.8285 22.1734 22.7206 22.2765 22.5876 22.2765C22.4546 22.2765 22.3466 22.1734 22.3466 22.0473V20.4608C22.3466 20.2201 22.1416 20.0243 21.8898 20.0243C21.6368 20.0243 21.4318 20.2201 21.4318 20.4608V21.6921C21.4318 21.8182 21.3239 21.9213 21.1909 21.9213C21.0579 21.9213 20.951 21.8182 20.951 21.6921V18.0169C20.9445 17.7794 20.7417 17.5908 20.4931 17.5908C20.2456 17.5908 20.0417 17.7794 20.0362 18.0169V23.4819C20.0362 23.5808 19.9697 23.6694 19.8705 23.7006C19.7713 23.7319 19.6633 23.6985 19.6012 23.6183L19.3919 23.3902C19.3831 23.3808 19.3744 23.3714 19.3657 23.361L18.6352 22.5641C18.4324 22.3818 18.1598 22.2869 17.8818 22.3015C17.8 22.312 17.7226 22.3432 17.6582 22.3922C17.6026 22.4349 17.5612 22.4922 17.5394 22.5578C17.5001 22.7026 17.5296 22.8568 17.619 22.9797C17.6452 23.011 17.6702 23.0412 17.6953 23.0724C17.7019 23.0797 17.7084 23.087 17.7138 23.0943C18.0649 23.5235 18.3713 23.9329 18.6602 24.3163C19.8738 25.9331 20.7504 27.1018 22.8756 26.9477H22.8843C23.7718 26.9134 24.3889 26.6112 24.7542 26.056C25.1315 25.482 25.2568 24.6309 25.1467 23.5224L25.1422 23.5214ZM19.5541 22.8714V21.9213H18.4256C18.6164 21.9932 18.7953 22.0942 18.9534 22.2192C18.9653 22.2296 18.9762 22.2401 18.9872 22.2515L19.5552 22.8714L19.5541 22.8714ZM25.6195 22.9953H25.8387C26.0556 22.9985 26.2617 22.9005 26.3893 22.7328C26.5179 22.5651 26.5528 22.3494 26.4841 22.1525L24.6099 16.5052H23.4312L24.6818 20.2721C25.1998 20.2732 25.6184 20.6742 25.6195 21.1691L25.6195 22.9953ZM17.4007 8.43177L19.6675 10.2527L17.4007 12.0737C17.2993 12.155 17.2862 12.2998 17.3713 12.3966C17.4574 12.4925 17.6079 12.505 17.7092 12.4237L20.1919 10.4298C20.2028 10.4215 20.2137 10.4111 20.2235 10.4006C20.3086 10.3038 20.2966 10.16 20.1952 10.0777L17.7114 8.08171C17.61 8.00045 17.4585 8.01296 17.3734 8.10984C17.2884 8.20672 17.3015 8.35048 17.4029 8.43173L17.4007 8.43177ZM16.0618 7.29731L14.4394 13.0895C14.4208 13.1489 14.4285 13.2135 14.4601 13.2676C14.4917 13.3218 14.5451 13.3614 14.6084 13.377C14.6705 13.3927 14.737 13.3843 14.7937 13.352C14.8493 13.3208 14.8886 13.2687 14.9038 13.2083L16.5284 7.41607C16.5459 7.35669 16.5382 7.29314 16.5066 7.23897C16.475 7.1848 16.4216 7.14521 16.3594 7.12959C16.2973 7.11396 16.2308 7.12229 16.1752 7.15459C16.1185 7.18584 16.0792 7.23689 16.0639 7.29731L16.0618 7.29731ZM13.2912 8.0807L10.8075 10.0767C10.753 10.1205 10.7214 10.185 10.7214 10.2538C10.7224 10.3215 10.7541 10.3861 10.8097 10.4288L13.2923 12.4227C13.3937 12.504 13.5442 12.4915 13.6292 12.3956C13.7143 12.2988 13.7012 12.154 13.6009 12.0727L11.3341 10.2517L13.6009 8.43077C13.7012 8.34951 13.7143 8.20471 13.6292 8.10784C13.5442 8.01095 13.3926 7.9984 13.2912 8.0807ZM7.80144 5.96387V14.5416H23.199V5.96387H7.80144ZM7.32168 14.7718C7.32168 14.8322 7.34676 14.8905 7.39255 14.9343C7.43726 14.977 7.49832 15.002 7.56265 15.002H23.4389C23.5033 15.002 23.5643 14.977 23.609 14.9343C23.6548 14.8905 23.6799 14.8322 23.6799 14.7718V5.73345C23.6799 5.67198 23.6548 5.61365 23.609 5.57093C23.5643 5.52822 23.5033 5.50322 23.4389 5.50322H7.56153C7.42851 5.50322 7.32057 5.60635 7.32057 5.73345V14.7718L7.32168 14.7718ZM23.2002 4.45948H7.80038C7.05897 4.46261 6.45819 5.03662 6.45492 5.745V16.0447H24.5455V5.745C24.5422 5.03662 23.9416 4.4626 23.2002 4.45948Z" fill="white"/>
</svg>
