<svg width="155" height="32" viewBox="0 0 155 32" fill="none" xmlns="http://www.w3.org/2000/svg">
<g clip-path="url(#clip0_3036_50772)">
<path d="M24.4225 10.3232V22.0552L15.8302 27.1981V15.272L12.4902 17.1971L12.5841 17.2503V31.1484L14.0052 31.9967L28.0097 23.8112V8.32301L27.9503 8.28857L24.4225 10.3232Z" fill="#2CC1EB"/>
<path d="M15.8294 15.219L5.13978 8.92732L14.136 3.991L24.4187 9.87577V10.3203L27.9464 8.28563L13.9356 0L0 8.32006V23.6079L3.24914 25.5518V11.7695L12.4895 17.1942L15.8294 15.2691V15.219Z" fill="white"/>
<path d="M40.6291 10.9429C41.3616 10.4515 42.2725 10.2073 43.368 10.2073C44.5857 10.2073 45.5748 10.5047 46.3355 11.1057C47.0992 11.7067 47.6376 12.5393 47.9569 13.6067L50.7115 12.8461C50.2044 11.2528 49.3248 9.98192 48.0727 9.04287C46.8175 8.10381 45.2524 7.63428 43.3712 7.63428C41.7403 7.63428 40.3411 7.98799 39.1798 8.70167C38.0154 9.41536 37.1264 10.4076 36.5004 11.6848C35.8775 12.9619 35.5645 14.4425 35.5645 16.1265C35.5645 17.8105 35.8775 19.2911 36.5004 20.5682C37.1202 21.8454 38.0154 22.8408 39.1798 23.5545C40.3443 24.265 41.7403 24.6219 43.3712 24.6219C45.2524 24.625 46.8206 24.1523 48.0727 23.2133C49.3279 22.2742 50.2075 21.0033 50.7115 19.4101L47.9569 18.6494C47.6408 19.7074 47.0992 20.5369 46.3355 21.1411C45.5717 21.7452 44.5826 22.0488 43.368 22.0488C42.2725 22.0488 41.3584 21.8047 40.626 21.3132C39.8904 20.8218 39.3426 20.1363 38.9764 19.2473C38.6101 18.3646 38.4255 17.3222 38.4255 16.1265C38.438 14.9339 38.6227 13.8915 38.9889 13.0026C39.3551 12.1136 39.9029 11.4281 40.6322 10.9366L40.6291 10.9429Z" fill="white"/>
<path d="M56.1573 7.63135H53.4277V24.2871H56.1573V7.63135Z" fill="white"/>
<path d="M68.1995 12.596C67.3073 12.0075 66.2306 11.707 64.9628 11.707C63.7608 11.707 62.7028 11.9794 61.7919 12.524C60.8779 13.0687 60.1642 13.8293 59.6509 14.8153C59.1375 15.8013 58.8809 16.9658 58.8809 18.3024C58.8809 19.5419 59.1407 20.6375 59.6665 21.5891C60.1861 22.5406 60.9217 23.2856 61.8577 23.8209C62.7936 24.3562 63.8829 24.6253 65.1193 24.6253C66.3558 24.6253 67.3793 24.3186 68.356 23.7082C69.3326 23.0978 70.0588 22.2401 70.5283 21.1352L67.8332 20.3182C67.5703 20.8848 67.1947 21.3136 66.7063 21.6141C66.218 21.9177 65.639 22.0648 64.966 22.0648C63.9236 22.0648 63.1317 21.7237 62.587 21.0444C62.1613 20.5123 61.9046 19.8017 61.8107 18.9253H70.666C70.7725 17.4603 70.6097 16.1863 70.1777 15.1064C69.7458 14.0265 69.0916 13.1876 68.2026 12.596H68.1995ZM65.0755 14.1016C66.0647 14.1016 66.7909 14.4084 67.251 15.0188C67.5765 15.4539 67.7894 16.0705 67.8864 16.8656H61.8733C61.9985 16.1582 62.2333 15.5822 62.5839 15.1409C63.1285 14.4491 63.958 14.1016 65.0755 14.1016Z" fill="white"/>
<path d="M82.6199 13.9856C82.2161 13.178 81.6026 12.5958 80.7762 12.2421C79.9498 11.8884 78.9889 11.71 77.9027 11.71C76.4597 11.71 75.3109 12.023 74.4626 12.649C73.6143 13.2751 73.0384 14.1077 72.7379 15.1407L75.2295 15.9232C75.433 15.2972 75.7929 14.8558 76.3063 14.5991C76.8196 14.3425 77.3518 14.2141 77.9027 14.2141C78.8167 14.2141 79.4646 14.4145 79.8528 14.8151C80.1721 15.1469 80.3568 15.6352 80.4037 16.2769C79.9091 16.3489 79.4271 16.4178 78.9607 16.4835C78.1875 16.5931 77.4676 16.7151 76.8071 16.8435C76.1435 16.9718 75.5676 17.1158 75.0761 17.2755C74.425 17.4977 73.8992 17.7763 73.4891 18.1206C73.0822 18.4649 72.7786 18.8719 72.5813 19.3445C72.3841 19.8172 72.2871 20.3462 72.2871 20.9347C72.2871 21.6076 72.4405 22.2212 72.7566 22.7815C73.0728 23.3418 73.5361 23.7925 74.1464 24.1275C74.7568 24.4624 75.505 24.6283 76.3908 24.6283H76.3971C77.4989 24.6283 78.4223 24.4217 79.1579 24.0085C79.7213 23.6924 80.2347 23.2353 80.6917 22.6375V24.2871H83.0832V16.7746C83.0832 16.2456 83.0612 15.7542 83.0143 15.3066C82.9705 14.8558 82.8359 14.4176 82.6168 13.9887L82.6199 13.9856ZM80.0969 20.4213C80.0062 20.6999 79.8277 21.0004 79.5679 21.3165C79.3081 21.6327 78.9607 21.9019 78.5225 22.121C78.0842 22.3401 77.5552 22.4497 76.9386 22.4497C76.5066 22.4497 76.1466 22.3808 75.8555 22.2462C75.5644 22.1116 75.3453 21.9238 75.1951 21.6953C75.0448 21.4637 74.9697 21.2007 74.9697 20.8971C74.9697 20.6342 75.026 20.4025 75.145 20.2053C75.2577 20.0081 75.4298 19.836 75.6489 19.6826C75.8681 19.5323 76.1372 19.4009 76.4534 19.285C76.7789 19.1817 77.1514 19.0847 77.574 18.9971C77.9966 18.9094 78.5037 18.8155 79.0922 18.7185C79.4678 18.6559 79.8966 18.587 80.3661 18.5119C80.3599 18.7216 80.3536 18.9564 80.3411 19.2256C80.3223 19.6763 80.2441 20.0707 80.1001 20.4182L80.0969 20.4213Z" fill="white"/>
<path d="M96.8536 14.8058C96.6877 14.2768 96.431 13.7791 96.0835 13.3096C95.7361 12.8401 95.2666 12.4551 94.6781 12.1546C94.0896 11.8509 93.3415 11.7007 92.4337 11.7007C91.2849 11.7007 90.3177 11.9542 89.532 12.4551C89.1095 12.7243 88.7432 13.0467 88.4333 13.416V12.0481H85.998V24.2841H88.762V17.9986C88.762 17.2505 88.8465 16.6339 89.0124 16.155C89.1752 15.676 89.3974 15.2941 89.6729 15.0218C89.9484 14.7495 90.2582 14.5523 90.5994 14.4396C90.9406 14.3269 91.2818 14.2706 91.6293 14.2706C92.2741 14.2706 92.7937 14.4114 93.1725 14.69C93.5543 14.9686 93.8423 15.3255 94.0333 15.7574C94.2273 16.1925 94.3494 16.6401 94.4026 17.1097C94.4558 17.5792 94.4809 18.0049 94.4809 18.3899V24.2809L97.2449 24.2841V17.4509C97.2449 17.1566 97.2229 16.7747 97.1729 16.3021C97.1196 15.8294 97.0132 15.3286 96.8473 14.7996L96.8536 14.8058Z" fill="white"/>
<path d="M111.052 16.233C110.592 15.9074 110.113 15.6539 109.612 15.4723C109.114 15.2908 108.664 15.1468 108.263 15.0404L105.339 14.2234C104.97 14.1264 104.604 14.0043 104.244 13.8572C103.884 13.71 103.587 13.5097 103.345 13.2562C103.104 13.0026 102.982 12.6771 102.982 12.2795C102.982 11.857 103.123 11.4876 103.405 11.1683C103.687 10.8522 104.062 10.608 104.526 10.439C104.989 10.27 105.493 10.1854 106.037 10.1948C106.598 10.2105 107.124 10.3232 107.621 10.536C108.116 10.7489 108.535 11.0525 108.88 11.4563C109.221 11.8601 109.452 12.3515 109.575 12.9244L112.508 12.4141C112.267 11.4093 111.85 10.5517 111.262 9.84112C110.673 9.13056 109.941 8.58591 109.064 8.21342C108.188 7.84405 107.192 7.64998 106.072 7.64372C104.97 7.63746 103.968 7.80962 103.067 8.16646C102.165 8.52643 101.445 9.05857 100.913 9.77225C100.381 10.4828 100.112 11.3655 100.112 12.4173C100.112 13.1372 100.228 13.7382 100.466 14.2265C100.704 14.7148 101.01 15.1155 101.383 15.4285C101.755 15.7415 102.153 15.9888 102.572 16.1641C102.992 16.3425 103.383 16.4803 103.746 16.5867L107.963 17.8325C108.266 17.9233 108.529 18.0328 108.761 18.158C108.992 18.2833 109.18 18.4179 109.327 18.5681C109.474 18.7215 109.587 18.8936 109.662 19.0846C109.737 19.2787 109.775 19.4884 109.775 19.7138C109.775 20.2208 109.612 20.6466 109.293 20.994C108.97 21.3415 108.557 21.6044 108.044 21.7859C107.531 21.9675 106.983 22.0583 106.401 22.0583C105.424 22.0583 104.554 21.7953 103.802 21.2663C103.051 20.7373 102.554 19.9892 102.309 19.022L99.4766 19.4539C99.6425 20.5182 100.037 21.4416 100.65 22.2148C101.267 22.9879 102.053 23.5827 103.007 23.9959C103.962 24.4122 105.039 24.6188 106.232 24.6188V24.6125C107.067 24.6125 107.872 24.5061 108.639 24.2964C109.406 24.0866 110.088 23.7674 110.686 23.3448C111.277 22.9222 111.753 22.3932 112.107 21.7546C112.457 21.1161 112.633 20.3429 112.633 19.5259C112.633 18.709 112.486 18.0391 112.188 17.5101C111.891 16.9811 111.512 16.5554 111.052 16.2298V16.233Z" fill="white"/>
<path d="M118.678 8.64844H115.958V12.0478H113.738V14.1889H115.958V19.288C115.958 19.9829 115.964 20.6058 115.98 21.1567C115.995 21.7076 116.142 22.2491 116.421 22.7781C116.737 23.3635 117.203 23.7861 117.814 24.0553C118.421 24.3245 119.116 24.4685 119.892 24.4872C120.665 24.5029 121.46 24.4371 122.268 24.2869V21.9987C121.504 22.1114 120.825 22.1427 120.227 22.0895C119.629 22.0363 119.197 21.7827 118.925 21.3289C118.781 21.0941 118.703 20.7936 118.69 20.4211C118.684 20.0517 118.675 19.6198 118.675 19.1283V14.1889H122.265V12.0478H118.675V8.64844H118.678Z" fill="white"/>
<path d="M134.557 13.9856C134.154 13.178 133.54 12.5958 132.714 12.2421C131.887 11.8884 130.926 11.71 129.84 11.71C128.397 11.71 127.248 12.023 126.4 12.649C125.552 13.2751 124.976 14.1077 124.675 15.1407L127.167 15.9232C127.37 15.2972 127.73 14.8558 128.244 14.5991C128.757 14.3425 129.289 14.2141 129.84 14.2141C130.754 14.2141 131.402 14.4145 131.79 14.8151C132.11 15.1469 132.294 15.6352 132.341 16.2769C131.847 16.3489 131.365 16.4178 130.898 16.4835C130.125 16.5931 129.405 16.7151 128.745 16.8435C128.081 16.9718 127.505 17.1158 127.014 17.2755C126.363 17.4977 125.837 17.7763 125.427 18.1206C125.02 18.4649 124.716 18.8719 124.519 19.3445C124.322 19.8172 124.225 20.3462 124.225 20.9347C124.225 21.6076 124.378 22.2212 124.694 22.7815C125.01 23.3418 125.474 23.7925 126.084 24.1275C126.694 24.4593 127.442 24.6283 128.328 24.6283H128.335C129.436 24.6283 130.36 24.4217 131.095 24.0085C131.659 23.6924 132.172 23.2353 132.629 22.6375V24.2871H135.021V16.7746C135.021 16.2456 134.999 15.7542 134.952 15.3066C134.908 14.8558 134.773 14.4176 134.554 13.9887L134.557 13.9856ZM132.034 20.4213C131.944 20.6999 131.765 21.0004 131.505 21.3165C131.246 21.6327 130.898 21.9019 130.46 22.121C130.022 22.3401 129.493 22.4497 128.876 22.4497C128.444 22.4497 128.084 22.3808 127.793 22.2462C127.502 22.1116 127.283 21.9238 127.133 21.6953C126.982 21.4637 126.907 21.2007 126.907 20.8971C126.907 20.6342 126.964 20.4025 127.079 20.2053C127.192 20.0081 127.364 19.836 127.583 19.6826C127.802 19.5323 128.072 19.4009 128.388 19.285C128.713 19.1817 129.086 19.0847 129.508 18.9971C129.931 18.9094 130.438 18.8155 131.027 18.7185C131.402 18.6559 131.831 18.587 132.301 18.5119C132.294 18.7216 132.288 18.9564 132.275 19.2256C132.257 19.6763 132.178 20.0707 132.034 20.4182V20.4213Z" fill="white"/>
<path d="M143.731 11.9951C143.346 12.0201 142.97 12.0921 142.604 12.211C142.235 12.3269 141.903 12.4865 141.599 12.69C141.239 12.9122 140.939 13.1877 140.685 13.5257C140.57 13.6791 140.466 13.8419 140.372 14.0109V12.0483H137.959V24.2811H140.701V18.0614C140.701 17.5918 140.757 17.1599 140.87 16.7561C140.983 16.3492 141.158 15.9892 141.396 15.673C141.634 15.3569 141.944 15.094 142.322 14.8905C142.701 14.6651 143.127 14.5305 143.6 14.493C144.072 14.4554 144.492 14.4898 144.855 14.5963V12.0483C144.492 11.9919 144.119 11.9731 143.734 11.9982L143.731 11.9951Z" fill="white"/>
<path d="M154.174 14.1889V12.0478H150.584V8.64844H147.864V12.0478H145.645V14.1889H147.864V19.288C147.864 19.9829 147.87 20.6058 147.886 21.1567C147.901 21.7076 148.049 22.2491 148.327 22.7781C148.643 23.3635 149.11 23.7861 149.72 24.0553C150.327 24.3245 151.022 24.4685 151.798 24.4872C152.572 24.5029 153.367 24.4371 154.174 24.2869V21.9987C153.411 22.1114 152.731 22.1427 152.137 22.0895C151.539 22.0363 151.104 21.7827 150.834 21.3289C150.69 21.0941 150.612 20.7936 150.6 20.4211C150.593 20.0517 150.584 19.6198 150.584 19.1283V14.1889H154.174Z" fill="white"/>
</g>
<defs>
<clipPath id="clip0_3036_50772">
<rect width="154.175" height="32" fill="white"/>
</clipPath>
</defs>
</svg>
