<svg width="100" height="100" viewBox="0 0 100 100" fill="none" xmlns="http://www.w3.org/2000/svg">
<g clip-path="url(#clip0_834_2108)">
<path d="M20.5398 88.4924L4.7168 80.4258C2.72676 79.4121 1.46484 77.3125 1.46484 75.0156V33.6035C1.46484 32.4453 1.78555 31.3379 2.35898 30.3926L41.5938 50.3945V98.5352C40.7129 98.5352 39.832 98.3281 39.0209 97.9141L26.6148 91.5895" stroke="white" stroke-width="3" stroke-miterlimit="10" stroke-linecap="round" stroke-linejoin="round"/>
<path d="M81.7207 48.3696V75.0157C81.7207 77.3126 80.4607 79.4122 78.4687 80.4259L44.1666 97.9142C43.3555 98.3282 42.4746 98.5353 41.5938 98.5353V50.3946" stroke="white" stroke-width="3" stroke-miterlimit="10" stroke-linecap="round" stroke-linejoin="round"/>
<path d="M57.7609 42.1524L41.5941 50.3945L2.35938 30.3926C2.90254 29.5 3.67031 28.752 4.60781 28.25L38.91 9.82228C38.9193 9.81838 38.927 9.81252 38.9363 9.80861C40.6133 8.91798 42.6033 8.92189 44.2764 9.82228L57.2842 16.8106" stroke="white" stroke-width="3" stroke-miterlimit="10" stroke-linecap="round" stroke-linejoin="round"/>
<path d="M94.0906 35.4836C96.9512 30.3492 98.5357 24.4824 98.5357 18.368V10.2295L77.9103 1.46484L57.2852 10.2295V18.368C57.2852 32.0367 65.2041 44.4678 77.592 50.2451L77.9103 50.3936L78.2289 50.2451C82.9424 48.0469 87.009 44.8854 90.2385 41.0588" stroke="white" stroke-width="3" stroke-miterlimit="10" stroke-linecap="round" stroke-linejoin="round"/>
<path d="M90.5019 21.1459C91.7232 19.9247 91.7232 17.9444 90.5019 16.7231C89.2806 15.5018 87.3003 15.5018 86.079 16.7231L75.1605 27.6416C74.7042 28.0979 73.9644 28.0979 73.5082 27.6416L69.7412 23.8747C68.5199 22.6534 66.5396 22.6534 65.3183 23.8747C64.097 25.0959 64.097 27.0762 65.3183 28.2975L72.1796 35.1588C73.3697 36.3489 75.2992 36.3489 76.4892 35.1588L90.5019 21.1459Z" stroke="white" stroke-width="3" stroke-miterlimit="10" stroke-linecap="round" stroke-linejoin="round"/>
</g>
<defs>
<clipPath id="clip0_834_2108">
<rect width="100" height="100" fill="white"/>
</clipPath>
</defs>
</svg>
