<svg width="309" height="492" viewBox="0 0 309 492" fill="none" xmlns="http://www.w3.org/2000/svg">
<path d="M104.717 41L113.875 13.64H118.587L127.745 41H124.23L115.661 15.616H116.725L108.232 41H104.717ZM109.125 34.597V31.424H123.337V34.597H109.125ZM131.526 41V13.64H134.908V41H131.526ZM147.525 13.64H150.964L143.668 41H140.229L147.525 13.64ZM155.898 41V13.64H158.976L169.312 35.433L179.591 13.64H182.707V40.981H179.496V21.069L170.205 41H168.4L159.109 21.069V41H155.898ZM188.415 41V13.64H191.797V37.789H204.489V41H188.415Z" fill="white"/>
<path d="M206.418 160.166L155.518 123.33C155.513 123.327 155.507 123.324 155.503 123.321C155.436 123.274 155.366 123.231 155.293 123.194C155.281 123.188 155.27 123.182 155.258 123.176C155.186 123.141 155.112 123.11 155.035 123.085C155.032 123.084 155.029 123.083 155.026 123.082C154.95 123.058 154.871 123.04 154.791 123.027C154.773 123.023 154.756 123.021 154.738 123.019C154.661 123.008 154.582 123 154.502 123C154.499 123 154.496 123 154.493 123C154.414 123.001 154.336 123.008 154.26 123.019C154.242 123.021 154.224 123.024 154.206 123.027C154.127 123.041 154.048 123.058 153.973 123.082C153.968 123.084 153.964 123.085 153.96 123.087C153.884 123.111 153.811 123.142 153.74 123.177C153.729 123.183 153.717 123.188 153.705 123.194C153.632 123.232 153.562 123.274 153.496 123.321C153.491 123.325 153.485 123.327 153.481 123.33L123.031 145.396C122.254 145.958 122.08 147.044 122.643 147.82C123.206 148.597 124.292 148.77 125.068 148.207L152.763 128.138V141.428C149.497 142.215 147.063 145.159 147.063 148.662C147.063 149.493 147.202 150.292 147.454 151.039L145.05 152.781C144.273 153.344 144.099 154.43 144.662 155.206C145.225 155.983 146.311 156.156 147.087 155.593L149.301 153.989C150.261 154.932 151.453 155.589 152.763 155.9V171.19L136.621 167.463C136.624 167.379 136.627 167.295 136.627 167.211C136.627 167.211 136.627 167.21 136.627 167.21C136.627 167.21 136.627 167.21 136.627 167.209C136.627 167.068 136.622 166.929 136.614 166.79C136.612 166.746 136.607 166.703 136.604 166.661C136.597 166.563 136.589 166.467 136.578 166.371C136.572 166.321 136.566 166.272 136.559 166.223C136.547 166.133 136.534 166.044 136.519 165.955C136.51 165.904 136.501 165.854 136.492 165.804C136.475 165.716 136.456 165.629 136.436 165.542C136.425 165.493 136.414 165.443 136.402 165.395C136.378 165.3 136.352 165.207 136.324 165.115C136.303 165.043 136.281 164.973 136.258 164.902C136.229 164.814 136.2 164.726 136.168 164.639C136.142 164.567 136.112 164.496 136.084 164.425C136.064 164.375 136.044 164.326 136.023 164.277C135.989 164.198 135.953 164.12 135.917 164.043C135.9 164.006 135.882 163.969 135.864 163.933C135.839 163.882 135.816 163.83 135.79 163.78L142.597 158.847C143.374 158.284 143.548 157.199 142.985 156.422C142.422 155.646 141.336 155.473 140.56 156.035L133.498 161.153C132.281 160.283 130.792 159.769 129.185 159.769C126.161 159.769 123.555 161.583 122.392 164.178L107.708 160.788L120.561 151.474C121.337 150.912 121.511 149.826 120.948 149.05C120.386 148.273 119.3 148.1 118.524 148.662L102.58 160.215C102.577 160.217 102.575 160.22 102.572 160.222C102.504 160.272 102.44 160.327 102.38 160.386C102.371 160.395 102.363 160.403 102.355 160.412C102.24 160.53 102.141 160.665 102.063 160.815C102.056 160.828 102.049 160.84 102.043 160.853C102.008 160.925 101.977 160.998 101.951 161.075C101.947 161.087 101.945 161.099 101.941 161.11C101.929 161.15 101.917 161.189 101.907 161.23C101.901 161.258 101.897 161.285 101.892 161.313C101.889 161.331 101.885 161.349 101.883 161.368C101.871 161.447 101.864 161.526 101.863 161.604C101.863 161.616 101.864 161.628 101.864 161.64C101.865 161.717 101.871 161.793 101.882 161.868C101.883 161.878 101.884 161.887 101.885 161.897C101.898 161.979 101.918 162.06 101.943 162.138C101.945 162.145 101.946 162.152 101.948 162.159L121.39 221.802C121.393 221.809 121.396 221.814 121.398 221.821C121.424 221.896 121.454 221.969 121.49 222.04C121.494 222.049 121.498 222.058 121.502 222.066C121.54 222.138 121.583 222.207 121.631 222.274C121.639 222.285 121.648 222.297 121.656 222.308C121.752 222.435 121.867 222.55 121.999 222.65C122.014 222.661 122.029 222.672 122.044 222.683C122.059 222.693 122.073 222.705 122.088 222.715C122.117 222.734 122.148 222.748 122.177 222.765C122.212 222.784 122.245 222.805 122.281 222.822C122.329 222.846 122.378 222.865 122.428 222.883C122.459 222.895 122.49 222.909 122.522 222.919C122.582 222.938 122.642 222.951 122.703 222.963C122.728 222.968 122.751 222.975 122.776 222.979C122.864 222.992 122.952 223 123.04 223C123.041 223 123.043 223 123.044 223H185.956C185.957 223 185.958 223 185.959 223C186.047 223 186.136 222.992 186.223 222.979C186.249 222.975 186.273 222.968 186.297 222.962C186.358 222.95 186.418 222.937 186.477 222.919C186.51 222.908 186.541 222.895 186.573 222.882C186.622 222.864 186.67 222.845 186.717 222.822C186.754 222.804 186.788 222.784 186.823 222.763C186.852 222.747 186.882 222.733 186.91 222.715C186.925 222.705 186.939 222.693 186.954 222.683C186.97 222.672 186.985 222.661 187.001 222.649C187.133 222.55 187.247 222.435 187.343 222.308C187.351 222.297 187.36 222.285 187.368 222.273C187.416 222.207 187.46 222.137 187.497 222.065C187.501 222.057 187.505 222.049 187.509 222.041C187.545 221.968 187.576 221.894 187.601 221.818C187.603 221.812 187.606 221.807 187.608 221.802L206.968 162.362C207.083 162.121 207.144 161.852 207.136 161.574C207.137 161.027 206.879 160.499 206.418 160.166ZM156.236 128.136L201.339 160.777L186.615 164.176C185.341 161.9 182.907 160.357 180.118 160.357C178.631 160.357 177.245 160.798 176.081 161.553L161.554 151.04C161.807 150.293 161.946 149.494 161.946 148.662C161.946 145.155 159.507 142.209 156.236 141.426V128.136ZM171.627 189.605C171.614 189.602 171.602 189.602 171.589 189.6C171.418 189.572 171.245 189.551 171.07 189.535C171.031 189.532 170.991 189.529 170.951 189.526C170.769 189.513 170.587 189.504 170.403 189.504C169.392 189.504 168.427 189.708 167.548 190.074L157.32 174.504L173.311 170.812C173.975 172.316 175.125 173.571 176.594 174.357L171.627 189.605ZM174.372 196.946C174.372 199.135 172.591 200.915 170.403 200.915C168.364 200.915 166.68 199.369 166.46 197.387C166.458 197.375 166.455 197.362 166.454 197.35C166.441 197.217 166.434 197.082 166.434 196.946C166.434 194.757 168.214 192.977 170.403 192.977C170.541 192.977 170.679 192.984 170.815 192.998C170.866 193.004 170.916 193.014 170.967 193.022C171.051 193.034 171.136 193.044 171.219 193.062C171.273 193.073 171.325 193.089 171.378 193.103C171.457 193.123 171.536 193.142 171.613 193.167C171.665 193.184 171.714 193.204 171.765 193.223C171.842 193.251 171.919 193.279 171.994 193.313C173.392 193.928 174.372 195.323 174.372 196.946ZM156.236 171.19V155.902C157.55 155.593 158.745 154.934 159.707 153.989L173.663 164.09C173.393 164.558 173.179 165.055 173.018 165.57C173.012 165.588 173.007 165.607 173.001 165.625C172.913 165.914 172.843 166.208 172.791 166.508C172.778 166.582 172.765 166.657 172.754 166.732C172.745 166.795 172.737 166.859 172.73 166.923C172.719 167.015 172.71 167.107 172.703 167.201C172.699 167.252 172.694 167.304 172.691 167.356C172.69 167.367 172.689 167.379 172.688 167.391L156.236 171.19ZM176.462 169.345C176.461 169.342 176.46 169.338 176.458 169.335C176.414 169.23 176.375 169.121 176.34 169.011C176.331 168.985 176.323 168.958 176.315 168.931C176.289 168.842 176.266 168.752 176.246 168.661C176.238 168.625 176.229 168.589 176.222 168.553C176.206 168.465 176.193 168.376 176.182 168.286C176.177 168.249 176.171 168.214 176.168 168.177C176.156 168.053 176.148 167.927 176.148 167.799C176.148 167.663 176.155 167.528 176.169 167.395C176.169 167.389 176.171 167.384 176.171 167.378C176.266 166.484 176.661 165.68 177.25 165.063C177.273 165.038 177.295 165.012 177.319 164.988C178.037 164.273 179.026 163.83 180.118 163.83C182.306 163.83 184.087 165.611 184.087 167.799C184.087 169.987 182.306 171.768 180.118 171.768C179.739 171.768 179.374 171.711 179.026 171.612C178.984 171.6 178.941 171.588 178.9 171.575C178.797 171.542 178.697 171.505 178.598 171.464C178.589 171.461 178.579 171.457 178.569 171.453C177.624 171.051 176.864 170.291 176.462 169.345ZM150.535 148.662C150.536 146.474 152.316 144.693 154.504 144.693C156.693 144.693 158.473 146.474 158.473 148.662C158.473 150.704 156.924 152.389 154.94 152.607C154.917 152.609 154.895 152.611 154.872 152.613C154.751 152.624 154.628 152.632 154.504 152.632C154.38 152.632 154.258 152.624 154.136 152.613C154.114 152.611 154.091 152.609 154.069 152.607C152.084 152.389 150.535 150.704 150.535 148.662ZM154.5 176.535L164.74 192.125C163.632 193.425 162.961 195.108 162.961 196.946C162.961 197.086 162.966 197.226 162.973 197.365C162.976 197.415 162.981 197.465 162.985 197.515C162.992 197.603 162.999 197.69 163.008 197.776C163.011 197.8 163.012 197.824 163.015 197.849L140.278 202.863C139.94 201.955 139.431 201.139 138.794 200.445L154.5 176.535ZM133.363 173.365C133.449 173.307 133.533 173.247 133.616 173.185C133.624 173.179 133.632 173.174 133.64 173.168C133.728 173.102 133.813 173.034 133.898 172.965C133.927 172.941 133.955 172.916 133.984 172.892C134.041 172.844 134.097 172.796 134.152 172.746C134.185 172.717 134.217 172.687 134.249 172.656C134.299 172.61 134.349 172.563 134.398 172.515C134.43 172.483 134.462 172.451 134.494 172.418C134.542 172.37 134.588 172.321 134.635 172.271C134.665 172.238 134.696 172.205 134.726 172.172C134.773 172.119 134.82 172.065 134.865 172.011C134.892 171.979 134.919 171.949 134.945 171.917C134.999 171.85 135.053 171.782 135.105 171.713C135.12 171.693 135.136 171.673 135.152 171.653C135.218 171.564 135.283 171.473 135.345 171.381C135.364 171.354 135.381 171.326 135.399 171.298C135.443 171.232 135.486 171.166 135.528 171.098C135.55 171.061 135.572 171.025 135.593 170.988C135.627 170.93 135.661 170.872 135.694 170.813L151.679 174.504L135.911 198.51C135.783 198.463 135.654 198.42 135.524 198.379C135.518 198.377 135.512 198.376 135.506 198.374C135.329 198.32 135.15 198.272 134.968 198.231C134.904 198.216 134.841 198.201 134.777 198.188C134.703 198.174 134.63 198.161 134.555 198.149C134.448 198.13 134.34 198.115 134.231 198.101C134.183 198.095 134.137 198.088 134.089 198.083C133.929 198.066 133.767 198.056 133.604 198.049C133.586 198.049 133.57 198.046 133.552 198.046L130.816 174.472C130.862 174.462 130.907 174.449 130.952 174.438C130.996 174.427 131.039 174.418 131.082 174.406C131.159 174.386 131.235 174.364 131.311 174.341C131.345 174.331 131.379 174.322 131.412 174.311C131.521 174.277 131.628 174.241 131.734 174.202C131.757 174.194 131.779 174.185 131.801 174.176C131.885 174.145 131.969 174.112 132.051 174.078C132.089 174.062 132.127 174.044 132.165 174.028C132.231 173.999 132.297 173.969 132.362 173.939C132.402 173.919 132.443 173.899 132.484 173.879C132.545 173.848 132.606 173.817 132.666 173.785C132.707 173.764 132.747 173.742 132.787 173.719C132.847 173.686 132.907 173.652 132.966 173.617C133.004 173.594 133.042 173.571 133.08 173.548C133.143 173.51 133.204 173.47 133.266 173.429C133.298 173.408 133.331 173.387 133.363 173.365ZM137.276 205.484C137.276 207.672 135.495 209.453 133.307 209.453C131.119 209.453 129.338 207.672 129.338 205.484C129.338 203.592 130.67 202.007 132.445 201.612C132.56 201.586 132.676 201.567 132.793 201.552C132.819 201.548 132.845 201.542 132.872 201.539C133.017 201.523 133.162 201.514 133.307 201.514C133.441 201.514 133.573 201.522 133.704 201.535C133.727 201.537 133.749 201.542 133.772 201.544C133.882 201.557 133.991 201.572 134.098 201.594C134.111 201.597 134.124 201.601 134.138 201.603C135.651 201.927 136.845 203.116 137.18 204.625C137.185 204.649 137.192 204.671 137.197 204.695C137.213 204.777 137.224 204.862 137.235 204.946C137.242 204.994 137.251 205.041 137.256 205.09C137.269 205.22 137.276 205.351 137.276 205.484ZM129.185 163.241C130.396 163.241 131.479 163.787 132.208 164.644C132.232 164.672 132.254 164.699 132.277 164.727C132.333 164.797 132.387 164.869 132.438 164.943C132.459 164.973 132.48 165.002 132.5 165.033C132.548 165.106 132.594 165.182 132.637 165.259C132.657 165.293 132.676 165.327 132.694 165.362C132.733 165.436 132.769 165.512 132.804 165.589C132.822 165.629 132.841 165.668 132.857 165.709C132.887 165.783 132.914 165.858 132.939 165.933C132.955 165.979 132.971 166.024 132.985 166.07C133.008 166.144 133.026 166.22 133.044 166.296C133.055 166.345 133.068 166.393 133.078 166.442C133.094 166.523 133.105 166.606 133.116 166.689C133.122 166.733 133.13 166.777 133.134 166.822C133.147 166.949 133.154 167.079 133.154 167.209C133.154 168.987 131.978 170.496 130.364 171C129.991 171.116 129.595 171.178 129.185 171.178C126.996 171.178 125.216 169.398 125.216 167.209C125.216 165.022 126.996 163.241 129.185 163.241ZM106.202 164.004L121.753 167.594C121.921 170.882 124.233 173.612 127.314 174.413L130.138 198.752C127.615 199.944 125.865 202.513 125.865 205.483C125.865 207.482 126.659 209.297 127.945 210.636L123.573 217.292L106.202 164.004ZM126.259 219.527L130.867 212.512C131.632 212.779 132.452 212.925 133.307 212.925C137.125 212.925 140.279 210.034 140.699 206.326L164.253 201.132C165.595 203.096 167.85 204.387 170.402 204.387C171.16 204.387 171.891 204.273 172.581 204.062L182.74 219.528H126.259V219.527ZM185.426 217.291L175.573 202.291C176.972 200.937 177.844 199.042 177.844 196.946C177.844 194.501 176.659 192.328 174.834 190.971L179.959 175.237C180.012 175.238 180.065 175.241 180.118 175.241C184.222 175.241 187.56 171.902 187.56 167.799C187.56 167.707 187.556 167.615 187.553 167.523L202.781 164.007L185.426 217.291Z" fill="white"/>
<path d="M33.484 330.51C31.0474 330.51 28.979 329.972 27.279 328.895C25.579 327.818 24.2814 326.322 23.386 324.407C22.502 322.492 22.06 320.276 22.06 317.76C22.06 315.244 22.502 313.028 23.386 311.113C24.2814 309.198 25.579 307.702 27.279 306.625C28.979 305.548 31.0474 305.01 33.484 305.01C36.3174 305.01 38.6464 305.73 40.471 307.169C42.307 308.608 43.5707 310.546 44.262 312.983L41.185 313.799C40.6864 311.974 39.7967 310.535 38.516 309.481C37.2354 308.427 35.558 307.9 33.484 307.9C31.6594 307.9 30.1407 308.314 28.928 309.141C27.7154 309.968 26.803 311.124 26.191 312.609C25.579 314.082 25.2674 315.799 25.256 317.76C25.2447 319.709 25.545 321.426 26.157 322.911C26.769 324.384 27.687 325.54 28.911 326.379C30.135 327.206 31.6594 327.62 33.484 327.62C35.558 327.62 37.2354 327.093 38.516 326.039C39.7967 324.974 40.6864 323.534 41.185 321.721L44.262 322.537C43.5707 324.962 42.307 326.9 40.471 328.351C38.6464 329.79 36.3174 330.51 33.484 330.51ZM48.3304 330V305.01H51.3564V330H48.3304ZM64.4131 330.51C62.6111 330.51 61.0358 330.113 59.6871 329.32C58.3498 328.515 57.3071 327.399 56.5591 325.971C55.8111 324.532 55.4371 322.854 55.4371 320.939C55.4371 318.933 55.8055 317.199 56.5421 315.737C57.2788 314.264 58.3045 313.13 59.6191 312.337C60.9451 311.532 62.4978 311.13 64.2771 311.13C66.1245 311.13 67.6941 311.555 68.9861 312.405C70.2895 313.255 71.2641 314.468 71.9101 316.043C72.5675 317.618 72.8508 319.494 72.7602 321.67H69.7001V320.582C69.6661 318.327 69.2071 316.644 68.3231 315.533C67.4391 314.411 66.1245 313.85 64.3791 313.85C62.5091 313.85 61.0868 314.451 60.1121 315.652C59.1375 316.853 58.6501 318.576 58.6501 320.82C58.6501 322.985 59.1375 324.662 60.1121 325.852C61.0868 327.042 62.4751 327.637 64.2771 327.637C65.4898 327.637 66.5438 327.359 67.4391 326.804C68.3345 326.249 69.0371 325.45 69.5471 324.407L72.4541 325.41C71.7401 327.031 70.6635 328.289 69.2241 329.184C67.7961 330.068 66.1925 330.51 64.4131 330.51ZM57.6301 321.67V319.239H71.1961V321.67H57.6301ZM81.432 330.51C80.0607 330.51 78.9103 330.261 77.981 329.762C77.063 329.252 76.366 328.583 75.89 327.756C75.4253 326.929 75.193 326.022 75.193 325.036C75.193 324.073 75.3743 323.24 75.737 322.537C76.111 321.823 76.6323 321.234 77.301 320.769C77.9697 320.293 78.7687 319.919 79.698 319.647C80.5707 319.409 81.5453 319.205 82.622 319.035C83.71 318.854 84.8093 318.689 85.92 318.542C87.0307 318.395 88.0677 318.253 89.031 318.117L87.943 318.746C87.977 317.114 87.6483 315.907 86.957 315.125C86.277 314.343 85.0983 313.952 83.421 313.952C82.3103 313.952 81.3357 314.207 80.497 314.717C79.6697 315.216 79.086 316.032 78.746 317.165L75.873 316.298C76.315 314.689 77.1707 313.425 78.44 312.507C79.7093 311.589 81.381 311.13 83.455 311.13C85.121 311.13 86.549 311.43 87.739 312.031C88.9403 312.62 89.8017 313.516 90.323 314.717C90.5837 315.284 90.748 315.901 90.816 316.57C90.884 317.227 90.918 317.919 90.918 318.644V330H88.232V325.597L88.861 326.005C88.1697 327.49 87.2007 328.612 85.954 329.371C84.7187 330.13 83.2113 330.51 81.432 330.51ZM81.891 327.977C82.979 327.977 83.9197 327.784 84.713 327.399C85.5177 327.002 86.1637 326.487 86.651 325.852C87.1383 325.206 87.4557 324.503 87.603 323.744C87.773 323.177 87.8637 322.548 87.875 321.857C87.8977 321.154 87.909 320.616 87.909 320.242L88.963 320.701C87.977 320.837 87.008 320.967 86.056 321.092C85.104 321.217 84.203 321.353 83.353 321.5C82.503 321.636 81.738 321.8 81.058 321.993C80.5593 322.152 80.089 322.356 79.647 322.605C79.2163 322.854 78.865 323.177 78.593 323.574C78.3323 323.959 78.202 324.441 78.202 325.019C78.202 325.518 78.3267 325.994 78.576 326.447C78.8367 326.9 79.2333 327.269 79.766 327.552C80.31 327.835 81.0183 327.977 81.891 327.977ZM108.411 330V320.803C108.411 319.93 108.332 319.092 108.173 318.287C108.026 317.482 107.759 316.763 107.374 316.128C107 315.482 106.49 314.972 105.844 314.598C105.209 314.224 104.405 314.037 103.43 314.037C102.671 314.037 101.979 314.167 101.356 314.428C100.744 314.677 100.217 315.063 99.775 315.584C99.333 316.105 98.9873 316.763 98.738 317.556C98.5 318.338 98.381 319.262 98.381 320.327L96.392 319.715C96.392 317.936 96.7093 316.411 97.344 315.142C97.99 313.861 98.891 312.881 100.047 312.201C101.214 311.51 102.586 311.164 104.161 311.164C105.351 311.164 106.365 311.351 107.204 311.725C108.043 312.099 108.74 312.598 109.295 313.221C109.85 313.833 110.287 314.524 110.604 315.295C110.921 316.054 111.142 316.831 111.267 317.624C111.403 318.406 111.471 319.148 111.471 319.851V330H108.411ZM95.321 330V311.64H98.041V316.553H98.381V330H95.321ZM122.697 330V305.52H125.451L134.699 325.019L143.896 305.52H146.684V329.983H143.811V312.167L135.498 330H133.883L125.57 312.167V330H122.697ZM151.791 330V305.52H154.817V327.127H166.173V330H151.791ZM174.162 330V305.52H176.916L186.164 325.019L195.361 305.52H198.149V329.983H195.276V312.167L186.963 330H185.348L177.035 312.167V330H174.162ZM210.736 330.51C208.911 330.51 207.336 330.096 206.01 329.269C204.695 328.442 203.681 327.297 202.967 325.835C202.253 324.373 201.896 322.696 201.896 320.803C201.896 318.876 202.259 317.188 202.984 315.737C203.709 314.286 204.735 313.159 206.061 312.354C207.387 311.538 208.945 311.13 210.736 311.13C212.572 311.13 214.153 311.544 215.479 312.371C216.805 313.187 217.819 314.326 218.522 315.788C219.236 317.239 219.593 318.91 219.593 320.803C219.593 322.718 219.236 324.407 218.522 325.869C217.808 327.32 216.788 328.459 215.462 329.286C214.136 330.102 212.561 330.51 210.736 330.51ZM210.736 327.637C212.64 327.637 214.057 327.002 214.986 325.733C215.915 324.464 216.38 322.82 216.38 320.803C216.38 318.729 215.91 317.08 214.969 315.856C214.028 314.621 212.617 314.003 210.736 314.003C209.455 314.003 208.401 314.292 207.574 314.87C206.747 315.448 206.129 316.247 205.721 317.267C205.313 318.287 205.109 319.466 205.109 320.803C205.109 322.866 205.585 324.52 206.537 325.767C207.489 327.014 208.889 327.637 210.736 327.637ZM230.544 330.51C228.833 330.51 227.365 330.085 226.141 329.235C224.917 328.374 223.971 327.212 223.302 325.75C222.645 324.288 222.316 322.639 222.316 320.803C222.316 318.967 222.645 317.318 223.302 315.856C223.971 314.394 224.917 313.244 226.141 312.405C227.365 311.555 228.827 311.13 230.527 311.13C232.261 311.13 233.717 311.549 234.896 312.388C236.075 313.227 236.964 314.377 237.565 315.839C238.177 317.301 238.483 318.956 238.483 320.803C238.483 322.628 238.177 324.277 237.565 325.75C236.964 327.212 236.075 328.374 234.896 329.235C233.717 330.085 232.267 330.51 230.544 330.51ZM230.918 327.739C232.153 327.739 233.168 327.444 233.961 326.855C234.754 326.254 235.338 325.433 235.712 324.39C236.097 323.336 236.29 322.14 236.29 320.803C236.29 319.443 236.097 318.247 235.712 317.216C235.338 316.173 234.76 315.363 233.978 314.785C233.196 314.196 232.204 313.901 231.003 313.901C229.756 313.901 228.725 314.207 227.909 314.819C227.104 315.431 226.504 316.258 226.107 317.301C225.722 318.344 225.529 319.511 225.529 320.803C225.529 322.106 225.727 323.285 226.124 324.339C226.521 325.382 227.116 326.209 227.909 326.821C228.714 327.433 229.717 327.739 230.918 327.739ZM236.29 330V316.485H235.95V305.52H238.993V330H236.29ZM251.712 330.51C249.91 330.51 248.335 330.113 246.986 329.32C245.649 328.515 244.606 327.399 243.858 325.971C243.11 324.532 242.736 322.854 242.736 320.939C242.736 318.933 243.104 317.199 243.841 315.737C244.578 314.264 245.603 313.13 246.918 312.337C248.244 311.532 249.797 311.13 251.576 311.13C253.423 311.13 254.993 311.555 256.285 312.405C257.588 313.255 258.563 314.468 259.209 316.043C259.866 317.618 260.15 319.494 260.059 321.67H256.999V320.582C256.965 318.327 256.506 316.644 255.622 315.533C254.738 314.411 253.423 313.85 251.678 313.85C249.808 313.85 248.386 314.451 247.411 315.652C246.436 316.853 245.949 318.576 245.949 320.82C245.949 322.985 246.436 324.662 247.411 325.852C248.386 327.042 249.774 327.637 251.576 327.637C252.789 327.637 253.843 327.359 254.738 326.804C255.633 326.249 256.336 325.45 256.846 324.407L259.753 325.41C259.039 327.031 257.962 328.289 256.523 329.184C255.095 330.068 253.491 330.51 251.712 330.51ZM244.929 321.67V319.239H258.495V321.67H244.929ZM264.184 330V305.01H267.21V330H264.184ZM279.247 330.493C277.059 330.493 275.263 330.017 273.858 329.065C272.464 328.102 271.608 326.759 271.291 325.036L274.385 324.543C274.634 325.54 275.206 326.334 276.102 326.923C276.997 327.501 278.108 327.79 279.434 327.79C280.692 327.79 281.678 327.529 282.392 327.008C283.106 326.487 283.463 325.778 283.463 324.883C283.463 324.362 283.344 323.942 283.106 323.625C282.868 323.296 282.375 322.99 281.627 322.707C280.89 322.424 279.774 322.084 278.278 321.687C276.657 321.256 275.382 320.809 274.453 320.344C273.523 319.879 272.86 319.341 272.464 318.729C272.067 318.117 271.869 317.375 271.869 316.502C271.869 315.425 272.163 314.485 272.753 313.68C273.342 312.864 274.164 312.235 275.218 311.793C276.283 311.351 277.518 311.13 278.924 311.13C280.318 311.13 281.564 311.351 282.664 311.793C283.763 312.235 284.647 312.864 285.316 313.68C285.996 314.485 286.398 315.425 286.523 316.502L283.429 317.063C283.281 316.077 282.805 315.301 282.001 314.734C281.207 314.167 280.182 313.867 278.924 313.833C277.734 313.788 276.765 313.997 276.017 314.462C275.28 314.927 274.912 315.556 274.912 316.349C274.912 316.791 275.048 317.171 275.32 317.488C275.603 317.805 276.119 318.106 276.867 318.389C277.626 318.672 278.725 318.995 280.165 319.358C281.785 319.766 283.06 320.214 283.99 320.701C284.93 321.177 285.599 321.744 285.996 322.401C286.392 323.047 286.591 323.846 286.591 324.798C286.591 326.566 285.939 327.96 284.636 328.98C283.332 329.989 281.536 330.493 279.247 330.493Z" fill="white"/>
<path d="M6.51 382.3C5.49 382.3 4.57 382.127 3.75 381.78C2.93667 381.433 2.26333 380.94 1.73 380.3C1.20333 379.653 0.86 378.89 0.7 378.01L2.54 377.72C2.77333 378.627 3.25667 379.337 3.99 379.85C4.73 380.357 5.6 380.61 6.6 380.61C7.24667 380.61 7.83 380.51 8.35 380.31C8.87667 380.103 9.29333 379.81 9.6 379.43C9.90667 379.05 10.06 378.6 10.06 378.08C10.06 377.76 10.0033 377.487 9.89 377.26C9.78333 377.027 9.63333 376.83 9.44 376.67C9.25333 376.503 9.04 376.363 8.8 376.25C8.56 376.137 8.31 376.043 8.05 375.97L4.38 374.88C3.98 374.76 3.59333 374.61 3.22 374.43C2.84667 374.243 2.51333 374.013 2.22 373.74C1.92667 373.46 1.69333 373.127 1.52 372.74C1.34667 372.347 1.26 371.883 1.26 371.35C1.26 370.497 1.48 369.77 1.92 369.17C2.36667 368.563 2.97 368.1 3.73 367.78C4.49 367.46 5.34667 367.303 6.3 367.31C7.26667 367.317 8.13 367.49 8.89 367.83C9.65667 368.163 10.29 368.643 10.79 369.27C11.2967 369.897 11.6367 370.647 11.81 371.52L9.92 371.85C9.82 371.263 9.59667 370.76 9.25 370.34C8.91 369.913 8.48333 369.587 7.97 369.36C7.45667 369.127 6.89333 369.007 6.28 369C5.69333 368.993 5.16333 369.087 4.69 369.28C4.21667 369.473 3.84 369.743 3.56 370.09C3.28 370.43 3.14 370.823 3.14 371.27C3.14 371.71 3.26667 372.067 3.52 372.34C3.77333 372.607 4.08333 372.82 4.45 372.98C4.82333 373.133 5.18667 373.26 5.54 373.36L8.28 374.15C8.59333 374.237 8.95333 374.357 9.36 374.51C9.77333 374.663 10.1733 374.88 10.56 375.16C10.9467 375.433 11.2667 375.8 11.52 376.26C11.7733 376.713 11.9 377.287 11.9 377.98C11.9 378.673 11.76 379.29 11.48 379.83C11.2067 380.37 10.8233 380.823 10.33 381.19C9.83667 381.55 9.26333 381.823 8.61 382.01C7.95667 382.203 7.25667 382.3 6.51 382.3ZM18.5477 382.3C17.4543 382.3 16.5243 382.057 15.7577 381.57C14.9977 381.077 14.4177 380.4 14.0177 379.54C13.6177 378.68 13.411 377.7 13.3977 376.6C13.411 375.473 13.621 374.483 14.0277 373.63C14.441 372.77 15.031 372.1 15.7977 371.62C16.5643 371.14 17.4877 370.9 18.5677 370.9C19.7077 370.9 20.6877 371.18 21.5077 371.74C22.3343 372.3 22.8877 373.067 23.1677 374.04L21.4077 374.57C21.181 373.943 20.811 373.457 20.2977 373.11C19.791 372.763 19.2077 372.59 18.5477 372.59C17.8077 372.59 17.1977 372.763 16.7177 373.11C16.2377 373.45 15.881 373.923 15.6477 374.53C15.4143 375.13 15.2943 375.82 15.2877 376.6C15.301 377.8 15.5777 378.77 16.1177 379.51C16.6643 380.243 17.4743 380.61 18.5477 380.61C19.2543 380.61 19.841 380.45 20.3077 380.13C20.7743 379.803 21.1277 379.333 21.3677 378.72L23.1677 379.19C22.7943 380.197 22.211 380.967 21.4177 381.5C20.6243 382.033 19.6677 382.3 18.5477 382.3ZM28.1809 382.3C27.3743 382.3 26.6976 382.153 26.1509 381.86C25.6109 381.56 25.2009 381.167 24.9209 380.68C24.6476 380.193 24.5109 379.66 24.5109 379.08C24.5109 378.513 24.6176 378.023 24.8309 377.61C25.0509 377.19 25.3576 376.843 25.7509 376.57C26.1443 376.29 26.6143 376.07 27.1609 375.91C27.6743 375.77 28.2476 375.65 28.8809 375.55C29.5209 375.443 30.1676 375.347 30.8209 375.26C31.4743 375.173 32.0843 375.09 32.6509 375.01L32.0109 375.38C32.0309 374.42 31.8376 373.71 31.4309 373.25C31.0309 372.79 30.3376 372.56 29.3509 372.56C28.6976 372.56 28.1243 372.71 27.6309 373.01C27.1443 373.303 26.8009 373.783 26.6009 374.45L24.9109 373.94C25.1709 372.993 25.6743 372.25 26.4209 371.71C27.1676 371.17 28.1509 370.9 29.3709 370.9C30.3509 370.9 31.1909 371.077 31.8909 371.43C32.5976 371.777 33.1043 372.303 33.4109 373.01C33.5643 373.343 33.6609 373.707 33.7009 374.1C33.7409 374.487 33.7609 374.893 33.7609 375.32V382H32.1809V379.41L32.5509 379.65C32.1443 380.523 31.5743 381.183 30.8409 381.63C30.1143 382.077 29.2276 382.3 28.1809 382.3ZM28.4509 380.81C29.0909 380.81 29.6443 380.697 30.1109 380.47C30.5843 380.237 30.9643 379.933 31.2509 379.56C31.5376 379.18 31.7243 378.767 31.8109 378.32C31.9109 377.987 31.9643 377.617 31.9709 377.21C31.9843 376.797 31.9909 376.48 31.9909 376.26L32.6109 376.53C32.0309 376.61 31.4609 376.687 30.9009 376.76C30.3409 376.833 29.8109 376.913 29.3109 377C28.8109 377.08 28.3609 377.177 27.9609 377.29C27.6676 377.383 27.3909 377.503 27.1309 377.65C26.8776 377.797 26.6709 377.987 26.5109 378.22C26.3576 378.447 26.2809 378.73 26.2809 379.07C26.2809 379.363 26.3543 379.643 26.5009 379.91C26.6543 380.177 26.8876 380.393 27.2009 380.56C27.5209 380.727 27.9376 380.81 28.4509 380.81ZM44.0509 382V376.59C44.0509 376.077 44.0043 375.583 43.9109 375.11C43.8243 374.637 43.6676 374.213 43.4409 373.84C43.2209 373.46 42.9209 373.16 42.5409 372.94C42.1676 372.72 41.6943 372.61 41.1209 372.61C40.6743 372.61 40.2676 372.687 39.9009 372.84C39.5409 372.987 39.2309 373.213 38.9709 373.52C38.7109 373.827 38.5076 374.213 38.3609 374.68C38.2209 375.14 38.1509 375.683 38.1509 376.31L36.9809 375.95C36.9809 374.903 37.1676 374.007 37.5409 373.26C37.9209 372.507 38.4509 371.93 39.1309 371.53C39.8176 371.123 40.6243 370.92 41.5509 370.92C42.2509 370.92 42.8476 371.03 43.3409 371.25C43.8343 371.47 44.2443 371.763 44.5709 372.13C44.8976 372.49 45.1543 372.897 45.3409 373.35C45.5276 373.797 45.6576 374.253 45.7309 374.72C45.8109 375.18 45.8509 375.617 45.8509 376.03V382H44.0509ZM36.3509 382V371.2H37.9509V374.09H38.1509V382H36.3509ZM56.1408 382V376.59C56.1408 376.077 56.0941 375.583 56.0008 375.11C55.9141 374.637 55.7574 374.213 55.5308 373.84C55.3108 373.46 55.0108 373.16 54.6308 372.94C54.2574 372.72 53.7841 372.61 53.2108 372.61C52.7641 372.61 52.3574 372.687 51.9908 372.84C51.6308 372.987 51.3208 373.213 51.0608 373.52C50.8008 373.827 50.5974 374.213 50.4508 374.68C50.3108 375.14 50.2408 375.683 50.2408 376.31L49.0708 375.95C49.0708 374.903 49.2574 374.007 49.6308 373.26C50.0108 372.507 50.5408 371.93 51.2208 371.53C51.9074 371.123 52.7141 370.92 53.6408 370.92C54.3408 370.92 54.9374 371.03 55.4308 371.25C55.9241 371.47 56.3341 371.763 56.6608 372.13C56.9874 372.49 57.2441 372.897 57.4308 373.35C57.6174 373.797 57.7474 374.253 57.8208 374.72C57.9008 375.18 57.9408 375.617 57.9408 376.03V382H56.1408ZM48.4408 382V371.2H50.0408V374.09H50.2408V382H48.4408ZM65.123 382.3C64.063 382.3 63.1363 382.067 62.343 381.6C61.5563 381.127 60.943 380.47 60.503 379.63C60.063 378.783 59.843 377.797 59.843 376.67C59.843 375.49 60.0596 374.47 60.493 373.61C60.9263 372.743 61.5296 372.077 62.303 371.61C63.083 371.137 63.9963 370.9 65.043 370.9C66.1296 370.9 67.053 371.15 67.813 371.65C68.5796 372.15 69.153 372.863 69.533 373.79C69.9196 374.717 70.0863 375.82 70.033 377.1H68.233V376.46C68.213 375.133 67.943 374.143 67.423 373.49C66.903 372.83 66.1296 372.5 65.103 372.5C64.003 372.5 63.1663 372.853 62.593 373.56C62.0196 374.267 61.733 375.28 61.733 376.6C61.733 377.873 62.0196 378.86 62.593 379.56C63.1663 380.26 63.983 380.61 65.043 380.61C65.7563 380.61 66.3763 380.447 66.903 380.12C67.4296 379.793 67.843 379.323 68.143 378.71L69.853 379.3C69.433 380.253 68.7996 380.993 67.953 381.52C67.113 382.04 66.1696 382.3 65.123 382.3ZM61.133 377.1V375.67H69.113V377.1H61.133ZM76.4994 382.3C75.4927 382.3 74.6294 382.05 73.9094 381.55C73.1894 381.043 72.6327 380.36 72.2394 379.5C71.8527 378.64 71.6594 377.67 71.6594 376.59C71.6594 375.51 71.8527 374.54 72.2394 373.68C72.6327 372.82 73.1894 372.143 73.9094 371.65C74.6294 371.15 75.4894 370.9 76.4894 370.9C77.5094 370.9 78.366 371.147 79.0594 371.64C79.7527 372.133 80.276 372.81 80.6294 373.67C80.9894 374.53 81.1694 375.503 81.1694 376.59C81.1694 377.663 80.9894 378.633 80.6294 379.5C80.276 380.36 79.7527 381.043 79.0594 381.55C78.366 382.05 77.5127 382.3 76.4994 382.3ZM76.7194 380.67C77.446 380.67 78.0427 380.497 78.5094 380.15C78.976 379.797 79.3194 379.313 79.5394 378.7C79.766 378.08 79.8794 377.377 79.8794 376.59C79.8794 375.79 79.766 375.087 79.5394 374.48C79.3194 373.867 78.9794 373.39 78.5194 373.05C78.0594 372.703 77.476 372.53 76.7694 372.53C76.036 372.53 75.4294 372.71 74.9494 373.07C74.476 373.43 74.1227 373.917 73.8894 374.53C73.6627 375.143 73.5494 375.83 73.5494 376.59C73.5494 377.357 73.666 378.05 73.8994 378.67C74.1327 379.283 74.4827 379.77 74.9494 380.13C75.4227 380.49 76.0127 380.67 76.7194 380.67ZM79.8794 382V374.05H79.6794V367.6H81.4694V382H79.8794ZM84.5911 382V380.04H86.5511V382H84.5911ZM98.7756 382.3C97.7556 382.3 96.8356 382.127 96.0156 381.78C95.2023 381.433 94.529 380.94 93.9956 380.3C93.469 379.653 93.1256 378.89 92.9656 378.01L94.8056 377.72C95.039 378.627 95.5223 379.337 96.2556 379.85C96.9956 380.357 97.8656 380.61 98.8656 380.61C99.5123 380.61 100.096 380.51 100.616 380.31C101.142 380.103 101.559 379.81 101.866 379.43C102.172 379.05 102.326 378.6 102.326 378.08C102.326 377.76 102.269 377.487 102.156 377.26C102.049 377.027 101.899 376.83 101.706 376.67C101.519 376.503 101.306 376.363 101.066 376.25C100.826 376.137 100.576 376.043 100.316 375.97L96.6456 374.88C96.2456 374.76 95.859 374.61 95.4856 374.43C95.1123 374.243 94.779 374.013 94.4856 373.74C94.1923 373.46 93.959 373.127 93.7856 372.74C93.6123 372.347 93.5256 371.883 93.5256 371.35C93.5256 370.497 93.7456 369.77 94.1856 369.17C94.6323 368.563 95.2356 368.1 95.9956 367.78C96.7556 367.46 97.6123 367.303 98.5656 367.31C99.5323 367.317 100.396 367.49 101.156 367.83C101.922 368.163 102.556 368.643 103.056 369.27C103.562 369.897 103.902 370.647 104.076 371.52L102.186 371.85C102.086 371.263 101.862 370.76 101.516 370.34C101.176 369.913 100.749 369.587 100.236 369.36C99.7223 369.127 99.159 369.007 98.5456 369C97.959 368.993 97.429 369.087 96.9556 369.28C96.4823 369.473 96.1056 369.743 95.8256 370.09C95.5456 370.43 95.4056 370.823 95.4056 371.27C95.4056 371.71 95.5323 372.067 95.7856 372.34C96.039 372.607 96.349 372.82 96.7156 372.98C97.089 373.133 97.4523 373.26 97.8056 373.36L100.546 374.15C100.859 374.237 101.219 374.357 101.626 374.51C102.039 374.663 102.439 374.88 102.826 375.16C103.212 375.433 103.532 375.8 103.786 376.26C104.039 376.713 104.166 377.287 104.166 377.98C104.166 378.673 104.026 379.29 103.746 379.83C103.472 380.37 103.089 380.823 102.596 381.19C102.102 381.55 101.529 381.823 100.876 382.01C100.222 382.203 99.5223 382.3 98.7756 382.3ZM106.463 369.29V367.45H108.243V369.29H106.463ZM106.463 382V371.2H108.243V382H106.463ZM115.614 387.1C115.047 387.1 114.494 387.013 113.954 386.84C113.414 386.667 112.917 386.403 112.464 386.05C112.017 385.703 111.644 385.263 111.344 384.73L112.974 383.87C113.24 384.397 113.617 384.78 114.104 385.02C114.597 385.26 115.104 385.38 115.624 385.38C116.31 385.38 116.88 385.253 117.334 385C117.787 384.753 118.12 384.383 118.334 383.89C118.554 383.397 118.66 382.783 118.654 382.05V379.1H118.864V371.2H120.444V382.07C120.444 382.363 120.434 382.647 120.414 382.92C120.4 383.193 120.367 383.463 120.314 383.73C120.174 384.497 119.897 385.127 119.484 385.62C119.07 386.12 118.537 386.49 117.884 386.73C117.23 386.977 116.474 387.1 115.614 387.1ZM115.484 382.3C114.477 382.3 113.614 382.05 112.894 381.55C112.174 381.043 111.617 380.36 111.224 379.5C110.837 378.64 110.644 377.67 110.644 376.59C110.644 375.51 110.837 374.54 111.224 373.68C111.617 372.82 112.174 372.143 112.894 371.65C113.614 371.15 114.474 370.9 115.474 370.9C116.494 370.9 117.35 371.147 118.044 371.64C118.737 372.133 119.26 372.81 119.614 373.67C119.974 374.53 120.154 375.503 120.154 376.59C120.154 377.663 119.974 378.633 119.614 379.5C119.26 380.36 118.737 381.043 118.044 381.55C117.35 382.05 116.497 382.3 115.484 382.3ZM115.704 380.67C116.43 380.67 117.027 380.497 117.494 380.15C117.96 379.797 118.304 379.313 118.524 378.7C118.75 378.08 118.864 377.377 118.864 376.59C118.864 375.79 118.75 375.087 118.524 374.48C118.304 373.867 117.964 373.39 117.504 373.05C117.044 372.703 116.46 372.53 115.754 372.53C115.02 372.53 114.414 372.71 113.934 373.07C113.46 373.43 113.107 373.917 112.874 374.53C112.647 375.143 112.534 375.83 112.534 376.59C112.534 377.357 112.65 378.05 112.884 378.67C113.117 379.283 113.467 379.77 113.934 380.13C114.407 380.49 114.997 380.67 115.704 380.67ZM130.926 382V376.59C130.926 376.077 130.879 375.583 130.786 375.11C130.699 374.637 130.543 374.213 130.316 373.84C130.096 373.46 129.796 373.16 129.416 372.94C129.043 372.72 128.569 372.61 127.996 372.61C127.549 372.61 127.143 372.687 126.776 372.84C126.416 372.987 126.106 373.213 125.846 373.52C125.586 373.827 125.383 374.213 125.236 374.68C125.096 375.14 125.026 375.683 125.026 376.31L123.856 375.95C123.856 374.903 124.043 374.007 124.416 373.26C124.796 372.507 125.326 371.93 126.006 371.53C126.693 371.123 127.499 370.92 128.426 370.92C129.126 370.92 129.723 371.03 130.216 371.25C130.709 371.47 131.119 371.763 131.446 372.13C131.773 372.49 132.029 372.897 132.216 373.35C132.403 373.797 132.533 374.253 132.606 374.72C132.686 375.18 132.726 375.617 132.726 376.03V382H130.926ZM123.226 382V371.2H124.826V374.09H125.026V382H123.226ZM139.908 382.3C138.848 382.3 137.921 382.067 137.128 381.6C136.341 381.127 135.728 380.47 135.288 379.63C134.848 378.783 134.628 377.797 134.628 376.67C134.628 375.49 134.845 374.47 135.278 373.61C135.711 372.743 136.315 372.077 137.088 371.61C137.868 371.137 138.781 370.9 139.828 370.9C140.915 370.9 141.838 371.15 142.598 371.65C143.365 372.15 143.938 372.863 144.318 373.79C144.705 374.717 144.871 375.82 144.818 377.1H143.018V376.46C142.998 375.133 142.728 374.143 142.208 373.49C141.688 372.83 140.915 372.5 139.888 372.5C138.788 372.5 137.951 372.853 137.378 373.56C136.805 374.267 136.518 375.28 136.518 376.6C136.518 377.873 136.805 378.86 137.378 379.56C137.951 380.26 138.768 380.61 139.828 380.61C140.541 380.61 141.161 380.447 141.688 380.12C142.215 379.793 142.628 379.323 142.928 378.71L144.638 379.3C144.218 380.253 143.585 380.993 142.738 381.52C141.898 382.04 140.955 382.3 139.908 382.3ZM135.918 377.1V375.67H143.898V377.1H135.918ZM151.285 382.3C150.278 382.3 149.415 382.05 148.695 381.55C147.975 381.043 147.418 380.36 147.025 379.5C146.638 378.64 146.445 377.67 146.445 376.59C146.445 375.51 146.638 374.54 147.025 373.68C147.418 372.82 147.975 372.143 148.695 371.65C149.415 371.15 150.275 370.9 151.275 370.9C152.295 370.9 153.151 371.147 153.845 371.64C154.538 372.133 155.061 372.81 155.415 373.67C155.775 374.53 155.955 375.503 155.955 376.59C155.955 377.663 155.775 378.633 155.415 379.5C155.061 380.36 154.538 381.043 153.845 381.55C153.151 382.05 152.298 382.3 151.285 382.3ZM151.505 380.67C152.231 380.67 152.828 380.497 153.295 380.15C153.761 379.797 154.105 379.313 154.325 378.7C154.551 378.08 154.665 377.377 154.665 376.59C154.665 375.79 154.551 375.087 154.325 374.48C154.105 373.867 153.765 373.39 153.305 373.05C152.845 372.703 152.261 372.53 151.555 372.53C150.821 372.53 150.215 372.71 149.735 373.07C149.261 373.43 148.908 373.917 148.675 374.53C148.448 375.143 148.335 375.83 148.335 376.59C148.335 377.357 148.451 378.05 148.685 378.67C148.918 379.283 149.268 379.77 149.735 380.13C150.208 380.49 150.798 380.67 151.505 380.67ZM154.665 382V374.05H154.465V367.6H156.255V382H154.665ZM159.376 382V380.04H161.336V382H159.376ZM173.561 382.3C172.541 382.3 171.621 382.127 170.801 381.78C169.987 381.433 169.314 380.94 168.781 380.3C168.254 379.653 167.911 378.89 167.751 378.01L169.591 377.72C169.824 378.627 170.307 379.337 171.041 379.85C171.781 380.357 172.651 380.61 173.651 380.61C174.297 380.61 174.881 380.51 175.401 380.31C175.927 380.103 176.344 379.81 176.651 379.43C176.957 379.05 177.111 378.6 177.111 378.08C177.111 377.76 177.054 377.487 176.941 377.26C176.834 377.027 176.684 376.83 176.491 376.67C176.304 376.503 176.091 376.363 175.851 376.25C175.611 376.137 175.361 376.043 175.101 375.97L171.431 374.88C171.031 374.76 170.644 374.61 170.271 374.43C169.897 374.243 169.564 374.013 169.271 373.74C168.977 373.46 168.744 373.127 168.571 372.74C168.397 372.347 168.311 371.883 168.311 371.35C168.311 370.497 168.531 369.77 168.971 369.17C169.417 368.563 170.021 368.1 170.781 367.78C171.541 367.46 172.397 367.303 173.351 367.31C174.317 367.317 175.181 367.49 175.941 367.83C176.707 368.163 177.341 368.643 177.841 369.27C178.347 369.897 178.687 370.647 178.861 371.52L176.971 371.85C176.871 371.263 176.647 370.76 176.301 370.34C175.961 369.913 175.534 369.587 175.021 369.36C174.507 369.127 173.944 369.007 173.331 369C172.744 368.993 172.214 369.087 171.741 369.28C171.267 369.473 170.891 369.743 170.611 370.09C170.331 370.43 170.191 370.823 170.191 371.27C170.191 371.71 170.317 372.067 170.571 372.34C170.824 372.607 171.134 372.82 171.501 372.98C171.874 373.133 172.237 373.26 172.591 373.36L175.331 374.15C175.644 374.237 176.004 374.357 176.411 374.51C176.824 374.663 177.224 374.88 177.611 375.16C177.997 375.433 178.317 375.8 178.571 376.26C178.824 376.713 178.951 377.287 178.951 377.98C178.951 378.673 178.811 379.29 178.531 379.83C178.257 380.37 177.874 380.823 177.381 381.19C176.887 381.55 176.314 381.823 175.661 382.01C175.007 382.203 174.307 382.3 173.561 382.3ZM184.118 382.3C183.312 382.3 182.635 382.153 182.088 381.86C181.548 381.56 181.138 381.167 180.858 380.68C180.585 380.193 180.448 379.66 180.448 379.08C180.448 378.513 180.555 378.023 180.768 377.61C180.988 377.19 181.295 376.843 181.688 376.57C182.082 376.29 182.552 376.07 183.098 375.91C183.612 375.77 184.185 375.65 184.818 375.55C185.458 375.443 186.105 375.347 186.758 375.26C187.412 375.173 188.022 375.09 188.588 375.01L187.948 375.38C187.968 374.42 187.775 373.71 187.368 373.25C186.968 372.79 186.275 372.56 185.288 372.56C184.635 372.56 184.062 372.71 183.568 373.01C183.082 373.303 182.738 373.783 182.538 374.45L180.848 373.94C181.108 372.993 181.612 372.25 182.358 371.71C183.105 371.17 184.088 370.9 185.308 370.9C186.288 370.9 187.128 371.077 187.828 371.43C188.535 371.777 189.042 372.303 189.348 373.01C189.502 373.343 189.598 373.707 189.638 374.1C189.678 374.487 189.698 374.893 189.698 375.32V382H188.118V379.41L188.488 379.65C188.082 380.523 187.512 381.183 186.778 381.63C186.052 382.077 185.165 382.3 184.118 382.3ZM184.388 380.81C185.028 380.81 185.582 380.697 186.048 380.47C186.522 380.237 186.902 379.933 187.188 379.56C187.475 379.18 187.662 378.767 187.748 378.32C187.848 377.987 187.902 377.617 187.908 377.21C187.922 376.797 187.928 376.48 187.928 376.26L188.548 376.53C187.968 376.61 187.398 376.687 186.838 376.76C186.278 376.833 185.748 376.913 185.248 377C184.748 377.08 184.298 377.177 183.898 377.29C183.605 377.383 183.328 377.503 183.068 377.65C182.815 377.797 182.608 377.987 182.448 378.22C182.295 378.447 182.218 378.73 182.218 379.07C182.218 379.363 182.292 379.643 182.438 379.91C182.592 380.177 182.825 380.393 183.138 380.56C183.458 380.727 183.875 380.81 184.388 380.81ZM193.328 382V370.61C193.328 370.33 193.342 370.047 193.368 369.76C193.395 369.467 193.455 369.183 193.548 368.91C193.642 368.63 193.795 368.373 194.008 368.14C194.255 367.867 194.525 367.673 194.818 367.56C195.112 367.44 195.408 367.367 195.708 367.34C196.015 367.313 196.305 367.3 196.578 367.3H197.948V368.78H196.678C196.152 368.78 195.758 368.91 195.498 369.17C195.238 369.423 195.108 369.81 195.108 370.33V382H193.328ZM191.498 372.67V371.2H197.948V372.67H191.498ZM203.834 382.3C202.774 382.3 201.847 382.067 201.054 381.6C200.267 381.127 199.654 380.47 199.214 379.63C198.774 378.783 198.554 377.797 198.554 376.67C198.554 375.49 198.771 374.47 199.204 373.61C199.637 372.743 200.241 372.077 201.014 371.61C201.794 371.137 202.707 370.9 203.754 370.9C204.841 370.9 205.764 371.15 206.524 371.65C207.291 372.15 207.864 372.863 208.244 373.79C208.631 374.717 208.797 375.82 208.744 377.1H206.944V376.46C206.924 375.133 206.654 374.143 206.134 373.49C205.614 372.83 204.841 372.5 203.814 372.5C202.714 372.5 201.877 372.853 201.304 373.56C200.731 374.267 200.444 375.28 200.444 376.6C200.444 377.873 200.731 378.86 201.304 379.56C201.877 380.26 202.694 380.61 203.754 380.61C204.467 380.61 205.087 380.447 205.614 380.12C206.141 379.793 206.554 379.323 206.854 378.71L208.564 379.3C208.144 380.253 207.511 380.993 206.664 381.52C205.824 382.04 204.881 382.3 203.834 382.3ZM199.844 377.1V375.67H207.824V377.1H199.844ZM219.934 382.3C218.921 382.3 218.068 382.05 217.374 381.55C216.681 381.043 216.154 380.36 215.794 379.5C215.441 378.633 215.264 377.663 215.264 376.59C215.264 375.503 215.441 374.53 215.794 373.67C216.154 372.81 216.681 372.133 217.374 371.64C218.074 371.147 218.931 370.9 219.944 370.9C220.944 370.9 221.804 371.15 222.524 371.65C223.251 372.143 223.808 372.82 224.194 373.68C224.581 374.54 224.774 375.51 224.774 376.59C224.774 377.67 224.581 378.64 224.194 379.5C223.808 380.36 223.251 381.043 222.524 381.55C221.804 382.05 220.941 382.3 219.934 382.3ZM214.964 382V367.6H216.754V374.05H216.554V382H214.964ZM219.714 380.67C220.428 380.67 221.018 380.49 221.484 380.13C221.951 379.77 222.301 379.283 222.534 378.67C222.768 378.05 222.884 377.357 222.884 376.59C222.884 375.83 222.768 375.143 222.534 374.53C222.308 373.917 221.954 373.43 221.474 373.07C221.001 372.71 220.398 372.53 219.664 372.53C218.964 372.53 218.384 372.703 217.924 373.05C217.464 373.39 217.121 373.867 216.894 374.48C216.668 375.087 216.554 375.79 216.554 376.59C216.554 377.377 216.664 378.08 216.884 378.7C217.111 379.313 217.458 379.797 217.924 380.15C218.391 380.497 218.988 380.67 219.714 380.67ZM227.861 386.8L229.951 381.12L229.981 382.8L225.261 371.2H227.131L230.831 380.53H230.191L233.661 371.2H235.471L229.591 386.8H227.861ZM245.367 382.3C244.36 382.3 243.497 382.05 242.777 381.55C242.057 381.043 241.5 380.36 241.107 379.5C240.72 378.64 240.527 377.67 240.527 376.59C240.527 375.51 240.72 374.54 241.107 373.68C241.5 372.82 242.057 372.143 242.777 371.65C243.497 371.15 244.357 370.9 245.357 370.9C246.377 370.9 247.233 371.147 247.927 371.64C248.62 372.133 249.143 372.81 249.497 373.67C249.857 374.53 250.037 375.503 250.037 376.59C250.037 377.663 249.857 378.633 249.497 379.5C249.143 380.36 248.62 381.043 247.927 381.55C247.233 382.05 246.38 382.3 245.367 382.3ZM245.587 380.67C246.313 380.67 246.91 380.497 247.377 380.15C247.843 379.797 248.187 379.313 248.407 378.7C248.633 378.08 248.747 377.377 248.747 376.59C248.747 375.79 248.633 375.087 248.407 374.48C248.187 373.867 247.847 373.39 247.387 373.05C246.927 372.703 246.343 372.53 245.637 372.53C244.903 372.53 244.297 372.71 243.817 373.07C243.343 373.43 242.99 373.917 242.757 374.53C242.53 375.143 242.417 375.83 242.417 376.59C242.417 377.357 242.533 378.05 242.767 378.67C243 379.283 243.35 379.77 243.817 380.13C244.29 380.49 244.88 380.67 245.587 380.67ZM248.747 382V374.05H248.547V367.6H250.337V382H248.747ZM257.818 382.3C256.758 382.3 255.832 382.067 255.038 381.6C254.252 381.127 253.638 380.47 253.198 379.63C252.758 378.783 252.538 377.797 252.538 376.67C252.538 375.49 252.755 374.47 253.188 373.61C253.622 372.743 254.225 372.077 254.998 371.61C255.778 371.137 256.692 370.9 257.738 370.9C258.825 370.9 259.748 371.15 260.508 371.65C261.275 372.15 261.848 372.863 262.228 373.79C262.615 374.717 262.782 375.82 262.728 377.1H260.928V376.46C260.908 375.133 260.638 374.143 260.118 373.49C259.598 372.83 258.825 372.5 257.798 372.5C256.698 372.5 255.862 372.853 255.288 373.56C254.715 374.267 254.428 375.28 254.428 376.6C254.428 377.873 254.715 378.86 255.288 379.56C255.862 380.26 256.678 380.61 257.738 380.61C258.452 380.61 259.072 380.447 259.598 380.12C260.125 379.793 260.538 379.323 260.838 378.71L262.548 379.3C262.128 380.253 261.495 380.993 260.648 381.52C259.808 382.04 258.865 382.3 257.818 382.3ZM253.828 377.1V375.67H261.808V377.1H253.828ZM269.035 382.29C267.748 382.29 266.691 382.01 265.865 381.45C265.045 380.883 264.541 380.093 264.355 379.08L266.175 378.79C266.321 379.377 266.658 379.843 267.185 380.19C267.711 380.53 268.365 380.7 269.145 380.7C269.885 380.7 270.465 380.547 270.885 380.24C271.305 379.933 271.515 379.517 271.515 378.99C271.515 378.683 271.445 378.437 271.305 378.25C271.165 378.057 270.875 377.877 270.435 377.71C270.001 377.543 269.345 377.343 268.465 377.11C267.511 376.857 266.761 376.593 266.215 376.32C265.668 376.047 265.278 375.73 265.045 375.37C264.811 375.01 264.695 374.573 264.695 374.06C264.695 373.427 264.868 372.873 265.215 372.4C265.561 371.92 266.045 371.55 266.665 371.29C267.291 371.03 268.018 370.9 268.845 370.9C269.665 370.9 270.398 371.03 271.045 371.29C271.691 371.55 272.211 371.92 272.605 372.4C273.005 372.873 273.241 373.427 273.315 374.06L271.495 374.39C271.408 373.81 271.128 373.353 270.655 373.02C270.188 372.687 269.585 372.51 268.845 372.49C268.145 372.463 267.575 372.587 267.135 372.86C266.701 373.133 266.485 373.503 266.485 373.97C266.485 374.23 266.565 374.453 266.725 374.64C266.891 374.827 267.195 375.003 267.635 375.17C268.081 375.337 268.728 375.527 269.575 375.74C270.528 375.98 271.278 376.243 271.825 376.53C272.378 376.81 272.771 377.143 273.005 377.53C273.238 377.91 273.355 378.38 273.355 378.94C273.355 379.98 272.971 380.8 272.205 381.4C271.438 381.993 270.381 382.29 269.035 382.29ZM275.76 369.29V367.45H277.54V369.29H275.76ZM275.76 382V371.2H277.54V382H275.76ZM284.911 387.1C284.344 387.1 283.791 387.013 283.251 386.84C282.711 386.667 282.214 386.403 281.761 386.05C281.314 385.703 280.941 385.263 280.641 384.73L282.271 383.87C282.537 384.397 282.914 384.78 283.401 385.02C283.894 385.26 284.401 385.38 284.921 385.38C285.607 385.38 286.177 385.253 286.631 385C287.084 384.753 287.417 384.383 287.631 383.89C287.851 383.397 287.957 382.783 287.951 382.05V379.1H288.161V371.2H289.741V382.07C289.741 382.363 289.731 382.647 289.711 382.92C289.697 383.193 289.664 383.463 289.611 383.73C289.471 384.497 289.194 385.127 288.781 385.62C288.367 386.12 287.834 386.49 287.181 386.73C286.527 386.977 285.771 387.1 284.911 387.1ZM284.781 382.3C283.774 382.3 282.911 382.05 282.191 381.55C281.471 381.043 280.914 380.36 280.521 379.5C280.134 378.64 279.941 377.67 279.941 376.59C279.941 375.51 280.134 374.54 280.521 373.68C280.914 372.82 281.471 372.143 282.191 371.65C282.911 371.15 283.771 370.9 284.771 370.9C285.791 370.9 286.647 371.147 287.341 371.64C288.034 372.133 288.557 372.81 288.911 373.67C289.271 374.53 289.451 375.503 289.451 376.59C289.451 377.663 289.271 378.633 288.911 379.5C288.557 380.36 288.034 381.043 287.341 381.55C286.647 382.05 285.794 382.3 284.781 382.3ZM285.001 380.67C285.727 380.67 286.324 380.497 286.791 380.15C287.257 379.797 287.601 379.313 287.821 378.7C288.047 378.08 288.161 377.377 288.161 376.59C288.161 375.79 288.047 375.087 287.821 374.48C287.601 373.867 287.261 373.39 286.801 373.05C286.341 372.703 285.757 372.53 285.051 372.53C284.317 372.53 283.711 372.71 283.231 373.07C282.757 373.43 282.404 373.917 282.171 374.53C281.944 375.143 281.831 375.83 281.831 376.59C281.831 377.357 281.947 378.05 282.181 378.67C282.414 379.283 282.764 379.77 283.231 380.13C283.704 380.49 284.294 380.67 285.001 380.67ZM300.223 382V376.59C300.223 376.077 300.176 375.583 300.083 375.11C299.996 374.637 299.839 374.213 299.613 373.84C299.393 373.46 299.093 373.16 298.713 372.94C298.339 372.72 297.866 372.61 297.293 372.61C296.846 372.61 296.439 372.687 296.073 372.84C295.713 372.987 295.403 373.213 295.143 373.52C294.883 373.827 294.679 374.213 294.533 374.68C294.393 375.14 294.323 375.683 294.323 376.31L293.153 375.95C293.153 374.903 293.339 374.007 293.713 373.26C294.093 372.507 294.623 371.93 295.303 371.53C295.989 371.123 296.796 370.92 297.723 370.92C298.423 370.92 299.019 371.03 299.513 371.25C300.006 371.47 300.416 371.763 300.743 372.13C301.069 372.49 301.326 372.897 301.513 373.35C301.699 373.797 301.829 374.253 301.903 374.72C301.983 375.18 302.023 375.617 302.023 376.03V382H300.223ZM292.523 382V371.2H294.123V374.09H294.323V382H292.523ZM304.943 382V380.04H306.903V382H304.943Z" fill="white"/>
<path d="M124.5 462C124.5 445.431 137.931 432 154.5 432V432C171.069 432 184.5 445.431 184.5 462V462C184.5 478.569 171.069 492 154.5 492V492C137.931 492 124.5 478.569 124.5 462V462Z" fill="white"/>
<path d="M156.3 447.279C156.09 447.086 155.812 446.984 155.526 446.996C155.241 447.008 154.972 447.133 154.779 447.343C154.586 447.553 154.484 447.832 154.496 448.117C154.508 448.402 154.633 448.671 154.843 448.865L168.065 460.929H138.429C138.145 460.929 137.872 461.042 137.671 461.243C137.47 461.444 137.357 461.716 137.357 462C137.357 462.284 137.47 462.557 137.671 462.758C137.872 462.959 138.145 463.072 138.429 463.072H168.065L154.843 475.136C154.633 475.329 154.508 475.598 154.496 475.883C154.484 476.169 154.586 476.447 154.779 476.657C154.972 476.868 155.241 476.993 155.526 477.005C155.812 477.017 156.09 476.915 156.3 476.722L171.107 463.179C171.27 463.028 171.399 462.846 171.488 462.643C171.576 462.44 171.622 462.222 171.622 462C171.622 461.779 171.576 461.56 171.488 461.357C171.399 461.154 171.27 460.972 171.107 460.822L156.3 447.279Z" fill="#056BF1"/>
</svg>
