<svg width="100" height="100" viewBox="0 0 100 100" fill="none" xmlns="http://www.w3.org/2000/svg">
<mask id="mask0_834_2193" style="mask-type:luminance" maskUnits="userSpaceOnUse" x="0" y="0" width="100" height="100">
<path d="M0 0H100V100H0V0Z" fill="white"/>
</mask>
<g mask="url(#mask0_834_2193)">
<path d="M65.6566 17.1212H73.485C76.0789 17.1212 78.1818 19.2241 78.1818 21.8181V78.1815C78.1818 80.7755 76.0789 82.8784 73.485 82.8784H26.5154C23.9213 82.8784 21.8184 80.7755 21.8184 78.1815V21.8181C21.8184 19.2241 23.9213 17.1212 26.5154 17.1212H34.3439" stroke="white" stroke-width="2" stroke-miterlimit="10" stroke-linecap="round" stroke-linejoin="round"/>
<path d="M71.9201 76.6162H28.082V23.3842H71.9201V76.6162Z" stroke="white" stroke-width="2" stroke-miterlimit="10" stroke-linecap="round" stroke-linejoin="round"/>
<path d="M40.6055 23.3838V17.1213C40.6055 15.3918 42.0074 13.9898 43.7367 13.9898H56.2619C57.9914 13.9898 59.3932 15.3918 59.3932 17.1213V23.3838" stroke="white" stroke-width="2" stroke-miterlimit="10" stroke-linecap="round" stroke-linejoin="round"/>
<path d="M84.4445 26.1054C84.8889 25.7943 85.3092 25.4509 85.7025 25.079L88.7375 26.8312C89.4334 27.2329 90.3205 27.0444 90.7961 26.3966C91.1336 25.9372 91.4494 25.4546 91.741 24.9495C92.0328 24.4444 92.2926 23.9296 92.5219 23.4075C92.8449 22.6718 92.5648 21.8093 91.8688 21.4075L88.8352 19.656C89.0285 18.8411 89.1416 17.9954 89.1416 17.1214C89.1416 16.2472 89.0285 15.4013 88.8352 14.5864L91.8688 12.8351C92.5646 12.4333 92.8449 11.5708 92.5219 10.8349C92.2926 10.313 92.0328 9.79816 91.741 9.29308C91.4494 8.78781 91.1336 8.30538 90.7961 7.84581C90.3205 7.19816 89.4334 7.00968 88.7375 7.41144L85.7025 9.16359C84.4727 8.00089 82.9785 7.11749 81.3135 6.62159V3.12511C81.3135 2.3216 80.7066 1.64757 79.9078 1.55949C79.3412 1.49699 78.7654 1.46476 78.1822 1.46476C77.5988 1.46476 77.023 1.49699 76.4564 1.55949C75.6576 1.64757 75.0508 2.3216 75.0508 3.12511V6.62159C73.3855 7.11749 71.8916 8.0007 70.6615 9.16359L67.6268 7.41144C66.9309 7.00968 66.0437 7.19816 65.5682 7.84581C65.2307 8.30538 64.9148 8.78781 64.6232 9.29308C64.3314 9.79816 64.0715 10.313 63.8424 10.8349C63.8389 10.8429 63.8354 10.8507 63.832 10.8587" stroke="white" stroke-width="2" stroke-miterlimit="10" stroke-linecap="round" stroke-linejoin="round"/>
<path d="M15.5567 73.8945C15.1123 74.2057 14.692 74.549 14.2987 74.9209L11.2637 73.1687C10.5678 72.767 9.68068 72.9555 9.2051 73.6033C8.8676 74.0627 8.55178 74.5453 8.26017 75.0504C7.96838 75.5555 7.70861 76.0703 7.47932 76.5924C7.15627 77.3281 7.43635 78.1906 8.13244 78.5924L11.166 80.3439C10.9727 81.1588 10.8596 82.0045 10.8596 82.8785C10.8596 83.7527 10.9727 84.5986 11.166 85.4135L8.13244 87.1648C7.43654 87.5666 7.15627 88.4291 7.47932 89.165C7.70861 89.6869 7.96838 90.2017 8.26017 90.7068C8.55178 91.2121 8.8676 91.6945 9.2051 92.1541C9.68068 92.8017 10.5678 92.9902 11.2637 92.5885L14.2987 90.8363C15.5285 91.999 17.0227 92.8824 18.6877 93.3783V96.8748C18.6877 97.6783 19.2945 98.3523 20.0934 98.4404C20.66 98.5029 21.2358 98.5351 21.819 98.5351C22.4024 98.5351 22.9781 98.5029 23.5447 98.4404C24.3436 98.3523 24.9504 97.6783 24.9504 96.8748V93.3783C26.6156 92.8824 28.1096 91.9992 29.3397 90.8363L32.3744 92.5885C33.0703 92.9902 33.9574 92.8017 34.433 92.1541C34.7705 91.6945 35.0863 91.2121 35.3779 90.7068C35.6697 90.2017 35.9297 89.6869 36.1588 89.165C36.1623 89.157 36.1658 89.1492 36.1692 89.1412" stroke="white" stroke-width="2" stroke-miterlimit="10" stroke-linecap="round" stroke-linejoin="round"/>
<path d="M35.9102 35.9093L39.0414 39.0405L45.3041 32.778" stroke="white" stroke-width="2" stroke-miterlimit="10" stroke-linecap="round" stroke-linejoin="round"/>
<path d="M51.5664 35.9092H64.0916" stroke="white" stroke-width="2" stroke-miterlimit="10" stroke-linecap="round" stroke-linejoin="round"/>
<path d="M35.9102 50.0001L39.0414 53.1313L45.3041 46.8688" stroke="white" stroke-width="2" stroke-miterlimit="10" stroke-linecap="round" stroke-linejoin="round"/>
<path d="M51.5664 50H64.0916" stroke="white" stroke-width="2" stroke-miterlimit="10" stroke-linecap="round" stroke-linejoin="round"/>
<path d="M35.9102 64.0909L39.0414 67.2222L45.3041 60.9597" stroke="white" stroke-width="2" stroke-miterlimit="10" stroke-linecap="round" stroke-linejoin="round"/>
<path d="M51.5664 64.0908H64.0916" stroke="white" stroke-width="2" stroke-miterlimit="10" stroke-linecap="round" stroke-linejoin="round"/>
</g>
</svg>
