<svg width="69" height="69" viewBox="0 0 69 69" fill="none" xmlns="http://www.w3.org/2000/svg">
<path d="M43.0684 20.1697C43.0684 20.1697 44.5059 21.6072 45.9434 24.4822C45.9434 24.4822 50.5094 17.2947 54.5684 15.8572" stroke="white" stroke-width="3.5" stroke-linecap="round" stroke-linejoin="round"/>
<path d="M28.7352 5.81129C21.5521 5.50717 16.0026 6.33466 16.0026 6.33466C12.4984 6.58521 5.78295 8.54976 5.78301 20.023C5.78306 31.3987 5.70872 45.4229 5.78301 51.0137C5.78301 54.4294 7.89791 62.3969 15.2181 62.8239C24.1158 63.3431 40.1429 63.4535 47.4963 62.8239C49.4648 62.7129 56.0183 61.1676 56.8478 54.0373C57.7071 46.6506 57.5361 41.517 57.5361 40.2951" stroke="white" stroke-width="3.5" stroke-linecap="round" stroke-linejoin="round"/>
<path d="M63.2503 20.1697C63.2503 28.1088 56.8082 34.5448 48.8615 34.5448C40.9147 34.5448 34.4727 28.1088 34.4727 20.1697C34.4727 12.2306 40.9147 5.79468 48.8615 5.79468C56.8082 5.79468 63.2503 12.2306 63.2503 20.1697Z" stroke="white" stroke-width="3.5" stroke-linecap="round" stroke-linejoin="round"/>
<path d="M20.0684 37.4199H31.5683" stroke="white" stroke-width="3.5" stroke-linecap="round" stroke-linejoin="round"/>
<path d="M20.0684 48.9199H43.0683" stroke="white" stroke-width="3.5" stroke-linecap="round" stroke-linejoin="round"/>
</svg>
