<svg width="69" height="69" viewBox="0 0 69 69" fill="none" xmlns="http://www.w3.org/2000/svg">
<path d="M23.0001 23C23.0001 21.3457 23.0001 20.6357 23.1284 19.9081C23.6323 17.0501 25.569 14.6411 28.2699 13.5125C28.9579 13.2251 29.7732 13.0389 31.4042 12.6665L39.246 10.8757C48.9914 8.65035 53.864 7.53767 57.1196 10.1004C60.375 12.663 60.375 17.6114 60.375 27.5081V41.492C60.375 51.3886 60.375 56.3371 57.1193 58.8995C53.864 61.4623 48.9914 60.3497 39.246 58.1242L31.4042 56.3336C29.7732 55.961 28.9579 55.775 28.2699 55.4875C25.5689 54.3588 23.6322 51.9498 23.1283 49.0918C23 48.3644 23 47.6543 23 46" stroke="white" stroke-width="3.5" stroke-linecap="round" stroke-linejoin="round"/>
<path d="M37.375 25.875C37.375 25.875 46 32.2273 46 34.5C46 36.773 37.375 43.125 37.375 43.125M44.5625 34.5H8.625" stroke="white" stroke-width="3.5" stroke-linecap="round" stroke-linejoin="round"/>
</svg>
