<svg width="256" height="256" viewBox="0 0 256 256" fill="none" xmlns="http://www.w3.org/2000/svg">
<path d="M251.5 120.617C251.5 113.023 248.112 105.892 242.342 101.077C242.626 99.6295 242.781 98.143 242.781 96.63C242.781 86.279 235.84 77.5245 226.369 74.762C224.228 64.259 215.06 56.6225 204.074 56.6225C193.54 56.6225 184.407 64.2195 181.954 74.1175H172.124V55.9255C176.478 54.46 179.624 50.3415 179.624 45.4995C179.624 39.434 174.69 34.4995 168.624 34.4995C162.559 34.4995 157.624 39.434 157.624 45.4995C157.624 50.3415 160.77 54.4595 165.124 55.9255V77.6175C165.124 79.5505 166.691 81.1175 168.624 81.1175H181.303V104.309H146.042V25.926C150.396 24.4605 153.542 20.342 153.542 15.5C153.542 9.4345 148.608 4.5 142.542 4.5C136.477 4.5 131.542 9.4345 131.542 15.5C131.542 20.342 134.688 24.46 139.042 25.926V107.809C139.042 109.742 140.609 111.309 142.542 111.309H181.303V124.5H166.01C164.544 120.146 160.425 117 155.583 117C149.518 117 144.583 121.935 144.583 128C144.583 134.065 149.518 139 155.583 139C160.425 139 164.544 135.854 166.01 131.5H181.303V144.691H142.542C140.609 144.691 139.042 146.258 139.042 148.191V230.074C134.688 231.54 131.542 235.659 131.542 240.501C131.542 246.566 136.477 251.501 142.542 251.501C148.608 251.501 153.542 246.566 153.542 240.501C153.542 235.659 150.396 231.54 146.042 230.074V151.691H181.303V174.882H168.624C166.691 174.882 165.124 176.449 165.124 178.382V200.074C160.77 201.54 157.624 205.659 157.624 210.501C157.624 216.566 162.559 221.501 168.624 221.501C174.69 221.501 179.624 216.566 179.624 210.501C179.624 205.659 176.478 201.54 172.124 200.074V181.882H181.934C182.9 185.879 184.957 189.573 187.962 192.605C192.291 196.972 198.013 199.378 204.074 199.378C216.63 199.378 226.845 189.162 226.845 176.607C226.845 176.514 226.841 176.422 226.84 176.329C239.544 174.759 249.413 163.906 249.413 150.785C249.413 145.75 247.955 141.051 245.447 137.079C249.319 132.506 251.5 126.655 251.5 120.617ZM168.624 41.5C170.83 41.5 172.624 43.2945 172.624 45.5C172.624 47.7055 170.83 49.5 168.624 49.5C166.419 49.5 164.624 47.7055 164.624 45.5C164.624 43.2945 166.419 41.5 168.624 41.5ZM142.542 11.5C144.748 11.5 146.542 13.2945 146.542 15.5C146.542 17.7055 144.748 19.5 142.542 19.5C140.337 19.5 138.542 17.7055 138.542 15.5C138.542 13.2945 140.337 11.5 142.542 11.5ZM155.583 132C153.378 132 151.583 130.205 151.583 128C151.583 125.795 153.378 124 155.583 124C157.789 124 159.583 125.795 159.583 128C159.583 130.205 157.789 132 155.583 132ZM142.542 244.5C140.337 244.5 138.542 242.705 138.542 240.5C138.542 238.295 140.337 236.5 142.542 236.5C144.748 236.5 146.542 238.295 146.542 240.5C146.542 242.705 144.748 244.5 142.542 244.5ZM168.624 214.5C166.419 214.5 164.624 212.705 164.624 210.5C164.624 208.295 166.419 206.5 168.624 206.5C170.83 206.5 172.624 208.295 172.624 210.5C172.624 212.705 170.83 214.5 168.624 214.5ZM223.666 169.531C218.666 169.531 213.963 167.585 210.423 164.053C209.055 162.687 206.839 162.69 205.473 164.059C204.108 165.426 204.11 167.643 205.479 169.008C209.423 172.944 214.419 175.445 219.832 176.249C219.835 176.368 219.845 176.487 219.845 176.607C219.845 185.303 212.77 192.377 204.074 192.377C195.526 192.377 188.303 185.155 188.303 176.607V79.393C188.303 70.992 195.673 63.6225 204.074 63.6225C210.853 63.6225 216.633 67.82 218.861 73.8775C213.153 74.156 207.839 76.526 203.794 80.622C202.435 81.997 202.449 84.2135 203.824 85.5715C205.199 86.929 207.415 86.916 208.773 85.5405C211.762 82.515 215.749 80.849 220.001 80.849C228.703 80.849 235.782 87.928 235.782 96.63C235.782 101.557 233.542 106.112 229.636 109.129C228.106 110.31 227.824 112.509 229.005 114.038C229.695 114.931 230.73 115.399 231.777 115.399C232.524 115.399 233.278 115.161 233.914 114.669C236.271 112.849 238.201 110.637 239.656 108.162C242.738 111.53 244.501 115.953 244.501 120.616C244.501 124.662 243.22 128.473 240.852 131.632C236.291 127.535 230.266 125.037 223.667 125.037C221.734 125.037 220.167 126.604 220.167 128.537C220.167 130.47 221.734 132.037 223.667 132.037C234.004 132.037 242.413 140.446 242.413 150.784C242.412 161.121 234.003 169.531 223.666 169.531ZM121.64 182.956V148.191C121.64 146.258 120.073 144.691 118.14 144.691H79.3785V131.5H94.673C96.1385 135.854 100.257 139 105.099 139C111.164 139 116.099 134.065 116.099 128C116.099 121.935 111.164 117 105.099 117C100.257 117 96.139 120.146 94.673 124.5H79.3785V111.309H118.14C120.073 111.309 121.64 109.742 121.64 107.809V73.0435C125.994 71.5775 129.14 67.4595 129.14 62.6175C129.14 56.552 124.205 51.6175 118.14 51.6175C112.074 51.6175 107.14 56.552 107.14 62.6175C107.14 67.4595 110.286 71.5775 114.64 73.0435V104.309H79.3785V104.164C79.3785 102.231 77.8115 100.664 75.8785 100.664C60.8055 100.664 48.543 112.927 48.543 128C48.543 143.073 60.8055 155.335 75.8785 155.335C77.8115 155.335 79.3785 153.768 79.3785 151.835V151.691H114.64V182.956C110.286 184.422 107.14 188.541 107.14 193.383C107.14 199.448 112.075 204.383 118.14 204.383C124.205 204.383 129.14 199.448 129.14 193.383C129.14 188.541 125.994 184.422 121.64 182.956ZM105.099 124C107.304 124 109.099 125.795 109.099 128C109.099 130.205 107.304 132 105.099 132C102.893 132 101.099 130.205 101.099 128C101.099 125.795 102.893 124 105.099 124ZM118.14 58.6175C120.345 58.6175 122.14 60.412 122.14 62.6175C122.14 64.823 120.346 66.6175 118.14 66.6175C115.934 66.6175 114.14 64.823 114.14 62.6175C114.14 60.412 115.934 58.6175 118.14 58.6175ZM72.3785 148.034C62.827 146.37 55.543 138.02 55.543 128C55.543 117.98 62.827 109.63 72.3785 107.966V148.034ZM118.14 197.383C115.934 197.383 114.14 195.588 114.14 193.383C114.14 191.177 115.934 189.383 118.14 189.383C120.345 189.383 122.14 191.177 122.14 193.383C122.14 195.588 120.345 197.383 118.14 197.383ZM95.5575 230.074V178.382C95.5575 176.449 93.9905 174.882 92.0575 174.882H79.3785V161.171C79.3785 159.238 77.8115 157.671 75.8785 157.671C59.5175 157.671 46.2075 144.361 46.2075 128C46.2075 111.639 59.518 98.329 75.8785 98.329C77.8115 98.329 79.3785 96.762 79.3785 94.829V81.1175H92.0575C93.9905 81.1175 95.5575 79.5505 95.5575 77.6175V25.926C99.9115 24.4605 103.058 20.342 103.058 15.5C103.058 9.4345 98.123 4.5 92.0575 4.5C85.992 4.5 81.0575 9.4345 81.0575 15.5C81.0575 20.342 84.2035 24.46 88.5575 25.926V74.118H79.3785V60.122C79.3785 58.189 77.8115 56.622 75.8785 56.622H69.091C64.7025 56.622 61.1325 60.1925 61.1325 64.581C61.1325 70.248 57.456 73.79 54.0155 75.2155C50.575 76.641 45.4695 76.736 41.4625 72.729C39.9595 71.2255 37.9605 70.3975 35.8345 70.3975C33.7085 70.3975 31.7095 71.2255 30.2065 72.7285L20.607 82.328C17.504 85.431 17.504 90.4805 20.607 93.584C24.621 97.5975 24.529 102.702 23.1045 106.141C21.68 109.579 18.1355 113.254 12.459 113.254C8.0705 113.253 4.5 116.824 4.5 121.213V134.788C4.5 139.176 8.0705 142.746 12.4585 142.746C18.1255 142.746 21.6675 146.423 23.093 149.863C24.5185 153.305 24.6135 158.409 20.606 162.417C17.503 165.52 17.503 170.569 20.606 173.673L30.2055 183.271C31.7085 184.774 33.7075 185.602 35.8335 185.602C37.9595 185.602 39.9585 184.774 41.461 183.271C45.4685 179.263 50.5735 179.359 54.0145 180.785C57.455 182.21 61.1315 185.752 61.1315 191.419C61.1315 195.808 64.702 199.378 69.108 199.378L75.8955 199.344C77.8215 199.334 79.3775 197.77 79.3775 195.844V181.882H88.5565V230.074C84.2025 231.54 81.0565 235.658 81.0565 240.5C81.0565 246.565 85.991 251.5 92.0565 251.5C98.122 251.5 103.057 246.565 103.057 240.5C103.058 235.658 99.9115 231.54 95.5575 230.074ZM92.0575 11.5C94.263 11.5 96.0575 13.2945 96.0575 15.5C96.0575 17.7055 94.263 19.5 92.0575 19.5C89.852 19.5 88.0575 17.7055 88.0575 15.5C88.0575 13.2945 89.852 11.5 92.0575 11.5ZM72.3785 192.362L69.091 192.378C68.5625 192.378 68.1325 191.948 68.1325 191.419C68.1325 183.793 63.7495 177.241 56.694 174.318C54.3275 173.337 51.8845 172.859 49.479 172.859C44.7135 172.859 40.096 174.738 36.512 178.322C36.28 178.554 36.0155 178.604 35.8345 178.604C35.653 178.604 35.3885 178.554 35.1565 178.322L25.5575 168.724C25.1835 168.35 25.1835 167.741 25.5575 167.367C30.95 161.975 32.4845 154.242 29.5615 147.186C26.639 140.13 20.086 135.747 12.46 135.747C11.9315 135.747 11.5015 135.317 11.5015 134.788V121.214C11.5015 120.685 11.9315 120.255 12.46 120.255C20.094 120.255 26.651 115.873 29.5725 108.821C32.494 101.768 30.9555 94.033 25.5575 88.635C25.1835 88.261 25.1835 87.652 25.5575 87.2785L35.157 77.6795C35.389 77.447 35.654 77.3985 35.835 77.3985C36.016 77.3985 36.281 77.4475 36.513 77.6795C41.906 83.072 49.639 84.6055 56.695 81.6835C63.7505 78.7605 68.1335 72.208 68.1335 64.582C68.1335 64.053 68.5635 63.623 69.092 63.623H72.3795V91.496C53.794 93.263 39.2085 108.961 39.2085 128.001C39.2085 147.042 53.794 162.74 72.3795 164.507V192.362H72.3785ZM92.0575 244.5C89.852 244.5 88.0575 242.705 88.0575 240.5C88.0575 238.295 89.852 236.5 92.0575 236.5C94.263 236.5 96.0575 238.295 96.0575 240.5C96.0575 242.705 94.263 244.5 92.0575 244.5Z" fill="white"/>
</svg>
