<svg width="106" height="106" viewBox="0 0 106 106" fill="none" xmlns="http://www.w3.org/2000/svg">
<g clip-path="url(#clip0_834_2140)">
<path d="M104.418 42.6656L53.5175 5.83005C53.5126 5.82655 53.5072 5.82429 53.5025 5.82079C53.4361 5.7735 53.3662 5.73115 53.2932 5.69352C53.2815 5.68756 53.2696 5.68221 53.2578 5.67645C53.1861 5.6415 53.1123 5.61045 53.0354 5.58537C53.0321 5.58413 53.0288 5.5829 53.0257 5.58187C52.9498 5.55782 52.8713 5.54013 52.7911 5.52656C52.7734 5.52348 52.7559 5.52101 52.7381 5.51854C52.6605 5.50785 52.582 5.50045 52.5016 5.50024C52.4989 5.50024 52.496 5.50045 52.4932 5.50045C52.4138 5.50066 52.3365 5.50785 52.2598 5.51854C52.2417 5.52101 52.224 5.52368 52.2061 5.52697C52.1266 5.54054 52.0482 5.55823 51.9728 5.58208C51.9684 5.58352 51.9643 5.58537 51.96 5.58681C51.8841 5.61148 51.8112 5.64212 51.7404 5.67686C51.7287 5.68262 51.7166 5.68797 51.7049 5.69393C51.6319 5.73176 51.5619 5.77432 51.4955 5.82141C51.4906 5.82491 51.4853 5.82696 51.4807 5.83046L21.0306 27.8955C20.2542 28.4583 20.0805 29.5439 20.6433 30.3203C21.206 31.0971 22.2918 31.2702 23.068 30.7074L50.7631 10.6385V23.9284C47.4974 24.7147 45.0628 27.6586 45.0628 31.1623C45.0628 31.9933 45.2018 32.7921 45.4542 33.5389L43.0496 35.2815C42.2732 35.8443 42.0995 36.9299 42.6622 37.7063C43.225 38.4827 44.3108 38.6562 45.087 38.0934L47.3015 36.4888C48.2609 37.4316 49.4534 38.0893 50.7631 38.4002V53.6899L34.6212 49.9628C34.6238 49.8789 34.6267 49.7952 34.6267 49.7107C34.6267 49.7105 34.6267 49.7103 34.6267 49.7101C34.6267 49.7099 34.6267 49.7097 34.6267 49.7095C34.6267 49.5684 34.6218 49.4286 34.614 49.2896C34.6117 49.2462 34.6072 49.2035 34.6041 49.1605C34.5969 49.0635 34.5889 48.9668 34.578 48.8708C34.5724 48.8212 34.5657 48.7721 34.5593 48.723C34.5471 48.6331 34.534 48.5441 34.5188 48.4551C34.5101 48.4043 34.5011 48.3539 34.4916 48.3035C34.4748 48.2155 34.4559 48.1285 34.4359 48.042C34.4246 47.9928 34.4141 47.9435 34.4018 47.8946C34.3781 47.8004 34.3516 47.7072 34.3243 47.6145C34.3035 47.5434 34.2815 47.4726 34.2585 47.4023C34.2295 47.3141 34.2003 47.2259 34.1684 47.1393C34.1417 47.0672 34.1123 46.9962 34.0837 46.9249C34.0635 46.8753 34.0438 46.8258 34.0228 46.7766C33.9891 46.6981 33.9533 46.6204 33.9169 46.5429C33.8997 46.5061 33.882 46.4695 33.8639 46.4329C33.8388 46.3821 33.8164 46.3305 33.7903 46.2803L40.5975 41.3473C41.3743 40.7845 41.5476 39.6989 40.9849 38.9225C40.4221 38.1461 39.3363 37.9725 38.5601 38.5353L31.4983 43.6526C30.2807 42.783 28.7921 42.269 27.1848 42.269C24.1613 42.269 21.5549 44.0827 20.392 46.6784L5.7078 43.2882L18.561 33.9744C19.3374 33.4117 19.5112 32.326 18.9484 31.5496C18.3856 30.7732 17.2998 30.5997 16.5236 31.1625L0.580045 42.715C0.57696 42.717 0.574699 42.7199 0.571615 42.7222C0.503763 42.7719 0.439817 42.8268 0.379779 42.8863C0.371143 42.8947 0.363124 42.9033 0.354694 42.912C0.239551 43.0302 0.141063 43.1655 0.0627249 43.3152C0.0559397 43.3279 0.0493601 43.3405 0.0429861 43.3532C0.00782648 43.4246 -0.0234265 43.4984 -0.0489224 43.5755C-0.0526234 43.5868 -0.0550908 43.5987 -0.0585862 43.61C-0.0709229 43.6499 -0.0832596 43.6892 -0.0929234 43.7305C-0.0990918 43.7578 -0.102587 43.7852 -0.107522 43.8127C-0.110812 43.831 -0.114513 43.8491 -0.117186 43.8676C-0.128905 43.9468 -0.135691 44.0258 -0.136719 44.1041C-0.136719 44.1158 -0.136102 44.1277 -0.135691 44.1397C-0.135074 44.2168 -0.129111 44.2928 -0.118419 44.3681C-0.11698 44.3778 -0.116363 44.3872 -0.114924 44.3969C-0.101765 44.4793 -0.0818203 44.5597 -0.0571469 44.6383C-0.0550908 44.6453 -0.0542683 44.6525 -0.0520066 44.6592L19.3905 104.302C19.3925 104.309 19.396 104.314 19.3983 104.321C19.4238 104.396 19.4542 104.469 19.49 104.54C19.4941 104.549 19.4978 104.558 19.5023 104.566C19.5397 104.638 19.5831 104.707 19.6308 104.774C19.6392 104.785 19.6477 104.797 19.6563 104.808C19.7521 104.935 19.8667 105.05 19.9995 105.15C20.0143 105.161 20.0291 105.172 20.0443 105.183C20.0591 105.193 20.0731 105.205 20.0883 105.215C20.1173 105.234 20.1481 105.248 20.1773 105.265C20.2117 105.284 20.2452 105.305 20.2808 105.322C20.3291 105.346 20.3782 105.365 20.4278 105.383C20.459 105.395 20.4897 105.409 20.5215 105.419C20.5816 105.438 20.6422 105.451 20.7033 105.463C20.7278 105.468 20.7512 105.475 20.7761 105.479C20.8639 105.492 20.9521 105.5 21.0401 105.5C21.0413 105.5 21.0425 105.5 21.0438 105.5H83.9557C83.9569 105.5 83.9582 105.5 83.9594 105.5C84.0474 105.5 84.1356 105.492 84.2234 105.479C84.2487 105.475 84.2726 105.468 84.2972 105.462C84.3577 105.45 84.4179 105.437 84.4771 105.419C84.51 105.408 84.5413 105.395 84.5732 105.382C84.6217 105.364 84.6702 105.345 84.7173 105.322C84.7539 105.304 84.7884 105.284 84.8234 105.263C84.8524 105.247 84.8822 105.233 84.9104 105.215C84.9254 105.205 84.9387 105.193 84.9537 105.183C84.9698 105.172 84.9852 105.161 85.0008 105.149C85.1328 105.05 85.247 104.935 85.3426 104.808C85.3514 104.797 85.3602 104.785 85.3685 104.773C85.4162 104.707 85.4596 104.637 85.497 104.565C85.5011 104.557 85.5048 104.549 85.5087 104.541C85.5449 104.468 85.5759 104.394 85.6012 104.318C85.6031 104.312 85.6064 104.307 85.6082 104.302L104.968 44.8624C105.083 44.6206 105.144 44.3519 105.136 44.0745C105.137 43.5274 104.879 42.9987 104.418 42.6656ZM54.2359 10.6364L99.3394 43.2765L84.6151 46.6759C83.3407 44.4 80.9069 42.8575 78.1182 42.8575C76.6306 42.8575 75.2448 43.2979 74.081 44.0527L59.5543 33.54C59.8068 32.793 59.946 31.9938 59.946 31.1625C59.946 27.6553 57.5066 24.7089 54.2359 23.9262V10.6364ZM69.6272 72.1045C69.6145 72.1025 69.6015 72.1019 69.5888 72.0996C69.4179 72.0721 69.245 72.0511 69.0704 72.0355C69.0305 72.032 68.9906 72.0293 68.9506 72.0264C68.7692 72.0133 68.587 72.0042 68.4026 72.0042C67.3916 72.0042 66.4273 72.2078 65.5479 72.5744L55.3199 57.0038L71.3108 53.312C71.9747 54.8163 73.1247 56.0707 74.5938 56.8568L69.6272 72.1045ZM72.3717 79.4459C72.3717 81.6347 70.5911 83.4151 68.4026 83.4151C66.3635 83.4148 64.6802 81.8686 64.4596 79.8874C64.4581 79.8746 64.4553 79.8623 64.454 79.8495C64.4407 79.7167 64.4337 79.5818 64.4337 79.4457C64.4337 77.257 66.2143 75.4766 68.4028 75.4766C68.5414 75.4766 68.6791 75.4842 68.8153 75.4984C68.8665 75.5037 68.9162 75.5144 68.9668 75.5216C69.0511 75.5337 69.1356 75.5444 69.2187 75.5619C69.2728 75.5732 69.3252 75.5895 69.3784 75.603C69.4572 75.6232 69.5359 75.6421 69.6134 75.6672C69.6648 75.6836 69.7144 75.7042 69.7648 75.7227C69.8419 75.7509 69.9188 75.7794 69.9945 75.8125C71.3922 76.4275 72.3717 77.8234 72.3717 79.4459ZM54.2359 53.6899V38.4023C55.5496 38.0926 56.7452 37.434 57.7069 36.4893L71.6632 46.5895C71.3928 47.0579 71.179 47.5549 71.0178 48.0701C71.012 48.0884 71.0067 48.107 71.0011 48.1253C70.9133 48.4139 70.843 48.7084 70.791 49.0079C70.778 49.0822 70.7651 49.1568 70.7542 49.2319C70.7451 49.2952 70.7373 49.3589 70.7299 49.4227C70.719 49.5148 70.7102 49.6073 70.7028 49.7007C70.6987 49.7523 70.6939 49.8039 70.6911 49.8557C70.6904 49.8674 70.689 49.8793 70.6884 49.891L54.2359 53.6899ZM74.4624 51.8452C74.461 51.8419 74.4599 51.8384 74.4585 51.8353C74.4141 51.7298 74.3752 51.6215 74.3396 51.5115C74.331 51.4847 74.3232 51.458 74.3154 51.4311C74.2891 51.3425 74.266 51.2524 74.2457 51.1611C74.2379 51.1249 74.2294 51.0889 74.2224 51.0525C74.2056 50.9648 74.1926 50.8755 74.1817 50.7859C74.1774 50.7495 74.1713 50.7139 74.1678 50.6773C74.156 50.5527 74.1484 50.4271 74.1484 50.2994C74.1484 50.1629 74.1554 50.0278 74.169 49.8947C74.1694 49.8892 74.1708 49.8838 74.1715 49.8781C74.266 48.9843 74.6606 48.1799 75.2499 47.5627C75.2733 47.5382 75.2945 47.5123 75.3186 47.4881C76.0368 46.7729 77.0264 46.3301 78.1176 46.3301C80.3061 46.3301 82.0867 48.1107 82.0867 50.2992C82.0869 52.4873 80.3061 54.2679 78.1178 54.2679C77.739 54.2679 77.3737 54.2114 77.0264 54.1118C76.984 54.0997 76.9415 54.0882 76.8995 54.0748C76.7971 54.0417 76.6966 54.0051 76.5981 53.9644C76.5886 53.9605 76.5788 53.9572 76.5693 53.9533C75.6237 53.5511 74.8644 52.7914 74.4624 51.8452ZM48.5353 31.1625C48.5355 28.9737 50.3159 27.1933 52.5043 27.1933C54.6926 27.1933 56.4734 28.9739 56.4734 31.1625C56.4734 33.204 54.9237 34.8888 52.9395 35.1065C52.9173 35.1088 52.8949 35.1108 52.8723 35.1131C52.751 35.1242 52.6285 35.1318 52.5043 35.1318C52.3801 35.1318 52.2577 35.1244 52.1364 35.1131C52.114 35.111 52.0912 35.109 52.0688 35.1065C50.0844 34.8888 48.5353 33.204 48.5353 31.1625ZM52.4995 59.0352L62.74 74.6249C61.6318 75.9246 60.9607 77.6077 60.9607 79.4455C60.9609 79.5864 60.9656 79.726 60.9734 79.8645C60.9761 79.9149 60.981 79.9653 60.9849 80.0155C60.9917 80.1026 60.9989 80.1898 61.0084 80.2762C61.0111 80.3002 61.0121 80.3245 61.015 80.3486L38.2778 85.3628C37.9402 84.4554 37.4306 83.6394 36.7939 82.9452L52.4995 59.0352ZM31.3626 55.8653C31.4486 55.8069 31.5331 55.7469 31.6161 55.685C31.624 55.6792 31.632 55.6737 31.6398 55.6679C31.7276 55.6021 31.8133 55.5343 31.8978 55.465C31.927 55.4411 31.955 55.416 31.984 55.3918C32.0407 55.3439 32.0969 55.2958 32.1524 55.246C32.1853 55.2166 32.2172 55.1866 32.2494 55.1564C32.2994 55.1099 32.3489 55.0628 32.3977 55.0151C32.4302 54.9832 32.4622 54.951 32.4943 54.9183C32.5418 54.8699 32.5885 54.8208 32.6348 54.771C32.6654 54.7381 32.6958 54.7052 32.7258 54.6719C32.7733 54.6189 32.8196 54.5652 32.8654 54.5107C32.8918 54.4795 32.9187 54.4486 32.9446 54.417C32.9993 54.3502 33.0526 54.2821 33.1048 54.2132C33.1202 54.1929 33.1364 54.1731 33.1519 54.1528C33.2183 54.0637 33.2828 53.9729 33.3453 53.8807C33.3636 53.8536 33.3809 53.8258 33.399 53.7985C33.4428 53.7323 33.486 53.6657 33.5277 53.5978C33.5499 53.5614 33.5715 53.5246 33.5931 53.4878C33.6274 53.43 33.6614 53.3719 33.6941 53.313L49.6794 57.0038L33.9106 81.0096C33.7833 80.9625 33.6544 80.9195 33.5238 80.8792C33.5179 80.8774 33.5117 80.8755 33.5057 80.8737C33.3291 80.8196 33.1496 80.7721 32.9676 80.731C32.9041 80.7164 32.841 80.7014 32.777 80.6884C32.7034 80.6738 32.6296 80.6611 32.5552 80.6485C32.4478 80.6302 32.3397 80.6148 32.2305 80.601C32.1832 80.5953 32.1368 80.5879 32.0893 80.583C31.9289 80.5661 31.7669 80.5556 31.6036 80.5492C31.5863 80.5486 31.5697 80.5461 31.5522 80.5457L28.8163 56.9717C28.862 56.9616 28.9068 56.9493 28.9522 56.9382C28.9958 56.9275 29.0388 56.9176 29.0816 56.9063C29.1587 56.886 29.2347 56.8638 29.311 56.8409C29.3448 56.8309 29.3789 56.8218 29.4122 56.8113C29.5206 56.7772 29.6277 56.7412 29.734 56.7024C29.7566 56.6939 29.7786 56.6847 29.8012 56.6762C29.8853 56.6446 29.9686 56.6121 30.051 56.5775C30.0893 56.5615 30.1267 56.5444 30.1647 56.5278C30.2307 56.4988 30.2965 56.4694 30.3615 56.4388C30.4024 56.4192 30.4429 56.3991 30.4836 56.3787C30.5449 56.3481 30.6058 56.3172 30.666 56.2852C30.7065 56.2636 30.747 56.2416 30.7871 56.2194C30.8474 56.1861 30.9066 56.1515 30.9656 56.1166C31.0038 56.0939 31.0421 56.0713 31.0799 56.0483C31.1426 56.0096 31.2043 55.9696 31.2656 55.929C31.2977 55.9079 31.3306 55.8869 31.3626 55.8653ZM35.2758 87.9835C35.2758 90.1723 33.4952 91.9527 31.3067 91.9527C29.1186 91.9527 27.3378 90.1721 27.3378 87.9835C27.3378 86.0915 28.6699 84.5069 30.4446 84.1117C30.5601 84.086 30.6763 84.067 30.7927 84.0516C30.8194 84.0481 30.8449 84.0424 30.8718 84.0395C31.017 84.0233 31.1622 84.0144 31.3067 84.0144C31.4408 84.0144 31.5734 84.0216 31.7039 84.0346C31.7272 84.0368 31.7494 84.0416 31.7722 84.0442C31.882 84.0572 31.991 84.0722 32.0979 84.094C32.1113 84.0967 32.1242 84.1008 32.1378 84.1034C33.6509 84.4273 34.8455 85.6159 35.1798 87.1253C35.185 87.1488 35.1919 87.1714 35.1967 87.195C35.2133 87.2775 35.2238 87.3622 35.2351 87.4463C35.2417 87.4944 35.2512 87.5415 35.2559 87.5902C35.2688 87.72 35.2758 87.8509 35.2758 87.9835ZM27.185 45.7412C28.3956 45.7412 29.4794 46.2875 30.2081 47.1445C30.2316 47.1718 30.2544 47.1994 30.2768 47.2271C30.3331 47.297 30.387 47.3692 30.4384 47.443C30.4592 47.4728 30.4801 47.5025 30.4999 47.5329C30.5482 47.6063 30.5936 47.682 30.6372 47.7586C30.6568 47.793 30.6761 47.8269 30.6944 47.8617C30.7335 47.9357 30.7694 48.012 30.804 48.0889C30.8219 48.129 30.8406 48.1684 30.857 48.2089C30.887 48.2825 30.9136 48.3578 30.9395 48.4335C30.9549 48.4791 30.9713 48.5241 30.9853 48.5702C31.0075 48.6442 31.0256 48.7203 31.0437 48.7962C31.0552 48.8449 31.0682 48.8928 31.0781 48.9419C31.0941 49.0232 31.105 49.106 31.1159 49.1889C31.1216 49.2331 31.1301 49.2771 31.1344 49.3215C31.1469 49.4494 31.1541 49.5785 31.1541 49.7093C31.1541 51.4874 29.9784 52.9964 28.364 53.4997C27.9912 53.6159 27.5954 53.6784 27.185 53.6784C24.9965 53.6784 23.2161 51.8978 23.2161 49.7093C23.2163 47.5218 24.9965 45.7412 27.185 45.7412ZM4.20169 46.5038L19.7534 50.0942C19.9211 53.3815 22.2326 56.1122 25.3137 56.9133L28.1384 81.2518C25.6154 82.4441 23.8652 85.0127 23.8652 87.9833C23.8652 89.9819 24.6586 91.7974 25.945 93.1358L21.5728 99.7918L4.20169 46.5038ZM24.2591 102.027L28.8671 95.0124C29.632 95.2787 30.4524 95.4253 31.3067 95.4253C35.1251 95.4253 38.2794 92.5339 38.6995 88.8261L62.2534 83.6318C63.5946 85.5956 65.8501 86.8874 68.4024 86.8874C69.1601 86.8874 69.8914 86.7729 70.5809 86.5615L80.7401 102.028H24.2591V102.027ZM83.4258 99.7908L73.5727 84.7906C74.9719 83.4368 75.8443 81.5417 75.8443 79.4455C75.8443 77.001 74.6594 74.8285 72.834 73.4712L77.959 57.7366C78.0121 57.7378 78.0649 57.7407 78.1184 57.7407C82.2218 57.7407 85.5601 54.4024 85.5601 50.2992C85.5601 50.2069 85.5564 50.1152 85.5531 50.0235L100.781 46.5075L83.4258 99.7908Z" fill="white"/>
</g>
<defs>
<clipPath id="clip0_834_2140">
<rect width="106" height="106" fill="white"/>
</clipPath>
</defs>
</svg>
