<svg width="100" height="100" viewBox="0 0 100 100" fill="none" xmlns="http://www.w3.org/2000/svg">
<g clip-path="url(#clip0_813_1975)">
<path d="M38.5482 14.9667L34.4045 15.5689C32.6197 15.8283 31.907 18.0216 33.1986 19.2804L38.24 24.1945C39.3551 25.2814 39.8639 26.8472 39.6006 28.382L38.4106 35.3208C38.1057 37.0984 39.9715 38.454 41.5678 37.6148L47.7992 34.3388C49.1775 33.6142 50.824 33.6142 52.2022 34.3388L58.4336 37.6148C60.0299 38.454 61.8957 37.0986 61.5908 35.3208L60.4008 28.382C60.1375 26.8472 60.6463 25.2814 61.7613 24.1945L66.8027 19.2804C68.0942 18.0216 67.3816 15.8283 65.5969 15.5689L58.6299 14.5566C57.0891 14.3328 55.7568 13.3648 55.0678 11.9685L51.9522 5.65542C51.1539 4.03804 48.8479 4.03804 48.0496 5.65542L44.934 11.9685" stroke="white" stroke-width="3" stroke-miterlimit="10" stroke-linecap="round" stroke-linejoin="round"/>
<path d="M50.002 68.6667V95.5579C49.51 95.5579 49.0178 95.4423 48.5646 95.211L29.4025 85.4421C28.2908 84.8759 27.5859 83.703 27.5859 82.42V59.2872C27.5859 58.6401 27.765 58.0216 28.0854 57.4937L50.002 68.6667Z" stroke="white" stroke-width="3" stroke-miterlimit="10" stroke-linecap="round" stroke-linejoin="round"/>
<path d="M72.415 59.2874V82.4202C72.415 83.7032 71.7111 84.8761 70.5984 85.4423L51.4373 95.2112C50.9842 95.4425 50.4922 95.5581 50 95.5581V68.6667L71.9154 57.4937C72.2359 58.0218 72.415 58.6403 72.415 59.2874Z" stroke="white" stroke-width="3" stroke-miterlimit="10" stroke-linecap="round" stroke-linejoin="round"/>
<path d="M62.5037 51.9156L70.6598 56.2972C71.1834 56.5777 71.6133 56.9955 71.9158 57.4941L50.0004 68.6672L28.084 57.4941C28.3875 56.9955 28.8162 56.5777 29.34 56.2972L48.5012 46.0035C48.5064 46.0013 48.5107 45.998 48.516 45.9959C49.4527 45.4984 50.5645 45.5005 51.499 46.0035L56.3816 48.6265" stroke="white" stroke-width="3" stroke-miterlimit="10" stroke-linecap="round" stroke-linejoin="round"/>
<path d="M87.931 42.4203L92.2611 44.6969C93.3705 45.2801 94.667 44.3381 94.4551 43.1029L93.6281 38.2812C93.4453 37.2148 93.7988 36.1266 94.5736 35.3715L98.0767 31.9568C98.9742 31.082 98.4789 29.558 97.2387 29.3777L92.3974 28.6742C91.3267 28.5186 90.401 27.8461 89.9223 26.8758L87.7572 22.4889C87.2025 21.365 85.6 21.365 85.0453 22.4889L82.8803 26.8758C82.4013 27.8461 81.4758 28.5186 80.4051 28.6742L75.5638 29.3777C74.3236 29.558 73.8285 31.082 74.7258 31.9568L78.2289 35.3715C79.0037 36.1268 79.3572 37.2148 79.1744 38.2812L78.3474 43.1029C78.1355 44.3381 79.432 45.2801 80.5414 44.6969L84.8715 42.4203C85.8291 41.9168 86.9732 41.9168 87.931 42.4203Z" stroke="white" stroke-width="3" stroke-miterlimit="10" stroke-linecap="round" stroke-linejoin="round"/>
<path d="M12.0688 42.42L7.73874 44.6966C6.62936 45.2798 5.33288 44.3378 5.54479 43.1026L6.37175 38.281C6.55456 37.2146 6.20104 36.1263 5.42624 35.3712L1.92311 31.9563C1.02565 31.0815 1.52096 29.5575 2.7612 29.3772L7.60241 28.6737C8.67311 28.5181 9.59889 27.8456 10.0776 26.8753L12.2426 22.4884C12.7973 21.3646 14.3999 21.3646 14.9546 22.4884L17.1196 26.8753C17.5985 27.8456 18.5241 28.5181 19.5948 28.6737L24.436 29.3772C25.6762 29.5575 26.1714 31.0815 25.2741 31.9563L21.771 35.371C20.9962 36.1263 20.6426 37.2144 20.8255 38.2808L21.6524 43.1024C21.8643 44.3376 20.5678 45.2796 19.4585 44.6964L15.1284 42.4198C14.1708 41.9165 13.0266 41.9165 12.0688 42.42Z" stroke="white" stroke-width="3" stroke-miterlimit="10" stroke-linecap="round" stroke-linejoin="round"/>
<path d="M68.6719 7.11963H74.0275" stroke="white" stroke-width="3" stroke-miterlimit="10" stroke-linecap="round" stroke-linejoin="round"/>
<path d="M71.3496 4.44189V9.79736" stroke="white" stroke-width="3" stroke-miterlimit="10" stroke-linecap="round" stroke-linejoin="round"/>
<path d="M28.4883 43.7444H33.8438" stroke="white" stroke-width="3" stroke-miterlimit="10" stroke-linecap="round" stroke-linejoin="round"/>
<path d="M31.168 41.0667V46.4221" stroke="white" stroke-width="3" stroke-miterlimit="10" stroke-linecap="round" stroke-linejoin="round"/>
<circle cx="76.2617" cy="12.5745" r="1.46484" fill="white"/>
</g>
<defs>
<clipPath id="clip0_813_1975">
<rect width="100" height="100" fill="white"/>
</clipPath>
</defs>
</svg>
