<svg width="69" height="69" viewBox="0 0 69 69" fill="none" xmlns="http://www.w3.org/2000/svg">
<path d="M28.7902 5.75C17.929 5.75 12.4983 5.75 9.12416 9.11826C5.75 12.4866 5.75 17.9077 5.75 28.75C5.75 39.5922 5.75 45.0136 9.12416 48.3816C12.4983 51.75 17.929 51.75 28.7902 51.75H40.3104C51.1718 51.75 56.6024 51.75 59.9765 48.3816C62.3041 46.0584 63.026 42.7579 63.25 37.375" stroke="white" stroke-width="3.5" stroke-linecap="round"/>
<path d="M34.5 51.75V63.25" stroke="white" stroke-width="3.5" stroke-linecap="round"/>
<path d="M23 63.25H46" stroke="white" stroke-width="3.5" stroke-linecap="round"/>
<path d="M31.625 43.125H37.375" stroke="white" stroke-width="3.5" stroke-linecap="round"/>
<path d="M51.75 11.5H46C43.2895 11.5 41.9342 11.5 41.0921 12.3421C40.25 13.1841 40.25 14.5394 40.25 17.25V23C40.25 25.7106 40.25 27.0659 41.0921 27.9079C41.9342 28.75 43.2895 28.75 46 28.75H51.75C54.4605 28.75 55.8158 28.75 56.6579 27.9079C57.5 27.0659 57.5 25.7106 57.5 23V17.25C57.5 14.5394 57.5 13.1841 56.6579 12.3421C55.8158 11.5 54.4605 11.5 51.75 11.5Z" stroke="white" stroke-width="3.5" stroke-linecap="round"/>
<path d="M44.5625 28.75V34.5M53.1875 28.75V34.5M44.5625 5.75V11.5M53.1875 5.75V11.5M40.25 15.8125H34.5M40.25 24.4375H34.5M63.25 15.8125H57.5M63.25 24.4375H57.5" stroke="white" stroke-width="3.5" stroke-linecap="round"/>
</svg>
