<svg width="69" height="69" viewBox="0 0 69 69" fill="none" xmlns="http://www.w3.org/2000/svg">
<path d="M54.625 34.5C54.625 32.1183 56.5558 30.1875 58.9375 30.1875C61.3192 30.1875 63.25 32.1183 63.25 34.5C63.25 36.8817 61.3192 38.8125 58.9375 38.8125C56.5558 38.8125 54.625 36.8817 54.625 34.5Z" stroke="white" stroke-width="3"/>
<path d="M5.75 34.5C5.75 32.1183 7.68076 30.1875 10.0625 30.1875C12.4442 30.1875 14.375 32.1183 14.375 34.5C14.375 36.8817 12.4442 38.8125 10.0625 38.8125C7.68076 38.8125 5.75 36.8817 5.75 34.5Z" stroke="white" stroke-width="3"/>
<path d="M39.4079 29.5921C38.5658 28.75 37.2105 28.75 34.5 28.75C31.7895 28.75 30.4342 28.75 29.5921 29.5921M39.4079 29.5921C40.25 30.4342 40.25 31.7895 40.25 34.5C40.25 37.2105 40.25 38.5658 39.4079 39.4079M29.5921 29.5921C28.75 30.4342 28.75 31.7895 28.75 34.5C28.75 37.2105 28.75 38.5658 29.5921 39.4079M29.5921 39.4079C30.4342 40.25 31.7895 40.25 34.5 40.25C37.2105 40.25 38.5658 40.25 39.4079 39.4079" stroke="white" stroke-width="3"/>
<path d="M59.5329 6.59206C58.6908 5.75 57.3355 5.75 54.625 5.75C51.9145 5.75 50.5592 5.75 49.7171 6.59206M59.5329 6.59206C60.375 7.43415 60.375 8.78942 60.375 11.5C60.375 14.2106 60.375 15.5659 59.5329 16.4079M49.7171 6.59206C48.875 7.43415 48.875 8.78942 48.875 11.5C48.875 14.2106 48.875 15.5659 49.7171 16.4079M49.7171 16.4079C50.5592 17.25 51.9145 17.25 54.625 17.25C57.3355 17.25 58.6908 17.25 59.5329 16.4079" stroke="white" stroke-width="3"/>
<path d="M19.2829 52.5921C18.4409 51.75 17.0856 51.75 14.375 51.75C11.6644 51.75 10.3091 51.75 9.46706 52.5921M19.2829 52.5921C20.125 53.4342 20.125 54.7895 20.125 57.5C20.125 60.2105 20.125 61.5658 19.2829 62.4079M9.46706 52.5921C8.625 53.4342 8.625 54.7895 8.625 57.5C8.625 60.2105 8.625 61.5658 9.46706 62.4079M9.46706 62.4079C10.3091 63.25 11.6644 63.25 14.375 63.25C17.0856 63.25 18.4409 63.25 19.2829 62.4079" stroke="white" stroke-width="3"/>
<path d="M14.375 34.5H28.75" stroke="white" stroke-width="3"/>
<path d="M40.25 34.5H54.625" stroke="white" stroke-width="3"/>
<path d="M34.5 28.75C34.5 23 36.8957 11.5 48.875 11.5" stroke="white" stroke-width="3"/>
<path d="M34.5 40.25C34.5 46 32.1043 57.5 20.125 57.5" stroke="white" stroke-width="3"/>
</svg>
